<svg xmlns="http://www.w3.org/2000/svg" width="181.01" height="144.191" viewBox="0 0 181.01 144.191">
  <g id="Illustration" transform="translate(-81.379 -80.528)">
    <g id="Layer_1_copy" data-name="Layer 1 copy" transform="translate(81.379 80.528)">
      <path id="Tracé_1294" data-name="Tracé 1294" d="M165.4,181.084H86.67a5.3,5.3,0,0,1-5.291-5.291V85.819a5.3,5.3,0,0,1,5.291-5.291H165.4a5.3,5.3,0,0,1,5.291,5.291v89.975A5.3,5.3,0,0,1,165.4,181.084Z" transform="translate(-81.379 -80.528)" fill="#b4b6ba"/>
      <path id="Tracé_1295" data-name="Tracé 1295" d="M175.288,190.676H103.914a4.7,4.7,0,0,1-4.7-4.7V103.637a4.7,4.7,0,0,1,4.7-4.7h71.374a4.7,4.7,0,0,1,4.7,4.7v82.342A4.7,4.7,0,0,1,175.288,190.676Z" transform="translate(-94.945 -94.53)" fill="#fff"/>
      <path id="Tracé_1296" data-name="Tracé 1296" d="M202.629,384.123H145.787a1.174,1.174,0,1,1,0-2.349h56.845a1.174,1.174,0,0,1,0,2.349Z" transform="translate(-129.467 -309.626)" fill="#b4b6ba"/>
      <path id="Tracé_1297" data-name="Tracé 1297" d="M202.634,403.5H145.792a1.174,1.174,0,1,1,0-2.349h56.842a1.174,1.174,0,1,1,0,2.349Z" transform="translate(-129.472 -324.361)" fill="#b4b6ba"/>
      <path id="Tracé_1298" data-name="Tracé 1298" d="M639.258,463.527s-1.836,8.977,1.224,8.161,1.836-8.569,1.836-8.569Z" transform="translate(-505.232 -371.489)" fill="#a0616a"/>
      <g id="ignore" transform="translate(19.222 11.307)">
        <g id="ignore-2" data-name="ignore">
          <path id="Tracé_1402" data-name="Tracé 1402" d="M57.533,32.434a3.043,3.043,0,0,0-2.152.9l-4.95,6.1.651-18.8c0-.1.18-1.5-2.1-1.5a1.53,1.53,0,0,0-1.5,1.351l-1.4,12.8h-.2l-.452-13.553a1.5,1.5,0,0,0-1.5-1.451h-.6a1.5,1.5,0,0,0-1.5,1.451l-.452,13.553h-.249l-.75-11.953a1.428,1.428,0,0,0-1.451-1.351h-.7a1.473,1.473,0,0,0-1.451,1.451v12.9l-.149.1-1.65-7.749a1.532,1.532,0,0,0-1.5-1.252,1.49,1.49,0,0,0-1.5,1.5l.651,15a11.6,11.6,0,0,0,22.351,4.1l4.9-12.1a2,2,0,0,0,.05-.249c0-.387-1.08-1.252-2.4-1.252Z" transform="translate(-19.73 -11.281)" fill="#b4b6ba"/>
          <path id="Tracé_1403" data-name="Tracé 1403" d="M24.5,0A24.5,24.5,0,1,0,49,24.5,24.5,24.5,0,0,0,24.5,0Zm0,45.506a21,21,0,1,1,21-21A21,21,0,0,1,24.5,45.506Z" fill="#b4b6ba"/>
        </g>
      </g>
    </g>
    <g id="Layer_4" data-name="Layer 4" transform="translate(149.9 199.484)">
      <path id="Tracé_1299" data-name="Tracé 1299" d="M473.837,628.168c2.9,1.945,6.21,11.778,6.21,11.778s-10.353.675-13.254-1.269a6.326,6.326,0,1,1,7.04-10.512l0,0Z" transform="translate(-440.874 -615.149)" fill="#e2e4e3"/>
      <path id="Tracé_1300" data-name="Tracé 1300" d="M483.606,648.437l-.162.129a32.675,32.675,0,0,0-14.933-10.01l.056-.2A32.905,32.905,0,0,1,483.606,648.437Z" transform="translate(-444.315 -623.714)" fill="#f4f5f6"/>
      <path id="Tracé_1301" data-name="Tracé 1301" d="M514.363,586.312c-.185,4.832-9.371,15.868-9.371,15.868s-8.311-11.709-8.126-16.539a8.755,8.755,0,1,1,17.5.662v.01Z" transform="translate(-465.876 -577.216)" fill="#e2e4e3"/>
      <path id="Tracé_1302" data-name="Tracé 1302" d="M530.668,602.3l-.27-.1c4.451-12.358.991-24.739.955-24.862l.276-.079C531.665,577.383,535.151,589.849,530.668,602.3Z" transform="translate(-491.38 -577.248)" fill="#f4f5f6"/>
      <path id="Tracé_1303" data-name="Tracé 1303" d="M479.684,680.773H367.768a.285.285,0,1,1,0-.57H479.684a.285.285,0,0,1,0,.57Z" transform="translate(-367.481 -655.538)" fill="#d1d4d4"/>
    </g>
    <g id="Person" transform="translate(188.083 107.884)">
      <g id="Layer_3" data-name="Layer 3" transform="translate(7.829)">
        <circle id="Ellipse_2" data-name="Ellipse 2" cx="6.121" cy="6.121" r="6.121" transform="translate(8.089 1.434)" fill="#9e616a"/>
        <path id="Tracé_1304" data-name="Tracé 1304" d="M593.659,207.977a10.434,10.434,0,0,0,1.574-1.445,3.494,3.494,0,0,0,.853-1.927,2.122,2.122,0,0,0-.809-1.881,1.537,1.537,0,0,0-1.956.137,2.578,2.578,0,0,0-.026-2.281,3.32,3.32,0,0,0-1.929-.865,5.589,5.589,0,0,1-3.232-2.407l1.179.244-.131-.841.977.34.009-1.171,1.009.564a6.439,6.439,0,0,1,4.536-1.69,5.016,5.016,0,0,1,2.405.66,3.521,3.521,0,0,1,1.567,1.9,1.655,1.655,0,0,1,2.063-.076,3.576,3.576,0,0,1,1.231,1.831,7.9,7.9,0,0,1,.332,4.228,6.292,6.292,0,0,1-2.162,3.612,7.019,7.019,0,0,1-3.521,1.4,13.134,13.134,0,0,1-3.82-.163" transform="translate(-581.3 -194.752)" fill="#2f2e41"/>
        <path id="Tracé_1305" data-name="Tracé 1305" d="M658.437,436.94a2.051,2.051,0,0,1,.409-3.119l-1.681-7.094,3.559,1.3,1.051,6.537a2.063,2.063,0,0,1-3.337,2.376Z" transform="translate(-633.799 -371.169)" fill="#9e616a"/>
        <path id="Tracé_1306" data-name="Tracé 1306" d="M563.192,436.83a2.051,2.051,0,0,0-.409-3.119l1.681-7.094-3.558,1.3-1.051,6.538a2.063,2.063,0,0,0,3.337,2.376Z" transform="translate(-559.601 -371.086)" fill="#9e616a"/>
      </g>
      <g id="Groupe_1730" data-name="Groupe 1730" transform="translate(8.112 16.119)">
        <path id="Tracé_1307" data-name="Tracé 1307" d="M587.394,298.3c-.408-.612,0-1.428,0-2.652s-.816-1.836-.816-3.877c0-1.01-.6-5.418-1.181-9.836a45.817,45.817,0,0,1,0-6.818,5.3,5.3,0,0,0-.363-2.678c-1.328-3.762-1.649-3.314-6.749-10.047a14.444,14.444,0,0,0-6.121,0,45.736,45.736,0,0,0-5.231,6.094h0s-2.244,1.632-2.04,3.468-2.244,17.75-2.244,19.79-.816,2.652-.816,3.876.408,2.04,0,2.652a15.066,15.066,0,0,0-1.02,5.713,11.523,11.523,0,0,1,0,2.856h3.672s.292-.99.73-2.426c2.926.444,13.862.927,19.125,1.117.248.822.4,1.335.4,1.335h3.672a11.51,11.51,0,0,1,0-2.856A15.066,15.066,0,0,0,587.394,298.3Z" transform="translate(-560.783 -262.053)" fill="#368ec4"/>
        <path id="Tracé_1308" data-name="Tracé 1308" d="M582.572,393.988l6.137-13.5-3.068,14.36Z" transform="translate(-577.353 -352.122)" opacity="0.1" style="isolation: isolate"/>
      </g>
      <g id="Groupe_1731" data-name="Groupe 1731" transform="translate(0 57.234)">
        <path id="Tracé_1309" data-name="Tracé 1309" d="M653.242,635.98h-2.714l-1.291-10.469h4.006Z" transform="translate(-619.941 -579.58)" fill="#9e616a"/>
        <path id="Tracé_1310" data-name="Tracé 1310" d="M554.2,633.31l-2.549-.933,2.384-10.275,3.762,1.376Z" transform="translate(-545.723 -576.987)" fill="#9e616a"/>
        <path id="Tracé_1311" data-name="Tracé 1311" d="M641.062,665.188H632.31v-.111a3.407,3.407,0,0,1,3.406-3.406h0l1.6-1.213,2.982,1.213h.764Z" transform="translate(-607.068 -606.157)" fill="#2f2e41"/>
        <path id="Tracé_1312" data-name="Tracé 1312" d="M535.132,662.015l-8.219-3.007.038-.1a3.406,3.406,0,0,1,4.369-2.029h0l1.918-.59,2.384,2.164.717.262Z" transform="translate(-526.913 -602.984)" fill="#2f2e41"/>
        <path id="Tracé_1313" data-name="Tracé 1313" d="M558.111,433.729s-2.448,3.264-2.448,5.1-.816,18.158-.816,18.158-6.195,24.305-4.971,25.529,5.509,2.448,6.121,1.836,5.99-25.733,5.99-25.733l5.1-13.669,4.693,19.586.408,20.81s5.1,1.224,6.121.408,1.224-20.606,0-27.543.2-22.85.2-22.85Z" transform="translate(-544.255 -433.729)" fill="#2f2e41"/>
      </g>
    </g>
  </g>
</svg>
