<svg xmlns="http://www.w3.org/2000/svg" width="150" height="86" viewBox="0 0 150 86">
  <g id="Groupe_3410" data-name="Groupe 3410" transform="translate(-10 -10)">
    <rect id="Capture_d_écran_2024-07-04_à_11.50.36" data-name="Capture d’écran 2024-07-04 à 11.50.36" width="150" height="86" rx="5" transform="translate(10 10)" fill="#d5e8f2"/>
    <path id="Tracé_1426" data-name="Tracé 1426" d="M1.339-3.592a9.293,9.293,0,0,1-4.49-1.159A8.69,8.69,0,0,1-6.563-8.1L-3.1-11.559A4.416,4.416,0,0,0-1.437-9.078a4.518,4.518,0,0,0,2.743.914A4.2,4.2,0,0,0,2.939-8.49a3.846,3.846,0,0,0,.376-.147,2.922,2.922,0,0,0,.359-.2q.18-.114.392-.278a5.45,5.45,0,0,0,.506-.457l5.551-5.518a4.7,4.7,0,0,0,.98-1.5,4.448,4.448,0,0,0,.327-1.665,4.657,4.657,0,0,0-.327-1.714,4.644,4.644,0,0,0-.914-1.469,4.487,4.487,0,0,0-1.437-1.029,4.466,4.466,0,0,0-1.894-.392,4.521,4.521,0,0,0-1.273.163,3.89,3.89,0,0,0-1.012.457,6.342,6.342,0,0,0-.865.669q-.408.376-.833.8a11.741,11.741,0,0,0-4.212-.784,12.889,12.889,0,0,0-1.6.1l3.331-3.3A9.194,9.194,0,0,1,3.314-26.71a8.925,8.925,0,0,1,3.543-.718,8.744,8.744,0,0,1,3.739.784,9.221,9.221,0,0,1,2.873,2.057,9.374,9.374,0,0,1,1.861,2.939A9.114,9.114,0,0,1,16-18.22a9.02,9.02,0,0,1-.653,3.347A9.008,9.008,0,0,1,13.29-11.82q-1.535,1.535-2.6,2.612T8.865-7.38Q8.1-6.629,7.592-6.139a10.389,10.389,0,0,1-.914.8,6.992,6.992,0,0,1-.784.522q-.376.212-.865.441A9.138,9.138,0,0,1,1.339-3.592ZM-16-4.637a9.065,9.065,0,0,1,.653-3.331,8.963,8.963,0,0,1,2.057-3.069q1.535-1.535,2.6-2.612t1.829-1.829q.767-.751,1.273-1.241a10.389,10.389,0,0,1,.914-.8,6.991,6.991,0,0,1,.784-.522q.376-.212.865-.441a8.988,8.988,0,0,1,3.69-.784,9.293,9.293,0,0,1,4.49,1.159,8.69,8.69,0,0,1,3.412,3.347L3.1-11.3A4.416,4.416,0,0,0,1.437-13.78a4.518,4.518,0,0,0-2.743-.914,3.993,3.993,0,0,0-.816.082,5.282,5.282,0,0,0-.816.245,3.925,3.925,0,0,0-1,.555A17.021,17.021,0,0,0-5.29-12.6l-4.833,4.833a4.7,4.7,0,0,0-.98,1.5A4.448,4.448,0,0,0-11.429-4.6,4.656,4.656,0,0,0-11.1-2.89a4.644,4.644,0,0,0,.914,1.469A4.487,4.487,0,0,0-8.751-.392,4.466,4.466,0,0,0-6.857,0,4.52,4.52,0,0,0-5.584-.163,3.89,3.89,0,0,0-4.571-.62a6.342,6.342,0,0,0,.865-.669q.408-.376.833-.8a10.084,10.084,0,0,0,2.09.6,12.316,12.316,0,0,0,2.09.18,13.161,13.161,0,0,0,1.633-.1l-3.331,3.3A8.727,8.727,0,0,1-3.314,3.869a9.1,9.1,0,0,1-3.543.7A8.744,8.744,0,0,1-10.6,3.788a9.221,9.221,0,0,1-2.873-2.057,9.374,9.374,0,0,1-1.861-2.939A9.114,9.114,0,0,1-16-4.637Z" transform="translate(80 64)" fill="#368ec4"/>
  </g>
</svg>
