<svg viewBox="0 0 80 80" fill="none" xmlns="http://www.w3.org/2000/svg">
<circle cx="40" cy="40" r="40" fill="#191970"/>
<path d="M57.0918 21.0102C57.0918 22.3027 56.6497 23.3912 55.7653 24.2755C54.881 25.1599 53.7925 25.602 52.5 25.602C52.1939 25.602 51.8878 25.568 51.5816 25.5C51.3095 25.432 51.0374 25.3469 50.7653 25.2449L47.9082 28.1531C47.568 28.4932 47.1429 28.6633 46.6327 28.6633H41.7857V25.0918H45.9184L48.2653 22.7449C48.1633 22.4728 48.0782 22.2007 48.0102 21.9286C47.9422 21.6225 47.9082 21.3163 47.9082 21.0102C47.9082 19.7177 48.3503 18.6293 49.2347 17.7449C50.119 16.8605 51.2075 16.4184 52.5 16.4184C53.7925 16.4184 54.881 16.8605 55.7653 17.7449C56.6497 18.6293 57.0918 19.7177 57.0918 21.0102ZM34.898 26.3673C34.966 26.1973 35.017 26.0272 35.051 25.8571C35.085 25.6531 35.102 25.449 35.102 25.2449C35.102 24.6667 34.983 24.1565 34.7449 23.7143C34.5068 23.2721 34.0986 23.051 33.5204 23.051C33.0442 23.051 32.7041 23.2041 32.5 23.5102C32.2959 23.7823 32.1088 24.1225 31.9388 24.5306C31.7687 24.9388 31.5646 25.3639 31.3265 25.8061C31.0884 26.2143 30.6973 26.5374 30.1531 26.7755C29.7789 26.9456 29.4048 27.1156 29.0306 27.2857C28.6565 27.4558 28.4694 27.8129 28.4694 28.3571C28.4694 28.7313 28.5714 29.0204 28.7755 29.2245C29.0136 29.4286 29.2687 29.5816 29.5408 29.6837C29.8129 29.7857 30.068 29.8537 30.3061 29.8878C30.5442 29.8878 30.6633 29.8878 30.6633 29.8878C31.0374 29.8878 31.3775 29.8537 31.6837 29.7857C31.9898 29.6837 32.2959 29.5476 32.602 29.3776C32.9082 29.6497 33.3163 29.8197 33.8265 29.8878C34.3707 29.9218 34.7449 29.9388 34.949 29.9388C35.8333 29.9388 36.4966 29.7857 36.9388 29.4796C37.381 29.1735 37.8061 28.8503 38.2143 28.5102V36.3163C37.1599 36.4524 36.2415 36.7075 35.4592 37.0816C34.7109 37.4558 34.0306 37.8299 33.4184 38.2041C32.8401 38.5442 32.3129 38.8673 31.8367 39.1735C31.3605 39.4456 30.9014 39.5816 30.4592 39.5816C30.119 39.5816 29.7449 39.4966 29.3367 39.3265C28.9626 39.1565 28.5204 38.9184 28.0102 38.6122C28.2143 38 28.3163 37.3707 28.3163 36.7245C28.3163 36.0782 28.2143 35.5 28.0102 34.9898C27.8061 34.4456 27.381 34.1735 26.7347 34.1735C26.3946 34.1735 26.1224 34.2585 25.9184 34.4286C25.7143 34.5646 25.5612 34.7347 25.4592 34.9388C25.3912 35.1429 25.3401 35.3299 25.3061 35.5C25.2721 35.6361 25.2551 35.7041 25.2551 35.7041C25.085 36.4864 24.881 37.0986 24.6429 37.5408C24.4388 37.983 24.1837 38.3231 23.8776 38.5612C23.6054 38.7993 23.3163 38.9524 23.0102 39.0204C22.7041 39.0884 22.381 39.1395 22.0408 39.1735C21.6667 39.2075 21.3605 39.3605 21.1224 39.6327C20.9184 39.8707 20.8163 40.1599 20.8163 40.5C20.8163 40.8061 20.9014 41.0612 21.0714 41.2653C21.2755 41.4694 21.4966 41.6395 21.7347 41.7755C22.0068 41.8776 22.2959 41.9626 22.602 42.0306C22.9082 42.0646 23.1803 42.0816 23.4184 42.0816C24.2007 42.0816 24.983 41.8605 25.7653 41.4184C27.466 42.5748 29.0306 43.1531 30.4592 43.1531C31.3095 43.1531 32.0408 43.034 32.6531 42.7959C33.2993 42.5238 33.8946 42.2177 34.4388 41.8776C35.017 41.5374 35.5952 41.1973 36.1735 40.8571C36.7857 40.483 37.466 40.2109 38.2143 40.0408V48.2551C36.5816 48.4252 35.2381 49.1054 34.1837 50.2959C33.6735 50.1259 33.2143 50.0408 32.8061 50.0408C32.2619 50.0408 31.6837 50.1769 31.0714 50.449C30.4932 50.6871 30.2041 51.0952 30.2041 51.6735C30.2041 51.9456 30.2721 52.2007 30.4082 52.4388C30.5782 52.6429 30.7993 52.7789 31.0714 52.8469C32.0918 53.1531 32.8401 53.4932 33.3163 53.8673C33.7925 54.2075 34.1497 54.5306 34.3878 54.8367C34.6599 55.1429 34.881 55.398 35.051 55.602C35.2551 55.8061 35.5442 55.9082 35.9184 55.9082C36.4286 55.9082 36.7687 55.7211 36.9388 55.3469C37.1429 54.9388 37.2449 54.5306 37.2449 54.1224C37.2449 53.7483 37.1939 53.4252 37.0918 53.1531C37.0238 52.881 36.9388 52.6429 36.8367 52.4388C37.2449 52.2687 37.7041 52.1497 38.2143 52.0816V63.8163C36.8878 63.7823 35.5102 63.6463 34.0816 63.4082C32.6531 63.2041 31.3435 62.898 30.1531 62.4898C28.9966 62.0816 28.0272 61.5374 27.2449 60.8571C26.4966 60.2109 26.1224 59.3946 26.1224 58.4082C26.1224 57.898 26.1735 57.4728 26.2755 57.1327C26.4116 56.7925 26.5476 56.4864 26.6837 56.2143C26.8537 55.9422 26.9898 55.7041 27.0918 55.5C27.2279 55.2959 27.2959 55.0748 27.2959 54.8367C27.2959 54.3946 27.1429 54.0374 26.8367 53.7653C26.5306 53.4932 26.1905 53.3571 25.8163 53.3571C25.2721 53.3571 24.7449 53.6463 24.2347 54.2245C23.7585 54.8027 23.3844 55.381 23.1122 55.9592C21.8197 55.483 20.7993 54.7347 20.051 53.7143C19.3367 52.6939 18.9796 51.5884 18.9796 50.398C18.9796 49.7177 19.0646 49.1905 19.2347 48.8163C19.4048 48.4082 19.5918 48.068 19.7959 47.7959C20.034 47.5238 20.2381 47.2857 20.4082 47.0816C20.5782 46.8435 20.6633 46.5714 20.6633 46.2653C20.6633 45.7891 20.5102 45.432 20.2041 45.1939C19.898 44.9218 19.5578 44.7857 19.1837 44.7857C18.9456 44.7857 18.6054 44.9218 18.1633 45.1939C17.7211 45.432 17.2789 45.8231 16.8367 46.3673C16.3605 45.9252 15.9354 45.2449 15.5612 44.3265C15.1871 43.3741 15 41.9796 15 40.1429C15 38.7483 15.102 37.6259 15.3061 36.7755C15.5442 35.9252 15.8163 35.2449 16.1224 34.7347C16.4626 34.2245 16.8197 33.8673 17.1939 33.6633C17.568 33.4252 17.9082 33.2381 18.2143 33.102C18.5544 32.966 18.8265 32.8469 19.0306 32.7449C19.2687 32.6088 19.3878 32.4048 19.3878 32.1327C19.3878 31.9626 19.3197 31.7245 19.1837 31.4184C19.0476 31.0782 18.9796 30.568 18.9796 29.8878C18.9796 29.1054 19.1327 28.3571 19.4388 27.6429C19.7789 26.8946 20.2381 26.2483 20.8163 25.7041C21.4286 25.1259 22.1429 24.6667 22.9592 24.3265C23.7755 23.9864 24.6939 23.8163 25.7143 23.8163C25.8844 23.8163 26.0034 23.7483 26.0714 23.6122C26.1735 23.4762 26.2245 23.3231 26.2245 23.1531C26.2245 22.983 26.1735 22.7959 26.0714 22.5918C25.9694 22.3878 25.9184 22.0476 25.9184 21.5714C25.9184 20.8231 26.2415 20.1599 26.8878 19.5816C27.568 18.9694 28.4694 18.4422 29.5918 18C30.7483 17.5578 32.0578 17.2177 33.5204 16.9796C35.017 16.7075 36.5816 16.5374 38.2143 16.4694V24.3776C37.7041 24.5476 37.2789 24.7517 36.9388 24.9898C36.5986 25.1939 36.2925 25.398 36.0204 25.602C35.7823 25.8061 35.5782 25.9932 35.4082 26.1633C35.2381 26.2993 35.068 26.3673 34.898 26.3673ZM65 31.9796C65 33.2721 64.5578 34.3605 63.6735 35.2449C62.7891 36.1293 61.7007 36.5714 60.4082 36.5714C59.4558 36.5714 58.6054 36.3163 57.8571 35.8061C57.1088 35.2619 56.5476 34.5816 56.1735 33.7653H53.1633L49.3367 37.5918C48.9966 37.932 48.5714 38.102 48.0612 38.102H41.7857V34.5306H47.3469L51.1224 30.7041C51.4626 30.3639 51.8878 30.1939 52.398 30.1939H56.1735C56.5476 29.3776 57.1088 28.7143 57.8571 28.2041C58.6054 27.6599 59.4558 27.3878 60.4082 27.3878C61.7007 27.3878 62.7891 27.8299 63.6735 28.7143C64.5578 29.5986 65 30.6871 65 31.9796ZM65 48.3061C65 49.5986 64.5578 50.6871 63.6735 51.5714C62.7891 52.4558 61.7007 52.898 60.4082 52.898C59.4558 52.898 58.6054 52.6429 57.8571 52.1327C57.1088 51.5884 56.5476 50.9082 56.1735 50.0918H52.398C51.8878 50.0918 51.4626 49.9218 51.1224 49.5816L47.3469 45.7551H41.7857V42.1837H48.0612C48.5714 42.1837 48.9966 42.3537 49.3367 42.6939L53.1633 46.5204H56.1735C56.5476 45.7041 57.1088 45.0408 57.8571 44.5306C58.6054 43.9864 59.4558 43.7143 60.4082 43.7143C61.7007 43.7143 62.7891 44.1565 63.6735 45.0408C64.5578 45.9252 65 47.0136 65 48.3061ZM57.0918 59.2755C57.0918 60.568 56.6497 61.6565 55.7653 62.5408C54.881 63.4252 53.7925 63.8673 52.5 63.8673C51.2075 63.8673 50.119 63.4252 49.2347 62.5408C48.3503 61.6565 47.9082 60.568 47.9082 59.2755C47.9082 58.9694 47.9422 58.6633 48.0102 58.3571C48.0782 58.085 48.1633 57.8129 48.2653 57.5408L45.9184 55.1939H41.7857V51.6224H46.6327C47.1429 51.6224 47.568 51.7925 47.9082 52.1327L50.7653 55.0408C51.0374 54.9388 51.3095 54.8537 51.5816 54.7857C51.8878 54.7177 52.1939 54.6837 52.5 54.6837C53.7925 54.6837 54.881 55.1259 55.7653 56.0102C56.6497 56.8946 57.0918 57.983 57.0918 59.2755Z" fill="white"/>
</svg>
