<!-- Generated by IcoMoon.io -->
<svg version="1.1" xmlns="http://www.w3.org/2000/svg" width="24" height="24" viewBox="0 0 1024 1024"  style="fill: white; stroke: black; stroke-width: 30px;">
<g id="icomoon-ignore">
</g>
<path d="M59.559 853.682l8.359-85.682q2.090-27.167 14.106-49.11t30.302-38.661 41.273-25.6 48.065-8.882q10.449 0 20.898 2.090t20.898 5.224l85.682 85.682q6.269 19.853 6.269 41.796 0 24.033-7.837 46.498t-24.555 41.273q-28.212 34.482-60.082 56.424t-68.441 34.482-79.935 17.763-94.563 5.224q14.629-12.539 27.167-31.347 10.449-15.673 19.853-39.706t12.539-57.469zM593.502 247.641l281.078-198.531q10.449-7.314 24.033-7.314 16.718 0 29.257 12.016t12.539 29.78q0 13.584-7.314 24.033l-190.171 268.539q-22.988 32.392-40.751 55.38t-38.139 44.931-45.976 48.065-64.261 64.784l-22.988 21.943-159.869-159.869q37.616-37.616 65.829-66.351t53.29-52.245 49.633-43.886 53.812-41.273zM971.755 585.143q-20.898 0-36.571 15.673l-276.898 276.898-130.612-130.612q-15.673-15.673-36.571-15.673-21.943 0-37.094 15.151t-15.151 37.094q0 20.898 15.673 36.571l203.755 203.755 350.041-350.041q15.673-15.673 15.673-36.571 0-21.943-15.151-37.094t-37.094-15.151zM475.429 659.331l-156.735-156.735-47.020 75.233 124.343 124.343q31.347-36.571 79.412-42.841z"></path>
</svg>
