<!-- Generated by IcoMoon.io -->
<svg version="1.1" xmlns="http://www.w3.org/2000/svg" width="24" height="24" viewBox="0 0 1024 1024"  style="fill: white; stroke: black; stroke-width: 30px;">
<g id="icomoon-ignore">
</g>
<path d="M59.559 853.682q-3.135 33.437-12.539 57.469t-19.853 39.706q-12.539 18.808-27.167 31.347 51.2 0 94.563-5.224t79.935-17.763 68.441-34.482 60.082-56.424q16.718-18.808 24.555-41.273t7.837-46.498q0-21.943-6.269-41.796l-85.682-85.682q-10.449-3.135-20.898-5.224t-20.898-2.090q-25.078 0-48.065 8.882t-41.273 25.6-30.302 38.661-14.106 49.11zM768 512q53.29 0 99.788 20.376t80.98 54.857 54.857 80.98 20.376 99.788-20.376 99.788-54.857 80.98-80.98 54.857-99.788 20.376-99.788-20.376-80.98-54.857-54.857-80.98-20.376-99.788 20.376-99.788 54.857-80.98 80.98-54.857 99.788-20.376zM585.143 768q0 28.212 7.837 53.812t22.465 47.543l253.91-253.91q-21.943-14.629-47.543-22.465t-53.812-7.837q-37.616 0-71.053 14.106t-58.514 39.184-39.184 58.514-14.106 71.053zM768 950.857q37.616 0 71.053-14.106t58.514-39.184 39.184-58.514 14.106-71.053q0-28.212-7.837-53.812t-22.465-47.543l-253.91 253.91q21.943 14.629 47.543 22.465t53.812 7.837zM461.845 645.747q-3.135 8.359-6.269 17.763t-5.224 18.808l-45.976 28.212-132.702-132.702 47.020-75.233zM688.588 448.261q-59.559 14.629-108.147 48.588t-82.024 82.024l-127.478-127.478q37.616-37.616 65.829-66.351t53.29-52.245 49.633-43.886 53.812-41.273l281.078-198.531q10.449-7.314 24.033-7.314 16.718 0 29.257 12.016t12.539 29.78q0 13.584-7.314 24.033l-190.171 268.539q-15.673 21.943-28.735 39.184t-25.6 32.914z"></path>
</svg>
