<svg width="299" height="252" xmlns="http://www.w3.org/2000/svg" xmlns:xlink="http://www.w3.org/1999/xlink" overflow="hidden"><defs><clipPath id="clip0"><rect x="2111" y="1208" width="299" height="252"/></clipPath></defs><g clip-path="url(#clip0)" transform="translate(-2111 -1208)"><path d="M0-10.3125 101.75-10.3125C107.445-10.3125 112.062-5.69544 112.062 0L112.062 156.75 101.75 146.438 151.938 146.438C157.633 146.438 162.25 151.055 162.25 156.75 162.25 162.445 157.633 167.062 151.938 167.062L101.75 167.062C96.0546 167.062 91.4375 162.445 91.4375 156.75L91.4375 0 101.75 10.3125 0 10.3125C-5.69544 10.3125-10.3125 5.69544-10.3125 0-10.3125-5.69544-5.69544-10.3125 0-10.3125ZM0 30.9375C-17.0863 30.9375-30.9375 17.0863-30.9375 0-30.9375-17.0863-17.0863-30.9375 0-30.9375 17.0863-30.9375 30.9375-17.0863 30.9375 0 30.9375 17.0863 17.0863 30.9375 0 30.9375ZM141.625 125.812 203.5 156.75 141.625 187.688Z" fill="#3D3D3D" transform="matrix(1 0 0 -1 2142.5 1428.25)"/></g></svg>