<svg width="154" height="129" xmlns="http://www.w3.org/2000/svg" xmlns:xlink="http://www.w3.org/1999/xlink" overflow="hidden"><defs><clipPath id="clip0"><rect x="1914" y="327" width="154" height="129"/></clipPath></defs><g clip-path="url(#clip0)" transform="translate(-1914 -327)"><path d="M1916.77 439.086C1913.76 435.666 1914.09 430.453 1917.51 427.443L2028.99 329.345C2032.42 326.335 2037.63 326.668 2040.64 330.088L2040.64 330.088C2043.65 333.509 2043.31 338.722 2039.89 341.732L1928.41 439.83C1924.99 442.84 1919.77 442.507 1916.77 439.086Z" fill="#767171" fill-rule="evenodd"/><path d="M1984.15 452.659C1981.14 449.238 1981.47 444.025 1984.9 441.015L2054.26 379.976C2057.69 376.967 2062.9 377.3 2065.91 380.72L2065.91 380.72C2068.92 384.141 2068.58 389.354 2065.16 392.363L1995.79 453.402C1992.37 456.412 1987.16 456.079 1984.15 452.659Z" fill="#767171" fill-rule="evenodd"/></g></svg>