<svg width="272" height="141" xmlns="http://www.w3.org/2000/svg" xmlns:xlink="http://www.w3.org/1999/xlink" overflow="hidden"><defs><clipPath id="clip0"><rect x="1211" y="446" width="272" height="141"/></clipPath></defs><g clip-path="url(#clip0)" transform="translate(-1211 -446)"><path d="M1213.5 473C1213.5 460.021 1224.02 449.5 1237 449.5 1249.98 449.5 1260.5 460.021 1260.5 473 1260.5 485.979 1249.98 496.5 1237 496.5 1224.02 496.5 1213.5 485.979 1213.5 473Z" stroke="#77797C" stroke-width="4.58333" stroke-miterlimit="8" fill="#77797C" fill-rule="evenodd"/><path d="M1323.5 472C1323.5 459.021 1334.02 448.5 1347 448.5 1359.98 448.5 1370.5 459.021 1370.5 472 1370.5 484.979 1359.98 495.5 1347 495.5 1334.02 495.5 1323.5 484.979 1323.5 472Z" stroke="#77797C" stroke-width="4.58333" stroke-miterlimit="8" fill="#77797C" fill-rule="evenodd"/><path d="M1434.5 472C1434.5 459.021 1444.8 448.5 1457.5 448.5 1470.2 448.5 1480.5 459.021 1480.5 472 1480.5 484.979 1470.2 495.5 1457.5 495.5 1444.8 495.5 1434.5 484.979 1434.5 472Z" stroke="#77797C" stroke-width="4.58333" stroke-miterlimit="8" fill="#77797C" fill-rule="evenodd"/><path d="M1213.5 561C1213.5 548.021 1224.02 537.5 1237 537.5 1249.98 537.5 1260.5 548.021 1260.5 561 1260.5 573.979 1249.98 584.5 1237 584.5 1224.02 584.5 1213.5 573.979 1213.5 561Z" stroke="#77797C" stroke-width="4.58333" stroke-miterlimit="8" fill="#77797C" fill-rule="evenodd"/><path d="M1323.5 560C1323.5 547.021 1334.02 536.5 1347 536.5 1359.98 536.5 1370.5 547.021 1370.5 560 1370.5 572.979 1359.98 583.5 1347 583.5 1334.02 583.5 1323.5 572.979 1323.5 560Z" stroke="#77797C" stroke-width="4.58333" stroke-miterlimit="8" fill="#77797C" fill-rule="evenodd"/><path d="M1434.5 560C1434.5 547.021 1444.8 536.5 1457.5 536.5 1470.2 536.5 1480.5 547.021 1480.5 560 1480.5 572.979 1470.2 583.5 1457.5 583.5 1444.8 583.5 1434.5 572.979 1434.5 560Z" stroke="#77797C" stroke-width="4.58333" stroke-miterlimit="8" fill="#77797C" fill-rule="evenodd"/></g></svg>