<?xml version="1.0" encoding="UTF-8"?>
<svg id="k" data-name="FormulationIntelligenceAppIcon" xmlns="http://www.w3.org/2000/svg" xmlns:xlink="http://www.w3.org/1999/xlink" viewBox="0 0 64 64">
  <defs>
    <linearGradient id="a" x1="30" y1="45.5" x2="33" y2="45.5" gradientUnits="userSpaceOnUse">
      <stop offset="0" stop-color="#464646"/>
      <stop offset="1" stop-color="#141414"/>
    </linearGradient>
    <linearGradient id="d" x1="19.99" y1="11.57" x2="35.77" y2="38.91" gradientUnits="userSpaceOnUse">
      <stop offset="0" stop-color="#d7d7d7"/>
      <stop offset="1" stop-color="#969696"/>
    </linearGradient>
    <linearGradient id="i" x1="21.6" y1="13.31" x2="36.97" y2="39.92" gradientUnits="userSpaceOnUse">
      <stop offset="0" stop-color="#fff"/>
      <stop offset="1" stop-color="#d2d2d2"/>
    </linearGradient>
    <linearGradient id="l" x1="20.63" y1="12.31" x2="43.37" y2="51.69" gradientUnits="userSpaceOnUse">
      <stop offset="0" stop-color="#3287af"/>
      <stop offset="1" stop-color="#285a78"/>
    </linearGradient>
    <linearGradient id="m" x1="21.42" y1="18.9" x2="25.82" y2="26.52" xlink:href="#l"/>
    <linearGradient id="n" x1="34.68" y1="15.04" x2="39.63" y2="23.61" xlink:href="#l"/>
    <linearGradient id="o" x1="16.88" y1="35.86" x2="19.91" y2="41.09" xlink:href="#l"/>
    <linearGradient id="p" x1="18.38" y1="33.15" x2="22.41" y2="40.13" xlink:href="#l"/>
    <linearGradient id="q" x1="20.09" y1="31.31" x2="24.7" y2="39.3" xlink:href="#l"/>
    <linearGradient id="r" x1="21.8" y1="29.48" x2="26.99" y2="38.47" xlink:href="#l"/>
    <linearGradient id="s" x1="25.03" y1="33.77" x2="27.76" y2="38.52" xlink:href="#l"/>
    <linearGradient id="t" x1="27.38" y1="34.57" x2="29.4" y2="38.06" xlink:href="#l"/>
    <linearGradient id="u" data-name="Dégradé sans nom 12" x1="32.34" y1="11.62" x2="13.44" y2="40.28" gradientUnits="userSpaceOnUse">
      <stop offset="0" stop-color="#fff" stop-opacity="0"/>
      <stop offset=".01" stop-color="#fff" stop-opacity=".05"/>
      <stop offset=".07" stop-color="#fff" stop-opacity=".27"/>
      <stop offset=".13" stop-color="#fff" stop-opacity=".47"/>
      <stop offset=".18" stop-color="#fff" stop-opacity=".63"/>
      <stop offset=".24" stop-color="#fff" stop-opacity=".76"/>
      <stop offset=".3" stop-color="#fff" stop-opacity=".87"/>
      <stop offset=".36" stop-color="#fff" stop-opacity=".94"/>
      <stop offset=".42" stop-color="#fff" stop-opacity=".99"/>
      <stop offset=".49" stop-color="#fff"/>
      <stop offset=".54" stop-color="#fff" stop-opacity=".98"/>
      <stop offset=".61" stop-color="#fff" stop-opacity=".93"/>
      <stop offset=".68" stop-color="#fff" stop-opacity=".83"/>
      <stop offset=".75" stop-color="#fff" stop-opacity=".7"/>
      <stop offset=".82" stop-color="#fff" stop-opacity=".54"/>
      <stop offset=".89" stop-color="#fff" stop-opacity=".33"/>
      <stop offset=".97" stop-color="#fff" stop-opacity=".1"/>
      <stop offset="1" stop-color="#fff" stop-opacity="0"/>
    </linearGradient>
    <radialGradient id="v" cx="47" cy="35.05" fx="47" fy="35.05" r="5.02" gradientUnits="userSpaceOnUse">
      <stop offset="0" stop-color="#d7d7d7"/>
      <stop offset="1" stop-color="#969696"/>
    </radialGradient>
    <radialGradient id="w" cx="49.62" cy="32.51" fx="49.62" fy="32.51" r="3.48" gradientTransform="translate(0 19.51) scale(1 .4)" gradientUnits="userSpaceOnUse">
      <stop offset=".35" stop-color="#141414"/>
      <stop offset="1" stop-color="#464646" stop-opacity="0"/>
    </radialGradient>
    <radialGradient id="x" cx="48.55" cy="28.48" fx="48.55" fy="28.48" r="3.5" xlink:href="#v"/>
    <radialGradient id="y" cx="41" cy="39.05" fx="41" fy="39.05" r="5.02" gradientUnits="userSpaceOnUse">
      <stop offset="0" stop-color="#fff"/>
      <stop offset="1" stop-color="#d2d2d2"/>
    </radialGradient>
    <radialGradient id="z" cx="43.62" cy="36.51" fx="43.62" fy="36.51" gradientTransform="translate(0 21.91) scale(1 .4)" xlink:href="#w"/>
    <radialGradient id="aa" cx="42.52" cy="32.54" fx="42.52" fy="32.54" r="3.5" xlink:href="#y"/>
    <linearGradient id="ab" x1="21.85" y1="33.72" x2="32.55" y2="52.25" xlink:href="#i"/>
    <linearGradient id="ac" x1="24.33" y1="42.08" x2="30.79" y2="53.27" xlink:href="#l"/>
    <linearGradient id="ad" x1="25.66" y1="40.81" x2="29.34" y2="47.19" xlink:href="#l"/>
    <linearGradient id="ae" x1="21.81" y1="34.48" x2="32.19" y2="52.46" xlink:href="#i"/>
  </defs>
  <g>
    <path d="M50.9,46.19l-15.95,9.01c-1.83,1.04-4.07,1.04-5.91,0l-15.95-9.01c-1.92-1.08-3.1-3.1-3.1-5.29v-17.79c0-2.19,1.18-4.21,3.1-5.29l15.95-9.01c1.83-1.04,4.07-1.04,5.91,0l15.95,9.01c1.92,1.08,3.1,3.1,3.1,5.29v17.79c0,2.19-1.18,4.21-3.1,5.29Z" fill="none" stroke="url(#l)" stroke-miterlimit="10" stroke-width="2"/>
    <path d="M32,10.02c-.68,0-1.36.17-1.97.51l-15.95,9.01c-1.29.73-2.08,2.09-2.08,3.55v17.79c0,1.46.8,2.82,2.08,3.55l15.95,9.01c1.21.69,2.72.69,3.94,0l15.95-9.01c1.29-.73,2.08-2.09,2.08-3.55v-17.79c0-1.46-.8-2.82-2.08-3.55l-15.95-9.01c-.61-.34-1.29-.51-1.97-.51Z" fill="#fff" opacity=".3"/>
  </g>
  <path d="M51.08,31.8c.86-.64,1.42-1.65,1.42-2.8,0-1.93-1.57-3.5-3.5-3.5s-3.5,1.57-3.5,3.5c0,1.15.56,2.16,1.42,2.8-.2.06-.39.13-.58.2-.16-.55-.45-1.03-.84-1.43V13.33c0-1.18-.55-2.1-1.38-2.6v-.02s-2.5-1.49-2.5-1.49h-.01c-.63-.36-1.42-.5-2.29-.3l-23.71,5.37c-1.71.39-3.1,2.15-3.1,3.9v22.1c0,.97.33,1.75.86,2.28v.02s1.99,2.02,1.99,2.02h.02c.73.72,1.85.98,3.11.55l2.02-.72v6.58c0,1.38,3.13,2.5,7,2.5s7-1.12,7-2.5v-11.56l3.26-1.16c-.17.39-.26.8-.26,1.22v3.5c0,.83,2.46,1.5,5.5,1.5s5.5-.67,5.5-1.5v-2.51c.16,0,.33,0,.5,0,3.04,0,5.5-.67,5.5-1.5v-3.5c0-1.67-1.41-3.1-3.42-3.7Z" fill="#fff" opacity=".75" stroke="#fff" stroke-linejoin="round" stroke-width="3"/>
  <g>
    <path d="M44.12,10.71l-2.5-1.49h-.01c-.63-.36-1.42-.5-2.29-.3l-23.71,5.37c-1.71.39-3.1,2.15-3.1,3.9v22.1c0,.97.33,1.75.86,2.28v.02s1.99,2.02,1.99,2.02l25.85-8.93c1.96-.66,3.28-2.5,3.25-4.57l-.33-20.39Z" fill="url(#d)" stroke="#787878" stroke-linejoin="round"/>
    <path d="M45.5,13.33v19.38c0,1.57-1.22,3.27-2.71,3.78l-24.31,8.65c-2.19.75-3.98-.53-3.98-2.84v-22.61c0-1.75,1.4-3.51,3.11-3.9l24.21-5.39c2.02-.46,3.68.85,3.68,2.92Z" fill="url(#i)" stroke="#787878" stroke-linejoin="round"/>
    <g>
      <g>
        <path d="M17.5,27.5c.85-1.7,1.87-7.46,4-8s2.87,6.54,5,6c2.13-.54,3-8,3-8" fill="none" stroke="url(#m)" stroke-linecap="round" stroke-linejoin="round"/>
        <path d="M17.5,24.5c.85-.85,1.87-1.46,4-2s2.87,1.54,5,1c2.13-.54,3-2,3-2" fill="none" opacity=".5" stroke="#646464" stroke-linecap="round" stroke-miterlimit="10"/>
      </g>
      <g>
        <path d="M42.65,18.12h0c0,2.74-2.16,5.58-4.81,6.33l-.21.06s-.08.02-.11.03c-.41.1-.81.16-1.21.16-2.28,0-3.92-1.76-3.92-4.18v-.28c0-2.86,2.26-5.76,4.61-6.31h0v5.66s5.66-1.46,5.66-1.46Z" fill="url(#n)"/>
        <path d="M42.48,16.53l-4.47,1.29v-4.95s.15-.03.52-.03c2.3,0,3.95,2.06,3.95,3.7Z" fill="#646464" opacity=".5"/>
      </g>
      <path d="M18.5,35c.28,0,.5.22.5.5v6.11l-1,.33v-6.44c0-.28.22-.5.5-.5Z" fill="url(#o)"/>
      <path d="M20.5,32c.28,0,.5.22.5.5v8.44l-1,.33v-8.77c0-.28.22-.5.5-.5Z" fill="url(#p)"/>
      <path d="M22.5,30c.28,0,.5.22.5.5v9.78l-1,.33v-10.11c0-.28.22-.5.5-.5Z" fill="url(#q)"/>
      <path d="M24.5,28c.28,0,.5.22.5.5v11.12l-1,.33v-11.45c0-.28.22-.5.5-.5Z" fill="url(#r)"/>
      <path d="M26.5,33c.28,0,.5.22.5.5v5.46l-1,.33v-5.79c0-.28.22-.5.5-.5Z" fill="url(#s)"/>
      <path d="M28.5,34c.28,0,.5.22.5.5v3.79l-1,.34v-4.13c0-.28.22-.5.5-.5Z" fill="url(#t)"/>
    </g>
    <path d="M16.01,43.3v-22.61c0-1.51,1.25-3.08,2.73-3.41l24.21-5.39c.23-.05.46-.08.69-.08.39,0,.75.09,1.08.25-.15-.29-.34-.55-.59-.75-.41-.33-.93-.5-1.49-.5-.22,0-.45.03-.69.08l-24.21,5.39c-1.48.34-2.73,1.9-2.73,3.41v22.61c0,.95.34,1.72.96,2.16.1.07.21.12.32.17-.18-.38-.28-.83-.28-1.33Z" fill="url(#u)"/>
    <path d="M44.12,10.73v-.02s-2.5-1.49-2.5-1.49h-.01c-.63-.36-1.42-.5-2.29-.3l-23.71,5.37c-1.71.39-3.1,2.15-3.1,3.9v22.1c0,.97.33,1.75.86,2.28v.02s1.99,2.02,1.99,2.02h.02c.73.72,1.85.98,3.11.55l24.31-8.65c1.49-.51,2.71-2.21,2.71-3.78V13.33c0-1.18-.55-2.1-1.38-2.6Z" fill="none" stroke="#323232" stroke-linejoin="round"/>
    <path d="M43,31l-.02-6.94-5.98,3.94,2.35,1.17-.9,1.8-3.06-1.7c-.2-.11-.44-.14-.67-.07-.22.07-.41.22-.51.43l-2.21,4.42v3.23s.35-.11.35-.11l2.99-5.98,3.06,1.7c.2.11.44.14.67.07.22-.07.41-.22.51-.43l1.3-2.6,2.13,1.06Z" fill="#646464" opacity=".5"/>
  </g>
  <g>
    <g>
      <path d="M49,31.5c-3.04,0-5.5,1.79-5.5,4v3.5c0,.83,2.46,1.5,5.5,1.5s5.5-.67,5.5-1.5v-3.5c0-2.21-2.46-4-5.5-4Z" fill="url(#v)" stroke="#787878" stroke-linejoin="round"/>
      <path d="M49,34c1.22,0,2.32-.45,3.18-1.18-.87-.51-1.97-.82-3.18-.82s-2.32.32-3.18.82c.87.72,1.97,1.18,3.18,1.18Z" fill="url(#w)" opacity=".3"/>
      <circle cx="49" cy="29" r="3.5" fill="url(#x)" stroke="#787878" stroke-linejoin="round"/>
    </g>
    <g>
      <path d="M43,35.5c-3.04,0-5.5,1.79-5.5,4v3.5c0,.83,2.46,1.5,5.5,1.5s5.5-.67,5.5-1.5v-3.5c0-2.21-2.46-4-5.5-4Z" fill="url(#y)" stroke="#787878" stroke-linejoin="round"/>
      <path d="M43,38c1.22,0,2.32-.45,3.18-1.18-.87-.51-1.97-.82-3.18-.82s-2.32.32-3.18.82c.87.72,1.97,1.18,3.18,1.18Z" fill="url(#z)" opacity=".3"/>
      <circle cx="43" cy="33" r="3.5" fill="url(#aa)" stroke="#787878" stroke-linejoin="round"/>
    </g>
    <path d="M51.08,31.8c.86-.64,1.42-1.65,1.42-2.8,0-1.93-1.57-3.5-3.5-3.5s-3.5,1.57-3.5,3.5c0,1.15.56,2.16,1.42,2.8-.2.06-.39.13-.58.2-.43-1.44-1.75-2.5-3.34-2.5-1.93,0-3.5,1.57-3.5,3.5,0,1.15.56,2.16,1.42,2.8-2,.6-3.42,2.03-3.42,3.7v3.5c0,.83,2.46,1.5,5.5,1.5s5.5-.67,5.5-1.5v-2.51c.16,0,.33,0,.5,0,3.04,0,5.5-.67,5.5-1.5v-3.5c0-1.67-1.41-3.1-3.42-3.7Z" fill="none" stroke="#323232" stroke-linejoin="round"/>
  </g>
  <g>
    <path d="M27.5,33.5c-1.49,0-2.87.17-4,.45l-6,1.55,3,8v7.5c0,1.38,3.13,2.5,7,2.5s7-1.12,7-2.5v-15c0-1.38-3.13-2.5-7-2.5Z" fill="#fff" opacity=".5"/>
    <path d="M27.5,34c-1.4,0-2.74.15-3.88.44l-5.45,1.41,2.8,7.48c.02.06.03.12.03.18v7.5c0,.82,2.53,2,6.5,2s6.5-1.18,6.5-2v-15c0-.82-2.53-2-6.5-2Z" fill="url(#ab)" opacity=".5"/>
    <path d="M27.5,33.5c-1.49,0-2.87.17-4,.45l-6,1.55,4.5,2.04c1.28.58,3.27.96,5.5.96,3.87,0,7-1.12,7-2.5s-3.13-2.5-7-2.5Z" fill="none" stroke="#787878" stroke-linejoin="round"/>
    <g opacity=".85">
      <path d="M27.5,46c-3.59,0-6.5-.9-6.5-2v7c0,.82,2.53,2,6.5,2s6.5-1.18,6.5-2v-7c0,1.1-2.91,2-6.5,2Z" fill="url(#ac)"/>
    </g>
    <ellipse cx="27.5" cy="44" rx="6.5" ry="2" fill="url(#ad)"/>
    <path d="M21.8,38l-3.4-1.54,2.58,6.87c.02.06.03.12.03.18v7.5c0,.82,2.53,2,6.5,2s6.5-1.18,6.5-2v-13.45c-1.38.95-4,1.45-6.5,1.45-2.22,0-4.3-.36-5.7-1Z" fill="url(#ae)" opacity=".25"/>
    <path d="M21.8,38c.17.08.36.15.55.22l-1.35,5.34v-.06c0-.06-.01-.12-.03-.18l-2.58-6.87,3.4,1.54Z" fill="#646464" opacity=".25"/>
    <path d="M27.5,33.5c-1.49,0-2.87.17-4,.45l-6,1.55,3,8v7.5c0,1.38,3.13,2.5,7,2.5s7-1.12,7-2.5v-15c0-1.38-3.13-2.5-7-2.5Z" fill="none" stroke="#323232" stroke-linejoin="round"/>
    <path d="M20,38l2,5v8s1,1,5,1c0,0,0-3-1-4s-1,2-2,2-1-6.08-1.5-7.04-2.5-4.96-2.5-4.96Z" fill="#fff" opacity=".25"/>
    <path d="M33,39v12s-1,1-3,1c0,0,1-4,2-3s1-10,1-10Z" fill="#fff" opacity=".25"/>
    <path d="M33,41.2v-1c-.95.33-1.98.54-3,.66v9.94c1.04-.17,2.1-.46,3-.93v-1c-.57.3-1.24.54-2,.73v-2.01c.7-.17,1.39-.4,2-.72v-1c-.57.3-1.24.54-2,.73v-1.95c.76-.16,1.43-.36,2-.62v-1c-.57.26-1.24.46-2,.62v-1.94c.93-.17,1.44-.32,2-.51Z" fill="url(#a)"/>
  </g>
</svg>