<?xml version="1.0" encoding="UTF-8"?>
<svg id="IT_1" data-name="IT 1" xmlns="http://www.w3.org/2000/svg" xmlns:xlink="http://www.w3.org/1999/xlink" viewBox="0 0 64 64">
  <defs>
    <linearGradient id="linear-gradient" x1="32.88" y1="43.52" x2="36.12" y2="49.14" gradientUnits="userSpaceOnUse">
      <stop offset="0" stop-color="#82bedc"/>
      <stop offset="1" stop-color="#285a78"/>
    </linearGradient>
    <linearGradient id="linear-gradient-2" x1="26.12" y1="31.57" x2="28.99" y2="36.54" gradientUnits="userSpaceOnUse">
      <stop offset="0" stop-color="#8cd7f5"/>
      <stop offset="1" stop-color="#376e8c"/>
    </linearGradient>
    <linearGradient id="linear-gradient-3" x1="26.63" y1="31" x2="28.37" y2="34" gradientUnits="userSpaceOnUse">
      <stop offset="0" stop-color="#a0e1fa"/>
      <stop offset="1" stop-color="#73c3e1"/>
    </linearGradient>
    <linearGradient id="linear-gradient-4" x1="19.99" y1="11.57" x2="35.77" y2="38.91" gradientUnits="userSpaceOnUse">
      <stop offset="0" stop-color="#d7d7d7"/>
      <stop offset="1" stop-color="#969696"/>
    </linearGradient>
    <linearGradient id="linear-gradient-5" x1="21.6" y1="13.31" x2="36.97" y2="39.92" gradientUnits="userSpaceOnUse">
      <stop offset="0" stop-color="#fff"/>
      <stop offset="1" stop-color="#d2d2d2"/>
    </linearGradient>
    <linearGradient id="linear-gradient-6" x1="20.63" y1="12.31" x2="43.37" y2="51.69" gradientUnits="userSpaceOnUse">
      <stop offset="0" stop-color="#3287af"/>
      <stop offset="1" stop-color="#285a78"/>
    </linearGradient>
    <linearGradient id="linear-gradient-7" x1="21.42" y1="18.9" x2="25.82" y2="26.52" xlink:href="#linear-gradient-6"/>
    <linearGradient id="linear-gradient-8" x1="34.68" y1="15.04" x2="39.63" y2="23.61" xlink:href="#linear-gradient-6"/>
    <linearGradient id="linear-gradient-9" x1="16.88" y1="35.86" x2="19.91" y2="41.09" xlink:href="#linear-gradient-6"/>
    <linearGradient id="linear-gradient-10" x1="18.38" y1="33.15" x2="22.41" y2="40.13" xlink:href="#linear-gradient-6"/>
    <linearGradient id="linear-gradient-11" x1="20.09" y1="31.31" x2="24.7" y2="39.3" xlink:href="#linear-gradient-6"/>
    <linearGradient id="linear-gradient-12" x1="21.8" y1="29.48" x2="26.99" y2="38.47" xlink:href="#linear-gradient-6"/>
    <linearGradient id="linear-gradient-13" x1="25.03" y1="33.77" x2="27.76" y2="38.52" xlink:href="#linear-gradient-6"/>
    <linearGradient id="linear-gradient-14" x1="27.38" y1="34.57" x2="29.4" y2="38.06" xlink:href="#linear-gradient-6"/>
    <linearGradient id="Dégradé_sans_nom_12" data-name="Dégradé sans nom 12" x1="32.34" y1="11.62" x2="13.44" y2="40.28" gradientUnits="userSpaceOnUse">
      <stop offset="0" stop-color="#fff" stop-opacity="0"/>
      <stop offset=".01" stop-color="#fff" stop-opacity=".05"/>
      <stop offset=".07" stop-color="#fff" stop-opacity=".27"/>
      <stop offset=".13" stop-color="#fff" stop-opacity=".47"/>
      <stop offset=".18" stop-color="#fff" stop-opacity=".63"/>
      <stop offset=".24" stop-color="#fff" stop-opacity=".76"/>
      <stop offset=".3" stop-color="#fff" stop-opacity=".87"/>
      <stop offset=".36" stop-color="#fff" stop-opacity=".94"/>
      <stop offset=".42" stop-color="#fff" stop-opacity=".99"/>
      <stop offset=".49" stop-color="#fff"/>
      <stop offset=".54" stop-color="#fff" stop-opacity=".98"/>
      <stop offset=".61" stop-color="#fff" stop-opacity=".93"/>
      <stop offset=".68" stop-color="#fff" stop-opacity=".83"/>
      <stop offset=".75" stop-color="#fff" stop-opacity=".7"/>
      <stop offset=".82" stop-color="#fff" stop-opacity=".54"/>
      <stop offset=".89" stop-color="#fff" stop-opacity=".33"/>
      <stop offset=".97" stop-color="#fff" stop-opacity=".1"/>
      <stop offset="1" stop-color="#fff" stop-opacity="0"/>
    </linearGradient>
    <radialGradient id="radial-gradient" cx="47" cy="35.05" fx="47" fy="35.05" r="5.02" gradientUnits="userSpaceOnUse">
      <stop offset="0" stop-color="#d7d7d7"/>
      <stop offset="1" stop-color="#969696"/>
    </radialGradient>
    <radialGradient id="radial-gradient-2" cx="49.62" cy="32.51" fx="49.62" fy="32.51" r="3.48" gradientTransform="translate(0 19.51) scale(1 .4)" gradientUnits="userSpaceOnUse">
      <stop offset=".35" stop-color="#141414"/>
      <stop offset="1" stop-color="#464646" stop-opacity="0"/>
    </radialGradient>
    <radialGradient id="radial-gradient-3" cx="48.55" cy="28.48" fx="48.55" fy="28.48" r="3.5" xlink:href="#radial-gradient"/>
    <radialGradient id="radial-gradient-4" cx="41" cy="39.05" fx="41" fy="39.05" r="5.02" gradientUnits="userSpaceOnUse">
      <stop offset="0" stop-color="#fff"/>
      <stop offset="1" stop-color="#d2d2d2"/>
    </radialGradient>
    <radialGradient id="radial-gradient-5" cx="43.62" cy="36.51" fx="43.62" fy="36.51" gradientTransform="translate(0 21.91) scale(1 .4)" xlink:href="#radial-gradient-2"/>
    <radialGradient id="radial-gradient-6" cx="42.52" cy="32.54" fx="42.52" fy="32.54" r="3.5" xlink:href="#radial-gradient-4"/>
    <linearGradient id="linear-gradient-15" x1="23.85" y1="35.45" x2="31.42" y2="48.55" xlink:href="#linear-gradient-5"/>
    <linearGradient id="linear-gradient-16" x1="19.85" y1="38.45" x2="27.42" y2="51.55" xlink:href="#linear-gradient-5"/>
    <linearGradient id="linear-gradient-17" x1="22.12" y1="34.57" x2="24.99" y2="39.54" xlink:href="#linear-gradient-2"/>
    <linearGradient id="linear-gradient-18" x1="22.63" y1="34" x2="24.37" y2="37" xlink:href="#linear-gradient-3"/>
    <linearGradient id="linear-gradient-19" x1="34.47" y1="41.7" x2="38.08" y2="47.95" xlink:href="#linear-gradient-2"/>
    <linearGradient id="linear-gradient-20" x1="29.37" y1="49.53" x2="30.5" y2="50.69" gradientUnits="userSpaceOnUse">
      <stop offset="0" stop-color="#fff"/>
      <stop offset="1" stop-color="#d4d5d3"/>
    </linearGradient>
  </defs>
  <g>
    <path d="M50.9,46.19l-15.95,9.01c-1.83,1.04-4.07,1.04-5.91,0l-15.95-9.01c-1.92-1.08-3.1-3.1-3.1-5.29v-17.79c0-2.19,1.18-4.21,3.1-5.29l15.95-9.01c1.83-1.04,4.07-1.04,5.91,0l15.95,9.01c1.92,1.08,3.1,3.1,3.1,5.29v17.79c0,2.19-1.18,4.21-3.1,5.29Z" fill="none" stroke="url(#linear-gradient-6)" stroke-miterlimit="10" stroke-width="2"/>
    <path d="M32,10.02c-.68,0-1.36.17-1.97.51l-15.95,9.01c-1.29.73-2.08,2.09-2.08,3.55v17.79c0,1.46.8,2.82,2.08,3.55l15.95,9.01c1.21.69,2.72.69,3.94,0l15.95-9.01c1.29-.73,2.08-2.09,2.08-3.55v-17.79c0-1.46-.8-2.82-2.08-3.55l-15.95-9.01c-.61-.34-1.29-.51-1.97-.51Z" fill="#fff" opacity=".3"/>
  </g>
  <path d="M51.08,31.8c.86-.64,1.42-1.65,1.42-2.8,0-1.93-1.57-3.5-3.5-3.5s-3.5,1.57-3.5,3.5c0,1.15.56,2.16,1.42,2.8-.2.06-.39.13-.58.2-.16-.55-.45-1.03-.84-1.43V13.33c0-1.18-.55-2.1-1.38-2.6v-.02s-2.5-1.49-2.5-1.49h-.01c-.63-.36-1.42-.5-2.29-.3l-23.71,5.37c-1.71.39-3.1,2.15-3.1,3.9v22.1c0,.97.33,1.75.86,2.28v.02s1.99,2.02,1.99,2.02h.02c.73.72,1.85.98,3.11.55l3.02-1.07v7.44c0,1.1.9,2,2,2,.43,0,.83-.14,1.16-.37-.1.28-.16.58-.16.88.09,1.51,1.07,1.87,1.36,2.13.49.22.72.24,1.05.25h0s0,0,.01,0c.67,0,1.24-.26,1.74-.72l6.31-6.39c.74.04,1.38-.18,1.84-.6,0,0,0,0,0,0h0s2.05-2.13,2.05-2.13c.63-.64.64-1.44.64-1.66,0-.26-.04-.51-.11-.76.97.23,2.22.37,3.61.37,3.04,0,5.5-.67,5.5-1.5v-2.51c.16,0,.33,0,.5,0,3.04,0,5.5-.67,5.5-1.5v-3.5c0-1.67-1.41-3.1-3.42-3.7ZM25.42,52.02c.11-.42.08-.34.08-3.52,0,.93.64,1.7,1.5,1.93l-1.57,1.59ZM35.88,41.28c-1.08,0-1.65.63-1.69.67l-2.06,2.08c.27-.27-.69.66-.62,1.83l-2.01,2.04v-6.68l8.26-2.94c-.17.39-.26.8-.26,1.22v2.25c-.5-.28-1.05-.46-1.62-.46Z" fill="#fff" opacity=".5" stroke="#fff" stroke-linejoin="round" stroke-width="3"/>
  <g>
    <path d="M44.12,10.71l-2.5-1.49h-.01c-.63-.36-1.42-.5-2.29-.3l-23.71,5.37c-1.71.39-3.1,2.15-3.1,3.9v22.1c0,.97.33,1.75.86,2.28v.02s1.99,2.02,1.99,2.02l25.85-8.93c1.96-.66,3.28-2.5,3.25-4.57l-.33-20.39Z" fill="url(#linear-gradient-4)" stroke="#787878" stroke-linejoin="round"/>
    <path d="M45.5,13.33v19.38c0,1.57-1.22,3.27-2.71,3.78l-24.31,8.65c-2.19.75-3.98-.53-3.98-2.84v-22.61c0-1.75,1.4-3.51,3.11-3.9l24.21-5.39c2.02-.46,3.68.85,3.68,2.92Z" fill="url(#linear-gradient-5)" stroke="#787878" stroke-linejoin="round"/>
    <g>
      <g>
        <path d="M17.5,27.5c.85-1.7,1.87-7.46,4-8s2.87,6.54,5,6c2.13-.54,3-8,3-8" fill="none" stroke="url(#linear-gradient-7)" stroke-linecap="round" stroke-linejoin="round"/>
        <path d="M17.5,24.5c.85-.85,1.87-1.46,4-2s2.87,1.54,5,1c2.13-.54,3-2,3-2" fill="none" opacity=".5" stroke="#646464" stroke-linecap="round" stroke-miterlimit="10"/>
      </g>
      <g>
        <path d="M42.65,18.12h0c0,2.74-2.16,5.58-4.81,6.33l-.21.06s-.08.02-.11.03c-.41.1-.81.16-1.21.16-2.28,0-3.92-1.76-3.92-4.18v-.28c0-2.86,2.26-5.76,4.61-6.31h0v5.66s5.66-1.46,5.66-1.46Z" fill="url(#linear-gradient-8)"/>
        <path d="M42.48,16.53l-4.47,1.29v-4.95s.15-.03.52-.03c2.3,0,3.95,2.06,3.95,3.7Z" fill="#646464" opacity=".5"/>
      </g>
      <path d="M18.5,35c.28,0,.5.22.5.5v6.11l-1,.33v-6.44c0-.28.22-.5.5-.5Z" fill="url(#linear-gradient-9)"/>
      <path d="M20.5,32c.28,0,.5.22.5.5v8.44l-1,.33v-8.77c0-.28.22-.5.5-.5Z" fill="url(#linear-gradient-10)"/>
      <path d="M22.5,30c.28,0,.5.22.5.5v9.78l-1,.33v-10.11c0-.28.22-.5.5-.5Z" fill="url(#linear-gradient-11)"/>
      <path d="M24.5,28c.28,0,.5.22.5.5v11.12l-1,.33v-11.45c0-.28.22-.5.5-.5Z" fill="url(#linear-gradient-12)"/>
      <path d="M26.5,33c.28,0,.5.22.5.5v5.46l-1,.33v-5.79c0-.28.22-.5.5-.5Z" fill="url(#linear-gradient-13)"/>
      <path d="M28.5,34c.28,0,.5.22.5.5v3.79l-1,.34v-4.13c0-.28.22-.5.5-.5Z" fill="url(#linear-gradient-14)"/>
    </g>
    <path d="M16.01,43.3v-22.61c0-1.51,1.25-3.08,2.73-3.41l24.21-5.39c.23-.05.46-.08.69-.08.39,0,.75.09,1.08.25-.15-.29-.34-.55-.59-.75-.41-.33-.93-.5-1.49-.5-.22,0-.45.03-.69.08l-24.21,5.39c-1.48.34-2.73,1.9-2.73,3.41v22.61c0,.95.34,1.72.96,2.16.1.07.21.12.32.17-.18-.38-.28-.83-.28-1.33Z" fill="url(#Dégradé_sans_nom_12)"/>
    <path d="M44.12,10.73v-.02s-2.5-1.49-2.5-1.49h-.01c-.63-.36-1.42-.5-2.29-.3l-23.71,5.37c-1.71.39-3.1,2.15-3.1,3.9v22.1c0,.97.33,1.75.86,2.28v.02s1.99,2.02,1.99,2.02h.02c.73.72,1.85.98,3.11.55l24.31-8.65c1.49-.51,2.71-2.21,2.71-3.78V13.33c0-1.18-.55-2.1-1.38-2.6Z" fill="none" stroke="#323232" stroke-linejoin="round"/>
    <path d="M43,31l-.02-6.94-5.98,3.94,2.35,1.17-.9,1.8-3.06-1.7c-.2-.11-.44-.14-.67-.07-.22.07-.41.22-.51.43l-2.21,4.42v3.23s.35-.11.35-.11l2.99-5.98,3.06,1.7c.2.11.44.14.67.07.22-.07.41-.22.51-.43l1.3-2.6,2.13,1.06Z" fill="#646464" opacity=".5"/>
  </g>
  <g>
    <g>
      <path d="M49,31.5c-3.04,0-5.5,1.79-5.5,4v3.5c0,.83,2.46,1.5,5.5,1.5s5.5-.67,5.5-1.5v-3.5c0-2.21-2.46-4-5.5-4Z" fill="url(#radial-gradient)" stroke="#787878" stroke-linejoin="round"/>
      <path d="M49,34c1.22,0,2.32-.45,3.18-1.18-.87-.51-1.97-.82-3.18-.82s-2.32.32-3.18.82c.87.72,1.97,1.18,3.18,1.18Z" fill="url(#radial-gradient-2)" opacity=".3"/>
      <circle cx="49" cy="29" r="3.5" fill="url(#radial-gradient-3)" stroke="#787878" stroke-linejoin="round"/>
    </g>
    <g>
      <path d="M43,35.5c-3.04,0-5.5,1.79-5.5,4v3.5c0,.83,2.46,1.5,5.5,1.5s5.5-.67,5.5-1.5v-3.5c0-2.21-2.46-4-5.5-4Z" fill="url(#radial-gradient-4)" stroke="#787878" stroke-linejoin="round"/>
      <path d="M43,38c1.22,0,2.32-.45,3.18-1.18-.87-.51-1.97-.82-3.18-.82s-2.32.32-3.18.82c.87.72,1.97,1.18,3.18,1.18Z" fill="url(#radial-gradient-5)" opacity=".3"/>
      <circle cx="43" cy="33" r="3.5" fill="url(#radial-gradient-6)" stroke="#787878" stroke-linejoin="round"/>
    </g>
    <path d="M51.08,31.8c.86-.64,1.42-1.65,1.42-2.8,0-1.93-1.57-3.5-3.5-3.5s-3.5,1.57-3.5,3.5c0,1.15.56,2.16,1.42,2.8-.2.06-.39.13-.58.2-.43-1.44-1.75-2.5-3.34-2.5-1.93,0-3.5,1.57-3.5,3.5,0,1.15.56,2.16,1.42,2.8-2,.6-3.42,2.03-3.42,3.7v3.5c0,.83,2.46,1.5,5.5,1.5s5.5-.67,5.5-1.5v-2.51c.16,0,.33,0,.5,0,3.04,0,5.5-.67,5.5-1.5v-3.5c0-1.67-1.41-3.1-3.42-3.7Z" fill="none" stroke="#323232" stroke-linejoin="round"/>
  </g>
  <g>
    <g>
      <path d="M25.5,34.5h4v14c0,1.1-.9,2-2,2h0c-1.1,0-2-.9-2-2v-14h0Z" fill="url(#linear-gradient-15)"/>
      <path d="M25.5,37.58c.53.22,1.28.41,2.08.41.14,0,.28,0,.42-.01v7.96c-.14,0-.28.01-.42.01-.81,0-1.56-.19-2.08-.41v-7.96Z" fill="#646464" opacity=".5"/>
      <path d="M25.5,34.5h4v14c0,1.1-.9,2-2,2h0c-1.1,0-2-.9-2-2v-14h0Z" fill="none" stroke="#323232" stroke-linejoin="round"/>
      <g>
        <path d="M24.5,32.5v2.77c0,.68,1.34,1.23,3,1.23s3-.55,3-1.23v-2.77h-6Z" fill="url(#linear-gradient-2)" stroke="#003755" stroke-linejoin="round"/>
        <ellipse cx="27.5" cy="32.5" rx="3" ry="1" fill="url(#linear-gradient-3)" stroke="#003755" stroke-linejoin="round"/>
      </g>
    </g>
    <g>
      <path d="M21.5,37.5h4v14c0,1.1-.9,2-2,2h0c-1.1,0-2-.9-2-2v-14h0Z" fill="url(#linear-gradient-16)"/>
      <path d="M21.5,40.58c.53.22,1.28.41,2.08.41.14,0,.28,0,.42-.01v7.96c-.14,0-.28.01-.42.01-.81,0-1.56-.19-2.08-.41v-7.96Z" fill="#646464" opacity=".5"/>
      <path d="M21.5,37.5h4v14c0,1.1-.9,2-2,2h0c-1.1,0-2-.9-2-2v-14h0Z" fill="none" stroke="#323232" stroke-linejoin="round"/>
      <g>
        <path d="M20.5,35.5v2.77c0,.68,1.34,1.23,3,1.23s3-.55,3-1.23v-2.77h-6Z" fill="url(#linear-gradient-17)" stroke="#003755" stroke-linejoin="round"/>
        <ellipse cx="23.5" cy="35.5" rx="3" ry="1" fill="url(#linear-gradient-18)" stroke="#003755" stroke-linejoin="round"/>
      </g>
    </g>
    <g isolation="isolate">
      <path d="M31.51,45.97c-.16-1.63,1.05-2.78,2.7-2.58s3.11,1.68,3.27,3.31-1.05,2.78-2.7,2.58-3.11-1.68-3.27-3.31Z" fill="url(#linear-gradient)" stroke="#003755" stroke-linejoin="round"/>
      <path d="M39.5,44.89c0-1.86-1.78-3.61-3.62-3.61-1.08,0-1.65.63-1.69.67l-2.06,2.08c.45-.46,1.04-.66,1.65-.66,1.84,0,3.71,1.59,3.71,3.57,0,.29-.09,1.13-.7,1.74l2.06-2.13c.63-.64.64-1.44.64-1.66Z" fill="url(#linear-gradient-19)" stroke="#003755" stroke-linejoin="round"/>
      <path d="M36.27,47.21c0-1.37-1.32-2.68-2.69-2.68-.81,0-1.23.47-1.25.49l-7.14,7.22h0s0,0,0,0h0c-.45.45-.69,1.09-.7,1.76.09,1.51,1.07,1.87,1.36,2.13.49.22.72.24,1.05.25h0s0,0,.01,0c.67,0,1.24-.26,1.74-.72l7.14-7.22c.13-.13.48-.52.48-1.23Z" fill="url(#linear-gradient-20)"/>
      <path d="M29.43,51.59c.47.49.77,1.12.77,1.78,0,.5-.19.87-.33,1.08l4.56-4.62c.13-.13.48-.55.48-1.26,0-.62-.27-1.22-.69-1.69l-4.8,4.72Z" fill="#646464" opacity=".5"/>
      <path d="M33.58,45.53c.82,0,1.69.86,1.69,1.68,0,.28-.1.44-.19.53l-7.11,7.2c-.32.3-.64.44-1.05.45-.22-.01-.32-.02-.55-.11-.05-.04-.1-.07-.16-.11-.34-.23-.66-.45-.72-1.18.01-.41.16-.78.41-1.04l7.16-7.24s.18-.17.52-.17M33.58,44.53c-.81,0-1.23.47-1.25.49l-7.14,7.22h0s0,0,0,0c-.45.45-.69,1.09-.7,1.76.09,1.51,1.07,1.87,1.36,2.13.49.22.72.24,1.05.25h0s0,0,.01,0c.67,0,1.24-.26,1.74-.72l7.14-7.22c.12-.13.48-.52.48-1.23,0-1.37-1.32-2.68-2.69-2.68h0ZM25.2,52.25s0,0,0,0c0,0,0,0,0,0h0ZM25.2,52.25h0s0,0,0,0h0Z" fill="#323232"/>
    </g>
  </g>
</svg>