<?xml version="1.0" encoding="UTF-8"?>
<svg id="IT_1" data-name="IT 1" xmlns="http://www.w3.org/2000/svg" xmlns:xlink="http://www.w3.org/1999/xlink" viewBox="0 0 64 64">
  <defs>
    <linearGradient id="linear-gradient" x1="37.79" y1="33.24" x2="50.21" y2="54.76" gradientUnits="userSpaceOnUse">
      <stop offset="0" stop-color="#8cd7f5"/>
      <stop offset="1" stop-color="#376e8c"/>
    </linearGradient>
    <linearGradient id="linear-gradient-2" x1="17.37" y1="4.03" x2="45.63" y2="52.97" gradientUnits="userSpaceOnUse">
      <stop offset="0" stop-color="#fff"/>
      <stop offset="1" stop-color="#d4d5d3"/>
    </linearGradient>
    <linearGradient id="linear-gradient-3" x1="14.41" y1="9.45" x2="26.59" y2="30.55" gradientUnits="userSpaceOnUse">
      <stop offset="0" stop-color="#d7d7d7"/>
      <stop offset="1" stop-color="#969696"/>
    </linearGradient>
    <linearGradient id="linear-gradient-4" y1="26.45" y2="47.55" xlink:href="#linear-gradient-3"/>
    <linearGradient id="linear-gradient-5" x1="36.41" y1="26.45" x2="48.59" y2="47.55" xlink:href="#linear-gradient-3"/>
    <linearGradient id="linear-gradient-6" x1="36.41" y1="9.45" x2="48.59" y2="30.55" xlink:href="#linear-gradient-3"/>
    <mask id="mask" x="27" y="4" width="30" height="28" maskUnits="userSpaceOnUse">
      <g>
        <g>
          <rect x="33" y="13" width="20" height="14" fill="#fff"/>
          <g>
            <g>
              <path d="M32.81,23.4c3.75-3.75,9.83,3.75,13.58,0" fill="none" stroke="#000" stroke-miterlimit="10" stroke-width="3.5"/>
              <path d="M32.81,23.4c3.75-3.75,9.83,3.75,13.58,0" fill="none" stroke="#fff" stroke-miterlimit="10" stroke-width="1.5"/>
            </g>
            <g>
              <path d="M39.6,16.6c3.75-3.75,9.83,3.75,13.58,0" fill="none" stroke="#000" stroke-miterlimit="10" stroke-width="3.5"/>
              <path d="M39.6,16.6c3.75-3.75,9.83,3.75,13.58,0" fill="none" stroke="#fff" stroke-miterlimit="10" stroke-width="1.5"/>
            </g>
            <g>
              <path d="M46.4,23.4c3.75-3.75-3.75-9.83,0-13.58" fill="none" stroke="#000" stroke-miterlimit="10" stroke-width="3.5"/>
              <path d="M46.4,23.4c3.75-3.75-3.75-9.83,0-13.58" fill="none" stroke="#fff" stroke-miterlimit="10" stroke-width="1.5"/>
            </g>
            <g>
              <path d="M39.6,30.19c3.75-3.75-3.75-9.83,0-13.58" fill="none" stroke="#000" stroke-miterlimit="10" stroke-width="3.5"/>
              <path d="M39.6,30.19c3.75-3.75-3.75-9.83,0-13.58" fill="none" stroke="#fff" stroke-miterlimit="10" stroke-width="1.5"/>
            </g>
          </g>
        </g>
        <path d="M57,10h-2v-6h-23v8h-3v15h-2v5h28v-3h2V10ZM34,13h18v14h-18v-14Z"/>
      </g>
    </mask>
    <linearGradient id="Blanc_Noir" data-name="Blanc, Noir" x1="38.06" y1="33.71" x2="49.94" y2="54.29" gradientUnits="userSpaceOnUse">
      <stop offset="0" stop-color="#fff"/>
      <stop offset="1" stop-color="#000"/>
    </linearGradient>
    <linearGradient id="Dégradé_sans_nom_17" data-name="Dégradé sans nom 17" x1="41" y1="38.8" x2="47" y2="49.2" gradientUnits="userSpaceOnUse">
      <stop offset="0" stop-color="#376e8c"/>
      <stop offset="1" stop-color="#8cd7f5"/>
    </linearGradient>
  </defs>
  <g>
    <g>
      <path d="M8,9.51h47c.27,0,.49.22.49.49v37c0,.27-.22.49-.49.49H8c-.27,0-.49-.22-.49-.49V10c0-.27.22-.49.49-.49Z" fill="url(#linear-gradient-2)"/>
      <path d="M55,10v37H8V10h47M55,9.02H8c-.54,0-.98.44-.98.98v37c0,.54.44.98.98.98h47c.54,0,.98-.44.98-.98V10c0-.54-.44-.98-.98-.98h0Z" fill="#323232"/>
    </g>
    <rect x="10" y="12" width="21" height="16" fill="url(#linear-gradient-3)"/>
    <rect x="10" y="29" width="21" height="16" fill="url(#linear-gradient-4)"/>
    <rect x="32" y="29" width="21" height="16" fill="url(#linear-gradient-5)"/>
    <rect x="32" y="12" width="21" height="16" fill="url(#linear-gradient-6)"/>
    <g mask="url(#mask)">
      <g id="Double_helix" data-name="Double helix">
        <path d="M32.81,23.4c3.75-3.75,9.83,3.75,13.58,0" fill="none" stroke="#77797c" stroke-miterlimit="10" stroke-width="1.5"/>
        <path d="M39.6,16.6c3.75-3.75,9.83,3.75,13.58,0" fill="none" stroke="#77797c" stroke-miterlimit="10" stroke-width="1.5"/>
        <path d="M46.4,23.4c3.75-3.75-3.75-9.83,0-13.58" fill="none" stroke="#77797c" stroke-miterlimit="10" stroke-width="1.5"/>
        <path d="M39.6,30.19c3.75-3.75-3.75-9.83,0-13.58" fill="none" stroke="#77797c" stroke-miterlimit="10" stroke-width="1.5"/>
      </g>
    </g>
    <path d="M47.7,40.39c.2.36.3.76.3,1.19,0,1.25-1,2.43-2.43,2.43h-7.14c-1.48,0-2.43-1.2-2.43-2.43,0-.43.1-.82.3-1.19l3.64-6.54c.04-.08.06-.15.06-.21v-1.63c-.33,0-.57-.25-.57-.57v-.86c0-.32.24-.57.57-.57h1v3.63c0,.24-.06.47-.19.7l-2.23,4.01c.44-.21.94-.34,1.41-.34,2.06,0,1.95,1,4,1,.55,0,1.12-.07,1.61-.3l-2.43-4.37c-.12-.23-.19-.46-.19-.7v-3.63h1c.33,0,.57.25.57.57v.86c0,.32-.24.57-.57.57v1.63c0,.1.02.17.06.21l3.64,6.54Z" fill="#77797c"/>
    <path d="M27.89,32.57c.2.12.29.29.29.51v2.99c0,.23-.1.4-.29.51l-2.6,1.5c-.08.05-.18.07-.29.07-.11,0-.2-.03-.29-.09l-2.14-1.23-2.39,1.38v1.98l2.52,1.45c.12.07.21.16.27.28.06.12.1.24.1.37,0,.21-.07.37-.21.51-.14.13-.31.2-.52.2-.15,0-.27-.03-.37-.09l-2.52-1.44-2.16,1.25c-.08.05-.18.07-.29.07-.1,0-.2-.03-.29-.1l-2.6-1.47c-.2-.12-.29-.29-.29-.51v-2.99c0-.22.1-.4.29-.51l2.6-1.5c.07-.05.17-.07.29-.07.12,0,.21.02.29.07l2.14,1.25,2.39-1.38v-2.49c0-.23.1-.4.29-.51l2.6-1.5c.07-.05.17-.07.29-.07.12,0,.22.02.29.07l2.6,1.5ZM18.12,38.57l-1.13-.65-1.13.65v1.29l1.13.65,1.13-.65v-1.29ZM26.14,33.93l-1.13-.65-1.13.65v1.29l1.13.65,1.13-.65v-1.29Z" fill="#77797c"/>
    <path d="M24.48,22.57c.82,0,1.52-.18,2.1-.54-.73,2.31-1.85,3.98-4.59,3.98-1.43,0-2.52-.39-3.6-1.19-1.43-1.05-2.17-1.72-3.03-1.72-1.22,0-2.21-.77-2.21-2.76,0-2.38.94-5.36,3.22-5.36,2.04,0,2.94,2.19,4.02,4.17.98,1.78,2.07,3.43,4.09,3.43ZM18.32,14.56c1.14-.35,2.01-.56,3.01-.56,3.2,0,5.53,2.84,5.53,5.58,0,1.39-.98,2.01-2.38,2.01-2.87,0-3.64-5.32-6.16-7.03Z" fill="#77797c"/>
  </g>
  <g>
    <path d="M52.55,48.62c0,.66.24,1.29.74,1.79l.87.87c-.8,1.12-1.76,2.08-2.88,2.88l-.87-.87c-.49-.49-1.12-.74-1.79-.74-1.45,0-2.58,1.14-2.58,2.55v1.22c-.68.1-1.35.18-2.04.18s-1.36-.08-2.04-.18v-1.22c0-1.36-1.07-2.55-2.58-2.55-.67,0-1.29.25-1.79.74l-.87.87c-1.12-.8-2.08-1.76-2.88-2.88l.87-.87c.5-.5.74-1.12.74-1.79,0-1.49-1.18-2.58-2.55-2.58h-1.22c-.1-.69-.18-1.35-.18-2.04s.08-1.35.18-2.04h1.22c1.43,0,2.55-1.14,2.55-2.58,0-.66-.24-1.29-.74-1.79l-.87-.87c.8-1.12,1.76-2.08,2.88-2.88l.87.87c.49.49,1.11.74,1.79.74,1.51,0,2.58-1.2,2.58-2.55v-1.22c.68-.1,1.36-.18,2.04-.18s1.36.08,2.04.18v1.22c0,1.52,1.2,2.55,2.58,2.55.65,0,1.3-.22,1.79-.71l.87-.89c1.12.8,2.08,1.76,2.88,2.88l-.87.87c-.5.49-.74,1.12-.74,1.79,0,1.45,1.14,2.58,2.55,2.58h1.22c.1.69.18,1.35.18,2.04s-.08,1.36-.18,2.04h-1.22c-1.36,0-2.55,1.07-2.55,2.58ZM44,48.5c2.47,0,4.5-2.03,4.5-4.5s-2.03-4.5-4.5-4.5-4.5,2.03-4.5,4.5,2.02,4.5,4.5,4.5Z" fill="#fff" opacity=".75" stroke="#fff" stroke-linejoin="round" stroke-width="3"/>
    <path d="M52.55,48.62c0,.66.24,1.29.74,1.79l.87.87c-.8,1.12-1.76,2.08-2.88,2.88l-.87-.87c-.49-.49-1.12-.74-1.79-.74-1.45,0-2.58,1.14-2.58,2.55v1.22c-.68.1-1.35.18-2.04.18s-1.36-.08-2.04-.18v-1.22c0-1.36-1.07-2.55-2.58-2.55-.67,0-1.29.25-1.79.74l-.87.87c-1.12-.8-2.08-1.76-2.88-2.88l.87-.87c.5-.5.74-1.12.74-1.79,0-1.49-1.18-2.58-2.55-2.58h-1.22c-.1-.69-.18-1.35-.18-2.04s.08-1.35.18-2.04h1.22c1.43,0,2.55-1.14,2.55-2.58,0-.66-.24-1.29-.74-1.79l-.87-.87c.8-1.12,1.76-2.08,2.88-2.88l.87.87c.49.49,1.11.74,1.79.74,1.51,0,2.58-1.2,2.58-2.55v-1.22c.68-.1,1.36-.18,2.04-.18s1.36.08,2.04.18v1.22c0,1.52,1.2,2.55,2.58,2.55.65,0,1.3-.22,1.79-.71l.87-.89c1.12.8,2.08,1.76,2.88,2.88l-.87.87c-.5.49-.74,1.12-.74,1.79,0,1.45,1.14,2.58,2.55,2.58h1.22c.1.69.18,1.35.18,2.04s-.08,1.36-.18,2.04h-1.22c-1.36,0-2.55,1.07-2.55,2.58ZM44,48.5c2.47,0,4.5-2.03,4.5-4.5s-2.03-4.5-4.5-4.5-4.5,2.03-4.5,4.5,2.02,4.5,4.5,4.5Z" fill="url(#linear-gradient)" stroke="#003755" stroke-linejoin="round"/>
    <g opacity=".3">
      <path d="M55.89,42.46h-.79c-1.71,0-3.05-1.35-3.05-3.08,0-.82.31-1.56.89-2.14l.56-.56c-.63-.82-1.35-1.54-2.17-2.17l-.56.58c-.56.56-1.32.87-2.14.87-1.72,0-3.08-1.34-3.08-3.05v-.79c-.93-.12-2.16-.12-3.08,0v.79c0,1.71-1.35,3.05-3.08,3.05-.82,0-1.56-.31-2.14-.89l-.56-.56c-.82.63-1.55,1.36-2.18,2.18l.56.56c.58.58.89,1.32.89,2.14,0,1.73-1.34,3.08-3.05,3.08h-.79c-.06.47-.11,1-.11,1.54s.05,1.07.11,1.54h.79c1.71,0,3.05,1.35,3.05,3.08,0,.82-.31,1.56-.89,2.14l-.56.56c.63.82,1.36,1.55,2.18,2.18l.56-.56c.58-.58,1.32-.89,2.14-.89,1.72,0,3.08,1.34,3.08,3.05v.79c.93.12,2.14.12,3.08,0v-.79c0-1.71,1.35-3.05,3.08-3.05.82,0,1.56.31,2.14.89l.56.56c.82-.63,1.55-1.36,2.18-2.18l-.56-.56c-.58-.58-.89-1.32-.89-2.14,0-1.73,1.34-3.08,3.05-3.08h.79c.06-.47.11-1,.11-1.54s-.05-1.07-.11-1.54ZM54.98,44.54c-2.22.06-3.94,1.83-3.94,4.08,0,1.05.38,2,1.1,2.76-.24.27-.5.52-.76.76-.76-.72-1.71-1.1-2.76-1.1-2.24,0-4.01,1.71-4.07,3.92-.17,0-.36.01-.54.01s-.37,0-.55-.01c-.07-2.21-1.83-3.92-4.07-3.92-1.05,0-2,.38-2.76,1.1-.27-.24-.52-.5-.76-.76.72-.76,1.1-1.71,1.1-2.76,0-2.25-1.72-4.02-3.94-4.08-.01-.19-.02-.37-.02-.54s0-.35.02-.54c2.22-.06,3.94-1.83,3.94-4.08,0-1.05-.38-2.01-1.1-2.76.24-.27.5-.52.76-.76.76.72,1.71,1.1,2.76,1.1,2.24,0,4.01-1.71,4.07-3.92.18,0,.36-.01.54-.01s.37,0,.54.01c.07,2.21,1.83,3.92,4.07,3.92,1.06,0,2.04-.38,2.78-1.09.26.24.51.49.75.75-.72.76-1.1,1.71-1.1,2.76,0,2.25,1.72,4.02,3.94,4.08.01.19.02.37.02.54s0,.35-.02.54Z" fill="url(#Blanc_Noir)"/>
    </g>
    <path d="M44,38c-3.31,0-6,2.69-6,6s2.69,6,6,6,6-2.69,6-6-2.69-6-6-6ZM44,49c-2.76,0-5-2.24-5-5s2.24-5,5-5,5,2.24,5,5-2.24,5-5,5Z" fill="url(#Dégradé_sans_nom_17)"/>
  </g>
</svg>