<?xml version="1.0" encoding="UTF-8"?><svg xmlns="http://www.w3.org/2000/svg" xmlns:xlink="http://www.w3.org/1999/xlink" viewBox="0 0 64 64"><defs><linearGradient id="linear-gradient" x1="50.75" y1="49.18" x2="55.69" y2="57.74" gradientUnits="userSpaceOnUse"><stop offset="0" stop-color="#8cd7f5"/><stop offset="1" stop-color="#376e8c"/></linearGradient><linearGradient id="linear-gradient-2" x1="32.49" y1="31.89" x2="37.84" y2="41.15" gradientUnits="userSpaceOnUse"><stop offset="0" stop-color="#d7d7d7"/><stop offset="1" stop-color="#969696"/></linearGradient><linearGradient id="linear-gradient-3" x1="22.5" y1="27.77" x2="24.5" y2="31.23" gradientUnits="userSpaceOnUse"><stop offset="0" stop-color="#aaa"/><stop offset="1" stop-color="#5a5a5a"/></linearGradient><linearGradient id="linear-gradient-4" x1="24.35" y1="22.05" x2="30.65" y2="32.95" gradientUnits="userSpaceOnUse"><stop offset="0" stop-color="#fff"/><stop offset="1" stop-color="#d2d2d2"/></linearGradient><linearGradient id="linear-gradient-5" x1="35.9" y1="31.95" x2="52.02" y2="59.86" xlink:href="#linear-gradient-4"/><radialGradient id="Dégradé_sans_nom_2" cx="48.44" cy="12.58" fx="48.44" fy="12.58" r="3" gradientUnits="userSpaceOnUse"><stop offset="0" stop-color="#8cd7f5"/><stop offset="1" stop-color="#376e8c"/></radialGradient><radialGradient id="Dégradé_sans_nom_2-2" cx="17.12" cy="46.24" fx="17.12" fy="46.24" r="2.5" xlink:href="#Dégradé_sans_nom_2"/><radialGradient id="Dégradé_sans_nom_2-3" cx="52.44" cy="36.58" fx="52.44" fy="36.58" r="3" xlink:href="#Dégradé_sans_nom_2"/><radialGradient id="Dégradé_sans_nom_2-4" cx="27.12" cy="12.24" fx="27.12" fy="12.24" r="2.5" xlink:href="#Dégradé_sans_nom_2"/><linearGradient id="linear-gradient-6" x1="32.73" y1="17.21" x2="42.05" y2="33.34" gradientUnits="userSpaceOnUse"><stop offset="0" stop-color="#fff"/><stop offset="1" stop-color="#f0f0f0"/></linearGradient><radialGradient id="Dégradé_sans_nom_2-5" cx="37.77" cy="50.93" fx="37.77" fy="50.93" r="3.5" xlink:href="#Dégradé_sans_nom_2"/><radialGradient id="Dégradé_sans_nom_2-6" cx="9.44" cy="22.58" fx="9.44" fy="22.58" xlink:href="#Dégradé_sans_nom_2"/><radialGradient id="Dégradé_sans_nom_2-7" cx="31.77" cy="24.93" fx="31.77" fy="24.93" r="3.5" xlink:href="#Dégradé_sans_nom_2"/><linearGradient id="linear-gradient-7" x1="35.9" y1="31.95" x2="52.02" y2="59.86" xlink:href="#linear-gradient-4"/></defs><g id="Layer_1"><g><line x1="53.5" y1="37.5" x2="37.5" y2="35.5" fill="#fff" opacity=".5" stroke="#fff" stroke-linejoin="round" stroke-width="4"/><line x1="17.5" y1="47.5" x2="29.5" y2="37.5" fill="#fff" opacity=".5" stroke="#fff" stroke-linejoin="round" stroke-width="4"/><line x1="49.5" y1="13.5" x2="26.5" y2="12.5" fill="#fff" opacity=".5" stroke="#fff" stroke-linejoin="round" stroke-width="4"/><line x1="10.5" y1="23.5" x2="28.5" y2="12.5" fill="#fff" opacity=".5" stroke="#fff" stroke-linejoin="round" stroke-width="4"/><line x1="48.01" y1="14.86" x2="33.5" y2="25.5" fill="#fff" opacity=".5" stroke="#fff" stroke-linejoin="round" stroke-width="4"/><line x1="49.75" y1="15.92" x2="53.07" y2="35" fill="#fff" opacity=".5" stroke="#fff" stroke-linejoin="round" stroke-width="4"/><line x1="32.5" y1="25.5" x2="39.5" y2="53.5" fill="#fff" opacity=".5" stroke="#fff" stroke-linejoin="round" stroke-width="4"/><line x1="52.22" y1="38.78" x2="38.5" y2="52.5" fill="#fff" opacity=".5" stroke="#fff" stroke-linejoin="round" stroke-width="4"/><line x1="17.88" y1="45.63" x2="10.5" y2="23.5" fill="#fff" opacity=".5" stroke="#fff" stroke-linejoin="round" stroke-width="4"/><line x1="19.58" y1="47.07" x2="39.5" y2="52.5" fill="#fff" opacity=".5" stroke="#fff" stroke-linejoin="round" stroke-width="4"/><line x1="10.5" y1="23.5" x2="35.5" y2="26.5" fill="#fff" opacity=".5" stroke="#fff" stroke-linejoin="round" stroke-width="4"/></g><g><line x1="53.5" y1="37.5" x2="37.5" y2="35.5" fill="none" stroke="#323232" stroke-linejoin="round" stroke-width="2"/><line x1="17.5" y1="47.5" x2="29.5" y2="37.5" fill="none" stroke="#323232" stroke-linejoin="round" stroke-width="2"/><line x1="49.5" y1="13.5" x2="26.5" y2="12.5" fill="none" stroke="#323232" stroke-linejoin="round" stroke-width="2"/><line x1="10.5" y1="23.5" x2="28.5" y2="12.5" fill="none" stroke="#323232" stroke-linejoin="round" stroke-width="2"/></g><g><circle cx="49.5" cy="13.5" r="3" fill="url(#Dégradé_sans_nom_2)" stroke="#003755" stroke-linejoin="round"/><circle cx="18" cy="47" r="2.5" fill="url(#Dégradé_sans_nom_2-2)" stroke="#003755" stroke-linejoin="round"/><circle cx="53.5" cy="37.5" r="3" fill="url(#Dégradé_sans_nom_2-3)" stroke="#003755" stroke-linejoin="round"/><circle cx="28" cy="13" r="2.5" fill="url(#Dégradé_sans_nom_2-4)" stroke="#003755" stroke-linejoin="round"/></g><g><circle cx="23.5" cy="29.5" r="2" fill="url(#linear-gradient-3)" stroke="#323232" stroke-linejoin="round"/><circle cx="40.5" cy="25.5" r="2" fill="url(#linear-gradient-3)" stroke="#323232" stroke-linejoin="round"/><polygon points="24.5 36.5 30.5 18.5 23.5 29.5 24.5 36.5" fill="url(#linear-gradient-4)" stroke="#787878" stroke-linejoin="round"/><polygon points="30.5 18.5 24.5 36.5 43.5 32.5 30.5 18.5" fill="url(#linear-gradient-4)" stroke="#787878" stroke-linejoin="round"/><polygon points="30.5 18.5 43.5 32.5 40.5 25.5 30.5 18.5" fill="url(#linear-gradient-6)" stroke="#787878" stroke-linejoin="round"/><polygon points="24.5 36.5 35.5 42.5 43.5 32.5 24.5 36.5" fill="url(#linear-gradient-2)" stroke="#787878" stroke-linejoin="round"/><polygon points="40.5 25.5 30.5 18.5 23.5 29.5 24.5 36.5 35.5 42.5 43.5 32.5 40.5 25.5" fill="none" stroke="#323232" stroke-linejoin="round"/><circle cx="30.5" cy="18.5" r="2" fill="url(#linear-gradient-3)" stroke="#323232" stroke-linejoin="round"/><circle cx="24.5" cy="37.5" r="2" fill="url(#linear-gradient-3)" stroke="#323232" stroke-linejoin="round"/><circle cx="44.5" cy="32.5" r="2" fill="url(#linear-gradient-3)" stroke="#323232" stroke-linejoin="round"/><circle cx="35.75" cy="41.75" r="1.75" fill="url(#linear-gradient-3)" stroke="#323232" stroke-linejoin="round"/></g><g><line x1="48.01" y1="14.86" x2="33.5" y2="25.5" fill="none" stroke="#323232" stroke-linejoin="round" stroke-width="2"/><line x1="49.75" y1="15.92" x2="53.07" y2="35" fill="none" stroke="#323232" stroke-linejoin="round" stroke-width="2"/><line x1="32.5" y1="25.5" x2="39.5" y2="53.5" fill="none" stroke="#323232" stroke-linejoin="round" stroke-width="2"/><line x1="52.22" y1="38.78" x2="38.5" y2="52.5" fill="none" stroke="#323232" stroke-linejoin="round" stroke-width="2"/><line x1="17.88" y1="45.63" x2="10.5" y2="23.5" fill="none" stroke="#323232" stroke-linejoin="round" stroke-width="2"/><line x1="19.58" y1="47.07" x2="39.5" y2="52.5" fill="none" stroke="#323232" stroke-linejoin="round" stroke-width="2"/><line x1="10.5" y1="23.5" x2="35.5" y2="26.5" fill="none" stroke="#323232" stroke-linejoin="round" stroke-width="2"/></g><g><circle cx="39" cy="52" r="3.5" fill="url(#Dégradé_sans_nom_2-5)" stroke="#003755" stroke-linejoin="round"/><circle cx="10.5" cy="23.5" r="3" fill="url(#Dégradé_sans_nom_2-6)" stroke="#003755" stroke-linejoin="round"/><circle cx="33" cy="26" r="3.5" fill="url(#Dégradé_sans_nom_2-7)" stroke="#003755" stroke-linejoin="round"/></g></g><g id="Layer_3"><path d="M56.94,54.13l-6.82-6.73c1.2-1.77,1.98-3.84,1.98-6.11,0-5.97-4.85-10.8-10.8-10.8s-10.8,4.83-10.8,10.8,4.85,10.8,10.8,10.8c2.26,0,4.29-.71,6.05-1.92l6.79,6.75c.36,.42,.84,.56,1.37,.56s1.01-.14,1.43-.56c.42-.42,.56-.87,.56-1.4s-.14-.98-.56-1.4Z" fill="#fff" opacity=".5" stroke="#fff" stroke-linejoin="round" stroke-width="3"/><circle cx="41.3" cy="41.3" r="9.26" fill="#fff" opacity=".5" stroke="#fff" stroke-linejoin="round" stroke-width="3"/><path d="M56.94,54.13l-6.82-6.73c1.2-1.77,1.98-3.84,1.98-6.11,0-5.97-4.85-10.8-10.8-10.8s-10.8,4.83-10.8,10.8,4.85,10.8,10.8,10.8c2.26,0,4.29-.71,6.05-1.92l6.79,6.75c.36,.42,.84,.56,1.37,.56s1.01-.14,1.43-.56,.56-.87,.56-1.4-.14-.98-.56-1.4Zm-15.64-3.58c-5.04,0-9.26-4.23-9.26-9.26s4.22-9.26,9.26-9.26,9.26,4.23,9.26,9.26-4.22,9.26-9.26,9.26Z" fill="url(#linear-gradient-7)" stroke="#787878" stroke-linejoin="round"/><path d="M56.94,54.13l-6.82-6.73c1.2-1.77,1.98-3.84,1.98-6.11,0-5.97-4.85-10.8-10.8-10.8s-10.8,4.83-10.8,10.8,4.85,10.8,10.8,10.8c2.26,0,4.29-.71,6.05-1.92l6.79,6.75c.36,.42,.84,.56,1.37,.56s1.01-.14,1.43-.56,.56-.87,.56-1.4-.14-.98-.56-1.4Z" fill="none" stroke="#323232" stroke-linejoin="round"/><path d="M56.94,54.13l-5.45-5.38-2.8,2.75,5.46,5.43c.36,.42,.84,.56,1.37,.56s1.01-.14,1.43-.56,.56-.87,.56-1.4-.14-.98-.56-1.4Z" fill="url(#linear-gradient)" stroke="#003755" stroke-linejoin="round"/></g></svg>