<?xml version="1.0" encoding="UTF-8"?>
<svg xmlns="http://www.w3.org/2000/svg" xmlns:xlink="http://www.w3.org/1999/xlink" viewBox="0 0 64 64">
  <defs>
    <linearGradient id="linear-gradient" x1="21" y1="32" x2="29" y2="32" gradientUnits="userSpaceOnUse">
      <stop offset="0" stop-color="#464646"/>
      <stop offset="1" stop-color="#141414"/>
    </linearGradient>
    <linearGradient id="linear-gradient-2" x1="43.13" y1="42.1" x2="49.04" y2="52.34" gradientUnits="userSpaceOnUse">
      <stop offset="0" stop-color="#fff"/>
      <stop offset="1" stop-color="#d4d5d3"/>
    </linearGradient>
    <linearGradient id="linear-gradient-3" x1="35.04" y1="27.61" x2="38.96" y2="34.39" gradientUnits="userSpaceOnUse">
      <stop offset="0" stop-color="#fff"/>
      <stop offset="1" stop-color="#d2d2d2"/>
    </linearGradient>
    <linearGradient id="linear-gradient-4" x1="50.04" y1="20.61" x2="53.96" y2="27.39" xlink:href="#linear-gradient-3"/>
    <linearGradient id="linear-gradient-5" x1="41.25" y1="21.87" x2="49.08" y2="35.43" gradientUnits="userSpaceOnUse">
      <stop offset="0" stop-color="#aaa"/>
      <stop offset="1" stop-color="#5a5a5a"/>
    </linearGradient>
    <linearGradient id="linear-gradient-6" x1="9.24" y1="16.49" x2="16.76" y2="29.51" gradientUnits="userSpaceOnUse">
      <stop offset="0" stop-color="#8cd7f5"/>
      <stop offset="1" stop-color="#376e8c"/>
    </linearGradient>
    <linearGradient id="linear-gradient-7" x1="9.24" y1="34.49" x2="16.76" y2="47.51" xlink:href="#linear-gradient-6"/>
    <linearGradient id="linear-gradient-8" x1="39.96" y1="43.68" x2="47.45" y2="51.17" gradientUnits="userSpaceOnUse">
      <stop offset=".73" stop-color="#464646" stop-opacity="0"/>
      <stop offset="1" stop-color="#141414"/>
    </linearGradient>
    <linearGradient id="linear-gradient-9" x1="36.89" y1="55.44" x2="40.16" y2="55.44" xlink:href="#linear-gradient"/>
    <linearGradient id="linear-gradient-10" x1="50.17" y1="40.1" x2="57.5" y2="40.1" xlink:href="#linear-gradient"/>
    <linearGradient id="linear-gradient-11" x1="42.33" y1="44.67" x2="49.37" y2="51.71" gradientUnits="userSpaceOnUse">
      <stop offset=".05" stop-color="#3d7593"/>
      <stop offset=".36" stop-color="#8cd7f5"/>
      <stop offset=".44" stop-color="#7cc4e2"/>
      <stop offset=".62" stop-color="#5694b2"/>
      <stop offset=".74" stop-color="#376e8c"/>
    </linearGradient>
  </defs>
  <g id="Retrosynthesis">
    <polygon points="26 31 26 22 21 22 21 24 24 24 24 40 21 40 21 42 26 42 26 33 29 33 29 31 26 31" fill="#fff" opacity=".5" stroke="#fff" stroke-linejoin="round" stroke-width="2"/>
    <polygon points="26 31 26 22 21 22 21 24 24 24 24 40 21 40 21 42 26 42 26 33 29 33 29 31 26 31" fill="url(#linear-gradient)" stroke-width="0"/>
    <polygon points="40.5 33.5 37 35.3 33.5 33.5 33.5 28.5 37 26.7 40.5 28.5 40.5 33.5" fill="url(#linear-gradient-3)" stroke-width="0"/>
    <polygon points="55.5 26.5 52 28.3 48.5 26.5 48.5 21.5 52 19.7 55.5 21.5 55.5 26.5" fill="url(#linear-gradient-4)" stroke-width="0"/>
    <path d="M52,17.5l-5.5,3v5.04l-4.23,1.84-5.27-2.88-5.5,3v7l5.55,3,4.06-2.23,3.63,2.1c.48.28,1.09.11,1.37-.37h0c.28-.48.11-1.09-.37-1.37l-3.23-1.87v-4.31l4.23-1.84,5.32,2.88,5.45-3v-7l-5.5-3ZM37,35.3l-3.5-1.8v-5l3.5-1.8,3.5,1.8v5l-3.5,1.8ZM55.5,26.5l-3.5,1.8-3.5-1.8v-5l3.5-1.8,3.5,1.8v5Z" fill="url(#linear-gradient-5)" stroke="#323232" stroke-linejoin="round"/>
    <rect x="7.5" y="17.5" width="11" height="11" fill="url(#linear-gradient-6)" stroke="#003755" stroke-linejoin="round"/>
    <path d="M7.5,35.5v11h11v-11H7.5ZM16.5,44.5h-7v-7h7v7Z" fill="url(#linear-gradient-7)" stroke="#003755" stroke-linejoin="round"/>
  </g>
  <g id="Pen">
    <path d="M36.5,57.5l.79-5.22c.06-.42.26-.81.56-1.11l14.09-14.08c.78-.78,2.04-.78,2.82,0l2.15,2.15c.79.79.78,2.06-.02,2.84l-14.21,13.86c-.28.27-.62.45-1,.53l-5.19,1.04Z" fill="#fff" opacity=".5" stroke="#fff" stroke-linejoin="round" stroke-width="3"/>
    <path d="M36.5,57.5l.79-5.22c.06-.42.26-.81.56-1.11l14.09-14.08c.78-.78,2.04-.78,2.82,0l2.15,2.15c.79.79.78,2.06-.02,2.84l-14.21,13.86c-.28.27-.62.45-1,.53l-5.19,1.04Z" fill="url(#linear-gradient-2)" stroke="#323232" stroke-linejoin="round"/>
    <polygon points="36.89 57.11 42.02 55.89 55.52 42.73 54.18 41.44 40.66 54.79 36.89 57.11" fill="url(#linear-gradient-8)" opacity=".5" stroke-width="0"/>
    <polygon points="36.89 57.11 37.54 53.76 40.16 56.33 36.89 57.11" fill="url(#linear-gradient-9)" stroke-width="0"/>
    <path d="M50.17,38.84l5.06,4.86,1.67-1.63c.8-.78.8-2.05.02-2.84l-2.15-2.15c-.78-.78-2.04-.78-2.82,0l-1.77,1.76Z" fill="url(#linear-gradient-10)" stroke-width="0"/>
    <polygon points="39.25 49.75 44.15 54.51 52.34 46.52 47.42 41.6 39.25 49.75" fill="url(#linear-gradient-11)" stroke="#003755" stroke-linejoin="round"/>
  </g>
</svg>