<?xml version="1.0" encoding="UTF-8"?><svg xmlns="http://www.w3.org/2000/svg" xmlns:xlink="http://www.w3.org/1999/xlink" viewBox="0 0 64 64"><defs><linearGradient id="linear-gradient" x1="34.61" y1="25.13" x2="41.39" y2="36.87" gradientUnits="userSpaceOnUse"><stop offset="0" stop-color="#8cd7f5"/><stop offset="1" stop-color="#376e8c"/></linearGradient><linearGradient id="linear-gradient-2" x1="35.9" y1="31.95" x2="52.02" y2="59.86" gradientUnits="userSpaceOnUse"><stop offset="0" stop-color="#fff"/><stop offset="1" stop-color="#d2d2d2"/></linearGradient><linearGradient id="linear-gradient-3" x1="22.61" y1="15.13" x2="29.39" y2="26.87" gradientUnits="userSpaceOnUse"><stop offset="0" stop-color="#fff"/><stop offset="1" stop-color="#d4d5d3"/></linearGradient><linearGradient id="linear-gradient-4" x1="13" y1="33.5" x2="18" y2="33.5" gradientUnits="userSpaceOnUse"><stop offset="0" stop-color="#464646"/><stop offset="1" stop-color="#141414"/></linearGradient><linearGradient id="linear-gradient-5" x1="25" x2="30" xlink:href="#linear-gradient-4"/><linearGradient id="linear-gradient-6" x1="25" x2="30" xlink:href="#linear-gradient-4"/><linearGradient id="linear-gradient-7" x1="10.61" y1="4.13" x2="17.39" y2="15.87" gradientUnits="userSpaceOnUse"><stop offset="0" stop-color="#aaa"/><stop offset="1" stop-color="#5a5a5a"/></linearGradient></defs><g id="Layer_4"><g opacity=".5"><g><polygon points="15 14 13 14 13 20 13 22 13 51 13 52 13 53 18 53 18 51 15 51 15 22 18 22 18 20 15 20 15 14" fill="#fff"/><polygon points="30 32 30 30 27 30 27 25 25 25 25 42 26 42 27 42 30 42 30 40 27 40 27 32 30 32" fill="#fff"/></g><g><polygon points="15 14 13 14 13 20 13 22 13 51 13 52 13 53 18 53 18 51 15 51 15 22 18 22 18 20 15 20 15 14" fill="url(#linear-gradient-4)"/><polygon points="30 32 30 30 27 30 27 25 25 25 25 42 26 42 27 42 30 42 30 40 27 40 27 32 30 32" fill="url(#linear-gradient-5)"/></g><g><polygon points="15 14 13 14 13 20 13 22 13 51 13 52 13 53 18 53 18 51 15 51 15 22 18 22 18 20 15 20 15 14" fill="none" stroke="#fff" stroke-linejoin="round" stroke-width="2"/><polygon points="30 32 30 30 27 30 27 25 25 25 25 42 26 42 27 42 30 42 30 40 27 40 27 32 30 32" fill="none" stroke="#fff" stroke-linejoin="round" stroke-width="2"/></g></g><g><polygon points="15 14 13 14 13 20 13 22 13 51 13 52 13 53 18 53 18 51 15 51 15 22 18 22 18 20 15 20 15 14" fill="url(#linear-gradient-4)"/><polygon points="30 32 30 30 27 30 27 25 25 25 25 42 26 42 27 42 30 42 30 40 27 40 27 32 30 32" fill="url(#linear-gradient-6)"/></g><rect x="18.5" y="17.5" width="15" height="7" fill="url(#linear-gradient-3)" stroke="#323232" stroke-linejoin="round"/><rect x="6.5" y="6.5" width="15" height="7" fill="url(#linear-gradient-7)" stroke="#323232" stroke-linejoin="round"/><rect x="30.5" y="27.5" width="15" height="7" fill="url(#linear-gradient)" stroke="#003755" stroke-linejoin="round"/><rect x="30.5" y="37.5" width="15" height="7" fill="url(#linear-gradient)" stroke="#003755" stroke-linejoin="round"/><rect x="18.5" y="48.5" width="15" height="7" fill="url(#linear-gradient-3)" stroke="#323232" stroke-linejoin="round"/></g><g id="Layer_3"><path d="M56.94,54.13l-6.82-6.73c1.2-1.77,1.98-3.84,1.98-6.11,0-5.97-4.85-10.8-10.8-10.8s-10.8,4.83-10.8,10.8,4.85,10.8,10.8,10.8c2.26,0,4.29-.71,6.05-1.92l6.79,6.75c.36,.42,.84,.56,1.37,.56s1.01-.14,1.43-.56c.42-.42,.56-.87,.56-1.4s-.14-.98-.56-1.4Z" fill="#fff" opacity=".5" stroke="#fff" stroke-linejoin="round" stroke-width="3"/><circle cx="41.3" cy="41.3" r="9.26" fill="#fff" opacity=".5" stroke="#fff" stroke-linejoin="round" stroke-width="3"/><path d="M56.94,54.13l-6.82-6.73c1.2-1.77,1.98-3.84,1.98-6.11,0-5.97-4.85-10.8-10.8-10.8s-10.8,4.83-10.8,10.8,4.85,10.8,10.8,10.8c2.26,0,4.29-.71,6.05-1.92l6.79,6.75c.36,.42,.84,.56,1.37,.56s1.01-.14,1.43-.56,.56-.87,.56-1.4-.14-.98-.56-1.4Zm-15.64-3.58c-5.04,0-9.26-4.23-9.26-9.26s4.22-9.26,9.26-9.26,9.26,4.23,9.26,9.26-4.22,9.26-9.26,9.26Z" fill="url(#linear-gradient-2)" stroke="#787878" stroke-linejoin="round"/><path d="M56.94,54.13l-6.82-6.73c1.2-1.77,1.98-3.84,1.98-6.11,0-5.97-4.85-10.8-10.8-10.8s-10.8,4.83-10.8,10.8,4.85,10.8,10.8,10.8c2.26,0,4.29-.71,6.05-1.92l6.79,6.75c.36,.42,.84,.56,1.37,.56s1.01-.14,1.43-.56,.56-.87,.56-1.4-.14-.98-.56-1.4Z" fill="none" stroke="#323232" stroke-linejoin="round"/><path d="M56.94,54.13l-5.45-5.38-2.8,2.75,5.46,5.43c.36,.42,.84,.56,1.37,.56s1.01-.14,1.43-.56,.56-.87,.56-1.4-.14-.98-.56-1.4Z" fill="url(#linear-gradient)" stroke="#003755" stroke-linejoin="round"/></g></svg>