<?xml version="1.0" encoding="UTF-8"?>
<svg id="IT_1" data-name="IT 1" xmlns="http://www.w3.org/2000/svg" xmlns:xlink="http://www.w3.org/1999/xlink" viewBox="0 0 64 64">
  <defs>
    <linearGradient id="linear-gradient" x1="37.79" y1="33.24" x2="50.21" y2="54.76" gradientUnits="userSpaceOnUse">
      <stop offset="0" stop-color="#8cd7f5"/>
      <stop offset="1" stop-color="#376e8c"/>
    </linearGradient>
    <linearGradient id="linear-gradient-2" x1="12" y1="28.5" x2="29" y2="28.5" gradientUnits="userSpaceOnUse">
      <stop offset="0" stop-color="#464646"/>
      <stop offset="1" stop-color="#141414"/>
    </linearGradient>
    <linearGradient id="linear-gradient-3" x1="7.5" y1="23" x2="52.5" y2="23" gradientUnits="userSpaceOnUse">
      <stop offset="0" stop-color="#4e4a48"/>
      <stop offset="1" stop-color="#201d1a"/>
    </linearGradient>
    <linearGradient id="linear-gradient-4" x1="19.22" y1="25.01" x2="22.92" y2="31.41" gradientUnits="userSpaceOnUse">
      <stop offset="0" stop-color="#d7d7d7"/>
      <stop offset="1" stop-color="#969696"/>
    </linearGradient>
    <linearGradient id="linear-gradient-5" x1="16.71" y1="34.04" x2="23.29" y2="45.45" gradientUnits="userSpaceOnUse">
      <stop offset="0" stop-color="#fff"/>
      <stop offset="1" stop-color="#f0f0f0"/>
    </linearGradient>
    <linearGradient id="linear-gradient-6" x1="16.44" y1="30.69" x2="25.89" y2="47.06" gradientUnits="userSpaceOnUse">
      <stop offset="0" stop-color="#fff"/>
      <stop offset="1" stop-color="#d2d2d2"/>
    </linearGradient>
    <linearGradient id="linear-gradient-7" x1="19" y1="44.5" x2="20" y2="44.5" xlink:href="#linear-gradient-2"/>
    <linearGradient id="linear-gradient-8" x1="19" y1="42.5" x2="20" y2="42.5" xlink:href="#linear-gradient-2"/>
    <linearGradient id="linear-gradient-9" x1="19" y1="40" x2="20" y2="40" xlink:href="#linear-gradient-2"/>
    <linearGradient id="linear-gradient-10" x1="19" y1="37.5" x2="20" y2="37.5" xlink:href="#linear-gradient-2"/>
    <linearGradient id="linear-gradient-11" x1="19" y1="35.5" x2="20" y2="35.5" xlink:href="#linear-gradient-2"/>
    <linearGradient id="linear-gradient-12" x1="19.91" y1="24.11" x2="22.09" y2="27.89" xlink:href="#linear-gradient-4"/>
    <linearGradient id="linear-gradient-13" x1="23.44" y1="28.69" x2="32.89" y2="45.06" xlink:href="#linear-gradient-4"/>
    <linearGradient id="linear-gradient-14" x1="23.71" y1="32.04" x2="30.29" y2="43.45" xlink:href="#linear-gradient-5"/>
    <linearGradient id="linear-gradient-15" x1="26" y1="42.5" x2="27" y2="42.5" xlink:href="#linear-gradient-2"/>
    <linearGradient id="linear-gradient-16" x1="26" y1="41" x2="27" y2="41" xlink:href="#linear-gradient-2"/>
    <linearGradient id="linear-gradient-17" x1="26" y1="38.5" x2="27" y2="38.5" xlink:href="#linear-gradient-2"/>
    <linearGradient id="linear-gradient-18" x1="26" y1="36" x2="27" y2="36" xlink:href="#linear-gradient-2"/>
    <linearGradient id="linear-gradient-19" x1="26" y1="33.5" x2="27" y2="33.5" xlink:href="#linear-gradient-2"/>
    <linearGradient id="linear-gradient-20" x1="26.22" y1="23.01" x2="29.92" y2="29.41" xlink:href="#linear-gradient-4"/>
    <linearGradient id="linear-gradient-21" x1="26.91" y1="22.11" x2="29.09" y2="25.89" xlink:href="#linear-gradient-4"/>
    <linearGradient id="linear-gradient-22" x1="33.79" y1="35.77" x2="37.73" y2="42.61" xlink:href="#linear-gradient-4"/>
    <linearGradient id="linear-gradient-23" x1="35.76" y1="33.54" x2="40.14" y2="41.11" xlink:href="#linear-gradient-4"/>
    <linearGradient id="linear-gradient-24" x1="29.98" y1="42.63" x2="31.37" y2="44.06" gradientUnits="userSpaceOnUse">
      <stop offset="0" stop-color="#fff"/>
      <stop offset="1" stop-color="#d4d5d3"/>
    </linearGradient>
    <linearGradient id="linear-gradient-25" x1="32.19" y1="40.96" x2="34.66" y2="45.23" xlink:href="#linear-gradient-6"/>
    <linearGradient id="linear-gradient-26" x1="30.99" y1="45.24" x2="32.09" y2="45.24" xlink:href="#linear-gradient-2"/>
    <linearGradient id="linear-gradient-27" x1="31.73" y1="44.51" x2="33.09" y2="44.51" xlink:href="#linear-gradient-2"/>
    <linearGradient id="linear-gradient-28" x1="32.9" y1="43.15" x2="34.98" y2="43.15" xlink:href="#linear-gradient-2"/>
    <linearGradient id="linear-gradient-29" x1="34.68" y1="41.49" x2="35.82" y2="41.49" xlink:href="#linear-gradient-2"/>
    <linearGradient id="Blanc_Noir" data-name="Blanc, Noir" x1="38.06" y1="33.71" x2="49.94" y2="54.29" gradientUnits="userSpaceOnUse">
      <stop offset="0" stop-color="#fff"/>
      <stop offset="1" stop-color="#000"/>
    </linearGradient>
    <linearGradient id="Dégradé_sans_nom_17" data-name="Dégradé sans nom 17" x1="41" y1="38.8" x2="47" y2="49.2" gradientUnits="userSpaceOnUse">
      <stop offset="0" stop-color="#376e8c"/>
      <stop offset="1" stop-color="#8cd7f5"/>
    </linearGradient>
  </defs>
  <g>
    <rect x="7.5" y="7.5" width="45" height="31" rx="1.86" ry="1.86" fill="url(#linear-gradient-3)"/>
    <rect x="7.5" y="7.5" width="45" height="31" rx="1.86" ry="1.86" fill="none" stroke="#3a3634" stroke-linejoin="round"/>
    <rect x="10" y="9" width="40" height="28" fill="#f4f5f6"/>
    <g>
      <path d="M45.26,14.87c-1.15-2.29-3.52-3.87-6.26-3.87v7l6.26-3.13Z" fill="#d1d4d4"/>
      <path d="M39,11c-3.87,0-7,3.13-7,7,0,1.79.67,3.41,1.77,4.65l5.23-4.65v-7Z" fill="#b4b6ba"/>
      <path d="M46,18c0-1.13-.27-2.19-.74-3.13l-6.26,3.13,3.88,5.82c1.88-1.26,3.12-3.39,3.12-5.82Z" fill="#e2e4e3"/>
      <path d="M33.77,22.65c1.28,1.44,3.15,2.35,5.23,2.35,1.44,0,2.77-.43,3.88-1.18l-3.88-5.82-5.23,4.65Z" fill="#77797c"/>
    </g>
    <g>
      <rect x="31" y="27" width="17" height="1" fill="#646464" opacity=".5"/>
      <rect x="31" y="29" width="17" height="1" fill="#646464" opacity=".5"/>
      <rect x="31" y="31" width="17" height="1" fill="#646464" opacity=".5"/>
      <rect x="31" y="33" width="11" height="1" fill="#646464" opacity=".5"/>
    </g>
    <g>
      <rect x="12" y="11" width="17" height="1" fill="#646464" opacity=".5"/>
      <rect x="12" y="13" width="17" height="1" fill="#646464" opacity=".5"/>
      <rect x="12" y="15" width="17" height="1" fill="#646464" opacity=".5"/>
      <rect x="15" y="17" width="14" height="1" fill="#646464" opacity=".5"/>
      <rect x="15" y="19" width="14" height="1" fill="#646464" opacity=".5"/>
      <rect x="12" y="17" width="1" height="1" fill="#646464" opacity=".5"/>
      <rect x="12" y="19" width="1" height="1" fill="#646464" opacity=".5"/>
    </g>
    <g>
      <polygon points="13 34 13 22 12 22 12 35 29 35 29 34 13 34" fill="url(#linear-gradient-2)"/>
      <rect x="14" y="26" width="2" height="8" fill="#77797c"/>
      <rect x="17" y="24" width="2" height="10" fill="#3d3d3d"/>
      <rect x="20" y="29" width="2" height="5" fill="#d1d4d4"/>
      <rect x="23" y="26" width="2" height="8" fill="#b4b6ba"/>
      <rect x="26" y="27" width="2" height="7" fill="#77797c"/>
    </g>
  </g>
  <g>
    <g>
      <path d="M18.5,29.5h5v17.5c0,1.38-1.12,2.5-2.5,2.5h0c-1.38,0-2.5-1.12-2.5-2.5v-17.5h0Z" fill="url(#linear-gradient-6)"/>
      <g>
        <path d="M18.5,33c.63.27,1.53.5,2.5.5.17,0,.34,0,.5-.02v13c-.16,0-.33.02-.5.02-.97,0-1.87-.23-2.5-.5v-13Z" fill="url(#linear-gradient-5)" stroke="#787878" stroke-linejoin="round"/>
        <rect x="19" y="44" width="1" height="1" fill="url(#linear-gradient-7)"/>
        <rect x="19" y="42" width="1" height="1" fill="url(#linear-gradient-8)"/>
        <rect x="19" y="39" width="1" height="2" fill="url(#linear-gradient-9)"/>
        <rect x="19" y="37" width="1" height="1" fill="url(#linear-gradient-10)"/>
        <rect x="19" y="35" width="1" height="1" fill="url(#linear-gradient-11)"/>
      </g>
      <g>
        <path d="M17.5,26v4c0,.83,1.57,1.5,3.5,1.5s3.5-.67,3.5-1.5v-4h-7Z" fill="url(#linear-gradient-4)" stroke="#787878" stroke-linejoin="round"/>
        <ellipse cx="21" cy="26" rx="3.5" ry="1.5" fill="url(#linear-gradient-12)" stroke="#787878" stroke-linejoin="round"/>
        <rect x="19" y="28" width="1" height="3" fill="#646464" opacity=".5"/>
        <rect x="21" y="28" width="1" height="3" fill="#646464" opacity=".5"/>
        <rect x="23" y="28" width="1" height="2" fill="#646464" opacity=".5"/>
      </g>
    </g>
    <g>
      <path d="M25.5,27.5h5v17.5c0,1.38-1.12,2.5-2.5,2.5h0c-1.38,0-2.5-1.12-2.5-2.5v-17.5h0Z" fill="url(#linear-gradient-13)"/>
      <g>
        <path d="M25.5,31c.63.27,1.53.5,2.5.5.17,0,.34,0,.5-.02v13c-.16,0-.33.02-.5.02-.97,0-1.87-.23-2.5-.5v-13Z" fill="url(#linear-gradient-14)" stroke="#787878" stroke-linejoin="round"/>
        <rect x="26" y="42" width="1" height="1" fill="url(#linear-gradient-15)"/>
        <rect x="26" y="40" width="1" height="2" fill="url(#linear-gradient-16)"/>
        <rect x="26" y="38" width="1" height="1" fill="url(#linear-gradient-17)"/>
        <rect x="26" y="35" width="1" height="2" fill="url(#linear-gradient-18)"/>
        <rect x="26" y="33" width="1" height="1" fill="url(#linear-gradient-19)"/>
      </g>
      <g>
        <path d="M24.5,24v4c0,.83,1.57,1.5,3.5,1.5s3.5-.67,3.5-1.5v-4h-7Z" fill="url(#linear-gradient-20)" stroke="#787878" stroke-linejoin="round"/>
        <ellipse cx="28" cy="24" rx="3.5" ry="1.5" fill="url(#linear-gradient-21)" stroke="#787878" stroke-linejoin="round"/>
        <rect x="26" y="26" width="1" height="3" fill="#646464" opacity=".5"/>
        <rect x="28" y="26" width="1" height="3" fill="#646464" opacity=".5"/>
        <rect x="30" y="26" width="1" height="2" fill="#646464" opacity=".5"/>
      </g>
    </g>
    <g isolation="isolate">
      <g>
        <path d="M32.15,38.74c-.19-1.98,1.28-3.39,3.27-3.15s3.77,2.05,3.96,4.04-1.28,3.39-3.27,3.15-3.77-2.05-3.96-4.04Z" fill="url(#linear-gradient-22)" stroke="#787878" stroke-linejoin="round"/>
        <path d="M41.9,37.43c0-2.27-2.18-4.4-4.41-4.4-1.32,0-2.01.76-2.06.81l-2.51,2.54c.55-.56,1.26-.81,2.01-.81,2.09,0,4.46,1.94,4.46,4.36,0,.35-.04,1.31-.79,2.06l2.51-2.54c.77-.77.79-1.75.79-2.02Z" fill="url(#linear-gradient-23)" stroke="#787878" stroke-linejoin="round"/>
        <polygon points="37.25 33.49 35.66 35.1 36.69 35.46 38.47 33.65 37.25 33.49" fill="#646464" opacity=".5"/>
        <polygon points="39.41 34.11 37.59 35.93 38.37 36.56 40.19 34.74 39.41 34.11" fill="#646464" opacity=".5"/>
        <polygon points="40.8 35.5 39.06 37.24 39.57 38.15 41.28 36.43 40.8 35.5" fill="#646464" opacity=".5"/>
      </g>
      <path d="M38.48,39.77c0-1.69-1.63-3.3-3.31-3.3-1,0-1.51.58-1.54.61l-8.79,8.9h0s0,0,0,0h0c-.56.56-.85,1.35-.87,2.17.11,1.86,1.32,2.31,1.67,2.63.6.27.89.29,1.29.31h0s.01,0,.02,0c.83,0,1.53-.32,2.14-.89l8.79-8.9c.15-.16.59-.64.59-1.52Z" fill="url(#linear-gradient-24)" stroke="#787878" stroke-miterlimit="10"/>
      <g>
        <g>
          <path d="M31.49,47.06c-.09-.98-.64-1.94-1.48-2.62l5.13-5.19c.72.56,1.18,1.38,1.18,2.18,0,.7-.35,1.1-.45,1.21l-4.37,4.43Z" fill="url(#linear-gradient-25)"/>
          <path d="M35.16,39.94c.41.43.66.97.66,1.48s-.26.8-.31.86l-3.74,3.78c-.22-.6-.57-1.16-1.04-1.64l4.43-4.48M35.08,38.6l-5.84,5.91c1.01.6,1.77,1.69,1.77,2.84,0,.61-.23,1.07-.41,1.33l5.62-5.69c.15-.16.6-.68.6-1.56,0-1.14-.74-2.22-1.74-2.82h0Z" fill="#787878"/>
        </g>
        <g>
          <path d="M30.99,44.75c.33.4.61.84.78,1.32l.32-.33c-.13-.46-.36-.92-.68-1.33l-.43.34Z" fill="url(#linear-gradient-26)"/>
          <path d="M32.42,43.41l-.68.67c.38.49.49,1,.49,1.53l.86-.87c-.13-.46-.35-.92-.67-1.33Z" fill="url(#linear-gradient-27)"/>
          <path d="M34.33,41.59l-1.43,1.35c.32.41.35.74.35,1.17,0,.27-.07.46-.14.59l1.87-1.89c-.15-.43-.35-.85-.65-1.23Z" fill="url(#linear-gradient-28)"/>
          <path d="M35.7,40.84c-.09-.15-.18-.29-.29-.43l-.74.75c.37.48.53.9.54,1.42l.29-.29c.05-.05.31-.34.31-.86,0-.19-.05-.39-.11-.59Z" fill="url(#linear-gradient-29)"/>
        </g>
      </g>
    </g>
    <path d="M37.49,33.03c-1.32,0-2.01.76-2.06.81l-2.51,2.54s.02-.01.03-.02c-.54.54-.84,1.31-.8,2.22l-1.65,1.67v-11.2c.62-.27,1-.64,1-1.05v-4c0-.83-1.57-1.5-3.5-1.5s-3.5.67-3.5,1.5v2c0-.83-1.57-1.5-3.5-1.5s-3.5.67-3.5,1.5v4c0,.41.38.78,1,1.05v15.95c0,1.38,1.12,2.5,2.5,2.5s2.5-1.12,2.5-2.5v-15.95c.62-.27,1-.64,1-1.05v-2c0,.41.38.78,1,1.05v15.95c0,.1.02.19.03.28l-.69.7h0c-.56.56-.85,1.35-.87,2.17.11,1.86,1.32,2.31,1.67,2.63.6.27.89.29,1.29.31h0s.01,0,.02,0c.83,0,1.53-.32,2.14-.89l7.32-7.41c.26.11,1.3-.05,2.19-.79l2.51-2.54c.77-.77.79-1.75.79-2.02,0-2.27-2.18-4.4-4.41-4.4Z" fill="none" stroke="#323232" stroke-linejoin="round"/>
  </g>
  <g>
    <path d="M52.55,48.62c0,.66.24,1.29.74,1.79l.87.87c-.8,1.12-1.76,2.08-2.88,2.88l-.87-.87c-.49-.49-1.12-.74-1.79-.74-1.45,0-2.58,1.14-2.58,2.55v1.22c-.68.1-1.35.18-2.04.18s-1.36-.08-2.04-.18v-1.22c0-1.36-1.07-2.55-2.58-2.55-.67,0-1.29.25-1.79.74l-.87.87c-1.12-.8-2.08-1.76-2.88-2.88l.87-.87c.5-.5.74-1.12.74-1.79,0-1.49-1.18-2.58-2.55-2.58h-1.22c-.1-.69-.18-1.35-.18-2.04s.08-1.35.18-2.04h1.22c1.43,0,2.55-1.14,2.55-2.58,0-.66-.24-1.29-.74-1.79l-.87-.87c.8-1.12,1.76-2.08,2.88-2.88l.87.87c.49.49,1.11.74,1.79.74,1.51,0,2.58-1.2,2.58-2.55v-1.22c.68-.1,1.36-.18,2.04-.18s1.36.08,2.04.18v1.22c0,1.52,1.2,2.55,2.58,2.55.65,0,1.3-.22,1.79-.71l.87-.89c1.12.8,2.08,1.76,2.88,2.88l-.87.87c-.5.49-.74,1.12-.74,1.79,0,1.45,1.14,2.58,2.55,2.58h1.22c.1.69.18,1.35.18,2.04s-.08,1.36-.18,2.04h-1.22c-1.36,0-2.55,1.07-2.55,2.58ZM44,48.5c2.47,0,4.5-2.03,4.5-4.5s-2.03-4.5-4.5-4.5-4.5,2.03-4.5,4.5,2.02,4.5,4.5,4.5Z" fill="#fff" opacity=".75" stroke="#fff" stroke-linejoin="round" stroke-width="3"/>
    <path d="M52.55,48.62c0,.66.24,1.29.74,1.79l.87.87c-.8,1.12-1.76,2.08-2.88,2.88l-.87-.87c-.49-.49-1.12-.74-1.79-.74-1.45,0-2.58,1.14-2.58,2.55v1.22c-.68.1-1.35.18-2.04.18s-1.36-.08-2.04-.18v-1.22c0-1.36-1.07-2.55-2.58-2.55-.67,0-1.29.25-1.79.74l-.87.87c-1.12-.8-2.08-1.76-2.88-2.88l.87-.87c.5-.5.74-1.12.74-1.79,0-1.49-1.18-2.58-2.55-2.58h-1.22c-.1-.69-.18-1.35-.18-2.04s.08-1.35.18-2.04h1.22c1.43,0,2.55-1.14,2.55-2.58,0-.66-.24-1.29-.74-1.79l-.87-.87c.8-1.12,1.76-2.08,2.88-2.88l.87.87c.49.49,1.11.74,1.79.74,1.51,0,2.58-1.2,2.58-2.55v-1.22c.68-.1,1.36-.18,2.04-.18s1.36.08,2.04.18v1.22c0,1.52,1.2,2.55,2.58,2.55.65,0,1.3-.22,1.79-.71l.87-.89c1.12.8,2.08,1.76,2.88,2.88l-.87.87c-.5.49-.74,1.12-.74,1.79,0,1.45,1.14,2.58,2.55,2.58h1.22c.1.69.18,1.35.18,2.04s-.08,1.36-.18,2.04h-1.22c-1.36,0-2.55,1.07-2.55,2.58ZM44,48.5c2.47,0,4.5-2.03,4.5-4.5s-2.03-4.5-4.5-4.5-4.5,2.03-4.5,4.5,2.02,4.5,4.5,4.5Z" fill="url(#linear-gradient)" stroke="#003755" stroke-linejoin="round"/>
    <g opacity=".3">
      <path d="M55.89,42.46h-.79c-1.71,0-3.05-1.35-3.05-3.08,0-.82.31-1.56.89-2.14l.56-.56c-.63-.82-1.35-1.54-2.17-2.17l-.56.58c-.56.56-1.32.87-2.14.87-1.72,0-3.08-1.34-3.08-3.05v-.79c-.93-.12-2.16-.12-3.08,0v.79c0,1.71-1.35,3.05-3.08,3.05-.82,0-1.56-.31-2.14-.89l-.56-.56c-.82.63-1.55,1.36-2.18,2.18l.56.56c.58.58.89,1.32.89,2.14,0,1.73-1.34,3.08-3.05,3.08h-.79c-.06.47-.11,1-.11,1.54s.05,1.07.11,1.54h.79c1.71,0,3.05,1.35,3.05,3.08,0,.82-.31,1.56-.89,2.14l-.56.56c.63.82,1.36,1.55,2.18,2.18l.56-.56c.58-.58,1.32-.89,2.14-.89,1.72,0,3.08,1.34,3.08,3.05v.79c.93.12,2.14.12,3.08,0v-.79c0-1.71,1.35-3.05,3.08-3.05.82,0,1.56.31,2.14.89l.56.56c.82-.63,1.55-1.36,2.18-2.18l-.56-.56c-.58-.58-.89-1.32-.89-2.14,0-1.73,1.34-3.08,3.05-3.08h.79c.06-.47.11-1,.11-1.54s-.05-1.07-.11-1.54ZM54.98,44.54c-2.22.06-3.94,1.83-3.94,4.08,0,1.05.38,2,1.1,2.76-.24.27-.5.52-.76.76-.76-.72-1.71-1.1-2.76-1.1-2.24,0-4.01,1.71-4.07,3.92-.17,0-.36.01-.54.01s-.37,0-.55-.01c-.07-2.21-1.83-3.92-4.07-3.92-1.05,0-2,.38-2.76,1.1-.27-.24-.52-.5-.76-.76.72-.76,1.1-1.71,1.1-2.76,0-2.25-1.72-4.02-3.94-4.08-.01-.19-.02-.37-.02-.54s0-.35.02-.54c2.22-.06,3.94-1.83,3.94-4.08,0-1.05-.38-2.01-1.1-2.76.24-.27.5-.52.76-.76.76.72,1.71,1.1,2.76,1.1,2.24,0,4.01-1.71,4.07-3.92.18,0,.36-.01.54-.01s.37,0,.54.01c.07,2.21,1.83,3.92,4.07,3.92,1.06,0,2.04-.38,2.78-1.09.26.24.51.49.75.75-.72.76-1.1,1.71-1.1,2.76,0,2.25,1.72,4.02,3.94,4.08.01.19.02.37.02.54s0,.35-.02.54Z" fill="url(#Blanc_Noir)"/>
    </g>
    <path d="M44,38c-3.31,0-6,2.69-6,6s2.69,6,6,6,6-2.69,6-6-2.69-6-6-6ZM44,49c-2.76,0-5-2.24-5-5s2.24-5,5-5,5,2.24,5,5-2.24,5-5,5Z" fill="url(#Dégradé_sans_nom_17)"/>
  </g>
</svg>