<?xml version="1.0" encoding="UTF-8"?>
<svg xmlns="http://www.w3.org/2000/svg" xmlns:xlink="http://www.w3.org/1999/xlink" viewBox="0 0 64 64">
  <defs>
    <linearGradient id="linear-gradient" x1="14.56" y1="11.19" x2="42.05" y2="58.82" gradientUnits="userSpaceOnUse">
      <stop offset="0" stop-color="#8cd7f5"/>
      <stop offset="1" stop-color="#376e8c"/>
    </linearGradient>
    <linearGradient id="linear-gradient-2" x1="44.75" y1="55.17" x2="47.25" y2="50.83" gradientUnits="userSpaceOnUse">
      <stop offset="0" stop-color="#379614"/>
      <stop offset="1" stop-color="#55b432"/>
    </linearGradient>
    <linearGradient id="linear-gradient-3" x1="44.5" y1="55.6" x2="47.5" y2="50.4" gradientUnits="userSpaceOnUse">
      <stop offset="0" stop-color="#28780a"/>
      <stop offset="1" stop-color="#3c9b19"/>
    </linearGradient>
    <linearGradient id="linear-gradient-4" x1="44.75" y1="34.83" x2="47.25" y2="39.17" gradientUnits="userSpaceOnUse">
      <stop offset="0" stop-color="#fc3f05"/>
      <stop offset="1" stop-color="#c10e00"/>
    </linearGradient>
    <linearGradient id="linear-gradient-5" x1="39.58" y1="33.88" x2="52.42" y2="56.12" gradientUnits="userSpaceOnUse">
      <stop offset="0" stop-color="#fff"/>
      <stop offset="1" stop-color="#d4d5d3"/>
    </linearGradient>
    <linearGradient id="linear-gradient-6" x1="44.75" y1="42.83" x2="47.25" y2="47.17" gradientUnits="userSpaceOnUse">
      <stop offset="0" stop-color="#fbe86a"/>
      <stop offset="1" stop-color="#f1cf2f"/>
    </linearGradient>
    <linearGradient id="linear-gradient-7" x1="-12.53" y1="5.95" x2="-8.63" y2="12.7" gradientTransform="translate(22) rotate(-180) scale(1 -1)" gradientUnits="userSpaceOnUse">
      <stop offset="0" stop-color="#3287af"/>
      <stop offset="1" stop-color="#285a78"/>
    </linearGradient>
    <linearGradient id="linear-gradient-8" x1="-16.14" y1="16.4" x2="-2.06" y2="40.78" xlink:href="#linear-gradient-7"/>
    <linearGradient id="linear-gradient-9" x1="-8.01" y1="10.35" x2="2.01" y2="27.69" xlink:href="#linear-gradient-7"/>
    <linearGradient id="linear-gradient-10" x1="-4.25" y1="26.2" x2="-2.75" y2="28.8" xlink:href="#linear-gradient-7"/>
    <linearGradient id="linear-gradient-11" x1="-9.25" y1="11.2" x2="-7.75" y2="13.8" xlink:href="#linear-gradient-7"/>
    <linearGradient id="linear-gradient-12" x1="-15.25" y1="21.2" x2="-13.75" y2="23.8" xlink:href="#linear-gradient-7"/>
    <linearGradient id="linear-gradient-13" x1="-4.25" y1="7.2" x2="-2.75" y2="9.8" xlink:href="#linear-gradient-7"/>
    <linearGradient id="linear-gradient-14" x1="-14.25" y1="6.2" x2="-12.75" y2="8.8" xlink:href="#linear-gradient-7"/>
    <linearGradient id="linear-gradient-15" x1="-18.25" y1="39.2" x2="-16.75" y2="41.8" xlink:href="#linear-gradient-7"/>
    <linearGradient id="linear-gradient-16" x1="-10.25" y1="43.2" x2="-8.75" y2="45.8" xlink:href="#linear-gradient-7"/>
    <linearGradient id="linear-gradient-17" x1="-11.25" y1="36.2" x2="-9.75" y2="38.8" xlink:href="#linear-gradient-7"/>
    <linearGradient id="linear-gradient-18" x1="-13.25" y1="30.2" x2="-11.75" y2="32.8" xlink:href="#linear-gradient-7"/>
    <linearGradient id="linear-gradient-19" x1="-22.25" y1="52.2" x2="-20.75" y2="54.8" xlink:href="#linear-gradient-7"/>
    <linearGradient id="linear-gradient-20" x1="-12.25" y1="55.2" x2="-10.75" y2="57.8" xlink:href="#linear-gradient-7"/>
    <linearGradient id="linear-gradient-21" x1="-16.25" y1="45.2" x2="-14.75" y2="47.8" xlink:href="#linear-gradient-7"/>
    <linearGradient id="linear-gradient-22" x1="-13.25" y1="50.2" x2="-11.75" y2="52.8" xlink:href="#linear-gradient-7"/>
    <linearGradient id="linear-gradient-23" x1="-20.99" y1="35.23" x2="-8.94" y2="56.11" xlink:href="#linear-gradient-7"/>
    <linearGradient id="linear-gradient-24" x1="37.12" y1="47.18" x2="44" y2="47.18" gradientTransform="matrix(1,0,0,1,0,0)" xlink:href="#linear-gradient-7"/>
    <radialGradient id="radial-gradient" cx="27.67" cy="95.83" fx="27.67" fy="95.83" r="70.31" gradientUnits="userSpaceOnUse">
      <stop offset=".91" stop-color="#fff"/>
      <stop offset=".97" stop-color="#000"/>
    </radialGradient>
    <linearGradient id="linear-gradient-25" x1="5.5" y1="31.5" x2="55.5" y2="31.5" gradientUnits="userSpaceOnUse">
      <stop offset=".45" stop-color="#fff"/>
      <stop offset=".47" stop-color="#e6e6e6"/>
      <stop offset=".5" stop-color="#a1a1a1"/>
      <stop offset=".54" stop-color="#676767"/>
      <stop offset=".57" stop-color="#3a3a3a"/>
      <stop offset=".6" stop-color="#1a1a1a"/>
      <stop offset=".63" stop-color="#070707"/>
      <stop offset=".64" stop-color="#000"/>
    </linearGradient>
    <mask id="mask" x="5.5" y="4" width="50" height="55" maskUnits="userSpaceOnUse">
      <rect x="6" y="4.5" width="49" height="54" fill="url(#radial-gradient)" stroke="url(#linear-gradient-25)" stroke-miterlimit="10"/>
    </mask>
    <linearGradient id="linear-gradient-26" x1="41.69" y1="48.87" x2="45.31" y2="55.13" gradientTransform="matrix(1,0,0,1,0,0)" xlink:href="#linear-gradient-7"/>
    <linearGradient id="linear-gradient-27" x1="21.83" y1="7.91" x2="41.34" y2="41.71" gradientTransform="matrix(1,0,0,1,0,0)" xlink:href="#linear-gradient-7"/>
    <linearGradient id="linear-gradient-28" x1="19.14" y1="34.87" x2="30.35" y2="34.87" gradientTransform="matrix(1,0,0,1,0,0)" xlink:href="#linear-gradient-7"/>
    <linearGradient id="linear-gradient-29" x1="34.05" y1="5.74" x2="37.77" y2="12.19" gradientTransform="matrix(1,0,0,1,0,0)" xlink:href="#linear-gradient-7"/>
    <linearGradient id="linear-gradient-30" x1="32.6" y1="14.44" x2="40.28" y2="27.75" gradientTransform="matrix(1,0,0,1,0,0)" xlink:href="#linear-gradient-7"/>
    <linearGradient id="linear-gradient-31" x1="38.46" y1="44.39" x2="44.3" y2="54.51" gradientTransform="matrix(1,0,0,1,0,0)" xlink:href="#linear-gradient-7"/>
    <linearGradient id="linear-gradient-32" x1="38.03" y1="36.09" x2="41.97" y2="42.91" gradientTransform="matrix(1,0,0,1,0,0)" xlink:href="#linear-gradient-7"/>
    <linearGradient id="linear-gradient-33" x1="29.07" y1="48.58" x2="32.51" y2="54.54" gradientTransform="matrix(1,0,0,1,0,0)" xlink:href="#linear-gradient-7"/>
    <linearGradient id="linear-gradient-34" x1="32.94" y1="49.86" x2="38.41" y2="59.32" gradientTransform="matrix(1,0,0,1,0,0)" xlink:href="#linear-gradient-7"/>
    <linearGradient id="linear-gradient-35" x1="34.75" y1="12.2" x2="36.25" y2="14.8" gradientTransform="matrix(1,0,0,1,0,0)" xlink:href="#linear-gradient-7"/>
    <linearGradient id="linear-gradient-36" x1="35.75" y1="26.2" x2="37.25" y2="28.8" gradientTransform="matrix(1,0,0,1,0,0)" xlink:href="#linear-gradient-7"/>
    <linearGradient id="linear-gradient-37" x1="29.75" y1="16.2" x2="31.25" y2="18.8" gradientTransform="matrix(1,0,0,1,0,0)" xlink:href="#linear-gradient-7"/>
    <linearGradient id="linear-gradient-38" x1="23.75" y1="12.2" x2="25.25" y2="14.8" gradientTransform="matrix(1,0,0,1,0,0)" xlink:href="#linear-gradient-7"/>
    <linearGradient id="linear-gradient-39" x1="24.75" y1="21.2" x2="26.25" y2="23.8" gradientTransform="matrix(1,0,0,1,0,0)" xlink:href="#linear-gradient-7"/>
    <linearGradient id="linear-gradient-40" x1="29.75" y1="6.2" x2="31.25" y2="8.8" gradientTransform="matrix(1,0,0,1,0,0)" xlink:href="#linear-gradient-7"/>
    <linearGradient id="linear-gradient-41" x1="38.75" y1="7.2" x2="40.25" y2="9.8" gradientTransform="matrix(1,0,0,1,0,0)" xlink:href="#linear-gradient-7"/>
    <linearGradient id="linear-gradient-42" x1="20.75" y1="7.2" x2="22.25" y2="9.8" gradientTransform="matrix(1,0,0,1,0,0)" xlink:href="#linear-gradient-7"/>
    <linearGradient id="linear-gradient-43" x1="36.75" y1="35.2" x2="38.25" y2="37.8" gradientTransform="matrix(1,0,0,1,0,0)" xlink:href="#linear-gradient-7"/>
    <linearGradient id="linear-gradient-44" x1="34.75" y1="43.2" x2="36.25" y2="45.8" gradientTransform="matrix(1,0,0,1,0,0)" xlink:href="#linear-gradient-7"/>
    <linearGradient id="linear-gradient-45" x1="28.75" y1="36.2" x2="30.25" y2="38.8" gradientTransform="matrix(1,0,0,1,0,0)" xlink:href="#linear-gradient-7"/>
    <linearGradient id="linear-gradient-46" x1="26.75" y1="30.2" x2="28.25" y2="32.8" gradientTransform="matrix(1,0,0,1,0,0)" xlink:href="#linear-gradient-7"/>
    <linearGradient id="linear-gradient-47" x1="41.75" y1="41.2" x2="43.25" y2="43.8" gradientTransform="matrix(1,0,0,1,0,0)" xlink:href="#linear-gradient-7"/>
    <linearGradient id="linear-gradient-48" x1="38.75" y1="49.2" x2="40.25" y2="51.8" gradientTransform="matrix(1,0,0,1,0,0)" xlink:href="#linear-gradient-7"/>
    <linearGradient id="linear-gradient-49" x1="39.75" y1="55.2" x2="41.25" y2="57.8" gradientTransform="matrix(1,0,0,1,0,0)" xlink:href="#linear-gradient-7"/>
    <linearGradient id="linear-gradient-50" x1="23.75" y1="54.2" x2="25.25" y2="56.8" gradientTransform="matrix(1,0,0,1,0,0)" xlink:href="#linear-gradient-7"/>
    <linearGradient id="linear-gradient-51" x1="46.75" y1="52.2" x2="48.25" y2="54.8" gradientTransform="matrix(1,0,0,1,0,0)" xlink:href="#linear-gradient-7"/>
    <radialGradient id="radial-gradient-2" cx="35.5" cy="13.5" fx="35.5" fy="13.5" r="2.5" gradientUnits="userSpaceOnUse">
      <stop offset="0" stop-color="#8cd7f5"/>
      <stop offset=".99" stop-color="#89d3f1" stop-opacity="0"/>
    </radialGradient>
    <radialGradient id="radial-gradient-3" cx="39.5" cy="8.5" fx="39.5" fy="8.5" xlink:href="#radial-gradient-2"/>
    <radialGradient id="radial-gradient-4" cx="24.5" fx="24.5" xlink:href="#radial-gradient-2"/>
    <radialGradient id="radial-gradient-5" cx="47.5" cy="53.5" fx="47.5" fy="53.5" xlink:href="#radial-gradient-2"/>
    <radialGradient id="radial-gradient-6" cx="39.5" cy="50.5" fx="39.5" fy="50.5" xlink:href="#radial-gradient-2"/>
    <radialGradient id="radial-gradient-7" cx="37.5" cy="36.5" fx="37.5" fy="36.5" xlink:href="#radial-gradient-2"/>
    <linearGradient id="linear-gradient-52" x1="6.64" y1="42.74" x2="50.96" y2="21.86" gradientUnits="userSpaceOnUse">
      <stop offset=".4" stop-color="#fff"/>
      <stop offset=".5" stop-color="#000"/>
    </linearGradient>
    <mask id="mask-1" x="5.5" y="4" width="50" height="55" maskUnits="userSpaceOnUse">
      <rect x="6" y="4.5" width="49" height="54" fill="url(#linear-gradient-52)" stroke="url(#linear-gradient-25)" stroke-miterlimit="10"/>
    </mask>
    <linearGradient id="linear-gradient-53" x1="24.26" y1="41.69" x2="33.71" y2="58.05" gradientTransform="matrix(1,0,0,1,0,0)" xlink:href="#linear-gradient-7"/>
  </defs>
  <g id="Virtual">
    <g opacity=".5">
      <polyline points="31.5 7.5 35.19 7.5 30.5 12.5" fill="none" opacity=".75" stroke="url(#linear-gradient-7)" stroke-miterlimit="10"/>
      <polyline points="36.66 22.5 34.5 31.5 25.5 27.5 32 37.5 31.5 44.5 24.5 36.5 25.5 27.5 36.66 22.5 30.5 12.5" fill="none" opacity=".75" stroke="url(#linear-gradient-8)" stroke-linejoin="round"/>
      <polygon points="30.5 12.5 25.5 27.5 25.5 8.5 30.5 12.5" fill="none" opacity=".75" stroke="url(#linear-gradient-9)" stroke-miterlimit="10"/>
      <circle cx="25.5" cy="27.5" r="1.5" fill="url(#linear-gradient-10)" stroke-width="0"/>
      <circle cx="30.5" cy="12.5" r="1.5" fill="url(#linear-gradient-11)" stroke-width="0"/>
      <circle cx="36.5" cy="22.5" r="1.5" fill="url(#linear-gradient-12)" stroke-width="0"/>
      <circle cx="25.5" cy="8.5" r="1.5" fill="url(#linear-gradient-13)" stroke-width="0"/>
      <circle cx="35.5" cy="7.5" r="1.5" fill="url(#linear-gradient-14)" stroke-width="0"/>
      <circle cx="39.5" cy="40.5" r="1.5" fill="url(#linear-gradient-15)" stroke-width="0"/>
      <circle cx="31.5" cy="44.5" r="1.5" fill="url(#linear-gradient-16)" stroke-width="0"/>
      <circle cx="32.5" cy="37.5" r="1.5" fill="url(#linear-gradient-17)" stroke-width="0"/>
      <circle cx="34.5" cy="31.5" r="1.5" fill="url(#linear-gradient-18)" stroke-width="0"/>
      <circle cx="43.5" cy="53.5" r="1.5" fill="url(#linear-gradient-19)" stroke-width="0"/>
      <circle cx="33.5" cy="56.5" r="1.5" fill="url(#linear-gradient-20)" stroke-width="0"/>
      <circle cx="37.5" cy="46.5" r="1.5" fill="url(#linear-gradient-21)" stroke-width="0"/>
      <circle cx="34.5" cy="51.5" r="1.5" fill="url(#linear-gradient-22)" stroke-width="0"/>
      <polyline points="43.5 53.5 33.5 56.5 34.5 51.5 31.5 44.5 37.5 47 39.5 40 32.5 37.5 34.5 31.5 39.5 40.5" fill="none" opacity=".75" stroke="url(#linear-gradient-23)" stroke-miterlimit="10"/>
      <polyline points="37.5 46.5 43.5 53.5 39.5 40.5" fill="none" opacity=".75" stroke="url(#linear-gradient-24)" stroke-linejoin="round"/>
    </g>
    <g mask="url(#mask)">
      <path d="M46.37,50.26s-9.87-20.32-9.87-21.18V11.5h1.38c.9,0,1.62-.73,1.62-1.62v-1.75c0-.9-.73-1.62-1.62-1.62h-14.75c-.9,0-1.62.73-1.62,1.62v1.75c0,.9.73,1.62,1.62,1.62h1.38v17.58c0,.86-10.87,20.18-10.87,20.18-1.12,2.23-1.13,2.83-1.13,3.9,0,2.39,1.94,4.33,4.33,4.33h13.67s12.54,0,12.54,0c1.62,0,3.18-.82,3.94-2.25.91-1.71-.48-4.75-.6-4.99Z" fill="none" stroke="#003755" stroke-linejoin="round"/>
    </g>
    <line x1="39.5" y1="50.5" x2="47.5" y2="53.5" fill="none" stroke="url(#linear-gradient-26)" stroke-miterlimit="10"/>
    <g>
      <polyline points="25.34 22.5 27.5 31.5 36.5 27.5 30 37.5 35.5 44.5 37.5 36.5 36.5 27.5 25.34 22.5 30.5 17.5 24.5 13.5 30.5 7.5 21.81 8.5 24.5 13.5 25.5 22.5" fill="none" opacity=".75" stroke="url(#linear-gradient-27)" stroke-linejoin="round"/>
      <polygon points="29.67 37.5 20.5 38.5 27.5 31.5 29.67 37.5" fill="none" opacity=".75" stroke="url(#linear-gradient-28)" stroke-miterlimit="10"/>
      <g opacity=".75">
        <path d="M33.19,8.76l4.55.52-2.2,2.61-2.35-3.13M31,7.5l4.5,6,4.21-5-8.71-1h0Z" fill="url(#linear-gradient-29)" stroke-width="0"/>
      </g>
      <polygon points="30.5 17.5 36.5 27.5 35.5 13.5 30.5 17.5" fill="none" opacity=".75" stroke="url(#linear-gradient-30)" stroke-miterlimit="10"/>
      <polyline points="40.5 56.5 39.5 50.5 42.5 42.5" fill="none" opacity=".75" stroke="url(#linear-gradient-31)" stroke-miterlimit="10"/>
      <line x1="37.5" y1="36.5" x2="42.5" y2="42.5" fill="none" opacity=".75" stroke="url(#linear-gradient-32)" stroke-miterlimit="10"/>
      <g opacity=".75">
        <path d="M35.36,46.4l2.56,3.6-9.91,3.48,7.35-7.07M35.5,44.88l-11.5,11.06,15.5-5.44-4-5.62h0Z" fill="url(#linear-gradient-33)" stroke-width="0"/>
      </g>
      <polyline points="47.5 53.5 40.5 56.5 24 55.5" fill="none" opacity=".75" stroke="url(#linear-gradient-34)" stroke-miterlimit="10"/>
      <circle cx="35.5" cy="13.5" r="1.5" fill="url(#linear-gradient-35)" stroke-width="0"/>
      <circle cx="36.5" cy="27.5" r="1.5" fill="url(#linear-gradient-36)" stroke-width="0"/>
      <circle cx="30.5" cy="17.5" r="1.5" fill="url(#linear-gradient-37)" stroke-width="0"/>
      <circle cx="24.5" cy="13.5" r="1.5" fill="url(#linear-gradient-38)" stroke-width="0"/>
      <circle cx="25.5" cy="22.5" r="1.5" fill="url(#linear-gradient-39)" stroke-width="0"/>
      <circle cx="30.5" cy="7.5" r="1.5" fill="url(#linear-gradient-40)" stroke-width="0"/>
      <circle cx="39.5" cy="8.5" r="1.5" fill="url(#linear-gradient-41)" stroke-width="0"/>
      <circle cx="21.5" cy="8.5" r="1.5" fill="url(#linear-gradient-42)" stroke-width="0"/>
      <circle cx="37.5" cy="36.5" r="1.5" fill="url(#linear-gradient-43)" stroke-width="0"/>
      <circle cx="35.5" cy="44.5" r="1.5" fill="url(#linear-gradient-44)" stroke-width="0"/>
      <circle cx="29.5" cy="37.5" r="1.5" fill="url(#linear-gradient-45)" stroke-width="0"/>
      <circle cx="27.5" cy="31.5" r="1.5" fill="url(#linear-gradient-46)" stroke-width="0"/>
      <circle cx="42.5" cy="42.5" r="1.5" fill="url(#linear-gradient-47)" stroke-width="0"/>
      <circle cx="39.5" cy="50.5" r="1.5" fill="url(#linear-gradient-48)" stroke-width="0"/>
      <circle cx="40.5" cy="56.5" r="1.5" fill="url(#linear-gradient-49)" stroke-width="0"/>
      <circle cx="24.5" cy="55.5" r="1.5" fill="url(#linear-gradient-50)" stroke-width="0"/>
      <circle cx="47.5" cy="53.5" r="1.5" fill="url(#linear-gradient-51)" stroke-width="0"/>
      <circle cx="35.5" cy="13.5" r="2.5" fill="url(#radial-gradient-2)" stroke-width="0"/>
      <circle cx="39.5" cy="8.5" r="2.5" fill="url(#radial-gradient-3)" stroke-width="0"/>
      <circle cx="24.5" cy="13.5" r="2.5" fill="url(#radial-gradient-4)" stroke-width="0"/>
      <circle cx="47.5" cy="53.5" r="2.5" fill="url(#radial-gradient-5)" stroke-width="0"/>
      <circle cx="39.5" cy="50.5" r="2.5" fill="url(#radial-gradient-6)" stroke-width="0"/>
      <circle cx="37.5" cy="36.5" r="2.5" fill="url(#radial-gradient-7)" stroke-width="0"/>
    </g>
    <g mask="url(#mask-1)">
      <g>
        <path d="M46.37,50.26s-9.87-20.32-9.87-21.18V11.5h1.38c.9,0,1.62-.73,1.62-1.62v-1.75c0-.9-.73-1.62-1.62-1.62h-14.75c-.9,0-1.62.73-1.62,1.62v1.75c0,.9.73,1.62,1.62,1.62h1.38v17.58c0,.86-10.87,20.18-10.87,20.18-1.13,2.24-1.13,2.83-1.13,3.91,0,2.39,1.94,4.33,4.33,4.33h26.35c2.39,0,4.33-1.94,4.33-4.33,0-1.08-.4-2.11-1.13-2.91Z" fill="url(#linear-gradient)" stroke="#003755" stroke-linejoin="round"/>
        <path d="M22,43l-4.34,9c-1.03,1.16-.21,3,1.35,3h19.99v-12s-3-4-7,0c-6.08,6.08-10,0-10,0Z" fill="url(#linear-gradient-53)" stroke-width="0"/>
        <path d="M27,32s-8,18-9,20,1,3,1,3h-1.73c-2.19,0-3.45-2.48-2.16-4.25l10.89-20.75v-4l1,6Z" fill="#fff" opacity=".5" stroke-width="0"/>
      </g>
    </g>
  </g>
  <g id="Companion">
    <rect x="40.5" y="32.5" width="11" height="25" rx="2" ry="2" fill="#fff" opacity=".5" stroke="#fff" stroke-linejoin="round" stroke-width="3"/>
    <rect x="40.5" y="32.5" width="11" height="25" rx="2" ry="2" fill="url(#linear-gradient-5)" stroke="#323232" stroke-linejoin="round"/>
    <circle cx="46" cy="45" r="2.5" fill="url(#linear-gradient-6)" stroke="#963200" stroke-linejoin="round"/>
    <circle cx="46" cy="37" r="2.5" fill="url(#linear-gradient-4)" stroke="#831300" stroke-linejoin="round"/>
    <circle cx="46" cy="53" r="2.5" fill="url(#linear-gradient-2)" stroke="url(#linear-gradient-3)" stroke-linejoin="round"/>
  </g>
</svg>