<?xml version="1.0" encoding="UTF-8"?><svg xmlns="http://www.w3.org/2000/svg" xmlns:xlink="http://www.w3.org/1999/xlink" viewBox="0 0 64 64"><defs><linearGradient id="linear-gradient" x1="40.28" y1="36.1" x2="51.72" y2="55.9" gradientUnits="userSpaceOnUse"><stop offset="0" stop-color="#fff"/><stop offset="1" stop-color="#d4d5d3"/></linearGradient><linearGradient id="linear-gradient-2" x1="23.54" y1="32.2" x2="28.16" y2="40.19" gradientTransform="translate(.15 3.3)" gradientUnits="userSpaceOnUse"><stop offset="0" stop-color="#3287af"/><stop offset="1" stop-color="#285a78"/></linearGradient><linearGradient id="linear-gradient-3" x1="23.75" y1="40.48" x2="28.36" y2="48.48" gradientTransform="translate(14.36 2.96) scale(.47 1)" xlink:href="#linear-gradient-2"/><linearGradient id="linear-gradient-4" x1="42.42" y1="47.83" x2="47.04" y2="55.83" gradientTransform="translate(15.75 -12.87) scale(.4 1)" xlink:href="#linear-gradient-2"/><linearGradient id="linear-gradient-5" x1="13.39" y1="13.84" x2="18.01" y2="21.84" gradientTransform="translate(46.84 11.8) rotate(90) scale(.43 1)" xlink:href="#linear-gradient-2"/><linearGradient id="linear-gradient-6" x1="7.64" y1="6.9" x2="12.25" y2="14.9" gradientTransform="translate(15.86 9.02) scale(.45 1)" xlink:href="#linear-gradient-2"/><linearGradient id="linear-gradient-7" x1="22.66" y1="22.6" x2="27.27" y2="30.6" gradientTransform="translate(32.02 -6.74) scale(.33 1)" xlink:href="#linear-gradient-2"/><linearGradient id="linear-gradient-8" x1="1.97" y1="23.64" x2="6.58" y2="31.64" gradientTransform="translate(51.66 25.55) rotate(90) scale(.53 1)" xlink:href="#linear-gradient-2"/><linearGradient id="linear-gradient-9" x1="17.78" y1="46.19" x2="22.39" y2="54.18" gradientTransform="translate(-8.63 50.42) rotate(-90) scale(.6 1)" xlink:href="#linear-gradient-2"/><linearGradient id="linear-gradient-10" x1="-6.34" y1="47.88" x2="-1.72" y2="55.88" gradientTransform="translate(-.11 51.5) rotate(-90) scale(.35 1)" xlink:href="#linear-gradient-2"/><linearGradient id="linear-gradient-11" x1="33.35" y1="50.53" x2="37.97" y2="58.53" gradientTransform="translate(65.23 95.26) rotate(-180) scale(.35 1)" xlink:href="#linear-gradient-2"/><linearGradient id="linear-gradient-12" x1="-36.83" y1="62.35" x2="-32.21" y2="70.34" gradientTransform="translate(-16.43 8.81) rotate(-90) scale(.35 1)" xlink:href="#linear-gradient-2"/><linearGradient id="linear-gradient-13" x1="-51.55" y1="73.65" x2="-46.94" y2="81.65" gradientTransform="translate(40.76 88.05) rotate(-180) scale(.24 1)" xlink:href="#linear-gradient-2"/><linearGradient id="linear-gradient-14" x1="-48.96" y1="20.94" x2="-44.35" y2="28.94" gradientTransform="translate(25.99 6.28) scale(.3 1)" xlink:href="#linear-gradient-2"/><linearGradient id="linear-gradient-15" x1="-53.64" y1="15.02" x2="-49.02" y2="23.01" gradientTransform="translate(30.06 39.72) rotate(90) scale(.28 1)" xlink:href="#linear-gradient-2"/><linearGradient id="linear-gradient-16" x1="-62.72" y1="10.73" x2="-58.1" y2="18.73" gradientTransform="translate(28.77 38.3) rotate(90) scale(.28 1)" xlink:href="#linear-gradient-2"/><radialGradient id="radial-gradient" cx="34.17" cy="26.67" fx="34.17" fy="26.67" r="8" gradientUnits="userSpaceOnUse"><stop offset="0" stop-color="#8cd7f5"/><stop offset="1" stop-color="#376e8c"/></radialGradient><radialGradient id="radial-gradient-2" cx="16.75" cy="25.83" fx="16.75" fy="25.83" r="4.5" xlink:href="#radial-gradient"/><radialGradient id="radial-gradient-3" cx="23.5" cy="10.67" fx="23.5" fy="10.67" r="5.5" xlink:href="#radial-gradient"/><radialGradient id="radial-gradient-4" cx="17.75" cy="47.67" fx="17.75" fy="47.67" r="6.5" xlink:href="#radial-gradient"/><radialGradient id="radial-gradient-5" cx="33.38" cy="45" fx="33.38" fy="45" r="4" gradientUnits="userSpaceOnUse"><stop offset="0" stop-color="#8cd7f5"/><stop offset=".63" stop-color="#5492b0"/><stop offset="1" stop-color="#376e8c"/></radialGradient><radialGradient id="radial-gradient-6" cx="46.75" fx="46.75" r="6.5" xlink:href="#radial-gradient-5"/><radialGradient id="radial-gradient-7" cx="54.42" cy="54.88" fx="54.42" fy="54.88" r="2" xlink:href="#radial-gradient-5"/><radialGradient id="radial-gradient-8" cx="55.42" cy="37.88" fx="55.42" fy="37.88" r="2" xlink:href="#radial-gradient-5"/><radialGradient id="radial-gradient-9" cx="51.42" cy="22.88" fx="51.42" fy="22.88" r="2" xlink:href="#radial-gradient-5"/><radialGradient id="radial-gradient-10" cx="55.42" cy="7.88" fx="55.42" fy="7.88" r="2" xlink:href="#radial-gradient-5"/><radialGradient id="radial-gradient-11" cx="8.42" cy="23.88" fx="8.42" fy="23.88" r="2" xlink:href="#radial-gradient-5"/><radialGradient id="radial-gradient-12" cx="12.42" cy="17.88" fx="12.42" fy="17.88" r="2" xlink:href="#radial-gradient-5"/><radialGradient id="radial-gradient-13" cx="9.42" cy="32.88" fx="9.42" fy="32.88" r="2" xlink:href="#radial-gradient-5"/><radialGradient id="radial-gradient-14" cx="45.5" cy="12.31" fx="45.5" fy="12.31" r="6" xlink:href="#radial-gradient"/><linearGradient id="linear-gradient-17" x1="46" y1="51" x2="46" y2="41.77" gradientUnits="userSpaceOnUse"><stop offset="0" stop-color="#fff"/><stop offset="1" stop-color="#000"/></linearGradient></defs><g id="Layer_1"><rect x="18.5" y="38.5" width="15" height="2" transform="translate(-21.21 36.75) rotate(-53.31)" fill="url(#linear-gradient-2)"/><rect x="23.02" y="46.43" width="7" height="2" transform="translate(-8.36 5.76) rotate(-10.72)" fill="url(#linear-gradient-3)"/><rect x="30.52" y="37.96" width="5.95" height="2" transform="translate(-6.88 70.73) rotate(-87.5)" fill="url(#linear-gradient-4)"/><rect x="28" y="15.3" width="2" height="6.4" transform="translate(-5.31 20.9) rotate(-36.53)" fill="url(#linear-gradient-5)"/><rect x="16.95" y="18.92" width="6.69" height="2" transform="translate(-5.93 30.9) rotate(-67.17)" fill="url(#linear-gradient-6)"/><rect x="37.83" y="18.86" width="4.99" height="2" transform="translate(-.43 38.81) rotate(-51.17)" fill="url(#linear-gradient-7)"/><rect x="23.02" y="23.84" width="2" height="7.96" transform="translate(-6.19 48.76) rotate(-83.93)" fill="url(#linear-gradient-8)"/><rect x="40.56" y="34" width="2" height="8.93" transform="translate(-13.67 25.93) rotate(-30)" fill="url(#linear-gradient-9)"/><rect x="50.77" y="50.3" width="2" height="5.18" transform="translate(-21.93 46.09) rotate(-40.34)" fill="url(#linear-gradient-10)"/><rect x="50.33" y="39.73" width="5.18" height="2" transform="translate(-13.78 43.94) rotate(-40.34)" fill="url(#linear-gradient-11)"/><rect x="48.92" y="18.14" width="2" height="5.18" transform="translate(-3.68 27.74) rotate(-30)" fill="url(#linear-gradient-12)"/><rect x="50.94" y="9.4" width="3.66" height="2" transform="translate(1.87 27.78) rotate(-30)" fill="url(#linear-gradient-13)"/><rect x="9.91" y="30.22" width="4.45" height="2" transform="translate(-14.64 11.09) rotate(-31.83)" fill="url(#linear-gradient-14)"/><rect x="10.04" y="23.05" width="2" height="4.25" transform="translate(-16.45 25.58) rotate(-67.17)" fill="url(#linear-gradient-15)"/><rect x="13.04" y="19.05" width="2" height="4.25" transform="translate(-6.95 6.86) rotate(-22.17)" fill="url(#linear-gradient-16)"/><circle cx="34.5" cy="28.5" r="8" fill="url(#radial-gradient)" stroke="#003755" stroke-linejoin="round"/><circle cx="17" cy="27" r="4.5" fill="url(#radial-gradient-2)" stroke="#003755" stroke-linejoin="round"/><circle cx="24" cy="12" r="5.5" fill="url(#radial-gradient-3)" stroke="#003755" stroke-linejoin="round"/><circle cx="18" cy="49" r="6.5" fill="url(#radial-gradient-4)" stroke="#003755" stroke-linejoin="round"/><circle cx="33.5" cy="45.5" r="4" fill="url(#radial-gradient-5)" stroke="#003755" stroke-linejoin="round"/><circle cx="47" cy="47" r="6.5" fill="url(#radial-gradient-6)" stroke="#003755" stroke-linejoin="round"/><circle cx="54.5" cy="55.5" r="2" fill="url(#radial-gradient-7)" stroke="#003755" stroke-linejoin="round"/><circle cx="55.5" cy="38.5" r="2" fill="url(#radial-gradient-8)" stroke="#003755" stroke-linejoin="round"/><circle cx="51.5" cy="23.5" r="2" fill="url(#radial-gradient-9)" stroke="#003755" stroke-linejoin="round"/><circle cx="55.5" cy="8.5" r="2" fill="url(#radial-gradient-10)" stroke="#003755" stroke-linejoin="round"/><circle cx="8.5" cy="24.5" r="2" fill="url(#radial-gradient-11)" stroke="#003755" stroke-linejoin="round"/><circle cx="12.5" cy="18.5" r="2" fill="url(#radial-gradient-12)" stroke="#003755" stroke-linejoin="round"/><circle cx="9.5" cy="33.5" r="2" fill="url(#radial-gradient-13)" stroke="#003755" stroke-linejoin="round"/><circle cx="45.5" cy="13.5" r="6" fill="url(#radial-gradient-14)" stroke="#003755" stroke-linejoin="round"/></g><g id="Layer_3"><g><g><path d="M53.86,50.25c0,.3,.05,.59,.16,.87,.11,.28,.28,.54,.52,.77l.8,.8c-.74,1.03-1.62,1.92-2.65,2.65l-.8-.8c-.23-.24-.49-.41-.77-.52-.28-.11-.57-.16-.87-.16-.31,0-.61,.05-.89,.16-.28,.11-.53,.27-.75,.48-.22,.21-.4,.46-.53,.75s-.2,.61-.2,.95v1.13c-.31,.05-.63,.09-.94,.12-.31,.03-.63,.05-.94,.05s-.63-.01-.94-.05c-.31-.03-.63-.07-.94-.12v-1.13c0-.34-.07-.66-.2-.95-.13-.29-.31-.54-.53-.75s-.47-.37-.76-.48c-.29-.11-.58-.16-.88-.16s-.59,.05-.87,.16c-.28,.11-.54,.28-.77,.52l-.8,.8c-1.03-.74-1.92-1.62-2.65-2.65l.8-.8c.23-.24,.41-.49,.52-.77,.11-.28,.16-.57,.16-.87s-.06-.59-.16-.88-.27-.54-.48-.76c-.21-.22-.46-.39-.75-.53-.29-.13-.61-.2-.95-.2h-1.13c-.05-.31-.09-.63-.12-.94-.03-.31-.05-.63-.05-.94s.01-.63,.05-.94c.03-.31,.07-.63,.12-.94h1.13c.34,0,.66-.07,.95-.2,.29-.13,.54-.31,.75-.53,.21-.22,.37-.47,.48-.75,.11-.28,.16-.58,.16-.89s-.06-.59-.16-.87-.28-.54-.52-.77l-.8-.8c.74-1.03,1.62-1.92,2.65-2.65l.8,.8c.23,.24,.49,.41,.77,.52,.28,.11,.57,.16,.87,.16s.59-.05,.88-.16c.29-.11,.54-.27,.76-.48s.39-.46,.53-.74c.13-.28,.2-.6,.2-.96v-1.13c.31-.05,.63-.09,.94-.12,.31-.03,.63-.05,.94-.05s.63,.02,.94,.05c.31,.03,.63,.07,.94,.12v1.13c0,.36,.07,.69,.2,.97,.13,.29,.31,.54,.53,.74,.22,.2,.47,.36,.75,.47,.28,.11,.58,.16,.89,.16,.28,0,.57-.05,.86-.15,.29-.1,.55-.27,.79-.5l.8-.82c1.03,.74,1.92,1.62,2.65,2.65l-.8,.8c-.23,.24-.41,.49-.52,.77-.11,.28-.16,.57-.16,.87,0,.31,.05,.61,.16,.89,.11,.28,.27,.53,.48,.75,.21,.22,.46,.39,.74,.53,.28,.13,.6,.2,.96,.2h1.13c.05,.31,.09,.63,.12,.94,.03,.31,.05,.63,.05,.94s-.02,.63-.05,.94c-.03,.31-.07,.63-.12,.94h-1.13c-.36,0-.68,.07-.96,.2-.28,.13-.53,.31-.74,.53-.21,.22-.37,.47-.48,.76-.11,.29-.16,.58-.16,.88Zm-7.86-.75c.48,0,.93-.09,1.36-.28s.8-.44,1.11-.75c.32-.32,.57-.69,.75-1.11,.18-.43,.28-.88,.28-1.36s-.09-.93-.28-1.36c-.19-.43-.44-.8-.75-1.11-.32-.32-.69-.57-1.11-.75s-.88-.28-1.36-.28-.93,.09-1.36,.28c-.43,.19-.8,.44-1.11,.75-.32,.32-.57,.69-.75,1.11-.18,.43-.28,.88-.28,1.36s.09,.93,.28,1.36c.19,.43,.44,.8,.75,1.11,.32,.32,.69,.57,1.11,.75,.43,.19,.88,.28,1.36,.28Z" fill="#fff" opacity=".7" stroke="#fff" stroke-linejoin="round" stroke-width="3"/><path d="M53.86,50.25c0,.3,.05,.59,.16,.87,.11,.28,.28,.54,.52,.77l.8,.8c-.74,1.03-1.62,1.92-2.65,2.65l-.8-.8c-.23-.24-.49-.41-.77-.52-.28-.11-.57-.16-.87-.16-.31,0-.61,.05-.89,.16-.28,.11-.53,.27-.75,.48-.22,.21-.4,.46-.53,.75s-.2,.61-.2,.95v1.13c-.31,.05-.63,.09-.94,.12-.31,.03-.63,.05-.94,.05s-.63-.01-.94-.05c-.31-.03-.63-.07-.94-.12v-1.13c0-.34-.07-.66-.2-.95-.13-.29-.31-.54-.53-.75s-.47-.37-.76-.48c-.29-.11-.58-.16-.88-.16s-.59,.05-.87,.16c-.28,.11-.54,.28-.77,.52l-.8,.8c-1.03-.74-1.92-1.62-2.65-2.65l.8-.8c.23-.24,.41-.49,.52-.77,.11-.28,.16-.57,.16-.87s-.06-.59-.16-.88-.27-.54-.48-.76c-.21-.22-.46-.39-.75-.53-.29-.13-.61-.2-.95-.2h-1.13c-.05-.31-.09-.63-.12-.94-.03-.31-.05-.63-.05-.94s.01-.63,.05-.94c.03-.31,.07-.63,.12-.94h1.13c.34,0,.66-.07,.95-.2,.29-.13,.54-.31,.75-.53,.21-.22,.37-.47,.48-.75,.11-.28,.16-.58,.16-.89s-.06-.59-.16-.87-.28-.54-.52-.77l-.8-.8c.74-1.03,1.62-1.92,2.65-2.65l.8,.8c.23,.24,.49,.41,.77,.52,.28,.11,.57,.16,.87,.16s.59-.05,.88-.16c.29-.11,.54-.27,.76-.48s.39-.46,.53-.74c.13-.28,.2-.6,.2-.96v-1.13c.31-.05,.63-.09,.94-.12,.31-.03,.63-.05,.94-.05s.63,.02,.94,.05c.31,.03,.63,.07,.94,.12v1.13c0,.36,.07,.69,.2,.97,.13,.29,.31,.54,.53,.74,.22,.2,.47,.36,.75,.47,.28,.11,.58,.16,.89,.16,.28,0,.57-.05,.86-.15,.29-.1,.55-.27,.79-.5l.8-.82c1.03,.74,1.92,1.62,2.65,2.65l-.8,.8c-.23,.24-.41,.49-.52,.77-.11,.28-.16,.57-.16,.87,0,.31,.05,.61,.16,.89,.11,.28,.27,.53,.48,.75,.21,.22,.46,.39,.74,.53,.28,.13,.6,.2,.96,.2h1.13c.05,.31,.09,.63,.12,.94,.03,.31,.05,.63,.05,.94s-.02,.63-.05,.94c-.03,.31-.07,.63-.12,.94h-1.13c-.36,0-.68,.07-.96,.2-.28,.13-.53,.31-.74,.53-.21,.22-.37,.47-.48,.76-.11,.29-.16,.58-.16,.88Zm-7.86-.75c.48,0,.93-.09,1.36-.28s.8-.44,1.11-.75c.32-.32,.57-.69,.75-1.11,.18-.43,.28-.88,.28-1.36s-.09-.93-.28-1.36c-.19-.43-.44-.8-.75-1.11-.32-.32-.69-.57-1.11-.75s-.88-.28-1.36-.28-.93,.09-1.36,.28c-.43,.19-.8,.44-1.11,.75-.32,.32-.57,.69-.75,1.11-.18,.43-.28,.88-.28,1.36s.09,.93,.28,1.36c.19,.43,.44,.8,.75,1.11,.32,.32,.69,.57,1.11,.75,.43,.19,.88,.28,1.36,.28Z" fill="url(#linear-gradient)" stroke="#323232" stroke-linejoin="round"/></g><g opacity=".2"><path d="M38.44,40.7c.07,.18,.12,.37,.15,.56,.03-.17,.05-.34,.05-.51,0-.36-.07-.71-.2-1.05-.13-.34-.34-.66-.63-.95l-.02-.02c-.16,.18-.32,.34-.47,.53l.49,.49c.28,.28,.49,.6,.63,.95Z"/><path d="M53.56,39.7c-.13,.34-.2,.69-.2,1.05,0,.17,.02,.34,.05,.51,.03-.19,.08-.38,.15-.56,.13-.34,.34-.66,.63-.94l.49-.49c-.15-.19-.31-.36-.47-.53l-.03,.03c-.28,.29-.5,.6-.63,.94Z"/><path d="M56.96,45.89c-.02,.16-.04,.33-.06,.49h-.69c-.44,0-.83,.08-1.18,.25-.34,.16-.63,.37-.89,.63-.26,.27-.46,.58-.59,.93-.13,.34-.2,.7-.2,1.06,0,.17,.02,.33,.05,.5,.03-.19,.08-.37,.15-.55,.13-.35,.33-.66,.59-.93,.25-.26,.55-.47,.89-.63,.34-.16,.74-.25,1.18-.25h.69c.02-.16,.04-.33,.06-.49,.03-.3,.04-.59,.04-.89,0-.17-.02-.33-.02-.5,0,.13,0,.26-.02,.39Z"/><path d="M38.44,49.19c.07,.18,.12,.37,.15,.55,.03-.16,.05-.33,.05-.5,0-.35-.07-.71-.2-1.06-.13-.35-.33-.67-.59-.93-.25-.26-.56-.48-.9-.63-.35-.16-.74-.25-1.16-.25h-.69c-.02-.16-.04-.33-.06-.49-.01-.13-.01-.26-.02-.39,0,.17-.02,.33-.02,.5,0,.3,.01,.59,.04,.89,.02,.16,.04,.33,.06,.49h.69c.42,0,.81,.08,1.16,.25,.35,.16,.65,.37,.9,.63,.26,.27,.46,.58,.59,.93Z"/><path d="M52.74,53.68l-.49-.49c-.28-.29-.6-.5-.95-.63-.69-.27-1.47-.26-2.12,0-.34,.13-.65,.33-.92,.59-.26,.26-.48,.56-.64,.9-.16,.35-.25,.74-.25,1.16v.69c-.16,.02-.33,.04-.49,.05-.59,.06-1.18,.06-1.78,0-.16-.02-.32-.03-.49-.05v-.69c0-.41-.08-.8-.25-1.16-.16-.34-.37-.65-.64-.9-.27-.26-.58-.46-.93-.59-.69-.26-1.44-.26-2.11,0-.35,.13-.67,.35-.95,.63l-.49,.49c-.54-.42-1.02-.9-1.48-1.41l-.47,.47c.56,.73,1.22,1.38,1.95,1.95l.49-.49c.28-.28,.6-.5,.95-.63,.67-.26,1.42-.26,2.11,0,.35,.13,.66,.33,.93,.59,.26,.26,.48,.56,.64,.9,.16,.36,.25,.75,.25,1.16v.69c.16,.02,.32,.04,.49,.05,.6,.06,1.18,.06,1.78,0,.16-.02,.33-.03,.49-.05v-.69c0-.42,.08-.81,.25-1.16,.16-.34,.37-.65,.64-.9,.27-.26,.58-.46,.92-.59,.66-.26,1.43-.27,2.12,0,.34,.13,.66,.34,.95,.63l.49,.49c.73-.56,1.38-1.22,1.95-1.95l-.47-.47c-.45,.51-.94,.99-1.48,1.41Z"/></g><g opacity=".3"><path d="M53.56,42.82c-.07-.18-.12-.37-.15-.56-.03,.16-.05,.33-.05,.49,0,.38,.07,.74,.2,1.07,.13,.34,.33,.65,.59,.92,.25,.26,.55,.47,.89,.63,.35,.16,.74,.25,1.18,.25h.69c.02,.16,.04,.33,.06,.49,.01,.13,.01,.26,.02,.39,0-.17,.02-.33,.02-.5,0-.3-.01-.59-.04-.89-.02-.16-.04-.33-.06-.49h-.69c-.43,0-.83-.08-1.18-.25-.34-.16-.63-.37-.89-.63-.26-.27-.46-.58-.59-.92Z" fill="#fff"/><path d="M39.26,38.32l.49,.49c.28,.29,.6,.5,.95,.63,.68,.26,1.42,.26,2.11,0,.35-.13,.67-.33,.94-.59,.26-.25,.47-.55,.63-.88,.17-.35,.25-.75,.25-1.18v-.69c.16-.02,.33-.04,.49-.05,.59-.06,1.18-.06,1.78,0,.16,.01,.32,.03,.49,.05v.69c0,.43,.08,.83,.25,1.18,.16,.35,.38,.65,.64,.9,.27,.25,.57,.44,.91,.57,.64,.25,1.38,.27,2.1,.02,.36-.13,.69-.33,.98-.63l.49-.51c.54,.42,1.02,.9,1.47,1.41l.47-.47c-.56-.73-1.21-1.38-1.94-1.94l-.49,.51c-.29,.29-.62,.5-.98,.63-.71,.25-1.45,.23-2.1-.02-.34-.13-.64-.32-.91-.57-.26-.24-.48-.54-.64-.9-.16-.35-.25-.75-.25-1.18v-.69c-.16-.02-.32-.04-.49-.05-.6-.06-1.19-.06-1.78,0-.17,.02-.33,.03-.49,.05v.69c0,.43-.08,.83-.25,1.18-.16,.33-.37,.63-.63,.88-.27,.26-.58,.46-.94,.59-.68,.26-1.43,.26-2.11,0-.34-.13-.66-.34-.95-.63l-.49-.49c-.73,.56-1.38,1.22-1.95,1.95l.47,.47c.45-.51,.94-.99,1.48-1.41Z" fill="#fff"/><path d="M53.56,51.3c-.07-.18-.12-.36-.15-.55-.03,.17-.05,.33-.05,.5,0,.36,.07,.71,.2,1.05,.13,.34,.34,.66,.63,.95l.02,.02c.16-.18,.32-.34,.47-.53l-.49-.49c-.29-.29-.5-.6-.63-.95Z" fill="#fff"/><path d="M38.44,52.3c.13-.34,.2-.69,.2-1.05,0-.17-.02-.34-.05-.5-.03,.19-.08,.37-.15,.55-.13,.35-.34,.66-.63,.95l-.49,.49c.14,.19,.31,.36,.47,.53l.03-.03c.28-.28,.49-.6,.63-.95Z" fill="#fff"/><path d="M35.04,46.11c.02-.16,.04-.33,.06-.49h.69c.41,0,.8-.08,1.16-.25,.35-.16,.65-.37,.9-.63,.26-.27,.45-.58,.59-.92,.13-.34,.2-.7,.2-1.07,0-.17-.02-.33-.05-.49-.03,.19-.08,.38-.15,.56-.13,.34-.33,.65-.59,.92-.25,.26-.56,.48-.9,.63-.36,.16-.75,.25-1.16,.25h-.69c-.02,.16-.04,.33-.06,.49-.03,.3-.04,.59-.04,.89,0,.17,.02,.33,.02,.5,0-.13,0-.26,.02-.39Z" fill="#fff"/></g><path d="M46,41c-2.76,0-5,2.24-5,5s2.24,5,5,5,5-2.24,5-5-2.24-5-5-5Zm0,9c-2.21,0-4-1.79-4-4s1.79-4,4-4,4,1.79,4,4-1.79,4-4,4Z" fill="url(#linear-gradient-17)" opacity=".3"/></g></g></svg>