<?xml version="1.0" encoding="UTF-8"?>
<svg id="VERSION___ok_01_OKOK___x2A__x2A__x2A__x2A__x2A__copy" xmlns="http://www.w3.org/2000/svg" version="1.1" xmlns:xlink="http://www.w3.org/1999/xlink" viewBox="0 0 64 64">
  <!-- Generator: Adobe Illustrator 29.6.1, SVG Export Plug-In . SVG Version: 2.1.1 Build 9)  -->
  <defs>
    <style>
      .st0 {
        fill: #5a9ab8;
      }

      .st0, .st1 {
        opacity: .6;
      }

      .st2 {
        fill: #82bddb;
        opacity: .9;
      }

      .st3, .st4, .st5, .st6, .st7, .st8 {
        isolation: isolate;
      }

      .st3, .st4, .st8 {
        opacity: .3;
      }

      .st9 {
        fill: url(#linear-gradient1);
        stroke: #787979;
      }

      .st9, .st10, .st11 {
        stroke-linejoin: round;
      }

      .st12 {
        fill: #aadcfa;
      }

      .st12, .st13, .st6, .st7, .st14 {
        opacity: .5;
      }

      .st4, .st15, .st5, .st13, .st6, .st16 {
        fill: #fff;
      }

      .st17 {
        fill: #003755;
      }

      .st5 {
        opacity: .2;
      }

      .st1 {
        fill: #f5fcff;
      }

      .st10 {
        stroke: #323232;
      }

      .st10, .st11 {
        fill: none;
      }

      .st18 {
        fill: url(#linear-gradient4);
      }

      .st16 {
        opacity: .4;
      }

      .st7 {
        fill: #646565;
      }

      .st19 {
        fill: url(#linear-gradient3);
      }

      .st11 {
        stroke: #053755;
      }

      .st20 {
        fill: url(#linear-gradient);
      }

      .st8 {
        fill: url(#linear-gradient2);
      }
    </style>
    <linearGradient id="linear-gradient" x1="25.1" y1="-32.4" x2="28.4" y2="-29.1" gradientTransform="translate(0 18) scale(1 -1)" gradientUnits="userSpaceOnUse">
      <stop offset="0" stop-color="#a39f9f"/>
      <stop offset=".2" stop-color="#ddd"/>
      <stop offset=".4" stop-color="#c6c6c5"/>
      <stop offset=".7" stop-color="#f5f5f5"/>
      <stop offset="1" stop-color="#bebebe"/>
    </linearGradient>
    <linearGradient id="linear-gradient1" x1="12.3" y1="-12.7" x2="23.2" y2="-31.6" gradientTransform="translate(0 18) scale(1 -1)" gradientUnits="userSpaceOnUse">
      <stop offset="0" stop-color="#fff"/>
      <stop offset="1" stop-color="#d2d2d2"/>
    </linearGradient>
    <linearGradient id="linear-gradient2" x1="12.9" y1="-13.8" x2="22.7" y2="-30.6" gradientTransform="translate(0 18) scale(1 -1)" gradientUnits="userSpaceOnUse">
      <stop offset="0" stop-color="#000"/>
      <stop offset="1" stop-color="#fff"/>
    </linearGradient>
    <linearGradient id="linear-gradient3" x1="27.8" y1="-29.9" x2="33.4" y2="-39.6" gradientTransform="translate(0 18) scale(1 -1)" gradientUnits="userSpaceOnUse">
      <stop offset="0" stop-color="#8dd7f4"/>
      <stop offset="1" stop-color="#386e8c"/>
    </linearGradient>
    <linearGradient id="linear-gradient4" x1="28.2" y1="-30.6" x2="32.8" y2="-38.6" gradientTransform="translate(0 18) scale(1 -1)" gradientUnits="userSpaceOnUse">
      <stop offset="0" stop-color="#8dd7f4"/>
      <stop offset=".3" stop-color="#8bd4f1"/>
      <stop offset=".4" stop-color="#83cbe8"/>
      <stop offset=".6" stop-color="#76bbd8"/>
      <stop offset=".8" stop-color="#64a4c2"/>
      <stop offset=".9" stop-color="#4d88a6"/>
      <stop offset="1" stop-color="#386e8c"/>
    </linearGradient>
  </defs>
  <g id="Layer_18_copy_8">
    <g>
      <polygon id="Fond_Blanc___x2A__x2A__x2A_" class="st13" points="34.5 45.2 17.5 47.1 6.3 45.6 6.3 13.7 17.5 7.7 34.5 14.2 34.5 45.2"/>
      <polygon id="Fond_01" class="st12" points="34.5 45.2 17.5 47.1 6.3 45.6 6.3 13.7 17.5 7.7 34.5 14.2 34.5 45.2"/>
      <polygon id="ombre__x2A__x2A__x2A__x2A_" class="st0" points="33.9 45.3 17.5 47.1 17.5 7.7 23.7 10.1 33.9 45.3"/>
      <path id="REFLET___x2A__x2A__x2A__x2A_" class="st1" d="M31.8,43.3c-8.2-10.9-27.3-15.4-15.5-12.1s8.4.6,6.4-2.1c-3.2-4.3-14.6-11.1-10.1-1.7-2.6-3.3-4.3-7.4-4.3-12.6,8.6,13.7,7.1-3,9.1,2.6,4,5.3,14.4,26,14.4,26Z"/>
      <g>
        <polygon points="17.7 44.9 7.1 43.3 17.7 44.3 17.7 42.4 33.7 42.3 17.7 44.9"/>
        <polygon points="17.7 39.9 7.1 38.7 17.7 39.2 17.7 37.3 33.7 38.5 17.7 39.9"/>
        <polygon points="17.7 34.5 7.1 34.2 17.7 33.9 17.7 31.9 33.7 34.2 17.7 34.5"/>
        <polygon points="17.7 29.3 7.1 29.6 17.7 28.7 17.7 26.8 33.8 30.5 17.7 29.3"/>
        <polygon points="17.7 24.2 7.1 25.2 17.7 23.5 17.7 21.6 33.8 26 17.7 24.2"/>
        <polygon points="17.7 18.8 7.1 20.7 17.7 18.2 17.7 16.3 33.9 21.4 17.7 18.8"/>
        <polygon points="17.7 13.6 7.1 16.3 17.7 12.9 17.7 10.9 33.9 17.3 17.7 13.6"/>
      </g>
      <g id="Immeuble_01_contour___Ok">
        <path class="st17" d="M17.5,8.6l16.2,6.1v29.8l-16.3,1.9-10.3-1.5V14.1l10.4-5.5M17.4,7.5l-11.3,6v32.3l11.3,1.6,17.3-2V14l-17.3-6.5h0Z"/>
      </g>
    </g>
  </g>
  <g id="Immeuble_02__x2A__x2A__x2A__copy_2">
    <g id="Layer_18_copy_81" data-name="Layer_18_copy_8">
      <polygon id="Fond_Blanc___x2A__x2A__x2A__x2A_" class="st13" points="58.5 54.8 45.5 56.8 38 55.1 38 12.9 45.5 6.7 58.5 15.4 58.5 54.8"/>
      <polygon class="st2" points="57.8 54.8 45.4 57 45.4 7.2 57.8 15.7 57.8 54.8"/>
      <polygon class="st0" points="58.3 54.9 45.4 56.9 38.6 55.4 38.6 24.4 45.6 49.4 58.3 54.9"/>
      <polygon class="st0" points="58.3 54.9 45.4 56.9 45.6 49.4 58.3 54.9"/>
      <g>
        <polygon class="st17" points="45.6 56.5 38.5 54.8 45.6 55.7 45.6 53.9 57.8 54.3 45.6 56.5"/>
        <polygon class="st17" points="45.6 50.2 38.5 49.7 45.6 49.4 45.6 47.7 57.8 49.9 45.6 50.2"/>
        <polygon class="st17" points="45.6 44.6 38.5 44.9 45.6 43.8 45.6 42.1 57.8 45.2 45.6 44.6"/>
        <polygon class="st17" points="45.6 38.9 38.5 40 45.6 38.1 45.6 36.3 57.8 40.3 45.6 38.9"/>
        <polygon class="st17" points="45.6 33.1 38.5 35 45.6 32.3 45.6 30.6 57.8 35.4 45.6 33.1"/>
        <polygon class="st17" points="45.6 27.4 38.5 30 45.6 26.5 45.6 24.8 57.8 30.5 45.6 27.4"/>
        <polygon class="st17" points="45.6 21.6 38.5 25 45.6 20.8 45.6 19 57.8 25.7 45.6 21.6"/>
        <polygon class="st17" points="45.6 15.8 38.5 20.1 45.6 15 45.6 13.3 57.8 20.8 45.6 15.8"/>
        <polygon class="st17" points="45.6 10.1 38.5 15.1 45.6 9.3 45.6 7.5 57.8 15.7 45.6 10.1"/>
      </g>
    </g>
    <g id="Immeuble_01_contour___Ok1" data-name="Immeuble_01_contour___Ok">
      <path class="st17" d="M45.3,7.3l12.5,8.4v38.6l-12.3,2-7-1.6V13.5l6.8-6.2M45.2,6l-7.7,7v42.6l8,1.8,13.3-2.2V15.2l-13.6-9.1h0Z"/>
    </g>
  </g>
  <circle class="st16" cx="17.8" cy="40.3" r="8.2"/>
  <g>
    <g class="st14">
      <path class="st15" d="M33.3,57.7c-.6,0-1.2-.2-1.7-.7l-6.3-6.4-1.1-1.1c-1.9,1.3-4.1,2-6.4,2-6.2,0-11.3-5-11.3-11.3,0-6.2,5-11.3,11.3-11.3,6.2,0,11.3,5,11.3,11.3,0,2.1-.6,4.2-1.7,6l1.2,1.2,6.4,6.3c.9.9.9,2.4,0,3.4-.5.5-1.1.7-1.7.7ZM17.8,32c-4.5,0-8.2,3.7-8.2,8.2s3.7,8.2,8.2,8.2,8.2-3.7,8.2-8.2c0-4.5-3.7-8.2-8.2-8.2Z"/>
      <path class="st15" d="M17.8,29.3c6,0,10.9,4.9,10.9,10.9,0,2.1-.6,4.2-1.8,6l1.4,1.4,6.4,6.3c.8.8.8,2,0,2.8-.8.8-2,.8-2.8,0l-6.3-6.4-1.3-1.3c-4.9,3.6-11.7,2.5-15.2-2.3-3.6-4.9-2.5-11.7,2.3-15.2,1.9-1.4,4.1-2.1,6.5-2.1M17.8,48.8c4.7,0,8.6-3.8,8.6-8.6s-3.8-8.6-8.6-8.6-8.6,3.8-8.6,8.6,3.8,8.6,8.6,8.6M17.8,28.5c-6.5,0-11.7,5.2-11.7,11.7s5.2,11.7,11.7,11.7c2.3,0,4.5-.7,6.4-1.9l.9.9,6.3,6.4c.5.5,1.2.8,2,.8,1.5,0,2.8-1.2,2.8-2.7,0-.7-.3-1.5-.8-2l-6.4-6.3-1-1c3.2-5.6,1.4-12.7-4.2-16-1.8-1-3.8-1.6-5.9-1.6ZM17.8,48c-4.3,0-7.8-3.5-7.8-7.8s3.5-7.8,7.8-7.8,7.8,3.5,7.8,7.8c0,4.3-3.5,7.8-7.8,7.8Z"/>
    </g>
    <g>
      <path class="st20" d="M26.7,51.5l-2.7-2.7,2.7-2.7,2.7,2.7-2.7,2.7Z"/>
      <polygon class="st3" points="26.7 50.2 25 48.4 24.6 48.8 26.7 50.9 28.9 48.8 28.5 48.4 26.7 50.2"/>
      <polygon class="st4" points="26.7 47.4 28.5 49.1 28.9 48.8 26.7 46.6 24.6 48.8 25 49.1 26.7 47.4"/>
      <path class="st7" d="M27.4,47.2l-.6-.6-2.2,2.2.9.9c.7-.7,1.4-1.5,1.9-2.4Z"/>
    </g>
    <g>
      <circle class="st5" cx="17.8" cy="40.2" r="9.7"/>
      <path class="st9" d="M17.8,29.3c-6,0-10.9,4.9-10.9,10.9s4.9,10.9,10.9,10.9,10.9-4.9,10.9-10.9-4.9-10.9-10.9-10.9ZM17.8,48.8c-4.7,0-8.6-3.8-8.6-8.6s3.8-8.6,8.6-8.6,8.6,3.8,8.6,8.6-3.8,8.6-8.6,8.6Z"/>
      <path class="st4" d="M23.7,41.3h0c-.6-.2-1.3.1-1.6.7-.5.9-1.2,1.6-2.1,2.1-.6.3-.9,1-.7,1.6h0c.2.8,1,1.2,1.8,1,.1,0,.2,0,.3-.1,1.4-.7,2.5-1.9,3.2-3.2.4-.7.1-1.6-.6-1.9,0,0-.2,0-.3-.1Z"/>
      <path class="st6" d="M10.4,40.3h2.8c0-2.8,2.3-5.1,5.1-5.1v-2.8c-4.4,0-7.9,3.5-7.9,7.9Z"/>
      <path class="st8" d="M17.8,30.5c-5.4,0-9.7,4.4-9.7,9.7s4.4,9.7,9.7,9.7,9.7-4.4,9.7-9.7-4.4-9.7-9.7-9.7ZM17.8,49.1c-4.9,0-9-4-9-9s4-9,9-9,9,4,9,9c0,4.9-4,8.9-9,9Z"/>
    </g>
    <path class="st10" d="M29.5,48.8l-2.6-2.6c3.3-5.1,2-11.9-3.1-15.2-5.1-3.3-11.9-2-15.2,3.1-3.3,5.1-2,11.9,3.1,15.2,3.8,2.5,8.8,2.4,12.5-.3l2.5,2.5,2.7-2.7Z"/>
    <g>
      <path class="st19" d="M34.7,53.9l-6.4-6.3-2.7,2.7,6.3,6.4c.8.8,2.1.8,2.8,0,.8-.8.8-2,0-2.8Z"/>
      <path class="st11" d="M34.7,53.9l-6.4-6.3-2.7,2.7,6.3,6.4c.8.8,2.1.8,2.8,0,.8-.8.8-2,0-2.8Z"/>
      <path class="st3" d="M34.5,55.7c-.3.3-.7.5-1.1.5h0c-.4,0-.8-.2-1.1-.5l-5.7-5.8-.4.4,6.1,6.2c.3.3.7.5,1.1.5h0c.9,0,1.6-.7,1.6-1.5,0,0,0,0,0,0,0-.1,0-.3,0-.4,0,.3-.2.5-.4.7Z"/>
      <path class="st4" d="M28.3,48.9l6.2,6.1c.2.2.3.5.4.7,0-.1,0-.3,0-.4,0-.4-.2-.8-.5-1.1l-6.2-6.1-2.2,2.2.4.4,1.8-1.8Z"/>
      <path class="st18" d="M33.7,54.6l-1.6-1.6-4.3-4.3-1.2,1.2,5.8,5.8c.4.4.4.4.8.4.4,0,.8-.3.8-.7,0,0,0,0,0,0,0-.3-.2-.6-.4-.8Z"/>
    </g>
  </g>
</svg>