<?xml version="1.0" encoding="UTF-8"?><svg id="Layer_9" xmlns="http://www.w3.org/2000/svg" xmlns:xlink="http://www.w3.org/1999/xlink" viewBox="0 0 64 64"><defs><style>.cls-1{fill:#797979;}.cls-2{fill:url(#white_left-2);}.cls-3,.cls-4{fill:#fff;}.cls-5{fill:#aadcfa;}.cls-5,.cls-4{opacity:.5;}.cls-6{fill:url(#white_left);}.cls-6,.cls-7,.cls-8{fill-rule:evenodd;}.cls-9{fill:#abdbf5;}.cls-10{fill:#003755;}.cls-11{fill:#82bddb;opacity:.92;}.cls-12,.cls-7{fill:none;}.cls-13{fill:#f5fcff;}.cls-13,.cls-14{opacity:.56;}.cls-7{stroke:#000;stroke-miterlimit:10;stroke-width:.75px;}.cls-14{fill:#5a9ab8;}.cls-8{fill:#f1f0f0;}</style><linearGradient id="white_left" x1="11.26" y1="47.93" x2="37.54" y2="47.93" gradientUnits="userSpaceOnUse"><stop offset="0" stop-color="#f5f5f5"/><stop offset="1" stop-color="#bebebe"/></linearGradient><linearGradient id="white_left-2" x1="12.23" y1="51.61" x2="34.03" y2="51.61" xlink:href="#white_left"/></defs><g id="VERSION_ok_01_OKOK_copy_3"><g id="Layer_18_copy_11"><polygon id="Fond_Blanc_" class="cls-4" points="34.46 45.12 17.47 47.04 6.27 45.56 6.27 13.68 17.47 7.68 34.46 14.13 34.46 45.12"/><polygon id="Fond_01" class="cls-5" points="34.46 45.12 17.47 47.04 6.27 45.56 6.27 13.68 17.47 7.68 34.46 14.13 34.46 45.12"/><polygon id="ombre_" class="cls-14" points="33.87 45.18 17.47 47.04 17.47 7.68 23.7 10.06 33.87 45.18"/><path id="REFLET_" class="cls-13" d="m31.83,43.23c-8.17-10.91-27.27-15.45-15.52-12.13,4.5,1.27,8.39.59,6.39-2.11-3.22-4.35-14.61-11.07-10.08-1.74-2.59-3.33-4.28-7.38-4.28-12.61,8.55,13.71,7.09-3.04,9.13,2.6,4.01,5.33,14.36,25.98,14.36,25.98Z"/><polygon points="17.68 44.87 7.1 43.25 17.68 44.25 17.68 42.31 33.67 42.21 17.68 44.87"/><polygon points="17.68 39.79 7.1 38.61 17.68 39.18 17.68 37.24 33.7 38.42 17.68 39.79"/><polygon points="17.68 34.42 7.1 34.08 17.68 33.81 17.68 31.87 33.73 34.14 17.68 34.42"/><polygon points="17.68 29.25 7.1 29.54 17.68 28.63 17.68 26.7 33.76 30.45 17.68 29.25"/><polygon points="17.68 24.08 7.1 25.11 17.68 23.46 17.68 21.52 33.79 25.97 17.68 24.08"/><polygon points="17.68 18.74 7.1 20.64 17.68 18.12 17.68 16.18 33.85 21.3 17.68 18.74"/><polygon points="17.68 13.49 7.1 16.27 17.68 12.87 17.68 10.83 33.91 17.23 17.68 13.49"/><g id="Immeuble_01_contour_Ok"><path class="cls-10" d="m17.5,8.54l16.25,6.1v29.81l-16.31,1.88-10.33-1.46V14.05l10.39-5.51m-.07-1.09l-11.32,6v32.29l11.32,1.6,17.32-2V13.95l-17.32-6.5h0Z"/></g></g><g id="Immeuble_02_copy_4"><g id="Layer_18_copy_10"><polygon id="Fond_Blanc_-2" class="cls-4" points="58.49 54.79 45.45 56.79 38.01 55.11 38.01 12.95 45.45 6.74 58.49 15.38 58.49 54.79"/><polygon class="cls-11" points="57.84 54.83 45.41 57.04 45.41 7.23 57.84 15.66 57.84 54.83"/><polygon class="cls-14" points="58.34 54.95 45.44 56.94 38.57 55.37 38.57 24.4 45.57 49.42 58.34 54.95"/><polygon class="cls-14" points="58.34 54.95 45.44 56.94 45.57 49.42 58.34 54.95"/><polygon class="cls-10" points="45.6 56.49 38.46 54.79 45.6 55.68 45.6 53.94 57.82 54.31 45.6 56.49"/><polygon class="cls-10" points="45.6 50.22 38.46 49.73 45.6 49.42 45.6 47.67 57.82 49.88 45.6 50.22"/><polygon class="cls-10" points="45.6 44.63 38.46 44.93 45.6 43.83 45.6 42.08 57.82 45.17 45.6 44.63"/><polygon class="cls-10" points="45.6 38.87 38.46 39.96 45.6 38.07 45.6 36.32 57.82 40.29 45.6 38.87"/><polygon class="cls-10" points="45.6 33.11 38.46 34.99 45.6 32.31 45.6 30.56 57.82 35.42 45.6 33.11"/><polygon class="cls-10" points="45.6 27.35 38.46 30.02 45.6 26.55 45.6 24.8 57.82 30.54 45.6 27.35"/><polygon class="cls-10" points="45.6 21.59 38.46 25.05 45.6 20.79 45.6 19.04 57.82 25.66 45.6 21.59"/><polygon class="cls-10" points="45.6 15.83 38.46 20.07 45.6 15.02 45.6 13.28 57.82 20.78 45.6 15.83"/><polygon class="cls-10" points="45.6 10.07 38.46 15.1 45.6 9.26 45.6 7.52 57.82 15.7 45.6 10.07"/></g><g id="Immeuble_01_contour_Ok-2"><path class="cls-10" d="m45.32,7.34l12.5,8.39v38.63l-12.27,2.03-7.02-1.57V13.54l6.79-6.2m-.1-1.3l-7.72,7.04v42.57l8.02,1.79,13.32-2.21V15.19l-13.62-9.15h0Z"/></g></g><path class="cls-3" d="m39.25,51.88c.02-.18.04-.36.04-.57.03-.54.26-5.95-3.49-9.98-2.6-2.79-6.44-4.21-11.41-4.21-9.76,0-12.8,7.1-12.92,7.4l-.73,1.89,12.27,2.41,9.97,6.78h5.2c1.1,0,2-.94,2-2.04,0-.71-.37-1.33-.93-1.69Z"/><g id="Layer_8_copy_3"><rect id="cadre_32_ok_" class="cls-12" x="6.54" y="37.41" width="32" height="20" transform="translate(45.07 94.83) rotate(-180)"/><g id="serrs_tete_"><path class="cls-3" d="m23.75,54.58l9.94,1.5c.95,0,1.72-.66,1.72-1.72h0c0-.95-.77-1.72-1.72-1.72l-9.94-1.5c-.95,0-1.72.77-1.72,1.72h0c0,.95.77,1.72,1.72,1.72Z"/><path class="cls-1" d="m23.76,54.42c3.32.43,6.65.85,9.98,1.31h-.05c.37,0,.74-.14.98-.39.84-.82.18-2.44-1.04-2.37-3.26-.52-6.73-1.12-9.89-1.66-2.08.02-2.11,3.1.01,3.11h0Zm-.02.31c-1.57.02-2.46-2.09-1.31-3.19.34-.36.84-.58,1.35-.57,3.24.44,6.87.89,9.91,1.33,1.79-.07,2.79,2.31,1.48,3.55-.41.4-.99.6-1.53.57-3.3-.54-6.59-1.12-9.9-1.69h0Z"/></g><g id="fond_Bleu_claire_"><path class="cls-8" d="m11.4,51.96l-3.1.85c-.45.11-.76.51-.76.97v.62s9.4,0,12.67,0h16.33c.55,0,1-.36,1-.92,0-.39-.45-.66-1-.66h0c-.55,0-.42-1.57-.42-2.12,0,0,.79-10.96-11.58-10.96-7.67,0-10,5.65-10,5.65l-2.49,6.05c-.13.26-.37.45-.65.52Z"/></g><g id="color_BLEU_"><path class="cls-6" d="m14.64,52.25l-2.72.75-.65.9v.5s8.23,0,11.08,0h14.09c.48,0,1.09-.4,1.09-.89,0,0-.39-.5-.88-.5h0c-.48,0-.9-1.38-.9-1.87,0,0,1.23-9.66-9.61-9.66-6.71,0-8.76,4.98-8.76,4.98l-2.18,5.33c-.11.23-.32.4-.57.46Z"/></g><g id="bord_reflet_"><polygon class="cls-9" points="15.33 50.81 12.23 52.41 34.03 52.41 15.33 50.81"/><polygon class="cls-2" points="15.33 50.81 12.23 52.41 34.03 52.41 15.33 50.81 15.33 50.81"/></g><path class="cls-3" d="m33.24,51.92c-.55-.05-1.34-.11-2.28-.14-.47-.02-.98-.02-1.52-.02-.54,0-1.11.22-1.7.24-1.18.01-13.76.46-13.76.46,0,0,12.58.03,13.76.05.59.02,1.16.25,1.7.25.54,0,1.05,0,1.52-.01.94-.03,1.73-.08,2.28-.13.55-.05.87-.09.87-.09,0,0-.31-.55-.86-.6Z"/><path class="cls-3" d="m19.51,43.81c2.08-1.71,3.02-1.85,4.79-2.19,2.53-.49,5.49.3,5.49.3,0,0-1.13-1.17-4.68-1.15-3.87.02-5.11,1.81-6.3,3.11-.38.42-.84,1.31-1.17,2.03.33-.56.89-1.29,1.87-2.09Z"/><path id="PROFIL_contour_noir_" class="cls-7" d="m11.4,51.96l-3.1.85c-.45.11-.76.51-.76.97v.62s29,0,29,0c.55,0,1.01-.41,1-.88s-.45-.7-1-.7h0c-.55,0-.42-1.57-.42-2.12,0,0,.79-10.96-11.58-10.96-7.67,0-10,5.65-10,5.65l-2.49,6.05c-.13.26-.37.45-.65.52Z"/><g id="_3_PTs_"><circle class="cls-3" cx="30.16" cy="46.71" r=".66"/><circle class="cls-3" cx="26.66" cy="46.71" r=".66"/><circle class="cls-3" cx="23.16" cy="46.71" r=".66"/><path d="m30.57,46.83c0,.31-.1.44-.41.44s-.56-.25-.56-.56c0-.31.37-.27.5-.27.16,0,.47.08.47.39Zm-.41-.87c-.41,0-.75.34-.75.75,0,.41.34.75.75.75s.75-.34.75-.75c0-.41-.34-.75-.75-.75h0Z"/><path d="m27.07,46.83c0,.31-.1.44-.41.44s-.56-.25-.56-.56c0-.31.37-.27.5-.27.16,0,.47.08.47.39Zm-.41-.87c-.41,0-.75.34-.75.75,0,.41.34.75.75.75s.75-.34.75-.75c0-.41-.34-.75-.75-.75h0Z"/><path d="m23.57,46.83c0,.31-.1.44-.41.44s-.56-.25-.56-.56c0-.31.37-.27.5-.27.16,0,.47.08.47.39Zm-.41-.87c-.41,0-.75.34-.75.75,0,.41.34.75.75.75s.75-.34.75-.75c0-.41-.34-.75-.75-.75h0Z"/></g></g></g></svg>