<?xml version="1.0" encoding="UTF-8"?>
<svg xmlns="http://www.w3.org/2000/svg" xmlns:xlink="http://www.w3.org/1999/xlink" viewBox="0 0 64 64">
  <defs>
    <linearGradient id="a" x1="19.25" y1="9.91" x2="44.75" y2="54.09" gradientUnits="userSpaceOnUse">
      <stop offset="0" stop-color="#8cd7f5"/>
      <stop offset="1" stop-color="#376e8c"/>
    </linearGradient>
    <linearGradient id="c" x1="30" y1="55.28" x2="35.44" y2="55.28" gradientUnits="userSpaceOnUse">
      <stop offset="0" stop-color="#464646"/>
      <stop offset="1" stop-color="#141414"/>
    </linearGradient>
    <filter id="h" x="6" y="6" width="52" height="52" color-interpolation-filters="sRGB" filterUnits="userSpaceOnUse">
      <feColorMatrix result="cm" values="-1 0 0 0 1 0 -1 0 0 1 0 0 -1 0 1 0 0 0 1 0"/>
    </filter>
    <radialGradient id="i" cx="49.61" cy="43.04" fx="49.61" fy="43.04" r="40.03" gradientTransform="translate(28.6 -25) rotate(25.95) scale(.97 1.21)" gradientUnits="userSpaceOnUse">
      <stop offset=".34" stop-color="#fff"/>
      <stop offset=".41" stop-color="#efefef"/>
      <stop offset=".54" stop-color="#c7c7c7"/>
      <stop offset=".72" stop-color="#858585"/>
      <stop offset=".94" stop-color="#2c2c2c"/>
      <stop offset="1" stop-color="#141414"/>
    </radialGradient>
    <mask id="g" data-name="mask" x="6" y="6" width="52" height="52" maskUnits="userSpaceOnUse">
      <g filter="url(#h)">
        <circle cx="32" cy="32" r="26" fill="url(#i)"/>
      </g>
    </mask>
    <radialGradient id="j" data-name="Nouvelle nuance de dégradé 1" cx="24.03" cy="26.04" fx="24.03" fy="26.04" r="26.66" gradientTransform="translate(4.88 1.87) scale(.94)" gradientUnits="userSpaceOnUse">
      <stop offset="0" stop-color="#000" stop-opacity="0"/>
      <stop offset="1" stop-color="#000"/>
    </radialGradient>
    <linearGradient id="k" data-name="Dégradé sans nom 26" x1="45.06" y1="18.29" x2="40.44" y2="33.54" gradientUnits="userSpaceOnUse">
      <stop offset=".09" stop-color="#fff" stop-opacity=".6"/>
      <stop offset=".34" stop-color="#fff" stop-opacity=".41"/>
      <stop offset=".64" stop-color="#fff" stop-opacity=".19"/>
      <stop offset=".87" stop-color="#fff" stop-opacity=".05"/>
      <stop offset="1" stop-color="#fff" stop-opacity="0"/>
    </linearGradient>
    <linearGradient id="l" data-name="Nouvelle nuance de dégradé 2" x1="25.53" y1="14" x2="18.39" y2="37.56" gradientUnits="userSpaceOnUse">
      <stop offset=".09" stop-color="#fff" stop-opacity=".6"/>
      <stop offset=".2" stop-color="#fff" stop-opacity=".57"/>
      <stop offset=".37" stop-color="#fff" stop-opacity=".49"/>
      <stop offset=".57" stop-color="#fff" stop-opacity=".37"/>
      <stop offset=".79" stop-color="#fff" stop-opacity=".19"/>
      <stop offset="1" stop-color="#fff" stop-opacity="0"/>
    </linearGradient>
    <radialGradient id="m" data-name="Dégradé sans nom 22" cx="25.87" cy="16.78" fx="25.87" fy="16.78" r="8.59" gradientTransform="translate(.88 -.59) scale(1.05)" gradientUnits="userSpaceOnUse">
      <stop offset="0" stop-color="#fff" stop-opacity=".6"/>
      <stop offset=".13" stop-color="#fff" stop-opacity=".52"/>
      <stop offset=".73" stop-color="#fff" stop-opacity=".15"/>
      <stop offset="1" stop-color="#fff" stop-opacity="0"/>
    </radialGradient>
    <linearGradient id="o" data-name="Dégradé sans nom 4" x1="50.16" y1="32.4" x2="55.36" y2="37.6" gradientUnits="userSpaceOnUse">
      <stop offset=".12" stop-color="#aaa"/>
      <stop offset=".93" stop-color="#5a5a5a"/>
    </linearGradient>
    <linearGradient id="p" data-name="Dégradé sans nom 3" x1="49.2" y1="33.23" x2="54.79" y2="38.99" gradientUnits="userSpaceOnUse">
      <stop offset=".11" stop-color="#f5f5f5"/>
      <stop offset=".83" stop-color="#bebebe"/>
    </linearGradient>
    <linearGradient id="q" data-name="Dégradé sans nom 2" x1="32.07" y1="49.7" x2="37.21" y2="55.91" gradientUnits="userSpaceOnUse">
      <stop offset=".28" stop-color="#fff"/>
      <stop offset=".8" stop-color="#d4d5d3"/>
    </linearGradient>
    <linearGradient id="r" x1="41.44" y1="40.91" x2="45.64" y2="45.44" xlink:href="#a"/>
  </defs>
  <g id="f" data-name="Appearance">
    <g mask="url(#g)">
      <g>
        <circle cx="32" cy="32" r="25.5" fill="url(#a)" stroke="#003755" stroke-linejoin="round"/>
        <path d="M32,7c-13.78,0-25,11.22-25,25s11.22,25,25,25,25-11.22,25-25S45.78,7,32,7Z" fill="url(#j)" opacity=".3"/>
        <path d="M49.57,22.48c-3.03-5.05-9.07-7.7-12.27-5.93s-2.97,7.92.06,12.96c3.03,5.05,6.56,8.81,9.76,7.04,3.2-1.78,5.47-9.03,2.44-14.08Z" fill="url(#k)" opacity=".4"/>
        <path d="M23.92,33.43c0-5.92,2.79-11.04,6.85-13.51,1.44-.87,1.62-2.91.54-4.2-.33-.39-.67-.77-1.03-1.13-1.74-1.75-4.51-2.13-6.58-.79-6.43,4.15-10.7,11.4-10.7,19.63,0,1.48.14,2.94.41,4.34s1.58,2.35,3,2.22c1.94-.19,3.81-.46,5.58-.85,1.41-.31,2.33-1.65,2.12-3.09-.13-.85-.19-1.73-.19-2.63Z" fill="url(#l)" opacity=".75"/>
        <circle cx="28" cy="17" r="9" fill="url(#m)"/>
      </g>
    </g>
  </g>
  <g id="n" data-name="Edit">
    <path d="M56.26,31.74c-1.66-1.66-4.34-1.66-6,0l-16.26,16.26-3.5,9.5,9.5-3.5,16.26-16.26c1.66-1.66,1.66-4.34,0-6Z" fill="#fff" opacity=".75" stroke="#fff" stroke-linejoin="round" stroke-width="3"/>
    <g>
      <path d="M56.26,31.74c-1.66-1.66-4.34-1.66-6,0l-3.76,3.76,6,6,3.76-3.76c1.66-1.66,1.66-4.34,0-6Z" fill="url(#o)"/>
      <path d="M47.5,34.5l2-2c3.41.93,5.07,2.59,6,6,0,0-2,2-2,2l-6-6Z" fill="url(#p)" stroke="#787878" stroke-linejoin="round"/>
      <path d="M56.26,31.74c-1.66-1.66-4.34-1.66-6,0l-3.76,3.76,6,6,3.76-3.76c1.66-1.66,1.66-4.34,0-6Z" fill="none" stroke="#323232" stroke-linejoin="round"/>
      <polygon points="34 48 30.5 57.5 40 54 42 52 36 46 34 48" fill="url(#q)" stroke="#323232" stroke-linejoin="round"/>
      <path d="M35.44,56.21l-4.77,1.76h-.03s-.09.03-.14.03c-.13,0-.26-.05-.35-.15-.13-.13-.18-.32-.13-.49v-.03s1.77-4.77,1.77-4.77c.24-.01.47,0,.7.04.7.11,1.39.44,1.93.98s.87,1.23.98,1.93c.04.23.05.46.04.7Z" fill="url(#c)"/>
      <path d="M34,48c3.41.93,5.07,2.59,6,6l13.5-13.5c-.93-3.41-2.59-5.07-6-6l-13.5,13.5Z" fill="url(#r)" stroke="#003755" stroke-linejoin="round"/>
    </g>
  </g>
</svg>