<?xml version="1.0" encoding="UTF-8"?>
<svg id="n" data-name="IT 2" xmlns="http://www.w3.org/2000/svg" xmlns:xlink="http://www.w3.org/1999/xlink" viewBox="0 0 64 64">
  <defs>
    <linearGradient id="a" x1="10.66" y1="44.4" x2="12.37" y2="47.36" gradientUnits="userSpaceOnUse">
      <stop offset="0" stop-color="#82bedc"/>
      <stop offset="1" stop-color="#285a78"/>
    </linearGradient>
    <linearGradient id="d" x1="10.65" y1="44.4" x2="12.35" y2="47.36" gradientUnits="userSpaceOnUse">
      <stop offset="0" stop-color="#aaa"/>
      <stop offset="1" stop-color="#5a5a5a"/>
    </linearGradient>
    <linearGradient id="h" x1="48.51" y1="34.74" x2="52.57" y2="41.77" gradientUnits="userSpaceOnUse">
      <stop offset="0" stop-color="#f5f5f5"/>
      <stop offset="1" stop-color="#bebebe"/>
    </linearGradient>
    <linearGradient id="l" x1="28.5" y1="28.12" x2="33.44" y2="36.67" gradientUnits="userSpaceOnUse">
      <stop offset="0" stop-color="#fff"/>
      <stop offset="1" stop-color="#f0f0f0"/>
    </linearGradient>
    <mask id="p" data-name="mask" x="7" y="7" width="50" height="50" maskUnits="userSpaceOnUse">
      <rect x="32" y="7" width="25" height="50" fill="#fff" stroke-width="0"/>
    </mask>
    <linearGradient id="r" x1="50.13" y1="29.47" x2="54.55" y2="29.47" gradientUnits="userSpaceOnUse">
      <stop offset="0" stop-color="#8cd7f5"/>
      <stop offset="1" stop-color="#376e8c"/>
    </linearGradient>
    <linearGradient id="s" data-name="Dégradé sans nom 21" x1="55.52" y1="39" x2="8.4" y2="39" gradientUnits="userSpaceOnUse">
      <stop offset="0" stop-color="#d2d2d2"/>
      <stop offset=".02" stop-color="#dcdcdc"/>
      <stop offset=".08" stop-color="#f5f5f5"/>
      <stop offset=".12" stop-color="#fff"/>
      <stop offset=".57" stop-color="#d2d2d2"/>
      <stop offset=".88" stop-color="#fff"/>
      <stop offset="1" stop-color="#d2d2d2"/>
    </linearGradient>
    <linearGradient id="t" x1="41.39" y1="43.87" x2="32.52" y2="40.15" gradientUnits="userSpaceOnUse">
      <stop offset="0" stop-color="#d7d7d7"/>
      <stop offset="1" stop-color="#969696"/>
    </linearGradient>
    <linearGradient id="u" data-name="Dégradé sans nom 11" x1="33.81" y1="42.87" x2="27.98" y2="35.91" gradientUnits="userSpaceOnUse">
      <stop offset="0" stop-color="#82bedc"/>
      <stop offset=".16" stop-color="#74aecc"/>
      <stop offset=".48" stop-color="#5087a5"/>
      <stop offset=".79" stop-color="#285a78"/>
    </linearGradient>
    <linearGradient id="v" x1="39.6" y1="37.64" x2="27.01" y2="44.31" xlink:href="#r"/>
    <linearGradient id="w" x1="9.59" y1="38.67" x2="13.41" y2="38.67" xlink:href="#r"/>
    <linearGradient id="x" x1="10.66" y1="28.76" x2="12.4" y2="31.78" gradientUnits="userSpaceOnUse">
      <stop offset="0" stop-color="#a0e1fa"/>
      <stop offset="1" stop-color="#73c3e1"/>
    </linearGradient>
    <linearGradient id="y" x1="50.48" y1="18.52" x2="54.07" y2="18.52" xlink:href="#r"/>
    <linearGradient id="z" x1="51.58" y1="13.97" x2="53.32" y2="16.99" xlink:href="#x"/>
    <mask id="aa" data-name="mask-1" x="7" y="7" width="50" height="50" maskUnits="userSpaceOnUse">
      <rect x="7" y="7" width="24" height="50" fill="#fff" stroke-width="0"/>
    </mask>
    <linearGradient id="ac" data-name="Dégradé sans nom 22" x1="35.64" y1="43.9" x2="28.29" y2="36.96" gradientUnits="userSpaceOnUse">
      <stop offset="0" stop-color="#f5f5f5"/>
      <stop offset=".26" stop-color="#ececec"/>
      <stop offset=".65" stop-color="#d6d6d6"/>
      <stop offset="1" stop-color="#bebebe"/>
    </linearGradient>
    <linearGradient id="ad" x1="9" y1="18.5" x2="15" y2="18.5" gradientUnits="userSpaceOnUse">
      <stop offset="0" stop-color="#464646"/>
      <stop offset="1" stop-color="#141414"/>
    </linearGradient>
    <linearGradient id="ae" x1="8.32" y1="7.45" x2="10.68" y2="11.55" xlink:href="#r"/>
    <linearGradient id="af" x1="13.32" y1="13.45" x2="15.68" y2="17.55" xlink:href="#r"/>
    <linearGradient id="ag" x1="13.32" y1="19.45" x2="15.68" y2="23.55" xlink:href="#r"/>
    <linearGradient id="ah" x1="13.32" y1="25.45" x2="15.68" y2="29.55" xlink:href="#r"/>
  </defs>
  <g id="o" data-name="A - OK">
    <g mask="url(#p)">
      <g id="q" data-name="Part Feature Recognition">
        <path d="M46.69,35.79s4.12-1.17,5.81-1.29c2.7-.2,4,.72,4,2.5v2.5l-10.89,2.54,1.09-6.25Z" fill="url(#h)" stroke="#787878" stroke-linejoin="round"/>
        <g>
          <path d="M49.5,37.5v-15.38c.02-.21.91-.69,2.49-.69.18,0,.36,0,.55.02,1.29.09,2.34.66,2.77,1.16.16.18.19.3.19.35v14.54h-6Z" fill="url(#r)" stroke-width="0"/>
          <path d="M51.99,21.94c.17,0,.34,0,.51.02,1.34.09,2.32.77,2.49,1.07v13.97h-5v-14.67c.23-.15.89-.39,1.99-.39M51.99,20.94c-1.65,0-2.94.49-2.99,1.19v15.87h7v-15c.06-.78-1.51-1.91-3.43-2.04-.2-.01-.39-.02-.58-.02h0Z" fill="#003755" stroke-width="0"/>
        </g>
        <path d="M7.5,46.5v8c.37,1,1.64,2,3.5,2,2.95,0,6.1-2.49,9.1-3.7,4.6-1.86,20.69-4.8,34.81-10.17,1.57-.6,1.59-1.42,1.59-1.63v-4c0,1.28-1.08,1.73-1.08,1.73,0,0-7,2.02-7.4,2.02-1.14,0-1.31-1.18-1.31-1.18,0,0,.34-5,.51-7.37.17-2.37,2.03-2.97,2.03-2.97,0,0,2.69-1.1,4.72-1.61,2.04-.51,2.53-1.63,2.53-1.63v-4.5s-12.67.96-19.79,4.01c-7.12,3.05-19.07,15.85-19.07,15.85l-10.14,5.14Z" fill="url(#s)" stroke="#787878" stroke-linejoin="round"/>
        <path d="M40.52,22.04c-13.18,3.84-19.97,17.65-26.95,20.08-3.45,1.2-6.08,2.63-6.08,4.38,0,1,.34,2,3.5,2,5.72,0,4.33-4.01,17.91-14,13.77-10.14,12.46-7.36,26.25-11.78.96-.31,1.34-.67,1.34-1.22,0-.82-1.16-2-5-2-1.36,0-8.94,1.95-10.98,2.54Z" fill="url(#l)" stroke="#787878" stroke-linejoin="round"/>
        <path d="M7.5,46.5c0,1,.34,2,3.5,2,5.72,0,4.33-4.01,17.91-14,13.77-10.14,12.46-7.36,26.25-11.78.96-.31,1.34-.67,1.34-1.22" fill="none" stroke="#003755" stroke-linejoin="round"/>
        <path d="M43.5,30.5c0-.34-.24-1-1-1-4.48,0-23.99,15.73-23.99,19,0,.55.28,1,1,1l21.99-6s1.38-.42,1.39-2.39c.02-2.29.61-10.61.61-10.61Z" fill="url(#t)" stroke="#787878" stroke-linejoin="round"/>
        <path d="M18.54,48.35c.2,0,.41-.04.57-.1.42-.17,20.91-5.87,20.91-5.87,0,0,1.41-.27,1.5-1.88.09-1.61.28-10.83.28-10.83" fill="none" stroke="#787878" stroke-linejoin="round"/>
        <path d="M43.51,30.5c0-.34-.24-1-1-1-4.48,0-24,15.73-24,19,0,.55.28,1,1,1l22-6s1.37-.42,1.38-2.39c.02-2.29.62-10.61.62-10.61Z" fill="url(#u)" stroke="#003755" stroke-linejoin="round"/>
        <path d="M43.51,30.5s-.6,8.32-.62,10.61c-.01,1.97-1.38,2.39-1.38,2.39l-22,6c-.72,0-1-.45-1-1,0-.06.01-.12.02-.19.27-.02.51-.04.57-.07.43-.17,20.64-5.79,20.64-5.79,0,0,1.41-.27,1.5-1.88.07-1.32.44-8.49.53-10.97.28-.06.53-.1.74-.1.76,0,1,.66,1,1Z" fill="url(#v)" stroke="#003755" stroke-linejoin="round"/>
        <g>
          <path d="M11.45,46.83c-1.1,0-2.93-.24-2.93-1.83v-13.61l3.56-.89h2.44v14.5c0,.61-1.69,1.83-3.07,1.83Z" fill="url(#w)" stroke-width="0"/>
          <path d="M14.01,31v13.96c-.11.42-1.49,1.37-2.57,1.37-.91,0-2.43-.17-2.43-1.33v-13.22l3.12-.78h1.88M15.01,30h-3l-4,1v14c0,2,2.2,2.33,3.43,2.33,1.49,0,3.57-1.31,3.57-2.33v-15h0Z" fill="#003755" stroke-width="0"/>
        </g>
        <path d="M14.49,45.2c-.2-.81-1.69-1.16-3.34-.78-1.65.38-2.82,1.34-2.62,2.15.2.81,1.69,1.16,3.33.78,1.65-.38,2.82-1.34,2.62-2.15Z" fill="url(#a)" stroke="#003755" stroke-linejoin="round"/>
        <path d="M52.6,35.44c-1.66-.13-3.1.46-3.1,1.31s1.25,1.64,2.9,1.77c1.66.13,3.04-.46,3.09-1.31.05-.85-1.25-1.64-2.9-1.76Z" fill="url(#a)" stroke="#003755" stroke-linejoin="round"/>
        <g>
          <path d="M10.65,31.5c-1.16,0-2.06-.34-2.13-.8-.03-.16.09-.41.31-.67.59-.69,1.89-1.42,3.14-1.42,1.54,0,2.54.54,2.54,1.39s-.48.98-2.56,1.38c-.44.08-.88.12-1.3.12h0Z" fill="url(#x)" stroke-width="0"/>
          <path d="M11.98,29.11c1.2,0,2.04.36,2.04.89,0,.35,0,.48-2.15.88-.41.08-.82.12-1.21.12-1.02,0-1.53-.26-1.63-.37.15-.45,1.53-1.52,2.95-1.52M11.98,28.11c-1.98,0-4.12,1.6-3.95,2.67.13.8,1.25,1.22,2.63,1.22.45,0,.92-.04,1.39-.13,1.94-.37,2.96-.57,2.96-1.87,0-1.08-1.07-1.89-3.04-1.89h0Z" fill="#003755" stroke-width="0"/>
        </g>
        <g>
          <path d="M53.21,22.5c-.19,0-.38,0-.58-.02-1.68-.12-2.74-.67-2.99-1.05l-.14-.6v-4.94c.02-.31,1.22-1.34,2.89-1.34.08,0,.17,0,.26,0,1.33.09,2.34.59,2.71,1.02.11.13.14.22.14.27v5.04s-.01,1.17-.01,1.17c-.48.27-1.34.44-2.27.44h0Z" fill="url(#y)" stroke-width="0"/>
          <path d="M52.39,15.05c.07,0,.15,0,.22,0,1.35.09,2.21.63,2.38.87v4.95s0,.86,0,.86c-.39.15-1.01.27-1.78.27-.18,0-.36,0-.54-.02-1.41-.1-2.33-.53-2.56-.77l-.11-.44v-4.76c.2-.31,1.17-.96,2.39-.96M52.39,14.05c-1.78,0-3.34,1.1-3.39,1.84v5l.17.73c.35.67,1.73,1.24,3.43,1.36.21.01.41.02.61.02,1.22,0,2.26-.26,2.77-.68l.02-1.44v-5c.06-.78-1.41-1.7-3.32-1.83-.1,0-.19,0-.29,0h0Z" fill="#003755" stroke-width="0"/>
        </g>
        <path d="M56.5,41v-4c0-1.61-1.06-2.47-3.27-2.47-.35,0-1.43-.08-6.26,1.19.09-1.27.18-2.59.24-3.51.17-2.37,2.03-2.97,2.03-2.97,0,0,2.69-1.1,4.72-1.61,2.04-.51,2.53-1.63,2.53-1.63v-4.5c0-.82-1.14-2-4.99-2-1.36,0-8.96,1.95-10.99,2.54-13.18,3.84-19.97,17.65-26.95,20.08-3.45,1.2-6.08,2.63-6.08,4.38v8c.37,1,1.64,2,3.5,2,2.95,0,6.1-2.49,9.1-3.7,4.6-1.86,20.69-4.8,34.81-10.17,1.41-.54,1.59-1.33,1.59-1.63Z" fill="none" stroke="#323232" stroke-linejoin="round"/>
        <path d="M55.5,21.31c.05-.78-1.26-1.51-2.91-1.64-1.66-.13-3.04.39-3.08,1.17-.05.78,1.26,1.51,2.91,1.64,1.66.13,3.04-.39,3.08-1.17Z" fill="url(#a)" stroke="#003755" stroke-linejoin="round"/>
        <g>
          <path d="M52.84,16.54c-.15,0-.3,0-.46-.02-1.68-.11-2.75-.82-2.73-1.24.03-.36.96-.86,2.42-.86.15,0,.3,0,.45.02,1.68.11,2.75.82,2.72,1.23-.03.36-.95.86-2.41.86h0Z" fill="url(#z)" stroke-width="0"/>
          <path d="M52.07,14.93c.14,0,.28,0,.42.01,1.18.08,1.93.46,2.18.69-.23.16-.83.4-1.83.4-.14,0-.28,0-.42-.02-1.18-.08-1.92-.46-2.18-.69.24-.16.84-.4,1.84-.4M52.07,13.93c-1.6,0-2.86.56-2.91,1.32-.06.85,1.37,1.64,3.19,1.77.17.01.33.02.49.02,1.59,0,2.85-.56,2.91-1.33.06-.85-1.37-1.64-3.19-1.76-.17-.01-.33-.02-.49-.02h0Z" fill="#003755" stroke-width="0"/>
        </g>
      </g>
    </g>
    <g mask="url(#aa)">
      <g id="ab" data-name="Part Feature">
        <path d="M46.69,35.79s4.12-1.17,5.81-1.29c2.7-.2,4,.72,4,2.5v2.5l-10.89,2.54,1.09-6.25Z" fill="url(#h)" stroke="#787878" stroke-linejoin="round"/>
        <path d="M7.5,46.5v8c.37,1,1.64,2,3.5,2,2.95,0,6.1-2.49,9.1-3.7,4.6-1.86,20.69-4.8,34.81-10.17,1.57-.6,1.59-1.42,1.59-1.63v-4c0,1.28-1.08,1.73-1.08,1.73,0,0-7,2.02-7.4,2.02-1.14,0-1.31-1.18-1.31-1.18,0,0,.34-5,.51-7.37.17-2.37,2.03-2.97,2.03-2.97,0,0,2.69-1.1,4.72-1.61,2.04-.51,2.53-1.63,2.53-1.63v-4.5s-12.67.96-19.79,4.01c-7.12,3.05-19.07,15.85-19.07,15.85l-10.14,5.14Z" fill="url(#s)" stroke="#787878" stroke-linejoin="round"/>
        <path d="M40.52,22.04c-13.18,3.84-19.97,17.65-26.95,20.08-3.45,1.2-6.08,2.63-6.08,4.38,0,1,.34,2,3.5,2,5.72,0,4.33-4.01,17.91-14,13.77-10.14,12.46-7.36,26.25-11.78.96-.31,1.34-.67,1.34-1.22,0-.82-1.16-2-5-2-1.36,0-8.94,1.95-10.98,2.54Z" fill="url(#l)" stroke="#787878" stroke-linejoin="round"/>
        <path d="M43.5,30.5c0-.34-.24-1-1-1-4.48,0-23.99,15.73-23.99,19,0,.55.28,1,1,1l21.99-6s1.38-.42,1.39-2.39c.02-2.29.61-10.61.61-10.61Z" fill="url(#ac)" stroke="#787878" stroke-linejoin="round"/>
        <path d="M18.54,48.35c.2,0,.41-.04.57-.1.42-.17,20.91-5.87,20.91-5.87,0,0,1.41-.27,1.5-1.88.09-1.61.28-10.83.28-10.83" fill="none" stroke="#787878" stroke-linejoin="round"/>
        <path d="M14.48,45.2c-.2-.81-1.69-1.16-3.34-.78-1.65.38-2.82,1.34-2.62,2.15.2.81,1.69,1.16,3.33.78,1.65-.38,2.82-1.34,2.62-2.15Z" fill="url(#d)" stroke="#323232" stroke-linejoin="round"/>
        <path d="M52.61,35.44c-1.66-.13-3.04.46-3.1,1.31-.05.85,1.25,1.64,2.9,1.77,1.66.13,3.04-.46,3.09-1.31.05-.85-1.25-1.64-2.9-1.76Z" fill="url(#d)" stroke="#323232" stroke-linejoin="round"/>
        <path d="M56.5,41v-4c0-1.61-1.06-2.47-3.27-2.47-.35,0-1.43-.08-6.26,1.19.09-1.27.18-2.59.24-3.51.17-2.37,2.03-2.97,2.03-2.97,0,0,2.69-1.1,4.72-1.61,2.04-.51,2.53-1.63,2.53-1.63v-4.5c0-.82-1.14-2-4.99-2-1.36,0-8.96,1.95-10.99,2.54-13.18,3.84-19.97,17.65-26.95,20.08-3.45,1.2-6.08,2.63-6.08,4.38v8c.37,1,1.64,2,3.5,2,2.95,0,6.1-2.49,9.1-3.7,4.6-1.86,20.69-4.8,34.81-10.17,1.41-.54,1.59-1.33,1.59-1.63Z" fill="none" stroke="#323232" stroke-linejoin="round"/>
        <path d="M55.51,21.31c.05-.78-1.26-1.51-2.91-1.64-1.66-.13-3.04.39-3.08,1.17-.05.78,1.26,1.51,2.91,1.64,1.66.13,3.04-.39,3.08-1.17Z" fill="url(#d)" stroke="#323232" stroke-linejoin="round"/>
      </g>
    </g>
    <g>
      <g>
        <g opacity=".5">
          <path d="M9,28.5c-.28,0-.5-.22-.5-.5V9c0-.28.22-.5.5-.5h1c.28,0,.5.22.5.5v5.5h4.5c.28,0,.5.22.5.5v1c0,.28-.22.5-.5.5h-4.5v4h4.5c.28,0,.5.22.5.5v1c0,.28-.22.5-.5.5h-4.5v4h4.5c.28,0,.5.22.5.5v1c0,.28-.22.5-.5.5h-6Z" fill="#fff" stroke-width="0"/>
          <path d="M10,9v6h5v1h-5v5h5v1h-5v5h5v1h-6V9h1M10,8h-1c-.55,0-1,.45-1,1v19c0,.55.45,1,1,1h6c.55,0,1-.45,1-1v-1c0-.55-.45-1-1-1h-4v-3h4c.55,0,1-.45,1-1v-1c0-.55-.45-1-1-1h-4v-3h4c.55,0,1-.45,1-1v-1c0-.55-.45-1-1-1h-4v-5c0-.55-.45-1-1-1h0Z" fill="#fff" stroke-width="0"/>
        </g>
        <polygon points="15 16 15 15 10 15 10 9 9 9 9 28 15 28 15 27 10 27 10 22 15 22 15 21 10 21 10 16 15 16" fill="url(#ad)" stroke-width="0"/>
      </g>
      <rect x="7.5" y="7.5" width="4" height="4" rx="1" ry="1" fill="url(#ae)" stroke="#003755" stroke-linejoin="round"/>
      <rect x="12.5" y="13.5" width="4" height="4" rx="1" ry="1" fill="url(#af)" stroke="#003755" stroke-linejoin="round"/>
      <rect x="12.5" y="19.5" width="4" height="4" rx="1" ry="1" fill="url(#ag)" stroke="#003755" stroke-linejoin="round"/>
      <rect x="12.5" y="25.5" width="4" height="4" rx="1" ry="1" fill="url(#ah)" stroke="#003755" stroke-linejoin="round"/>
      <rect x="18" y="14" width="11" height="3" rx=".8" ry=".8" fill="#646464" opacity=".5" stroke-width="0"/>
      <rect x="18" y="20" width="14" height="3" rx=".91" ry=".91" fill="#646464" opacity=".5" stroke-width="0"/>
      <rect x="18" y="26" width="7" height="3" rx=".64" ry=".64" fill="#646464" opacity=".5" stroke-width="0"/>
    </g>
  </g>
</svg>