<?xml version="1.0" encoding="UTF-8"?>
<svg id="_46_756_CAT_DesignWiithDymola_COR_copy" data-name="46 756 CAT DesignWiithDymola(***)COR copy" xmlns="http://www.w3.org/2000/svg" viewBox="0 0 64 64">
  <defs>
    <style>
      .cls-1 {
        fill: #fff;
      }

      .cls-2, .cls-3, .cls-4 {
        stroke-linejoin: round;
      }

      .cls-2, .cls-4 {
        stroke: #fff;
        stroke-width: 1.94px;
      }

      .cls-2, .cls-5 {
        fill: #263287;
      }

      .cls-3 {
        stroke: #263287;
        stroke-width: 6.78px;
      }

      .cls-3, .cls-4 {
        fill: none;
      }

      .cls-6 {
        fill: #003755;
      }
    </style>
  </defs>
  <g id="_46_755_Dymola_StandAloneApp_copy_6" data-name="46 755  Dymola StandAloneApp copy 6">
    <g id="rectangle_FOND_" data-name="rectangle FOND  ***">
      <polygon class="cls-5" points="58.01 57.94 16.44 57.94 16.44 30.48 22.53 26.07 58.01 26.07 58.01 57.94"/>
    </g>
    <rect id="Gauche" class="cls-2" x="21.52" y="35.03" width="31.16" height="13.96"/>
    <g id="ht_1" data-name="ht 1">
      <rect class="cls-5" x="29.26" y="31.15" width="15.68" height="7.19"/>
      <rect class="cls-3" x="29.26" y="31.15" width="15.68" height="7.19"/>
      <rect class="cls-4" x="29.26" y="31.15" width="15.68" height="7.19"/>
    </g>
    <g id="Bs_2" data-name="Bs 2">
      <rect class="cls-5" x="29.26" y="45.67" width="15.68" height="7.19"/>
      <rect class="cls-3" x="29.26" y="45.67" width="15.68" height="7.19"/>
      <rect class="cls-4" x="29.26" y="45.67" width="15.68" height="7.19"/>
    </g>
  </g>
  <g id="Layer_57_copy_6" data-name="Layer 57 copy 6">
    <g>
      <path class="cls-6" d="m22.94,25.37c-3.82,0-7.31-2.26-8.87-5.75l-.26-.59h5.05l.12.14c1.01,1.14,2.45,1.79,3.96,1.79,2.92,0,5.3-2.38,5.3-5.3s-2.38-5.3-5.3-5.3c-1.55,0-3.02.68-4.03,1.87l-.12.15h-5.01l.25-.58c1.54-3.55,5.04-5.84,8.91-5.84,5.36,0,9.71,4.36,9.71,9.71s-4.36,9.71-9.71,9.71Z"/>
      <path class="cls-1" d="m22.94,6.36c5.13,0,9.3,4.16,9.3,9.3s-4.16,9.3-9.3,9.3c-3.78,0-7.04-2.26-8.49-5.5h4.22c1.05,1.18,2.57,1.93,4.27,1.93,3.15,0,5.72-2.57,5.72-5.72s-2.57-5.72-5.72-5.72c-1.74,0-3.3.78-4.35,2.01h-4.18c1.43-3.29,4.71-5.59,8.53-5.59m0-.84c-4.03,0-7.68,2.39-9.29,6.09l-.51,1.17h5.84l.25-.29c.93-1.09,2.29-1.72,3.71-1.72,2.69,0,4.88,2.19,4.88,4.88s-2.19,4.88-4.88,4.88c-1.39,0-2.72-.6-3.65-1.65l-.25-.28h-5.88l.53,1.18c1.63,3.64,5.26,6,9.25,6,5.59,0,10.13-4.55,10.13-10.13s-4.55-10.13-10.13-10.13h0Z"/>
    </g>
    <g>
      <path class="cls-6" d="m16.37,31.95c-5.36,0-9.71-4.36-9.71-9.71s4.36-9.71,9.71-9.71c3.87,0,7.37,2.29,8.91,5.84l.25.58h-5.01l-.12-.15c-1.01-1.19-2.48-1.87-4.03-1.87-2.92,0-5.3,2.38-5.3,5.3s2.38,5.3,5.3,5.3c1.51,0,2.95-.65,3.96-1.79l.12-.14h5.05l-.26.59c-1.56,3.49-5.04,5.75-8.87,5.75Z"/>
      <path class="cls-1" d="m16.37,12.94c3.82,0,7.09,2.3,8.53,5.59h-4.18c-1.05-1.23-2.61-2.01-4.35-2.01-3.15,0-5.72,2.57-5.72,5.72s2.57,5.72,5.72,5.72c1.7,0,3.22-.75,4.27-1.93h4.22c-1.45,3.24-4.7,5.5-8.49,5.5-5.13,0-9.3-4.16-9.3-9.3s4.16-9.3,9.3-9.3m0-.84c-5.59,0-10.13,4.55-10.13,10.13s4.55,10.13,10.13,10.13c3.99,0,7.62-2.35,9.25-6l.53-1.18h-5.88l-.25.28c-.93,1.05-2.26,1.65-3.65,1.65-2.69,0-4.88-2.19-4.88-4.88s2.19-4.88,4.88-4.88c1.43,0,2.78.63,3.71,1.72l.25.29h5.84l-.51-1.17c-1.61-3.7-5.26-6.09-9.29-6.09h0Z"/>
    </g>
  </g>
</svg>