<?xml version="1.0" encoding="UTF-8"?><svg id="VERSION_ok_01_OKOK_copy" xmlns="http://www.w3.org/2000/svg" viewBox="0 0 64 64"><defs><style>.cls-1{fill:#aadcfa;}.cls-1,.cls-2{opacity:.5;}.cls-2{fill:#fff;}.cls-3{fill:#003755;}.cls-4{fill:none;stroke:#000;stroke-linecap:round;stroke-linejoin:round;stroke-width:.65px;}.cls-5{fill:#82bddb;opacity:.92;}.cls-6{fill:#f5fcff;}.cls-6,.cls-7{opacity:.56;}.cls-7{fill:#5a9ab8;}</style></defs><g id="Layer_18_copy_8"><polygon id="Fond_Blanc_" class="cls-2" points="34.46 55.12 17.47 57.04 6.27 55.56 6.27 23.68 17.47 17.68 34.46 24.13 34.46 55.12"/><polygon id="Fond_01" class="cls-1" points="34.46 55.12 17.47 57.04 6.27 55.56 6.27 23.68 17.47 17.68 34.46 24.13 34.46 55.12"/><polygon id="ombre_" class="cls-7" points="33.87 55.18 17.47 57.04 17.47 17.68 23.7 20.06 33.87 55.18"/><path id="REFLET_" class="cls-6" d="m31.83,53.23c-8.17-10.91-27.27-15.45-15.52-12.13,4.5,1.27,8.39.59,6.39-2.11-3.22-4.35-14.61-11.07-10.08-1.74-2.59-3.33-4.28-7.38-4.28-12.61,8.55,13.71,7.09-3.04,9.13,2.6,4.01,5.33,14.36,25.98,14.36,25.98Z"/><polygon points="17.68 54.87 7.1 53.25 17.68 54.25 17.68 52.31 33.67 52.21 17.68 54.87"/><polygon points="17.68 49.79 7.1 48.61 17.68 49.18 17.68 47.24 33.7 48.42 17.68 49.79"/><polygon points="17.68 44.42 7.1 44.08 17.68 43.81 17.68 41.87 33.73 44.14 17.68 44.42"/><polygon points="17.68 39.25 7.1 39.54 17.68 38.63 17.68 36.7 33.76 40.45 17.68 39.25"/><polygon points="17.68 34.08 7.1 35.11 17.68 33.46 17.68 31.52 33.79 35.97 17.68 34.08"/><polygon points="17.68 28.74 7.1 30.64 17.68 28.12 17.68 26.18 33.85 31.3 17.68 28.74"/><polygon points="17.68 23.49 7.1 26.27 17.68 22.87 17.68 20.83 33.91 27.23 17.68 23.49"/><g id="Immeuble_01_contour_Ok"><path class="cls-3" d="m17.5,18.54l16.25,6.1v29.81l-16.31,1.88-10.33-1.46v-30.82l10.39-5.51m-.07-1.09l-11.32,6v32.29l11.32,1.6,17.32-2v-31.39l-17.32-6.5h0Z"/></g></g><g id="Immeuble_02_copy_2"><g id="Layer_18_copy_8-2"><polygon id="Fond_Blanc_-2" class="cls-2" points="58.49 54.79 45.45 56.79 38.01 55.11 38.01 12.95 45.45 6.74 58.49 15.38 58.49 54.79"/><polygon class="cls-5" points="57.84 54.83 45.41 57.04 45.41 7.23 57.84 15.66 57.84 54.83"/><polygon class="cls-7" points="58.34 54.95 45.44 56.94 38.57 55.37 38.57 24.4 45.57 49.42 58.34 54.95"/><polygon class="cls-7" points="58.34 54.95 45.44 56.94 45.57 49.42 58.34 54.95"/><polygon class="cls-3" points="45.6 56.49 38.46 54.79 45.6 55.68 45.6 53.94 57.82 54.31 45.6 56.49"/><polygon class="cls-3" points="45.6 50.22 38.46 49.73 45.6 49.42 45.6 47.67 57.82 49.88 45.6 50.22"/><polygon class="cls-3" points="45.6 44.63 38.46 44.93 45.6 43.83 45.6 42.08 57.82 45.17 45.6 44.63"/><polygon class="cls-3" points="45.6 38.87 38.46 39.96 45.6 38.07 45.6 36.32 57.82 40.29 45.6 38.87"/><polygon class="cls-3" points="45.6 33.11 38.46 34.99 45.6 32.31 45.6 30.56 57.82 35.42 45.6 33.11"/><polygon class="cls-3" points="45.6 27.35 38.46 30.02 45.6 26.55 45.6 24.8 57.82 30.54 45.6 27.35"/><polygon class="cls-3" points="45.6 21.59 38.46 25.05 45.6 20.79 45.6 19.04 57.82 25.66 45.6 21.59"/><polygon class="cls-3" points="45.6 15.83 38.46 20.07 45.6 15.02 45.6 13.28 57.82 20.78 45.6 15.83"/><polygon class="cls-3" points="45.6 10.07 38.46 15.1 45.6 9.26 45.6 7.52 57.82 15.7 45.6 10.07"/></g><g id="Immeuble_01_contour_Ok-2"><path class="cls-3" d="m45.32,7.34l12.5,8.39v38.63l-12.27,2.03-7.02-1.57V13.54l6.79-6.2m-.1-1.3l-7.72,7.04v42.57l8.02,1.79,13.32-2.21V15.19l-13.62-9.15h0Z"/></g></g><g id="Armature_ok_"><line id="Av_1" class="cls-4" x1="22.88" y1="17.48" x2="22.88" y2="12.85"/><line id="Av_2" class="cls-4" x1="28.18" y1="19.44" x2="28.18" y2="11.93"/><line id="Av_2-2" class="cls-4" x1="31.18" y1="20.84" x2="31.18" y2="9.83"/><line id="Arr_2" class="cls-4" x1="14.79" y1="16.94" x2="14.79" y2="7.97"/><line id="Arr_1" class="cls-4" x1="10.19" y1="19.46" x2="10.19" y2="10.37"/><polyline id="Arr_1-2" class="cls-4" points="6.98 18.4 17.45 12.34 33.17 19.56"/></g></svg>