<?xml version="1.0" encoding="UTF-8"?>
<svg xmlns="http://www.w3.org/2000/svg" xmlns:xlink="http://www.w3.org/1999/xlink" viewBox="0 0 64 64">
  <defs>
    <linearGradient id="c" x1="17.4" y1="6.71" x2="45.5" y2="55.39" gradientUnits="userSpaceOnUse">
      <stop offset="0" stop-color="#3387af"/>
      <stop offset="1" stop-color="#285a78"/>
    </linearGradient>
    <linearGradient id="f" x1="23.87" y1="50.68" x2="43.13" y2="17.32" gradientTransform="translate(0 66) scale(1 -1)" gradientUnits="userSpaceOnUse">
      <stop offset="0" stop-color="#fff"/>
      <stop offset="1" stop-color="#d3d3d3"/>
    </linearGradient>
    <linearGradient id="h" x1="35" y1="48" x2="49.5" y2="33.5" gradientUnits="userSpaceOnUse">
      <stop offset="0" stop-color="#dbdada"/>
      <stop offset=".83" stop-color="#78797a"/>
    </linearGradient>
    <linearGradient id="j" x1="22.03" y1="18.19" x2="38.47" y2="46.67" gradientUnits="userSpaceOnUse">
      <stop offset="0" stop-color="#fff"/>
      <stop offset="1" stop-color="#f1f0f0"/>
    </linearGradient>
    <linearGradient id="l" x1="33.5" y1="53.74" x2="33.5" y2="48.06" gradientTransform="translate(0 66) scale(1 -1)" gradientUnits="userSpaceOnUse">
      <stop offset=".18" stop-color="#bfbebe"/>
      <stop offset=".32" stop-color="#f5f6f6"/>
      <stop offset=".6" stop-color="#c7c6c5"/>
      <stop offset=".8" stop-color="#ddd"/>
      <stop offset=".96" stop-color="#a49f9f"/>
    </linearGradient>
    <linearGradient id="q" x1="29.87" y1="40.44" x2="35.75" y2="50.63" gradientUnits="userSpaceOnUse">
      <stop offset="0" stop-color="#d7d7d7"/>
      <stop offset="1" stop-color="#969696"/>
    </linearGradient>
    <linearGradient id="r" x1="32.56" y1="35.91" x2="36.39" y2="42.54" gradientUnits="userSpaceOnUse">
      <stop offset="0" stop-color="#8dd7f4"/>
      <stop offset="1" stop-color="#386f8d"/>
    </linearGradient>
    <linearGradient id="s" x1="33.08" y1="36.81" x2="35.86" y2="41.63" gradientUnits="userSpaceOnUse">
      <stop offset="0" stop-color="#386f8d"/>
      <stop offset="1" stop-color="#8dd7f4"/>
    </linearGradient>
  </defs>
  <g id="b" data-name="Icon_approved">
    <path d="M32,5s4,2,4,2.5-4.01,2.5-4,2.5c12.43,0,22.5,9.57,22.5,22s-10.07,22.5-22.5,22.5-22.5-10.07-22.5-22.5c0-5.23,1.79-10.03,4.79-13.85l.35.35,2,6,2-13-13,2,5.23,1.74c-3.66,4.6-5.87,10.41-5.87,16.76,0,14.91,12.09,27,27,27s27-12.09,27-27S46.91,5,32,5Z" fill="url(#c)"/>
    <g id="d" data-name="clipboard">
      <path id="e" data-name="outline_2" d="M44.5,16.5h-3q0-2-1-2h-4v-1c0-.73-.27-1-1-1h-4c-.73,0-1,.27-1,1v1h-4q-1,0-1,2h-3q-1,0-1,1v1s-1.71,19.07-7,27h7v1q0,1,1,1h22q1,0,1-1v-29q0-1-1-1Z" fill="#fff" opacity=".5" stroke="#fff" stroke-linejoin="round" stroke-width="2.54"/>
      <rect id="g" data-name="board" x="21.5" y="16.5" width="24" height="31" rx="1" ry="1" fill="url(#f)" stroke="#797979" stroke-linejoin="round" stroke-width=".85"/>
      <polygon points="45 29 34 47 45 47 45 29" fill="url(#h)"/>
      <path id="i" data-name="outline_1" d="M44.5,16.5h-3q0-2-1-2h-4v-1c0-.73-.27-1-1-1h-4c-.73,0-1,.27-1,1v1h-4q-1,0-1,2h-3q-1,0-1,1v29q0,1,1,1h22q1,0,1-1v-29q0-1-1-1Z" fill="none" stroke="#333232" stroke-linejoin="round" stroke-width=".85"/>
      <path id="k" data-name="paper" d="M21.5,18.5s-1.71,19.07-7,27h26s5-11.14,5-27h-24Z" fill="url(#j)" stroke="#787979" stroke-linejoin="round" stroke-width=".85"/>
      <path id="m" data-name="clip" d="M36.5,14.5v-1c0-.73-.27-1-1-1h-4c-.73,0-1,.27-1,1v1h-4q-1,0-1,1v3h16v-3q0-1-1-1h-4Z" fill="url(#l)" stroke="#797979" stroke-linejoin="round" stroke-width=".85"/>
      <path id="n" data-name="outline_2" d="M44.5,16.5h-3q0-2-1-2h-4v-1c0-.73-.27-1-1-1h-4c-.73,0-1,.27-1,1v1h-4q-1,0-1,2h-3q-1,0-1,1v1s-1.71,19.07-7,27h7v1q0,1,1,1h22q1,0,1-1v-29q0-1-1-1Z" fill="none" stroke="#323232" stroke-linejoin="round" stroke-width=".85"/>
      <g id="o" data-name="check">
        <path d="M28.55,21.07c.08,0,.16.03.22.09.03.03.05.07.07.11.02.04.02.08.02.12,0,.09-.03.16-.09.23l-2.27,2.27-1.16-1.16c-.06-.06-.09-.14-.09-.23,0-.04,0-.08.02-.12.02-.04.04-.08.07-.11.06-.06.14-.09.22-.09s.16.03.23.09l.71.71,1.83-1.82s.07-.06.11-.07c.04-.02.08-.02.12-.02Z" fill="#3387af"/>
        <path d="M27.55,26.07c.08,0,.16.03.22.09.03.03.05.07.07.11.02.04.02.08.02.12,0,.09-.03.16-.09.23l-2.27,2.27-1.16-1.16c-.06-.06-.09-.14-.09-.23,0-.04,0-.08.02-.12.02-.04.04-.08.07-.11.06-.06.14-.09.22-.09s.16.03.23.09l.71.71,1.83-1.82s.07-.06.11-.07c.04-.02.08-.02.12-.02Z" fill="#3387af"/>
        <path d="M26.55,31.07c.08,0,.16.03.22.09.03.03.05.07.07.11.02.04.02.08.02.12,0,.09-.03.16-.09.23l-2.27,2.27-1.16-1.16c-.06-.06-.09-.14-.09-.23,0-.04,0-.08.02-.12.02-.04.04-.08.07-.11.06-.06.14-.09.22-.09s.16.03.23.09l.71.71,1.83-1.82s.07-.06.11-.07c.04-.02.08-.02.12-.02Z" fill="#3387af"/>
        <polygon points="34 23 33 24 42 24 43 23 34 23" fill="#3387af"/>
        <polygon points="32 27 31 28 41 28 42 27 32 27" fill="#3387af"/>
        <polygon points="31 31 30 32 40 32 41 31 31 31" fill="#3387af"/>
      </g>
    </g>
  </g>
  <g id="p" data-name="Layer_6">
    <g>
      <path d="M36.5,39.5h-5s-.5,7.67-3,11c0,0,2.33-1.4,4-3v5s4-4.67,4-13Z" fill="url(#q)" stroke="#333232" stroke-miterlimit="10" stroke-width=".83"/>
      <g>
        <path d="M33.7,43.6c-1.59,0-2.84-1.58-2.84-3.61,0-2.29,1.62-4.53,3.69-5.08.23-.06.46-.09.69-.09,1.6,0,2.8,1.55,2.8,3.61,0,2.45-1.48,4.49-3.69,5.08-.22.06-.44.09-.65.09Z" fill="url(#r)"/>
        <path d="M35.25,35.22h0c1.37,0,2.4,1.38,2.4,3.21,0,2.31-1.33,4.15-3.4,4.69-.18.05-.37.07-.55.07-1.37,0-2.44-1.41-2.44-3.21,0-2.09,1.52-4.19,3.4-4.69.2-.05.39-.08.58-.08M35.25,34.43c-.26,0-.52.03-.79.11-2.13.57-3.99,2.88-3.99,5.46,0,2.28,1.44,4,3.24,4,.25,0,.5-.03.75-.1,2.46-.65,3.99-2.88,3.99-5.46,0-2.27-1.38-4.01-3.2-4.01h0Z" fill="#043855"/>
      </g>
      <path d="M36.85,38.69c0,1.72-.92,3.21-2.39,3.64-1.28.37-2.39-.88-2.39-2.6s1.12-3.27,2.39-3.64,2.39.88,2.39,2.6Z" fill="url(#s)"/>
    </g>
  </g>
</svg>