<?xml version="1.0" encoding="UTF-8"?>
<svg xmlns="http://www.w3.org/2000/svg" xmlns:xlink="http://www.w3.org/1999/xlink" viewBox="0 0 64 64">
  <defs>
    <style>
      .cls-1, .cls-2, .cls-3 {
        opacity: .6;
      }

      .cls-4 {
        opacity: .76;
      }

      .cls-5 {
        fill: url(#linear-gradient-2);
      }

      .cls-6 {
        fill: #333332;
      }

      .cls-7 {
        fill: #fff;
      }

      .cls-2, .cls-8, .cls-3, .cls-9, .cls-10, .cls-11 {
        fill: none;
      }

      .cls-2, .cls-9, .cls-11 {
        stroke: #000;
        stroke-linecap: round;
        stroke-linejoin: round;
      }

      .cls-2, .cls-10, .cls-11 {
        stroke-width: .5px;
      }

      .cls-12 {
        fill: #82bddb;
      }

      .cls-13 {
        fill: url(#linear-gradient-4);
      }

      .cls-14 {
        fill: url(#Dégradé_sans_nom_1537);
      }

      .cls-15 {
        opacity: .49;
      }

      .cls-16 {
        fill: url(#linear-gradient-5);
      }

      .cls-17 {
        fill: #aadcfa;
      }

      .cls-18 {
        opacity: .52;
      }

      .cls-19 {
        fill: url(#linear-gradient-8);
      }

      .cls-9 {
        stroke-width: 1.09px;
      }

      .cls-20 {
        fill: #9182ff;
      }

      .cls-10 {
        stroke: url(#linear-gradient-3);
        stroke-miterlimit: 10;
      }

      .cls-21 {
        fill: url(#linear-gradient-7);
      }

      .cls-22 {
        fill: url(#linear-gradient-9);
      }

      .cls-23 {
        fill: url(#linear-gradient-6);
      }

      .cls-24 {
        fill: #f90;
      }

      .cls-25 {
        fill: #285977;
      }

      .cls-26 {
        fill: #5a9ab8;
      }

      .cls-27 {
        fill: url(#linear-gradient);
      }

      .cls-28 {
        fill: url(#Dégradé_sans_nom_40);
      }

      .cls-29 {
        clip-path: url(#clippath);
      }
    </style>
    <linearGradient id="linear-gradient" x1="39.91" y1="10.92" x2="44.57" y2="15.57" gradientUnits="userSpaceOnUse">
      <stop offset="0" stop-color="#0090e9"/>
      <stop offset=".33" stop-color="#2549e9"/>
      <stop offset=".76" stop-color="#8e42ff"/>
      <stop offset=".79" stop-color="#9144f5"/>
      <stop offset=".83" stop-color="#9a49db"/>
      <stop offset=".88" stop-color="#a953b2"/>
      <stop offset=".94" stop-color="#be6078"/>
      <stop offset="1" stop-color="#d66f37"/>
    </linearGradient>
    <linearGradient id="linear-gradient-2" x1="38.95" y1="9.66" x2="43.08" y2="14.16" gradientUnits="userSpaceOnUse">
      <stop offset=".4" stop-color="#7afffb"/>
      <stop offset=".46" stop-color="#7afffb" stop-opacity=".89"/>
      <stop offset=".59" stop-color="#7cfffb" stop-opacity=".6"/>
      <stop offset=".77" stop-color="#7ffffb" stop-opacity=".14"/>
      <stop offset=".83" stop-color="#80fffb" stop-opacity="0"/>
    </linearGradient>
    <linearGradient id="linear-gradient-3" x1="39.74" y1="10.74" x2="44.74" y2="15.75" gradientUnits="userSpaceOnUse">
      <stop offset=".11" stop-color="#0090e9"/>
      <stop offset=".14" stop-color="#0586e9"/>
      <stop offset=".23" stop-color="#1664e9"/>
      <stop offset=".31" stop-color="#2150e9"/>
      <stop offset=".36" stop-color="#2549e9"/>
      <stop offset=".4" stop-color="#2d49e6"/>
      <stop offset=".48" stop-color="#444ae0"/>
      <stop offset=".57" stop-color="#6a4bd7"/>
      <stop offset=".67" stop-color="#9e4dca"/>
      <stop offset=".68" stop-color="#a44ec9"/>
      <stop offset=".76" stop-color="#b15d9a"/>
      <stop offset=".93" stop-color="#d38524"/>
      <stop offset=".94" stop-color="#d6881e"/>
    </linearGradient>
    <linearGradient id="linear-gradient-4" x1="45.85" y1="17.85" x2="48.47" y2="20.48" xlink:href="#linear-gradient"/>
    <linearGradient id="linear-gradient-5" x1="45.21" y1="17.04" x2="47.66" y2="19.71" xlink:href="#linear-gradient-2"/>
    <linearGradient id="linear-gradient-6" x1="24.99" y1="25.43" x2="17.16" y2="11.88" gradientUnits="userSpaceOnUse">
      <stop offset="0" stop-color="#50498a"/>
      <stop offset="1" stop-color="#6c59f2"/>
    </linearGradient>
    <linearGradient id="Dégradé_sans_nom_1537" data-name="Dégradé sans nom 1537" x1="-28.01" y1="25.43" x2="-35.84" y2="11.88" gradientTransform="translate(-4) rotate(-180) scale(1 -1)" gradientUnits="userSpaceOnUse">
      <stop offset="0" stop-color="#9c6d24"/>
      <stop offset="1" stop-color="#e09900"/>
    </linearGradient>
    <linearGradient id="Dégradé_sans_nom_40" data-name="Dégradé sans nom 40" x1="33" y1="16.73" x2="31" y2="13.27" gradientUnits="userSpaceOnUse">
      <stop offset="0" stop-color="#402700"/>
      <stop offset="1" stop-color="#170e00"/>
    </linearGradient>
    <linearGradient id="linear-gradient-7" x1="18.12" y1="23.73" x2="16.12" y2="20.27" gradientUnits="userSpaceOnUse">
      <stop offset="0" stop-color="#000"/>
      <stop offset="1" stop-color="#211a4f"/>
    </linearGradient>
    <linearGradient id="linear-gradient-8" x1="18.12" y1="16.73" x2="16.12" y2="13.27" xlink:href="#linear-gradient-7"/>
    <linearGradient id="linear-gradient-9" x1="19.21" y1="24.07" x2="45.23" y2="50.09" xlink:href="#linear-gradient-3"/>
    <clipPath id="clippath">
      <polygon class="cls-8" points="51.25 44.7 43.55 43.72 40.99 42.85 39.08 37.1 36.33 35.51 30.87 35.51 29.03 36.62 27.81 37.25 23.56 38.82 18.99 36.21 18.99 18.5 51.25 18.5 51.25 44.7"/>
    </clipPath>
  </defs>
  <g id="Layer_5" data-name="Layer 5">
    <path class="cls-27" d="M42.54,8.95l.78,2.26c.15.44.5.79.95.95l2.25.79c.29.1.29.51,0,.61l-2.25.79c-.44.16-.79.5-.95.95l-.78,2.26c-.1.29-.51.29-.61,0l-.78-2.26c-.15-.44-.5-.79-.95-.95l-2.25-.79c-.29-.1-.29-.51,0-.61l2.25-.79c.44-.16.79-.5.95-.95l.78-2.26c.1-.29.51-.29.61,0Z"/>
    <g class="cls-4">
      <path class="cls-5" d="M41.94,15.01c-.23-.68-.77-1.21-1.44-1.45l-.92-.32.91-.32c.68-.24,1.21-.77,1.44-1.45l.3-.87.3.86c.24.69.77,1.22,1.46,1.46l.9.32-.9.32c-.68.24-1.22.78-1.46,1.46l-.3.86-.3-.87Z"/>
    </g>
    <path class="cls-10" d="M42.54,8.95l.78,2.26c.15.44.5.79.95.95l2.25.79c.29.1.29.51,0,.61l-2.25.79c-.44.16-.79.5-.95.95l-.78,2.26c-.1.29-.51.29-.61,0l-.78-2.26c-.15-.44-.5-.79-.95-.95l-2.25-.79c-.29-.1-.29-.51,0-.61l2.25-.79c.44-.16.79-.5.95-.95l.78-2.26c.1-.29.51-.29.61,0Z"/>
  </g>
  <g id="Layer_5_copy" data-name="Layer 5 copy">
    <path class="cls-13" d="M47.42,16.84l.36,1.04c.11.31.35.56.67.67l1.03.36c.24.09.24.43,0,.52l-1.03.36c-.31.11-.56.36-.67.67l-.36,1.04c-.08.25-.43.25-.52,0l-.36-1.04c-.11-.31-.35-.56-.67-.67l-1.03-.36c-.24-.09-.24-.43,0-.52l1.03-.36c.31-.11.56-.36.67-.67l.36-1.04c.08-.25.43-.25.52,0Z"/>
    <g class="cls-15">
      <path class="cls-16" d="M47.1,20.57c-.22-.62-.71-1.11-1.33-1.33l-.19-.07.2-.07c.62-.22,1.11-.71,1.32-1.33l.06-.17.06.17c.22.62.71,1.11,1.33,1.33l.19.07-.2.07c-.62.22-1.11.7-1.32,1.32l-.06.17-.06-.17Z"/>
    </g>
  </g>
  <g id="Layer_11" data-name="Layer 11">
    <rect class="cls-7" x="17" y="10.95" width="15" height="15" rx="1.79" ry="1.79"/>
    <path class="cls-6" d="M29.5,11c1.38,0,2.5,1.12,2.5,2.5v10c0,1.38-1.12,2.5-2.5,2.5h-10c-1.38,0-2.5-1.12-2.5-2.5v-10c0-1.38,1.12-2.5,2.5-2.5h10M29.5,10h-10c-1.93,0-3.5,1.57-3.5,3.5v10c0,1.93,1.57,3.5,3.5,3.5h10c1.93,0,3.5-1.57,3.5-3.5v-10c0-1.93-1.57-3.5-3.5-3.5h0Z"/>
    <path class="cls-23" d="M24,26h-4.7c-1.27,0-2.3-1.03-2.3-2.3v-10.39c0-1.27,1.03-2.3,2.3-2.3h4.7v2h-3.65c-.75,0-1.35.61-1.35,1.35v8.29c0,.75.61,1.35,1.35,1.35h3.65v2Z"/>
    <path class="cls-14" d="M25,26h4.7c1.27,0,2.3-1.03,2.3-2.3v-10.4c0-1.27-1.03-2.3-2.3-2.3h-4.7v2h3.75c.69,0,1.25.56,1.25,1.25v7.45c0,1.27-1.03,2.3-2.3,2.3h-2.7v2Z"/>
    <g>
      <circle class="cls-24" cx="32" cy="15" r="2"/>
      <path class="cls-28" d="M32,13.5c.83,0,1.5.67,1.5,1.5s-.67,1.5-1.5,1.5-1.5-.67-1.5-1.5.67-1.5,1.5-1.5M32,13c-1.1,0-2,.9-2,2s.9,2,2,2,2-.9,2-2-.9-2-2-2h0Z"/>
    </g>
    <g>
      <circle class="cls-20" cx="17.12" cy="22" r="2"/>
      <path class="cls-21" d="M17.12,20.5c.83,0,1.5.67,1.5,1.5s-.67,1.5-1.5,1.5-1.5-.67-1.5-1.5.67-1.5,1.5-1.5M17.12,20c-1.1,0-2,.9-2,2s.9,2,2,2,2-.9,2-2-.9-2-2-2h0Z"/>
    </g>
    <g>
      <circle class="cls-20" cx="17.12" cy="15" r="2"/>
      <path class="cls-19" d="M17.12,13.5c.83,0,1.5.67,1.5,1.5s-.67,1.5-1.5,1.5-1.5-.67-1.5-1.5.67-1.5,1.5-1.5M17.12,13c-1.1,0-2,.9-2,2s.9,2,2,2,2-.9,2-2-.9-2-2-2h0Z"/>
    </g>
  </g>
  <g id="Layer_7" data-name="Layer 7">
    <g id="SURFACE_copy" data-name="SURFACE copy">
      <g id="contour_1px" data-name="contour 1px" class="cls-18">
        <path class="cls-22" d="M36.32,19.02c4.77,0,8.05,8.89,8.05,8.89.35.67.86.81,1.14,1.39l2.55.12c2.76,2.88,2.14,7.66,2,8.65-.28,2.1-.87,4.15-1.75,6.09,0,0-2.97,6.79-16.57,12.09l-4.88-3.94-.88-1.93-.88-4.7-5.48,1.75c-.13.06-.27.08-.41.08-.23,0-.45-.08-.64-.22l-2.08-1.87v-.6s2.44-1.01,2.44-1.06l.46-3.36,1.27-.76s1.18-.63,2.63-1.24c1.89-1.58.43-3.02.43-3.02-1.23-1.3-2.59-2.47-4.06-3.5v-.66l1.95-.88c.5-.29.76-3.38.83-3.99.25-5.58,4.27-7.33,4.27-7.33h9.59M36.32,17.62h-9.88l-.27.12c-.2.09-4.8,2.16-5.11,8.51l-.03.25c-.17,1.63-.31,2.4-.41,2.76l-1.53.68-.83.37v2.29l.59.42c1.39.98,2.68,2.1,3.85,3.33.04.04.16.21.15.36,0,.13-.13.31-.32.5-1.39.59-2.48,1.17-2.53,1.2l-.03.02-.03.02-1.27.76-.58.35-.09.67-.35,2.61c-.46.2-1.11.47-1.69.71l-.87.36v2.16l.46.42,2.08,1.87.03.03.03.02c.43.34.97.53,1.51.53.3,0,.6-.06.88-.17l3.92-1.25.58,3.14.03.17.07.16.88,1.93.14.3.26.21,4.88,3.94.63.51.76-.29c13.98-5.45,17.22-12.53,17.35-12.83.93-2.04,1.55-4.22,1.86-6.46.27-1.91.58-6.71-2.37-9.8l-.39-.4-.56-.03-1.88-.09c-.11-.12-.23-.23-.32-.32-.15-.13-.22-.21-.28-.3-.53-1.4-3.9-9.7-9.32-9.7h0Z"/>
      </g>
      <path class="cls-12" d="M50.02,38.05h-4.02c.68-.95,1.75-3.05-.72-8.25l2.55.12c2.76,2.87,2.19,7.14,2.19,8.13Z"/>
      <path class="cls-25" d="M46.79,34.26c-.48-2.22-1.3-4.35-2.45-6.32.29.96.42,1.97.39,2.98-.11,1.01-.32,2-.6,2.97,0,0,1.75,4.07,1.88,4.2.77-1.12,1.05-2.5.79-3.83Z"/>
      <path id="_07" data-name=" 07" class="cls-12" d="M24.45,35.33v.3c0-.49-3.94-3.57-4.51-3.92v-.29c.36.22,1.98,1.51,3.18,2.56.5.4.94.85,1.33,1.35Z"/>
      <path id="_06" data-name=" 06" class="cls-12" d="M27.1,34.9l-2.57.58c0-.48-4.01-3.71-4.59-4.06l2.07-1.09c1.29.78,5.07,3.47,5.09,4.56Z"/>
      <path id="_05" data-name=" 05" class="cls-26" d="M28.01,32.1c-.04.67,0,2.28-.88,2.79,0-1.09-3.8-3.78-5.09-4.56.5-.29.88-3.38.93-3.99,2.83,1.45,5.01,4.46,5.04,5.76Z"/>
      <path id="_02" data-name=" 02" class="cls-12" d="M44.12,33.86s0-5.62-5.47-6.41c-.13-1.6,1.17-5.49-2.47-7.88,4.77,0,8.16,8.37,8.16,8.37.57,1.95.49,4.02-.22,5.92Z"/>
      <path id="_03" data-name=" 03" class="cls-17" d="M38.64,27.44h-6.79c-1.54-5.99-3.14-6.82-4.95-7.88h9.27c3.5,2.2,2.44,6.09,2.47,7.88Z"/>
      <path id="_04" data-name=" 04" class="cls-12" d="M31.86,27.44c-.93.31-1.76.87-2.4,1.62-.7.9-1.19,1.93-1.45,3.04,0-1.21-2.2-4.38-5.07-5.76-.01-2.82,1.51-5.43,3.97-6.81,1.81,1.09,3.41,1.97,4.95,7.91Z"/>
      <g id="_004_ok_" data-name=" 004 ok ">
        <path id="_06-2" data-name=" 06-2" class="cls-12" d="M26.7,38.82h-3.14c1.08-.74,1.49-2.14.97-3.35l2.57-.58c.31.59,1.34,2.42-.4,3.92Z"/>
        <path id="d" class="cls-12" d="M48.04,43.97l-4.49-.39c1.09-1.17,1.82-3.78,2.45-5.53h4.02c-.1,2.12-.79,4.17-1.99,5.92Z"/>
        <path id="d-2" data-name="d" class="cls-26" d="M43.55,43.58c-.86-.02-1.67-.43-2.2-1.11,1.45-1.56,3-3.02,4.63-4.38h0s-1.45,4.74-2.44,5.49Z"/>
        <path id="d-3" data-name="d" class="cls-25" d="M41.35,42.47l-2.35-5.51c2.12-1.84,4.38-1.52,5.1-3.1l1.88,4.2c-1.67,1.33-3.22,2.81-4.63,4.41Z"/>
        <path id="d_02_2" data-name="d 02 2" class="cls-12" d="M36.49,35.42c.55.04,1.08.21,1.55.49.88.52.98,1.05.98,1.05,2.27-1.88,4.32-1.52,5.1-3.1,0,0,0-3.5-2.63-5.33-.85-.58-1.83-.95-2.85-1.08-.07,1.02-.63,5.7-2.15,7.97Z"/>
        <path id="_02-2" data-name=" 02-2" class="cls-17" d="M36.49,35.42h-5.35c.58-1.02,1.03-2.1,1.36-3.22.39-1.53-.64-4.75-.64-4.75h6.79c-.27,3.49-1.38,7.05-2.15,7.97Z"/>
        <path id="_01" data-name=" 01" class="cls-12" d="M31.14,35.42l-2.5,1.83s.75-.29-.63-5.14c.57-1.75,1.02-3.5,3.85-4.66-.06.17,1.02,2.97.69,4.49-.31,1.22-.78,2.39-1.41,3.49Z"/>
        <path id="_01-2" data-name=" 01-2" class="cls-26" d="M28.64,37.25l-1.18.53s.72-1.09-.36-2.87c.88-.54.88-2.28.88-2.79,1.39,4.85.67,5.14.67,5.14Z"/>
      </g>
      <path class="cls-25" d="M25.67,45.27l-6.04,2.43c-.29.15-.65.1-.88-.14l5.15-2.15c.59,0,1.18-.05,1.76-.13Z"/>
      <polygon id="IN" class="cls-25" points="20.69 40.13 19.83 40.68 18.99 46.84 18.65 46.84 18.75 47.61 25.25 45.19 24.95 43.68 23.99 41.77 21.19 40.01 20.69 40.13"/>
      <polygon id="IN-2" class="cls-17" points="16.5 44.81 18.88 47.12 19.43 43.66 16.5 44.81"/>
      <path id="D_05" data-name="D 05" class="cls-12" d="M27.34,52.03c3.36-.8,6.6-2.04,9.64-3.68,5.77-2.98,6.55-4.77,6.55-4.77l4.49.39s-.88,5.26-16.25,11.76c-1.36-1.05-4.42-3.71-4.42-3.71Z"/>
      <path id="D_04" data-name="D 04" class="cls-26" d="M26.29,49.84c2.98-.93,5.9-2.01,8.76-3.25,4.68-2.27,6.3-4.13,6.3-4.13.51.69,1.32,1.1,2.18,1.11,0,0-.67,1.81-6.55,4.77-3.05,1.61-6.29,2.85-9.64,3.68-.51-.64-.87-1.39-1.05-2.19Z"/>
      <path id="_03-2" data-name=" 03-2" class="cls-25" d="M24.95,43.89c2.85-.68,5.62-1.67,8.25-2.95,2.13-1,4.1-2.34,5.82-3.95l2.33,5.47s-1.02,1.3-4.87,3.38c-3.29,1.61-6.7,2.94-10.21,3.99l-1.32-5.95Z"/>
      <path id="_02-3" data-name=" 02-3" class="cls-12" d="M23.9,41.77c2.57-.77,5.1-1.68,7.58-2.72,1.83-.98,3.51-2.2,5.01-3.64,1.32.11,2.48,1.02,2.53,1.54-1.89,1.77-4.06,3.21-6.43,4.26-2.44,1.15-5,2.03-7.64,2.63-.14-.78-.51-1.5-1.05-2.07Z"/>
      <path id="_01_top" data-name=" 01 top" class="cls-17" d="M21.38,40.02s5.08-1.91,6.33-2.35c1.26-.56,2.42-1.32,3.43-2.26h5.35c-1.49,1.45-3.17,2.67-5.01,3.64-2.47,1.06-5,1.97-7.58,2.72l-2.52-1.75Z"/>
    </g>
    <path id="_03-3" data-name=" 03-3" class="cls-3" d="M20.43,40.13c.58-.34,5.47-2.1,6.82-2.63,1.03-.48,1.97-1.12,2.79-1.91.33-.32.88-.18,1.09-.18-1.01.94-2.16,1.7-3.43,2.26-1.17.42-6.33,2.35-6.33,2.35-.32-.08-.65-.05-.95.11Z"/>
    <path id="D_05-2" data-name="D 05-2" class="cls-2" d="M31.82,56.5v-.72c13.91-5.7,16.19-11.62,16.19-11.62,0,0-2.77,7-16.19,12.34Z"/>
    <path class="cls-2" d="M17.04,45.2s1.53,1.38,1.71,1.52.11.16.24.16.14,0,.15-.09.64-5.9.64-5.91c.12-.33.38-.58.71-.7.34-.18.75-.18,1.09,0h0l2.34,1.75c.66.65,1.12,1.48,1.31,2.38l1.33,5.98s.48,1.75.94,2.01l4.3,3.46"/>
    <path class="cls-2" d="M50.02,38.07h-4.02c.68-.95,1.85-3.07-.72-8.25l2.55.12c2.76,2.86,2.19,7.13,2.19,8.13Z"/>
    <path class="cls-2" d="M46.79,34.26c-.48-2.22-1.3-4.35-2.45-6.32.29.96.42,1.97.39,2.98-.11,1.01-.31,2.01-.6,2.99,0,0,1.75,4.06,1.87,4.18.73-1.13,1.01-2.5.79-3.83Z"/>
    <path id="_06-3" data-name=" 06-3" class="cls-2" d="M27.1,34.91l-2.57.57c0-.48-4.01-3.71-4.59-4.06l2.07-1.09c1.29.78,5.07,3.49,5.09,4.57Z"/>
    <path id="_03-4" data-name=" 03-4" class="cls-2" d="M36.17,19.56c3.5,2.2,2.46,5.74,2.49,7.54"/>
    <path id="_04-2" data-name=" 04-2" class="cls-2" d="M26.91,19.53c1.81,1.09,3.41,1.97,4.95,7.91-.95.28-1.79.85-2.4,1.62-.78.84-1.29,1.9-1.45,3.04,0-1.31-2.2-4.38-5.07-5.76"/>
    <g class="cls-1">
      <g class="cls-29">
        <path id="_06-4" data-name=" 06-4" class="cls-11" d="M26.7,38.82h-3.14c1.08-.74,1.49-2.14.97-3.35l2.57-.6c.31.6,1.34,2.44-.4,3.94Z"/>
        <path id="d_03_2" data-name="d 03 2" class="cls-11" d="M43.55,43.58c-.86-.02-1.67-.43-2.2-1.11,1.45-1.56,3-3.02,4.63-4.38h0s-1.67,4.85-2.44,5.49Z"/>
        <path id="d_02_4" data-name="d 02 4" class="cls-11" d="M36.49,35.42c.55.04,1.08.21,1.55.49.88.52.98,1.05.98,1.05,2.27-1.88,4.32-1.54,5.1-3.12,0,0,0-3.46-2.63-5.32-.85-.58-1.83-.95-2.85-1.08-.07,1.02-.63,5.7-2.15,7.97Z"/>
        <path id="_02-5" data-name=" 02-5" class="cls-11" d="M36.49,35.42h-5.35c.58-1.02,1.03-2.1,1.36-3.22.39-1.53-.64-4.75-.64-4.75h6.79c-.27,3.49-1.38,7.05-2.15,7.97Z"/>
        <path id="_01-4" data-name=" 01-4" class="cls-11" d="M28.64,37.25l-1.18.53s.72-1.11-.36-2.89c1.1-.57.59-1.9.88-2.78,1.39,4.85.67,5.14.67,5.14Z"/>
      </g>
    </g>
    <path class="cls-2" d="M19.36,44.16l-.25,2.67c-.41.19-1.96-1.58-2.06-1.75s2.18-.84,2.31-.92Z"/>
    <path id="D_05-3" data-name="D 05-3" class="cls-2" d="M27.34,52.03c3.33-.91,6.55-2.14,9.64-3.68,5.83-2.88,6.55-4.77,6.55-4.77l4.49.39s-1.4,5.68-16.21,11.79c-1.38-1.06-4.46-3.73-4.46-3.73Z"/>
    <path id="D_04-2" data-name="D 04-2" class="cls-2" d="M26.29,49.84c2.98-.93,5.9-2.01,8.76-3.25,4.68-2.27,6.3-4.13,6.3-4.13.51.69,1.32,1.1,2.18,1.11,0,0-.67,1.81-6.55,4.77-3.05,1.61-6.29,2.85-9.64,3.68-.51-.64-.87-1.39-1.05-2.19Z"/>
    <path id="_03-5" data-name=" 03-5" class="cls-2" d="M24.95,43.89c2.85-.68,5.62-1.67,8.25-2.95,2.13-1,4.1-2.34,5.82-3.95l2.33,5.47s-1.02,1.3-4.87,3.38c-3.29,1.61-6.7,2.94-10.21,3.99l-1.32-5.95Z"/>
    <path id="_02-6" data-name=" 02-6" class="cls-2" d="M23.9,41.77c2.57-.77,5.1-1.68,7.58-2.72,1.83-.98,3.51-2.2,5.01-3.64,1.32.11,2.48,1.02,2.53,1.54-1.89,1.77-4.06,3.21-6.43,4.26-2.44,1.15-5,2.03-7.64,2.63-.14-.78-.51-1.5-1.05-2.07Z"/>
    <path class="cls-2" d="M36.46,35.42c-1.49,1.45-3.17,2.67-5.01,3.64-2.47,1.06-5,1.97-7.58,2.72"/>
    <path class="cls-2" d="M21.2,40.02l6.48-2.35c1.26-.56,2.42-1.32,3.43-2.26"/>
    <path id="_03-6" data-name=" 03-6" class="cls-2" d="M20.24,40.23c.58-.33,5.66-2.21,7.01-2.73.91-.39,1.74-.93,2.46-1.61.37-.37.9-.55,1.42-.47-1.01.94-2.16,1.7-3.43,2.26l-6.5,2.35c-.21-.13-.8.11-.96.21Z"/>
    <path id="D_05-4" data-name="D 05-4" class="cls-2" d="M31.82,56.5v-.72c13.91-5.33,16.19-11.62,16.19-11.62,0,0-2.94,7.31-16.19,12.34Z"/>
    <path id="contour_1px-2" data-name="contour 1px" class="cls-9" d="M26.73,19.02s-4.02,1.75-4.27,7.33c-.07.6-.33,3.7-.83,3.99l-1.95.88v.66c1.46,1.03,2.82,2.21,4.06,3.5,0,0,1.46,1.45-.43,3.02-1.45.6-2.63,1.24-2.63,1.24l-1.27.76-.46,3.36c0,.05-2.44,1.06-2.44,1.06v.6l2.08,1.87c.29.24.7.29,1.04.14l5.48-1.75.88,4.7.88,1.93,4.88,3.94c13.6-5.3,16.57-12.09,16.57-12.09.88-1.93,1.47-3.98,1.75-6.09.14-.99.76-5.76-2-8.65l-2.55-.12c-.28-.59-.79-.72-1.14-1.39,0,0-3.28-8.89-8.05-8.89h-9.59Z"/>
  </g>
</svg>