<?xml version="1.0" encoding="utf-8"?>
<!-- Generator: Adobe Illustrator 28.3.0, SVG Export Plug-In . SVG Version: 6.00 Build 0)  -->
<svg version="1.1" id="Layer_1" xmlns="http://www.w3.org/2000/svg" xmlns:xlink="http://www.w3.org/1999/xlink" x="0px" y="0px"
	 viewBox="0 0 64 64" style="enable-background:new 0 0 64 64;" xml:space="preserve">
<style type="text/css">
	.blue_x0020_LEFT{fill:url(#SVGID_1_);stroke:#003755;stroke-miterlimit:10;}
	.st0{fill:url(#SVGID_00000073699016686880930790000001027271378558419584_);}
	.st1{fill:#323232;}
	.st2{fill:url(#SVGID_00000073694688817246759670000010880274754488599453_);}
	.st3{fill:url(#SVGID_00000068656219107170955270000014419408235970870402_);}
	.st4{fill:#6D6E71;}
	.st5{fill:url(#SVGID_00000087380586515947762390000011233225834145312178_);}
	.st6{fill:url(#SVGID_00000086663416760894231410000017380546264329900431_);}
	.st7{fill:#003755;}
	.st8{fill:url(#SVGID_00000106849002415786777970000000979339246565755569_);}
	.st9{fill:url(#SVGID_00000034792152617993613790000017542332238690165903_);}
	.st10{fill:url(#SVGID_00000034776419295995046220000010109719229881237379_);}
	.st11{fill:url(#SVGID_00000163789978355895889550000005723026673345641909_);}
	.st12{fill:url(#SVGID_00000088131114529278331870000007230502402578450875_);}
	.st13{fill:url(#SVGID_00000155852629519826206150000000536607969529234580_);}
	.st14{fill:url(#SVGID_00000134248220865578772660000003614829211883199616_);}
	.st15{fill:url(#SVGID_00000005976254181612313440000002995010627717344174_);}
	.st16{fill:url(#SVGID_00000011748479347467684590000003428243043389878203_);}
	.st17{fill:url(#SVGID_00000142882859633189958790000009156887128057309102_);}
	.st18{fill:url(#SVGID_00000158012348644565972440000013280775875331510427_);}
	.st19{fill:url(#SVGID_00000062889172411025537240000018249641279178548384_);}
	.st20{fill:#58595B;}
</style>
<linearGradient id="SVGID_1_" gradientUnits="userSpaceOnUse" x1="0" y1="0" x2="0.5" y2="0.866">
	<stop  offset="0" style="stop-color:#82BEDC"/>
	<stop  offset="1" style="stop-color:#285A78"/>
</linearGradient>
<g>
	
		<linearGradient id="SVGID_00000139286356481343785350000017065726434891131520_" gradientUnits="userSpaceOnUse" x1="-0.7878" y1="11.3369" x2="23.3677" y2="53.1756" gradientTransform="matrix(1 0 -0.1647 1 23.2241 0)">
		<stop  offset="0" style="stop-color:#D7D7D7"/>
		<stop  offset="6.353843e-02" style="stop-color:#CECECE"/>
		<stop  offset="0.3317" style="stop-color:#ABABAB"/>
		<stop  offset="0.5848" style="stop-color:#929292"/>
		<stop  offset="0.8146" style="stop-color:#828282"/>
		<stop  offset="1" style="stop-color:#7D7D7D"/>
	</linearGradient>
	<path style="fill:url(#SVGID_00000139286356481343785350000017065726434891131520_);" d="M10.6,50.7c-0.9,0-1.7-0.3-2.2-0.9
		c-0.5-0.6-0.7-1.3-0.5-2.1L13,16.2c0.2-0.9,1.1-1.6,2-1.6h34.1c0.4,0,0.8,0.2,1.1,0.5c0.3,0.3,0.4,0.7,0.3,1.1l-5.1,31.6
		c-0.3,1.6-1.9,3-3.7,3H10.6z"/>
	<path class="st1" d="M49.1,15c0.4,0,0.6,0.2,0.7,0.3c0.1,0.1,0.3,0.4,0.2,0.7l-5.1,31.5c-0.2,1.4-1.7,2.6-3.2,2.6h-31
		c-0.8,0-1.4-0.3-1.8-0.8c-0.4-0.5-0.5-1.1-0.4-1.7l5.1-31.5c0.1-0.7,0.8-1.2,1.6-1.2H49.1 M49.1,14H15c-1.2,0-2.3,0.9-2.5,2.1
		L7.4,47.5c-0.4,2,1.1,3.6,3.2,3.6h31c2,0,3.9-1.5,4.2-3.4L51,16.2C51.2,15.1,50.3,14,49.1,14L49.1,14z"/>
</g>
<g>
	
		<linearGradient id="SVGID_00000127044173973373865720000003209735426012742562_" gradientUnits="userSpaceOnUse" x1="9.7626" y1="43.85" x2="9.8666" y2="49.8671" gradientTransform="matrix(1 0 -0.1647 1 23.2241 0)">
		<stop  offset="0" style="stop-color:#D4D5D3"/>
		<stop  offset="3.031863e-02" style="stop-color:#DADBD9"/>
		<stop  offset="0.1398" style="stop-color:#EBEBEA"/>
		<stop  offset="0.275" style="stop-color:#F6F7F6"/>
		<stop  offset="0.4624" style="stop-color:#FDFDFD"/>
		<stop  offset="0.9581" style="stop-color:#FFFFFF"/>
		<stop  offset="0.964" style="stop-color:#FFFFFF"/>
		<stop  offset="1" style="stop-color:#FFFFFF"/>
	</linearGradient>
	<path style="fill:url(#SVGID_00000127044173973373865720000003209735426012742562_);" d="M42.4,42.8c-0.9,1.8-0.8,5.6-0.5,6.7
		l-31.3,0c-1.3,0-2.1-1.1-2.1-2.3c0-0.2,0-1.7,0-1.9c0.1-0.7,0.8-2.2,0.8-2.2s2.1-0.8,2.9-0.8C12.2,42.5,40,43.2,42.4,42.8z"/>
</g>
<g>
	
		<linearGradient id="SVGID_00000177452257863678063850000003951126882240745865_" gradientUnits="userSpaceOnUse" x1="-10.9188" y1="19.3748" x2="29.2984" y2="38.6974" gradientTransform="matrix(1 0 -0.1647 1 23.2241 0)">
		<stop  offset="0" style="stop-color:#FFFFFF"/>
		<stop  offset="0.385" style="stop-color:#FCFCFC"/>
		<stop  offset="0.6303" style="stop-color:#F4F4F4"/>
		<stop  offset="0.8361" style="stop-color:#E6E6E5"/>
		<stop  offset="1" style="stop-color:#D4D5D3"/>
	</linearGradient>
	<path style="fill:url(#SVGID_00000177452257863678063850000003951126882240745865_);" d="M7.8,48.3c-0.1-1,0-2.7,0-3.3l0-0.5
		L13.2,12c0-0.2,0.1-0.3,0.1-0.5c0.2-0.5,0.5-0.9,0.9-1.3c0.5-0.5,1.2-0.7,1.9-0.7h30.3c0.6,0,1.2,0.3,1.6,0.7
		c0.4,0.5,0.6,1.1,0.5,1.7L43.3,43c-0.2,1-1,1.7-2.1,1.7H10.4l-0.2,0c-2.2,0-2.3,1.9-2.4,3C7.8,47.9,7.8,48.1,7.8,48.3z"/>
	<path class="st1" d="M46.4,10c0.5,0,0.9,0.2,1.2,0.6c0.3,0.4,0.4,0.8,0.4,1.3l-5.1,31.1c-0.1,0.8-0.8,1.3-1.6,1.3l-30.8,0
		c-0.1,0-0.1,0-0.2,0c-0.9,0-1.5,0.3-2,0.7c0-0.2,0-0.3,0-0.4l5.4-32.4c0-0.1,0.1-0.3,0.1-0.4c0.2-0.4,0.4-0.8,0.8-1.1
		c0.5-0.4,1-0.6,1.6-0.6H46.4 M46.4,9H16.1c-0.8,0-1.6,0.3-2.2,0.9c-0.5,0.4-0.8,0.9-1,1.5c-0.1,0.2-0.1,0.4-0.2,0.6L7.3,44.4
		c0,1.1-0.2,5,0.4,5c0,0,0,0,0,0c1.4-0.3-0.4-4.2,2.6-4.2c0.1,0,0.1,0,0.2,0l30.8,0c1.3,0,2.3-0.9,2.5-2.2L48.9,12
		C49.2,10.4,48,9,46.4,9L46.4,9z"/>
</g>
<path class="st4" d="M14.4,28.3l0.2-1.1c1.1-0.5,1.9-1,2.5-1.6h0.8l-1.2,6.2h-1.3l0.8-4.3c-0.3,0.2-0.6,0.3-0.9,0.4
	S14.7,28.3,14.4,28.3z"/>
<g>
	<g>
		
			<linearGradient id="SVGID_00000044860634838091187050000001120105395591199386_" gradientUnits="userSpaceOnUse" x1="29.1352" y1="23.0027" x2="35.9867" y2="34.8698">
			<stop  offset="0" style="stop-color:#82BEDC"/>
			<stop  offset="1" style="stop-color:#285A78"/>
		</linearGradient>
		<path style="fill:url(#SVGID_00000044860634838091187050000001120105395591199386_);" d="M25.1,26.2L25,26.8h-0.6L23.6,31h0.6
			l-0.1,0.6h-1.5l0.9-5.5H25.1z"/>
		
			<linearGradient id="SVGID_00000143598015508122013420000001964244329116821686_" gradientUnits="userSpaceOnUse" x1="29.1352" y1="23.0027" x2="35.9867" y2="34.8698">
			<stop  offset="0" style="stop-color:#82BEDC"/>
			<stop  offset="1" style="stop-color:#285A78"/>
		</linearGradient>
		<path style="fill:url(#SVGID_00000143598015508122013420000001964244329116821686_);" d="M40,31.7l0.1-0.6h0.6l0.7-4.2h-0.6
			l0.1-0.6h1.5l-0.9,5.5H40z"/>
	</g>
	<g>
		<polygon class="st7" points="25.1,26.2 23.6,26.2 22.6,31.7 24.1,31.7 24.3,31 23.6,31 24.3,26.8 25,26.8 25.1,26.2 		"/>
		<polygon class="st7" points="42.5,26.2 41,26.2 40.9,26.8 41.5,26.8 40.8,31.1 40.1,31.1 40,31.7 41.5,31.7 42.5,26.2 		"/>
	</g>
</g>
<g>
	<g>
		
			<linearGradient id="SVGID_00000103963042394575544650000008059658493501471667_" gradientUnits="userSpaceOnUse" x1="27.2195" y1="32.5811" x2="34.071" y2="44.4482">
			<stop  offset="0" style="stop-color:#82BEDC"/>
			<stop  offset="1" style="stop-color:#285A78"/>
		</linearGradient>
		<path style="fill:url(#SVGID_00000103963042394575544650000008059658493501471667_);" d="M23.2,35.8l-0.1,0.6h-0.6l-0.7,4.2h0.6
			l-0.1,0.6h-1.5l0.9-5.5H23.2z"/>
		
			<linearGradient id="SVGID_00000060737543563044614290000003201660230195798691_" gradientUnits="userSpaceOnUse" x1="27.2195" y1="32.5811" x2="34.071" y2="44.4482">
			<stop  offset="0" style="stop-color:#82BEDC"/>
			<stop  offset="1" style="stop-color:#285A78"/>
		</linearGradient>
		<path style="fill:url(#SVGID_00000060737543563044614290000003201660230195798691_);" d="M38.1,41.2l0.1-0.6h0.6l0.7-4.2H39
			l0.1-0.6h1.5l-0.9,5.5H38.1z"/>
	</g>
	<g>
		<polygon class="st7" points="23.2,35.8 21.7,35.8 20.7,41.2 22.2,41.2 22.3,40.6 21.7,40.6 22.4,36.4 23.1,36.4 23.2,35.8 		"/>
		<polygon class="st7" points="40.6,35.8 39.1,35.8 39,36.4 39.6,36.4 38.9,40.6 38.2,40.6 38.1,41.2 39.6,41.2 40.6,35.8 		"/>
	</g>
</g>
<g>
	<g>
		
			<linearGradient id="SVGID_00000088134397965363657990000004418879802981570703_" gradientUnits="userSpaceOnUse" x1="19.8383" y1="12.2226" x2="25.3785" y2="21.8184">
			<stop  offset="0" style="stop-color:#82BEDC"/>
			<stop  offset="1" style="stop-color:#285A78"/>
		</linearGradient>
		<path style="fill:url(#SVGID_00000088134397965363657990000004418879802981570703_);" d="M17.6,14.3l-0.1,0.6h-0.6l-0.6,4.2h0.6
			l-0.1,0.6h-1.3l0.8-5.5H17.6z"/>
		
			<linearGradient id="SVGID_00000107577397708497499370000002972439805634001549_" gradientUnits="userSpaceOnUse" x1="19.8383" y1="12.2226" x2="25.3785" y2="21.8184">
			<stop  offset="0" style="stop-color:#82BEDC"/>
			<stop  offset="1" style="stop-color:#285A78"/>
		</linearGradient>
		<path style="fill:url(#SVGID_00000107577397708497499370000002972439805634001549_);" d="M27.6,19.7l0.1-0.6h0.6l0.6-4.2h-0.6
			l0.1-0.6h1.3L29,19.7H27.6z"/>
	</g>
	<g>
		<polygon class="st7" points="17.6,14.3 16.3,14.3 15.4,19.7 16.7,19.7 16.8,19.1 16.3,19.1 16.9,14.9 17.5,14.9 17.6,14.3 		"/>
		<polygon class="st7" points="29.8,14.3 28.5,14.3 28.4,14.9 28.9,14.9 28.3,19.1 27.7,19.1 27.6,19.7 29,19.7 29.8,14.3 		"/>
	</g>
</g>
<g>
	<g>
		
			<linearGradient id="SVGID_00000174568934176853102610000013111161951905156227_" gradientUnits="userSpaceOnUse" x1="70.9985" y1="10.4841" x2="75.6578" y2="10.4841" gradientTransform="matrix(0.9872 0.1594 -0.1594 0.9872 -17.8106 20.064)">
			<stop  offset="0.18" style="stop-color:#BEBEBE"/>
			<stop  offset="0.32" style="stop-color:#F5F5F5"/>
			<stop  offset="0.6" style="stop-color:#C6C6C5"/>
			<stop  offset="0.8" style="stop-color:#DDDDDD"/>
			<stop  offset="0.96" style="stop-color:#A39F9F"/>
		</linearGradient>
		<polygon style="fill:url(#SVGID_00000174568934176853102610000013111161951905156227_);" points="50,53.8 48.9,51.9 52.2,33.8 
			55,30.2 56.5,34.4 53.2,52.5 51.4,54 		"/>
		<path class="st1" d="M54.9,31l1.2,3.4l-3.3,17.9l-1.6,1.4l-1-0.1l-1-1.7l3.3-17.9L54.9,31 M55.2,29.5l-3.3,4.1L48.5,52l1.3,2.2
			l1.7,0.2l2-1.7l3.3-18.4L55.2,29.5L55.2,29.5z"/>
	</g>
	<g>
		
			<linearGradient id="SVGID_00000111894959091786423050000000022366710586903433_" gradientUnits="userSpaceOnUse" x1="73.2917" y1="-20.5795" x2="73.6132" y2="-20.0226" gradientTransform="matrix(0.9872 0.1594 -8.565709e-02 0.5305 -19.538 30.7583)">
			<stop  offset="0.18" style="stop-color:#BEBEBE"/>
			<stop  offset="0.32" style="stop-color:#F5F5F5"/>
			<stop  offset="0.6" style="stop-color:#C6C6C5"/>
			<stop  offset="0.8" style="stop-color:#DDDDDD"/>
			<stop  offset="0.96" style="stop-color:#A39F9F"/>
		</linearGradient>
		<polygon style="fill:url(#SVGID_00000111894959091786423050000000022366710586903433_);" points="54.5,31.8 54.8,31.5 55,31.9 		
			"/>
		<polygon class="st1" points="55,30.6 53.6,32.2 55.7,32.5 55,30.6 		"/>
	</g>
	<g>
		
			<linearGradient id="SVGID_00000004538410624365649250000013089616833542511510_" gradientUnits="userSpaceOnUse" x1="71.3038" y1="19.4473" x2="75.0232" y2="24.2079" gradientTransform="matrix(0.9872 0.1594 -0.1594 0.9872 -17.8106 20.064)">
			<stop  offset="0" style="stop-color:#FFFFFF"/>
			<stop  offset="6.898994e-03" style="stop-color:#F1F1F1"/>
			<stop  offset="3.104551e-02" style="stop-color:#C6C5C6"/>
			<stop  offset="5.774427e-02" style="stop-color:#9F9D9E"/>
			<stop  offset="8.644816e-02" style="stop-color:#7E7B7C"/>
			<stop  offset="0.1177" style="stop-color:#615E5F"/>
			<stop  offset="0.1524" style="stop-color:#4A4748"/>
			<stop  offset="0.1919" style="stop-color:#393536"/>
			<stop  offset="0.2393" style="stop-color:#2C2829"/>
			<stop  offset="0.3024" style="stop-color:#252122"/>
			<stop  offset="0.445" style="stop-color:#231F20"/>
			<stop  offset="0.5825" style="stop-color:#252122"/>
			<stop  offset="0.6623" style="stop-color:#2E2A2B"/>
			<stop  offset="0.7273" style="stop-color:#3B3839"/>
			<stop  offset="0.7843" style="stop-color:#4F4C4D"/>
			<stop  offset="0.8361" style="stop-color:#686667"/>
			<stop  offset="0.8842" style="stop-color:#888586"/>
			<stop  offset="0.9294" style="stop-color:#ADABAC"/>
			<stop  offset="0.9712" style="stop-color:#D7D6D7"/>
			<stop  offset="0.9749" style="stop-color:#DBDADB"/>
		</linearGradient>
		<path style="fill:url(#SVGID_00000004538410624365649250000013089616833542511510_);" d="M53.5,52.5l-5-0.7l-0.3,1.6
			c-0.1,0.6,0.6,1.3,1.6,1.4l1.4,0.2c1,0.1,1.9-0.3,2-0.9L53.5,52.5L53.5,52.5z"/>
	</g>
	<g>
		
			<linearGradient id="SVGID_00000176737649512467563830000009199011817618113446_" gradientUnits="userSpaceOnUse" x1="48.7715" y1="65.3821" x2="58.8133" y2="65.3084" gradientTransform="matrix(-0.9872 -0.1594 0.1594 -0.9872 92.9279 114.5529)">
			<stop  offset="0" style="stop-color:#8CD7F5"/>
			<stop  offset="5.268880e-02" style="stop-color:#87D0EE"/>
			<stop  offset="0.1277" style="stop-color:#77BEDC"/>
			<stop  offset="0.2159" style="stop-color:#5F9FBD"/>
			<stop  offset="0.3137" style="stop-color:#3C7593"/>
			<stop  offset="0.3277" style="stop-color:#376E8C"/>
			<stop  offset="0.8799" style="stop-color:#8CD7F5"/>
		</linearGradient>
		<path style="fill:url(#SVGID_00000176737649512467563830000009199011817618113446_);" d="M49.5,48.7L52,34.8
			c0-0.2,0.2-0.3,0.5-0.3l3.4,0.5c0.1,0,0.3,0.1,0.3,0.2c0,0.1,0.1,0.1,0.1,0.2l-2.5,13.9L49.5,48.7z"/>
		<path class="st7" d="M52.5,34.1l0,0.8l3.3,0.5c0,0,0,0,0.1,0c0,0,0,0,0,0l-2.5,13.5l-3.5-0.5l2.4-13.5c0,0,0,0,0.1,0L52.5,34.1
			 M52.5,34.1c-0.4,0-0.8,0.3-0.8,0.6L49,49l5,0.7l2.6-14.2c0.1-0.4-0.2-0.8-0.7-0.9l-3.3-0.5C52.6,34.1,52.5,34.1,52.5,34.1
			L52.5,34.1z"/>
	</g>
</g>
<g>
	
		<linearGradient id="SVGID_00000007422047004068933450000018171871797672725158_" gradientUnits="userSpaceOnUse" x1="21.0674" y1="17.7649" x2="23.1584" y2="21.3866">
		<stop  offset="0" style="stop-color:#82BEDC"/>
		<stop  offset="1" style="stop-color:#285A78"/>
	</linearGradient>
	<rect x="18.8" y="19.1" style="fill:url(#SVGID_00000007422047004068933450000018171871797672725158_);" width="6.7" height="1"/>
	<polygon class="st7" points="25.5,19.1 18.8,19.1 18.8,20.1 25.5,20.1 25.5,19.1 	"/>
</g>
<g>
	
		<linearGradient id="SVGID_00000109719141542592538850000015687406512784533903_" gradientUnits="userSpaceOnUse" x1="5.0804" y1="46.4424" x2="9.7819" y2="54.5857" gradientTransform="matrix(1 0 -0.1647 1 23.2241 0)">
		<stop  offset="0" style="stop-color:#A0E1FA"/>
		<stop  offset="0.5831" style="stop-color:#73C3E1"/>
	</linearGradient>
	<path style="fill:url(#SVGID_00000109719141542592538850000015687406512784533903_);" d="M18.5,47.8c0-0.3,0.4-0.5,0.7-0.5h7.5
		L26,53.6l-3.3-2.4l-4.8,2.4L18.5,47.8z"/>
	<g>
		<path class="st7" d="M26.2,47.8l-0.7,4.9l-2.4-1.7l-0.5-0.4l-0.5,0.3l-3.7,1.9l0.6-4.8c0,0,0.1-0.1,0.3-0.1H26.2 M27.4,46.8h-8.1
			c-0.6,0-1.1,0.4-1.2,0.9l-0.9,6.7l5.4-2.7l3.8,2.7L27.4,46.8L27.4,46.8z"/>
	</g>
</g>
<g>
	
		<linearGradient id="SVGID_00000086683161144921585440000017242343484820629424_" gradientUnits="userSpaceOnUse" x1="30.5262" y1="28.2222" x2="33.8145" y2="33.9178">
		<stop  offset="0" style="stop-color:#82BEDC"/>
		<stop  offset="1" style="stop-color:#285A78"/>
	</linearGradient>
	<rect x="26.4" y="30.6" style="fill:url(#SVGID_00000086683161144921585440000017242343484820629424_);" width="11.5" height="1"/>
	<polygon class="st7" points="37.9,30.6 26.4,30.6 26.4,31.5 37.9,31.5 37.9,30.6 	"/>
</g>
<g>
	
		<linearGradient id="SVGID_00000070108807022764779970000000894270623052941230_" gradientUnits="userSpaceOnUse" x1="28.6105" y1="37.8008" x2="31.8988" y2="43.4964">
		<stop  offset="0" style="stop-color:#82BEDC"/>
		<stop  offset="1" style="stop-color:#285A78"/>
	</linearGradient>
	<rect x="24.5" y="40.2" style="fill:url(#SVGID_00000070108807022764779970000000894270623052941230_);" width="11.5" height="1"/>
	<polygon class="st7" points="36,40.2 24.5,40.2 24.5,41.1 36,41.1 36,40.2 	"/>
</g>
<path class="st4" d="M13.8,37.2L12.5,37c0.1-0.6,0.3-1,0.7-1.3s0.8-0.5,1.4-0.5c0.6,0,1.1,0.2,1.5,0.5s0.6,0.7,0.6,1.2
	c0,0.2,0,0.5-0.1,0.7c-0.1,0.2-0.3,0.5-0.5,0.8c-0.2,0.2-0.5,0.5-0.8,0.8s-0.6,0.6-0.8,0.7s-0.2,0.3-0.4,0.4h2.3l-0.2,1.1h-4
	c0-0.3,0.1-0.6,0.3-0.9c0.1-0.3,0.3-0.5,0.5-0.8c0.2-0.2,0.6-0.6,1.2-1.1c0.4-0.4,0.7-0.7,0.8-0.8c0.2-0.2,0.3-0.4,0.4-0.6
	c0.1-0.2,0.1-0.3,0.1-0.4c0-0.2-0.1-0.4-0.2-0.5s-0.3-0.2-0.5-0.2c-0.2,0-0.4,0.1-0.5,0.2C14,36.6,13.9,36.8,13.8,37.2z"/>
<path class="st20" d="M43.7,14l-2.3,2.3c-0.2,0.2-0.6,0.3-0.9,0.1l-1.1-0.8c-0.3-0.2-0.3-0.7-0.1-1l2.2-2.2c-1.3-0.3-2.8,0-3.7,1.1
	c-0.8,0.9-1,2.2-0.6,3.2l-4.6,4.5c-0.5,0.5-0.3,1.3,0.4,1.8l0,0c0.7,0.5,1.6,0.6,2.1,0.1l4.4-4.4c1.3,0.3,2.7-0.1,3.6-1.1
	C44.1,16.6,44.3,15.1,43.7,14z"/>
</svg>
