<?xml version="1.0" encoding="UTF-8"?><svg id="FINAL_ART" xmlns="http://www.w3.org/2000/svg" xmlns:xlink="http://www.w3.org/1999/xlink" viewBox="0 0 64 64"><defs><linearGradient id="linear-gradient" x1="49.18" y1="16.77" x2="40.25" y2="37.93" gradientUnits="userSpaceOnUse"><stop offset="0" stop-color="#8fd2eb"/><stop offset=".13" stop-color="#25667e"/><stop offset=".22" stop-color="#8fd2eb"/><stop offset=".77" stop-color="#78bbd4"/><stop offset=".91" stop-color="#8dd0e9"/><stop offset="1" stop-color="#286a82"/></linearGradient><linearGradient id="linear-gradient-2" x1="36.56" y1="19.95" x2="36.56" y2="23.13" gradientUnits="userSpaceOnUse"><stop offset="0" stop-color="#8fd2eb"/><stop offset="1" stop-color="#286a82"/></linearGradient><linearGradient id="linear-gradient-3" x1="29.07" y1="23.65" x2="17.02" y2="33.88" gradientUnits="userSpaceOnUse"><stop offset="0" stop-color="#fafafa"/><stop offset=".22" stop-color="#f5f5f5"/><stop offset=".45" stop-color="#e8e8e8"/><stop offset=".7" stop-color="#d2d2d2"/><stop offset=".71" stop-color="#d1d1d1"/><stop offset="1" stop-color="#989898"/></linearGradient><linearGradient id="linear-gradient-4" x1="16.3" y1="22.13" x2="54.49" y2="22.13" gradientUnits="userSpaceOnUse"><stop offset="0" stop-color="#d3d3d3"/><stop offset=".91" stop-color="#b5b5b5"/><stop offset="1" stop-color="#777"/></linearGradient><linearGradient id="linear-gradient-5" x1="79.08" y1="5.64" x2="-15.01" y2="39.99" gradientUnits="userSpaceOnUse"><stop offset="0" stop-color="#fafafa"/><stop offset="1" stop-color="#d0d0d0"/></linearGradient><linearGradient id="linear-gradient-6" x1="38.34" y1="35.14" x2="17.9" y2="46.03" gradientUnits="userSpaceOnUse"><stop offset="0" stop-color="#fafafa"/><stop offset="1" stop-color="#d0d1d3"/></linearGradient><linearGradient id="linear-gradient-7" x1="34.36" y1="39.18" x2="16.31" y2="44" gradientUnits="userSpaceOnUse"><stop offset="0" stop-color="#fafafa"/><stop offset="1" stop-color="#a8a8a8"/></linearGradient><linearGradient id="linear-gradient-8" x1="42.31" y1="29.81" x2="19.21" y2="47.9" xlink:href="#linear-gradient-5"/><linearGradient id="linear-gradient-9" x1="53.12" y1="15.8" x2="30.03" y2="42.97" xlink:href="#linear-gradient"/><linearGradient id="linear-gradient-10" x1="55.98" y1="18.7" x2="8.36" y2="64.94" gradientUnits="userSpaceOnUse"><stop offset="0" stop-color="#92d5ee"/><stop offset=".48" stop-color="#599bb3"/><stop offset="1" stop-color="#185971"/></linearGradient><linearGradient id="linear-gradient-11" x1="13.31" y1="38.15" x2="18.73" y2="38.15" xlink:href="#linear-gradient-6"/><linearGradient id="linear-gradient-12" x1="25.04" y1="43.01" x2="8.03" y2="40.92" xlink:href="#linear-gradient-5"/><linearGradient id="linear-gradient-13" x1="25.26" y1="39.29" x2="-5.82" y2="51.95" xlink:href="#linear-gradient-5"/><linearGradient id="linear-gradient-14" x1="10.36" y1="43.23" x2="39.86" y2="18.04" gradientUnits="userSpaceOnUse"><stop offset="0" stop-color="#286a82"/><stop offset=".09" stop-color="#8dd0e9"/><stop offset=".23" stop-color="#78bbd4"/><stop offset=".78" stop-color="#8fd2eb"/><stop offset=".87" stop-color="#25667e"/><stop offset=".99" stop-color="#8fd2eb"/></linearGradient><linearGradient id="linear-gradient-15" x1="40.16" y1="23.03" x2="-39.09" y2="79.44" xlink:href="#linear-gradient-10"/><linearGradient id="linear-gradient-16" x1="41.61" y1="33.83" x2="51.94" y2="51.73" gradientUnits="userSpaceOnUse"><stop offset="0" stop-color="#f5f6f6"/><stop offset=".99" stop-color="#d2d3d3"/></linearGradient><linearGradient id="linear-gradient-17" x1="46.35" y1="-5029.48" x2="49.77" y2="-5026.06" gradientTransform="translate(0 5067.76)" gradientUnits="userSpaceOnUse"><stop offset="0" stop-color="#f5f6f6"/><stop offset=".09" stop-color="#f1f2f2"/><stop offset=".18" stop-color="#e6e6e6"/><stop offset=".26" stop-color="#d3d4d4"/><stop offset=".35" stop-color="#b8b9b9"/><stop offset=".43" stop-color="#979797"/><stop offset=".47" stop-color="#828282"/><stop offset=".49" stop-color="#909090"/><stop offset=".55" stop-color="#afafaf"/><stop offset=".61" stop-color="#c8c9c9"/><stop offset=".67" stop-color="#dcdddd"/><stop offset=".75" stop-color="#eaebeb"/><stop offset=".84" stop-color="#f2f3f3"/><stop offset="1" stop-color="#f5f6f6"/></linearGradient><linearGradient id="linear-gradient-18" x1="37.18" y1="-5020.31" x2="40.61" y2="-5016.89" gradientTransform="translate(0 5067.76)" gradientUnits="userSpaceOnUse"><stop offset="0" stop-color="#f5f6f6"/><stop offset=".07" stop-color="#eff0f0"/><stop offset=".15" stop-color="#e0e0e0"/><stop offset=".24" stop-color="#c6c7c7"/><stop offset=".34" stop-color="#a3a3a3"/><stop offset=".42" stop-color="#828282"/><stop offset=".47" stop-color="#929292"/><stop offset=".57" stop-color="#b5b6b6"/><stop offset=".68" stop-color="#d1d2d2"/><stop offset=".78" stop-color="#e5e6e6"/><stop offset=".89" stop-color="#f1f2f2"/><stop offset="1" stop-color="#f5f6f6"/></linearGradient><linearGradient id="linear-gradient-19" x1="52.09" y1="-5031.25" x2="53.89" y2="-5028.13" gradientTransform="translate(0 5067.76)" xlink:href="#linear-gradient-16"/></defs><path d="M48.06,17.03c.48-1.28,1.45-2.16,2.38-2.25-.17-.12-.35-.19-.56-.23-1.15-.22-2.33.97-2.66,2.64-.18.94-.05,1.83.3,2.47l1.9.93s0,0,0,0l-1.5-1.07c-.24-.69-.22-1.6.12-2.49Z" fill="url(#linear-gradient)" stroke="#00415f" stroke-linecap="round" stroke-linejoin="round"/><path d="M51.39,17.99c.26-1.38-.15-2.67-.94-3.2-.93.09-1.91.97-2.38,2.25-.33.89-.35,1.8-.12,2.49l1.5,1.07c.89-.26,1.69-1.27,1.94-2.6Z" fill="#276880" stroke="#00415f" stroke-linecap="round" stroke-linejoin="round"/><g opacity=".3"><path d="M35.63,19.13c.88-1.17,2.21-1.72,3.23-1.42,0,0,0,0,0,0-1.05-.78-2.76-.28-3.81,1.13-1.05,1.41-1.05,3.19,0,3.97.18.13.37.23.58.29-1.05-.79-1.04-2.56,0-3.97Z" fill="url(#linear-gradient-2)" stroke="#00415f" stroke-linecap="round" stroke-linejoin="round"/><path d="M38.85,21.68c1.05-1.41,1.05-3.18,0-3.97-1.02-.31-2.36.24-3.23,1.42-1.05,1.41-1.05,3.18,0,3.97,1.03.3,2.36-.25,3.23-1.42Z" fill="#276880" stroke="#00415f" stroke-linecap="round" stroke-linejoin="round"/></g><path d="M17.66,21.97s35.21-8.03,35.69-8.14c.27-.06,2.13.59,2.93,1-1.09-2.22-2.75-2.43-3.57-2.29-.49.08-36.09,8.14-36.09,8.14,0,0-4.29,1.06-4.29,5.42,0,1.06.64,2.33,1.29,2.87-.25-.44-.23-1.28-.23-1.89,0-4.35,4.26-5.1,4.26-5.1Z" fill="url(#linear-gradient-3)"/><path d="M53.32,16.25c.01.07.02.15.02.24,0,1.54-1.49,1.88-1.49,1.88l-34.97,8.94c-.16.03-.37.06-.58.05.36.75,1.23.74,1.72.64l34.97-8.94s1.49-.34,1.49-1.88c0-.98-.8-.98-1.17-.92Z" fill="url(#linear-gradient-4)" stroke="#6d6d6d" stroke-linecap="round" stroke-linejoin="round"/><path d="M17.2,30.43c-1.81,0-3.75-.96-3.75-3.06,0-4.11,3.99-5.08,4.03-5.09.35-.08,35.46-8.1,35.94-8.21.11-.02.32-.05.58-.05.43,0,1.23.08,1.74.61.37.38.54.95.52,1.68-.13,3.59-2.64,4.59-3.71,4.86-.85.21-32.81,8.75-34.17,9.12-.35.09-.75.14-1.16.14h0ZM53.57,15.97c-.27,0-.5.06-.51.07l-35.52,8.58c-.63.15-1.78.81-1.65,2.19.09.94.69,1.48,1.63,1.48.2,0,.38-.02.54-.05l34.99-8.95c.58-.13,1.68-.75,1.68-2.13,0-.75-.43-1.19-1.16-1.19Z" fill="url(#linear-gradient-5)"/><path d="M54,14.27c.39,0,1.11.07,1.56.53.32.33.47.84.45,1.5-.13,3.42-2.51,4.37-3.52,4.62-.85.21-32.82,8.75-34.18,9.12-.33.09-.71.13-1.1.13-1.3,0-3.5-.59-3.5-2.81,0-3.89,3.68-4.81,3.83-4.85.35-.08,35.46-8.1,35.94-8.21.08-.02.27-.05.53-.05M17.54,28.54c.19,0,.39-.02.61-.07l34.96-8.94c.65-.15,1.88-.84,1.88-2.37,0-.64-.27-.99-.51-1.16-.24-.18-.55-.28-.91-.28-.3,0-.55.07-.55.07l-35.53,8.59c-.7.17-1.99.91-1.84,2.45.1,1.07.81,1.71,1.88,1.71M54,13.77c-.29,0-.53.03-.64.06-.48.11-35.94,8.21-35.94,8.21,0,0-4.22.99-4.22,5.34,0,2.31,2.12,3.31,4,3.31.43,0,.85-.05,1.22-.15,0,0,33.31-8.91,34.17-9.11,1.79-.45,3.78-1.87,3.9-5.09.08-2.19-1.53-2.55-2.5-2.55h0ZM17.54,28.04c-.59,0-1.29-.24-1.39-1.26-.15-1.53,1.46-1.92,1.46-1.92l35.53-8.59s.19-.06.44-.06c.39,0,.91.15.91.94,0,1.54-1.49,1.88-1.49,1.88l-34.97,8.94c-.14.03-.31.05-.49.05h0Z" fill="#6d6d6d"/><path d="M22.59,45.93c1.29-1.06,1.72-2.67.97-3.59-.75-.92-2.42-.8-3.71.26-1.29,1.06-1.72,2.67-.96,3.59.75.92,2.41.81,3.71-.26Z" fill="url(#linear-gradient-6)" stroke="#6d6d6d" stroke-linecap="round" stroke-linejoin="round"/><path d="M17.61,48.18s-.1-.01-.14-.04c-1.43-1-2-2.49-1.77-4.55.34-2.97,3.12-4.76,5.39-5.39.98-.27,10.05-1.65,10.44-1.71.2-.04.39-.06.57-.06.95,0,1.72.48,2.28,1.42.06.1.04.23-.04.31-.05.05-.11.07-.17.07-.04,0-.09-.01-.13-.04-.31-.19-.67-.29-1.08-.29-.18,0-.36.02-.56.06-.1.02-9.29,1.41-10.24,1.67-.46.13-4.56,1.37-5.02,4.97-.18,1.36.36,2.65.7,3.2.06.1.05.23-.04.31-.05.04-.11.07-.17.07Z" fill="url(#linear-gradient-7)"/><path d="M32.1,36.67c1.04,0,1.67.63,2.06,1.3-.33-.2-.73-.33-1.21-.33-.19,0-.39.02-.61.06,0,0-9.29,1.41-10.26,1.68-1.74.49-4.8,2.07-5.2,5.18-.18,1.36.32,2.7.74,3.37-.88-.62-1.96-1.74-1.66-4.32.36-3.12,3.46-4.69,5.21-5.18.97-.27,10.41-1.71,10.41-1.71.19-.04.37-.05.53-.05M32.1,36.17s0,0,0,0c-.2,0-.41.02-.63.06-.37.06-9.46,1.44-10.45,1.71-2.35.65-5.21,2.51-5.57,5.6-.25,2.17.36,3.74,1.87,4.79.09.06.19.09.29.09.12,0,.25-.05.34-.14.17-.16.21-.43.08-.63-.33-.52-.83-1.75-.66-3.04.44-3.44,4.39-4.64,4.84-4.76.77-.21,7.62-1.28,10.2-1.67.2-.04.37-.05.54-.05.36,0,.68.08.95.25.08.05.17.08.26.08.13,0,.25-.05.35-.14.16-.16.2-.41.08-.61-.6-1.01-1.46-1.54-2.49-1.54h0Z" fill="#6d6d6d"/><path d="M20.73,49.13c-.73,0-2.07-.14-2.9-1.09-.65-.74-.89-1.84-.71-3.28.47-3.69,4.56-4.96,5.02-5.1.95-.27,10.14-1.7,10.23-1.71.21-.04.4-.06.57-.06,1.86,0,2.27,2.09,2.27,2.82,0,.98-1.03,2.29-1.95,2.86-.98.6-10.47,5.02-10.57,5.07-.03.01-.59.34-1.41.46,0,0-.22.03-.56.03Z" fill="url(#linear-gradient-8)"/><path d="M32.95,38.14c1.65,0,2.02,1.9,2.02,2.57,0,.8-.87,2.06-1.83,2.64-.77.47-7.23,3.51-10.58,5.08,0,0-.54.3-1.3.42,0,0-.21.03-.53.03-.68,0-1.95-.13-2.72-1-.6-.68-.82-1.72-.65-3.08.45-3.53,4.4-4.76,4.85-4.89.77-.22,7.62-1.31,10.22-1.71.18-.03.35-.05.52-.05M32.95,37.64c-.19,0-.39.02-.61.06,0,0-9.29,1.44-10.26,1.72-1.74.5-4.8,2.12-5.2,5.3-.53,4.2,2.53,4.65,3.86,4.65.36,0,.6-.03.6-.03.88-.13,1.48-.48,1.48-.48,0,0,9.6-4.47,10.6-5.08,1-.61,2.07-2.01,2.07-3.07,0-.97-.55-3.07-2.52-3.07h0Z" fill="#6d6d6d"/><path d="M54.87,16.9l-2.35-1.34s-1.57-.29-2.76,1.02c-1.12,1.23-.98,3.08-.98,3.08l-15.78,18.85c-.75,0-1.6.36-2.3,1.03-1.18,1.13-1.47,2.73-.66,3.57l1.29,1.49,3.08-4.51,16.31-19.35,4.14-3.86Z" fill="url(#linear-gradient-9)" stroke="#00415f" stroke-linecap="round" stroke-linejoin="round"/><path d="M54.68,16.79c-1-.61-2.53.08-3.42,1.54-.5.81-.69,1.69-.59,2.42l-16.28,19.39c-.75,0-1.6.36-2.3,1.03-1.18,1.13-1.47,2.73-.66,3.57.81.84,2.42.6,3.6-.53.92-.89,1.3-2.06,1.03-2.94l16.06-18.99c.93.08,2.04-.59,2.75-1.75.89-1.46.81-3.13-.19-3.75Z" fill="url(#linear-gradient-10)" stroke="#00415f" stroke-linecap="round" stroke-linejoin="round"/><path d="M53.1,12.68c.67,0,1.66.22,2.45,1.08.39.66.59.88.5.97.21.37.34.85.31,1.49-.06,1.6-.58,2.75-1.31,3.57-.09.22-.19.43-.32.64-.67,1.09-1.71,1.75-2.6,1.75-.05,0-.1,0-.15,0l-16.06,18.99c.27.87-.11,2.05-1.03,2.94-.7.68-1.56,1.03-2.31,1.03-.51,0-.97-.16-1.29-.5-.02-.03-.04-.06-.06-.09-3.11,1.48-8.55,3.95-8.55,3.95,0,0-.6.34-1.48.47,0,0-.23.03-.59.03-.89,0-2.57-.2-3.42-1.58,0,0,0,0,0-.01,0,0,0,0,0,.01,0,0,0,.02.01.02-.88-.62-1.54-1.75-1.27-3.83.4-3.11,3.46-4.69,5.21-5.18.97-.27,10.26-1.68,10.26-1.68.22-.04.42-.06.61-.06.75,0,1.3.3,1.69.73l11.97-14.31c-9.97,2.66-27.37,7.31-27.37,7.31-.38.1-.79.15-1.22.15-1.62,0-3.42-.74-3.88-2.42-.45-.51-.74-1.17-.74-2.02,0-4.35,4.22-5.34,4.22-5.34,0,0,35.46-7.98,35.95-8.07.13-.03.29-.04.48-.04M53.1,11.88c-.23,0-.45.02-.64.06-.49.1-34.52,7.75-35.97,8.08-1.68.39-4.84,2.17-4.84,6.12,0,.92.28,1.73.83,2.41.69,2.08,2.89,2.83,4.6,2.83.5,0,.98-.06,1.42-.18,0,0,14.81-3.96,24.93-6.66l-9.85,11.77c-.46-.27-1-.42-1.58-.42-.24,0-.5.02-.76.07-.93.14-9.33,1.42-10.32,1.7-2.41.67-5.36,2.6-5.79,5.85-.32,2.52.6,3.83,1.48,4.5,1.09,1.55,2.94,1.78,3.98,1.78.4,0,.67-.04.7-.04.91-.14,1.56-.46,1.73-.55.4-.18,5.04-2.29,8.05-3.71.42.28.94.44,1.5.44.99,0,2.03-.46,2.86-1.26.98-.95,1.48-2.19,1.34-3.29l15.57-18.41c1.13-.1,2.31-.91,3.06-2.13.12-.19.22-.39.32-.63.88-1.04,1.36-2.37,1.42-3.97.02-.64-.08-1.2-.3-1.69-.05-.29-.22-.57-.36-.79-.07-.12-.16-.26-.26-.43-.03-.05-.06-.09-.1-.13-1.12-1.2-2.5-1.33-3.04-1.33h0Z" fill="#2d2d2d"/><g opacity=".4"><path d="M17.38,39.81c1.29-1.06,1.73-2.67.97-3.59-.76-.92-2.42-.8-3.71.26-1.29,1.06-1.72,2.67-.97,3.59.76.92,2.42.81,3.71-.26Z" fill="url(#linear-gradient-11)" stroke="#6d6d6d" stroke-linecap="round" stroke-linejoin="round" stroke-width=".8"/><path d="M16.85,47.65c1.64.96,4.23.53,6.32-1.19,2.49-2.05,3.32-5.14,1.87-6.91-.4-.49-.93-.82-1.55-1.01l-9.45-2.76c-1.21-.39-2.82-.09-4.23.9-2.05,1.44-2.88,3.78-1.86,5.24,0,0,.54.78,1.27,1.2.72.42,7.64,4.53,7.64,4.53Z" fill="url(#linear-gradient-12)" stroke="#6d6d6d" stroke-linecap="round" stroke-linejoin="round" stroke-width=".8"/><path d="M17.52,48.56c1.64.96,4.23.53,6.32-1.19,2.49-2.05,3.32-5.14,1.87-6.92-.4-.49-.93-.82-1.55-1.01l-9.46-2.76c-1.2-.38-2.82-.09-4.23.9-2.05,1.43-2.88,3.78-1.86,5.24,0,0,.54.78,1.26,1.2.72.42,7.64,4.53,7.64,4.53Z" fill="url(#linear-gradient-13)" stroke="#6d6d6d" stroke-linecap="round" stroke-linejoin="round" stroke-width=".8"/><path d="M9.72,42.53l1.42,1.87,31.07-24.25-1.89-1.44c-1.05-.81-2.77-.34-3.85,1.05-.51.66-.79,1.41-.82,2.11l-21.32,15.95c-.92-.29-2.11-.09-3.15.62-1.57,1.07-2.19,2.9-1.38,4.09" fill="url(#linear-gradient-14)" stroke="#00415f" stroke-linecap="round" stroke-linejoin="round"/><path d="M41.96,19.92c-1.05-.81-2.77-.34-3.85,1.05-.51.66-.79,1.42-.82,2.11l-21.73,16.43c-.92-.29-2.11-.09-3.15.61-1.57,1.07-2.19,2.9-1.38,4.09.81,1.19,2.74,1.29,4.31.22,1.14-.78,1.78-1.96,1.73-3.01l21.29-16.27c1.05.52,2.56.01,3.53-1.24,1.08-1.39,1.11-3.18.06-3.99Z" fill="url(#linear-gradient-15)" stroke="#00415f" stroke-linecap="round" stroke-linejoin="round"/></g><path d="M53.14,52.86l-17.09-17.09s1.17-2.72,3.88-3.88l17.09,17.09c-1.17,2.72-3.88,3.88-3.88,3.88Z" fill="url(#linear-gradient-16)" stroke="#333332" stroke-linecap="round" stroke-linejoin="round"/><line x1="41.03" y1="33" x2="39.04" y2="34.99" fill="none" stroke="#333332" stroke-linecap="round" stroke-linejoin="round"/><line x1="42.51" y1="34.52" x2="41.08" y2="35.94" fill="none" stroke="#333332" stroke-linecap="round" stroke-linejoin="round"/><line x1="44.01" y1="36.04" x2="42.01" y2="38.03" fill="none" stroke="#333332" stroke-linecap="round" stroke-linejoin="round"/><line x1="45.55" y1="37.49" x2="44.13" y2="38.91" fill="none" stroke="#333332" stroke-linecap="round" stroke-linejoin="round"/><line x1="46.99" y1="38.97" x2="44.99" y2="40.96" fill="none" stroke="#333332" stroke-linecap="round" stroke-linejoin="round"/><line x1="48.53" y1="40.42" x2="47.11" y2="41.84" fill="none" stroke="#333332" stroke-linecap="round" stroke-linejoin="round"/><line x1="49.98" y1="41.96" x2="47.98" y2="43.96" fill="none" stroke="#333332" stroke-linecap="round" stroke-linejoin="round"/><line x1="51.48" y1="43.45" x2="50.06" y2="44.87" fill="none" stroke="#333332" stroke-linecap="round" stroke-linejoin="round"/><line x1="52.99" y1="44.95" x2="50.99" y2="46.94" fill="none" stroke="#333332" stroke-linecap="round" stroke-linejoin="round"/><line x1="54.47" y1="46.46" x2="53.05" y2="47.89" fill="none" stroke="#333332" stroke-linecap="round" stroke-linejoin="round"/><line x1="56.03" y1="48.03" x2="54.03" y2="50.03" fill="none" stroke="#333332" stroke-linecap="round" stroke-linejoin="round"/><path d="M39.02,45.26l13.26-13.26s4.33-.41,3.71,3.71l-13.26,13.26-3.71-3.71Z" fill="url(#linear-gradient-17)" stroke="#333332" stroke-linecap="round" stroke-linejoin="round"/><path d="M39.02,45.26s1.38.59,2.3,1.35,1.41,2.36,1.41,2.36l-6.22,2.81-.44-.44,2.94-6.08Z" fill="url(#linear-gradient-18)" stroke="#333332" stroke-linecap="round" stroke-linejoin="round"/><path d="M48.78,35.84s3.54-.74,3.76,3.54" fill="none" stroke="#333332" stroke-linecap="round" stroke-linejoin="round"/><path d="M49.49,40.25l6.53-6.53s1.47,1.07.44,2.18l-6.1,6.1h-.87v-1.74Z" fill="url(#linear-gradient-19)" stroke="#333332" stroke-linecap="round" stroke-linejoin="round"/><path d="M35.4,52.51v-.58c0-.29.26-.85.26-.85l.47-.97,1.64,1.64-1,.45s-.5.3-.78.3h-.59Z" fill="#161616"/></svg>