<?xml version="1.0" encoding="UTF-8"?><svg id="Layer_1" xmlns="http://www.w3.org/2000/svg" xmlns:xlink="http://www.w3.org/1999/xlink" viewBox="0 0 64 64"><defs><mask id="mask" x="8.46" y="7.36" width="56.99" height="47" maskUnits="userSpaceOnUse"><rect x="35.39" y="7.36" width="30.06" height="47" fill="#fff"/></mask><linearGradient id="linear-gradient" x1="55.41" y1="35.13" x2="39.97" y2="35.13" gradientUnits="userSpaceOnUse"><stop offset="0" stop-color="#f7f7f7"/><stop offset=".18" stop-color="#efefef"/><stop offset=".45" stop-color="#dcdcdc"/><stop offset=".78" stop-color="#bbb"/><stop offset="1" stop-color="#a1a1a1"/></linearGradient><linearGradient id="linear-gradient-2" x1="9.01" y1="35.48" x2="57" y2="35.48" gradientUnits="userSpaceOnUse"><stop offset="0" stop-color="#666"/><stop offset=".15" stop-color="#d9dadb"/><stop offset=".87" stop-color="#c4c6c7"/><stop offset="1" stop-color="#f2f2f2"/></linearGradient><linearGradient id="linear-gradient-3" x1="8.56" y1="37.24" x2="55.14" y2="24.2" gradientUnits="userSpaceOnUse"><stop offset="0" stop-color="#fff"/><stop offset=".05" stop-color="#f9f9f9"/><stop offset=".11" stop-color="#e8e8e8"/><stop offset=".18" stop-color="#cdcdcd"/><stop offset=".22" stop-color="#bababa"/><stop offset="1" stop-color="#fff"/></linearGradient><linearGradient id="linear-gradient-4" x1="11.69" y1="42.26" x2="16.01" y2="42.26" gradientUnits="userSpaceOnUse"><stop offset="0" stop-color="#8a8a8a"/><stop offset="1" stop-color="#383838"/></linearGradient><mask id="mask-1" x="3.62" y="16.36" width="52.58" height="47" maskUnits="userSpaceOnUse"><rect x="3.62" y="16.36" width="30.24" height="47" fill="#fff"/></mask><linearGradient id="linear-gradient-5" x1="54.1" y1="36.13" x2="38.57" y2="36.13" xlink:href="#linear-gradient"/><linearGradient id="linear-gradient-6" x1="7.41" y1="36.48" x2="55.7" y2="36.48" xlink:href="#linear-gradient-2"/><linearGradient id="linear-gradient-7" x1="6.98" y1="38.27" x2="53.81" y2="25.16" xlink:href="#linear-gradient-3"/><linearGradient id="linear-gradient-8" x1="17.99" y1="37.17" x2="41.94" y2="37.17" gradientUnits="userSpaceOnUse"><stop offset="0" stop-color="#c9c9c9"/><stop offset="1" stop-color="#737373"/></linearGradient><linearGradient id="linear-gradient-9" x1="49.69" y1="18.98" x2="53.46" y2="18.98" xlink:href="#linear-gradient-4"/><linearGradient id="linear-gradient-10" x1="48.33" y1="34.56" x2="51.93" y2="34.56" xlink:href="#linear-gradient-4"/><linearGradient id="linear-gradient-11" x1="10.1" y1="43.26" x2="14.46" y2="43.26" xlink:href="#linear-gradient-4"/><linearGradient id="linear-gradient-12" x1="17.98" y1="36.99" x2="40.48" y2="36.99" gradientUnits="userSpaceOnUse"><stop offset="0" stop-color="#c9c9c9"/><stop offset=".88" stop-color="#c2c2c2"/><stop offset="1" stop-color="#737373"/></linearGradient><linearGradient id="linear-gradient-13" x1="18.02" y1="37.17" x2="41.84" y2="37.17" gradientUnits="userSpaceOnUse"><stop offset="0" stop-color="#c9c9c9"/><stop offset=".88" stop-color="#737373"/><stop offset="1" stop-color="#525252"/></linearGradient><linearGradient id="linear-gradient-14" x1="17.48" y1="36.73" x2="40.24" y2="36.73" gradientUnits="userSpaceOnUse"><stop offset="0" stop-color="#c7c7c8"/><stop offset=".35" stop-color="#b2b2b2"/><stop offset=".71" stop-color="#a3a3a3"/><stop offset="1" stop-color="#9e9e9e"/></linearGradient><linearGradient id="linear-gradient-15" x1="30.06" y1="30.17" x2="18.95" y2="10.92" gradientUnits="userSpaceOnUse"><stop offset="0" stop-color="#386f8d"/><stop offset="1" stop-color="#8dd7f4"/></linearGradient><linearGradient id="linear-gradient-16" x1="-24.88" y1="-45.61" x2="-35.99" y2="-64.87" gradientTransform="translate(72.75 .75) rotate(-90)" xlink:href="#linear-gradient-15"/></defs><g mask="url(#mask)"><path d="m46.73,32.67s2.71-1.1,4.3-1.1,4.14.68,4.14,2.46l-.4,1.36-9.31,3.3,1.27-6.02Z" fill="url(#linear-gradient)" stroke="#6d6d6d" stroke-linecap="round" stroke-linejoin="round"/><path d="m9.01,42.93l1.27,8.22c.48,1.36,2.86,2.46,5.97,1.36,2.41-.86,2.99-2.08,5.25-3.05,3.34-1.44,15.68-4.41,21.01-6.36,4.26-1.56,9.07-3.13,10.74-3.81,1.67-.68,1.51-1.7,1.51-1.7l.4-3.56c0,.76-1.43,1.36-1.43,1.36,0,0-3.5,1.19-5.25,1.86-1.75.68-1.99-1.02-1.99-1.02,0,0,.32-5,.48-7.37.16-2.37,1.91-2.97,1.91-2.97,0,0,3.58-1.1,5.49-1.61,1.91-.51,1.99-1.1,1.99-1.1l.64-5.17s-13.21,1.1-19.9,4.15c-6.69,3.05-17.91,15.85-17.91,15.85l-10.19,4.92Z" fill="url(#linear-gradient-2)" stroke="#6d6d6d" stroke-linecap="round" stroke-linejoin="round"/><path d="m40.68,18.69c-1.91.59-7,2.12-13.85,9.57-7.24,7.89-9.17,9.66-11.46,10.51-3.66,1.36-7.19,2.56-6.21,4.75.95,2.12,4.99,2.13,6.68,1.1,2.79-1.7,4.01-5.7,13.93-13.47,5.73-4.49,8.76-6.86,13.61-8.47,2.86-.95,9.87-2.54,12.1-3.3,2.23-.76,2.63-3.05-3.42-3.05-1.27,0-9.47,1.78-11.38,2.37Z" fill="url(#linear-gradient-3)" stroke="#6d6d6d" stroke-linecap="round" stroke-linejoin="round"/><path d="m16,41.72c-.14-.64-1.22-.92-2.41-.62-1.19.3-2.03,1.06-1.89,1.7.14.64,1.22.92,2.4.62,1.19-.3,2.03-1.06,1.89-1.7Z" fill="url(#linear-gradient-4)" stroke="#6d6d6d" stroke-linecap="round" stroke-linejoin="round"/><path d="m56.44,17.65c.07-.84-.67-1.7-4.37-1.7-1.27,0-9.47,1.78-11.38,2.37-1.91.59-7,2.12-13.85,9.57-7.24,7.89-9.17,9.66-11.46,10.51-3.31,1.23-6.51,2.33-6.36,4.15h0s.02.14.02.14c0,.03,0,.05.01.08l1.24,8c.48,1.36,2.86,2.46,5.97,1.36,2.41-.86,2.99-2.08,5.25-3.05,3.34-1.44,15.68-4.41,21.01-6.35,4.26-1.56,9.07-3.13,10.74-3.81,1.67-.68,1.51-1.7,1.51-1.7l.4-3.56c0,.12,0,0,0,0,0-1.78-2.55-2.46-4.14-2.46s-4.3,1.1-4.3,1.1v.07c.07-1.38.17-2.87.24-3.88.16-2.37,1.91-2.97,1.91-2.97,0,0,3.58-1.1,5.49-1.61,1.91-.51,1.99-1.1,1.99-1.1l.07-5.17s0,0,0,0Z" fill="none" stroke="#313131" stroke-miterlimit="10"/></g><g mask="url(#mask-1)"><path d="m45.37,33.67s2.72-1.1,4.32-1.1,4.16.68,4.16,2.46l-.4,1.36-9.37,3.3,1.28-6.02Z" fill="url(#linear-gradient-5)" stroke="#6d6d6d" stroke-linecap="round" stroke-linejoin="round"/><path d="m7.41,43.93l1.28,8.22c.48,1.36,2.88,2.46,6.01,1.36,2.43-.86,3.01-2.08,5.29-3.05,3.36-1.44,15.78-4.41,21.14-6.36,4.29-1.56,9.13-3.13,10.81-3.81,1.68-.68,1.52-1.7,1.52-1.7l.4-3.56c0,.76-1.44,1.36-1.44,1.36,0,0-3.52,1.19-5.28,1.86-1.76.68-2-1.02-2-1.02,0,0,.32-5,.48-7.37.16-2.37,1.92-2.97,1.92-2.97,0,0,3.6-1.1,5.52-1.61,1.92-.51,2-1.1,2-1.1l.64-5.17s-13.29,1.1-20.02,4.15c-6.73,3.05-18.02,15.85-18.02,15.85l-10.25,4.92Z" fill="url(#linear-gradient-6)" stroke="#6d6d6d" stroke-linecap="round" stroke-linejoin="round"/><path d="m39.28,19.69c-1.92.59-7.05,2.12-13.94,9.57-7.28,7.89-9.23,9.66-11.53,10.51-3.68,1.36-7.24,2.56-6.25,4.75.96,2.12,5.02,2.13,6.73,1.1,2.8-1.7,4.03-5.7,14.02-13.47,5.77-4.49,8.81-6.86,13.69-8.47,2.88-.95,9.93-2.54,12.17-3.3,2.24-.76,2.64-3.05-3.44-3.05-1.28,0-9.53,1.78-11.45,2.37Z" fill="url(#linear-gradient-7)" stroke="#6d6d6d" stroke-linecap="round" stroke-linejoin="round"/><path d="m40.64,27.32c-5.19,1.44-19.17,12.55-22.43,17.96-.56.93-.08,2.2,1.44,1.7,1.52-.51,6.17-2.03,11.05-3.22,4.88-1.19,9.29-2.54,9.29-2.54,0,0,1.52-.17,1.52-2.46s.4-10.34.4-10.34c0,0,.24-1.52-1.28-1.1Z" fill="url(#linear-gradient-8)" stroke="#6d6d6d" stroke-linecap="round" stroke-linejoin="round"/><path d="m53.45,19.12c.03-.45-.79-.87-1.83-.95-1.04-.08-1.9.23-1.93.68-.03.45.79.87,1.83.95,1.04.08,1.9-.23,1.93-.67Z" fill="url(#linear-gradient-9)" stroke="#6d6d6d" stroke-linecap="round" stroke-linejoin="round"/><path d="m51.93,34.69c.03-.49-.75-.95-1.74-1.02-.99-.07-1.82.27-1.86.76-.03.49.75.95,1.74,1.02.99.07,1.82-.27,1.86-.76Z" fill="url(#linear-gradient-10)" stroke="#6d6d6d" stroke-linecap="round" stroke-linejoin="round"/><path d="m14.44,42.72c-.14-.64-1.23-.92-2.42-.62-1.19.3-2.04,1.06-1.9,1.7.14.64,1.23.92,2.42.62,1.2-.3,2.05-1.06,1.9-1.7Z" fill="url(#linear-gradient-11)" stroke="#6d6d6d" stroke-linecap="round" stroke-linejoin="round"/><path d="m18.06,46.56c.29.15.75.12,1.04,0,.4-.17,19.7-6.53,19.7-6.53,0,0,1.28-.17,1.36-1.78.08-1.61.32-10.93.32-10.93l-.64.34-.32,10.59s-.08.85-1.12,1.19c-1.04.34-19.54,6.36-19.54,6.36,0,0-.56.25-.8-.25,0,0-.08.34-.08.59s.08.43.08.43Z" fill="url(#linear-gradient-12)" stroke="#6d6d6d" stroke-linecap="round" stroke-linejoin="round"/><path d="m40.55,27.32c-.06.02-.11.03-.17.05-.04,1.64-.24,9.44-.31,10.88-.08,1.61-1.36,1.78-1.36,1.78,0,0-19.3,6.36-19.7,6.53-.28.12-.7.15-.99.03.22.43.73.67,1.55.4,1.52-.51,6.17-2.03,11.05-3.22,4.88-1.19,9.29-2.54,9.29-2.54,0,0,1.52-.17,1.52-2.46s.4-10.34.4-10.34c0,0,.24-1.52-1.28-1.1Z" fill="url(#linear-gradient-13)" stroke="#6d6d6d" stroke-linecap="round" stroke-linejoin="round"/><path d="m18.45,46.37c-.36,0-.67-.18-.89-.5-.09-.13-.11-.29-.06-.44.05-.14.11-.27.19-.41,3.03-5.04,15.91-15.58,21.87-17.9.06-.02.12-.03.18-.03.1,0,.2.03.29.09.14.1.22.26.21.42l-.32,10.66c0,.08-.13,1.21-1.47,1.65l-19.5,6.34c-.1.05-.28.12-.51.12h0Z" fill="url(#linear-gradient-14)"/><path d="m39.74,27.59h0m0,0l-.32,10.66s-.08.85-1.12,1.19c-1.04.34-19.54,6.36-19.54,6.36,0,0-.14.08-.31.08-.15,0-.33-.06-.47-.28.04-.11.08-.21.14-.31,3.1-5.15,15.92-15.47,21.62-17.69m0-1s-.02,0-.03,0c-.13,0-.25.03-.36.08-6.17,2.42-18.96,12.89-22.09,18.1-.1.16-.17.33-.23.5-.1.3-.06.62.12.88.31.46.78.72,1.3.72.3,0,.54-.08.7-.16l19.46-6.33c1.32-.43,1.75-1.49,1.81-2.04,0-.02,0-.04,0-.06l.31-10.59s0-.07,0-.1c0-.55-.45-1-1-1h0s0,0,0,0h0Zm0,2h0,0Z" fill="#6d6d6d"/><path d="m55.13,18.65c.07-.84-.67-1.7-4.4-1.7-1.28,0-9.53,1.78-11.45,2.37-1.92.59-7.05,2.12-13.94,9.57-7.28,7.89-9.23,9.66-11.53,10.51-3.33,1.23-6.55,2.33-6.4,4.15h0s.02.14.02.14c0,.03,0,.05.01.08l1.25,8c.48,1.36,2.88,2.46,6.01,1.36,2.43-.86,3.01-2.08,5.29-3.05,3.36-1.44,15.78-4.41,21.14-6.35,4.29-1.56,9.13-3.13,10.81-3.81,1.68-.68,1.52-1.7,1.52-1.7l.4-3.56c0,.12-.04.23-.1.34l.1-.34c0-1.78-2.56-2.46-4.16-2.46s-4.32,1.1-4.32,1.1v.07c.07-1.38.17-2.87.24-3.88.16-2.37,1.92-2.97,1.92-2.97,0,0,3.6-1.1,5.52-1.61,1.92-.51,2-1.1,2-1.1l.07-5.17s0,0,0,0Z" fill="none" stroke="#313131" stroke-miterlimit="10"/></g><polygon points="26.33 29.36 26.33 18.05 29.47 18.05 25.07 10.5 20.04 18.05 23.18 18.05 23.18 29.36 26.33 29.36" fill="url(#linear-gradient-15)" stroke="#053755" stroke-linecap="round" stroke-linejoin="round" stroke-width="1.26"/><polygon points="26.33 29.36 15.01 29.36 15.01 26.22 7.46 30.62 15.01 35.65 15.01 32.51 26.33 32.51 26.33 29.36" fill="url(#linear-gradient-16)" stroke="#053755" stroke-linecap="round" stroke-linejoin="round" stroke-width="1.26"/></svg>