<?xml version="1.0" encoding="utf-8"?>
<!-- Generator: Adobe Illustrator 16.0.0, SVG Export Plug-In . SVG Version: 6.00 Build 0)  -->
<!DOCTYPE svg PUBLIC "-//W3C//DTD SVG 1.1//EN" "http://www.w3.org/Graphics/SVG/1.1/DTD/svg11.dtd">
<svg version="1.1" id="Layer_1" xmlns="http://www.w3.org/2000/svg" xmlns:xlink="http://www.w3.org/1999/xlink" x="0px" y="0px"
	 width="64px" height="64px" viewBox="0 0 64 64" style="enable-background:new 0 0 64 64;" xml:space="preserve">
<g>
	<g>
		<rect x="14" y="16" style="fill-rule:evenodd;clip-rule:evenodd;fill:#053B80;" width="41" height="39"/>
		<g>
			<g id="Layer_1_1_">
				<linearGradient id="SVGID_1_" gradientUnits="userSpaceOnUse" x1="34.8994" y1="15.646" x2="34.8994" y2="57.3257">
					<stop  offset="0" style="stop-color:#1058D4"/>
					<stop  offset="0.3665" style="stop-color:#1057D2"/>
					<stop  offset="0.5285" style="stop-color:#0F55CB"/>
					<stop  offset="0.6502" style="stop-color:#0F50BE"/>
					<stop  offset="0.7519" style="stop-color:#0E4AAC"/>
					<stop  offset="0.841" style="stop-color:#0D4195"/>
					<stop  offset="0.9205" style="stop-color:#0B3778"/>
					<stop  offset="0.9926" style="stop-color:#092B57"/>
					<stop  offset="1" style="stop-color:#092A53"/>
				</linearGradient>
				<rect x="13.5" y="15.6" style="fill:url(#SVGID_1_);" width="42.8" height="41.7"/>
			</g>
			<g id="Layer_2">
				<g>
					<path style="opacity:9.999999e-002;fill:none;stroke:#FFFFFF;stroke-miterlimit:10;enable-background:new    ;" d="M13.7,28.6
						C13.7,28.6,13.7,28.6,13.7,28.6c0,0,0.1,0,0.1-0.1c0,0,0.1,0,0.1-0.1c0,0,0,0,0,0c0.1,0,0.1-0.1,0.2-0.1h0c0,0,0,0,0,0
						c0.1,0,0.1-0.1,0.2-0.1c0.2-0.1,0.3-0.2,0.5-0.3c1.5-0.9,3.2-1.8,5-2.6c2.2-1,4.4-1.9,6.6-2.5c0.3-0.1,0.6-0.2,0.9-0.3
						c0.3-0.1,0.6-0.2,1-0.3h0c0.4-0.1,0.7-0.2,1.1-0.3h0c0.4-0.1,0.8-0.2,1.2-0.2c0.5-0.1,0.9-0.2,1.4-0.2h0
						c1.9-0.3,3.6-0.3,5.1-0.2c0,0,0,0,0.1,0c0,0,0,0,0,0c0,0,0.1,0,0.1,0c0.1,0,0.3,0,0.4,0c0,0,0,0,0,0c1.1,0.1,2.1,0.4,2.9,0.8
						c0,0,0,0,0,0c0.3,0.2,0.6,0.3,0.9,0.5c0.2,0.1,0.4,0.3,0.6,0.5c0.1,0.1,0.3,0.3,0.4,0.5c0.1,0.2,0.2,0.4,0.3,0.6
						c0.4,0.8,0.4,1.8,0.1,2.8c-0.1,0.5-0.3,1-0.6,1.5c-0.2,0.5-0.5,1-0.8,1.5c-0.3,0.5-0.7,0.9-1.1,1.4c-0.4,0.5-0.8,0.9-1.3,1.4
						c-0.4,0.4-0.9,0.9-1.4,1.3c-0.3,0.3-0.6,0.5-0.9,0.8c-1,0.8-2.1,1.7-3.4,2.5c-1.2,0.8-2.5,1.5-3.8,2.3
						c-0.9,0.5-1.8,0.9-2.7,1.3c0,0-0.1,0-0.1,0.1c0,0,0,0,0,0c-1,0.5-2,0.9-3,1.3c-0.9,0.3-1.7,0.6-2.5,0.9
						c-0.2,0.1-0.5,0.2-0.7,0.2c-0.1,0-0.1,0-0.2,0.1c-0.4,0.1-0.7,0.2-1.1,0.3c-0.4,0.1-0.8,0.2-1.2,0.3c-0.3,0.1-0.6,0.1-0.9,0.2
						c-0.2,0-0.3,0.1-0.5,0.1c-0.5,0.1-1,0.2-1.5,0.3c-0.4,0.1-0.8,0.1-1.2,0.2V28.7C13.8,28.7,13.7,28.7,13.7,28.6
						C13.7,28.7,13.7,28.6,13.7,28.6C13.7,28.6,13.7,28.6,13.7,28.6z"/>
					<path style="opacity:8.571428e-002;fill:none;stroke:#FFFFFF;stroke-miterlimit:10;enable-background:new    ;" d="M13.7,28.6
						L13.7,28.6c0,0,0.1-0.1,0.1-0.1c0.1-0.1,0.1-0.1,0.2-0.2c0,0,0,0,0,0c0,0,0.1-0.1,0.1-0.1c0,0,0,0,0,0c0,0,0,0,0,0
						c0.1,0,0.1-0.1,0.2-0.1h0c0.1-0.1,0.2-0.2,0.3-0.3c1.3-0.9,2.7-1.8,4.3-2.7c2.3-1.2,4.6-2.1,6.9-2.8c0.3-0.1,0.6-0.2,0.8-0.2
						c0.3-0.1,0.6-0.2,0.9-0.2c0.3-0.1,0.7-0.2,1-0.2c0.4-0.1,0.8-0.2,1.2-0.2h0c0.5-0.1,0.9-0.1,1.4-0.2h0c2-0.2,3.8-0.2,5.5,0
						c0,0,0,0,0,0c0.1,0,0.1,0,0.2,0c0,0,0,0,0,0c0.1,0,0.1,0,0.2,0c1.1,0.2,2.1,0.5,3,0.9c0.3,0.2,0.7,0.3,0.9,0.5c0,0,0,0,0,0
						c0.4,0.3,0.8,0.6,1.2,0.9c0.1,0.1,0.2,0.2,0.2,0.2c1,1.1,1.4,2.4,1.3,3.8c0,0.6-0.1,1.1-0.3,1.7c-0.2,0.6-0.4,1.1-0.7,1.7
						c-0.3,0.5-0.6,1.1-1,1.6c-0.4,0.5-0.8,1.1-1.3,1.6c-0.3,0.3-0.6,0.7-1,1c-0.2,0.2-0.3,0.3-0.5,0.5c-0.8,0.7-1.7,1.4-2.6,2.1
						c-1.2,0.8-2.4,1.6-3.8,2.3c-0.1,0-0.1,0.1-0.2,0.1c-1,0.5-1.9,1-2.9,1.4c-1,0.4-2,0.8-2.9,1.1h0c-1.1,0.3-2.1,0.6-3.1,0.9
						c-0.5,0.1-0.9,0.2-1.4,0.3c-0.4,0.1-0.7,0.1-1.1,0.2c-0.4,0.1-0.9,0.1-1.3,0.1c-0.5,0-1,0.1-1.4,0.1c-0.3,0-0.7,0-1,0
						c-0.2,0-0.4,0-0.5,0c-0.6,0-1.2-0.1-1.8-0.2c-0.3,0-0.6-0.1-0.9-0.1V28.7C13.8,28.7,13.7,28.7,13.7,28.6
						C13.7,28.7,13.7,28.6,13.7,28.6z"/>
					<path style="opacity:7.142856e-002;fill:none;stroke:#FFFFFF;stroke-miterlimit:10;enable-background:new    ;" d="M13.7,28.7
						C13.7,28.6,13.8,28.6,13.7,28.7c0.1-0.1,0.1-0.1,0.2-0.2c0,0,0,0,0,0c0,0,0.1-0.1,0.1-0.1c0,0,0,0,0,0c0,0,0.1-0.1,0.1-0.1
						c0,0,0.1-0.1,0.1-0.1c0,0,0.1-0.1,0.1-0.1h0c0.1-0.1,0.1-0.1,0.2-0.2c1-0.9,2.2-1.9,3.5-2.7c2.2-1.4,4.7-2.4,7.2-3.1
						c0.3-0.1,0.5-0.1,0.8-0.2l0,0c0.3-0.1,0.6-0.1,0.9-0.2c0.3-0.1,0.7-0.1,1-0.2l0,0c0.4-0.1,0.8-0.1,1.2-0.2h0
						c0.5-0.1,0.9-0.1,1.4-0.2c2.1-0.2,4.2-0.1,6,0.3c0,0,0,0,0,0c0.1,0,0.2,0,0.2,0c1.5,0.3,2.9,0.8,4.1,1.4c0,0,0,0,0,0
						c0.3,0.1,0.5,0.3,0.8,0.5c0.2,0.1,0.3,0.2,0.5,0.3c2,1.4,3,3.3,3.1,5.2c0,0.7,0,1.3-0.2,2c-0.1,0.6-0.4,1.3-0.7,2
						c-0.3,0.6-0.7,1.2-1.1,1.8c-0.3,0.4-0.5,0.7-0.9,1.1c-0.2,0.2-0.4,0.4-0.6,0.6c-0.5,0.5-1.1,1.1-1.7,1.6
						c-0.2,0.2-0.4,0.3-0.6,0.5c-0.5,0.4-1.1,0.8-1.7,1.1c-0.8,0.5-1.7,1-2.6,1.4c-1,0.5-2,0.9-3.1,1.2c-1,0.3-2,0.6-2.9,0.8
						c-2.1,0.5-4.2,0.7-6.2,0.7c-0.6,0-1.2,0-1.8-0.1c-0.4,0-0.7-0.1-1.1-0.1c-0.1,0-0.2,0-0.3,0c-0.5-0.1-1.1-0.2-1.6-0.3v0
						c-0.6-0.1-1.2-0.3-1.8-0.5v0c-0.7-0.3-1.4-0.6-2-0.9c-0.3-0.2-0.6-0.4-0.9-0.6L13.7,28.7C13.8,28.7,13.7,28.7,13.7,28.7z"/>
					<path style="opacity:5.714285e-002;fill:none;stroke:#FFFFFF;stroke-miterlimit:10;enable-background:new    ;" d="M13.8,36.2
						v-7.3c0,0,0-0.1,0.1-0.1v0c0.1-0.1,0.2-0.3,0.2-0.4h0c0,0,0,0,0-0.1v0c0,0,0,0,0-0.1c0,0,0,0,0,0c0,0,0.1-0.1,0.1-0.1
						c0.1-0.1,0.1-0.1,0.2-0.2c0,0,0,0,0,0c0,0,0.1-0.1,0.1-0.1c0.7-1,1.6-1.9,2.8-2.7c2.1-1.6,4.7-2.7,7.5-3.4
						c0.3-0.1,0.5-0.1,0.8-0.2c0.3-0.1,0.6-0.1,0.9-0.2c0.3-0.1,0.7-0.1,1-0.2c0.4-0.1,0.8-0.1,1.2-0.1c0.5-0.1,1-0.1,1.4-0.1h0
						c2.3-0.1,4.6,0,6.8,0.5c0,0,0,0,0,0c0,0,0.1,0,0.1,0c0,0,0,0,0,0c1.1,0.2,2.1,0.5,3.1,0.9c0.4,0.1,0.8,0.3,1.2,0.5
						c0.3,0.1,0.7,0.3,1,0.5c3.6,1.9,5.6,4.5,5.9,7.3c0.1,0.8,0,1.6-0.1,2.3c-0.2,0.7-0.4,1.4-0.8,2.2c-0.2,0.3-0.4,0.6-0.6,0.9
						c-0.2,0.4-0.5,0.7-0.8,1c-0.5,0.6-1.1,1.1-1.8,1.7c0,0,0,0,0,0c-0.1,0.1-0.2,0.1-0.2,0.2c-0.6,0.4-1.2,0.8-1.9,1.2
						c-0.9,0.5-1.8,0.9-2.8,1.3l0,0c-1.1,0.4-2.3,0.8-3.5,1c-2,0.5-4.1,0.7-6.2,0.7c-1,0-2-0.1-3-0.2h0c-0.9-0.1-1.8-0.3-2.7-0.5
						c-1.7-0.4-3.4-1-4.9-1.8c-0.3-0.2-0.6-0.3-0.9-0.5h0h0c-0.9-0.6-1.8-1.2-2.4-1.9c0,0,0,0,0,0s0,0,0,0c0,0,0,0,0,0
						C14.7,37.6,14.2,37,13.8,36.2C13.8,36.3,13.8,36.3,13.8,36.2C13.8,36.3,13.8,36.3,13.8,36.2C13.8,36.3,13.8,36.3,13.8,36.2
						C13.8,36.3,13.8,36.2,13.8,36.2z"/>
					<path style="opacity:4.285714e-002;fill:none;stroke:#FFFFFF;stroke-miterlimit:10;enable-background:new    ;" d="M23.6,40.2
						c9.1,3.6,20.5,2.7,25.6-2.1c5.1-4.8,1.9-11.6-7.2-15.2c-9-3.6-20.5-2.7-25.6,2.1C11.3,29.7,14.5,36.5,23.6,40.2z"/>
					<path style="opacity:2.857143e-002;fill:none;stroke:#FFFFFF;stroke-miterlimit:10;enable-background:new    ;" d="M28.1,39.4
						c10.8,3.4,22.6,2.4,26.4-2.4c3.7-4.7-2.1-11.4-12.9-14.8c-10.8-3.4-22.6-2.4-26.4,2.4C11.5,29.3,17.2,35.9,28.1,39.4z"/>
					<path style="opacity:1.428571e-002;fill:none;stroke:#FFFFFF;stroke-miterlimit:10;enable-background:new    ;" d="M56.5,35.4
						c-0.2,0.3-0.5,0.5-0.9,0.7c-0.3,0.2-0.6,0.4-1,0.6l0,0c-0.4,0.2-0.9,0.4-1.5,0.6c-0.9,0.3-1.9,0.6-2.9,0.8
						c-0.4,0.1-0.9,0.2-1.4,0.2h0c-0.6,0.1-1.2,0.1-1.8,0.2c-1,0.1-2.1,0.1-3.2,0.1c0,0,0,0-0.1,0c-1,0-2.1,0-3.1-0.1
						c-0.4,0-0.7-0.1-1.1-0.1c-1.1-0.1-2.3-0.2-3.5-0.4c-1-0.1-1.9-0.3-2.9-0.5c-1-0.2-1.9-0.4-2.9-0.7c-7-1.8-12.8-4.6-16-7.6h0
						c-0.1-0.1-0.1-0.1-0.2-0.2c-0.1-0.1-0.2-0.2-0.3-0.2v0c0,0,0,0-0.1-0.1c0,0,0,0-0.1-0.1c0,0,0,0,0,0c0,0,0,0,0,0c0,0,0,0,0,0
						c0,0,0.1,0,0.1-0.1v-1.2v-7.1c1.4-0.9,3.4-1.5,5.7-1.9c0.1,0,0.2,0,0.2,0c0.1,0,0.2,0,0.3,0h0h0c0.1,0,0.3,0,0.4-0.1
						c0.2,0,0.3,0,0.5-0.1h0c0.2,0,0.4,0,0.6-0.1h0l0,0c4.9-0.5,11,0.1,17.3,1.7c8.5,2.2,15.1,5.9,17.8,9.5"/>
					<path style="fill:none;stroke:#FFFFFF;stroke-miterlimit:10;stroke-opacity:0;" d="M56.5,34.7c-0.3,0.1-0.7,0.2-1.1,0.3
						c-0.3,0.1-0.6,0.1-0.9,0.2c-1,0.2-2,0.4-3.2,0.5c-0.1,0-0.3,0-0.4,0h0c-0.9,0.1-1.9,0.1-3,0.2c-0.5,0-1,0-1.5,0
						c-0.6,0-1.2,0-1.9-0.1c-0.7,0-1.3-0.1-2-0.1c-0.4,0-0.8-0.1-1.2-0.1c-0.7-0.1-1.4-0.1-2.1-0.2c-0.3,0-0.7-0.1-1-0.1
						c-0.6-0.1-1.1-0.2-1.7-0.3c-1.3-0.2-2.6-0.5-4-0.7c-7.1-1.5-13.4-3.8-17.8-6.3c0,0-0.1,0-0.1-0.1c0,0-0.1,0-0.1-0.1
						c0,0,0,0-0.1,0c0,0,0,0,0,0c-0.1-0.1-0.3-0.2-0.4-0.2c-0.1-0.1-0.2-0.1-0.3-0.2v-7.1v-2.9v-0.1v-0.1V17v-0.1v-0.2v-0.2
						c5.2-1.2,13.3-1,22.2,0.9c8.8,1.9,16.2,4.9,20.5,8.1v3.8"/>
				</g>
				<g>
					
						<linearGradient id="SVGID_2_" gradientUnits="userSpaceOnUse" x1="28.9624" y1="66.2871" x2="67.2129" y2="66.2871" gradientTransform="matrix(-1 0 0 -1 80.0488 103.1484)">
						<stop  offset="0" style="stop-color:#FFFFFF;stop-opacity:0.4"/>
						<stop  offset="1" style="stop-color:#FFFFFF;stop-opacity:0"/>
					</linearGradient>
					<path style="fill:none;stroke:url(#SVGID_2_);stroke-miterlimit:10;" d="M13.7,28.6C13.7,28.6,13.7,28.6,13.7,28.6
						c0,0,0.1-0.1,0.1-0.1V16.6c1,0,2.2,0.3,3.4,0.7c0,0,0,0,0,0c0,0,0,0,0,0c0,0,0,0,0,0c0,0,0,0,0.1,0c0,0,0,0,0,0h0c0,0,0,0,0,0
						c0,0,0,0,0.1,0c0,0,0,0,0.1,0c0,0,0,0,0,0c0,0,0,0,0,0c0,0,0,0,0,0c0,0,0,0,0.1,0c0,0,0,0,0,0c0,0,0.1,0,0.1,0
						c0.6,0.2,1.2,0.5,1.8,0.8c1.2,0.6,2.5,1.4,3.9,2.3c0.3,0.2,0.6,0.4,0.9,0.7c0.2,0.1,0.3,0.2,0.5,0.4c0.2,0.1,0.3,0.3,0.5,0.4
						c0.2,0.1,0.3,0.3,0.5,0.4c0.2,0.1,0.3,0.3,0.5,0.4c3.6,2.9,7.5,6.8,11.2,11.4c0.1,0.1,0.2,0.2,0.2,0.3c0.2,0.2,0.4,0.5,0.6,0.7
						c0.2,0.2,0.3,0.4,0.5,0.6c0.5,0.7,1,1.4,1.5,2.1c0.1,0.2,0.3,0.4,0.4,0.6c0.4,0.5,0.7,1,1,1.5c0.3,0.4,0.6,0.9,0.9,1.3
						c0,0,0,0.1,0.1,0.1c3.5,5.5,6.2,10.9,7.7,15.7H23.6c-0.6-0.7-1.1-1.4-1.7-2.1c-2.7-3.4-5-6.8-7-10.2c-0.1-0.2-0.2-0.4-0.3-0.5
						c-0.3-0.5-0.6-1-0.9-1.5v-14C13.8,28.7,13.7,28.7,13.7,28.6C13.7,28.7,13.7,28.6,13.7,28.6C13.7,28.6,13.7,28.6,13.7,28.6z"/>
					
						<linearGradient id="SVGID_3_" gradientUnits="userSpaceOnUse" x1="52.8877" y1="54.4355" x2="66.7041" y2="54.4355" gradientTransform="matrix(-1 0 0 -1 80.0488 103.1484)">
						<stop  offset="0" style="stop-color:#FFFFFF;stop-opacity:0.36"/>
						<stop  offset="1" style="stop-color:#FFFFFF;stop-opacity:0"/>
					</linearGradient>
					<path style="fill:none;stroke:url(#SVGID_3_);stroke-miterlimit:10;" d="M13.8,40.2c0.3,0.5,0.6,1,0.9,1.5
						c0.5,0.9,1.1,1.8,1.7,2.7c0,0,0,0.1,0.1,0.1c2.4,3.5,5.2,7.1,8.4,10.6c0.6,0.7,1.3,1.4,1.9,2"/>
					
						<linearGradient id="SVGID_4_" gradientUnits="userSpaceOnUse" x1="24.7251" y1="66.3555" x2="66.2822" y2="66.3555" gradientTransform="matrix(-1 0 0 -1 80.0488 103.1484)">
						<stop  offset="0" style="stop-color:#FFFFFF;stop-opacity:0.36"/>
						<stop  offset="1" style="stop-color:#FFFFFF;stop-opacity:0"/>
					</linearGradient>
					<path style="fill:none;stroke:url(#SVGID_4_);stroke-miterlimit:10;" d="M13.8,16.8c1,0,2.1,0.2,3.3,0.5c0,0,0.1,0,0.1,0
						c0,0,0,0,0,0c0,0,0,0,0,0c0,0,0,0,0,0c0,0,0,0,0,0c0,0,0,0,0,0c0,0,0,0,0,0c0,0,0,0,0,0c0,0,0,0,0,0c0,0,0,0,0,0c0,0,0,0,0,0
						c0,0,0,0,0.1,0c0,0,0,0,0,0c0,0,0.1,0,0.1,0c0,0,0.1,0,0.1,0c0,0,0,0,0,0c0,0,0.1,0,0.1,0c0.6,0.2,1.3,0.5,2,0.7
						c1.4,0.6,2.8,1.3,4.3,2.2c0.3,0.2,0.7,0.4,1,0.6c0.2,0.1,0.4,0.2,0.5,0.3c0.2,0.1,0.4,0.2,0.5,0.4l0,0c0.2,0.1,0.4,0.2,0.6,0.4
						c0.2,0.1,0.4,0.2,0.5,0.4c3.8,2.6,7.8,6.1,11.7,10.3c0.2,0.2,0.4,0.4,0.6,0.7c0.3,0.3,0.5,0.6,0.8,0.8c0.4,0.4,0.7,0.8,1.1,1.2
						c0.2,0.2,0.4,0.5,0.6,0.7c0.6,0.7,1.3,1.5,1.8,2.2c0,0,0,0,0,0c0.5,0.6,1,1.3,1.5,1.9c0.1,0.2,0.3,0.3,0.4,0.5
						c4.2,5.6,7.3,11.2,9.1,16.1"/>
					
						<linearGradient id="SVGID_5_" gradientUnits="userSpaceOnUse" x1="49.7959" y1="55.3066" x2="66.6953" y2="55.3066" gradientTransform="matrix(-1 0 0 -1 80.0488 103.1484)">
						<stop  offset="0" style="stop-color:#FFFFFF;stop-opacity:0.32"/>
						<stop  offset="1" style="stop-color:#FFFFFF;stop-opacity:0"/>
					</linearGradient>
					<path style="fill:none;stroke:url(#SVGID_5_);stroke-miterlimit:10;" d="M13.8,38.5c0.9,1.4,1.8,2.8,2.9,4.2v0
						c0.4,0.5,0.8,1,1.2,1.6c0,0.1,0.1,0.1,0.1,0.2c2.8,3.6,6.1,7.3,9.8,10.8c0.7,0.7,1.4,1.3,2.1,2"/>
					
						<linearGradient id="SVGID_6_" gradientUnits="userSpaceOnUse" x1="23.0869" y1="69.1914" x2="66.2793" y2="69.1914" gradientTransform="matrix(-1 0 0 -1 80.0488 103.1484)">
						<stop  offset="0" style="stop-color:#FFFFFF;stop-opacity:0.32"/>
						<stop  offset="1" style="stop-color:#FFFFFF;stop-opacity:0"/>
					</linearGradient>
					<path style="fill:none;stroke:url(#SVGID_6_);stroke-miterlimit:10;" d="M13.8,17c1,0,2.1,0.1,3.2,0.4c0,0,0,0,0,0h0
						c0,0,0,0,0.1,0c0,0,0,0,0,0h0c0,0,0,0,0,0c0,0,0,0,0,0c0,0,0,0,0,0c0,0,0,0,0,0c0,0,0,0,0,0c0,0,0,0,0,0c0,0,0,0,0.1,0
						c0,0,0,0,0,0c0,0,0,0,0.1,0c0,0,0,0,0.1,0c0,0,0,0,0,0c0,0,0,0,0,0c0.8,0.2,1.6,0.4,2.4,0.8h0h0c1.5,0.5,3.1,1.3,4.8,2.1l0,0h0
						c0.4,0.2,0.7,0.4,1.1,0.6h0c0.2,0.1,0.4,0.2,0.6,0.3c0.2,0.1,0.4,0.2,0.6,0.3c0.2,0.1,0.4,0.2,0.6,0.3c0.2,0.1,0.4,0.2,0.6,0.3
						h0c3.8,2.4,7.9,5.5,12,9.2c0.4,0.4,0.8,0.7,1.2,1.1c0.1,0.1,0.2,0.2,0.2,0.2c0.6,0.6,1.3,1.2,1.9,1.8c0.4,0.4,0.8,0.8,1.2,1.2
						c0.3,0.4,0.7,0.7,1,1.1c0.5,0.5,1,1.1,1.5,1.6c0.2,0.2,0.4,0.5,0.6,0.7c0.3,0.4,0.7,0.8,1,1.1c3.1,3.7,5.8,7.3,7.8,10.8"/>
					
						<linearGradient id="SVGID_7_" gradientUnits="userSpaceOnUse" x1="46.6699" y1="55.9463" x2="66.6846" y2="55.9463" gradientTransform="matrix(-1 0 0 -1 80.0488 103.1484)">
						<stop  offset="0" style="stop-color:#FFFFFF;stop-opacity:0.28"/>
						<stop  offset="1" style="stop-color:#FFFFFF;stop-opacity:0"/>
					</linearGradient>
					<path style="fill:none;stroke:url(#SVGID_7_);stroke-miterlimit:10;" d="M13.8,37.2c1.3,2,2.9,4,4.6,6v0
						c0.2,0.2,0.4,0.5,0.6,0.7c0.1,0.1,0.2,0.3,0.4,0.4c3.3,3.7,7.1,7.4,11.3,10.9c0.8,0.6,1.6,1.3,2.3,1.9"/>
					
						<linearGradient id="SVGID_8_" gradientUnits="userSpaceOnUse" x1="23.1304" y1="72.1992" x2="66.292" y2="72.1992" gradientTransform="matrix(-1 0 0 -1 80.0488 103.1484)">
						<stop  offset="0" style="stop-color:#FFFFFF;stop-opacity:0.28"/>
						<stop  offset="1" style="stop-color:#FFFFFF;stop-opacity:0"/>
					</linearGradient>
					<path style="fill:none;stroke:url(#SVGID_8_);stroke-miterlimit:10;" d="M13.8,17.1c1,0,2,0,3.1,0.2c0,0,0,0,0,0c0,0,0,0,0,0
						s0,0,0,0c0,0,0.1,0,0.1,0c0,0,0.1,0,0.1,0c0,0,0,0,0,0h0c0,0,0,0,0,0c0,0,0,0,0,0c0,0,0,0,0,0c0,0,0,0,0,0c0,0,0,0,0,0
						c0,0,0,0,0,0c0,0,0,0,0,0c0,0,0,0,0,0c0,0,0,0,0,0c0,0,0,0,0,0h0c0,0,0,0,0,0c1,0.2,2,0.4,3,0.8c1.7,0.5,3.5,1.2,5.3,2.1h0h0
						c0.4,0.2,0.8,0.4,1.1,0.5c0.2,0.1,0.4,0.2,0.6,0.3c0.2,0.1,0.4,0.2,0.6,0.3l0,0c0.2,0.1,0.4,0.2,0.6,0.3
						c0.2,0.1,0.4,0.2,0.6,0.3h0c3.8,2.1,7.9,4.8,12,8c0.5,0.4,0.9,0.7,1.4,1.1c0.2,0.1,0.3,0.3,0.5,0.4c0.5,0.4,1,0.8,1.4,1.2
						c0.9,0.7,1.7,1.5,2.5,2.2c0.3,0.3,0.6,0.6,1,0.9c0.6,0.5,1.2,1.1,1.7,1.6c0.2,0.2,0.4,0.4,0.6,0.6c0.4,0.4,0.8,0.8,1.2,1.2
						c1.8,1.9,3.5,3.8,5.1,5.7"/>
					
						<linearGradient id="SVGID_9_" gradientUnits="userSpaceOnUse" x1="43.5195" y1="56.416" x2="66.6807" y2="56.416" gradientTransform="matrix(-1 0 0 -1 80.0488 103.1484)">
						<stop  offset="0" style="stop-color:#FFFFFF;stop-opacity:0.24"/>
						<stop  offset="1" style="stop-color:#FFFFFF;stop-opacity:0"/>
					</linearGradient>
					<path style="fill:none;stroke:url(#SVGID_9_);stroke-miterlimit:10;" d="M36.2,57.1c-0.9-0.6-1.7-1.2-2.6-1.8
						c-4.9-3.5-9.3-7.3-13-11.1c-0.2-0.2-0.4-0.4-0.6-0.6c0,0-0.1-0.1-0.1-0.1c-1.7-1.8-3.3-3.5-4.6-5.2c0,0,0,0,0,0s0,0,0,0
						c0,0,0,0,0,0c-0.5-0.7-1.1-1.3-1.5-2c0,0,0,0,0,0c0,0,0,0,0,0c0,0,0,0,0,0c0,0,0,0,0,0"/>
					
						<linearGradient id="SVGID_10_" gradientUnits="userSpaceOnUse" x1="23.1689" y1="74.4102" x2="66.3047" y2="74.4102" gradientTransform="matrix(-1 0 0 -1 80.0488 103.1484)">
						<stop  offset="0" style="stop-color:#FFFFFF;stop-opacity:0.24"/>
						<stop  offset="1" style="stop-color:#FFFFFF;stop-opacity:0"/>
					</linearGradient>
					<path style="fill:none;stroke:url(#SVGID_10_);stroke-miterlimit:10;" d="M56.5,40.4c-0.9-0.9-1.8-1.8-2.8-2.6
						c-0.2-0.2-0.3-0.3-0.5-0.5c-0.6-0.5-1.2-1.1-1.8-1.6c-0.1-0.1-0.2-0.2-0.3-0.2c-1-0.9-2.1-1.8-3.2-2.6c-0.9-0.7-1.8-1.4-2.7-2
						c-0.1-0.1-0.2-0.1-0.3-0.2c-0.5-0.4-1.1-0.8-1.6-1.1c-0.4-0.3-0.8-0.6-1.2-0.9c-4-2.7-8-5-11.7-6.8c-0.2-0.1-0.4-0.2-0.6-0.3h0
						c-0.2-0.1-0.4-0.2-0.6-0.3h0c-0.2-0.1-0.4-0.2-0.6-0.3c-0.2-0.1-0.4-0.2-0.5-0.2l0,0c-0.4-0.2-0.8-0.4-1.2-0.5
						c-2.1-0.9-4.1-1.6-6-2.1h0c-1.3-0.3-2.4-0.6-3.6-0.7c0,0,0,0-0.1,0c0,0,0,0,0,0c0,0,0,0,0,0c0,0,0,0,0,0h0c0,0,0,0,0,0
						c0,0,0,0,0,0c0,0,0,0,0,0h0c0,0,0,0,0,0c0,0,0,0,0,0c0,0-0.1,0-0.1,0c-0.1,0-0.1,0-0.2,0c0,0,0,0,0,0c-0.8-0.1-1.5-0.1-2.1-0.1
						c-0.3,0-0.6,0-0.9,0"/>
					
						<linearGradient id="SVGID_11_" gradientUnits="userSpaceOnUse" x1="40.4287" y1="56.7363" x2="66.6631" y2="56.7363" gradientTransform="matrix(-1 0 0 -1 80.0488 103.1484)">
						<stop  offset="0" style="stop-color:#FFFFFF;stop-opacity:0.2"/>
						<stop  offset="1" style="stop-color:#FFFFFF;stop-opacity:0"/>
					</linearGradient>
					<path style="fill:none;stroke:url(#SVGID_11_);stroke-miterlimit:10;" d="M39.4,57.1c-0.9-0.6-1.8-1.1-2.8-1.7
						C31.1,51.8,26,47.9,21.8,44c-0.1-0.1-0.3-0.2-0.4-0.4c-0.1-0.1-0.2-0.2-0.4-0.3c-1.1-1.1-2.2-2.1-3.2-3.2h0h0
						c-1.5-1.5-2.8-3.1-4-4.5"/>
					
						<linearGradient id="SVGID_12_" gradientUnits="userSpaceOnUse" x1="23.2041" y1="76.1855" x2="66.3174" y2="76.1855" gradientTransform="matrix(-1 0 0 -1 80.0488 103.1484)">
						<stop  offset="0" style="stop-color:#FFFFFF;stop-opacity:0.2"/>
						<stop  offset="1" style="stop-color:#FFFFFF;stop-opacity:0"/>
					</linearGradient>
					<path style="fill:none;stroke:url(#SVGID_12_);stroke-miterlimit:10;" d="M13.8,17.3c0.4,0,0.9-0.1,1.4-0.1
						c0.5,0,1.1,0,1.7,0.1c0,0,0,0,0,0c0,0,0,0,0,0c0,0,0.1,0,0.1,0c0,0,0,0,0,0c0,0,0,0,0,0c0,0,0,0,0,0s0,0,0,0c0,0,0.1,0,0.1,0
						c0,0,0,0,0,0c0,0,0,0,0,0h0c0,0,0,0,0,0c0,0,0,0,0,0c0,0,0,0,0,0c0,0,0,0,0,0c0,0,0,0,0,0c0,0,0,0,0,0c0,0,0,0,0,0
						c1.3,0.1,2.7,0.4,4.2,0.7h0l0,0c2.1,0.5,4.4,1.2,6.8,2.1h0l0,0c0.4,0.2,0.9,0.3,1.3,0.5h0l0,0c0.2,0.1,0.3,0.1,0.5,0.2h0l0,0
						c0.2,0.1,0.4,0.1,0.5,0.2c0.2,0.1,0.4,0.2,0.6,0.2h0c0.2,0.1,0.4,0.2,0.6,0.3h0h0c3.4,1.5,7.1,3.4,10.8,5.6
						c0.3,0.2,0.7,0.4,1,0.6c0.6,0.3,1.1,0.7,1.7,1.1c0.4,0.3,0.9,0.6,1.3,0.9c0.4,0.3,0.9,0.6,1.3,0.9c1.2,0.8,2.4,1.7,3.6,2.5
						c1,0.7,2,1.4,2.9,2.2c0.2,0.2,0.4,0.3,0.6,0.5c0.2,0.1,0.3,0.3,0.5,0.4c0.3,0.2,0.6,0.5,0.9,0.7"/>
				</g>
			</g>
			
				<radialGradient id="SVGID_13_" cx="164.9512" cy="165.4521" r="40.5608" gradientTransform="matrix(0.4987 0 0 0.5124 -47.7666 -48.2736)" gradientUnits="userSpaceOnUse">
				<stop  offset="0" style="stop-color:#053B80;stop-opacity:0"/>
				<stop  offset="1" style="stop-color:#000050;stop-opacity:0.4"/>
			</radialGradient>
			<rect x="14" y="16" style="fill-rule:evenodd;clip-rule:evenodd;fill:url(#SVGID_13_);" width="41" height="41"/>
		</g>
	</g>
	<path style="fill-rule:evenodd;clip-rule:evenodd;fill:#7AA2DD;" d="M6,64v-3.3l-4.9,0.6L6,57V8h2c2.3,0,5.4-0.3,8.5-0.3
		c3,0,8.4-0.1,8.4-0.1l-1.4-6.7c0,0,7.9,6.1,8.4,7.1H64v56H6z M52,56.2l-8.5-11.6L19.8,56.1L52,56.2z M14,51.2l24.8-15.4L29.1,16H14
		V51.2z M55,44.3v-7l-2.5,1.7L55,44.3z M47.8,30.3l7.2-3.5V16H37.8L47.8,30.3z"/>
	<path style="fill-rule:evenodd;clip-rule:evenodd;fill:#053B80;" d="M6,64v-3.3l-4.9,0.6L6,57V8h2.3c2.3,0,5.4-0.3,8.5-0.3
		c3,0,8.4-0.1,8.4-0.1l-1.4-6.7c0,0,7.9,6.1,8.4,7.1H64v56H6z M52.2,56.2l-8.5-11.6L20.1,56.1L52.2,56.2z M14,51.2l24.9-15.4
		L29.4,16H14V51.2z M55,44.3v-7l-2.5,1.7L55,44.3z M48,30.3l7-3.5V16H38L48,30.3z"/>
	<path style="fill-rule:evenodd;clip-rule:evenodd;fill:#FFFFFF;" d="M61.4,61.7c-17.8,0-35.6,0-53.3,0C8,44.5,8,27.3,8,10
		c7,0,20.9,0,20.9,0c0,0,0,0,0,0c-0.1-0.3-2.1-4.3-2.2-4.8c0,0,2.6,3.2,3.9,4.8c10.2,0,20.5,0,30.7,0C61.4,10.5,61.4,45,61.4,61.7z
		 M30.7,13.2H11.4v42.6l30.7-19.2L30.7,13.2z M56.9,58.5L44.3,41.3l-32.9,16v1.3l45.5,0.1L56.9,58.5z M32.8,13.2l14.4,20.2l10.8-5
		V13.2H32.8z M49.6,38.2L58,55.8l0-23.3L49.6,38.2z"/>
</g>
</svg>
