<?xml version="1.0" encoding="UTF-8"?>
<svg xmlns="http://www.w3.org/2000/svg" xmlns:xlink="http://www.w3.org/1999/xlink" viewBox="0 0 64 64">
  <defs>
    <linearGradient id="linear-gradient" x1="33" y1="45.5" x2="58" y2="45.5" gradientUnits="userSpaceOnUse">
      <stop offset="0" stop-color="#464646"/>
      <stop offset="1" stop-color="#141414"/>
    </linearGradient>
    <linearGradient id="linear-gradient-2" x1="23.1" y1="7.33" x2="27.27" y2="14.57" gradientUnits="userSpaceOnUse">
      <stop offset="0" stop-color="#d7d7d7"/>
      <stop offset="1" stop-color="#969696"/>
    </linearGradient>
    <linearGradient id="linear-gradient-3" x1="18.97" y1="46.84" x2="21.35" y2="50.98" gradientUnits="userSpaceOnUse">
      <stop offset="0" stop-color="#f5f5f5"/>
      <stop offset="1" stop-color="#bebebe"/>
    </linearGradient>
    <linearGradient id="linear-gradient-4" x1="21.04" y1="41.26" x2="27.57" y2="52.57" gradientUnits="userSpaceOnUse">
      <stop offset="0" stop-color="#fff"/>
      <stop offset="1" stop-color="#d2d2d2"/>
    </linearGradient>
    <linearGradient id="linear-gradient-5" x1="30.21" y1="48.62" x2="33.35" y2="54.05" xlink:href="#linear-gradient-4"/>
    <linearGradient id="linear-gradient-6" x1="32.86" y1="49.48" x2="28.12" y2="22.91" xlink:href="#linear-gradient-3"/>
    <linearGradient id="linear-gradient-7" x1="24.71" y1="18.64" x2="38.71" y2="42.88" xlink:href="#linear-gradient-4"/>
    <linearGradient id="linear-gradient-8" x1="20.29" y1="13.59" x2="26.19" y2="23.8" xlink:href="#linear-gradient-4"/>
    <linearGradient id="linear-gradient-9" x1="9.5" y1="40" x2="36.5" y2="40" gradientUnits="userSpaceOnUse">
      <stop offset=".18" stop-color="#bebebe"/>
      <stop offset=".35" stop-color="#f5f5f5"/>
      <stop offset=".36" stop-color="#f4f4f4"/>
      <stop offset=".45" stop-color="#dadada"/>
      <stop offset=".53" stop-color="#cbcbcb"/>
      <stop offset=".59" stop-color="#c6c6c6"/>
      <stop offset=".66" stop-color="#ddd"/>
      <stop offset=".78" stop-color="#a49f9f"/>
    </linearGradient>
    <linearGradient id="linear-gradient-10" x1="23.5" y1="43" x2="36.5" y2="43" gradientUnits="userSpaceOnUse">
      <stop offset=".18" stop-color="#bebebe"/>
      <stop offset=".32" stop-color="#f5f5f5"/>
      <stop offset=".6" stop-color="#c6c6c6"/>
      <stop offset=".8" stop-color="#ddd"/>
      <stop offset=".96" stop-color="#a49f9f"/>
    </linearGradient>
    <linearGradient id="linear-gradient-11" x1="9.5" y1="43.5" x2="23.5" y2="43.5" xlink:href="#linear-gradient-10"/>
    <clipPath id="clippath">
      <path d="M17.16,40.24c-1.31,0-2.92.01-1.75-5.08.44-1.18,1.39-2.34,2.99-2.25,2.1-.33,5.05-1.87,8.09-.02,0,0,4.32,2.75,1.64,7.84-.95,1.81-3.04,2.81-6.36,1.95-2.24-.91-3.25-2.44-4.61-2.44Z" fill="none" stroke-width="0"/>
    </clipPath>
    <radialGradient id="radial-gradient" cx="47.29" cy="29.27" fx="47.29" fy="29.27" r="26.09" gradientTransform="translate(47.82 59.2) rotate(-163.31) scale(.76 .49) skewX(-2.59)" gradientUnits="userSpaceOnUse">
      <stop offset=".02" stop-color="#fff"/>
      <stop offset=".05" stop-color="#c7edfc"/>
      <stop offset=".08" stop-color="#a0e1fa"/>
      <stop offset=".09" stop-color="#9addf6"/>
      <stop offset=".15" stop-color="#73c3e1"/>
      <stop offset=".21" stop-color="#67b3d1"/>
      <stop offset=".33" stop-color="#4a89a7"/>
      <stop offset=".4" stop-color="#376e8c"/>
      <stop offset=".44" stop-color="#205775"/>
      <stop offset=".49" stop-color="#0e4563"/>
      <stop offset=".55" stop-color="#033a58"/>
      <stop offset=".61" stop-color="#003755"/>
      <stop offset=".65" stop-color="#0b4260"/>
      <stop offset=".74" stop-color="#285f7d"/>
      <stop offset=".78" stop-color="#376e8c"/>
    </radialGradient>
    <linearGradient id="linear-gradient-12" x1="18.12" y1="44.67" x2="12.64" y2="24.23" gradientUnits="userSpaceOnUse">
      <stop offset=".25" stop-color="#003755"/>
      <stop offset=".39" stop-color="#4d7388" stop-opacity=".76"/>
      <stop offset=".64" stop-color="#fff" stop-opacity=".2"/>
    </linearGradient>
    <linearGradient id="linear-gradient-13" x1="28.69" y1="37.97" x2="18.21" y2="31.92" gradientUnits="userSpaceOnUse">
      <stop offset="0" stop-color="#a0e1fa"/>
      <stop offset=".34" stop-color="#376e8c"/>
      <stop offset=".4" stop-color="#2f6684"/>
      <stop offset=".63" stop-color="#154c6a"/>
      <stop offset=".84" stop-color="#053c5a"/>
      <stop offset="1" stop-color="#003755"/>
    </linearGradient>
    <clipPath id="clippath-1">
      <path d="M17.2,40.34c-1.31,0-3.16-.81-1.78-5.2.44-1.18,1.39-2.34,2.99-2.25,2.1-.33,5.05-1.87,8.09-.02,0,0,4.32,2.75,1.64,7.84-.95,1.81-2.75,2.91-6.36,1.95-2.24-.91-3.23-2.33-4.58-2.33Z" fill="none" stroke-width="0"/>
    </clipPath>
    <radialGradient id="radial-gradient-2" cx="48.69" cy="43.74" fx="48.69" fy="43.74" r="9.73" gradientTransform="translate(-.06 3.84) rotate(26.39) scale(.71 .46) skewX(-4.96)" gradientUnits="userSpaceOnUse">
      <stop offset=".49" stop-color="#a0e1fa" stop-opacity="0"/>
      <stop offset="1" stop-color="#82bedc" stop-opacity=".3"/>
    </radialGradient>
    <clipPath id="clippath-2">
      <path d="M17.2,40.34c-1.31,0-3.16-.81-1.78-5.2.44-1.18,1.39-2.34,2.99-2.25,2.1-.33,5.05-1.87,8.09-.02,0,0,4.32,2.75,1.64,7.84-.95,1.81-2.75,2.91-6.36,1.95-2.24-.91-3.23-2.33-4.58-2.33Z" fill="none" stroke-width="0"/>
    </clipPath>
    <clipPath id="clippath-3">
      <path d="M17.2,40.34c-1.31,0-3.16-.81-1.78-5.2.44-1.18,1.39-2.34,2.99-2.25,2.1-.33,5.05-1.87,8.09-.02,0,0,4.32,2.75,1.64,7.84-.95,1.81-2.75,2.91-6.36,1.95-2.24-.91-3.23-2.33-4.58-2.33Z" fill="none" stroke-width="0"/>
    </clipPath>
    <clipPath id="clippath-4">
      <path d="M17.2,40.34c-1.31,0-3.16-.81-1.78-5.2.44-1.18,1.39-2.34,2.99-2.25,2.1-.33,5.05-1.87,8.09-.02,0,0,4.32,2.75,1.64,7.84-.95,1.81-2.75,2.91-6.36,1.95-2.24-.91-3.23-2.33-4.58-2.33Z" fill="none" stroke-width="0"/>
    </clipPath>
    <linearGradient id="linear-gradient-14" x1="14.93" y1="35.1" x2="24.47" y2="35.1" gradientUnits="userSpaceOnUse">
      <stop offset="0" stop-color="#fff"/>
      <stop offset=".15" stop-color="#fbfbfb" stop-opacity="1"/>
      <stop offset=".28" stop-color="#f1f0f0" stop-opacity=".99"/>
      <stop offset=".41" stop-color="#dfdede" stop-opacity=".97"/>
      <stop offset=".53" stop-color="#c6c5c5" stop-opacity=".95"/>
      <stop offset=".66" stop-color="#a6a5a5" stop-opacity=".92"/>
      <stop offset=".78" stop-color="#7f7d7d" stop-opacity=".88"/>
      <stop offset=".9" stop-color="#514e4f" stop-opacity=".84"/>
      <stop offset="1" stop-color="#231f20" stop-opacity=".8"/>
    </linearGradient>
    <mask id="mask" x="14.93" y="29.42" width="9.53" height="11.36" maskUnits="userSpaceOnUse">
      <rect x="14.93" y="29.42" width="9.53" height="11.36" fill="url(#linear-gradient-14)" opacity=".79" stroke-width="0"/>
    </mask>
    <radialGradient id="radial-gradient-3" cx="48.66" cy="43.78" fx="48.66" fy="43.78" r="6.36" gradientTransform="translate(-.05 3.86) rotate(26.39) scale(.71 .46) skewX(-4.96)" gradientUnits="userSpaceOnUse">
      <stop offset=".49" stop-color="#a0e1fa" stop-opacity="0"/>
      <stop offset="1" stop-color="#285a78" stop-opacity=".3"/>
    </radialGradient>
    <clipPath id="clippath-5">
      <path d="M17.2,40.34c-1.31,0-3.16-.81-1.78-5.2.44-1.18,1.39-2.34,2.99-2.25,2.1-.33,5.05-1.87,8.09-.02,0,0,4.32,2.75,1.64,7.84-.95,1.81-3.04,2.81-6.36,1.95-2.24-.91-3.23-2.33-4.58-2.33Z" fill="none" stroke-width="0"/>
    </clipPath>
    <linearGradient id="linear-gradient-15" x1="14.21" y1="35.65" x2="29.42" y2="35.65" gradientUnits="userSpaceOnUse">
      <stop offset=".25" stop-color="#376e8c"/>
      <stop offset=".33" stop-color="#285a78"/>
      <stop offset=".39" stop-color="#3287af"/>
      <stop offset=".65" stop-color="#73c3e1"/>
      <stop offset=".84" stop-color="#a0e1fa"/>
      <stop offset="1" stop-color="#8cd7f5"/>
    </linearGradient>
    <linearGradient id="linear-gradient-16" x1="24.64" y1="35.61" x2="22.23" y2="31.43" gradientUnits="userSpaceOnUse">
      <stop offset=".15" stop-color="#376e8c"/>
      <stop offset="1" stop-color="#003755" stop-opacity=".9"/>
    </linearGradient>
    <linearGradient id="linear-gradient-17" x1="45.56" y1="41.64" x2="49.28" y2="48.08" gradientUnits="userSpaceOnUse">
      <stop offset="0" stop-color="#3287af"/>
      <stop offset="1" stop-color="#285a78"/>
    </linearGradient>
    <linearGradient id="linear-gradient-18" x1="41.56" y1="33.7" x2="55.95" y2="33.7" xlink:href="#linear-gradient"/>
    <linearGradient id="linear-gradient-19" x1="51.27" y1="44.59" x2="64.06" y2="44.59" xlink:href="#linear-gradient"/>
  </defs>
  <g id="Microscope">
    <path d="M23.5,52.5l14.5-6c1.54-.58,1.43-1.91,1.43-1.91l.07,5.91-16,6.5v-4.5Z" fill="url(#linear-gradient-5)" stroke="#787878" stroke-linejoin="round"/>
    <polygon points="27.5 44.5 13.5 50 13.5 54.5 18.5 52 18.5 51.32 27.5 47.43 27.5 44.5" fill="url(#linear-gradient-3)" stroke="#787878" stroke-linejoin="round"/>
    <polygon points="8.5 48.5 13.5 50 13.5 54.5 8.5 53 8.5 48.5" fill="url(#linear-gradient-3)" stroke="#787878" stroke-linejoin="round"/>
    <path d="M23.41,42.87l-14.91,5.63,5,1.5,14-5.5,4,1.2-13,5.6,5,1.2,14.5-6c2.02-.74,1.87-3.24-.21-3.79l-1.98-.53c-4.1-1.09-8.45-.85-12.4.68Z" fill="url(#linear-gradient-4)" stroke="#787878" stroke-linejoin="round"/>
    <polygon points="18.5 51.32 23.5 52.5 23.5 57 18.5 56 18.5 51.32" fill="url(#linear-gradient-3)" stroke="#787878" stroke-linejoin="round"/>
    <path d="M34.38,30.02c-1.26-7.49-6.85-9.99-6.85-9.99l-4.88-.26s7.94,4.01,7.94,11.45-3.09,13.28-3.09,13.28v2.93l4-1.73s4.15-8.19,2.88-15.68Z" fill="url(#linear-gradient-6)" stroke="#787878" stroke-linejoin="round"/>
    <path d="M27.53,20.03l1.26-3.75s10.71,6.22,10.71,17.22c0,5-1,9.5-1,9.5l-7,2.7s4.15-8.19,2.88-15.68-6.85-9.99-6.85-9.99Z" fill="url(#linear-gradient-7)" stroke="#787878" stroke-linejoin="round"/>
    <path d="M21.4,13.04s.06-.54,2.57-.54,3.78,1.78,3.78,1.78l-2.78,10.22-6.02-1,2.45-10.47Z" fill="url(#linear-gradient-8)" stroke="#787878" stroke-linejoin="round"/>
    <path d="M27.77,14.28s-1.27-1.78-3.77-1.78-2.56.54-2.56.54l1.06-1.54s.99-4,1-4c0,0,0-1,2-1,3,0,3,2,3,2l-1,4,.27,1.78Z" fill="url(#linear-gradient-2)" stroke="#787878" stroke-linejoin="round"/>
    <path d="M22.2,22.58c-1.66-.26-3.11.16-3.24.94l-.5,2c.13-.78,1.58-1.21,3.24-.94,1.66.26,2.9,1.11,2.77,1.9l.5-2c.13-.78-1.11-1.63-2.77-1.9Z" fill="url(#linear-gradient-2)" stroke="#787878" stroke-linejoin="round"/>
    <ellipse cx="21.46" cy="26" rx="1.44" ry="3.04" transform="translate(-7.56 43.16) rotate(-81.06)" fill="url(#linear-gradient-2)" stroke="#787878" stroke-linejoin="round"/>
    <g>
      <path d="M24.5,17.5c0-2.21,1.21-4,2.5-4h-2.17c-1.29,0-2.33,1.79-2.33,4s1.04,4,2.33,4h2.17c-1.29,0-2.5-1.79-2.5-4Z" fill="url(#linear-gradient-2)" stroke="#787878" stroke-linejoin="round"/>
      <ellipse cx="27" cy="17.5" rx="2.5" ry="4" fill="url(#linear-gradient-4)" stroke="#787878" stroke-linejoin="round"/>
      <ellipse cx="27" cy="17.5" rx="1" ry="2.5" fill="#646464" opacity=".5" stroke-width="0"/>
    </g>
    <path d="M21.12,26.55c-1.1-.17-2.07.12-2.16.64l-.5,2c.09-.52,1.06-.81,2.16-.64s1.93.74,1.84,1.26l.5-2c.09-.52-.73-1.09-1.84-1.26Z" fill="url(#linear-gradient-2)" stroke="#787878" stroke-linejoin="round"/>
    <ellipse cx="20.46" cy="29.5" rx=".96" ry="2.02" transform="translate(-11.76 45.33) rotate(-81.43)" fill="url(#linear-gradient-2)" stroke="#787878" stroke-linejoin="round"/>
    <polygon points="36.5 39.5 22.5 35.5 9.5 40.5 23.5 44.5 36.5 39.5" fill="url(#linear-gradient-9)" stroke="#787878" stroke-linejoin="round"/>
    <polygon points="36.5 39.5 23.5 44.5 23.5 46.5 36.5 41.5 36.5 39.5" fill="url(#linear-gradient-10)" stroke="#787878" stroke-linejoin="round"/>
    <polygon points="23.5 44.5 9.5 40.5 9.5 42.5 23.5 46.5 23.5 44.5" fill="url(#linear-gradient-11)" stroke="#787878" stroke-linejoin="round"/>
    <path d="M38.48,43.01h.02s1-4.51,1-9.51c0-9.35-7.74-15.25-10.05-16.8-.2-1.45-.92-2.6-1.77-3.01l-.18-1.18,1-4s0-2-3-2c-2,0-2,1-2,1-.01,0-1,4-1,4l-.94,1.36c-.15.1-.16.17-.16.17l-2.45,10.47h.02s0,.02,0,.02l-.5,2q.03-.2,0,0c-.07.43.27.87.86,1.23-.2.11-.33.26-.36.43l-.5,2q.03-.2,0,0c-.09.52.73,1.09,1.84,1.26,1.1.17,2.07-.12,2.16-.64l.5-2c.02-.12-.01-.24-.08-.36.87-.12,1.5-.47,1.58-.97.08-.49.5-1.98.5-1.98h.01s.72-2.64.72-2.64c2.24,1.89,4.9,5.04,4.9,9.35,0,2.33-.3,4.5-.72,6.39l-7.37-2.11-13,5v2l8.47,2.42-9.47,3.58v4.5l5,1.5,5-2.5v4l5,1,16-6.5v-6c0,.08-.24-1.01-1.02-1.49Z" fill="none" stroke="#323232" stroke-linejoin="round"/>
  </g>
  <g id="Material">
    <g clip-path="url(#clippath)">
      <g>
        <path d="M17.2,40.34c-1.31,0-3.16-.81-1.78-5.2.44-1.18,1.39-2.34,2.99-2.25,2.1-.33,5.05-1.87,8.09-.02,0,0,4.32,2.75,1.64,7.84-.95,1.81-3.1,2.87-6.36,1.95-2.24-.91-3.23-2.33-4.58-2.33Z" fill="url(#radial-gradient)" stroke-width="0"/>
        <g opacity=".74">
          <path d="M15.26,35.71c-1.05,3.88.7,4.62,1.95,4.62.48,0,.91.18,1.37.44-1.14-.91-3.63-1.12-3.31-5.06Z" fill="url(#linear-gradient-12)" stroke-width="0"/>
        </g>
        <path d="M24.33,39.16c1.4,1.54,4.57.66,4.57-2.74-.46-2.37-2.43-3.55-2.43-3.55-3.04-1.85-5.98-.31-8.09.02-.3,0-.55.03-.78.08,1.02.26,2.01.74,3.44,2.24.86.91,1.76,2.27,3.29,3.95Z" fill="url(#linear-gradient-13)" stroke-width="0"/>
        <g clip-path="url(#clippath-1)">
          <g opacity=".3">
            <path d="M15.9,31.22c-1.12.24-1.49.32-1.84,1.14-2.05,4.76-.07,5.96,3.6,7.4s8.8,2.57,6.51-2.09c-.26-.26,1.1,1.39.85,1.06-4.17-5.51-6.44-6.99-9.12-7.5Z" fill="url(#radial-gradient-2)" opacity=".75" stroke-width="0"/>
          </g>
        </g>
        <g clip-path="url(#clippath-2)">
          <path d="M28.63,34.42l2.14,4.5-1.81,5.36s-8.48-.5-6.55-.94c2.73-.62,4.69-1.26,5.68-4.32.16-.49.54-.93.63-1.53.14-.91.01-1.86-.09-3.08Z" fill="#82bedc" opacity=".29" stroke-width="0"/>
        </g>
        <g clip-path="url(#clippath-3)">
          <path d="M26.63,30.05c.85,5.41,1.1,6.94-2.04,8.18-.25.1-.32.38-.13.56,1.16,1.06,2.93,1.05,3.78-.64,0,0,.96-1.03.48-6.65-.45-5.19-1.83-2.18-2.07-1.62-.02.05-.03.11-.02.17Z" fill="#fff" opacity=".09" stroke-width="0"/>
        </g>
        <g clip-path="url(#clippath-4)">
          <g mask="url(#mask)">
            <path d="M17.19,32.91c-.73.16-.98.21-1.21.74-1.34,3.11-.05,3.89,2.35,4.84,2.29.9,5.75,1.68,4.26-1.37-.17-.17.72.91.56.69-2.73-3.6-4.21-4.57-5.96-4.9Z" fill="url(#radial-gradient-3)" opacity=".75" stroke-width="0"/>
          </g>
        </g>
        <g clip-path="url(#clippath-5)">
          <path d="M14.3,32.18c5.17.9,6.08,1.83,8.86,5.72,2.96,4.13,7.27.93,5.23-3.24l-2.03-3.44" fill="none" stroke="url(#linear-gradient-15)" stroke-miterlimit="10"/>
        </g>
        <path d="M23.02,35.82c-.99-1.27-1.63-1.98-2.8-2.57-.35-.18-.28-.6.12-.7,0,0,0,0,.01,0,.91-.22,1.95-.46,3.02-.46.95,0,1.8.19,2.61.58.13.06.21.17.22.29.08.81-.15,1.49-.67,2-.47.46-1.17.89-2.02,1.04-.2.03-.4-.04-.5-.18Z" fill="url(#linear-gradient-16)" opacity=".71" stroke-width="0"/>
      </g>
    </g>
  </g>
  <g id="Calibration">
    <polygon points="58 55 53 52 53 54 37 54 37 38 39 38 36 33 33 38 35 38 35 56 53 56 53 58 58 55" fill="#fff" opacity=".7" stroke="#fff" stroke-linejoin="round" stroke-width="2"/>
    <path d="M40.6,53h0c-.33,0-.6-.28-.6-.62v-1.28c0-8.3,13.6-13.83,14.18-14.06.31-.13.66.03.78.35.12.32-.03.67-.34.8-.13.05-13.41,5.45-13.41,12.92v1.28c0,.34-.27.61-.6.61Z" fill="#fff" opacity=".7" stroke="#fff" stroke-linejoin="round" stroke-width="2"/>
    <g opacity=".7">
      <path d="M49.11,31.82c-.34,0-.78-.01-1.78-.06v.06c.8.55,1.26,1.54,1.26,2.56,0,2.49-1.71,3.59-3.25,3.59-1.83,0-3.25-1.33-3.25-3.47,0-2.27,1.44-3.6,3.49-3.61h3.57l-.04.94ZM47.38,34.38c0-1.15-.59-2.58-1.99-2.58s-2.04,1.35-2.04,2.63c0,1.49.85,2.61,2.03,2.61s2-1.12,2-2.66Z" fill="#fff" stroke-width="0"/>
      <path d="M49.11,31.82c-.34,0-.78-.01-1.78-.06v.06c.8.55,1.26,1.54,1.26,2.56,0,2.49-1.71,3.59-3.25,3.59-1.83,0-3.25-1.33-3.25-3.47,0-2.27,1.44-3.6,3.49-3.61h3.57l-.04.94ZM47.38,34.38c0-1.15-.59-2.58-1.99-2.58s-2.04,1.35-2.04,2.63c0,1.49.85,2.61,2.03,2.61s2-1.12,2-2.66Z" fill="none" stroke="#fff" stroke-linejoin="round" stroke-width="2"/>
    </g>
    <g opacity=".7">
      <path d="M57.15,48.24c-.52.35-1.53.62-2.48.62-1.36,0-2.86-.53-2.86-2.06,0-.84.69-1.54,1.68-1.7v-.07c-.9-.2-1.34-.76-1.34-1.43,0-.9.9-1.83,2.7-1.83.88,0,1.57.18,2.06.52l-.27.81c-.28-.18-1.01-.42-1.7-.42-.94,0-1.57.39-1.57,1.01,0,.67.83.97,1.89.97h.81v.88h-.85c-1.22,0-2.13.34-2.13,1.15s.84,1.23,1.83,1.23c.74,0,1.58-.28,1.99-.52l.22.84Z" fill="#fff" stroke-width="0"/>
      <path d="M57.15,48.24c-.52.35-1.53.62-2.48.62-1.36,0-2.86-.53-2.86-2.06,0-.84.69-1.54,1.68-1.7v-.07c-.9-.2-1.34-.76-1.34-1.43,0-.9.9-1.83,2.7-1.83.88,0,1.57.18,2.06.52l-.27.81c-.28-.18-1.01-.42-1.7-.42-.94,0-1.57.39-1.57,1.01,0,.67.83.97,1.89.97h.81v.88h-.85c-1.22,0-2.13.34-2.13,1.15s.84,1.23,1.83,1.23c.74,0,1.58-.28,1.99-.52l.22.84Z" fill="none" stroke="#fff" stroke-linejoin="round" stroke-width="2"/>
    </g>
    <polygon points="58 55 53 52 53 54 37 54 37 38 39 38 36 33 33 38 35 38 35 56 53 56 53 58 58 55" fill="url(#linear-gradient)" stroke-width="0"/>
    <path d="M40.6,53h0c-.33,0-.6-.28-.6-.62v-1.28c0-8.3,13.6-13.83,14.18-14.06.31-.13.66.03.78.35.12.32-.03.67-.34.8-.13.05-13.41,5.45-13.41,12.92v1.28c0,.34-.27.61-.6.61Z" fill="url(#linear-gradient-17)" stroke-width="0"/>
    <path d="M49.11,31.82c-.34,0-.78-.01-1.78-.06v.06c.8.55,1.26,1.54,1.26,2.56,0,2.49-1.71,3.59-3.25,3.59-1.83,0-3.25-1.33-3.25-3.47,0-2.27,1.44-3.6,3.49-3.61h3.57l-.04.94ZM47.38,34.38c0-1.15-.59-2.58-1.99-2.58s-2.04,1.35-2.04,2.63c0,1.49.85,2.61,2.03,2.61s2-1.12,2-2.66Z" fill="url(#linear-gradient-18)" stroke-width="0"/>
    <path d="M57.15,48.24c-.52.35-1.53.62-2.48.62-1.36,0-2.86-.53-2.86-2.06,0-.84.69-1.54,1.68-1.7v-.07c-.9-.2-1.34-.76-1.34-1.43,0-.9.9-1.83,2.7-1.83.88,0,1.57.18,2.06.52l-.27.81c-.28-.18-1.01-.42-1.7-.42-.94,0-1.57.39-1.57,1.01,0,.67.83.97,1.89.97h.81v.88h-.85c-1.22,0-2.13.34-2.13,1.15s.84,1.23,1.83,1.23c.74,0,1.58-.28,1.99-.52l.22.84Z" fill="url(#linear-gradient-19)" stroke-width="0"/>
  </g>
</svg>