<?xml version="1.0" encoding="UTF-8"?>
<svg xmlns="http://www.w3.org/2000/svg" xmlns:xlink="http://www.w3.org/1999/xlink" viewBox="0 0 64 64">
  <defs>
    <style>
      .cls-1 {
        opacity: .76;
      }

      .cls-2 {
        fill: url(#linear-gradient-16);
      }

      .cls-2, .cls-3, .cls-4, .cls-5, .cls-6, .cls-7, .cls-8, .cls-9 {
        stroke: #6d6d6d;
        stroke-linecap: round;
        stroke-linejoin: round;
      }

      .cls-2, .cls-5, .cls-8, .cls-9 {
        stroke-width: .6px;
      }

      .cls-10 {
        fill: url(#linear-gradient-2);
      }

      .cls-11 {
        fill: #333332;
      }

      .cls-3 {
        fill: url(#linear-gradient-12);
      }

      .cls-12 {
        fill: #2d2d2d;
      }

      .cls-13 {
        fill: #fff;
      }

      .cls-14 {
        fill: none;
        stroke: url(#linear-gradient-6);
        stroke-miterlimit: 10;
        stroke-width: .5px;
      }

      .cls-15 {
        fill: url(#linear-gradient-4);
      }

      .cls-16 {
        fill: url(#Dégradé_sans_nom_1537);
      }

      .cls-17 {
        opacity: .49;
      }

      .cls-18 {
        fill: url(#linear-gradient-3);
      }

      .cls-19 {
        fill: url(#linear-gradient-5);
      }

      .cls-20 {
        opacity: .52;
      }

      .cls-21 {
        fill: url(#linear-gradient-8);
      }

      .cls-4 {
        fill: url(#linear-gradient-14);
      }

      .cls-5 {
        fill: url(#linear-gradient-10);
      }

      .cls-6 {
        fill: url(#linear-gradient-13);
      }

      .cls-22 {
        fill: #9182ff;
      }

      .cls-23 {
        fill: url(#linear-gradient-17);
      }

      .cls-24 {
        fill: url(#linear-gradient-7);
      }

      .cls-25 {
        fill: #f90;
      }

      .cls-7 {
        fill: url(#linear-gradient-15);
      }

      .cls-26 {
        fill: url(#linear-gradient);
      }

      .cls-27 {
        fill: url(#Dégradé_sans_nom_40);
      }

      .cls-8 {
        fill: url(#linear-gradient-11);
      }

      .cls-9 {
        fill: url(#linear-gradient-9);
      }
    </style>
    <linearGradient id="linear-gradient" x1="19.99" y1="32.43" x2="12.16" y2="18.88" gradientUnits="userSpaceOnUse">
      <stop offset="0" stop-color="#50498a"/>
      <stop offset="1" stop-color="#6c59f2"/>
    </linearGradient>
    <linearGradient id="Dégradé_sans_nom_1537" data-name="Dégradé sans nom 1537" x1="-23.01" y1="32.43" x2="-30.84" y2="18.88" gradientTransform="translate(-4) rotate(-180) scale(1 -1)" gradientUnits="userSpaceOnUse">
      <stop offset="0" stop-color="#9c6d24"/>
      <stop offset="1" stop-color="#e09900"/>
    </linearGradient>
    <linearGradient id="Dégradé_sans_nom_40" data-name="Dégradé sans nom 40" x1="28" y1="22.73" x2="26" y2="19.27" gradientUnits="userSpaceOnUse">
      <stop offset="0" stop-color="#402700"/>
      <stop offset="1" stop-color="#170e00"/>
    </linearGradient>
    <linearGradient id="linear-gradient-2" x1="13.12" y1="31.73" x2="11.12" y2="28.27" gradientUnits="userSpaceOnUse">
      <stop offset="0" stop-color="#000"/>
      <stop offset="1" stop-color="#211a4f"/>
    </linearGradient>
    <linearGradient id="linear-gradient-3" x1="13.12" y1="22.73" x2="11.12" y2="19.27" xlink:href="#linear-gradient-2"/>
    <linearGradient id="linear-gradient-4" x1="31.91" y1="11.92" x2="36.57" y2="16.57" gradientUnits="userSpaceOnUse">
      <stop offset="0" stop-color="#0090e9"/>
      <stop offset=".33" stop-color="#2549e9"/>
      <stop offset=".76" stop-color="#8e42ff"/>
      <stop offset=".79" stop-color="#9144f5"/>
      <stop offset=".83" stop-color="#9a49db"/>
      <stop offset=".88" stop-color="#a953b2"/>
      <stop offset=".94" stop-color="#be6078"/>
      <stop offset="1" stop-color="#d66f37"/>
    </linearGradient>
    <linearGradient id="linear-gradient-5" x1="30.95" y1="10.66" x2="35.08" y2="15.16" gradientUnits="userSpaceOnUse">
      <stop offset=".4" stop-color="#7afffb"/>
      <stop offset=".46" stop-color="#7afffb" stop-opacity=".89"/>
      <stop offset=".59" stop-color="#7cfffb" stop-opacity=".6"/>
      <stop offset=".77" stop-color="#7ffffb" stop-opacity=".14"/>
      <stop offset=".83" stop-color="#80fffb" stop-opacity="0"/>
    </linearGradient>
    <linearGradient id="linear-gradient-6" x1="31.74" y1="11.74" x2="36.74" y2="16.75" gradientUnits="userSpaceOnUse">
      <stop offset=".11" stop-color="#0090e9"/>
      <stop offset=".14" stop-color="#0586e9"/>
      <stop offset=".23" stop-color="#1664e9"/>
      <stop offset=".31" stop-color="#2150e9"/>
      <stop offset=".36" stop-color="#2549e9"/>
      <stop offset=".4" stop-color="#2d49e6"/>
      <stop offset=".48" stop-color="#444ae0"/>
      <stop offset=".57" stop-color="#6a4bd7"/>
      <stop offset=".67" stop-color="#9e4dca"/>
      <stop offset=".68" stop-color="#a44ec9"/>
      <stop offset=".76" stop-color="#b15d9a"/>
      <stop offset=".93" stop-color="#d38524"/>
      <stop offset=".94" stop-color="#d6881e"/>
    </linearGradient>
    <linearGradient id="linear-gradient-7" x1="41.85" y1="9.85" x2="44.47" y2="12.48" xlink:href="#linear-gradient-4"/>
    <linearGradient id="linear-gradient-8" x1="41.21" y1="9.04" x2="43.66" y2="11.71" xlink:href="#linear-gradient-5"/>
    <linearGradient id="linear-gradient-9" x1="54.18" y1="34.69" x2="39.08" y2="34.69" gradientUnits="userSpaceOnUse">
      <stop offset="0" stop-color="#f7f7f7"/>
      <stop offset=".18" stop-color="#efefef"/>
      <stop offset=".45" stop-color="#dcdcdc"/>
      <stop offset=".78" stop-color="#bbb"/>
      <stop offset="1" stop-color="#a1a1a1"/>
    </linearGradient>
    <linearGradient id="linear-gradient-10" x1="9.11" y1="34.39" x2="55.56" y2="34.39" gradientUnits="userSpaceOnUse">
      <stop offset="0" stop-color="#666"/>
      <stop offset=".15" stop-color="#dbdcdd"/>
      <stop offset=".87" stop-color="#c6c8c9"/>
      <stop offset="1" stop-color="#f2f2f2"/>
    </linearGradient>
    <linearGradient id="linear-gradient-11" x1="8.42" y1="37.01" x2="53.63" y2="24.36" gradientUnits="userSpaceOnUse">
      <stop offset="0" stop-color="#fff"/>
      <stop offset=".05" stop-color="#f9f9f9"/>
      <stop offset=".11" stop-color="#e8e8e8"/>
      <stop offset=".18" stop-color="#cdcdcd"/>
      <stop offset=".22" stop-color="#bababa"/>
      <stop offset="1" stop-color="#fff"/>
    </linearGradient>
    <linearGradient id="linear-gradient-12" x1="19.06" y1="35.84" x2="42.35" y2="35.84" gradientUnits="userSpaceOnUse">
      <stop offset="0" stop-color="#c9c9c9"/>
      <stop offset="1" stop-color="#737373"/>
    </linearGradient>
    <linearGradient id="linear-gradient-13" x1="49.9" y1="18.66" x2="53.56" y2="18.66" gradientUnits="userSpaceOnUse">
      <stop offset="0" stop-color="#8a8a8a"/>
      <stop offset="1" stop-color="#383838"/>
    </linearGradient>
    <linearGradient id="linear-gradient-14" x1="48.58" y1="33.38" x2="52.08" y2="33.38" xlink:href="#linear-gradient-13"/>
    <linearGradient id="linear-gradient-15" x1="11.39" y1="41.59" x2="15.62" y2="41.59" xlink:href="#linear-gradient-13"/>
    <linearGradient id="linear-gradient-16" x1="30.61" y1="45.21" x2="30.61" y2="26.46" gradientUnits="userSpaceOnUse">
      <stop offset="0" stop-color="#c9c9c9"/>
      <stop offset=".6" stop-color="#737373"/>
      <stop offset=".91" stop-color="#525252"/>
    </linearGradient>
    <linearGradient id="linear-gradient-17" x1="23.28" y1="24.5" x2="46.01" y2="47.22" xlink:href="#linear-gradient-6"/>
  </defs>
  <g id="Layer_11" data-name="Layer 11">
    <rect class="cls-13" x="12" y="17.95" width="15" height="15" rx="1.79" ry="1.79"/>
    <path class="cls-11" d="M24.5,18c1.38,0,2.5,1.12,2.5,2.5v10c0,1.38-1.12,2.5-2.5,2.5h-10c-1.38,0-2.5-1.12-2.5-2.5v-10c0-1.38,1.12-2.5,2.5-2.5h10M24.5,17h-10c-1.93,0-3.5,1.57-3.5,3.5v10c0,1.93,1.57,3.5,3.5,3.5h10c1.93,0,3.5-1.57,3.5-3.5v-10c0-1.93-1.57-3.5-3.5-3.5h0Z"/>
    <path class="cls-26" d="M19,33h-4.7c-1.27,0-2.3-1.03-2.3-2.3v-10.39c0-1.27,1.03-2.3,2.3-2.3h4.7v2h-3.65c-.75,0-1.35.61-1.35,1.35v8.29c0,.75.61,1.35,1.35,1.35h3.65v2Z"/>
    <path class="cls-16" d="M20,33h4.7c1.27,0,2.3-1.03,2.3-2.3v-10.4c0-1.27-1.03-2.3-2.3-2.3h-4.7v2h3.75c.69,0,1.25.56,1.25,1.25v7.45c0,1.27-1.03,2.3-2.3,2.3h-2.7v2Z"/>
    <g>
      <circle class="cls-25" cx="27" cy="21" r="2"/>
      <path class="cls-27" d="M27,19.5c.83,0,1.5.67,1.5,1.5s-.67,1.5-1.5,1.5-1.5-.67-1.5-1.5.67-1.5,1.5-1.5M27,19c-1.1,0-2,.9-2,2s.9,2,2,2,2-.9,2-2-.9-2-2-2h0Z"/>
    </g>
    <g>
      <circle class="cls-22" cx="12.12" cy="30" r="2"/>
      <path class="cls-10" d="M12.12,28.5c.83,0,1.5.67,1.5,1.5s-.67,1.5-1.5,1.5-1.5-.67-1.5-1.5.67-1.5,1.5-1.5M12.12,28c-1.1,0-2,.9-2,2s.9,2,2,2,2-.9,2-2-.9-2-2-2h0Z"/>
    </g>
    <g>
      <circle class="cls-22" cx="12.12" cy="21" r="2"/>
      <path class="cls-18" d="M12.12,19.5c.83,0,1.5.67,1.5,1.5s-.67,1.5-1.5,1.5-1.5-.67-1.5-1.5.67-1.5,1.5-1.5M12.12,19c-1.1,0-2,.9-2,2s.9,2,2,2,2-.9,2-2-.9-2-2-2h0Z"/>
    </g>
  </g>
  <g id="Layer_5_copy_2" data-name="Layer 5 copy 2">
    <path class="cls-15" d="M34.54,9.95l.78,2.26c.15.44.5.79.95.95l2.25.79c.29.1.29.51,0,.61l-2.25.79c-.44.16-.79.5-.95.95l-.78,2.26c-.1.29-.51.29-.61,0l-.78-2.26c-.15-.44-.5-.79-.95-.95l-2.25-.79c-.29-.1-.29-.51,0-.61l2.25-.79c.44-.16.79-.5.95-.95l.78-2.26c.1-.29.51-.29.61,0Z"/>
    <g class="cls-1">
      <path class="cls-19" d="M33.94,16.01c-.23-.68-.77-1.21-1.44-1.45l-.92-.32.91-.32c.68-.24,1.21-.77,1.44-1.45l.3-.87.3.86c.24.69.77,1.22,1.46,1.46l.9.32-.9.32c-.68.24-1.22.78-1.46,1.46l-.3.86-.3-.87Z"/>
    </g>
    <path class="cls-14" d="M34.54,9.95l.78,2.26c.15.44.5.79.95.95l2.25.79c.29.1.29.51,0,.61l-2.25.79c-.44.16-.79.5-.95.95l-.78,2.26c-.1.29-.51.29-.61,0l-.78-2.26c-.15-.44-.5-.79-.95-.95l-2.25-.79c-.29-.1-.29-.51,0-.61l2.25-.79c.44-.16.79-.5.95-.95l.78-2.26c.1-.29.51-.29.61,0Z"/>
  </g>
  <g id="Layer_5_copy_3" data-name="Layer 5 copy 3">
    <path class="cls-24" d="M43.42,8.84l.36,1.04c.11.31.35.56.67.67l1.03.36c.24.09.24.43,0,.52l-1.03.36c-.31.11-.56.36-.67.67l-.36,1.04c-.08.25-.43.25-.52,0l-.36-1.04c-.11-.31-.35-.56-.67-.67l-1.03-.36c-.24-.09-.24-.43,0-.52l1.03-.36c.31-.11.56-.36.67-.67l.36-1.04c.08-.25.43-.25.52,0Z"/>
    <g class="cls-17">
      <path class="cls-21" d="M43.1,12.57c-.22-.62-.71-1.11-1.33-1.33l-.19-.07.2-.07c.62-.22,1.11-.71,1.32-1.33l.06-.17.06.17c.22.62.71,1.11,1.33,1.33l.19.07-.2.07c-.62.22-1.11.7-1.32,1.32l-.06.17-.06-.17Z"/>
    </g>
  </g>
  <g id="Layer_10" data-name="Layer 10">
    <g>
      <path class="cls-9" d="M45.56,32.35s2.78-1.2,4.34-1.2,4.05.99,4.05,2.67l-.39,1.28-9.11,3.12,1.12-5.87Z"/>
      <path class="cls-5" d="M9.11,42.28l.91,7.72c.47,1.28,2.8,2.32,5.84,1.28,2.36-.81,2.89-2.02,5.1-2.95,3.27-1.36,15.39-4.1,20.61-5.94,4.17-1.47,8.88-2.96,10.52-3.6,1.64-.64,1.48-1.6,1.48-1.6l.39-3.36c0,.72-1.4,1.28-1.4,1.28,0,0-3.43,1.12-5.14,1.76-1.71.64-1.95-.96-1.95-.96,0,0,.31-4.72.47-6.97.16-2.24,1.87-2.8,1.87-2.8,0,0,3.72-1.04,5.58-1.52,1.87-.48,2.05-1.38,2.05-1.38,0,0,.41-4.2-.24-5.52-1.11-2.24-12.38,2.01-18.93,4.89-6.54,2.88-17.53,14.97-17.53,14.97l-9.63,4.7Z"/>
      <path class="cls-8" d="M39.77,19.33c-1.87.56-6.86,2-13.56,9.05-7.08,7.45-8.98,9.13-11.22,9.93-3.58,1.28-7.04,2.42-6.08,4.48.93,2,4.88,2.02,6.54,1.04,2.73-1.6,3.92-5.38,13.63-12.73,5.61-4.24,8.57-6.48,13.32-8.01,2.8-.9,10.83-2.17,12.4-3.23,1.2-.81,1.16-4.07-4.08-3.12-1.23.22-9.1,2.03-10.97,2.59Z"/>
      <path class="cls-3" d="M41.1,26.53c-5.04,1.36-18.65,11.86-21.81,16.97-.55.88-.08,2.08,1.4,1.6,1.48-.48,6-1.92,10.75-3.04,4.75-1.12,9.04-2.4,9.04-2.4,0,0,1.48-.16,1.48-2.32s.39-9.77.39-9.77c0,0,.23-1.44-1.25-1.04Z"/>
      <path class="cls-6" d="M53.56,18.79c.03-.42-.77-.83-1.78-.9-1.01-.07-1.85.21-1.88.64-.03.42.77.83,1.78.9,1.01.07,1.85-.21,1.88-.64Z"/>
      <path class="cls-4" d="M52.07,33.5c.03-.47-.73-.9-1.69-.96-.97-.07-1.77.25-1.81.72-.03.46.73.89,1.69.96.97.07,1.77-.25,1.8-.72Z"/>
      <path class="cls-7" d="M15.61,41.08c-.14-.61-1.19-.87-2.36-.59-1.16.28-1.99,1-1.85,1.61.14.61,1.19.87,2.35.59,1.16-.28,1.99-1,1.85-1.61Z"/>
      <path class="cls-2" d="M41,26.53c-.05.01-.11.03-.16.05-.04,1.55-.24,8.92-.3,10.28-.08,1.52-1.32,1.68-1.32,1.68,0,0-19.26,5.59-19.65,5.75-.13.05-.6-.44-.6-.44l.09.81s.21.83,1.54.45c1.5-.43,6-1.92,10.75-3.04,4.75-1.12,9.04-2.4,9.04-2.4,0,0,1.48-.16,1.48-2.32s.39-9.77.39-9.77c0,0,.23-1.44-1.25-1.04Z"/>
    </g>
    <g class="cls-20">
      <path class="cls-23" d="M52.38,16.33c2.06,0,3.38.87,3.4,2.8.02,1.93-.06,3.97-.32,4.39-.27.42-.46.83-2.33,1.31-1.87.48-5.37,1.52-5.37,1.52,0,0-1.45.4-1.6,2.87-.06.96-.14,1.4-.22,2.7l.62-.23s1.89-.65,3.45-.65,3.64.66,4.1,2.71c.11.49-.35,2.55-.4,3.24-.02.26,0,1.07-1.63,1.71-1.64.64-6.27,2.04-10.44,3.51-5.22,1.84-17.2,4.73-20.47,6.09-2.22.92-2.81,2.06-5.18,2.87-.86.3-1.7.42-2.47.42-1.93,0-3.42-.8-3.75-1.72l-1.31-7.8c-.15-1.72,3.16-3.07,6.4-4.23,2.24-.8,4.28-2.36,11.37-9.81,6.7-7.04,11.69-8.49,13.56-9.05,1.87-.56,9.93-2.33,11.16-2.53.51-.08,1-.12,1.45-.12M52.38,14.93c-.52,0-1.08.05-1.67.14-1.23.2-9.38,1.98-11.35,2.57l-.06.02c-1.98.59-7.22,2.16-14.11,9.41-6.93,7.29-8.87,8.76-10.82,9.46-3.99,1.43-7.56,2.93-7.32,5.66v.06s.01.06.01.06l1.31,7.8.02.13.04.12c.58,1.58,2.61,2.64,5.07,2.64.98,0,1.96-.17,2.93-.5,1.45-.5,2.35-1.12,3.15-1.68.63-.44,1.22-.85,2.11-1.22,1.61-.67,5.74-1.81,9.74-2.92,3.98-1.1,8.09-2.23,10.66-3.14,2.1-.74,4.29-1.46,6.23-2.08,1.91-.62,3.42-1.11,4.26-1.44,1.59-.62,2.44-1.59,2.52-2.89.02-.21.09-.66.16-1.05.24-1.42.33-2.09.21-2.61-.63-2.81-3.34-3.81-5.46-3.81-.85,0-1.77.16-2.5.33.02-.2.03-.42.05-.66.08-1.26.56-1.58.65-1.62.51-.15,3.6-1.06,5.28-1.49,1.96-.5,2.61-1.04,3.13-1.87l.03-.05c.21-.32.59-.92.54-5.16-.03-2.62-1.82-4.19-4.8-4.19h0Z"/>
    </g>
    <path class="cls-12" d="M52.38,16.61c2.03,0,3.28.86,3.16,2.87-.11,1.93,0,3.5-.28,3.91-.27.42-.35.66-2.22,1.14-1.87.48-5.3,1.54-5.3,1.54,0,0-1.63.62-1.79,2.87-.07.96-.13,1.99-.22,3.3l.76-.28s1.83-.8,3.39-.8,3.62.58,4.08,2.63c.11.49-.31,2.36-.37,3.05-.02.26.1.96-1.53,1.6-1.64.64-6.35,2.13-10.52,3.6-5.22,1.84-17.3,4.64-20.57,6-2.22.92-2.78,2.07-5.14,2.88-.87.3-1.68.43-2.41.43-1.81,0-3.1-.79-3.43-1.71l-1.2-7.49c-.15-1.72,2.97-2.79,6.22-3.95,2.24-.8,4.07-2.47,11.15-9.92,6.7-7.04,11.93-8.56,13.8-9.12,1.87-.56,9.7-2.22,10.93-2.42.52-.08,1.01-.13,1.47-.13M52.38,16.11c-.47,0-.99.04-1.55.13-1.3.21-9.16,1.89-10.99,2.43l-.06.02c-1.98.59-7.24,2.17-13.96,9.24-7.12,7.49-8.86,9.04-10.96,9.79l-.2.07c-3.5,1.25-6.52,2.33-6.34,4.39l1.21,7.53v.05s.02.04.02.04c.44,1.22,2.01,2.04,3.9,2.04.83,0,1.7-.15,2.57-.45,1.33-.46,2.13-1.02,2.91-1.57.66-.47,1.29-.92,2.27-1.32,1.64-.68,5.6-1.75,9.79-2.88,4.03-1.09,8.19-2.21,10.76-3.11,1.99-.7,4.09-1.4,5.95-2.02,2-.67,3.72-1.24,4.59-1.58,1.61-.63,1.83-1.39,1.85-1.98.02-.28.09-.68.16-1.1.18-1.08.29-1.76.2-2.14-.5-2.23-2.69-3.02-4.57-3.02-1.64,0-3.51.81-3.59.85h-.01s.06-.89.06-.89c.04-.59.07-1.12.11-1.64.13-1.9,1.45-2.43,1.47-2.43,0,0,3.41-1.05,5.25-1.52,1.8-.46,2.13-.74,2.48-1.3l.03-.05c.24-.38.27-1.04.29-2.37.01-.53.02-1.14.06-1.79.06-1.01-.19-1.81-.75-2.4-.63-.66-1.61-1-2.92-1h0Z"/>
  </g>
</svg>