<?xml version="1.0" encoding="UTF-8"?>
<svg xmlns="http://www.w3.org/2000/svg" xmlns:xlink="http://www.w3.org/1999/xlink" viewBox="0 0 64 64">
  <defs>
    <linearGradient id="linear-gradient" x1="51.5" y1="50.13" x2="55.84" y2="57.66" gradientUnits="userSpaceOnUse">
      <stop offset="0" stop-color="#8cd7f5"/>
      <stop offset="1" stop-color="#376e8c"/>
    </linearGradient>
    <linearGradient id="linear-gradient-2" x1="21" y1="27.5" x2="28" y2="27.5" gradientUnits="userSpaceOnUse">
      <stop offset="0" stop-color="#464646"/>
      <stop offset="1" stop-color="#141414"/>
    </linearGradient>
    <linearGradient id="linear-gradient-3" x1="9" x2="55" xlink:href="#linear-gradient-2"/>
    <linearGradient id="linear-gradient-4" x1="49.07" y1="47" x2="55.38" y2="57.92" gradientUnits="userSpaceOnUse">
      <stop offset="0" stop-color="#fff"/>
      <stop offset="1" stop-color="#d2d2d2"/>
    </linearGradient>
    <linearGradient id="linear-gradient-5" x1="9" x2="55" xlink:href="#linear-gradient-2"/>
    <linearGradient id="linear-gradient-6" x1="13.77" y1="22.77" x2="19.23" y2="32.23" gradientUnits="userSpaceOnUse">
      <stop offset="0" stop-color="#fff"/>
      <stop offset="1" stop-color="#d4d5d3"/>
    </linearGradient>
    <linearGradient id="linear-gradient-7" x1="14.85" y1="22.14" x2="18.15" y2="27.86" xlink:href="#linear-gradient"/>
    <linearGradient id="linear-gradient-8" x1="28.77" y1="30.77" x2="34.23" y2="40.23" xlink:href="#linear-gradient-6"/>
    <linearGradient id="linear-gradient-9" x1="29.85" y1="30.14" x2="33.15" y2="35.86" xlink:href="#linear-gradient"/>
    <linearGradient id="linear-gradient-10" x1="28.77" y1="14.77" x2="34.23" y2="24.23" xlink:href="#linear-gradient-6"/>
    <linearGradient id="linear-gradient-11" x1="29.85" y1="14.14" x2="33.15" y2="19.86" xlink:href="#linear-gradient"/>
    <linearGradient id="Dégradé_sans_nom_5" data-name="Dégradé sans nom 5" x1="20.91" y1="27.5" x2="54" y2="27.5" gradientUnits="userSpaceOnUse">
      <stop offset="0" stop-color="#fff"/>
      <stop offset="1" stop-color="#fff" stop-opacity="0"/>
    </linearGradient>
  </defs>
  <g id="System">
    <rect x="8.5" y="11.5" width="47" height="32" rx="1.83" ry="1.83" fill="none" stroke="#323232" stroke-linejoin="round"/>
    <rect x="9" y="12" width="46" height="31" rx=".6" ry=".6" fill="url(#linear-gradient-5)" stroke-width="0"/>
    <path d="M10,14v27c0,.55.45,1,1,1h42c.55,0,1-.45,1-1V14c0-.55-.45-1-1-1H11c-.55,0-1,.45-1,1Z" fill="#fff" stroke-width="0"/>
    <rect x="12.5" y="23.5" width="8" height="8" fill="url(#linear-gradient-6)" stroke="#323232" stroke-linejoin="round"/>
    <rect x="12.5" y="23.5" width="8" height="3" fill="url(#linear-gradient-7)" stroke="#003755" stroke-linejoin="round"/>
    <polygon points="25 27 25 20 28 20 28 19 25 19 24 19 24 20 24 27 21 27 21 28 24 28 24 35 24 36 25 36 28 36 28 35 25 35 25 28 25 27" fill="url(#linear-gradient-2)" stroke-width="0"/>
    <path d="M40,13h13c.55,0,1,.45,1,1v27c0,.55-.45,1-1,1h-13V13h0Z" fill="#646464" opacity=".5" stroke-width="0"/>
    <rect x="42" y="15" width="10" height="1" fill="#fff" stroke-width="0"/>
    <rect x="42" y="18" width="10" height="1" fill="#fff" stroke-width="0"/>
    <rect x="42" y="21" width="10" height="1" fill="#fff" stroke-width="0"/>
    <rect x="42" y="24" width="10" height="1" fill="#fff" stroke-width="0"/>
    <rect x="42" y="27" width="10" height="1" fill="#fff" stroke-width="0"/>
    <rect x="42" y="30" width="10" height="1" fill="#fff" stroke-width="0"/>
    <rect x="42" y="33" width="10" height="1" fill="#fff" stroke-width="0"/>
    <rect x="42" y="36" width="10" height="1" fill="#fff" stroke-width="0"/>
    <rect x="42" y="39" width="10" height="1" fill="#fff" stroke-width="0"/>
    <rect x="27.5" y="31.5" width="8" height="8" fill="url(#linear-gradient-8)" stroke="#323232" stroke-linejoin="round"/>
    <rect x="27.5" y="31.5" width="8" height="3" fill="url(#linear-gradient-9)" stroke="#003755" stroke-linejoin="round"/>
    <rect x="27.5" y="15.5" width="8" height="8" fill="url(#linear-gradient-10)" stroke="#323232" stroke-linejoin="round"/>
    <rect x="27.5" y="15.5" width="8" height="3" fill="url(#linear-gradient-11)" stroke="#003755" stroke-linejoin="round"/>
    <path d="M53.4,42H20.91l15.26-29h17.23c.33,0,.6.27.6.6v27.8c0,.33-.27.6-.6.6Z" fill="url(#Dégradé_sans_nom_5)" opacity=".3" stroke-width="0"/>
  </g>
  <g id="magnifying_glass" data-name="magnifying glass">
    <path d="M56.94,54.13l-6.42-6.35c1.24-1.78,1.98-3.95,1.98-6.28,0-6.08-4.92-11-11-11s-11,4.92-11,11,4.92,11,11,11c2.32,0,4.46-.72,6.24-1.94l6.41,6.38c.36.42.84.56,1.37.56s1.01-.14,1.43-.56c.42-.42.56-.87.56-1.4s-.14-.98-.56-1.4Z" fill="#fff" opacity=".5" stroke="#fff" stroke-linejoin="round" stroke-width="3"/>
    <circle cx="41.5" cy="41.5" r="9" fill="#fff" opacity=".5" stroke-width="0"/>
    <path d="M56.94,54.13l-7.45-7.38-2.8,2.75,7.46,7.43c.36.42.84.56,1.37.56s1.01-.14,1.43-.56.56-.87.56-1.4-.14-.98-.56-1.4Z" fill="url(#linear-gradient-4)" stroke="#787878" stroke-linejoin="round"/>
    <path d="M51.6,48.85l-1.08-1.06c-.76,1.08-1.7,2.02-2.79,2.77l1.07,1.07c1.07-.77,2.01-1.71,2.79-2.78Z" fill="#646464" opacity=".5" stroke-width="0"/>
    <path d="M41.5,30.5c-6.08,0-11,4.92-11,11s4.92,11,11,11,11-4.92,11-11-4.92-11-11-11ZM41.5,50.5c-4.97,0-9-4.03-9-9s4.03-9,9-9,9,4.03,9,9-4.03,9-9,9Z" fill="url(#linear-gradient-4)" stroke="#787878" stroke-linejoin="round"/>
    <path d="M56.94,54.13l-6.42-6.35c1.24-1.78,1.98-3.95,1.98-6.28,0-6.08-4.92-11-11-11s-11,4.92-11,11,4.92,11,11,11c2.32,0,4.46-.72,6.24-1.94l6.41,6.38c.36.42.84.56,1.37.56s1.01-.14,1.43-.56c.42-.42.56-.87.56-1.4s-.14-.98-.56-1.4Z" fill="none" stroke="#323232" stroke-linejoin="round"/>
    <path d="M56.94,54.13l-4.56-4.51-2.79,2.79,4.55,4.53c.36.42.84.56,1.37.56s1.01-.14,1.43-.56c.42-.42.56-.87.56-1.4s-.14-.98-.56-1.4Z" fill="url(#linear-gradient)" stroke="#003755" stroke-linejoin="round"/>
    <path d="M46.87,42.06h0c-.7-.19-1.43.13-1.77.77-.52.96-1.31,1.76-2.28,2.27-.64.34-.95,1.07-.77,1.77h0c.23.83,1.08,1.3,1.91,1.07.11-.03.21-.07.31-.13,1.51-.81,2.74-2.04,3.54-3.54.4-.75.12-1.7-.63-2.1-.1-.06-.2-.09-.31-.13h0Z" fill="#fff" isolation="isolate" opacity=".3" stroke-width="0"/>
    <path d="M36.13,40.94h0c.7.19,1.43-.13,1.77-.77.52-.96,1.31-1.76,2.28-2.27.64-.34.95-1.07.77-1.77h0c-.23-.83-1.08-1.3-1.91-1.07-.11.03-.21.07-.31.13-1.51.81-2.74,2.04-3.54,3.54-.4.75-.12,1.7.63,2.1.1.06.2.09.31.13h0Z" fill="#fff" isolation="isolate" opacity=".3" stroke-width="0"/>
  </g>
</svg>