<?xml version="1.0" encoding="UTF-8"?><svg xmlns="http://www.w3.org/2000/svg" xmlns:xlink="http://www.w3.org/1999/xlink" viewBox="0 0 64 64"><defs><linearGradient id="linear-gradient" x1="36.78" y1="34.19" x2="45.22" y2="48.81" gradientUnits="userSpaceOnUse"><stop offset="0" stop-color="#8cd7f5"/><stop offset="1" stop-color="#376e8c"/></linearGradient><linearGradient id="linear-gradient-2" x1="38" y1="52" x2="44" y2="52" gradientUnits="userSpaceOnUse"><stop offset="0" stop-color="#464646"/><stop offset="1" stop-color="#141414"/></linearGradient><linearGradient id="linear-gradient-3" x1="15.27" y1="3.02" x2="48.73" y2="60.98" gradientUnits="userSpaceOnUse"><stop offset="0" stop-color="#fff"/><stop offset="1" stop-color="#d4d5d3"/></linearGradient><linearGradient id="linear-gradient-4" x1="40" y1="9.5" x2="42" y2="9.5" xlink:href="#linear-gradient-2"/><linearGradient id="linear-gradient-5" x1="19" y1="29.5" y2="29.5" xlink:href="#linear-gradient-2"/></defs><g id="Layer_1"><rect x="7.5" y="7.5" width="49" height="49" fill="url(#linear-gradient-3)" stroke="#323232" stroke-linejoin="round"/><rect x="34.5" y="35.5" width="13" height="12" fill="url(#linear-gradient)" stroke="#003755" stroke-linejoin="round"/><rect x="34.5" y="11.5" width="13" height="12" fill="url(#linear-gradient-3)" stroke="#323232" stroke-linejoin="round"/><rect x="15.5" y="35.5" width="13" height="12" fill="url(#linear-gradient-3)" stroke="#323232" stroke-linejoin="round"/><polygon points="44 50 42 50 42 48 40 48 40 50 38 50 38 52 40 52 40 56 42 56 42 52 44 52 44 50" fill="url(#linear-gradient-2)"/><polygon points="25 50 23 50 23 48 21 48 21 50 19 50 19 52 21 52 21 56 23 56 23 52 25 52 25 50" fill="url(#linear-gradient-2)"/><polygon points="35 23 35 12 47 12 46 13 35.99 13 36 22 35 23" fill="#fff" opacity=".5"/><polygon points="47 12 47 23 35 23 36 22 46.01 22 46 13 47 12" fill="#646464" opacity=".5"/><polygon points="16 47 16 36 28 36 27 37 16.99 37 17 46 16 47" fill="#fff" opacity=".5"/><polygon points="8 56 8 8 56 8 55 9 8.99 9 9 55 8 56" fill="#fff" opacity=".5"/><polygon points="56 8 56 56 8 56 9 55 55.01 55 55 9 56 8" fill="#646464" opacity=".5"/><polygon points="28 36 28 47 16 47 17 46 27.01 46 27 37 28 36" fill="#646464" opacity=".5"/><polygon points="35 47 35 36 47 36 46 37 35.99 37 36 46 35 47" fill="#fff" opacity=".5"/><polygon points="47 36 47 47 35 47 36 46 46.01 46 46 37 47 36" fill="#646464" opacity=".5"/><rect x="40" y="8" width="2" height="3" fill="url(#linear-gradient-4)"/><polygon points="42 31 42 24 40 24 40 25 21 25 21 31 19 31 19 33 21 33 21 35 23 35 23 33 25 33 25 31 23 31 23 27 40 27 40 31 38 31 38 33 40 33 40 35 42 35 42 33 44 33 44 31 42 31" fill="url(#linear-gradient-5)"/></g><g id="Layer_3"><g id="Layer_9"><path d="m29,14.75c-.02-4-3.28-7.23-7.29-7.21-3.5.02-6.49,2.54-7.1,5.99-3.99.35-6.94,3.87-6.58,7.86.35,3.99,3.87,6.94,7.86,6.58,3.27-.29,5.94-2.74,6.5-5.97,3.75-.34,6.62-3.48,6.61-7.25Z" fill="#fff"/><path d="m21.5,24.5c-3.54,0-6.74-2.07-8.2-5.29-.08-.15-.08-.33,0-.48.09-.14.25-.23.42-.23h4.98c.12,0,.23.04.32.11.7.57,1.58.89,2.48.89,2.21,0,4-1.79,4-4s-1.79-4-4-4c-.9,0-1.78.32-2.48.89-.09.07-.2.11-.32.11h-4.94c-.17,0-.33-.09-.42-.23-.08-.15-.08-.33,0-.48,2.05-4.53,7.38-6.54,11.91-4.49s6.54,7.38,4.49,11.91c-1.46,3.23-4.69,5.31-8.24,5.29Z" fill="#075081"/><path d="m21.5,7c4.69,0,8.5,3.8,8.51,8.49,0,4.69-3.8,8.5-8.49,8.51-3.34,0-6.38-1.95-7.75-5h4.94c1.93,1.56,4.77,1.26,6.33-.67,1.56-1.93,1.26-4.77-.67-6.33-1.65-1.33-4.01-1.33-5.66,0h-4.94c1.37-3.04,4.4-5,7.74-5m0-1c-3.73,0-7.11,2.19-8.65,5.59-.14.31-.11.67.07.95.18.29.5.46.84.46h4.94c.23,0,.45-.08.63-.22.61-.5,1.38-.78,2.17-.78,1.93,0,3.5,1.57,3.5,3.5s-1.57,3.5-3.5,3.5h0c-.79,0-1.56-.28-2.17-.78-.18-.14-.4-.22-.63-.22h-4.94c-.34,0-.66.17-.84.46-.18.28-.21.64-.07.95,2.16,4.78,7.79,6.91,12.57,4.75,4.78-2.16,6.91-7.79,4.75-12.57-1.54-3.41-4.93-5.59-8.67-5.59Z" fill="#fff"/><path d="m15.5,30.5c-4.97,0-9-4.03-9-9,0-4.97,4.03-9,9-9,3.53,0,6.74,2.07,8.2,5.29.08.15.08.33,0,.48-.09.14-.25.23-.42.23h-4.98c-.12,0-.23-.04-.32-.11-.7-.57-1.58-.89-2.48-.89-2.21,0-4,1.79-4,4s1.79,4,4,4c.91,0,1.8-.31,2.5-.89.09-.07.2-.11.32-.11h4.94c.17,0,.33.09.42.23.08.15.08.33,0,.48-1.45,3.21-4.65,5.28-8.18,5.29Z" fill="#075081"/><path d="m15.5,13c3.34,0,6.37,1.96,7.74,5h-4.94c-1.93-1.56-4.77-1.26-6.33.67-1.56,1.93-1.26,4.77.67,6.33,1.65,1.33,4.01,1.33,5.66,0h4.94c-1.93,4.28-6.97,6.18-11.25,4.25-4.28-1.93-6.18-6.97-4.25-11.25,1.38-3.05,4.41-5,7.75-5m0-1c-5.25,0-9.5,4.25-9.51,9.49,0,5.25,4.25,9.5,9.49,9.51,3.74,0,7.13-2.18,8.67-5.59.14-.31.11-.67-.07-.95-.18-.29-.5-.46-.84-.46h-4.94c-.23,0-.45.08-.63.22-.61.5-1.38.78-2.17.78-1.93,0-3.5-1.57-3.5-3.5s1.57-3.5,3.5-3.5c.79,0,1.56.28,2.17.78.18.14.4.22.63.22h4.94c.34,0,.66-.17.84-.46.18-.28.21-.64.07-.95-1.54-3.4-4.92-5.58-8.65-5.59Z" fill="#fff"/></g></g></svg>