<?xml version="1.0" encoding="UTF-8"?>
<svg id="FINAL_ART" data-name="FINAL ART" xmlns="http://www.w3.org/2000/svg" xmlns:xlink="http://www.w3.org/1999/xlink" viewBox="0 0 64 64">
  <defs>
    <style>
      .cls-1 {
        fill: url(#linear-gradient-2);
      }

      .cls-2 {
        stroke: #323232;
      }

      .cls-2, .cls-3 {
        fill: none;
        stroke-linecap: round;
        stroke-linejoin: round;
      }

      .cls-4 {
        opacity: .15;
      }

      .cls-3 {
        stroke: #333332;
      }

      .cls-5 {
        opacity: .1;
      }

      .cls-6 {
        fill: url(#linear-gradient);
      }
    </style>
    <linearGradient id="linear-gradient" x1="26.76" y1="19.39" x2="43.04" y2="47.59" gradientUnits="userSpaceOnUse">
      <stop offset="0" stop-color="#fff"/>
      <stop offset="1" stop-color="#f1f0f0"/>
    </linearGradient>
    <linearGradient id="linear-gradient-2" x1="46.62" y1="52.21" x2="22.89" y2="11.11" gradientUnits="userSpaceOnUse">
      <stop offset="0" stop-color="#386f8d"/>
      <stop offset="1" stop-color="#8dd7f4"/>
    </linearGradient>
  </defs>
  <polygon class="cls-6" points="6.97 41.9 20.47 37.9 10.97 24.9 21.97 17.4 30.97 29.4 38.97 21.4 45.47 10.4 56.97 14.9 49.97 26.4 42.47 35.4 55.97 35.9 46.97 48.9 32.97 45.9 20.47 53.9 6.97 41.9"/>
  <path class="cls-1" d="m47.06,15.6l-3.39-1.42,1.91-3.35,3.46,1.36-1.98,3.41Zm9.33-.51l-3.75-1.48-2.05,3.46,3.67,1.53,2.13-3.52Zm-11.27,3.86l-3.32-1.47-1.84,3.24,3.26,1.52,1.91-3.29Zm5.47-1.87l-3.53-1.47-1.94,3.35,3.46,1.53,2.01-3.4Zm1.59,4.99l-3.6-1.59-1.98,3.34,3.53,1.64,2.05-3.39Zm-17.61,9.49l-3.46-1.79-3.01,2.38,3.54,1.96,2.93-2.55Zm7.59,3.93l-3.91-2.03-2.83,2.73,4.03,2.23,2.72-2.93Zm-13.77,1.44l-3.62-2.15-3.69,2.92,3.7,2.38,3.62-3.14Zm7.02-.73l-3.78-2.09-3.25,2.82,3.87,2.3,3.15-3.04Zm1,5.5l-4.15-2.47-3.52,3.39,4.27,2.75,3.4-3.67Zm-18.34-15.16l-3.6,2.58,3.04,4.13,3.56-2.7-3-4.01Zm6.71-4.8l-3.27,2.34,2.96,3.89,3.23-2.45-2.91-3.78Zm-6.18-1.49l-3.47,2.35,2.95,3.94,3.43-2.46-2.91-3.83Zm5.86,7.72l-3.39,2.57,3.05,4.08,3.34-2.69-3-3.96Zm18.99,11.02l-3.82-.42-2.9,3.25,3.85.64,2.87-3.47Zm9.17,1l-4.87-.53-2.82,3.72,4.97.82,2.72-4.02Zm-2.34-3.87l-4.23-.26-2.6,3.13,4.3.47,2.53-3.34Zm-5.35,7.06l-4.35-.72-3.2,3.86,4.39,1.03,3.16-4.17Zm-24.35-1.39l-3.59-2.6-4.23,1.3,3.68,2.91,4.14-1.62Zm8.45,6.11l-4.46-3.23-4.01,2,4.67,3.69,3.8-2.46Zm-1.11-4.9l-3.84-2.58-3.5,1.37,3.99,2.88,3.35-1.67Zm-7.36,3.67l-4.13-3.27-4.98,1.94,4.23,3.75,4.87-2.43Zm19.72-21.09l-3.36-1.7-2.59,2.67,3.37,1.78,2.58-2.75Zm7.11,3.59l-3.62-1.83-2.56,2.84,3.64,1.92,2.54-2.93Zm-1.16-4.57l-3.47-1.68-2.48,2.66,3.49,1.76,2.47-2.74Zm-5.03,5.58l-3.5-1.85-2.68,2.86,3.52,1.94,2.66-2.95Z"/>
  <g>
    <polygon class="cls-5" points="56.25 35.74 42.5 35.4 33 45.9 47 48.9 56.25 35.74"/>
    <polygon class="cls-4" points="39.5 20.9 45.5 10.4 57 14.9 50.64 25.7 39.5 20.9"/>
    <polygon class="cls-5" points="31.34 29.09 39.55 20.87 50.12 25.83 42.68 35.35 31.34 29.09"/>
  </g>
  <g>
    <line class="cls-2" x1="49.97" y1="25.9" x2="39.47" y2="20.9"/>
    <line class="cls-2" x1="30.97" y1="29.4" x2="42.47" y2="35.4"/>
    <line class="cls-2" x1="20.47" y1="37.9" x2="30.97" y2="29.4"/>
    <line class="cls-2" x1="32.97" y1="45.9" x2="42.47" y2="35.4"/>
    <line class="cls-2" x1="20.47" y1="37.9" x2="32.97" y2="45.9"/>
  </g>
  <polygon class="cls-3" points="6.97 41.9 20.47 37.9 10.97 24.9 21.97 17.4 30.97 29.4 38.97 21.4 45.47 10.4 56.97 14.9 49.97 26.4 42.47 35.4 55.97 35.9 46.97 48.9 32.97 45.9 20.47 53.9 6.97 41.9"/>
</svg>