<?xml version="1.0" encoding="UTF-8"?>
<svg id="o" data-name="IT 1" xmlns="http://www.w3.org/2000/svg" xmlns:xlink="http://www.w3.org/1999/xlink" viewBox="0 0 64 64">
  <defs>
    <linearGradient id="a" x1="39.79" y1="35.24" x2="52.21" y2="56.76" gradientUnits="userSpaceOnUse">
      <stop offset="0" stop-color="#8cd7f5"/>
      <stop offset="1" stop-color="#376e8c"/>
    </linearGradient>
    <linearGradient id="c" x1="34.66" y1="31.01" x2="37.14" y2="31.01" gradientUnits="userSpaceOnUse">
      <stop offset="0" stop-color="#464646"/>
      <stop offset="1" stop-color="#141414"/>
    </linearGradient>
    <linearGradient id="e" x1="13.36" y1="28.29" x2="15" y2="28.29" gradientTransform="translate(41.11 11.68) rotate(84.95)" xlink:href="#c"/>
    <linearGradient id="j" x1="20.1" y1="21.48" x2="34.16" y2="45.83" gradientUnits="userSpaceOnUse">
      <stop offset="0" stop-color="#d7d7d7"/>
      <stop offset="1" stop-color="#969696"/>
    </linearGradient>
    <linearGradient id="m" x1="43.47" y1="27.4" x2="46.96" y2="33.45" gradientUnits="userSpaceOnUse">
      <stop offset="0" stop-color="#fff"/>
      <stop offset="1" stop-color="#d2d2d2"/>
    </linearGradient>
    <linearGradient id="p" x1="19.5" y1="10.34" x2="44.5" y2="53.66" gradientUnits="userSpaceOnUse">
      <stop offset="0" stop-color="#3287af"/>
      <stop offset="1" stop-color="#285a78"/>
    </linearGradient>
    <linearGradient id="q" x1="22.5" y1="15.54" x2="41.5" y2="48.46" xlink:href="#p"/>
    <linearGradient id="r" x1="25" y1="19.87" x2="39" y2="44.13" xlink:href="#p"/>
    <linearGradient id="s" x1="14.8" y1="14.44" x2="26.7" y2="35.06" gradientUnits="userSpaceOnUse">
      <stop offset="0" stop-color="#fff"/>
      <stop offset="1" stop-color="#d4d5d3"/>
    </linearGradient>
    <linearGradient id="t" x1="8.75" y1="15.83" x2="11.25" y2="20.17" xlink:href="#s"/>
    <linearGradient id="u" x1="19.32" y1="9.61" x2="32.18" y2="31.89" xlink:href="#s"/>
    <linearGradient id="v" x1="18.5" y1="7.77" x2="20.5" y2="11.23" xlink:href="#s"/>
    <linearGradient id="w" x1="37.03" y1="16.54" x2="42.47" y2="25.96" xlink:href="#s"/>
    <linearGradient id="x" x1="46.5" y1="8.77" x2="48.5" y2="12.23" xlink:href="#s"/>
    <linearGradient id="y" x1="39.03" y1="27.94" x2="47.47" y2="42.56" xlink:href="#s"/>
    <linearGradient id="z" x1="53.5" y1="36.77" x2="55.5" y2="40.23" xlink:href="#s"/>
    <linearGradient id="aa" x1="20.74" y1="38.5" x2="22.76" y2="42" xlink:href="#s"/>
    <linearGradient id="ab" x1="10.75" y1="45.83" x2="13.25" y2="50.17" xlink:href="#s"/>
    <linearGradient id="ac" x1="23.57" y1="36.87" x2="30.93" y2="49.63" xlink:href="#s"/>
    <linearGradient id="ad" x1="21.5" y1="52.77" x2="23.5" y2="56.23" xlink:href="#s"/>
    <linearGradient id="ae" x1="48.09" y1="24.86" x2="33.84" y2="23.5" gradientUnits="userSpaceOnUse">
      <stop offset="0" stop-color="#f5f5f5"/>
      <stop offset="1" stop-color="#bebebe"/>
    </linearGradient>
    <linearGradient id="af" data-name="Dégradé sans nom 7" x1="27.54" y1="19.43" x2="39.68" y2="40.45" gradientUnits="userSpaceOnUse">
      <stop offset="0" stop-color="#aaa"/>
      <stop offset=".65" stop-color="#5a5a5a"/>
    </linearGradient>
    <linearGradient id="ag" data-name="Dégradé sans nom 8" x1="21.36" y1="37.64" x2="23.68" y2="41.66" gradientUnits="userSpaceOnUse">
      <stop offset="0" stop-color="#aaa"/>
      <stop offset=".5" stop-color="#5a5a5a"/>
    </linearGradient>
    <linearGradient id="ah" data-name="Dégradé sans nom 3" x1="20.95" y1="24.39" x2="20.25" y2="34.59" gradientUnits="userSpaceOnUse">
      <stop offset="0" stop-color="#fff"/>
      <stop offset="1" stop-color="#fff" stop-opacity="0"/>
    </linearGradient>
    <linearGradient id="ai" data-name="Dégradé sans nom 5" x1="37.8" y1="33.24" x2="44.06" y2="41.01" gradientUnits="userSpaceOnUse">
      <stop offset="0" stop-color="#000" stop-opacity="0"/>
      <stop offset="1" stop-color="#000"/>
    </linearGradient>
    <linearGradient id="aj" x1="13.36" y1="28.29" x2="15" y2="28.29" gradientTransform="translate(41.11 11.68) rotate(84.95)" xlink:href="#c"/>
    <linearGradient id="ak" data-name="Dégradé sans nom 3" x1="22.48" y1="20.72" x2="29.86" y2="33.5" xlink:href="#ah"/>
    <linearGradient id="al" data-name="Blanc, Noir" x1="40.06" y1="35.71" x2="51.94" y2="56.29" gradientUnits="userSpaceOnUse">
      <stop offset="0" stop-color="#fff"/>
      <stop offset="1" stop-color="#000"/>
    </linearGradient>
    <linearGradient id="am" data-name="Dégradé sans nom 17" x1="43" y1="40.8" x2="49" y2="51.2" gradientUnits="userSpaceOnUse">
      <stop offset="0" stop-color="#376e8c"/>
      <stop offset="1" stop-color="#8cd7f5"/>
    </linearGradient>
  </defs>
  <g>
    <g opacity=".5">
      <path d="M32,7c-13.81,0-25,11.19-25,25s11.19,25,25,25,25-11.19,25-25S45.81,7,32,7ZM32,52c-11.05,0-20-8.95-20-20s8.95-20,20-20,20,8.95,20,20-8.95,20-20,20Z" fill="url(#p)" stroke-width="0"/>
    </g>
    <g opacity=".75">
      <path d="M32,13c-10.49,0-19,8.51-19,19s8.51,19,19,19,19-8.51,19-19-8.51-19-19-19ZM32,47c-8.28,0-15-6.72-15-15s6.72-15,15-15,15,6.72,15,15-6.72,15-15,15Z" fill="url(#q)" stroke-width="0"/>
    </g>
    <path d="M32,18c-7.73,0-14,6.27-14,14s6.27,14,14,14,14-6.27,14-14-6.27-14-14-14ZM32,43c-6.08,0-11-4.92-11-11s4.92-11,11-11,11,4.92,11,11-4.92,11-11,11Z" fill="url(#r)" stroke-width="0"/>
  </g>
  <g>
    <g>
      <line x1="9.5" y1="17.5" x2="32" y2="32" fill="url(#s)" stroke="#323232" stroke-linejoin="round"/>
      <circle cx="10" cy="18" r="2.5" fill="url(#t)" stroke="#323232" stroke-linejoin="round"/>
    </g>
    <g>
      <line x1="19.5" y1="9.5" x2="32" y2="32" fill="url(#u)" stroke="#323232" stroke-linejoin="round"/>
      <circle cx="19.5" cy="9.5" r="2" fill="url(#v)" stroke="#323232" stroke-linejoin="round"/>
    </g>
    <g>
      <line x1="47.5" y1="10.5" x2="32" y2="32" fill="url(#w)" stroke="#323232" stroke-linejoin="round"/>
      <circle cx="47.5" cy="10.5" r="2" fill="url(#x)" stroke="#323232" stroke-linejoin="round"/>
    </g>
    <g>
      <line x1="54.5" y1="38.5" x2="32" y2="32" fill="url(#y)" stroke="#323232" stroke-linejoin="round"/>
      <circle cx="54.5" cy="38.5" r="2" fill="url(#z)" stroke="#323232" stroke-linejoin="round"/>
    </g>
    <g>
      <line x1="11.5" y1="48.5" x2="32" y2="32" fill="url(#aa)" stroke="#323232" stroke-linejoin="round"/>
      <circle cx="12" cy="48" r="2.5" fill="url(#ab)" stroke="#323232" stroke-linejoin="round"/>
    </g>
    <g>
      <line x1="22.5" y1="54.5" x2="32" y2="32" fill="url(#ac)" stroke="#323232" stroke-linejoin="round"/>
      <circle cx="22.5" cy="54.5" r="2" fill="url(#ad)" stroke="#323232" stroke-linejoin="round"/>
    </g>
  </g>
  <g>
    <path d="M51.5,25.5c0-4.67-1.31-8-12-8-8.92,0-12.95,3.48-14.36,5.13-2.56.27-4.64.87-4.64.87,0,0-.81.44-1.11,1.02-7.05.14-7.89,1.15-7.89,5.98,0,9,3,11,7,11,0,0,4.73-.5,7-1,.51-.11.85-.38,1.06-.72,2.03,1.47,4.56,3.67,10.91,3.67,2.38,0,3.66-2.62,4.33-5.03.92-1.14,1.66-2.48,2.13-3.85.31.59.78,1.01,1.45,1.01,1.21,0,2.42-1.48,2.9-3.33.82-.14,1.51,0,1.9-1.3.16-.18.3-.34.32-.45.07-.32,1-3.15,1-5ZM38.5,23.5c1.79,0,6.69-.04,8.47,4.13-.11-.03-.22-.05-.34-.05-.86,0-1.72.74-2.32,1.84-.58-3.21-2.61-4.98-5.92-5.91h.11Z" fill="#fff" opacity=".5" stroke="#fff" stroke-linejoin="round" stroke-width="3"/>
    <g>
      <path d="M24.5,23.5s3.29-6,15-6c10.69,0,12,3.33,12,8,0,1.85-.93,4.68-1,5s-1.14,1.22-1.14,1.22l-1.86-2.22c-.96-6.06-6.97-6-9-6h-14Z" fill="url(#ae)" stroke="#787878" stroke-linejoin="round"/>
      <path d="M26.35,22.48c.8-.6,3.13-3.48,13.65-3.48,1.1,0,8.5.11,8.5,4,0,.89-.5,6-.5,6,0,0,.6-7-8-7-2.3,0-12.23,1.22-12.23,1.22l-1.42-.73Z" fill="#646464" opacity=".5" stroke-width="0"/>
    </g>
    <g>
      <path d="M19.5,25.5c-.86-1,1-2,1-2,0,0,3.5-1,7-1,10.85,0,17,1.21,17,9,0,4.25-3.83,10-8,10-3.75,0-9-4-9-4l-8-12Z" fill="url(#af)" stroke="#323232" stroke-linejoin="round"/>
      <path d="M24.44,36.52c2.44,0,3.33,3.48,1.06,3.98s-7,1-7,1c0,0,2.24-4.98,5.94-4.98Z" fill="url(#ag)" stroke="#323232" stroke-linejoin="round"/>
    </g>
    <g>
      <path d="M40.5,31.5c1.99-.92,6.15-3.15,7-4s1-3,1-3h1c1,0,1,1,1,3,0,5.99-1.41,4.13-3,5-.78.43-7,4-7,4v-5Z" fill="url(#m)" stroke="#787878" stroke-linejoin="round"/>
      <path d="M46.62,27.58c1.3,0,1.88,1.57,1.88,3,0,2.55-1.56,5-3.12,5-1.3,0-1.88-1.57-1.88-3,0-2.55,1.56-5,3.12-5Z" fill="url(#m)" stroke="#787878" stroke-linejoin="round"/>
      <path d="M47.37,29.27c.78,0,1.13.87,1.13,1.67,0,1.42-.94,2.79-1.87,2.79-.78,0-1.13-.87-1.13-1.67,0-1.42.94-2.79,1.87-2.79Z" fill="url(#m)" stroke="#787878" stroke-linejoin="round"/>
    </g>
    <g>
      <path d="M42.5,34.5c0,.18-.68,8.95-5.03,8.95-9.51,0-10.46-4.95-13.97-4.95-1.98,0-3.66,3-5,3-4,0-7-2-7-11,0-5.28.97-6,10-6,20.24,0,21,3.93,21,10Z" fill="url(#j)" stroke="#787878" stroke-linejoin="round"/>
      <path d="M29.48,25.27c-3.44,2.06-4.98,7.51-5.33,12.79-.21-.04-.42-.06-.65-.06-1.28,0-2.36.98-3.32,1.85-.62.56-1.27,1.15-1.68,1.15-3.38,0-6.5-1.27-6.5-10.5,0-4.81.59-5.5,9.5-5.5,3.11,0,5.75.09,7.98.27Z" fill="url(#ah)" opacity=".3" stroke-width="0"/>
      <path d="M42,34.49c0,.18-.5,6.41-3.16,8.06-.27.17,1.24-4.03,1.32-10.15.03-1.86-1.24-3.46.14-4.02,1.69,1.62,1.69,3.72,1.69,6.12Z" fill="url(#ai)" opacity=".18" stroke-width="0"/>
      <g>
        <g>
          <ellipse cx="13.81" cy="28.35" rx="1.56" ry="1.18" transform="translate(-15.65 39.61) rotate(-84.95)" fill="#646464" opacity=".5" stroke-width="0"/>
          <ellipse cx="14.18" cy="28.29" rx="1.24" ry=".82" transform="translate(-15.25 39.93) rotate(-84.95)" fill="url(#aj)" stroke-width="0"/>
        </g>
        <g>
          <path d="M37.83,31.4c0,1.13-.98,1.61-1.6,1.61-1.13,0-1.6-.98-1.6-1.6,0-1.13.98-1.61,1.6-1.61,1.13,0,1.6.98,1.6,1.6Z" fill="#fff" opacity=".3" stroke-width="0"/>
          <path d="M37.14,31.01c0,.87-.76,1.24-1.24,1.24-.87,0-1.24-.76-1.24-1.24,0-.87.76-1.24,1.24-1.24.87,0,1.24.76,1.24,1.24Z" fill="url(#c)" stroke-width="0"/>
        </g>
        <g>
          <ellipse cx="35.69" cy="41.11" rx="1.58" ry="1.63" transform="translate(-8.4 73.05) rotate(-84.95)" fill="#fff" opacity=".3" stroke-width="0"/>
          <circle cx="35.33" cy="40.74" r="1.24" transform="translate(-8.36 72.35) rotate(-84.95)" fill="url(#c)" stroke-width="0"/>
        </g>
        <g>
          <ellipse cx="14.83" cy="37.99" rx="1.16" ry="1.45" transform="translate(-14.63 9.79) rotate(-24.93)" fill="#646464" opacity=".5" stroke-width="0"/>
          <ellipse cx="15.14" cy="37.85" rx=".82" ry="1.24" transform="translate(-14.54 9.91) rotate(-24.93)" fill="url(#c)" stroke-width="0"/>
        </g>
      </g>
      <path d="M21.5,25c-5.36,0-7.7.26-8.72,1.5,1.66-.49,3.79-.53,7.17-.49,6.85.09,9.25.55,13.7,1.2,3.91.57,5.3,1.4,5.97.59-2.5-1.76-7.62-2.8-18.11-2.8Z" fill="url(#ak)" stroke-width="0"/>
    </g>
    <path d="M51.5,25.5c0-4.67-1.31-8-12-8-8.92,0-12.95,3.48-14.36,5.13-2.56.27-4.64.87-4.64.87,0,0-.81.44-1.11,1.02-7.05.14-7.89,1.15-7.89,5.98,0,9,3,11,7,11,0,0,4.73-.5,7-1,.51-.11.85-.38,1.06-.72,2.03,1.47,4.56,3.67,10.91,3.67,2.38,0,3.66-2.62,4.33-5.03.92-1.14,1.66-2.48,2.13-3.85.31.59.78,1.01,1.45,1.01,1.21,0,2.42-1.48,2.9-3.33.82-.14,1.51,0,1.9-1.3.16-.18.3-.34.32-.45.07-.32,1-3.15,1-5ZM38.5,23.5c1.79,0,6.69-.04,8.47,4.13-.11-.03-.22-.05-.34-.05-.86,0-1.72.74-2.32,1.84-.58-3.21-2.61-4.98-5.92-5.91h.11Z" fill="none" stroke="#323232" stroke-linejoin="round"/>
  </g>
  <g>
    <path d="M54.55,50.62c0,.66.24,1.29.74,1.79l.87.87c-.8,1.12-1.76,2.08-2.88,2.88l-.87-.87c-.49-.49-1.12-.74-1.79-.74-1.45,0-2.58,1.14-2.58,2.55v1.22c-.68.1-1.35.18-2.04.18s-1.36-.08-2.04-.18v-1.22c0-1.36-1.07-2.55-2.58-2.55-.67,0-1.29.25-1.79.74l-.87.87c-1.12-.8-2.08-1.76-2.88-2.88l.87-.87c.5-.5.74-1.12.74-1.79,0-1.49-1.18-2.58-2.55-2.58h-1.22c-.1-.69-.18-1.35-.18-2.04s.08-1.35.18-2.04h1.22c1.43,0,2.55-1.14,2.55-2.58,0-.66-.24-1.29-.74-1.79l-.87-.87c.8-1.12,1.76-2.08,2.88-2.88l.87.87c.49.49,1.11.74,1.79.74,1.51,0,2.58-1.2,2.58-2.55v-1.22c.68-.1,1.36-.18,2.04-.18s1.36.08,2.04.18v1.22c0,1.52,1.2,2.55,2.58,2.55.65,0,1.3-.22,1.79-.71l.87-.89c1.12.8,2.08,1.76,2.88,2.88l-.87.87c-.5.49-.74,1.12-.74,1.79,0,1.45,1.14,2.58,2.55,2.58h1.22c.1.69.18,1.35.18,2.04s-.08,1.36-.18,2.04h-1.22c-1.36,0-2.55,1.07-2.55,2.58ZM46,50.5c2.47,0,4.5-2.03,4.5-4.5s-2.03-4.5-4.5-4.5-4.5,2.03-4.5,4.5,2.02,4.5,4.5,4.5Z" fill="#fff" opacity=".5" stroke="#fff" stroke-linejoin="round" stroke-width="3"/>
    <path d="M54.55,50.62c0,.66.24,1.29.74,1.79l.87.87c-.8,1.12-1.76,2.08-2.88,2.88l-.87-.87c-.49-.49-1.12-.74-1.79-.74-1.45,0-2.58,1.14-2.58,2.55v1.22c-.68.1-1.35.18-2.04.18s-1.36-.08-2.04-.18v-1.22c0-1.36-1.07-2.55-2.58-2.55-.67,0-1.29.25-1.79.74l-.87.87c-1.12-.8-2.08-1.76-2.88-2.88l.87-.87c.5-.5.74-1.12.74-1.79,0-1.49-1.18-2.58-2.55-2.58h-1.22c-.1-.69-.18-1.35-.18-2.04s.08-1.35.18-2.04h1.22c1.43,0,2.55-1.14,2.55-2.58,0-.66-.24-1.29-.74-1.79l-.87-.87c.8-1.12,1.76-2.08,2.88-2.88l.87.87c.49.49,1.11.74,1.79.74,1.51,0,2.58-1.2,2.58-2.55v-1.22c.68-.1,1.36-.18,2.04-.18s1.36.08,2.04.18v1.22c0,1.52,1.2,2.55,2.58,2.55.65,0,1.3-.22,1.79-.71l.87-.89c1.12.8,2.08,1.76,2.88,2.88l-.87.87c-.5.49-.74,1.12-.74,1.79,0,1.45,1.14,2.58,2.55,2.58h1.22c.1.69.18,1.35.18,2.04s-.08,1.36-.18,2.04h-1.22c-1.36,0-2.55,1.07-2.55,2.58ZM46,50.5c2.47,0,4.5-2.03,4.5-4.5s-2.03-4.5-4.5-4.5-4.5,2.03-4.5,4.5,2.02,4.5,4.5,4.5Z" fill="url(#a)" stroke="#003755" stroke-linejoin="round"/>
    <g opacity=".3">
      <path d="M57.89,44.46h-.79c-1.71,0-3.05-1.35-3.05-3.08,0-.82.31-1.56.89-2.14l.56-.56c-.63-.82-1.35-1.54-2.17-2.17l-.56.58c-.56.56-1.32.87-2.14.87-1.72,0-3.08-1.34-3.08-3.05v-.79c-.93-.12-2.16-.12-3.08,0v.79c0,1.71-1.35,3.05-3.08,3.05-.82,0-1.56-.31-2.14-.89l-.56-.56c-.82.63-1.55,1.36-2.18,2.18l.56.56c.58.58.89,1.32.89,2.14,0,1.73-1.34,3.08-3.05,3.08h-.79c-.06.47-.11,1-.11,1.54s.05,1.07.11,1.54h.79c1.71,0,3.05,1.35,3.05,3.08,0,.82-.31,1.56-.89,2.14l-.56.56c.63.82,1.36,1.55,2.18,2.18l.56-.56c.58-.58,1.32-.89,2.14-.89,1.72,0,3.08,1.34,3.08,3.05v.79c.93.12,2.14.12,3.08,0v-.79c0-1.71,1.35-3.05,3.08-3.05.82,0,1.56.31,2.14.89l.56.56c.82-.63,1.55-1.36,2.18-2.18l-.56-.56c-.58-.58-.89-1.32-.89-2.14,0-1.73,1.34-3.08,3.05-3.08h.79c.06-.47.11-1,.11-1.54s-.05-1.07-.11-1.54ZM56.98,46.54c-2.22.06-3.94,1.83-3.94,4.08,0,1.05.38,2,1.1,2.76-.24.27-.5.52-.76.76-.76-.72-1.71-1.1-2.76-1.1-2.24,0-4.01,1.71-4.07,3.92-.17,0-.36.01-.54.01s-.37,0-.55-.01c-.07-2.21-1.83-3.92-4.07-3.92-1.05,0-2,.38-2.76,1.1-.27-.24-.52-.5-.76-.76.72-.76,1.1-1.71,1.1-2.76,0-2.25-1.72-4.02-3.94-4.08-.01-.19-.02-.37-.02-.54s0-.35.02-.54c2.22-.06,3.94-1.83,3.94-4.08,0-1.05-.38-2.01-1.1-2.76.24-.27.5-.52.76-.76.76.72,1.71,1.1,2.76,1.1,2.24,0,4.01-1.71,4.07-3.92.18,0,.36-.01.54-.01s.37,0,.54.01c.07,2.21,1.83,3.92,4.07,3.92,1.06,0,2.04-.38,2.78-1.09.26.24.51.49.75.75-.72.76-1.1,1.71-1.1,2.76,0,2.25,1.72,4.02,3.94,4.08.01.19.02.37.02.54s0,.35-.02.54Z" fill="url(#al)" stroke-width="0"/>
    </g>
    <path d="M46,40c-3.31,0-6,2.69-6,6s2.69,6,6,6,6-2.69,6-6-2.69-6-6-6ZM46,51c-2.76,0-5-2.24-5-5s2.24-5,5-5,5,2.24,5,5-2.24,5-5,5Z" fill="url(#am)" stroke-width="0"/>
  </g>
</svg>