<?xml version="1.0" encoding="UTF-8"?><svg xmlns="http://www.w3.org/2000/svg" xmlns:xlink="http://www.w3.org/1999/xlink" viewBox="0 0 64 64"><defs><style>.cls-1{stroke:url(#linear-gradient-2);}.cls-1,.cls-2,.cls-3,.cls-4,.cls-5,.cls-6,.cls-7,.cls-8,.cls-9,.cls-10,.cls-11,.cls-12,.cls-13,.cls-14,.cls-15,.cls-16,.cls-17,.cls-18,.cls-19,.cls-20,.cls-21,.cls-22,.cls-23,.cls-24,.cls-25,.cls-26,.cls-27,.cls-28,.cls-29,.cls-30,.cls-31,.cls-32,.cls-33,.cls-34,.cls-35,.cls-36,.cls-37,.cls-38,.cls-39,.cls-40,.cls-41,.cls-42,.cls-43,.cls-44,.cls-45,.cls-46,.cls-47,.cls-48,.cls-49,.cls-50,.cls-51,.cls-52,.cls-53{fill:none;}.cls-1,.cls-2,.cls-3,.cls-4,.cls-5,.cls-6,.cls-7,.cls-8,.cls-9,.cls-10,.cls-11,.cls-12,.cls-13,.cls-14,.cls-15,.cls-17,.cls-19,.cls-20,.cls-21,.cls-22,.cls-23,.cls-24,.cls-25,.cls-26,.cls-27,.cls-28,.cls-29,.cls-30,.cls-31,.cls-32,.cls-33,.cls-34,.cls-35,.cls-36,.cls-37,.cls-38,.cls-39,.cls-40,.cls-41,.cls-42,.cls-43,.cls-44,.cls-45,.cls-46,.cls-47,.cls-48,.cls-49,.cls-50,.cls-51,.cls-52,.cls-53{stroke-miterlimit:10;}.cls-2{stroke:url(#linear-gradient-3);}.cls-3{stroke:url(#linear-gradient-28);}.cls-4{stroke:url(#linear-gradient-9);}.cls-5{stroke:url(#linear-gradient-37);}.DARK_GREY_Fill_3{fill:url(#linear-gradient);}.DARK_GREY_Fill_3,.cls-54,.cls-55,.cls-56,.cls-57,.cls-58,.cls-59,.cls-16,.cls-60,.cls-61,.cls-62,.cls-63,.cls-64,.cls-65,.cls-66,.cls-67,.cls-68,.cls-69,.cls-70,.cls-71,.cls-72{stroke-width:0px;}.cls-6{stroke:url(#linear-gradient-22);}.cls-7,.cls-18{stroke:#000;}.cls-8{stroke:url(#linear-gradient-19);}.cls-54{fill:#5a9ab8;}.cls-54,.cls-61{opacity:.56;}.cls-9{stroke:url(#linear-gradient-26);}.cls-10{stroke:url(#linear-gradient-4);}.cls-11{stroke:url(#linear-gradient-6);}.cls-12{stroke:url(#linear-gradient-18);}.cls-55{fill:#797979;}.cls-13{stroke:url(#linear-gradient-50);}.cls-57{fill:#323232;}.cls-58{fill:#f1f0f0;}.cls-59,.cls-65{fill:#fff;}.cls-59,.cls-68{opacity:.5;}.cls-14{stroke:url(#linear-gradient-13);}.cls-15{stroke:url(#linear-gradient-29);}.cls-17{stroke:url(#linear-gradient-16);}.cls-18{stroke-linecap:round;stroke-linejoin:round;stroke-width:.65px;}.cls-19{stroke:url(#linear-gradient-17);}.cls-20{stroke:url(#linear-gradient-48);}.cls-60,.cls-69{fill:#82bddb;}.cls-61{fill:#f5fcff;}.cls-21{stroke:url(#linear-gradient-30);}.cls-62{fill:url(#white_left);}.cls-22{stroke:url(#linear-gradient-7);}.cls-23{stroke:url(#linear-gradient-39);}.cls-63{fill:#053755;}.cls-64{fill:url(#linear-gradient-54);}.cls-24{stroke:url(#linear-gradient-21);}.cls-25{stroke:url(#linear-gradient-12);}.cls-26{stroke:url(#linear-gradient-5);}.cls-27{stroke:url(#linear-gradient-38);}.cls-66{fill:url(#linear-gradient-52);}.cls-28{stroke:url(#linear-gradient-51);}.cls-29{stroke:url(#linear-gradient-32);}.cls-67{fill:url(#white_left-3);}.cls-30{stroke:url(#linear-gradient-36);}.cls-68{fill:#aadcfa;}.cls-73{clip-path:url(#clippath);}.cls-31{stroke:url(#linear-gradient-20);}.cls-32{stroke:url(#linear-gradient-24);}.cls-33{stroke:url(#linear-gradient-33);}.cls-34{stroke:url(#linear-gradient-31);}.cls-69{opacity:.92;}.cls-35{stroke:url(#linear-gradient-25);}.cls-70{fill:#003755;}.cls-71{fill:url(#linear-gradient-53);}.cls-36{stroke:url(#linear-gradient-35);}.cls-37{stroke:url(#linear-gradient-46);}.cls-72{fill:url(#white_left-2);}.cls-38{stroke:url(#linear-gradient-49);}.cls-39{stroke:url(#linear-gradient-27);}.cls-40{stroke:url(#linear-gradient-23);}.cls-41{stroke:url(#linear-gradient-14);}.cls-42{stroke:url(#linear-gradient-41);}.cls-43{stroke:url(#linear-gradient-44);}.cls-44{stroke:url(#linear-gradient-42);}.cls-45{stroke:url(#linear-gradient-34);}.cls-46{stroke:url(#linear-gradient-11);}.cls-47{stroke:url(#linear-gradient-8);}.cls-48{stroke:url(#linear-gradient-47);}.cls-49{stroke:url(#linear-gradient-40);}.cls-50{stroke:url(#linear-gradient-10);}.cls-51{stroke:url(#linear-gradient-15);}.cls-52{stroke:url(#linear-gradient-43);}.cls-53{stroke:url(#linear-gradient-45);}</style><linearGradient id="linear-gradient" x1="32" y1="38.5" x2="36" y2="38.5" gradientUnits="userSpaceOnUse"><stop offset="0" stop-color="#464646"/><stop offset="1" stop-color="#141414"/></linearGradient><linearGradient id="linear-gradient-2" x1="11.29" y1="28.5" x2="42" y2="28.5" xlink:href="#linear-gradient"/><linearGradient id="linear-gradient-3" x1="11.29" y1="28.5" x2="42" y2="28.5" xlink:href="#linear-gradient"/><linearGradient id="linear-gradient-4" x1="11.29" y1="28.5" x2="42" y2="28.5" xlink:href="#linear-gradient"/><linearGradient id="linear-gradient-5" x1="11.29" y1="28.5" x2="42" y2="28.5" xlink:href="#linear-gradient"/><linearGradient id="linear-gradient-6" x1="11.29" y1="28.5" x2="42" y2="28.5" xlink:href="#linear-gradient"/><linearGradient id="linear-gradient-7" x1="11.29" y1="28.5" x2="42" y2="28.5" xlink:href="#linear-gradient"/><linearGradient id="linear-gradient-8" x1="11.29" y1="28.5" x2="42" y2="28.5" xlink:href="#linear-gradient"/><linearGradient id="linear-gradient-9" x1="11.29" y1="28.5" x2="42" y2="28.5" xlink:href="#linear-gradient"/><linearGradient id="linear-gradient-10" x1="11.29" y1="28.5" x2="42" y2="28.5" xlink:href="#linear-gradient"/><linearGradient id="linear-gradient-11" x1="11.29" y1="28.5" x2="42" y2="28.5" xlink:href="#linear-gradient"/><linearGradient id="linear-gradient-12" x1="11.29" y1="28.5" x2="42" y2="28.5" xlink:href="#linear-gradient"/><linearGradient id="linear-gradient-13" x1="11.29" y1="28.5" x2="42" y2="28.5" xlink:href="#linear-gradient"/><linearGradient id="linear-gradient-14" x1="11.29" y1="28.5" x2="42" y2="28.5" xlink:href="#linear-gradient"/><linearGradient id="linear-gradient-15" x1="11.29" y1="28.5" x2="42" y2="28.5" xlink:href="#linear-gradient"/><linearGradient id="linear-gradient-16" x1="11.29" y1="28.5" x2="42" y2="28.5" xlink:href="#linear-gradient"/><linearGradient id="linear-gradient-17" x1="11.29" y1="28.5" x2="42" y2="28.5" xlink:href="#linear-gradient"/><linearGradient id="linear-gradient-18" x1="11.29" y1="28.5" x2="42" y2="28.5" xlink:href="#linear-gradient"/><linearGradient id="linear-gradient-19" x1="11.29" y1="28.5" x2="42" y2="28.5" xlink:href="#linear-gradient"/><linearGradient id="linear-gradient-20" x1="11.29" y1="28.5" x2="42" y2="28.5" xlink:href="#linear-gradient"/><linearGradient id="linear-gradient-21" x1="11.29" y1="28.5" x2="42" y2="28.5" xlink:href="#linear-gradient"/><linearGradient id="linear-gradient-22" x1="11.29" y1="28.5" x2="42" y2="28.5" xlink:href="#linear-gradient"/><linearGradient id="linear-gradient-23" x1="11.29" y1="28.5" x2="42" y2="28.5" xlink:href="#linear-gradient"/><linearGradient id="linear-gradient-24" x1="11.29" y1="28.5" x2="42" y2="28.5" xlink:href="#linear-gradient"/><linearGradient id="linear-gradient-25" x1="11.29" y1="28.5" x2="42" y2="28.5" xlink:href="#linear-gradient"/><linearGradient id="linear-gradient-26" x1="11.29" y1="28.5" x2="42" y2="28.5" xlink:href="#linear-gradient"/><linearGradient id="linear-gradient-27" x1="11.29" y1="28.5" x2="42" y2="28.5" xlink:href="#linear-gradient"/><linearGradient id="linear-gradient-28" x1="11.29" y1="28.5" x2="42" y2="28.5" xlink:href="#linear-gradient"/><linearGradient id="linear-gradient-29" x1="11.29" y1="28.5" x2="42" y2="28.5" xlink:href="#linear-gradient"/><linearGradient id="linear-gradient-30" x1="11.29" y1="28.5" x2="42" y2="28.5" xlink:href="#linear-gradient"/><linearGradient id="linear-gradient-31" x1="11.29" y1="28.5" x2="42" y2="28.5" xlink:href="#linear-gradient"/><linearGradient id="linear-gradient-32" x1="11.29" y1="28.5" x2="42" y2="28.5" xlink:href="#linear-gradient"/><linearGradient id="linear-gradient-33" x1="11.29" y1="28.5" x2="42" y2="28.5" xlink:href="#linear-gradient"/><linearGradient id="linear-gradient-34" x1="11.29" y1="28.5" x2="42" y2="28.5" xlink:href="#linear-gradient"/><linearGradient id="linear-gradient-35" x1="11.29" y1="28.5" x2="42" y2="28.5" xlink:href="#linear-gradient"/><linearGradient id="linear-gradient-36" x1="11.29" y1="28.5" x2="42" y2="28.5" xlink:href="#linear-gradient"/><linearGradient id="linear-gradient-37" x1="11.29" y1="28.5" x2="42" y2="28.5" xlink:href="#linear-gradient"/><linearGradient id="linear-gradient-38" x1="11.29" y1="28.5" x2="42" y2="28.5" xlink:href="#linear-gradient"/><linearGradient id="linear-gradient-39" x1="11.29" y1="28.5" x2="42" y2="28.5" xlink:href="#linear-gradient"/><linearGradient id="linear-gradient-40" x1="11.29" y1="28.5" x2="42" y2="28.5" xlink:href="#linear-gradient"/><linearGradient id="linear-gradient-41" x1="11.29" y1="28.5" x2="42" y2="28.5" xlink:href="#linear-gradient"/><linearGradient id="linear-gradient-42" x1="11.29" y1="28.5" x2="42" y2="28.5" xlink:href="#linear-gradient"/><linearGradient id="linear-gradient-43" x1="11.29" y1="28.5" x2="42" y2="28.5" xlink:href="#linear-gradient"/><linearGradient id="linear-gradient-44" x1="11.29" y1="28.5" x2="42" y2="28.5" xlink:href="#linear-gradient"/><linearGradient id="linear-gradient-45" x1="11.29" y1="28.5" x2="42" y2="28.5" xlink:href="#linear-gradient"/><linearGradient id="linear-gradient-46" x1="11.29" y1="28.5" x2="42" y2="28.5" xlink:href="#linear-gradient"/><linearGradient id="linear-gradient-47" x1="11.29" y1="28.5" x2="42" y2="28.5" xlink:href="#linear-gradient"/><linearGradient id="linear-gradient-48" x1="11.29" y1="28.5" x2="42" y2="28.5" xlink:href="#linear-gradient"/><linearGradient id="linear-gradient-49" x1="11.29" y1="28.5" x2="42" y2="28.5" xlink:href="#linear-gradient"/><linearGradient id="linear-gradient-50" x1="11.29" y1="28.5" x2="42" y2="28.5" xlink:href="#linear-gradient"/><linearGradient id="linear-gradient-51" x1="11.29" y1="28.5" x2="42" y2="28.5" xlink:href="#linear-gradient"/><linearGradient id="linear-gradient-52" x1="40" y1="37.99" x2="40" y2="42" gradientUnits="userSpaceOnUse"><stop offset="0" stop-color="#8cd7f5"/><stop offset=".2" stop-color="#7fc7e5"/><stop offset=".59" stop-color="#5e9ebc"/><stop offset="1" stop-color="#376e8c"/></linearGradient><linearGradient id="white_left" x1="33.1" y1="36.94" x2="34.89" y2="40.05" gradientUnits="userSpaceOnUse"><stop offset="0" stop-color="#f5f5f5"/><stop offset="1" stop-color="#bebebe"/></linearGradient><linearGradient id="white_left-2" x1="39.1" y1="36.94" x2="40.89" y2="40.05" xlink:href="#white_left"/><linearGradient id="white_left-3" x1="45.1" y1="36.94" x2="46.89" y2="40.05" xlink:href="#white_left"/><linearGradient id="linear-gradient-53" x1="42.46" y1="46.21" x2="47.95" y2="55.71" gradientUnits="userSpaceOnUse"><stop offset="0" stop-color="#f5f5f5"/><stop offset=".99" stop-color="#d2d2d2"/></linearGradient><clipPath id="clippath"><path class="cls-16" d="m50.55,50.74c0-3.02-2.45-5.47-5.47-5.47s-5.47,2.45-5.47,5.47,2.45,5.47,5.47,5.47,5.47-2.45,5.47-5.47Z"/></clipPath><linearGradient id="linear-gradient-54" x1="48.06" y1="55.24" x2="43.6" y2="47.52" gradientUnits="userSpaceOnUse"><stop offset="0" stop-color="#151515"/><stop offset="1" stop-color="#474647"/></linearGradient></defs><g id="Layer_8"><rect class="cls-65" x="16.5" y="10.5" width="4" height="4"/><line class="cls-65" x1="16.5" y1="10.5" x2="20.5" y2="14.5"/><line class="cls-65" x1="20.5" y1="10.5" x2="16.5" y2="14.5"/><polygon class="cls-65" points="29.5 6.5 33.5 6.5 33.5 30.5 29.5 30.5 29.5 14.5 29.5 10.5 29.5 6.5"/><polygon class="cls-65" points="41.5 10.5 41.5 14.5 16.5 14.5 12.5 14.5 16.5 10.5 41.5 10.5"/><rect class="cls-65" x="20.5" y="10.5" width="4" height="4"/><line class="cls-65" x1="20.5" y1="10.5" x2="24.5" y2="14.5"/><line class="cls-65" x1="24.5" y1="10.5" x2="20.5" y2="14.5"/><rect class="cls-65" x="24.5" y="10.5" width="4" height="4"/><line class="cls-65" x1="24.5" y1="10.5" x2="28.5" y2="14.5"/><line class="cls-65" x1="28.5" y1="10.5" x2="24.5" y2="14.5"/><rect class="cls-65" x="29.5" y="10.5" width="4" height="4"/><line class="cls-65" x1="29.5" y1="10.5" x2="33.5" y2="14.5"/><line class="cls-65" x1="33.5" y1="10.5" x2="29.5" y2="14.5"/><rect class="cls-65" x="29.5" y="6.5" width="4" height="4"/><line class="cls-65" x1="29.5" y1="6.5" x2="33.5" y2="10.5"/><line class="cls-65" x1="33.5" y1="6.5" x2="29.5" y2="10.5"/><rect class="cls-65" x="33.5" y="10.5" width="4" height="4"/><line class="cls-65" x1="33.5" y1="10.5" x2="37.5" y2="14.5"/><line class="cls-65" x1="37.5" y1="10.5" x2="33.5" y2="14.5"/><rect class="cls-65" x="37.5" y="10.5" width="4" height="4"/><line class="cls-65" x1="37.5" y1="10.5" x2="41.5" y2="14.5"/><line class="cls-65" x1="41.5" y1="10.5" x2="37.5" y2="14.5"/><rect class="cls-65" x="29.5" y="14.5" width="4" height="4"/><line class="cls-65" x1="29.5" y1="14.5" x2="33.5" y2="18.5"/><line class="cls-65" x1="33.5" y1="14.5" x2="29.5" y2="18.5"/><rect class="cls-65" x="29.5" y="22.5" width="4" height="4"/><line class="cls-65" x1="29.5" y1="22.5" x2="33.5" y2="26.5"/><line class="cls-65" x1="33.5" y1="22.5" x2="29.5" y2="26.5"/><rect class="cls-65" x="29.5" y="18.5" width="4" height="4"/><line class="cls-65" x1="29.5" y1="18.5" x2="33.5" y2="22.5"/><line class="cls-65" x1="33.5" y1="18.5" x2="29.5" y2="22.5"/><rect class="cls-65" x="29.5" y="26.5" width="4" height="4"/><line class="cls-65" x1="29.5" y1="26.5" x2="33.5" y2="30.5"/><line class="cls-65" x1="33.5" y1="26.5" x2="29.5" y2="30.5"/><rect class="cls-65" x="29.5" y="30.5" width="4" height="4"/><line class="cls-65" x1="29.5" y1="30.5" x2="33.5" y2="34.5"/><line class="cls-65" x1="33.5" y1="30.5" x2="29.5" y2="34.5"/><rect class="cls-65" x="29.5" y="38.5" width="4" height="4"/><line class="cls-65" x1="29.5" y1="38.5" x2="33.5" y2="42.5"/><line class="cls-65" x1="33.5" y1="38.5" x2="29.5" y2="42.5"/><rect class="cls-65" x="29.5" y="34.5" width="4" height="4"/><line class="cls-65" x1="29.5" y1="34.5" x2="33.5" y2="38.5"/><line class="cls-65" x1="33.5" y1="34.5" x2="29.5" y2="38.5"/><rect class="cls-65" x="29.5" y="42.5" width="4" height="4"/><line class="cls-65" x1="29.5" y1="42.5" x2="33.5" y2="46.5"/><line class="cls-65" x1="33.5" y1="42.5" x2="29.5" y2="46.5"/><rect class="cls-65" x="29.5" y="46.5" width="4" height="4"/><line class="cls-65" x1="29.5" y1="46.5" x2="33.5" y2="50.5"/><line class="cls-65" x1="33.5" y1="46.5" x2="29.5" y2="50.5"/><rect class="cls-7" x="16.5" y="10.5" width="4" height="4"/><line class="cls-7" x1="16.5" y1="10.5" x2="20.5" y2="14.5"/><line class="cls-7" x1="20.5" y1="10.5" x2="16.5" y2="14.5"/><polygon class="cls-7" points="29.5 6.5 33.5 6.5 33.5 30.5 29.5 30.5 29.5 14.5 29.5 10.5 29.5 6.5"/><polygon class="cls-7" points="41.5 10.5 41.5 14.5 16.5 14.5 12.5 14.5 16.5 10.5 41.5 10.5"/><rect class="cls-7" x="20.5" y="10.5" width="4" height="4"/><line class="cls-7" x1="20.5" y1="10.5" x2="24.5" y2="14.5"/><line class="cls-7" x1="24.5" y1="10.5" x2="20.5" y2="14.5"/><rect class="cls-7" x="24.5" y="10.5" width="4" height="4"/><line class="cls-7" x1="24.5" y1="10.5" x2="28.5" y2="14.5"/><line class="cls-7" x1="28.5" y1="10.5" x2="24.5" y2="14.5"/><rect class="cls-7" x="29.5" y="10.5" width="4" height="4"/><line class="cls-7" x1="29.5" y1="10.5" x2="33.5" y2="14.5"/><line class="cls-7" x1="33.5" y1="10.5" x2="29.5" y2="14.5"/><rect class="cls-7" x="29.5" y="6.5" width="4" height="4"/><line class="cls-7" x1="29.5" y1="6.5" x2="33.5" y2="10.5"/><line class="cls-7" x1="33.5" y1="6.5" x2="29.5" y2="10.5"/><rect class="cls-7" x="33.5" y="10.5" width="4" height="4"/><line class="cls-7" x1="33.5" y1="10.5" x2="37.5" y2="14.5"/><line class="cls-7" x1="37.5" y1="10.5" x2="33.5" y2="14.5"/><rect class="cls-7" x="37.5" y="10.5" width="4" height="4"/><line class="cls-7" x1="37.5" y1="10.5" x2="41.5" y2="14.5"/><line class="cls-7" x1="41.5" y1="10.5" x2="37.5" y2="14.5"/><rect class="cls-7" x="29.5" y="14.5" width="4" height="4"/><line class="cls-7" x1="29.5" y1="14.5" x2="33.5" y2="18.5"/><line class="cls-7" x1="33.5" y1="14.5" x2="29.5" y2="18.5"/><rect class="cls-7" x="29.5" y="22.5" width="4" height="4"/><line class="cls-7" x1="29.5" y1="22.5" x2="33.5" y2="26.5"/><line class="cls-7" x1="33.5" y1="22.5" x2="29.5" y2="26.5"/><rect class="cls-7" x="29.5" y="18.5" width="4" height="4"/><line class="cls-7" x1="29.5" y1="18.5" x2="33.5" y2="22.5"/><line class="cls-7" x1="33.5" y1="18.5" x2="29.5" y2="22.5"/><rect class="cls-7" x="29.5" y="26.5" width="4" height="4"/><line class="cls-7" x1="29.5" y1="26.5" x2="33.5" y2="30.5"/><line class="cls-7" x1="33.5" y1="26.5" x2="29.5" y2="30.5"/><rect class="cls-7" x="29.5" y="30.5" width="4" height="4"/><line class="cls-7" x1="29.5" y1="30.5" x2="33.5" y2="34.5"/><line class="cls-7" x1="33.5" y1="30.5" x2="29.5" y2="34.5"/><rect class="cls-7" x="29.5" y="38.5" width="4" height="4"/><line class="cls-7" x1="29.5" y1="38.5" x2="33.5" y2="42.5"/><line class="cls-7" x1="33.5" y1="38.5" x2="29.5" y2="42.5"/><rect class="cls-7" x="29.5" y="34.5" width="4" height="4"/><line class="cls-7" x1="29.5" y1="34.5" x2="33.5" y2="38.5"/><line class="cls-7" x1="33.5" y1="34.5" x2="29.5" y2="38.5"/><rect class="cls-7" x="29.5" y="42.5" width="4" height="4"/><line class="cls-7" x1="29.5" y1="42.5" x2="33.5" y2="46.5"/><line class="cls-7" x1="33.5" y1="42.5" x2="29.5" y2="46.5"/><rect class="cls-7" x="29.5" y="46.5" width="4" height="4"/><line class="cls-7" x1="29.5" y1="46.5" x2="33.5" y2="50.5"/><line class="cls-7" x1="33.5" y1="46.5" x2="29.5" y2="50.5"/><rect class="cls-1" x="16.5" y="10.5" width="4" height="4"/><line class="cls-2" x1="16.5" y1="10.5" x2="20.5" y2="14.5"/><line class="cls-10" x1="20.5" y1="10.5" x2="16.5" y2="14.5"/><polygon class="cls-26" points="29.5 6.5 33.5 6.5 33.5 30.5 29.5 30.5 29.5 14.5 29.5 10.5 29.5 6.5"/><polygon class="cls-11" points="41.5 10.5 41.5 14.5 16.5 14.5 12.5 14.5 16.5 10.5 41.5 10.5"/><rect class="cls-22" x="20.5" y="10.5" width="4" height="4"/><line class="cls-47" x1="20.5" y1="10.5" x2="24.5" y2="14.5"/><line class="cls-4" x1="24.5" y1="10.5" x2="20.5" y2="14.5"/><rect class="cls-50" x="24.5" y="10.5" width="4" height="4"/><line class="cls-46" x1="24.5" y1="10.5" x2="28.5" y2="14.5"/><line class="cls-25" x1="28.5" y1="10.5" x2="24.5" y2="14.5"/><rect class="cls-14" x="29.5" y="10.5" width="4" height="4"/><line class="cls-41" x1="29.5" y1="10.5" x2="33.5" y2="14.5"/><line class="cls-51" x1="33.5" y1="10.5" x2="29.5" y2="14.5"/><rect class="cls-17" x="29.5" y="6.5" width="4" height="4"/><line class="cls-19" x1="29.5" y1="6.5" x2="33.5" y2="10.5"/><line class="cls-12" x1="33.5" y1="6.5" x2="29.5" y2="10.5"/><rect class="cls-8" x="33.5" y="10.5" width="4" height="4"/><line class="cls-31" x1="33.5" y1="10.5" x2="37.5" y2="14.5"/><line class="cls-24" x1="37.5" y1="10.5" x2="33.5" y2="14.5"/><rect class="cls-6" x="37.5" y="10.5" width="4" height="4"/><line class="cls-40" x1="37.5" y1="10.5" x2="41.5" y2="14.5"/><line class="cls-32" x1="41.5" y1="10.5" x2="37.5" y2="14.5"/><rect class="cls-35" x="29.5" y="14.5" width="4" height="4"/><line class="cls-9" x1="29.5" y1="14.5" x2="33.5" y2="18.5"/><line class="cls-39" x1="33.5" y1="14.5" x2="29.5" y2="18.5"/><rect class="cls-3" x="29.5" y="22.5" width="4" height="4"/><line class="cls-15" x1="29.5" y1="22.5" x2="33.5" y2="26.5"/><line class="cls-21" x1="33.5" y1="22.5" x2="29.5" y2="26.5"/><rect class="cls-34" x="29.5" y="18.5" width="4" height="4"/><line class="cls-29" x1="29.5" y1="18.5" x2="33.5" y2="22.5"/><line class="cls-33" x1="33.5" y1="18.5" x2="29.5" y2="22.5"/><rect class="cls-45" x="29.5" y="26.5" width="4" height="4"/><line class="cls-36" x1="29.5" y1="26.5" x2="33.5" y2="30.5"/><line class="cls-30" x1="33.5" y1="26.5" x2="29.5" y2="30.5"/><rect class="cls-5" x="29.5" y="30.5" width="4" height="4"/><line class="cls-27" x1="29.5" y1="30.5" x2="33.5" y2="34.5"/><line class="cls-23" x1="33.5" y1="30.5" x2="29.5" y2="34.5"/><rect class="cls-49" x="29.5" y="38.5" width="4" height="4"/><line class="cls-42" x1="29.5" y1="38.5" x2="33.5" y2="42.5"/><line class="cls-44" x1="33.5" y1="38.5" x2="29.5" y2="42.5"/><rect class="cls-52" x="29.5" y="34.5" width="4" height="4"/><line class="cls-43" x1="29.5" y1="34.5" x2="33.5" y2="38.5"/><line class="cls-53" x1="33.5" y1="34.5" x2="29.5" y2="38.5"/><rect class="cls-37" x="29.5" y="42.5" width="4" height="4"/><line class="cls-48" x1="29.5" y1="42.5" x2="33.5" y2="46.5"/><line class="cls-20" x1="33.5" y1="42.5" x2="29.5" y2="46.5"/><rect class="cls-38" x="29.5" y="46.5" width="4" height="4"/><line class="cls-13" x1="29.5" y1="46.5" x2="33.5" y2="50.5"/><line class="cls-28" x1="33.5" y1="46.5" x2="29.5" y2="50.5"/></g><g id="Layer_1"><polygon id="Fond_Blanc_" class="cls-59" points="34.46 55.12 17.47 57.04 6.27 55.56 6.27 23.68 17.47 17.68 34.46 24.13 34.46 55.12"/><polygon id="Fond_01" class="cls-68" points="34.46 55.12 17.47 57.04 6.27 55.56 6.27 23.68 17.47 17.68 34.46 24.13 34.46 55.12"/><polygon id="ombre_" class="cls-54" points="33.87 55.18 17.47 57.04 17.47 17.68 23.7 20.06 33.87 55.18"/><path id="REFLET_" class="cls-61" d="m31.83,53.23c-8.17-10.91-27.27-15.45-15.52-12.13,4.5,1.27,8.39.59,6.39-2.11-3.22-4.35-14.61-11.07-10.08-1.74-2.59-3.33-4.28-7.38-4.28-12.61,8.55,13.71,7.09-3.04,9.13,2.6,4.01,5.33,14.36,25.98,14.36,25.98Z"/><polygon class="cls-56" points="17.68 54.87 7.1 53.25 17.68 54.25 17.68 52.31 33.67 52.21 17.68 54.87"/><polygon class="cls-56" points="17.68 49.79 7.1 48.61 17.68 49.18 17.68 47.24 33.7 48.42 17.68 49.79"/><polygon class="cls-56" points="17.68 44.42 7.1 44.08 17.68 43.81 17.68 41.87 33.73 44.14 17.68 44.42"/><polygon class="cls-56" points="17.68 39.25 7.1 39.54 17.68 38.63 17.68 36.7 33.76 40.45 17.68 39.25"/><polygon class="cls-56" points="17.68 34.08 7.1 35.11 17.68 33.46 17.68 31.52 33.79 35.97 17.68 34.08"/><polygon class="cls-56" points="17.68 28.74 7.1 30.64 17.68 28.12 17.68 26.18 33.85 31.3 17.68 28.74"/><polygon class="cls-56" points="17.68 23.49 7.1 26.27 17.68 22.87 17.68 20.83 33.91 27.23 17.68 23.49"/><g id="Immeuble_01_contour_Ok"><path class="cls-70" d="m17.5,18.54l16.25,6.1v29.81l-16.31,1.88-10.33-1.46v-30.82l10.39-5.51m-.07-1.09l-11.32,6v32.29l11.32,1.6,17.32-2v-31.39l-17.32-6.5h0Z"/></g><polygon id="Fond_Blanc_-2" class="cls-59" points="57.49 54.79 44.45 56.79 37.01 55.11 37.01 12.95 44.45 6.74 57.49 15.38 57.49 54.79"/><polygon class="cls-69" points="56.84 54.83 44.41 57.04 44.41 7.23 56.84 15.66 56.84 54.83"/><polygon class="cls-54" points="57.34 54.95 44.44 56.94 37.57 55.37 37.57 24.4 44.57 49.42 57.34 54.95"/><polygon class="cls-54" points="57.34 54.95 44.44 56.94 44.57 49.42 57.34 54.95"/><polygon class="cls-70" points="44.6 56.49 37.46 54.79 44.6 55.68 44.6 53.94 56.82 54.31 44.6 56.49"/><polygon class="cls-70" points="44.6 50.22 37.46 49.73 44.6 49.42 44.6 47.67 56.82 49.88 44.6 50.22"/><polygon class="cls-70" points="44.6 44.63 37.46 44.93 44.6 43.83 44.6 42.08 56.82 45.17 44.6 44.63"/><polygon class="cls-70" points="44.6 38.87 37.46 39.96 44.6 38.07 44.6 36.32 56.82 40.29 44.6 38.87"/><polygon class="cls-70" points="44.6 33.11 37.46 34.99 44.6 32.31 44.6 30.56 56.82 35.42 44.6 33.11"/><polygon class="cls-70" points="44.6 27.35 37.46 30.02 44.6 26.55 44.6 24.8 56.82 30.54 44.6 27.35"/><polygon class="cls-70" points="44.6 21.59 37.46 25.05 44.6 20.79 44.6 19.04 56.82 25.66 44.6 21.59"/><polygon class="cls-70" points="44.6 15.83 37.46 20.07 44.6 15.02 44.6 13.28 56.82 20.78 44.6 15.83"/><polygon class="cls-70" points="44.6 10.07 37.46 15.1 44.6 9.26 44.6 7.52 56.82 15.7 44.6 10.07"/><g id="Immeuble_01_contour_Ok-2"><path class="cls-70" d="m44.32,7.34l12.5,8.39v38.63l-12.27,2.03-7.02-1.57V13.54l6.79-6.2m-.1-1.3l-7.72,7.04v42.57l8.02,1.79,13.32-2.21V15.19l-13.62-9.15h0Z"/></g><line id="Av_1" class="cls-18" x1="22.88" y1="17.48" x2="22.88" y2="12.85"/><line id="Av_2" class="cls-18" x1="28.18" y1="19.44" x2="28.18" y2="11.93"/><line id="Av_2-2" class="cls-18" x1="31.18" y1="20.84" x2="31.18" y2="9.83"/><line id="Arr_2" class="cls-18" x1="14.79" y1="16.94" x2="14.79" y2="7.97"/><line id="Arr_1" class="cls-18" x1="10.19" y1="19.46" x2="10.19" y2="10.37"/><polyline id="Arr_1-2" class="cls-18" points="6.98 18.4 17.45 12.34 33.17 19.56"/></g><g id="Layer_6"><g id="ok"><rect class="cls-58" x="31" y="38" width="18" height="17"/><path class="cls-57" d="m49,38v17h-18v-17h18m-18-.98c-.67,0-1,.41-1,.98v17.03c0,.42.47.97,1.06.97h18.03c.52,0,.89-.47.89-1.02l.02-16.95c0-.58-.44-1.03-.99-1.03l-18.02.02Z"/></g><path id="ok_grid" class="cls-55" d="m38,50h-2v-2h2v2Zm1,0v-2h2v2h-2Zm6-3v-3h-1v3h-2v-3h-1v3h-2v-3h-1v3h-2v-3h-1v3h-2v1h2v2h-2v1h2v3h1v-3h2v3h1v-3h2v3h1v-3h2v3h1v-3h2v-1h-2v-2h2v-1h-2Zm-1,3h-2v-2h2v2Z"/><path class="cls-55" d="m47,53h-14v-8h14v8Zm1-9h-16v10h16v-10Z"/><path id="_" class="cls-63" d="m49.99,37.99c0-.56-.43-.99-.99-.99h-18c-.55.01-1,.44-1,.99v4.01c0,.47.51,1,.98,1h18.02c.55,0,1-.45,1-1v-4.01Zm-1.01,4.01h-17.98v-4h17.99v4Z"/><rect class="cls-66" x="31" y="37.99" width="17.99" height="4.01"/><path id="_-2" class="DARK_GREY_Fill_3" d="m36,36.99c0-.56-.44-.99-1-.99h-2c-.55.01-1,.44-1,.99v3.01c0,.47.51,1,.98,1h2.02c.55,0,1-.45,1-1v-3.01Zm-1.02,3.01h-1.98v-3h1.99v3Z"/><rect class="cls-62" x="33" y="36.99" width="1.99" height="3.01"/><path id="_-3" class="DARK_GREY_Fill_3" d="m42,36.99c0-.56-.44-.99-1-.99h-2c-.55.01-1,.44-1,.99v3.01c0,.47.51,1,.98,1h2.02c.55,0,1-.45,1-1v-3.01Zm-1.02,3.01h-1.98v-3h1.99v3Z"/><rect class="cls-72" x="39" y="36.99" width="1.99" height="3.01"/><path id="_-4" class="DARK_GREY_Fill_3" d="m48,36.99c0-.56-.44-.99-1-.99h-2c-.55.01-1,.44-1,.99v3.01c0,.47.51,1,.98,1h2.02c.55,0,1-.45,1-1v-3.01Zm-1.02,3.01h-1.98v-3h1.99v3Z"/><rect class="cls-67" x="45" y="36.99" width="1.99" height="3.01"/><path class="cls-71" d="m45.08,57.34c-3.64,0-6.6-2.96-6.6-6.6s2.96-6.6,6.6-6.6,6.6,2.96,6.6,6.6-2.96,6.6-6.6,6.6Z"/><path class="cls-60" d="m45.08,44.68c3.34,0,6.06,2.72,6.06,6.06s-2.72,6.06-6.06,6.06-6.06-2.72-6.06-6.06,2.72-6.06,6.06-6.06m0-.26c-3.49,0-6.31,2.83-6.31,6.31s2.83,6.31,6.31,6.31,6.32-2.83,6.32-6.31-2.83-6.31-6.32-6.31h0Z"/><path class="cls-56" d="m45.08,44.43c3.48,0,6.32,2.83,6.32,6.31s-2.83,6.31-6.32,6.31-6.31-2.83-6.31-6.31,2.83-6.31,6.31-6.31m0-.56c-3.8,0-6.88,3.08-6.88,6.88s3.08,6.88,6.88,6.88,6.88-3.08,6.88-6.88-3.08-6.88-6.88-6.88h0Z"/><g class="cls-73"><polygon class="cls-64" points="44 48 44.5 47 45 48 45 50.59 49.18 54.25 49.05 54.67 44 51.15 44 48"/></g><rect id="cadre" class="cls-16" x="30" y="36" width="22" height="22"/></g></svg>