<?xml version="1.0" encoding="UTF-8"?><svg xmlns="http://www.w3.org/2000/svg" xmlns:xlink="http://www.w3.org/1999/xlink" viewBox="0 0 64 64"><defs><style>.cls-1{fill:url(#linear-gradient-12);}.cls-1,.cls-2,.cls-3,.cls-4,.cls-5,.cls-6,.cls-7,.cls-8,.cls-9,.cls-10,.cls-11,.cls-12,.cls-13,.cls-14,.cls-15,.cls-16,.cls-17,.cls-18,.cls-19,.cls-20,.cls-21,.cls-22{stroke-width:0px;}.cls-23{stroke:#fff;stroke-width:3px;}.cls-23,.cls-24,.cls-25,.cls-26,.cls-27,.cls-28,.cls-29,.cls-30,.cls-31,.cls-32,.cls-33,.cls-34,.cls-35,.cls-36,.Grey_MEDIUM,.cls-37,.cls-38{stroke-linejoin:round;}.cls-23,.cls-24,.cls-25,.cls-26,.cls-28,.cls-29,.cls-30,.cls-31,.cls-32,.cls-33,.cls-34,.cls-35,.cls-36,.cls-37,.cls-38{fill:none;}.cls-24{stroke-dasharray:0 0 2.84 1.42;}.cls-24,.cls-25,.cls-26,.cls-32,.cls-33,.cls-34,.cls-35,.cls-36,.Grey_MEDIUM,.cls-37,.cls-38{stroke:#323232;}.cls-2{fill:url(#linear-gradient-17);}.cls-25{stroke-dasharray:0 0 3.58 1.79;}.cls-3{fill:url(#linear-gradient-19);}.cls-26{stroke-dasharray:0 0 2.93 1.47;}.cls-27{fill:url(#linear-gradient-2);stroke:#053755;stroke-width:2px;}.cls-27,.cls-29{stroke-linecap:round;}.cls-39{opacity:.5;}.cls-4{fill:url(#linear-gradient-6);}.cls-28,.cls-30,.cls-31{stroke:#787878;}.cls-5{fill:url(#linear-gradient-15);}.cls-29{stroke:#6d6d6d;}.cls-6{fill:url(#linear-gradient-11);}.cls-7{fill:url(#linear-gradient-5);}.cls-8{fill:#343434;}.cls-40{opacity:.8;}.cls-30{stroke-dasharray:0 0 3.95 1.97;}.cls-9{fill:url(#linear-gradient-13);}.cls-10{fill:url(#linear-gradient-16);}.cls-11{fill:#fff;}.cls-41{opacity:.3;}.cls-12{fill:url(#linear-gradient-20);}.cls-31{stroke-dasharray:0 0 4.19 2.1;}.cls-13{fill:url(#linear-gradient-14);}.cls-14{fill:url(#linear-gradient-7);}.cls-15{fill:url(#linear-gradient-3);}.cls-32{stroke-dasharray:0 0 4.28 2.14;}.cls-33{stroke-dasharray:0 0 3.57 1.78;}.cls-16{fill:url(#linear-gradient-9);}.cls-34{stroke-dasharray:0 0 2.91 1.46;}.cls-35{stroke-dasharray:0 0 3.5 1.75;}.cls-17{fill:url(#linear-gradient-8);}.cls-18{fill:url(#linear-gradient-18);}.Grey_MEDIUM{fill:url(#linear-gradient);}.cls-19{fill:#6d6d6d;}.cls-20{fill:#00415f;}.cls-21{fill:url(#linear-gradient-10);}.cls-37{stroke-dasharray:0 0 4.22 2.11;}.cls-22{fill:url(#linear-gradient-4);}.cls-38{stroke-dasharray:0 0 4.27 2.14;}</style><linearGradient id="linear-gradient" x1="26.85" y1="-26.57" x2="36.88" y2="-9.2" gradientTransform="translate(0 18) scale(1 -1)" gradientUnits="userSpaceOnUse"><stop offset="0" stop-color="#aaa"/><stop offset="1" stop-color="#5a5a5a"/></linearGradient><linearGradient id="linear-gradient-2" x1="43.81" y1="42.95" x2="22.04" y2="5.25" gradientUnits="userSpaceOnUse"><stop offset="0" stop-color="#74c4e2"/><stop offset="1" stop-color="#a4def6"/></linearGradient><linearGradient id="linear-gradient-3" x1="18.13" y1="33.62" x2="5.87" y2="12.38" gradientUnits="userSpaceOnUse"><stop offset="0" stop-color="#161616"/><stop offset="1" stop-color="#515151"/></linearGradient><linearGradient id="linear-gradient-4" x1="23.88" y1="33.18" x2="12.12" y2="12.82" xlink:href="#linear-gradient-3"/><linearGradient id="linear-gradient-5" x1="29.13" y1="33.62" x2="16.87" y2="12.38" xlink:href="#linear-gradient-3"/><linearGradient id="linear-gradient-6" x1="32.88" y1="33.18" x2="21.12" y2="12.82" xlink:href="#linear-gradient-3"/><linearGradient id="linear-gradient-7" x1="38.88" y1="33.18" x2="27.12" y2="12.82" xlink:href="#linear-gradient-3"/><linearGradient id="linear-gradient-8" x1="44.13" y1="33.62" x2="31.87" y2="12.38" xlink:href="#linear-gradient-3"/><linearGradient id="linear-gradient-9" x1="49.88" y1="33.18" x2="38.12" y2="12.82" xlink:href="#linear-gradient-3"/><linearGradient id="linear-gradient-10" x1="53.88" y1="33.18" x2="42.12" y2="12.82" xlink:href="#linear-gradient-3"/><linearGradient id="linear-gradient-11" x1="58.13" x2="45.87" xlink:href="#linear-gradient-3"/><linearGradient id="linear-gradient-12" x1="16.42" y1="-7.65" x2="42.06" y2="-31.09" gradientTransform="translate(0 18) scale(1 -1)" gradientUnits="userSpaceOnUse"><stop offset="0" stop-color="#f0f0f0"/><stop offset="1" stop-color="#b3b3b3"/></linearGradient><linearGradient id="linear-gradient-13" x1="29.03" y1="-24.29" x2="71.15" y2="-70.49" xlink:href="#linear-gradient-12"/><linearGradient id="linear-gradient-14" x1="-4.81" y1="11.9" x2="19.22" y2="-32.07" xlink:href="#linear-gradient-12"/><linearGradient id="linear-gradient-15" x1="26.79" y1="-15.1" x2="37.28" y2="3.08" xlink:href="#linear-gradient"/><linearGradient id="linear-gradient-16" x1="23.76" y1="-5.33" x2="30.78" y2="6.83" xlink:href="#linear-gradient"/><linearGradient id="linear-gradient-17" x1="18.01" y1="19.22" x2="26.25" y2="33.5" gradientTransform="matrix(1,0,0,1,0,0)" xlink:href="#linear-gradient"/><linearGradient id="linear-gradient-18" x1="37.21" y1="-21.03" x2="52.44" y2="-33.31" gradientTransform="translate(0 18) scale(1 -1)" gradientUnits="userSpaceOnUse"><stop offset="0" stop-color="#fff"/><stop offset="1" stop-color="#bbbdbf"/></linearGradient><linearGradient id="linear-gradient-19" x1="38.65" y1="-17.12" x2="48.59" y2="-35.28" gradientTransform="translate(0 18) scale(1 -1)" gradientUnits="userSpaceOnUse"><stop offset="0" stop-color="#92d5ee"/><stop offset="1" stop-color="#6f9cae"/></linearGradient><linearGradient id="linear-gradient-20" x1="42.69" y1="-21.46" x2="51.41" y2="-28.49" gradientTransform="translate(0 18) scale(1 -1)" gradientUnits="userSpaceOnUse"><stop offset="0" stop-color="#92d5ee"/><stop offset=".15" stop-color="#8ccfe8"/><stop offset=".34" stop-color="#7bbed7"/><stop offset=".57" stop-color="#60a2bb"/><stop offset=".81" stop-color="#3a7c94"/><stop offset="1" stop-color="#185971"/></linearGradient></defs><g id="Layer_1"><rect class="cls-27" x="7" y="7" width="50" height="31"/><rect class="cls-15" x="10" y="10" width="4" height="26"/><rect class="cls-22" x="17" y="10" width="2" height="26"/><rect class="cls-7" x="21" y="10" width="4" height="26"/><rect class="cls-4" x="26" y="10" width="2" height="26"/><rect class="cls-14" x="32" y="10" width="2" height="26"/><rect class="cls-17" x="36" y="10" width="4" height="26"/><rect class="cls-16" x="43" y="10" width="2" height="26"/><rect class="cls-21" x="47" y="10" width="2" height="26"/><rect class="cls-6" x="50" y="10" width="4" height="26"/></g><g id="test"><g id="volume_ok_copy"><polygon class="cls-1" points="8.19 29.42 18.88 22.9 28.01 24.96 17.33 31.8 8.19 29.42"/><path class="cls-9" d="m27.32,54.2c-.09,0-.18-.02-.26-.06-.2-.1-.33-.31-.33-.53v-9.51c0-.19.09-.38.25-.49l9.51-6.45c.1-.07.22-.11.34-.11.1,0,.19.02.27.07.2.1.32.3.32.52v8.32c0,.18-.09.35-.23.46l-9.45,7.63c-.12.1-.27.15-.43.14Z"/><path class="cls-19" d="m36.75,37.66v8.32l-9.43,7.63v-9.51l9.43-6.44m0-1.19c-.24,0-.48.07-.68.2l-9.43,6.44c-.32.22-.51.59-.51.99v9.51c0,.46.26.87.68,1.07.16.08.33.12.51.12.27,0,.53-.09.74-.26l9.51-7.63c.28-.23.44-.57.44-.93v-8.32c0-.44-.24-.85-.63-1.06-.17-.08-.36-.13-.55-.13h-.07Z"/><polygon class="cls-13" points="17.33 31.8 17.33 42.02 26.13 44.24 26.13 53.6 8.19 48.35 8.19 29.42 17.33 31.8"/><line id="arete_ok_" class="cls-29" x1="8.5" y1="29.34" x2="17.21" y2="31.61"/><g id="Layer_44_copy"><polygon class="Grey_MEDIUM" points="26.87 34.31 36.76 27.13 36.76 37.65 26.87 44.58 26.87 34.31"/><polygon class="Grey_MEDIUM" points="17.33 31.8 28.01 24.96 36.76 27.13 26.87 34.31 17.33 31.8"/><polygon class="Grey_MEDIUM" points="26.87 34.31 26.87 44.58 17.33 42.07 17.33 31.8 26.87 34.31"/><path class="cls-8" d="m18.88,22.9l9.13,2.06,8.75,2.17v18.84l-9.71,8.06-18.86-5.68v-18.93l10.69-6.52m-.2-1.27l-.42.25-10.69,6.54-.57.34v20.47l.84.26,18.87,5.68.61.18.49-.4,9.71-8.06.43-.36v-20.33l-.89-.23-8.75-2.17-9.15-2.07-.46-.11h-.01Z"/></g><g id="Layer_51_copy" class="cls-41"><line class="cls-28" x1="26.87" y1="33.7" x2="26.87" y2="31.7"/><line class="cls-30" x1="26.87" y1="29.73" x2="26.87" y2="24.79"/><line class="cls-28" x1="26.87" y1="23.81" x2="26.87" y2="21.81"/><line class="cls-28" x1="17.3" y1="32.27" x2="17.3" y2="30.27"/><line class="cls-31" x1="17.3" y1="28.18" x2="17.3" y2="22.94"/><line class="cls-28" x1="17.3" y1="21.89" x2="17.3" y2="19.89"/><line class="cls-28" x1="37.41" y1="27.64" x2="37.41" y2="25.64"/><line class="cls-31" x1="37.41" y1="23.55" x2="37.41" y2="18.31"/><line class="cls-28" x1="37.41" y1="17.26" x2="37.41" y2="15.26"/></g><g class="cls-40"><polygon class="cls-5" points="26.87 21.97 37.22 14.88 37.22 26.01 26.87 33.14 26.87 21.97"/><polyline class="cls-36" points="26.87 23.97 26.87 21.97 28.52 20.84"/><line class="cls-38" x1="30.28" y1="19.63" x2="34.68" y2="16.61"/><polyline class="cls-36" points="35.57 16.01 37.22 14.88 37.22 16.88"/><line class="cls-33" x1="37.22" y1="18.66" x2="37.22" y2="23.12"/><polyline class="cls-36" points="37.22 24.01 37.22 26.01 35.57 27.15"/><line class="cls-32" x1="33.8" y1="28.36" x2="29.4" y2="31.4"/><polyline class="cls-36" points="28.51 32.01 26.87 33.14 26.87 31.14"/><line class="cls-25" x1="26.87" y1="29.35" x2="26.87" y2="24.87"/><polygon class="cls-10" points="17.33 19.62 27.76 12.86 37.22 14.88 26.87 21.97 17.33 19.62"/><polyline class="cls-36" points="19.27 20.1 17.33 19.62 19 18.53"/><line class="cls-37" x1="20.77" y1="17.39" x2="25.19" y2="14.52"/><polyline class="cls-36" points="26.08 13.95 27.76 12.86 29.71 13.28"/><line class="cls-24" x1="31.1" y1="13.57" x2="34.57" y2="14.31"/><polyline class="cls-36" points="35.26 14.46 37.22 14.88 35.57 16.01"/><line class="cls-38" x1="33.8" y1="17.22" x2="29.4" y2="20.24"/><polyline class="cls-36" points="28.52 20.84 26.87 21.97 24.92 21.49"/><line class="cls-34" x1="23.51" y1="21.15" x2="19.97" y2="20.27"/><polygon class="cls-2" points="26.87 21.97 26.87 33.14 17.33 30.62 17.33 19.62 26.87 21.97"/><polyline class="cls-36" points="24.92 21.49 26.87 21.97 26.87 23.97"/><line class="cls-25" x1="26.87" y1="25.77" x2="26.87" y2="30.25"/><polyline class="cls-36" points="26.87 31.14 26.87 33.14 24.93 32.63"/><line class="cls-26" x1="23.51" y1="32.26" x2="19.97" y2="31.32"/><polyline class="cls-36" points="19.26 31.13 17.33 30.62 17.33 28.62"/><line class="cls-35" x1="17.33" y1="26.87" x2="17.33" y2="22.5"/><polyline class="cls-36" points="17.33 21.62 17.33 19.62 19.27 20.1"/><line class="cls-34" x1="20.68" y1="20.45" x2="24.22" y2="21.32"/></g></g></g><g id="Layer_6" class="cls-39"><circle class="cls-11" cx="43.62" cy="44.2" r="10.35"/><path class="cls-11" d="m43.62,35.65c4.71,0,8.55,3.84,8.55,8.55s-3.84,8.55-8.55,8.55-8.55-3.84-8.55-8.55,3.84-8.55,8.55-8.55m0-1.8c-5.72,0-10.35,4.63-10.35,10.35s4.63,10.35,10.35,10.35,10.35-4.63,10.35-10.35-4.63-10.35-10.35-10.35h0Z"/><path class="cls-11" d="m43.62,33.85c5.72,0,10.35,4.63,10.35,10.35s-4.63,10.35-10.35,10.35-10.35-4.63-10.35-10.35,4.63-10.35,10.35-10.35m0-.9c-6.2,0-11.25,5.05-11.25,11.25s5.05,11.25,11.25,11.25,11.25-5.05,11.25-11.25-5.05-11.25-11.25-11.25h0Z"/><path class="cls-11" d="m43.17,36.92c4.02,0,7.29,3.26,7.29,7.29,0,1.91-.73,3.65-1.94,4.95l-5.35-4.95v-7.29"/><rect class="cls-11" x="43.17" y="37.45" width=".9" height="7.2"/><rect class="cls-11" x="45.14" y="43.2" width=".9" height="5.93" transform="translate(-19.29 45.76) rotate(-45)"/><rect class="cls-11" x="41.37" y="30.25" width="4.5" height=".9"/><rect class="cls-11" x="42.27" y="31.15" width="2.7" height="1.8"/><rect class="cls-11" x="52.47" y="32.61" width=".9" height="4.5" transform="translate(-9.15 47.63) rotate(-45)"/><rect class="cls-11" x="51.07" y="34.46" width="1.8" height="2.7" transform="translate(-10.1 47.24) rotate(-45)"/><circle class="cls-18" cx="43.62" cy="44.2" r="10.35"/><path class="cls-3" d="m43.62,35.65c4.71,0,8.55,3.84,8.55,8.55s-3.84,8.55-8.55,8.55-8.55-3.84-8.55-8.55,3.84-8.55,8.55-8.55m0-1.8c-5.72,0-10.35,4.63-10.35,10.35s4.63,10.35,10.35,10.35,10.35-4.63,10.35-10.35-4.63-10.35-10.35-10.35h0Z"/><path class="cls-20" d="m43.62,33.85c5.72,0,10.35,4.63,10.35,10.35s-4.63,10.35-10.35,10.35-10.35-4.63-10.35-10.35,4.63-10.35,10.35-10.35m0-.9c-6.2,0-11.25,5.05-11.25,11.25s5.05,11.25,11.25,11.25,11.25-5.05,11.25-11.25-5.05-11.25-11.25-11.25h0Z"/><path class="cls-12" d="m43.17,36.92c4.02,0,7.29,3.26,7.29,7.29,0,1.91-.73,3.65-1.94,4.95l-5.35-4.95v-7.29"/><rect class="cls-20" x="43.17" y="37.45" width=".9" height="7.2"/><rect class="cls-20" x="45.14" y="43.2" width=".9" height="5.93" transform="translate(-19.29 45.76) rotate(-45)"/><rect class="cls-20" x="41.37" y="30.25" width="4.5" height=".9"/><rect class="cls-20" x="42.27" y="31.15" width="2.7" height="1.8"/><rect class="cls-20" x="52.47" y="32.61" width=".9" height="4.5" transform="translate(-9.15 47.63) rotate(-45)"/><rect class="cls-20" x="51.07" y="34.46" width="1.8" height="2.7" transform="translate(-10.1 47.24) rotate(-45)"/><circle class="cls-23" cx="43.62" cy="44.2" r="10.35"/><path class="cls-23" d="m43.62,35.65c4.71,0,8.55,3.84,8.55,8.55s-3.84,8.55-8.55,8.55-8.55-3.84-8.55-8.55,3.84-8.55,8.55-8.55m0-1.8c-5.72,0-10.35,4.63-10.35,10.35s4.63,10.35,10.35,10.35,10.35-4.63,10.35-10.35-4.63-10.35-10.35-10.35h0Z"/><path class="cls-23" d="m43.62,33.85c5.72,0,10.35,4.63,10.35,10.35s-4.63,10.35-10.35,10.35-10.35-4.63-10.35-10.35,4.63-10.35,10.35-10.35m0-.9c-6.2,0-11.25,5.05-11.25,11.25s5.05,11.25,11.25,11.25,11.25-5.05,11.25-11.25-5.05-11.25-11.25-11.25h0Z"/><path class="cls-23" d="m43.17,36.92c4.02,0,7.29,3.26,7.29,7.29,0,1.91-.73,3.65-1.94,4.95l-5.35-4.95v-7.29"/><rect class="cls-23" x="43.17" y="37.45" width=".9" height="7.2"/><rect class="cls-23" x="45.14" y="43.2" width=".9" height="5.93" transform="translate(-19.29 45.76) rotate(-45)"/><rect class="cls-23" x="41.37" y="30.25" width="4.5" height=".9"/><rect class="cls-23" x="42.27" y="31.15" width="2.7" height="1.8"/><rect class="cls-23" x="52.47" y="32.61" width=".9" height="4.5" transform="translate(-9.15 47.63) rotate(-45)"/><rect class="cls-23" x="51.07" y="34.46" width="1.8" height="2.7" transform="translate(-10.1 47.24) rotate(-45)"/></g><g id="Layer_5"><circle class="cls-18" cx="43.62" cy="44.2" r="10.35"/><path class="cls-3" d="m43.62,35.65c4.71,0,8.55,3.84,8.55,8.55s-3.84,8.55-8.55,8.55-8.55-3.84-8.55-8.55,3.84-8.55,8.55-8.55m0-1.8c-5.72,0-10.35,4.63-10.35,10.35s4.63,10.35,10.35,10.35,10.35-4.63,10.35-10.35-4.63-10.35-10.35-10.35h0Z"/><path class="cls-20" d="m43.62,33.85c5.72,0,10.35,4.63,10.35,10.35s-4.63,10.35-10.35,10.35-10.35-4.63-10.35-10.35,4.63-10.35,10.35-10.35m0-.9c-6.2,0-11.25,5.05-11.25,11.25s5.05,11.25,11.25,11.25,11.25-5.05,11.25-11.25-5.05-11.25-11.25-11.25h0Z"/><path class="cls-12" d="m43.17,36.92c4.02,0,7.29,3.26,7.29,7.29,0,1.91-.73,3.65-1.94,4.95l-5.35-4.95v-7.29"/><rect class="cls-20" x="43.17" y="37.45" width=".9" height="7.2"/><rect class="cls-20" x="45.14" y="43.2" width=".9" height="5.93" transform="translate(-19.29 45.76) rotate(-45)"/><rect class="cls-20" x="41.37" y="30.25" width="4.5" height=".9"/><rect class="cls-20" x="42.27" y="31.15" width="2.7" height="1.8"/><rect class="cls-20" x="52.47" y="32.61" width=".9" height="4.5" transform="translate(-9.15 47.63) rotate(-45)"/><rect class="cls-20" x="51.07" y="34.46" width="1.8" height="2.7" transform="translate(-10.1 47.24) rotate(-45)"/></g></svg>