<?xml version="1.0" encoding="UTF-8"?><svg xmlns="http://www.w3.org/2000/svg" viewBox="0 0 64 64"><g id="a"><rect x="16.5" y="10.5" width="4" height="4" fill="none" stroke="#000" stroke-miterlimit="10"/><line x1="16.5" y1="10.5" x2="20.5" y2="14.5" fill="none" stroke="#000" stroke-miterlimit="10"/><line x1="20.5" y1="10.5" x2="16.5" y2="14.5" fill="none" stroke="#000" stroke-miterlimit="10"/><polygon points="29.5 6.5 33.5 6.5 33.5 50.5 29.5 50.5 29.5 14.5 29.5 10.5 29.5 6.5" fill="none" stroke="#000" stroke-miterlimit="10"/><polygon points="41.5 10.5 41.5 14.5 16.5 14.5 12.5 14.5 16.5 10.5 41.5 10.5" fill="none" stroke="#000" stroke-miterlimit="10"/><rect x="24.5" y="10.5" width="4" height="4" fill="none" stroke="#000" stroke-miterlimit="10"/><line x1="24.5" y1="10.5" x2="28.5" y2="14.5" fill="none" stroke="#000" stroke-miterlimit="10"/><line x1="28.5" y1="10.5" x2="24.5" y2="14.5" fill="none" stroke="#000" stroke-miterlimit="10"/><rect x="29.5" y="6.5" width="4" height="4" fill="none" stroke="#000" stroke-miterlimit="10"/><line x1="29.5" y1="6.5" x2="33.5" y2="10.5" fill="none" stroke="#000" stroke-miterlimit="10"/><line x1="33.5" y1="6.5" x2="29.5" y2="10.5" fill="none" stroke="#000" stroke-miterlimit="10"/><rect x="33.5" y="10.5" width="4" height="4" fill="none" stroke="#000" stroke-miterlimit="10"/><line x1="33.5" y1="10.5" x2="37.5" y2="14.5" fill="none" stroke="#000" stroke-miterlimit="10"/><line x1="37.5" y1="10.5" x2="33.5" y2="14.5" fill="none" stroke="#000" stroke-miterlimit="10"/><rect x="29.5" y="14.5" width="4" height="4" fill="none" stroke="#000" stroke-miterlimit="10"/><line x1="29.5" y1="14.5" x2="33.5" y2="18.5" fill="none" stroke="#000" stroke-miterlimit="10"/><line x1="33.5" y1="14.5" x2="29.5" y2="18.5" fill="none" stroke="#000" stroke-miterlimit="10"/><rect x="20.5" y="10.5" width="4" height="4" fill="none" stroke="#000" stroke-miterlimit="10"/><line x1="20.5" y1="10.5" x2="24.5" y2="14.5" fill="none" stroke="#000" stroke-miterlimit="10"/><line x1="24.5" y1="10.5" x2="20.5" y2="14.5" fill="none" stroke="#000" stroke-miterlimit="10"/><rect x="29.5" y="10.5" width="4" height="4" fill="none" stroke="#000" stroke-miterlimit="10"/><line x1="29.5" y1="10.5" x2="33.5" y2="14.5" fill="none" stroke="#000" stroke-miterlimit="10"/><line x1="33.5" y1="10.5" x2="29.5" y2="14.5" fill="none" stroke="#000" stroke-miterlimit="10"/><rect x="29.5" y="18.5" width="4" height="4" fill="none" stroke="#000" stroke-miterlimit="10"/><line x1="29.5" y1="18.5" x2="33.5" y2="22.5" fill="none" stroke="#000" stroke-miterlimit="10"/><line x1="33.5" y1="18.5" x2="29.5" y2="22.5" fill="none" stroke="#000" stroke-miterlimit="10"/><rect x="29.5" y="22.5" width="4" height="4" fill="none" stroke="#000" stroke-miterlimit="10"/><line x1="29.5" y1="22.5" x2="33.5" y2="26.5" fill="none" stroke="#000" stroke-miterlimit="10"/><line x1="33.5" y1="22.5" x2="29.5" y2="26.5" fill="none" stroke="#000" stroke-miterlimit="10"/><rect x="29.5" y="26.5" width="4" height="4" fill="none" stroke="#000" stroke-miterlimit="10"/><line x1="29.5" y1="26.5" x2="33.5" y2="30.5" fill="none" stroke="#000" stroke-miterlimit="10"/><line x1="33.5" y1="26.5" x2="29.5" y2="30.5" fill="none" stroke="#000" stroke-miterlimit="10"/><rect x="29.5" y="30.5" width="4" height="4" fill="none" stroke="#000" stroke-miterlimit="10"/><line x1="29.5" y1="30.5" x2="33.5" y2="34.5" fill="none" stroke="#000" stroke-miterlimit="10"/><line x1="33.5" y1="30.5" x2="29.5" y2="34.5" fill="none" stroke="#000" stroke-miterlimit="10"/><rect x="29.5" y="34.5" width="4" height="4" fill="none" stroke="#000" stroke-miterlimit="10"/><line x1="29.5" y1="34.5" x2="33.5" y2="38.5" fill="none" stroke="#000" stroke-miterlimit="10"/><line x1="33.5" y1="34.5" x2="29.5" y2="38.5" fill="none" stroke="#000" stroke-miterlimit="10"/><rect x="29.5" y="38.5" width="4" height="4" fill="none" stroke="#000" stroke-miterlimit="10"/><line x1="29.5" y1="38.5" x2="33.5" y2="42.5" fill="none" stroke="#000" stroke-miterlimit="10"/><line x1="33.5" y1="38.5" x2="29.5" y2="42.5" fill="none" stroke="#000" stroke-miterlimit="10"/><rect x="29.5" y="42.5" width="4" height="4" fill="none" stroke="#000" stroke-miterlimit="10"/><line x1="29.5" y1="42.5" x2="33.5" y2="46.5" fill="none" stroke="#000" stroke-miterlimit="10"/><line x1="33.5" y1="42.5" x2="29.5" y2="46.5" fill="none" stroke="#000" stroke-miterlimit="10"/><rect x="29.5" y="46.5" width="4" height="4" fill="none" stroke="#000" stroke-miterlimit="10"/><line x1="29.5" y1="46.5" x2="33.5" y2="50.5" fill="none" stroke="#000" stroke-miterlimit="10"/><line x1="33.5" y1="46.5" x2="29.5" y2="50.5" fill="none" stroke="#000" stroke-miterlimit="10"/><rect x="16.5" y="10.5" width="4" height="4" fill="none" stroke="#323232" stroke-linejoin="round"/><line x1="16.5" y1="10.5" x2="20.5" y2="14.5" fill="none" stroke="#323232" stroke-linejoin="round"/><line x1="20.5" y1="10.5" x2="16.5" y2="14.5" fill="none" stroke="#323232" stroke-linejoin="round"/><polygon points="29.5 6.5 33.5 6.5 33.5 50.5 29.5 50.5 29.5 14.5 29.5 10.5 29.5 6.5" fill="none" stroke="#323232" stroke-linejoin="round"/><polygon points="41.5 10.5 41.5 14.5 16.5 14.5 12.5 14.5 16.5 10.5 41.5 10.5" fill="none" stroke="#323232" stroke-linejoin="round"/><rect x="24.5" y="10.5" width="4" height="4" fill="none" stroke="#323232" stroke-linejoin="round"/><line x1="24.5" y1="10.5" x2="28.5" y2="14.5" fill="none" stroke="#323232" stroke-linejoin="round"/><line x1="28.5" y1="10.5" x2="24.5" y2="14.5" fill="none" stroke="#323232" stroke-linejoin="round"/><rect x="29.5" y="6.5" width="4" height="4" fill="none" stroke="#323232" stroke-linejoin="round"/><line x1="29.5" y1="6.5" x2="33.5" y2="10.5" fill="none" stroke="#323232" stroke-linejoin="round"/><line x1="33.5" y1="6.5" x2="29.5" y2="10.5" fill="none" stroke="#323232" stroke-linejoin="round"/><rect x="33.5" y="10.5" width="4" height="4" fill="none" stroke="#323232" stroke-linejoin="round"/><line x1="33.5" y1="10.5" x2="37.5" y2="14.5" fill="none" stroke="#323232" stroke-linejoin="round"/><line x1="37.5" y1="10.5" x2="33.5" y2="14.5" fill="none" stroke="#323232" stroke-linejoin="round"/><rect x="29.5" y="14.5" width="4" height="4" fill="none" stroke="#323232" stroke-linejoin="round"/><line x1="29.5" y1="14.5" x2="33.5" y2="18.5" fill="none" stroke="#323232" stroke-linejoin="round"/><line x1="33.5" y1="14.5" x2="29.5" y2="18.5" fill="none" stroke="#323232" stroke-linejoin="round"/><rect x="20.5" y="10.5" width="4" height="4" fill="none" stroke="#323232" stroke-linejoin="round"/><line x1="20.5" y1="10.5" x2="24.5" y2="14.5" fill="none" stroke="#323232" stroke-linejoin="round"/><line x1="24.5" y1="10.5" x2="20.5" y2="14.5" fill="none" stroke="#323232" stroke-linejoin="round"/><rect x="29.5" y="10.5" width="4" height="4" fill="none" stroke="#323232" stroke-linejoin="round"/><line x1="29.5" y1="10.5" x2="33.5" y2="14.5" fill="none" stroke="#323232" stroke-linejoin="round"/><line x1="33.5" y1="10.5" x2="29.5" y2="14.5" fill="none" stroke="#323232" stroke-linejoin="round"/><rect x="29.5" y="18.5" width="4" height="4" fill="none" stroke="#323232" stroke-linejoin="round"/><line x1="29.5" y1="18.5" x2="33.5" y2="22.5" fill="none" stroke="#323232" stroke-linejoin="round"/><line x1="33.5" y1="18.5" x2="29.5" y2="22.5" fill="none" stroke="#323232" stroke-linejoin="round"/><rect x="29.5" y="22.5" width="4" height="4" fill="none" stroke="#323232" stroke-linejoin="round"/><line x1="29.5" y1="22.5" x2="33.5" y2="26.5" fill="none" stroke="#323232" stroke-linejoin="round"/><line x1="33.5" y1="22.5" x2="29.5" y2="26.5" fill="none" stroke="#323232" stroke-linejoin="round"/><rect x="29.5" y="26.5" width="4" height="4" fill="none" stroke="#323232" stroke-linejoin="round"/><line x1="29.5" y1="26.5" x2="33.5" y2="30.5" fill="none" stroke="#323232" stroke-linejoin="round"/><line x1="33.5" y1="26.5" x2="29.5" y2="30.5" fill="none" stroke="#323232" stroke-linejoin="round"/><rect x="29.5" y="30.5" width="4" height="4" fill="none" stroke="#323232" stroke-linejoin="round"/><line x1="29.5" y1="30.5" x2="33.5" y2="34.5" fill="none" stroke="#323232" stroke-linejoin="round"/><line x1="33.5" y1="30.5" x2="29.5" y2="34.5" fill="none" stroke="#323232" stroke-linejoin="round"/><rect x="29.5" y="34.5" width="4" height="4" fill="none" stroke="#323232" stroke-linejoin="round"/><line x1="29.5" y1="34.5" x2="33.5" y2="38.5" fill="none" stroke="#323232" stroke-linejoin="round"/><line x1="33.5" y1="34.5" x2="29.5" y2="38.5" fill="none" stroke="#323232" stroke-linejoin="round"/><rect x="29.5" y="38.5" width="4" height="4" fill="none" stroke="#323232" stroke-linejoin="round"/><line x1="29.5" y1="38.5" x2="33.5" y2="42.5" fill="none" stroke="#323232" stroke-linejoin="round"/><line x1="33.5" y1="38.5" x2="29.5" y2="42.5" fill="none" stroke="#323232" stroke-linejoin="round"/><rect x="29.5" y="42.5" width="4" height="4" fill="none" stroke="#323232" stroke-linejoin="round"/><line x1="29.5" y1="42.5" x2="33.5" y2="46.5" fill="none" stroke="#323232" stroke-linejoin="round"/><line x1="33.5" y1="42.5" x2="29.5" y2="46.5" fill="none" stroke="#323232" stroke-linejoin="round"/><rect x="29.5" y="46.5" width="4" height="4" fill="none" stroke="#323232" stroke-linejoin="round"/><line x1="29.5" y1="46.5" x2="33.5" y2="50.5" fill="none" stroke="#323232" stroke-linejoin="round"/><line x1="33.5" y1="46.5" x2="29.5" y2="50.5" fill="none" stroke="#323232" stroke-linejoin="round"/></g><g id="b"><polygon id="c" points="34.46 53.79 17.47 55 6.27 54.06 6.27 33.84 17.47 30.04 34.46 34.13 34.46 53.79" fill="#fff" opacity=".5"/><polygon id="d" points="34.46 55.12 17.47 57.04 6.27 55.56 6.27 23.68 17.47 17.68 34.46 24.13 34.46 55.12" fill="none" opacity=".2"/><g opacity=".5"><polygon points="17.68 54.87 7.1 53.25 17.68 54.25 17.68 52.31 33.67 52.21 17.68 54.87"/><polygon points="17.68 49.79 7.1 48.61 17.68 49.18 17.68 47.24 33.7 48.42 17.68 49.79"/><polygon points="17.68 44.42 7.1 44.08 17.68 43.81 17.68 41.87 33.73 44.14 17.68 44.42"/><polygon points="17.68 39.25 7.1 39.54 17.68 38.63 17.68 36.7 33.76 40.45 17.68 39.25"/><polygon points="17.68 33.49 7.1 36.27 17.68 32.87 17.68 30.83 33.91 37.23 17.68 33.49"/></g><g id="e" opacity=".5"><polyline points="34.74 51.29 34.74 53.29 32.75 53.43" fill="none" stroke="#323232" stroke-linejoin="round"/><polyline points="29.23 53.67 17.43 54.5 9.86 53.85" fill="none" stroke="#323232" stroke-dasharray="3.53 3.53" stroke-linejoin="round"/><polyline points="8.1 53.7 6.11 53.53 6.11 51.53" fill="none" stroke="#323232" stroke-linejoin="round"/><line x1="6.11" y1="48.42" x2="6.11" y2="37.53" fill="none" stroke="#323232" stroke-dasharray="3.11 3.11" stroke-linejoin="round"/><polyline points="6.11 35.97 6.11 33.97 8.01 33.36" fill="none" stroke="#323232" stroke-linejoin="round"/><polyline points="11.5 32.24 17.43 30.34 31.01 33.43" fill="none" stroke="#323232" stroke-dasharray="3.66 3.66" stroke-linejoin="round"/><polyline points="32.79 33.83 34.74 34.28 34.74 36.28" fill="none" stroke="#323232" stroke-linejoin="round"/><line x1="34.74" y1="41.28" x2="34.74" y2="48.79" fill="none" stroke="#323232" stroke-dasharray="5 5" stroke-linejoin="round"/></g><polygon id="f" points="57.49 54.79 44.45 56.79 37.01 55.11 37.01 12.95 44.45 6.74 57.49 15.38 57.49 54.79" fill="#fff" opacity=".5"/><polygon points="56.84 54.83 44.41 57.04 44.41 7.23 56.84 15.66 56.84 54.83" fill="#82bddb" opacity=".92"/><polygon points="57.34 54.95 44.44 56.94 37.57 55.37 37.57 24.4 44.57 49.42 57.34 54.95" fill="#5a9ab8" opacity=".56"/><polygon points="57.34 54.95 44.44 56.94 44.57 49.42 57.34 54.95" fill="#5a9ab8" opacity=".56"/><polygon points="44.6 56.49 37.46 54.79 44.6 55.68 44.6 53.94 56.82 54.31 44.6 56.49" fill="#003755"/><polygon points="44.6 50.22 37.46 49.73 44.6 49.42 44.6 47.67 56.82 49.88 44.6 50.22" fill="#003755"/><polygon points="44.6 44.63 37.46 44.93 44.6 43.83 44.6 42.08 56.82 45.17 44.6 44.63" fill="#003755"/><polygon points="44.6 38.87 37.46 39.96 44.6 38.07 44.6 36.32 56.82 40.29 44.6 38.87" fill="#003755"/><polygon points="44.6 33.11 37.46 34.99 44.6 32.31 44.6 30.56 56.82 35.42 44.6 33.11" fill="#003755"/><polygon points="44.6 27.35 37.46 30.02 44.6 26.55 44.6 24.8 56.82 30.54 44.6 27.35" fill="#003755"/><polygon points="44.6 21.59 37.46 25.05 44.6 20.79 44.6 19.04 56.82 25.66 44.6 21.59" fill="#003755"/><polygon points="44.6 15.83 37.46 20.07 44.6 15.02 44.6 13.28 56.82 20.78 44.6 15.83" fill="#003755"/><polygon points="44.6 10.07 37.46 15.1 44.6 9.26 44.6 7.52 56.82 15.7 44.6 10.07" fill="#003755"/><g id="g"><path d="M44.32,7.34l12.5,8.39v38.63l-12.27,2.03-7.02-1.57V13.54l6.79-6.2M44.23,6.04l-7.72,7.04v42.57l8.02,1.79,13.32-2.21V15.19l-13.62-9.15h0Z" fill="#003755"/></g><line id="h" x1="22.88" y1="30.48" x2="22.88" y2="25.85" fill="none" opacity=".5" stroke="#000" stroke-linecap="round" stroke-linejoin="round"/><line id="i" x1="28.18" y1="32.44" x2="28.18" y2="24.93" fill="none" opacity=".5" stroke="#000" stroke-linecap="round" stroke-linejoin="round"/><line id="j" x1="31.18" y1="33.84" x2="31.18" y2="22.83" fill="none" opacity=".5" stroke="#000" stroke-linecap="round" stroke-linejoin="round"/><line id="k" x1="14.79" y1="29.94" x2="14.79" y2="20.97" fill="none" opacity=".5" stroke="#000" stroke-linecap="round" stroke-linejoin="round"/><line id="l" x1="10.19" y1="32.46" x2="10.19" y2="23.37" fill="none" opacity=".5" stroke="#000" stroke-linecap="round" stroke-linejoin="round"/><polyline id="m" points="6.98 31.4 17.45 25.34 33.17 32.56" fill="none" opacity=".5" stroke="#000" stroke-linecap="round" stroke-linejoin="round"/></g></svg>