<?xml version="1.0" encoding="UTF-8"?>
<svg xmlns="http://www.w3.org/2000/svg" width="64" height="64" xmlns:xlink="http://www.w3.org/1999/xlink" viewBox="0 0 64 64">
  <defs>
    <linearGradient id="a" x1="20.292" y1="22.578" x2="27.708" y2="35.422" gradientUnits="userSpaceOnUse">
      <stop offset="0" stop-color="#8dd7f4"/>
      <stop offset="1" stop-color="#386e8c"/>
    </linearGradient>
    <linearGradient id="c" x1="31.975" y1="39.225" x2="34.025" y2="42.775" xlink:href="#a"/>
    <linearGradient id="e" x1="31.975" y1="49.225" x2="34.025" y2="52.775" xlink:href="#a"/>
    <linearGradient id="g" x1="31.975" y1="44.225" x2="34.025" y2="47.775" xlink:href="#a"/>
    <linearGradient id="i" x1="13.975" y1="34.225" x2="16.025" y2="37.775" gradientUnits="userSpaceOnUse">
      <stop offset="0" stop-color="#ababab"/>
      <stop offset="1" stop-color="#5a5b5b"/>
    </linearGradient>
    <linearGradient id="k" x1="19.975" y1="34.225" x2="22.025" y2="37.775" xlink:href="#i"/>
    <linearGradient id="m" x1="14.163" y1="21.962" x2="33.837" y2="56.038" gradientUnits="userSpaceOnUse">
      <stop offset="0" stop-color="#fff"/>
      <stop offset="1" stop-color="#d4d5d3"/>
    </linearGradient>
    <linearGradient id="o" x1="25.975" y1="39.225" x2="28.025" y2="42.775" xlink:href="#m"/>
    <linearGradient id="q" x1="19.975" y1="39.225" x2="22.025" y2="42.775" xlink:href="#m"/>
    <linearGradient id="s" x1="13.975" y1="39.225" x2="16.025" y2="42.775" xlink:href="#m"/>
    <linearGradient id="hg" x1="19.975" y1="34.225" x2="22.025" y2="37.775" xlink:href="#i"/>
    <linearGradient id="hh" x1="19.975" y1="34.225" x2="22.025" y2="37.775" xlink:href="#i"/>
    <linearGradient id="hi" x1="19.975" y1="34.225" x2="22.025" y2="37.775" xlink:href="#i"/>
    <linearGradient id="hj" x1="13.975" y1="39.225" x2="16.025" y2="42.775" xlink:href="#m"/>
    <linearGradient id="hk" x1="19.975" y1="39.225" x2="22.025" y2="42.775" xlink:href="#m"/>
    <linearGradient id="hl" x1="25.975" y1="39.225" x2="28.025" y2="42.775" xlink:href="#m"/>
    <linearGradient id="hm" x1="31.975" y1="39.225" x2="34.025" y2="42.775" xlink:href="#a"/>
    <linearGradient id="hn" x1="13.975" y1="39.225" x2="16.025" y2="42.775" xlink:href="#m"/>
    <linearGradient id="ho" x1="19.975" y1="39.225" x2="22.025" y2="42.775" xlink:href="#m"/>
    <linearGradient id="hp" x1="25.975" y1="39.225" x2="28.025" y2="42.775" xlink:href="#m"/>
    <linearGradient id="hq" x1="31.975" y1="49.225" x2="34.025" y2="52.775" xlink:href="#a"/>
    <linearGradient id="hr" x1="13.975" y1="39.225" x2="16.025" y2="42.775" xlink:href="#m"/>
    <linearGradient id="hs" x1="19.975" y1="39.225" x2="22.025" y2="42.775" xlink:href="#m"/>
    <linearGradient id="ht" x1="25.975" y1="39.225" x2="28.025" y2="42.775" xlink:href="#m"/>
    <linearGradient id="hu" x1="31.975" y1="44.225" x2="34.025" y2="47.775" xlink:href="#a"/>
    <linearGradient id="ia" x1="44" y1="37" x2="44" y2="39" gradientUnits="userSpaceOnUse">
      <stop offset="0" stop-color="#8cd7f5"/>
      <stop offset=".201" stop-color="#7fc7e5"/>
      <stop offset=".592" stop-color="#5e9ebc"/>
      <stop offset="1" stop-color="#376e8c"/>
    </linearGradient>
  </defs>
  <g id="u" data-name="Layer 4">
    <g>
      <g id="v" data-name="4">
        <polygon points="33.597 21.578 38.419 19.779 42.532 21.406 42.532 25.275 37.731 27.079 33.625 25.473 33.625 21.59 33.597 21.578" fill="#323232" stroke-width="0"/>
        <path d="m37.581,27.344l-4.107-1.606c-.123-.048-.202-.151-.202-.264v-3.781c-.019-.037-.029-.078-.028-.12.003-.113.084-.214.208-.261l4.823-1.799c.094-.035.202-.034.295.003l4.112,1.627c.122.048.201.151.201.264v3.869c0,.115-.081.219-.207.266l-4.801,1.804c-.046.017-.095.026-.145.026-.051,0-.102-.009-.15-.028Zm4.599-5.753l-3.765-1.489-4.439,1.656v3.531s3.758,1.47,3.758,1.47l4.446-1.671v-3.496Z" stroke="#000" stroke-miterlimit="10" stroke-width=".25"/>
      </g>
      <polygon id="w" data-name="3" points="33.625 21.578 33.625 25.473 37.731 27.079 37.731 23.213 33.625 21.578" fill="#797979" stroke-width="0"/>
      <polygon id="x" data-name="2" points="42.532 21.406 42.532 25.275 37.731 27.079 37.731 23.213 42.532 21.406" fill="#e1e1e1" stroke-width="0"/>
      <path id="y" data-name="1" d="m33.597,21.578l4.134,1.635,4.801-1.807-4.112-1.627-4.823,1.799Z" fill="#f1f0f0" stroke-width="0"/>
    </g>
    <g>
      <g id="z" data-name="4">
        <polygon points="33.597 17.101 38.419 15.302 42.532 16.929 42.532 20.781 37.731 22.585 33.625 20.978 33.625 17.112 33.597 17.101" fill="#323232" stroke-width="0"/>
        <path d="m37.581,22.849l-4.107-1.606c-.123-.048-.202-.151-.202-.264v-3.764c-.019-.037-.028-.077-.028-.118.002-.114.083-.216.208-.263l4.823-1.799c.094-.035.202-.034.295.003l4.112,1.627c.122.049.201.151.201.264v3.852c0,.115-.081.219-.207.266l-4.801,1.803c-.046.017-.095.026-.145.026-.051,0-.102-.009-.15-.028Zm4.599-5.736l-3.765-1.489-4.439,1.656v3.513s3.758,1.47,3.758,1.47l4.446-1.67v-3.479Z" stroke="#000" stroke-miterlimit="10" stroke-width=".25"/>
      </g>
      <polygon id="aa" data-name="3" points="33.625 17.101 33.625 20.978 37.731 22.585 37.731 18.729 33.625 17.101" fill="#797979" stroke-width="0"/>
      <polygon id="ab" data-name="2" points="42.532 16.929 42.532 20.781 37.731 22.585 37.731 18.729 42.532 16.929" fill="#e1e1e1" stroke-width="0"/>
      <path id="ac" data-name="1" d="m33.597,17.101l4.134,1.628,4.801-1.8-4.112-1.627-4.823,1.799Z" fill="#f1f0f0" stroke-width="0"/>
    </g>
    <g>
      <g id="ad" data-name="4">
        <polygon points="33.597 12.655 38.419 10.856 42.532 12.483 42.532 16.335 37.731 18.135 33.625 16.532 33.625 12.666 33.597 12.655" fill="#323232" stroke-width="0"/>
        <path d="m37.582,18.4l-4.107-1.604c-.123-.048-.202-.151-.202-.265v-3.763c-.019-.036-.028-.076-.028-.117.002-.114.083-.217.208-.263l4.823-1.8c.094-.035.202-.034.295.003l4.112,1.627c.122.049.2.151.2.264v3.852c0,.115-.081.219-.207.266l-4.801,1.801c-.046.017-.095.026-.145.026-.051,0-.102-.009-.15-.028Zm4.598-5.733l-3.765-1.49-4.439,1.656v3.512s3.758,1.468,3.758,1.468l4.446-1.668v-3.478Z" stroke="#000" stroke-miterlimit="10" stroke-width=".25"/>
      </g>
      <polygon id="ae" data-name="3" points="33.625 12.655 33.625 16.532 37.731 18.135 37.731 14.282 33.625 12.655" fill="#797979" stroke-width="0"/>
      <polygon id="af" data-name="2" points="42.532 12.483 42.532 16.335 37.731 18.135 37.731 14.282 42.532 12.483" fill="#e1e1e1" stroke-width="0"/>
      <path id="ag" data-name="1" d="m33.597,12.655l4.134,1.627,4.801-1.799-4.112-1.627-4.823,1.8Z" fill="#f1f0f0" stroke-width="0"/>
    </g>
    <g>
      <g id="ah" data-name="4">
        <polygon points="33.597 8.175 38.419 6.375 42.532 8.002 42.532 11.854 37.731 13.655 33.625 12.051 33.625 8.186 33.597 8.175" fill="#323232" stroke-width="0"/>
        <path d="m37.582,13.92l-4.107-1.604c-.123-.048-.202-.151-.202-.265v-3.763c-.019-.036-.028-.076-.028-.117.002-.114.083-.217.208-.263l4.823-1.8c.094-.035.202-.034.295.003l4.112,1.627c.122.048.2.151.2.264v3.852c0,.115-.081.219-.207.266l-4.801,1.801c-.046.017-.095.026-.145.026-.051,0-.102-.009-.15-.028Zm4.598-5.733l-3.765-1.49-4.439,1.656v3.512s3.758,1.468,3.758,1.468l4.446-1.668v-3.478Z" stroke="#000" stroke-miterlimit="10" stroke-width=".25"/>
      </g>
      <polygon id="ai" data-name="3" points="33.625 8.175 33.625 12.051 37.731 13.655 37.731 9.802 33.625 8.175" fill="#797979" stroke-width="0"/>
      <polygon id="aj" data-name="2" points="42.532 8.002 42.532 11.854 37.731 13.655 37.731 9.802 42.532 8.002" fill="#e1e1e1" stroke-width="0"/>
      <path id="ak" data-name="1" d="m33.597,8.175l4.134,1.627,4.801-1.799-4.112-1.627-4.823,1.8Z" fill="#f1f0f0" stroke-width="0"/>
    </g>
    <g>
      <g id="al" data-name="4">
        <polygon points="38.525 23.69 43.347 21.891 47.46 23.518 47.46 27.387 42.659 29.191 38.553 27.585 38.553 23.702 38.525 23.69" fill="#323232" stroke-width="0"/>
        <path d="m42.509,29.456l-4.107-1.606c-.123-.048-.202-.151-.202-.264v-3.781c-.019-.037-.029-.078-.028-.12.003-.113.084-.214.208-.261l4.823-1.799c.094-.035.202-.034.295.003l4.112,1.627c.122.048.201.151.201.264v3.869c0,.115-.081.219-.207.266l-4.801,1.804c-.046.017-.095.026-.145.026-.051,0-.102-.009-.15-.028Zm4.599-5.753l-3.765-1.489-4.439,1.656v3.531s3.758,1.47,3.758,1.47l4.446-1.671v-3.496Z" stroke="#000" stroke-miterlimit="10" stroke-width=".25"/>
      </g>
      <polygon id="am" data-name="3" points="38.553 23.69 38.553 27.585 42.659 29.191 42.659 25.325 38.553 23.69" fill="#797979" stroke-width="0"/>
      <polygon id="an" data-name="2" points="47.46 23.518 47.46 27.387 42.659 29.191 42.659 25.325 47.46 23.518" fill="#e1e1e1" stroke-width="0"/>
      <path id="ao" data-name="1" d="m38.525,23.69l4.134,1.635,4.801-1.807-4.112-1.627-4.823,1.799Z" fill="#f1f0f0" stroke-width="0"/>
    </g>
    <g>
      <g id="ap" data-name="4">
        <polygon points="38.525 19.213 43.347 17.414 47.46 19.041 47.46 22.893 42.659 24.697 38.553 23.09 38.553 19.224 38.525 19.213" fill="#323232" stroke-width="0"/>
        <path d="m42.509,24.961l-4.107-1.606c-.123-.048-.202-.151-.202-.264v-3.764c-.019-.037-.028-.077-.028-.118.002-.114.083-.216.208-.263l4.823-1.799c.094-.035.202-.034.295.003l4.112,1.627c.122.049.201.151.201.264v3.852c0,.115-.081.219-.207.266l-4.801,1.803c-.046.017-.095.026-.145.026-.051,0-.102-.009-.15-.028Zm4.599-5.736l-3.765-1.489-4.439,1.656v3.513s3.758,1.47,3.758,1.47l4.446-1.67v-3.479Z" stroke="#000" stroke-miterlimit="10" stroke-width=".25"/>
      </g>
      <polygon id="aq" data-name="3" points="38.553 19.213 38.553 23.09 42.659 24.697 42.659 20.841 38.553 19.213" fill="#797979" stroke-width="0"/>
      <polygon id="ar" data-name="2" points="47.46 19.041 47.46 22.893 42.659 24.697 42.659 20.841 47.46 19.041" fill="#e1e1e1" stroke-width="0"/>
      <path id="as" data-name="1" d="m38.525,19.213l4.134,1.628,4.801-1.8-4.112-1.627-4.823,1.799Z" fill="#f1f0f0" stroke-width="0"/>
    </g>
    <g>
      <g id="at" data-name="4">
        <polygon points="38.525 14.767 43.347 12.968 47.46 14.595 47.46 18.447 42.659 20.247 38.553 18.644 38.553 14.778 38.525 14.767" fill="#323232" stroke-width="0"/>
        <path d="m42.51,20.512l-4.107-1.604c-.123-.048-.202-.151-.202-.265v-3.763c-.019-.036-.028-.076-.028-.117.002-.114.083-.217.208-.263l4.823-1.8c.094-.035.202-.034.295.003l4.112,1.627c.122.049.2.151.2.264v3.852c0,.115-.081.219-.207.266l-4.801,1.801c-.046.017-.095.026-.145.026-.051,0-.102-.009-.15-.028Zm4.598-5.733l-3.765-1.49-4.439,1.656v3.512s3.758,1.468,3.758,1.468l4.446-1.668v-3.478Z" stroke="#000" stroke-miterlimit="10" stroke-width=".25"/>
      </g>
      <polygon id="au" data-name="3" points="38.553 14.767 38.553 18.644 42.659 20.247 42.659 16.394 38.553 14.767" fill="#797979" stroke-width="0"/>
      <polygon id="av" data-name="2" points="47.46 14.595 47.46 18.447 42.659 20.247 42.659 16.394 47.46 14.595" fill="#e1e1e1" stroke-width="0"/>
      <path id="aw" data-name="1" d="m38.525,14.767l4.134,1.627,4.801-1.799-4.112-1.627-4.823,1.8Z" fill="#f1f0f0" stroke-width="0"/>
    </g>
    <g>
      <g id="ax" data-name="4">
        <polygon points="38.525 10.287 43.347 8.487 47.46 10.114 47.46 13.966 42.659 15.767 38.553 14.163 38.553 10.298 38.525 10.287" fill="#323232" stroke-width="0"/>
        <path d="m42.51,16.032l-4.107-1.604c-.123-.048-.202-.151-.202-.265v-3.763c-.019-.036-.028-.076-.028-.117.002-.114.083-.217.208-.263l4.823-1.8c.094-.035.202-.034.295.003l4.112,1.627c.122.048.2.151.2.264v3.852c0,.115-.081.219-.207.266l-4.801,1.801c-.046.017-.095.026-.145.026-.051,0-.102-.009-.15-.028Zm4.598-5.733l-3.765-1.49-4.439,1.656v3.512s3.758,1.468,3.758,1.468l4.446-1.668v-3.478Z" stroke="#000" stroke-miterlimit="10" stroke-width=".25"/>
      </g>
      <polygon id="ay" data-name="3" points="38.553 10.287 38.553 14.163 42.659 15.767 42.659 11.914 38.553 10.287" fill="#797979" stroke-width="0"/>
      <polygon id="az" data-name="2" points="47.46 10.114 47.46 13.966 42.659 15.767 42.659 11.914 47.46 10.114" fill="#e1e1e1" stroke-width="0"/>
      <path id="ba" data-name="1" d="m38.525,10.287l4.134,1.627,4.801-1.799-4.112-1.627-4.823,1.8Z" fill="#f1f0f0" stroke-width="0"/>
    </g>
    <g>
      <g id="bb" data-name="4">
        <polygon points="43.671 25.802 48.493 24.003 52.606 25.63 52.606 29.499 47.805 31.303 43.699 29.697 43.699 25.814 43.671 25.802" fill="#323232" stroke-width="0"/>
        <path d="m47.655,31.568l-4.107-1.606c-.123-.048-.202-.151-.202-.264v-3.781c-.019-.037-.029-.078-.028-.12.003-.113.084-.214.208-.261l4.823-1.799c.094-.035.202-.034.295.003l4.112,1.627c.122.048.201.151.201.264v3.869c0,.115-.081.219-.207.266l-4.801,1.804c-.046.017-.095.026-.145.026-.051,0-.102-.009-.15-.028Zm4.599-5.753l-3.765-1.489-4.439,1.656v3.531s3.758,1.47,3.758,1.47l4.446-1.671v-3.496Z" stroke="#000" stroke-miterlimit="10" stroke-width=".25"/>
      </g>
      <polygon id="bc" data-name="3" points="43.699 25.802 43.699 29.697 47.805 31.303 47.805 27.437 43.699 25.802" fill="#797979" stroke-width="0"/>
      <polygon id="bd" data-name="2" points="52.606 25.63 52.606 29.499 47.805 31.303 47.805 27.437 52.606 25.63" fill="#e1e1e1" stroke-width="0"/>
      <path id="be" data-name="1" d="m43.671,25.802l4.134,1.635,4.801-1.807-4.112-1.627-4.823,1.799Z" fill="#f1f0f0" stroke-width="0"/>
    </g>
    <g>
      <g id="bf" data-name="4">
        <polygon points="43.671 21.325 48.493 19.526 52.606 21.153 52.606 25.005 47.805 26.809 43.699 25.202 43.699 21.336 43.671 21.325" fill="#323232" stroke-width="0"/>
        <path d="m47.655,27.073l-4.107-1.606c-.123-.048-.202-.151-.202-.264v-3.764c-.019-.037-.028-.077-.028-.118.002-.114.083-.216.208-.263l4.823-1.799c.094-.035.202-.034.295.003l4.112,1.627c.122.049.201.151.201.264v3.852c0,.115-.081.219-.207.266l-4.801,1.803c-.046.017-.095.026-.145.026-.051,0-.102-.009-.15-.028Zm4.599-5.736l-3.765-1.489-4.439,1.656v3.513s3.758,1.47,3.758,1.47l4.446-1.67v-3.479Z" stroke="#000" stroke-miterlimit="10" stroke-width=".25"/>
      </g>
      <polygon id="bg" data-name="3" points="43.699 21.325 43.699 25.202 47.805 26.809 47.805 22.953 43.699 21.325" fill="#797979" stroke-width="0"/>
      <polygon id="bh" data-name="2" points="52.606 21.153 52.606 25.005 47.805 26.809 47.805 22.953 52.606 21.153" fill="#e1e1e1" stroke-width="0"/>
      <path id="bi" data-name="1" d="m43.671,21.325l4.134,1.628,4.801-1.8-4.112-1.627-4.823,1.799Z" fill="#f1f0f0" stroke-width="0"/>
    </g>
    <g>
      <g id="bj" data-name="4">
        <polygon points="43.671 16.879 48.493 15.08 52.606 16.707 52.606 20.559 47.805 22.359 43.699 20.756 43.699 16.89 43.671 16.879" fill="#323232" stroke-width="0"/>
        <path d="m47.656,22.624l-4.107-1.604c-.123-.048-.202-.151-.202-.265v-3.763c-.019-.036-.028-.076-.028-.117.002-.114.083-.217.208-.263l4.823-1.8c.094-.035.202-.034.295.003l4.112,1.627c.122.049.2.151.2.264v3.852c0,.115-.081.219-.207.266l-4.801,1.801c-.046.017-.095.026-.145.026-.051,0-.102-.009-.149-.028Zm4.598-5.733l-3.765-1.49-4.439,1.656v3.512s3.758,1.468,3.758,1.468l4.446-1.668v-3.478Z" stroke="#000" stroke-miterlimit="10" stroke-width=".25"/>
      </g>
      <polygon id="bk" data-name="3" points="43.699 16.879 43.699 20.756 47.805 22.359 47.805 18.506 43.699 16.879" fill="#797979" stroke-width="0"/>
      <polygon id="bl" data-name="2" points="52.606 16.707 52.606 20.559 47.805 22.359 47.805 18.506 52.606 16.707" fill="#e1e1e1" stroke-width="0"/>
      <path id="bm" data-name="1" d="m43.671,16.879l4.134,1.627,4.801-1.799-4.112-1.627-4.823,1.8Z" fill="#f1f0f0" stroke-width="0"/>
    </g>
    <g>
      <g id="bn" data-name="4">
        <polygon points="43.671 12.399 48.493 10.599 52.606 12.226 52.606 16.078 47.805 17.879 43.699 16.275 43.699 12.41 43.671 12.399" fill="#323232" stroke-width="0"/>
        <path d="m47.656,18.144l-4.107-1.604c-.123-.048-.202-.151-.202-.265v-3.763c-.019-.036-.028-.076-.028-.117.002-.114.083-.217.208-.263l4.823-1.8c.094-.035.202-.034.295.003l4.112,1.627c.122.048.2.151.2.264v3.852c0,.115-.081.219-.207.266l-4.801,1.801c-.046.017-.095.026-.145.026-.051,0-.102-.009-.149-.028Zm4.598-5.733l-3.765-1.49-4.439,1.656v3.512s3.758,1.468,3.758,1.468l4.446-1.668v-3.478Z" stroke="#000" stroke-miterlimit="10" stroke-width=".25"/>
      </g>
      <polygon id="bo" data-name="3" points="43.699 12.399 43.699 16.275 47.805 17.879 47.805 14.026 43.699 12.399" fill="#797979" stroke-width="0"/>
      <polygon id="bp" data-name="2" points="52.606 12.226 52.606 16.078 47.805 17.879 47.805 14.026 52.606 12.226" fill="#e1e1e1" stroke-width="0"/>
      <path id="bq" data-name="1" d="m43.671,12.399l4.134,1.627,4.801-1.799-4.112-1.627-4.823,1.8Z" fill="#f1f0f0" stroke-width="0"/>
    </g>
    <g>
      <g id="br" data-name="4">
        <polygon points="48.599 27.914 53.421 26.115 57.534 27.742 57.534 31.611 52.733 33.415 48.627 31.809 48.627 27.926 48.599 27.914" fill="#323232" stroke-width="0"/>
        <path d="m52.583,33.68l-4.107-1.606c-.123-.048-.202-.151-.202-.264v-3.781c-.019-.037-.029-.078-.028-.12.003-.113.084-.214.208-.261l4.823-1.799c.094-.035.202-.034.295.003l4.112,1.627c.122.048.201.151.201.264v3.869c0,.115-.081.219-.207.266l-4.801,1.804c-.046.017-.095.026-.145.026-.051,0-.102-.009-.15-.028Zm4.599-5.753l-3.765-1.489-4.439,1.656v3.531s3.758,1.47,3.758,1.47l4.446-1.671v-3.496Z" stroke="#000" stroke-miterlimit="10" stroke-width=".25"/>
      </g>
      <polygon id="bs" data-name="3" points="48.627 27.914 48.627 31.809 52.733 33.415 52.733 29.549 48.627 27.914" fill="#797979" stroke-width="0"/>
      <polygon id="bt" data-name="2" points="57.534 27.742 57.534 31.611 52.733 33.415 52.733 29.549 57.534 27.742" fill="#e1e1e1" stroke-width="0"/>
      <path id="bu" data-name="1" d="m48.599,27.914l4.134,1.635,4.801-1.807-4.112-1.627-4.823,1.799Z" fill="#f1f0f0" stroke-width="0"/>
    </g>
    <g>
      <g id="bv" data-name="4">
        <polygon points="48.599 23.437 53.421 21.638 57.534 23.265 57.534 27.117 52.733 28.921 48.627 27.314 48.627 23.448 48.599 23.437" fill="#323232" stroke-width="0"/>
        <path d="m52.583,29.185l-4.107-1.606c-.123-.048-.202-.151-.202-.264v-3.764c-.019-.037-.028-.077-.028-.118.002-.114.083-.216.208-.263l4.823-1.799c.094-.035.202-.034.295.003l4.112,1.627c.122.049.201.151.201.264v3.852c0,.115-.081.219-.207.266l-4.801,1.803c-.046.017-.095.026-.145.026-.051,0-.102-.009-.15-.028Zm4.599-5.736l-3.765-1.489-4.439,1.656v3.513s3.758,1.47,3.758,1.47l4.446-1.67v-3.479Z" stroke="#000" stroke-miterlimit="10" stroke-width=".25"/>
      </g>
      <polygon id="bw" data-name="3" points="48.627 23.437 48.627 27.314 52.733 28.921 52.733 25.065 48.627 23.437" fill="#797979" stroke-width="0"/>
      <polygon id="bx" data-name="2" points="57.534 23.265 57.534 27.117 52.733 28.921 52.733 25.065 57.534 23.265" fill="#e1e1e1" stroke-width="0"/>
      <path id="by" data-name="1" d="m48.599,23.437l4.134,1.628,4.801-1.8-4.112-1.627-4.823,1.799Z" fill="#f1f0f0" stroke-width="0"/>
    </g>
    <g>
      <g id="bz" data-name="4">
        <polygon points="48.599 18.991 53.421 17.192 57.534 18.819 57.534 22.671 52.733 24.471 48.627 22.868 48.627 19.002 48.599 18.991" fill="#323232" stroke-width="0"/>
        <path d="m52.584,24.736l-4.107-1.604c-.123-.048-.202-.151-.202-.265v-3.763c-.019-.036-.028-.076-.028-.117.002-.114.083-.217.208-.263l4.823-1.8c.094-.035.202-.034.295.003l4.112,1.627c.122.049.2.151.2.264v3.852c0,.115-.081.219-.207.266l-4.801,1.801c-.046.017-.095.026-.145.026-.051,0-.102-.009-.149-.028Zm4.598-5.733l-3.765-1.49-4.439,1.656v3.512s3.758,1.468,3.758,1.468l4.446-1.668v-3.478Z" stroke="#000" stroke-miterlimit="10" stroke-width=".25"/>
      </g>
      <polygon id="ca" data-name="3" points="48.627 18.991 48.627 22.868 52.733 24.471 52.733 20.618 48.627 18.991" fill="#797979" stroke-width="0"/>
      <polygon id="cb" data-name="2" points="57.534 18.819 57.534 22.671 52.733 24.471 52.733 20.618 57.534 18.819" fill="#e1e1e1" stroke-width="0"/>
      <path id="cc" data-name="1" d="m48.599,18.991l4.134,1.627,4.801-1.799-4.112-1.627-4.823,1.8Z" fill="#f1f0f0" stroke-width="0"/>
    </g>
    <g>
      <g id="cd" data-name="4">
        <polygon points="48.599 14.511 53.421 12.711 57.534 14.338 57.534 18.19 52.733 19.991 48.627 18.387 48.627 14.522 48.599 14.511" fill="#323232" stroke-width="0"/>
        <path d="m52.584,20.256l-4.107-1.604c-.123-.048-.202-.151-.202-.265v-3.763c-.019-.036-.028-.076-.028-.117.002-.114.083-.217.208-.263l4.823-1.8c.094-.035.202-.034.295.003l4.112,1.627c.122.048.2.151.2.264v3.852c0,.115-.081.219-.207.266l-4.801,1.801c-.046.017-.095.026-.145.026-.051,0-.102-.009-.149-.028Zm4.598-5.733l-3.765-1.49-4.439,1.656v3.512s3.758,1.468,3.758,1.468l4.446-1.668v-3.478Z" stroke="#000" stroke-miterlimit="10" stroke-width=".25"/>
      </g>
      <polygon id="ce" data-name="3" points="48.627 14.511 48.627 18.387 52.733 19.991 52.733 16.138 48.627 14.511" fill="#797979" stroke-width="0"/>
      <polygon id="cf" data-name="2" points="57.534 14.338 57.534 18.19 52.733 19.991 52.733 16.138 57.534 14.338" fill="#e1e1e1" stroke-width="0"/>
      <path id="cg" data-name="1" d="m48.599,14.511l4.134,1.627,4.801-1.799-4.112-1.627-4.823,1.8Z" fill="#f1f0f0" stroke-width="0"/>
    </g>
    <g>
      <g id="ch" data-name="4">
        <polygon points="20.597 22.578 25.419 20.779 29.532 22.406 29.532 26.275 24.731 28.079 20.625 26.473 20.625 22.59 20.597 22.578" fill="#323232" stroke-width="0"/>
        <path d="m24.581,28.344l-4.107-1.606c-.123-.048-.202-.151-.202-.264v-3.781c-.019-.037-.029-.078-.028-.12.003-.113.084-.214.208-.261l4.823-1.799c.094-.035.202-.034.295.003l4.112,1.627c.122.048.201.151.201.264v3.869c0,.115-.081.219-.207.266l-4.801,1.804c-.046.017-.095.026-.145.026-.051,0-.102-.009-.15-.028Zm4.599-5.753l-3.765-1.489-4.439,1.656v3.531s3.758,1.47,3.758,1.47l4.446-1.671v-3.496Z" stroke="#000" stroke-miterlimit="10" stroke-width=".25"/>
      </g>
      <polygon id="ci" data-name="3" points="20.625 22.578 20.625 26.473 24.731 28.079 24.731 24.213 20.625 22.578" fill="#797979" stroke-width="0"/>
      <polygon id="cj" data-name="2" points="29.532 22.406 29.532 26.275 24.731 28.079 24.731 24.213 29.532 22.406" fill="#e1e1e1" stroke-width="0"/>
      <path id="ck" data-name="1" d="m20.597,22.578l4.134,1.635,4.801-1.807-4.112-1.627-4.823,1.799Z" fill="#f1f0f0" stroke-width="0"/>
    </g>
    <g>
      <g id="cl" data-name="4">
        <polygon points="20.597 18.101 25.419 16.302 29.532 17.929 29.532 21.781 24.731 23.585 20.625 21.978 20.625 18.112 20.597 18.101" fill="#323232" stroke-width="0"/>
        <path d="m24.581,23.849l-4.107-1.606c-.123-.048-.202-.151-.202-.264v-3.764c-.019-.037-.028-.077-.028-.118.002-.114.083-.216.208-.263l4.823-1.799c.094-.035.202-.034.295.003l4.112,1.627c.122.049.201.151.201.264v3.852c0,.115-.081.219-.207.266l-4.801,1.803c-.046.017-.095.026-.145.026-.051,0-.102-.009-.15-.028Zm4.599-5.736l-3.765-1.489-4.439,1.656v3.513s3.758,1.47,3.758,1.47l4.446-1.67v-3.479Z" stroke="#000" stroke-miterlimit="10" stroke-width=".25"/>
      </g>
      <polygon id="cm" data-name="3" points="20.625 18.101 20.625 21.978 24.731 23.585 24.731 19.729 20.625 18.101" fill="#797979" stroke-width="0"/>
      <polygon id="cn" data-name="2" points="29.532 17.929 29.532 21.781 24.731 23.585 24.731 19.729 29.532 17.929" fill="#e1e1e1" stroke-width="0"/>
      <path id="co" data-name="1" d="m20.597,18.101l4.134,1.628,4.801-1.8-4.112-1.627-4.823,1.799Z" fill="#f1f0f0" stroke-width="0"/>
    </g>
    <g>
      <g id="cp" data-name="4">
        <polygon points="20.597 13.655 25.419 11.856 29.532 13.483 29.532 17.335 24.731 19.135 20.625 17.532 20.625 13.666 20.597 13.655" fill="#323232" stroke-width="0"/>
        <path d="m24.582,19.4l-4.107-1.604c-.123-.048-.202-.151-.202-.265v-3.763c-.019-.036-.028-.076-.028-.117.002-.114.083-.217.208-.263l4.823-1.8c.094-.035.202-.034.295.003l4.112,1.627c.122.049.2.151.2.264v3.852c0,.115-.081.219-.207.266l-4.801,1.801c-.046.017-.095.026-.145.026-.051,0-.102-.009-.15-.028Zm4.598-5.733l-3.765-1.49-4.439,1.656v3.512s3.758,1.468,3.758,1.468l4.446-1.668v-3.478Z" stroke="#000" stroke-miterlimit="10" stroke-width=".25"/>
      </g>
      <polygon id="cq" data-name="3" points="20.625 13.655 20.625 17.532 24.731 19.135 24.731 15.282 20.625 13.655" fill="#797979" stroke-width="0"/>
      <polygon id="cr" data-name="2" points="29.532 13.483 29.532 17.335 24.731 19.135 24.731 15.282 29.532 13.483" fill="#e1e1e1" stroke-width="0"/>
      <path id="cs" data-name="1" d="m20.597,13.655l4.134,1.627,4.801-1.799-4.112-1.627-4.823,1.8Z" fill="#f1f0f0" stroke-width="0"/>
    </g>
    <g>
      <g id="ct" data-name="4">
        <polygon points="20.597 9.175 25.419 7.375 29.532 9.002 29.532 12.854 24.731 14.655 20.625 13.051 20.625 9.186 20.597 9.175" fill="#323232" stroke-width="0"/>
        <path d="m24.582,14.92l-4.107-1.604c-.123-.048-.202-.151-.202-.265v-3.763c-.019-.036-.028-.076-.028-.117.002-.114.083-.217.208-.263l4.823-1.8c.094-.035.202-.034.295.003l4.112,1.627c.122.048.2.151.2.264v3.852c0,.115-.081.219-.207.266l-4.801,1.801c-.046.017-.095.026-.145.026-.051,0-.102-.009-.15-.028Zm4.598-5.733l-3.765-1.49-4.439,1.656v3.512s3.758,1.468,3.758,1.468l4.446-1.668v-3.478Z" stroke="#000" stroke-miterlimit="10" stroke-width=".25"/>
      </g>
      <polygon id="cu" data-name="3" points="20.625 9.175 20.625 13.051 24.731 14.655 24.731 10.802 20.625 9.175" fill="#797979" stroke-width="0"/>
      <polygon id="cv" data-name="2" points="29.532 9.002 29.532 12.854 24.731 14.655 24.731 10.802 29.532 9.002" fill="#e1e1e1" stroke-width="0"/>
      <path id="cw" data-name="1" d="m20.597,9.175l4.134,1.627,4.801-1.799-4.112-1.627-4.823,1.8Z" fill="#f1f0f0" stroke-width="0"/>
    </g>
    <g>
      <g id="cx" data-name="4">
        <polygon points="25.525 24.69 30.347 22.891 34.46 24.518 34.46 28.387 29.659 30.191 25.553 28.585 25.553 24.702 25.525 24.69" fill="#323232" stroke-width="0"/>
        <path d="m29.509,30.456l-4.107-1.606c-.123-.048-.202-.151-.202-.264v-3.781c-.019-.037-.029-.078-.028-.12.003-.113.084-.214.208-.261l4.823-1.799c.094-.035.202-.034.295.003l4.112,1.627c.122.048.201.151.201.264v3.869c0,.115-.081.219-.207.266l-4.801,1.804c-.046.017-.095.026-.145.026-.051,0-.102-.009-.15-.028Zm4.599-5.753l-3.765-1.489-4.439,1.656v3.531s3.758,1.47,3.758,1.47l4.446-1.671v-3.496Z" stroke="#000" stroke-miterlimit="10" stroke-width=".25"/>
      </g>
      <polygon id="cy" data-name="3" points="25.553 24.69 25.553 28.585 29.659 30.191 29.659 26.325 25.553 24.69" fill="#797979" stroke-width="0"/>
      <polygon id="cz" data-name="2" points="34.46 24.518 34.46 28.387 29.659 30.191 29.659 26.325 34.46 24.518" fill="#e1e1e1" stroke-width="0"/>
      <path id="da" data-name="1" d="m25.525,24.69l4.134,1.635,4.801-1.807-4.112-1.627-4.823,1.799Z" fill="#f1f0f0" stroke-width="0"/>
    </g>
    <g>
      <g id="db" data-name="4">
        <polygon points="25.525 20.213 30.347 18.414 34.46 20.041 34.46 23.893 29.659 25.697 25.553 24.09 25.553 20.224 25.525 20.213" fill="#323232" stroke-width="0"/>
        <path d="m29.509,25.961l-4.107-1.606c-.123-.048-.202-.151-.202-.264v-3.764c-.019-.037-.028-.077-.028-.118.002-.114.083-.216.208-.263l4.823-1.799c.094-.035.202-.034.295.003l4.112,1.627c.122.049.201.151.201.264v3.852c0,.115-.081.219-.207.266l-4.801,1.803c-.046.017-.095.026-.145.026-.051,0-.102-.009-.15-.028Zm4.599-5.736l-3.765-1.489-4.439,1.656v3.513s3.758,1.47,3.758,1.47l4.446-1.67v-3.479Z" stroke="#000" stroke-miterlimit="10" stroke-width=".25"/>
      </g>
      <polygon id="dc" data-name="3" points="25.553 20.213 25.553 24.09 29.659 25.697 29.659 21.841 25.553 20.213" fill="#797979" stroke-width="0"/>
      <polygon id="dd" data-name="2" points="34.46 20.041 34.46 23.893 29.659 25.697 29.659 21.841 34.46 20.041" fill="#e1e1e1" stroke-width="0"/>
      <path id="de" data-name="1" d="m25.525,20.213l4.134,1.628,4.801-1.8-4.112-1.627-4.823,1.799Z" fill="#f1f0f0" stroke-width="0"/>
    </g>
    <g>
      <g id="df" data-name="4">
        <polygon points="25.525 15.767 30.347 13.968 34.46 15.595 34.46 19.447 29.659 21.247 25.553 19.644 25.553 15.778 25.525 15.767" fill="#323232" stroke-width="0"/>
        <path d="m29.51,21.512l-4.107-1.604c-.123-.048-.202-.151-.202-.265v-3.763c-.019-.036-.028-.076-.028-.117.002-.114.083-.217.208-.263l4.823-1.8c.094-.035.202-.034.295.003l4.112,1.627c.122.049.2.151.2.264v3.852c0,.115-.081.219-.207.266l-4.801,1.801c-.046.017-.095.026-.145.026-.051,0-.102-.009-.15-.028Zm4.598-5.733l-3.765-1.49-4.439,1.656v3.512s3.758,1.468,3.758,1.468l4.446-1.668v-3.478Z" stroke="#000" stroke-miterlimit="10" stroke-width=".25"/>
      </g>
      <polygon id="dg" data-name="3" points="25.553 15.767 25.553 19.644 29.659 21.247 29.659 17.394 25.553 15.767" fill="#797979" stroke-width="0"/>
      <polygon id="dh" data-name="2" points="34.46 15.595 34.46 19.447 29.659 21.247 29.659 17.394 34.46 15.595" fill="#e1e1e1" stroke-width="0"/>
      <path id="di" data-name="1" d="m25.525,15.767l4.134,1.627,4.801-1.799-4.112-1.627-4.823,1.8Z" fill="#f1f0f0" stroke-width="0"/>
    </g>
    <g>
      <g id="dj" data-name="4">
        <polygon points="25.525 11.287 30.347 9.487 34.46 11.114 34.46 14.966 29.659 16.767 25.553 15.163 25.553 11.298 25.525 11.287" fill="#323232" stroke-width="0"/>
        <path d="m29.51,17.032l-4.107-1.604c-.123-.048-.202-.151-.202-.265v-3.763c-.019-.036-.028-.076-.028-.117.002-.114.083-.217.208-.263l4.823-1.8c.094-.035.202-.034.295.003l4.112,1.627c.122.048.2.151.2.264v3.852c0,.115-.081.219-.207.266l-4.801,1.801c-.046.017-.095.026-.145.026-.051,0-.102-.009-.15-.028Zm4.598-5.733l-3.765-1.49-4.439,1.656v3.512s3.758,1.468,3.758,1.468l4.446-1.668v-3.478Z" stroke="#000" stroke-miterlimit="10" stroke-width=".25"/>
      </g>
      <polygon id="dk" data-name="3" points="25.553 11.287 25.553 15.163 29.659 16.767 29.659 12.914 25.553 11.287" fill="#797979" stroke-width="0"/>
      <polygon id="dl" data-name="2" points="34.46 11.114 34.46 14.966 29.659 16.767 29.659 12.914 34.46 11.114" fill="#e1e1e1" stroke-width="0"/>
      <path id="dm" data-name="1" d="m25.525,11.287l4.134,1.627,4.801-1.799-4.112-1.627-4.823,1.8Z" fill="#f1f0f0" stroke-width="0"/>
    </g>
    <g>
      <g id="dn" data-name="4">
        <polygon points="30.671 26.802 35.493 25.003 39.606 26.63 39.606 30.499 34.805 32.303 30.699 30.697 30.699 26.814 30.671 26.802" fill="#323232" stroke-width="0"/>
        <path d="m34.655,32.568l-4.107-1.606c-.123-.048-.202-.151-.202-.264v-3.781c-.019-.037-.029-.078-.028-.12.003-.113.084-.214.208-.261l4.823-1.799c.094-.035.202-.034.295.003l4.112,1.627c.122.048.201.151.201.264v3.869c0,.115-.081.219-.207.266l-4.801,1.804c-.046.017-.095.026-.145.026-.051,0-.102-.009-.15-.028Zm4.599-5.753l-3.765-1.489-4.439,1.656v3.531s3.758,1.47,3.758,1.47l4.446-1.671v-3.496Z" stroke="#000" stroke-miterlimit="10" stroke-width=".25"/>
      </g>
      <polygon id="do" data-name="3" points="30.699 26.802 30.699 30.697 34.805 32.303 34.805 28.437 30.699 26.802" fill="#797979" stroke-width="0"/>
      <polygon id="dp" data-name="2" points="39.606 26.63 39.606 30.499 34.805 32.303 34.805 28.437 39.606 26.63" fill="#e1e1e1" stroke-width="0"/>
      <path id="dq" data-name="1" d="m30.671,26.802l4.134,1.635,4.801-1.807-4.112-1.627-4.823,1.799Z" fill="#f1f0f0" stroke-width="0"/>
    </g>
    <g>
      <g id="dr" data-name="4">
        <polygon points="30.671 22.325 35.493 20.526 39.606 22.153 39.606 26.005 34.805 27.809 30.699 26.202 30.699 22.336 30.671 22.325" fill="#323232" stroke-width="0"/>
        <path d="m34.655,28.073l-4.107-1.606c-.123-.048-.202-.151-.202-.264v-3.764c-.019-.037-.028-.077-.028-.118.002-.114.083-.216.208-.263l4.823-1.799c.094-.035.202-.034.295.003l4.112,1.627c.122.049.201.151.201.264v3.852c0,.115-.081.219-.207.266l-4.801,1.803c-.046.017-.095.026-.145.026-.051,0-.102-.009-.15-.028Zm4.599-5.736l-3.765-1.489-4.439,1.656v3.513s3.758,1.47,3.758,1.47l4.446-1.67v-3.479Z" stroke="#000" stroke-miterlimit="10" stroke-width=".25"/>
      </g>
      <polygon id="ds" data-name="3" points="30.699 22.325 30.699 26.202 34.805 27.809 34.805 23.953 30.699 22.325" fill="#797979" stroke-width="0"/>
      <polygon id="dt" data-name="2" points="39.606 22.153 39.606 26.005 34.805 27.809 34.805 23.953 39.606 22.153" fill="#e1e1e1" stroke-width="0"/>
      <path id="du" data-name="1" d="m30.671,22.325l4.134,1.628,4.801-1.8-4.112-1.627-4.823,1.799Z" fill="#f1f0f0" stroke-width="0"/>
    </g>
    <g>
      <g id="dv" data-name="4">
        <polygon points="30.671 17.879 35.493 16.08 39.606 17.707 39.606 21.559 34.805 23.359 30.699 21.756 30.699 17.89 30.671 17.879" fill="#323232" stroke-width="0"/>
        <path d="m34.656,23.624l-4.107-1.604c-.123-.048-.202-.151-.202-.265v-3.763c-.019-.036-.028-.076-.028-.117.002-.114.083-.217.208-.263l4.823-1.8c.094-.035.202-.034.295.003l4.112,1.627c.122.049.2.151.2.264v3.852c0,.115-.081.219-.207.266l-4.801,1.801c-.046.017-.095.026-.145.026-.051,0-.102-.009-.149-.028Zm4.598-5.733l-3.765-1.49-4.439,1.656v3.512s3.758,1.468,3.758,1.468l4.446-1.668v-3.478Z" stroke="#000" stroke-miterlimit="10" stroke-width=".25"/>
      </g>
      <polygon id="dw" data-name="3" points="30.699 17.879 30.699 21.756 34.805 23.359 34.805 19.506 30.699 17.879" fill="#797979" stroke-width="0"/>
      <polygon id="dx" data-name="2" points="39.606 17.707 39.606 21.559 34.805 23.359 34.805 19.506 39.606 17.707" fill="#e1e1e1" stroke-width="0"/>
      <path id="dy" data-name="1" d="m30.671,17.879l4.134,1.627,4.801-1.799-4.112-1.627-4.823,1.8Z" fill="#f1f0f0" stroke-width="0"/>
    </g>
    <g>
      <g id="dz" data-name="4">
        <polygon points="30.671 13.399 35.493 11.599 39.606 13.226 39.606 17.078 34.805 18.879 30.699 17.275 30.699 13.41 30.671 13.399" fill="#323232" stroke-width="0"/>
        <path d="m34.656,19.144l-4.107-1.604c-.123-.048-.202-.151-.202-.265v-3.763c-.019-.036-.028-.076-.028-.117.002-.114.083-.217.208-.263l4.823-1.8c.094-.035.202-.034.295.003l4.112,1.627c.122.048.2.151.2.264v3.852c0,.115-.081.219-.207.266l-4.801,1.801c-.046.017-.095.026-.145.026-.051,0-.102-.009-.149-.028Zm4.598-5.733l-3.765-1.49-4.439,1.656v3.512s3.758,1.468,3.758,1.468l4.446-1.668v-3.478Z" stroke="#000" stroke-miterlimit="10" stroke-width=".25"/>
      </g>
      <polygon id="ea" data-name="3" points="30.699 13.399 30.699 17.275 34.805 18.879 34.805 15.026 30.699 13.399" fill="#797979" stroke-width="0"/>
      <polygon id="eb" data-name="2" points="39.606 13.226 39.606 17.078 34.805 18.879 34.805 15.026 39.606 13.226" fill="#e1e1e1" stroke-width="0"/>
      <path id="ec" data-name="1" d="m30.671,13.399l4.134,1.627,4.801-1.799-4.112-1.627-4.823,1.8Z" fill="#f1f0f0" stroke-width="0"/>
    </g>
    <g>
      <g id="ed" data-name="4">
        <polygon points="35.599 28.914 40.421 27.115 44.534 28.742 44.534 32.611 39.733 34.415 35.627 32.809 35.627 28.926 35.599 28.914" fill="#323232" stroke-width="0"/>
        <path d="m39.583,34.68l-4.107-1.606c-.123-.048-.202-.151-.202-.264v-3.781c-.019-.037-.029-.078-.028-.12.003-.113.084-.214.208-.261l4.823-1.799c.094-.035.202-.034.295.003l4.112,1.627c.122.048.201.151.201.264v3.869c0,.115-.081.219-.207.266l-4.801,1.804c-.046.017-.095.026-.145.026-.051,0-.102-.009-.15-.028Zm4.599-5.753l-3.765-1.489-4.439,1.656v3.531s3.758,1.47,3.758,1.47l4.446-1.671v-3.496Z" stroke="#000" stroke-miterlimit="10" stroke-width=".25"/>
      </g>
      <polygon id="ee" data-name="3" points="35.627 28.914 35.627 32.809 39.733 34.415 39.733 30.549 35.627 28.914" fill="#797979" stroke-width="0"/>
      <polygon id="ef" data-name="2" points="44.534 28.742 44.534 32.611 39.733 34.415 39.733 30.549 44.534 28.742" fill="#e1e1e1" stroke-width="0"/>
      <path id="eg" data-name="1" d="m35.599,28.914l4.134,1.635,4.801-1.807-4.112-1.627-4.823,1.799Z" fill="#f1f0f0" stroke-width="0"/>
    </g>
    <g>
      <g id="eh" data-name="4">
        <polygon points="35.599 24.437 40.421 22.638 44.534 24.265 44.534 28.117 39.733 29.921 35.627 28.314 35.627 24.448 35.599 24.437" fill="#323232" stroke-width="0"/>
        <path d="m39.583,30.185l-4.107-1.606c-.123-.048-.202-.151-.202-.264v-3.764c-.019-.037-.028-.077-.028-.118.002-.114.083-.216.208-.263l4.823-1.799c.094-.035.202-.034.295.003l4.112,1.627c.122.049.201.151.201.264v3.852c0,.115-.081.219-.207.266l-4.801,1.803c-.046.017-.095.026-.145.026-.051,0-.102-.009-.15-.028Zm4.599-5.736l-3.765-1.489-4.439,1.656v3.513s3.758,1.47,3.758,1.47l4.446-1.67v-3.479Z" stroke="#000" stroke-miterlimit="10" stroke-width=".25"/>
      </g>
      <polygon id="ei" data-name="3" points="35.627 24.437 35.627 28.314 39.733 29.921 39.733 26.065 35.627 24.437" fill="#797979" stroke-width="0"/>
      <polygon id="ej" data-name="2" points="44.534 24.265 44.534 28.117 39.733 29.921 39.733 26.065 44.534 24.265" fill="#e1e1e1" stroke-width="0"/>
      <path id="ek" data-name="1" d="m35.599,24.437l4.134,1.628,4.801-1.8-4.112-1.627-4.823,1.799Z" fill="#f1f0f0" stroke-width="0"/>
    </g>
    <g>
      <g id="el" data-name="4">
        <polygon points="35.599 19.991 40.421 18.192 44.534 19.819 44.534 23.671 39.733 25.471 35.627 23.868 35.627 20.002 35.599 19.991" fill="#323232" stroke-width="0"/>
        <path d="m39.584,25.736l-4.107-1.604c-.123-.048-.202-.151-.202-.265v-3.763c-.019-.036-.028-.076-.028-.117.002-.114.083-.217.208-.263l4.823-1.8c.094-.035.202-.034.295.003l4.112,1.627c.122.049.2.151.2.264v3.852c0,.115-.081.219-.207.266l-4.801,1.801c-.046.017-.095.026-.145.026-.051,0-.102-.009-.149-.028Zm4.598-5.733l-3.765-1.49-4.439,1.656v3.512s3.758,1.468,3.758,1.468l4.446-1.668v-3.478Z" stroke="#000" stroke-miterlimit="10" stroke-width=".25"/>
      </g>
      <polygon id="em" data-name="3" points="35.627 19.991 35.627 23.868 39.733 25.471 39.733 21.618 35.627 19.991" fill="#797979" stroke-width="0"/>
      <polygon id="en" data-name="2" points="44.534 19.819 44.534 23.671 39.733 25.471 39.733 21.618 44.534 19.819" fill="#e1e1e1" stroke-width="0"/>
      <path id="eo" data-name="1" d="m35.599,19.991l4.134,1.627,4.801-1.799-4.112-1.627-4.823,1.8Z" fill="#f1f0f0" stroke-width="0"/>
    </g>
    <g>
      <g id="ep" data-name="4">
        <polygon points="35.599 15.511 40.421 13.711 44.534 15.338 44.534 19.19 39.733 20.991 35.627 19.387 35.627 15.522 35.599 15.511" fill="#323232" stroke-width="0"/>
        <path d="m39.584,21.256l-4.107-1.604c-.123-.048-.202-.151-.202-.265v-3.763c-.019-.036-.028-.076-.028-.117.002-.114.083-.217.208-.263l4.823-1.8c.094-.035.202-.034.295.003l4.112,1.627c.122.048.2.151.2.264v3.852c0,.115-.081.219-.207.266l-4.801,1.801c-.046.017-.095.026-.145.026-.051,0-.102-.009-.149-.028Zm4.598-5.733l-3.765-1.49-4.439,1.656v3.512s3.758,1.468,3.758,1.468l4.446-1.668v-3.478Z" stroke="#000" stroke-miterlimit="10" stroke-width=".25"/>
      </g>
      <polygon id="eq" data-name="3" points="35.627 15.511 35.627 19.387 39.733 20.991 39.733 17.138 35.627 15.511" fill="#797979" stroke-width="0"/>
      <polygon id="er" data-name="2" points="44.534 15.338 44.534 19.19 39.733 20.991 39.733 17.138 44.534 15.338" fill="#e1e1e1" stroke-width="0"/>
      <path id="es" data-name="1" d="m35.599,15.511l4.134,1.627,4.801-1.799-4.112-1.627-4.823,1.8Z" fill="#f1f0f0" stroke-width="0"/>
    </g>
    <g>
      <g id="et" data-name="4">
        <polygon points="7.597 24.578 12.419 22.779 16.532 24.406 16.532 28.275 11.731 30.079 7.625 28.473 7.625 24.59 7.597 24.578" fill="#323232" stroke-width="0"/>
        <path d="m11.581,30.344l-4.107-1.606c-.123-.048-.202-.151-.202-.264v-3.781c-.019-.037-.029-.078-.028-.12.003-.113.084-.214.208-.261l4.823-1.799c.094-.035.202-.034.295.003l4.112,1.627c.122.048.201.151.201.264v3.869c0,.115-.081.219-.207.266l-4.801,1.804c-.046.017-.095.026-.145.026-.051,0-.102-.009-.15-.028Zm4.599-5.753l-3.765-1.489-4.439,1.656v3.531s3.758,1.47,3.758,1.47l4.446-1.671v-3.496Z" stroke="#000" stroke-miterlimit="10" stroke-width=".25"/>
      </g>
      <polygon id="eu" data-name="3" points="7.625 24.578 7.625 28.473 11.731 30.079 11.731 26.213 7.625 24.578" fill="#797979" stroke-width="0"/>
      <polygon id="ev" data-name="2" points="16.532 24.406 16.532 28.275 11.731 30.079 11.731 26.213 16.532 24.406" fill="#e1e1e1" stroke-width="0"/>
      <path id="ew" data-name="1" d="m7.597,24.578l4.134,1.635,4.801-1.807-4.112-1.627-4.823,1.799Z" fill="#f1f0f0" stroke-width="0"/>
    </g>
    <g>
      <g id="ex" data-name="4">
        <polygon points="7.597 20.101 12.419 18.302 16.532 19.929 16.532 23.781 11.731 25.585 7.625 23.978 7.625 20.112 7.597 20.101" fill="#323232" stroke-width="0"/>
        <path d="m11.581,25.849l-4.107-1.606c-.123-.048-.202-.151-.202-.264v-3.764c-.019-.037-.028-.077-.028-.118.002-.114.083-.216.208-.263l4.823-1.799c.094-.035.202-.034.295.003l4.112,1.627c.122.049.201.151.201.264v3.852c0,.115-.081.219-.207.266l-4.801,1.803c-.046.017-.095.026-.145.026-.051,0-.102-.009-.15-.028Zm4.599-5.736l-3.765-1.489-4.439,1.656v3.513s3.758,1.47,3.758,1.47l4.446-1.67v-3.479Z" stroke="#000" stroke-miterlimit="10" stroke-width=".25"/>
      </g>
      <polygon id="ey" data-name="3" points="7.625 20.101 7.625 23.978 11.731 25.585 11.731 21.729 7.625 20.101" fill="#797979" stroke-width="0"/>
      <polygon id="ez" data-name="2" points="16.532 19.929 16.532 23.781 11.731 25.585 11.731 21.729 16.532 19.929" fill="#e1e1e1" stroke-width="0"/>
      <path id="fa" data-name="1" d="m7.597,20.101l4.134,1.628,4.801-1.8-4.112-1.627-4.823,1.799Z" fill="#f1f0f0" stroke-width="0"/>
    </g>
    <g>
      <g id="fb" data-name="4">
        <polygon points="7.597 15.655 12.419 13.856 16.532 15.483 16.532 19.335 11.731 21.135 7.625 19.532 7.625 15.666 7.597 15.655" fill="#323232" stroke-width="0"/>
        <path d="m11.582,21.4l-4.107-1.604c-.123-.048-.202-.151-.202-.265v-3.763c-.019-.036-.028-.076-.028-.117.002-.114.083-.217.208-.263l4.823-1.8c.094-.035.202-.034.295.003l4.112,1.627c.122.049.2.151.2.264v3.852c0,.115-.081.219-.207.266l-4.801,1.801c-.046.017-.095.026-.145.026-.051,0-.102-.009-.15-.028Zm4.598-5.733l-3.765-1.49-4.439,1.656v3.512s3.758,1.468,3.758,1.468l4.446-1.668v-3.478Z" stroke="#000" stroke-miterlimit="10" stroke-width=".25"/>
      </g>
      <polygon id="fc" data-name="3" points="7.625 15.655 7.625 19.532 11.731 21.135 11.731 17.282 7.625 15.655" fill="#797979" stroke-width="0"/>
      <polygon id="fd" data-name="2" points="16.532 15.483 16.532 19.335 11.731 21.135 11.731 17.282 16.532 15.483" fill="#e1e1e1" stroke-width="0"/>
      <path id="fe" data-name="1" d="m7.597,15.655l4.134,1.627,4.801-1.799-4.112-1.627-4.823,1.8Z" fill="#f1f0f0" stroke-width="0"/>
    </g>
    <g>
      <g id="ff" data-name="4">
        <polygon points="7.597 11.175 12.419 9.375 16.532 11.002 16.532 14.854 11.731 16.655 7.625 15.051 7.625 11.186 7.597 11.175" fill="#323232" stroke-width="0"/>
        <path d="m11.582,16.92l-4.107-1.604c-.123-.048-.202-.151-.202-.265v-3.763c-.019-.036-.028-.076-.028-.117.002-.114.083-.217.208-.263l4.823-1.8c.094-.035.202-.034.295.003l4.112,1.627c.122.048.2.151.2.264v3.852c0,.115-.081.219-.207.266l-4.801,1.801c-.046.017-.095.026-.145.026-.051,0-.102-.009-.15-.028Zm4.598-5.733l-3.765-1.49-4.439,1.656v3.512s3.758,1.468,3.758,1.468l4.446-1.668v-3.478Z" stroke="#000" stroke-miterlimit="10" stroke-width=".25"/>
      </g>
      <polygon id="fg" data-name="3" points="7.625 11.175 7.625 15.051 11.731 16.655 11.731 12.802 7.625 11.175" fill="#797979" stroke-width="0"/>
      <polygon id="fh" data-name="2" points="16.532 11.002 16.532 14.854 11.731 16.655 11.731 12.802 16.532 11.002" fill="#e1e1e1" stroke-width="0"/>
      <path id="fi" data-name="1" d="m7.597,11.175l4.134,1.627,4.801-1.799-4.112-1.627-4.823,1.8Z" fill="#f1f0f0" stroke-width="0"/>
    </g>
    <g>
      <g id="fj" data-name="4">
        <polygon points="12.525 26.69 17.347 24.891 21.46 26.518 21.46 30.387 16.659 32.191 12.553 30.585 12.553 26.702 12.525 26.69" fill="#323232" stroke-width="0"/>
        <path d="m16.509,32.456l-4.107-1.606c-.123-.048-.202-.151-.202-.264v-3.781c-.019-.037-.029-.078-.028-.12.003-.113.084-.214.208-.261l4.823-1.799c.094-.035.202-.034.295.003l4.112,1.627c.122.048.201.151.201.264v3.869c0,.115-.081.219-.207.266l-4.801,1.804c-.046.017-.095.026-.145.026-.051,0-.102-.009-.15-.028Zm4.599-5.753l-3.765-1.489-4.439,1.656v3.531s3.758,1.47,3.758,1.47l4.446-1.671v-3.496Z" stroke="#000" stroke-miterlimit="10" stroke-width=".25"/>
      </g>
      <polygon id="fk" data-name="3" points="12.553 26.69 12.553 30.585 16.659 32.191 16.659 28.325 12.553 26.69" fill="#797979" stroke-width="0"/>
      <polygon id="fl" data-name="2" points="21.46 26.518 21.46 30.387 16.659 32.191 16.659 28.325 21.46 26.518" fill="#e1e1e1" stroke-width="0"/>
      <path id="fm" data-name="1" d="m12.525,26.69l4.134,1.635,4.801-1.807-4.112-1.627-4.823,1.799Z" fill="#f1f0f0" stroke-width="0"/>
    </g>
    <g>
      <g id="fn" data-name="4">
        <polygon points="12.525 22.213 17.347 20.414 21.46 22.041 21.46 25.893 16.659 27.697 12.553 26.09 12.553 22.224 12.525 22.213" fill="#323232" stroke-width="0"/>
        <path d="m16.509,27.961l-4.107-1.606c-.123-.048-.202-.151-.202-.264v-3.764c-.019-.037-.028-.077-.028-.118.002-.114.083-.216.208-.263l4.823-1.799c.094-.035.202-.034.295.003l4.112,1.627c.122.049.201.151.201.264v3.852c0,.115-.081.219-.207.266l-4.801,1.803c-.046.017-.095.026-.145.026-.051,0-.102-.009-.15-.028Zm4.599-5.736l-3.765-1.489-4.439,1.656v3.513s3.758,1.47,3.758,1.47l4.446-1.67v-3.479Z" stroke="#000" stroke-miterlimit="10" stroke-width=".25"/>
      </g>
      <polygon id="fo" data-name="3" points="12.553 22.213 12.553 26.09 16.659 27.697 16.659 23.841 12.553 22.213" fill="#797979" stroke-width="0"/>
      <polygon id="fp" data-name="2" points="21.46 22.041 21.46 25.893 16.659 27.697 16.659 23.841 21.46 22.041" fill="#e1e1e1" stroke-width="0"/>
      <path id="fq" data-name="1" d="m12.525,22.213l4.134,1.628,4.801-1.8-4.112-1.627-4.823,1.799Z" fill="#f1f0f0" stroke-width="0"/>
    </g>
    <g>
      <g id="fr" data-name="4">
        <polygon points="12.525 17.767 17.347 15.968 21.46 17.595 21.46 21.447 16.659 23.247 12.553 21.644 12.553 17.778 12.525 17.767" fill="#323232" stroke-width="0"/>
        <path d="m16.51,23.512l-4.107-1.604c-.123-.048-.202-.151-.202-.265v-3.763c-.019-.036-.028-.076-.028-.117.002-.114.083-.217.208-.263l4.823-1.8c.094-.035.202-.034.295.003l4.112,1.627c.122.049.2.151.2.264v3.852c0,.115-.081.219-.207.266l-4.801,1.801c-.046.017-.095.026-.145.026-.051,0-.102-.009-.15-.028Zm4.598-5.733l-3.765-1.49-4.439,1.656v3.512s3.758,1.468,3.758,1.468l4.446-1.668v-3.478Z" stroke="#000" stroke-miterlimit="10" stroke-width=".25"/>
      </g>
      <polygon id="fs" data-name="3" points="12.553 17.767 12.553 21.644 16.659 23.247 16.659 19.394 12.553 17.767" fill="#797979" stroke-width="0"/>
      <polygon id="ft" data-name="2" points="21.46 17.595 21.46 21.447 16.659 23.247 16.659 19.394 21.46 17.595" fill="#e1e1e1" stroke-width="0"/>
      <path id="fu" data-name="1" d="m12.525,17.767l4.134,1.627,4.801-1.799-4.112-1.627-4.823,1.8Z" fill="#f1f0f0" stroke-width="0"/>
    </g>
    <g>
      <g id="fv" data-name="4">
        <polygon points="12.525 13.287 17.347 11.487 21.46 13.114 21.46 16.966 16.659 18.767 12.553 17.163 12.553 13.298 12.525 13.287" fill="#323232" stroke-width="0"/>
        <path d="m16.51,19.032l-4.107-1.604c-.123-.048-.202-.151-.202-.265v-3.763c-.019-.036-.028-.076-.028-.117.002-.114.083-.217.208-.263l4.823-1.8c.094-.035.202-.034.295.003l4.112,1.627c.122.048.2.151.2.264v3.852c0,.115-.081.219-.207.266l-4.801,1.801c-.046.017-.095.026-.145.026-.051,0-.102-.009-.15-.028Zm4.598-5.733l-3.765-1.49-4.439,1.656v3.512s3.758,1.468,3.758,1.468l4.446-1.668v-3.478Z" stroke="#000" stroke-miterlimit="10" stroke-width=".25"/>
      </g>
      <polygon id="fw" data-name="3" points="12.553 13.287 12.553 17.163 16.659 18.767 16.659 14.914 12.553 13.287" fill="#797979" stroke-width="0"/>
      <polygon id="fx" data-name="2" points="21.46 13.114 21.46 16.966 16.659 18.767 16.659 14.914 21.46 13.114" fill="#e1e1e1" stroke-width="0"/>
      <path id="fy" data-name="1" d="m12.525,13.287l4.134,1.627,4.801-1.799-4.112-1.627-4.823,1.8Z" fill="#f1f0f0" stroke-width="0"/>
    </g>
    <g>
      <g id="fz" data-name="4">
        <polygon points="17.671 28.802 22.493 27.003 26.606 28.63 26.606 32.499 21.805 34.303 17.699 32.697 17.699 28.814 17.671 28.802" fill="#323232" stroke-width="0"/>
        <path d="m21.655,34.568l-4.107-1.606c-.123-.048-.202-.151-.202-.264v-3.781c-.019-.037-.029-.078-.028-.12.003-.113.084-.214.208-.261l4.823-1.799c.094-.035.202-.034.295.003l4.112,1.627c.122.048.201.151.201.264v3.869c0,.115-.081.219-.207.266l-4.801,1.804c-.046.017-.095.026-.145.026-.051,0-.102-.009-.15-.028Zm4.599-5.753l-3.765-1.489-4.439,1.656v3.531s3.758,1.47,3.758,1.47l4.446-1.671v-3.496Z" stroke="#000" stroke-miterlimit="10" stroke-width=".25"/>
      </g>
      <polygon id="ga" data-name="3" points="17.699 28.802 17.699 32.697 21.805 34.303 21.805 30.437 17.699 28.802" fill="#797979" stroke-width="0"/>
      <polygon id="gb" data-name="2" points="26.606 28.63 26.606 32.499 21.805 34.303 21.805 30.437 26.606 28.63" fill="#e1e1e1" stroke-width="0"/>
      <path id="gc" data-name="1" d="m17.671,28.802l4.134,1.635,4.801-1.807-4.112-1.627-4.823,1.799Z" fill="#f1f0f0" stroke-width="0"/>
    </g>
    <g>
      <g id="gd" data-name="4">
        <polygon points="17.671 24.325 22.493 22.526 26.606 24.153 26.606 28.005 21.805 29.809 17.699 28.202 17.699 24.336 17.671 24.325" fill="#323232" stroke-width="0"/>
        <path d="m21.655,30.073l-4.107-1.606c-.123-.048-.202-.151-.202-.264v-3.764c-.019-.037-.028-.077-.028-.118.002-.114.083-.216.208-.263l4.823-1.799c.094-.035.202-.034.295.003l4.112,1.627c.122.049.201.151.201.264v3.852c0,.115-.081.219-.207.266l-4.801,1.803c-.046.017-.095.026-.145.026-.051,0-.102-.009-.15-.028Zm4.599-5.736l-3.765-1.489-4.439,1.656v3.513s3.758,1.47,3.758,1.47l4.446-1.67v-3.479Z" stroke="#000" stroke-miterlimit="10" stroke-width=".25"/>
      </g>
      <polygon id="ge" data-name="3" points="17.699 24.325 17.699 28.202 21.805 29.809 21.805 25.953 17.699 24.325" fill="#797979" stroke-width="0"/>
      <polygon id="gf" data-name="2" points="26.606 24.153 26.606 28.005 21.805 29.809 21.805 25.953 26.606 24.153" fill="#e1e1e1" stroke-width="0"/>
      <path id="gg" data-name="1" d="m17.671,24.325l4.134,1.628,4.801-1.8-4.112-1.627-4.823,1.799Z" fill="#f1f0f0" stroke-width="0"/>
    </g>
    <g>
      <g id="gh" data-name="4">
        <polygon points="17.671 19.879 22.493 18.08 26.606 19.707 26.606 23.559 21.805 25.359 17.699 23.756 17.699 19.89 17.671 19.879" fill="#323232" stroke-width="0"/>
        <path d="m21.656,25.624l-4.107-1.604c-.123-.048-.202-.151-.202-.265v-3.763c-.019-.036-.028-.076-.028-.117.002-.114.083-.217.208-.263l4.823-1.8c.094-.035.202-.034.295.003l4.112,1.627c.122.049.2.151.2.264v3.852c0,.115-.081.219-.207.266l-4.801,1.801c-.046.017-.095.026-.145.026-.051,0-.102-.009-.149-.028Zm4.598-5.733l-3.765-1.49-4.439,1.656v3.512s3.758,1.468,3.758,1.468l4.446-1.668v-3.478Z" stroke="#000" stroke-miterlimit="10" stroke-width=".25"/>
      </g>
      <polygon id="gi" data-name="3" points="17.699 19.879 17.699 23.756 21.805 25.359 21.805 21.506 17.699 19.879" fill="#797979" stroke-width="0"/>
      <polygon id="gj" data-name="2" points="26.606 19.707 26.606 23.559 21.805 25.359 21.805 21.506 26.606 19.707" fill="#e1e1e1" stroke-width="0"/>
      <path id="gk" data-name="1" d="m17.671,19.879l4.134,1.627,4.801-1.799-4.112-1.627-4.823,1.8Z" fill="#f1f0f0" stroke-width="0"/>
    </g>
    <g>
      <g id="gl" data-name="4">
        <polygon points="17.671 15.399 22.493 13.599 26.606 15.226 26.606 19.078 21.805 20.879 17.699 19.275 17.699 15.41 17.671 15.399" fill="#323232" stroke-width="0"/>
        <path d="m21.656,21.144l-4.107-1.604c-.123-.048-.202-.151-.202-.265v-3.763c-.019-.036-.028-.076-.028-.117.002-.114.083-.217.208-.263l4.823-1.8c.094-.035.202-.034.295.003l4.112,1.627c.122.048.2.151.2.264v3.852c0,.115-.081.219-.207.266l-4.801,1.801c-.046.017-.095.026-.145.026-.051,0-.102-.009-.149-.028Zm4.598-5.733l-3.765-1.49-4.439,1.656v3.512s3.758,1.468,3.758,1.468l4.446-1.668v-3.478Z" stroke="#000" stroke-miterlimit="10" stroke-width=".25"/>
      </g>
      <polygon id="gm" data-name="3" points="17.699 15.399 17.699 19.275 21.805 20.879 21.805 17.026 17.699 15.399" fill="#797979" stroke-width="0"/>
      <polygon id="gn" data-name="2" points="26.606 15.226 26.606 19.078 21.805 20.879 21.805 17.026 26.606 15.226" fill="#e1e1e1" stroke-width="0"/>
      <path id="go" data-name="1" d="m17.671,15.399l4.134,1.627,4.801-1.799-4.112-1.627-4.823,1.8Z" fill="#f1f0f0" stroke-width="0"/>
    </g>
    <g>
      <g id="gp" data-name="4">
        <polygon points="22.599 30.914 27.421 29.115 31.534 30.742 31.534 34.611 26.733 36.415 22.627 34.809 22.627 30.926 22.599 30.914" fill="#323232" stroke-width="0"/>
        <path d="m26.583,36.68l-4.107-1.606c-.123-.048-.202-.151-.202-.264v-3.781c-.019-.037-.029-.078-.028-.12.003-.113.084-.214.208-.261l4.823-1.799c.094-.035.202-.034.295.003l4.112,1.627c.122.048.201.151.201.264v3.869c0,.115-.081.219-.207.266l-4.801,1.804c-.046.017-.095.026-.145.026-.051,0-.102-.009-.15-.028Zm4.599-5.753l-3.765-1.489-4.439,1.656v3.531s3.758,1.47,3.758,1.47l4.446-1.671v-3.496Z" stroke="#000" stroke-miterlimit="10" stroke-width=".25"/>
      </g>
      <polygon id="gq" data-name="3" points="22.627 30.914 22.627 34.809 26.733 36.415 26.733 32.549 22.627 30.914" fill="#797979" stroke-width="0"/>
      <polygon id="gr" data-name="2" points="31.534 30.742 31.534 34.611 26.733 36.415 26.733 32.549 31.534 30.742" fill="#e1e1e1" stroke-width="0"/>
      <path id="gs" data-name="1" d="m22.599,30.914l4.134,1.635,4.801-1.807-4.112-1.627-4.823,1.799Z" fill="#f1f0f0" stroke-width="0"/>
    </g>
    <g>
      <g id="gt" data-name="4">
        <polygon points="22.599 26.437 27.421 24.638 31.534 26.265 31.534 30.117 26.733 31.921 22.627 30.314 22.627 26.448 22.599 26.437" fill="#323232" stroke-width="0"/>
        <path d="m26.583,32.185l-4.107-1.606c-.123-.048-.202-.151-.202-.264v-3.764c-.019-.037-.028-.077-.028-.118.002-.114.083-.216.208-.263l4.823-1.799c.094-.035.202-.034.295.003l4.112,1.627c.122.049.201.151.201.264v3.852c0,.115-.081.219-.207.266l-4.801,1.803c-.046.017-.095.026-.145.026-.051,0-.102-.009-.15-.028Zm4.599-5.736l-3.765-1.489-4.439,1.656v3.513s3.758,1.47,3.758,1.47l4.446-1.67v-3.479Z" stroke="#000" stroke-miterlimit="10" stroke-width=".25"/>
      </g>
      <polygon id="gu" data-name="3" points="22.627 26.437 22.627 30.314 26.733 31.921 26.733 28.065 22.627 26.437" fill="#797979" stroke-width="0"/>
      <polygon id="gv" data-name="2" points="31.534 26.265 31.534 30.117 26.733 31.921 26.733 28.065 31.534 26.265" fill="#e1e1e1" stroke-width="0"/>
      <path id="gw" data-name="1" d="m22.599,26.437l4.134,1.628,4.801-1.8-4.112-1.627-4.823,1.799Z" fill="#f1f0f0" stroke-width="0"/>
    </g>
    <g>
      <g id="gx" data-name="4">
        <polygon points="22.599 21.991 27.421 20.192 31.534 21.819 31.534 25.671 26.733 27.471 22.627 25.868 22.627 22.002 22.599 21.991" fill="#323232" stroke-width="0"/>
        <path d="m26.584,27.736l-4.107-1.604c-.123-.048-.202-.151-.202-.265v-3.763c-.019-.036-.028-.076-.028-.117.002-.114.083-.217.208-.263l4.823-1.8c.094-.035.202-.034.295.003l4.112,1.627c.122.049.2.151.2.264v3.852c0,.115-.081.219-.207.266l-4.801,1.801c-.046.017-.095.026-.145.026-.051,0-.102-.009-.149-.028Zm4.598-5.733l-3.765-1.49-4.439,1.656v3.512s3.758,1.468,3.758,1.468l4.446-1.668v-3.478Z" stroke="#000" stroke-miterlimit="10" stroke-width=".25"/>
      </g>
      <polygon id="gy" data-name="3" points="22.627 21.991 22.627 25.868 26.733 27.471 26.733 23.618 22.627 21.991" fill="#797979" stroke-width="0"/>
      <polygon id="gz" data-name="2" points="31.534 21.819 31.534 25.671 26.733 27.471 26.733 23.618 31.534 21.819" fill="#e1e1e1" stroke-width="0"/>
      <path id="ha" data-name="1" d="m22.599,21.991l4.134,1.627,4.801-1.799-4.112-1.627-4.823,1.8Z" fill="#f1f0f0" stroke-width="0"/>
    </g>
    <g>
      <g id="hb" data-name="4">
        <polygon points="22.599 17.511 27.421 15.711 31.534 17.338 31.534 21.19 26.733 22.991 22.627 21.387 22.627 17.522 22.599 17.511" fill="#323232" stroke-width="0"/>
        <path d="m26.584,23.256l-4.107-1.604c-.123-.048-.202-.151-.202-.265v-3.763c-.019-.036-.028-.076-.028-.117.002-.114.083-.217.208-.263l4.823-1.8c.094-.035.202-.034.295.003l4.112,1.627c.122.048.2.151.2.264v3.852c0,.115-.081.219-.207.266l-4.801,1.801c-.046.017-.095.026-.145.026-.051,0-.102-.009-.149-.028Zm4.598-5.733l-3.765-1.49-4.439,1.656v3.512s3.758,1.468,3.758,1.468l4.446-1.668v-3.478Z" stroke="#000" stroke-miterlimit="10" stroke-width=".25"/>
      </g>
      <polygon id="hc" data-name="3" points="22.627 17.511 22.627 21.387 26.733 22.991 26.733 19.138 22.627 17.511" fill="#797979" stroke-width="0"/>
      <polygon id="hd" data-name="2" points="31.534 17.338 31.534 21.19 26.733 22.991 26.733 19.138 31.534 17.338" fill="#e1e1e1" stroke-width="0"/>
      <path id="he" data-name="1" d="m22.599,17.511l4.134,1.627,4.801-1.799-4.112-1.627-4.823,1.8Z" fill="#f1f0f0" stroke-width="0"/>
    </g>
  </g>
  <g id="hf" data-name="DELICGC_AP">
    <rect x="11.5" y="23.5" width="25" height="31" fill="url(#m)" stroke="#323232" stroke-linejoin="round"/>
    <rect x="13.5" y="26.5" width="21" height="5" fill="url(#a)" stroke="#053755" stroke-linejoin="round"/>
    <g>
      <rect x="13.5" y="34.5" width="3" height="3" fill="url(#i)" stroke="#323232" stroke-linejoin="round"/>
      <rect x="19.5" y="34.5" width="3" height="3" fill="url(#hg)" stroke="#323232" stroke-linejoin="round"/>
      <rect x="25.5" y="34.5" width="3" height="3" fill="url(#hh)" stroke="#323232" stroke-linejoin="round"/>
      <rect x="31.5" y="34.5" width="3" height="3" fill="url(#hi)" stroke="#323232" stroke-linejoin="round"/>
    </g>
    <g>
      <rect x="13.5" y="39.5" width="3" height="3" fill="url(#hj)" stroke="#323232" stroke-linejoin="round"/>
      <rect x="19.5" y="39.5" width="3" height="3" fill="url(#hk)" stroke="#323232" stroke-linejoin="round"/>
      <rect x="25.5" y="39.5" width="3" height="3" fill="url(#hl)" stroke="#323232" stroke-linejoin="round"/>
      <rect x="31.5" y="39.5" width="3" height="3" fill="url(#hm)" stroke="#053755" stroke-linejoin="round"/>
    </g>
    <g>
      <rect x="13.5" y="49.5" width="3" height="3" fill="url(#hn)" stroke="#323232" stroke-linejoin="round"/>
      <rect x="19.5" y="49.5" width="3" height="3" fill="url(#ho)" stroke="#323232" stroke-linejoin="round"/>
      <rect x="25.5" y="49.5" width="3" height="3" fill="url(#hp)" stroke="#323232" stroke-linejoin="round"/>
      <rect x="31.5" y="49.5" width="3" height="3" fill="url(#hq)" stroke="#053755" stroke-linejoin="round"/>
    </g>
    <g>
      <rect x="13.5" y="44.5" width="3" height="3" fill="url(#hr)" stroke="#323232" stroke-linejoin="round"/>
      <rect x="19.5" y="44.5" width="3" height="3" fill="url(#hs)" stroke="#323232" stroke-linejoin="round"/>
      <rect x="25.5" y="44.5" width="3" height="3" fill="url(#ht)" stroke="#323232" stroke-linejoin="round"/>
      <rect x="31.5" y="44.5" width="3" height="3" fill="url(#hu)" stroke="#053755" stroke-linejoin="round"/>
    </g>
  </g>
  <g id="hv" data-name="DELICMC_AP">
    <g id="hw" data-name="TAB ok ***">
      <g id="hx" data-name="TAB  ***">
        <g id="hy" data-name="ok">
          <rect x="34" y="37" width="20" height="14" fill="#f1f0f0" stroke-width="0"/>
          <path d="m54,37v14h-20v-14h20m-20.979-.001l-.021,15.001h22v-15c0-.552-.448-1-1-1h-19.979c-.552,0-.999.447-1,.999Z" fill="#323232" stroke-width="0"/>
        </g>
        <g>
          <path id="hz" data-name="**" d="m55,40v-3c0-.552-.448-1-1-1h-20c-.552,0-1,.448-1,1v3h22Zm-1-1h-20v-2h20v2Z" fill="#053755" stroke-width="0"/>
          <rect x="34" y="37" width="20" height="2" fill="url(#ia)" stroke-width="0"/>
        </g>
      </g>
      <path id="ib" data-name="okn ***" d="m39,50h-1v-4h1v4Zm5-1h-1v1h1v-1Zm-5-5h-1v-3h1v3Zm5-3h-1v6h1v-6Zm5,0h-1v9h1v-9Z" fill="#797979" stroke-width="0"/>
      <g id="ic" data-name="ok **** ok">
        <path d="m53,49h-7v-1h7v1Zm-3-3h-7v-1h7v1Zm-3-4h-12v1h12v-1Z" fill="#003755" stroke-width="0"/>
      </g>
    </g>
  </g>
</svg>