<svg xmlns="http://www.w3.org/2000/svg" xmlns:xlink="http://www.w3.org/1999/xlink" viewBox="0 0 64 64"><defs><style>.cls-1,.cls-12,.cls-16,.cls-2,.cls-26,.cls-28,.cls-29,.cls-3,.cls-33,.cls-34,.cls-4,.cls-40,.cls-41,.cls-42,.cls-5{stroke:#787878;}.cls-1,.cls-10,.cls-11,.cls-12,.cls-13,.cls-14,.cls-15,.cls-16,.cls-17,.cls-18,.cls-19,.cls-2,.cls-21,.cls-22,.cls-23,.cls-24,.cls-25,.cls-26,.cls-28,.cls-29,.cls-3,.cls-30,.cls-31,.cls-33,.cls-34,.cls-35,.cls-36,.cls-37,.cls-38,.cls-39,.cls-4,.cls-40,.cls-41,.cls-42,.cls-43,.cls-44,.cls-45,.cls-5,.cls-6,.cls-7,.cls-8{stroke-linejoin:round;}.cls-1{fill:url(#linear-gradient);}.cls-2{fill:url(#linear-gradient-2);}.cls-3{fill:url(#linear-gradient-3);}.cls-4{fill:url(#linear-gradient-4);}.cls-5{fill:url(#linear-gradient-5);}.cls-10,.cls-11,.cls-17,.cls-18,.cls-21,.cls-22,.cls-6,.cls-7{stroke:#333332;}.cls-10,.cls-11,.cls-13,.cls-14,.cls-15,.cls-17,.cls-18,.cls-19,.cls-21,.cls-22,.cls-23,.cls-24,.cls-25,.cls-30,.cls-31,.cls-35,.cls-36,.cls-37,.cls-6,.cls-7,.cls-8{stroke-linecap:round;}.cls-6{fill:url(#linear-gradient-6);}.cls-7{fill:url(#linear-gradient-7);}.cls-13,.cls-14,.cls-15,.cls-19,.cls-23,.cls-24,.cls-25,.cls-30,.cls-31,.cls-35,.cls-36,.cls-37,.cls-8{stroke:#053755;}.cls-8{fill:url(#linear-gradient-8);}.cls-9{fill:url(#linear-gradient-9);}.cls-10{fill:url(#linear-gradient-11);}.cls-11{fill:url(#linear-gradient-12);}.cls-12,.cls-38{fill:none;}.cls-13{fill:url(#linear-gradient-13);}.cls-14{fill:url(#linear-gradient-14);}.cls-15{fill:url(#linear-gradient-15);}.cls-16{fill:url(#linear-gradient-16);}.cls-17{fill:url(#linear-gradient-17);}.cls-18{fill:url(#linear-gradient-18);}.cls-19{fill:url(#linear-gradient-19);}.cls-20{fill:url(#linear-gradient-20);}.cls-21{fill:url(#linear-gradient-22);}.cls-22{fill:url(#linear-gradient-23);}.cls-23{fill:url(#linear-gradient-24);}.cls-24{fill:url(#linear-gradient-25);}.cls-25{fill:url(#linear-gradient-26);}.cls-26{fill:url(#linear-gradient-27);}.cls-27{fill:url(#linear-gradient-28);}.cls-28{fill:url(#linear-gradient-30);}.cls-29{fill:url(#linear-gradient-31);}.cls-30{fill:url(#linear-gradient-32);}.cls-31{fill:url(#linear-gradient-33);}.cls-32{fill:url(#linear-gradient-34);}.cls-33{fill:url(#linear-gradient-36);}.cls-34{fill:url(#linear-gradient-37);}.cls-35{fill:url(#linear-gradient-38);}.cls-36{fill:url(#linear-gradient-39);}.cls-37{fill:url(#linear-gradient-40);}.cls-38{stroke:#323232;}.cls-39{fill:#fff;stroke:#fff;stroke-width:3px;opacity:0.5;}.cls-40{fill:url(#linear-gradient-41);}.cls-41{fill:url(#linear-gradient-42);}.cls-42{fill:url(#linear-gradient-43);}.cls-43,.cls-44,.cls-45{stroke:#003755;}.cls-43{fill:url(#linear-gradient-44);}.cls-44{fill:url(#linear-gradient-45);}.cls-45{fill:url(#linear-gradient-46);}.DARK-GREY-Fill{fill:url(#linear-gradient-47);}</style><linearGradient id="linear-gradient" x1="13.36" y1="19.43" x2="36.14" y2="58.88" gradientTransform="matrix(1, 0, 0, -1, 0, 66)" gradientUnits="userSpaceOnUse"><stop offset="0" stop-color="#fff"/><stop offset="1" stop-color="#d2d2d2"/></linearGradient><linearGradient id="linear-gradient-2" x1="5.7" y1="15.89" x2="23.12" y2="46.06" gradientTransform="matrix(1, 0, 0, -1, 0, 66)" gradientUnits="userSpaceOnUse"><stop offset="0" stop-color="#f5f5f5"/><stop offset="1" stop-color="#bebebe"/></linearGradient><linearGradient id="linear-gradient-3" x1="27.96" y1="3.04" x2="40.86" y2="25.39" xlink:href="#linear-gradient"/><linearGradient id="linear-gradient-4" x1="20.4" y1="4.63" x2="26.6" y2="15.35" gradientUnits="userSpaceOnUse"><stop offset="0" stop-color="#fff"/><stop offset="1" stop-color="#f0f0f0"/></linearGradient><linearGradient id="linear-gradient-5" x1="25.73" y1="37.29" x2="35.27" y2="53.82" xlink:href="#linear-gradient-4"/><linearGradient id="linear-gradient-6" x1="35.96" y1="31.49" x2="41.19" y2="22.44" gradientTransform="matrix(1, 0, 0, -1, 0, 66)" gradientUnits="userSpaceOnUse"><stop offset="0" stop-color="#f5f6f6"/><stop offset="0.99" stop-color="#d2d3d3"/></linearGradient><linearGradient id="linear-gradient-7" x1="37.28" y1="34.27" x2="39.43" y2="30.55" xlink:href="#linear-gradient-6"/><linearGradient id="linear-gradient-8" x1="36.89" y1="21.1" x2="33.11" y2="27.65" gradientTransform="matrix(1, 0, 0, -1, 0, 66)" gradientUnits="userSpaceOnUse"><stop offset="0" stop-color="#386f8d"/><stop offset="1" stop-color="#8dd7f4"/></linearGradient><linearGradient id="linear-gradient-9" x1="24.1" y1="34.89" x2="30.89" y2="46.65" gradientTransform="matrix(1, 0, 0, 1, 0, 0)" xlink:href="#linear-gradient"/><linearGradient id="linear-gradient-11" x1="24.76" y1="29.64" x2="30.32" y2="20.02" xlink:href="#linear-gradient-6"/><linearGradient id="linear-gradient-12" x1="26.24" y1="31.72" x2="28.39" y2="28" xlink:href="#linear-gradient-6"/><linearGradient id="linear-gradient-13" x1="23.45" y1="25.49" x2="20.78" y2="30.12" gradientTransform="matrix(1, 0, 0, -1, 0, 66)" gradientUnits="userSpaceOnUse"><stop offset="0" stop-color="#74c4e2"/><stop offset="1" stop-color="#a4def6"/></linearGradient><linearGradient id="linear-gradient-14" x1="26.14" y1="18.3" x2="21.98" y2="25.5" xlink:href="#linear-gradient-8"/><linearGradient id="linear-gradient-15" x1="21.32" y1="17.74" x2="15.93" y2="27.07" xlink:href="#linear-gradient-8"/><linearGradient id="linear-gradient-16" x1="24.41" y1="20.24" x2="35.23" y2="38.97" gradientTransform="matrix(1, 0, 0, -1, 0, 66)" xlink:href="#linear-gradient-4"/><linearGradient id="linear-gradient-17" x1="35.96" y1="41.49" x2="41.19" y2="32.44" xlink:href="#linear-gradient-6"/><linearGradient id="linear-gradient-18" x1="37.28" y1="44.27" x2="39.43" y2="40.55" xlink:href="#linear-gradient-6"/><linearGradient id="linear-gradient-19" x1="36.89" y1="31.1" x2="33.11" y2="37.65" xlink:href="#linear-gradient-8"/><linearGradient id="linear-gradient-20" x1="24.1" y1="24.89" x2="30.89" y2="36.65" gradientTransform="matrix(1, 0, 0, 1, 0, 0)" xlink:href="#linear-gradient"/><linearGradient id="linear-gradient-22" x1="24.76" y1="39.64" x2="30.32" y2="30.02" xlink:href="#linear-gradient-6"/><linearGradient id="linear-gradient-23" x1="26.24" y1="41.72" x2="28.39" y2="38" xlink:href="#linear-gradient-6"/><linearGradient id="linear-gradient-24" x1="23.45" y1="35.49" x2="20.78" y2="40.12" xlink:href="#linear-gradient-13"/><linearGradient id="linear-gradient-25" x1="26.14" y1="28.3" x2="21.98" y2="35.5" xlink:href="#linear-gradient-8"/><linearGradient id="linear-gradient-26" x1="21.32" y1="27.74" x2="15.93" y2="37.07" xlink:href="#linear-gradient-8"/><linearGradient id="linear-gradient-27" x1="24.85" y1="31.99" x2="34.81" y2="49.25" gradientTransform="matrix(1, 0, 0, -1, 0, 66)" xlink:href="#linear-gradient-4"/><linearGradient id="linear-gradient-28" x1="35.23" y1="10.48" x2="41.85" y2="21.94" gradientTransform="matrix(1, 0, 0, 1, 0, 0)" xlink:href="#linear-gradient"/><linearGradient id="linear-gradient-30" x1="35.12" y1="44.07" x2="41.18" y2="54.55" xlink:href="#linear-gradient"/><linearGradient id="linear-gradient-31" x1="37.26" y1="52.39" x2="39.74" y2="56.69" xlink:href="#linear-gradient"/><linearGradient id="linear-gradient-32" x1="36.89" y1="43.1" x2="33.11" y2="49.65" xlink:href="#linear-gradient-8"/><linearGradient id="linear-gradient-33" x1="34.08" y1="16.87" x2="31" y2="11.53" gradientTransform="matrix(1, 0, 0, 1, 0, 0)" xlink:href="#linear-gradient-8"/><linearGradient id="linear-gradient-34" x1="24.23" y1="13.23" x2="30.85" y2="24.69" gradientTransform="matrix(1, 0, 0, 1, 0, 0)" xlink:href="#linear-gradient"/><linearGradient id="linear-gradient-36" x1="24.12" y1="41.32" x2="30.18" y2="51.8" xlink:href="#linear-gradient"/><linearGradient id="linear-gradient-37" x1="26.26" y1="49.64" x2="28.74" y2="53.94" xlink:href="#linear-gradient"/><linearGradient id="linear-gradient-38" x1="23.55" y1="47.07" x2="20.69" y2="52.01" xlink:href="#linear-gradient-13"/><linearGradient id="linear-gradient-39" x1="26.03" y1="40.24" x2="21.87" y2="47.44" xlink:href="#linear-gradient-8"/><linearGradient id="linear-gradient-40" x1="21.32" y1="39.74" x2="15.93" y2="49.07" xlink:href="#linear-gradient-8"/><linearGradient id="linear-gradient-41" x1="44.25" y1="36.91" x2="53.88" y2="53.59" gradientTransform="matrix(1, 0, 0, 1, 0, 0)" xlink:href="#linear-gradient"/><linearGradient id="linear-gradient-42" x1="41.44" y1="27.34" x2="48.56" y2="39.66" xlink:href="#linear-gradient-4"/><linearGradient id="linear-gradient-43" x1="30.9" y1="33.43" x2="43.97" y2="56.07" gradientTransform="matrix(1, 0, 0, 1, 0, 0)" xlink:href="#linear-gradient-2"/><linearGradient id="linear-gradient-44" x1="46.42" y1="35.66" x2="52.15" y2="45.59" gradientUnits="userSpaceOnUse"><stop offset="0" stop-color="#8cd7f5"/><stop offset="1" stop-color="#376e8c"/></linearGradient><linearGradient id="linear-gradient-45" x1="36.4" y1="36.13" x2="42.6" y2="46.87" xlink:href="#linear-gradient-44"/><linearGradient id="linear-gradient-46" x1="45.22" y1="31.04" x2="49.78" y2="38.96" xlink:href="#linear-gradient-44"/><linearGradient id="linear-gradient-47" x1="44" y1="49" x2="58" y2="49" gradientUnits="userSpaceOnUse"><stop offset="0" stop-color="#464646"/><stop offset="1" stop-color="#141414"/></linearGradient></defs><g id="Layer_1" data-name="Layer 1"><polygon class="cls-1" points="38.5 8.48 11.5 14.31 11.5 45.5 38.5 38.5 38.5 8.48"/><polygon class="cls-2" points="8.5 11.5 11.5 14.21 11.5 45.5 21.7 54.11 21.5 56.5 18.5 57.5 8.5 48.8 8.5 11.5"/><polygon class="cls-3" points="21.5 54.5 49.5 45.6 49.5 47.5 47.5 49.5 22.3 57.5 18.5 57.5 21.5 56.5 21.5 54.5"/><polygon class="cls-4" points="8.5 11.5 11.5 14.21 38.5 8.48 34.5 6.5 8.5 11.5"/><polygon class="cls-5" points="21.7 54.11 11.5 45.5 38.5 38.5 49.5 45.6 21.7 54.11"/><path class="cls-6" d="M42.5,34.65v8s0,2.4-4,2.4c0,0-4,0-4-2.4v-8.8Z"/><ellipse class="cls-7" cx="38.31" cy="33.5" rx="4.25" ry="1.7"/><polygon class="cls-8" points="31.5 46.5 31.5 38.5 38.5 36.75 38.5 44.5 31.5 46.5"/><path class="cls-9" d="M31.5,36.5v8.7s0,2.4-4,2.4c0,0-4,0-4-2.4V35.5Z"/><ellipse class="cls-9" cx="27.26" cy="36.05" rx="4.25" ry="1.7"/><path class="cls-10" d="M31.5,36.5v8.7s0,2.4-4,2.4c0,0-4,0-4-2.4V35.5Z"/><ellipse class="cls-11" cx="27.26" cy="36.05" rx="4.25" ry="1.7"/><path class="cls-12" d="M31.5,36.5v8.7s0,2.4-4,2.4c0,0-4,0-4-2.4V35.5Z"/><ellipse class="cls-12" cx="27.26" cy="36.05" rx="4.25" ry="1.7"/><polygon class="cls-13" points="20.5 40.5 16.5 37.5 23.17 36.16 27.5 38.5 20.5 40.5"/><polygon class="cls-14" points="20.5 49.5 20.5 40.5 27.5 38.5 27.5 47.5 20.5 49.5"/><polygon class="cls-15" points="16.5 37.5 20.5 40.5 20.5 49.5 16.5 46.25 16.5 37.5"/><polygon class="cls-16" points="11.5 36.5 20.5 43.5 22.5 43.5 48.51 35.66 39.5 29.5 11.5 36.5"/><path class="cls-17" d="M42.5,24.65v8s0,2.4-4,2.4c0,0-4,0-4-2.4v-8.8Z"/><ellipse class="cls-18" cx="38.31" cy="23.5" rx="4.25" ry="1.7"/><polygon class="cls-19" points="31.5 36.5 31.5 28.5 38.5 26.75 38.5 34.5 31.5 36.5"/><path class="cls-20" d="M31.5,26.5v8.7s0,2.4-4,2.4c0,0-4,0-4-2.4V25.5Z"/><ellipse class="cls-20" cx="27.26" cy="26.05" rx="4.25" ry="1.7"/><path class="cls-21" d="M31.5,26.5v8.7s0,2.4-4,2.4c0,0-4,0-4-2.4V25.5Z"/><ellipse class="cls-22" cx="27.26" cy="26.05" rx="4.25" ry="1.7"/><path class="cls-12" d="M31.5,26.5v8.7s0,2.4-4,2.4c0,0-4,0-4-2.4V25.5Z"/><ellipse class="cls-12" cx="27.26" cy="26.05" rx="4.25" ry="1.7"/><polygon class="cls-23" points="20.5 30.5 16.5 27.5 23.17 26.16 27.5 28.5 20.5 30.5"/><polygon class="cls-24" points="20.5 39.5 20.5 30.5 27.5 28.5 27.5 37.5 20.5 39.5"/><polygon class="cls-25" points="16.5 27.5 20.5 30.5 20.5 39.5 16.5 36.25 16.5 27.5"/><polygon class="cls-26" points="11.5 25.5 20.5 31.5 22.5 31.5 48.51 24.66 39.5 19.5 11.5 25.5"/><path class="cls-27" d="M42.5,12.21v8.34s0,2.3-4,2.3c0,0-4,0-4-2.3v-9.3"/><ellipse class="cls-27" cx="38.5" cy="11.46" rx="4" ry="1.7"/><path class="cls-28" d="M42.5,12.21v8.34s0,2.3-4,2.3c0,0-4,0-4-2.3v-9.3"/><ellipse class="cls-29" cx="38.5" cy="11.46" rx="4" ry="1.7"/><path class="cls-12" d="M42.5,12.21v8.34s0,2.3-4,2.3c0,0-4,0-4-2.3v-9.3"/><ellipse class="cls-12" cx="38.5" cy="11.46" rx="4" ry="1.7"/><polygon class="cls-30" points="31.5 24.5 31.5 16.5 38.5 14.75 38.5 22.5 31.5 24.5"/><polygon class="cls-31" points="38.5 14.75 33.5 12.5 26.5 13.5 31.5 16.5 38.5 14.75"/><path class="cls-32" d="M31.5,15V23.3s0,2.3-4,2.3c0,0-4,0-4-2.3V14"/><ellipse class="cls-32" cx="27.5" cy="14.21" rx="4" ry="1.7"/><path class="cls-33" d="M31.5,15V23.3s0,2.3-4,2.3c0,0-4,0-4-2.3V14"/><ellipse class="cls-34" cx="27.5" cy="14.21" rx="4" ry="1.7"/><path class="cls-12" d="M31.5,15V23.3s0,2.3-4,2.3c0,0-4,0-4-2.3V14"/><ellipse class="cls-12" cx="27.5" cy="14.21" rx="4" ry="1.7"/><polygon class="cls-35" points="20.5 18.5 16.5 15.5 23.17 14.16 27.5 17 20.5 18.5"/><polygon class="cls-36" points="20.5 27.5 20.5 18.5 27.5 17 27.5 25.5 20.5 27.5"/><polygon class="cls-37" points="16.5 15.5 20.5 18.5 20.5 27.5 16.5 24.25 16.5 15.5"/><path class="cls-38" d="M42.5,41.08V37.47l6-1.81-6-4.11V26.24l6-1.58-6.12-3.5a1.64,1.64,0,0,0,.11-.51v-8l-.89-.09c.58-.29,1-.65,1-1.06,0-.91-1.8-1.65-4.06-1.69V8.48l-4-2-26,5V48.8l10,8.7h3.8l25.2-8,2-2V45.6Z"/></g><g id="Layer_3" data-name="Layer 3"><polygon class="cls-39" points="47.5 29.5 32.5 32.5 32.5 49.5 41.5 57.5 57.5 51.5 57.5 34.5 47.5 29.5"/><polygon class="cls-40" points="41.5 38.5 41.5 57.5 57.5 51.5 57.5 34.5 41.5 38.5"/><polygon class="cls-41" points="32.5 32.5 41.5 38.5 57.5 34.5 47.5 29.5 32.5 32.5"/><polygon class="cls-42" points="32.5 49.5 32.5 32.5 41.5 38.5 41.5 57.5 32.5 49.5"/><polygon class="cls-38" points="47.5 29.5 32.5 32.5 32.5 49.5 41.5 57.5 57.5 51.5 57.5 34.5 47.5 29.5"/><polygon class="cls-43" points="41.5 47.5 57.5 42.5 57.5 34.5 41.5 38.5 41.5 47.5"/><polygon class="cls-44" points="37.5 35.5 37.5 44.5 41.5 47.5 41.5 38.5 37.5 35.5"/><polygon class="cls-45" points="52.5 32 37.5 35.5 41.5 38.5 57.5 34.5 52.5 32"/><path class="cls-39" d="M57.73,54.28,54,50.63a5.61,5.61,0,0,0,1-3.13,5.5,5.5,0,0,0-11,0A5.45,5.45,0,0,0,49.5,53a5.56,5.56,0,0,0,3.13-1l3.64,3.7A1,1,0,0,0,57,56a1,1,0,0,0,1-1A.94.94,0,0,0,57.73,54.28ZM49.5,52A4.5,4.5,0,1,1,54,47.5,4.49,4.49,0,0,1,49.5,52Z"/><circle class="cls-39" cx="49.5" cy="47.5" r="4.5"/><path class="DARK-GREY-Fill" d="M57.73,54.28,54,50.63a5.61,5.61,0,0,0,1-3.13,5.5,5.5,0,0,0-11,0A5.45,5.45,0,0,0,49.5,53a5.56,5.56,0,0,0,3.13-1l3.64,3.7A1,1,0,0,0,57,56a1,1,0,0,0,1-1A.94.94,0,0,0,57.73,54.28ZM49.5,52A4.5,4.5,0,1,1,54,47.5,4.49,4.49,0,0,1,49.5,52Z"/></g></svg>