<?xml version="1.0" encoding="UTF-8"?>
<svg xmlns="http://www.w3.org/2000/svg" xmlns:xlink="http://www.w3.org/1999/xlink" viewBox="0 0 64 64">
  <defs>
    <linearGradient id="a" x1="19.61" y1="32.44" x2="33.02" y2="55.66" gradientUnits="userSpaceOnUse">
      <stop offset="0" stop-color="#8cd7f5"/>
      <stop offset="1" stop-color="#376e8c"/>
    </linearGradient>
    <linearGradient id="f" x1="17.28" y1="10.05" x2="25.49" y2="24.28" gradientUnits="userSpaceOnUse">
      <stop offset="0" stop-color="#d7d7d7"/>
      <stop offset="1" stop-color="#969696"/>
    </linearGradient>
    <linearGradient id="h" x1="36.04" y1="6.19" x2="48.82" y2="28.31" gradientUnits="userSpaceOnUse">
      <stop offset="0" stop-color="#aaa"/>
      <stop offset="1" stop-color="#5a5a5a"/>
    </linearGradient>
    <linearGradient id="l" x1="20.24" y1="25.92" x2="33.4" y2="48.71" gradientTransform="translate(0 66) scale(1 -1)" gradientUnits="userSpaceOnUse">
      <stop offset="0" stop-color="#fff"/>
      <stop offset="1" stop-color="#f0f0f0"/>
    </linearGradient>
    <linearGradient id="o" x1="37.06" y1="24.95" x2="39.77" y2="29.65" gradientUnits="userSpaceOnUse">
      <stop offset="0" stop-color="#8cd7f5"/>
      <stop offset=".94" stop-color="#376e8c"/>
    </linearGradient>
    <linearGradient id="p" x1="36.24" y1="22.76" x2="38.76" y2="27.14" gradientUnits="userSpaceOnUse">
      <stop offset=".08" stop-color="#a0e1fa"/>
      <stop offset="1" stop-color="#73c3e1"/>
    </linearGradient>
    <linearGradient id="q" x1="31.22" y1="25.66" x2="33.89" y2="30.28" gradientUnits="userSpaceOnUse">
      <stop offset=".04" stop-color="#82bedc"/>
      <stop offset="1" stop-color="#285a78"/>
    </linearGradient>
    <linearGradient id="r" x1="21.46" y1="29.21" x2="24.43" y2="34.35" xlink:href="#a"/>
    <linearGradient id="s" x1="20.59" y1="26.56" x2="23.41" y2="31.44" gradientUnits="userSpaceOnUse">
      <stop offset=".03" stop-color="#a0e1fa"/>
      <stop offset="1" stop-color="#73c3e1"/>
    </linearGradient>
    <linearGradient id="t" x1="15.06" y1="29.75" x2="18.05" y2="34.93" gradientUnits="userSpaceOnUse">
      <stop offset="0" stop-color="#82bedc"/>
      <stop offset="1" stop-color="#285a78"/>
    </linearGradient>
    <linearGradient id="u" x1="30.77" y1="19.36" x2="33.23" y2="23.64" gradientUnits="userSpaceOnUse">
      <stop offset=".03" stop-color="#8cd7f5"/>
      <stop offset="1" stop-color="#376e8c"/>
    </linearGradient>
    <linearGradient id="v" x1="15.62" y1="23.12" x2="18.37" y2="27.88" gradientUnits="userSpaceOnUse">
      <stop offset="0" stop-color="#8cd7f5"/>
      <stop offset=".96" stop-color="#376e8c"/>
    </linearGradient>
    <linearGradient id="w" x1="17.1" y1="40.91" x2="14.6" y2="45.67" gradientTransform="translate(0 66) scale(1 -1)" gradientUnits="userSpaceOnUse">
      <stop offset=".06" stop-color="#a0e1fa"/>
      <stop offset="1" stop-color="#73c3e1"/>
    </linearGradient>
    <linearGradient id="x" x1="9.22" y1="23.66" x2="11.89" y2="28.28" gradientUnits="userSpaceOnUse">
      <stop offset="0" stop-color="#82bedc"/>
      <stop offset=".86" stop-color="#285a78"/>
    </linearGradient>
    <linearGradient id="y" x1="25.33" y1="19.85" x2="27.78" y2="24.09" gradientUnits="userSpaceOnUse">
      <stop offset="0" stop-color="#82bedc"/>
      <stop offset=".96" stop-color="#285a78"/>
    </linearGradient>
    <linearGradient id="z" x1="41.76" y1="56.76" x2="32.93" y2="47.93" gradientTransform="translate(0 66) scale(1 -1)" gradientUnits="userSpaceOnUse">
      <stop offset="0" stop-color="#fff"/>
      <stop offset="1" stop-color="#d2d2d2"/>
    </linearGradient>
    <linearGradient id="aa" x1="31.8" y1="54.3" x2="22.18" y2="44.68" xlink:href="#z"/>
    <linearGradient id="ab" x1="21.53" y1="52.03" x2="10.91" y2="41.41" xlink:href="#z"/>
    <linearGradient id="ad" x1="22.27" y1="39.24" x2="24.82" y2="43.66" gradientTransform="matrix(1,0,0,1,0,0)" xlink:href="#l"/>
    <linearGradient id="ae" x1="27.75" y1="44.47" x2="31.25" y2="50.53" gradientTransform="matrix(1,0,0,1,0,0)" xlink:href="#l"/>
    <linearGradient id="af" x1="23.61" y1="38.47" x2="30.74" y2="50.83" gradientTransform="matrix(1,0,0,1,0,0)" xlink:href="#l"/>
    <radialGradient id="ah" cx="44.53" cy="47.53" fx="44.53" fy="47.53" r="8.78" gradientUnits="userSpaceOnUse">
      <stop offset="0" stop-color="#fff"/>
      <stop offset="1" stop-color="#d2d2d2"/>
    </radialGradient>
    <radialGradient id="ai" cx="48.69" cy="43.34" fx="48.69" fy="43.34" r="5.95" gradientTransform="translate(0 24.68) scale(1 .43)" gradientUnits="userSpaceOnUse">
      <stop offset=".35" stop-color="#141414"/>
      <stop offset="1" stop-color="#464646" stop-opacity="0"/>
    </radialGradient>
    <radialGradient id="aj" cx="46.56" cy="35.59" fx="46.56" fy="35.59" r="6.5" xlink:href="#ah"/>
    <linearGradient id="ak" x1="45.02" y1="28.16" x2="50.31" y2="37.34" gradientUnits="userSpaceOnUse">
      <stop offset="0" stop-color="#fbe86a"/>
      <stop offset="1" stop-color="#f1cf2f"/>
    </linearGradient>
    <linearGradient id="al" x1="45.66" y1="29.94" x2="50.34" y2="38.06" xlink:href="#ak"/>
  </defs>
  <g id="n" data-name="Factory">
    <polygon points="35.5 6.5 35.5 18.5 48.5 28.5 48.5 14.5 35.5 6.5" fill="url(#h)" stroke="#323232" stroke-linejoin="round"/>
    <path d="M17.5,38.5l-11-12,29-8,13,10-31,10Z" fill="url(#l)" stroke="#787878" stroke-linejoin="round"/>
    <polygon points="28.93 10.88 25.5 8.5 19.32 12.62 16.5 10.5 6.5 16.5 6.5 26.5 35.5 18.5 35.5 6.5 28.93 10.88" fill="url(#f)" stroke="#787878" stroke-linejoin="round"/>
    <polygon points="43.5 24.4 43.5 27.5 33.5 30.5 33.5 27 43.5 24.4" fill="url(#o)" stroke="#003755" stroke-linejoin="round"/>
    <polygon points="31.5 25.5 33.5 27 43.5 24.4 41.5 22.9 31.5 25.5" fill="url(#p)" stroke="#003755" stroke-linejoin="round"/>
    <polygon points="31.5 25.5 31.5 28.75 33.5 30.5 33.5 27 31.5 25.5" fill="url(#q)" stroke="#003755" stroke-linejoin="round"/>
    <polygon points="28.5 28.5 17.5 31.5 17.5 35.25 28.5 32 28.5 28.5" fill="url(#r)" stroke="#003755" stroke-linejoin="round"/>
    <polygon points="26 26.75 15.5 29.5 17.5 31.5 28.5 28.5 26 26.75" fill="url(#s)" stroke="#003755" stroke-linejoin="round"/>
    <polygon points="17.5 35.25 17.5 31.5 15.5 29.5 15.5 33 17.5 35.25" fill="url(#t)" stroke="#003755" stroke-linejoin="round"/>
    <polygon points="27.5 24.25 36.5 21.75 36.5 18.75 27.5 21.25 27.5 24.25" fill="url(#u)" stroke="#003755" stroke-linejoin="round"/>
    <polygon points="22.5 22.5 22.5 25.5 11.5 28.5 11.5 25.5 22.5 22.5" fill="url(#v)" stroke="#003755" stroke-linejoin="round"/>
    <polygon points="9.5 23.5 11.5 25.5 22.5 22.5 20 21 9.5 23.5" fill="url(#w)" stroke="#003755" stroke-linejoin="round"/>
    <polygon points="11.5 28.5 9.5 26.25 9.5 23.5 11.5 25.5 11.5 28.5" fill="url(#x)" stroke="#003755" stroke-linejoin="round"/>
    <polygon points="27.5 24.25 25.5 22.5 25.5 19.75 27.5 21.25 27.5 24.25" fill="url(#y)" stroke="#003755" stroke-linejoin="round"/>
    <path d="M38.5,21.5l-12-9,9-6,13,8-10,7Z" fill="url(#z)" stroke="#787878" stroke-linejoin="round"/>
    <polygon points="38.5 17.5 38.5 21.5 35.7 19.4 38.5 17.5" fill="url(#f)" stroke="#787878" stroke-linejoin="round"/>
    <path d="M28.5,24.3l-12-9.8,9-6,13,9-10,6.8Z" fill="url(#aa)" stroke="#787878" stroke-linejoin="round"/>
    <polygon points="28.5 19.5 28.5 24.3 25.2 21.6 28.5 19.5" fill="url(#f)" stroke="#787878" stroke-linejoin="round"/>
    <path d="M17.5,26.5l-11-10,10-6,12,9-11,7Z" fill="url(#ab)" stroke="#787878" stroke-linejoin="round"/>
    <polygon points="35.5 6.5 28.93 10.88 25.5 8.5 19.32 12.62 16.5 10.5 6.5 16.5 6.5 26.5 17.5 38.5 48.5 28.5 48.5 14.5 35.5 6.5" fill="none" stroke="#323232" stroke-linejoin="round"/>
  </g>
  <g id="ac" data-name="Engine">
    <polygon points="38.5 38.5 36.5 38.5 36.5 41.5 34.5 41.5 34.5 38.5 30.5 38.5 30.5 36.5 26.5 36.5 26.5 34.5 30.5 34.5 30.5 32.5 19.5 32.5 19.5 34.5 23.5 34.5 23.5 36.5 19.5 36.5 19.5 37.5 17.5 37.5 17.5 41.5 15.5 41.5 15.5 37.5 13.5 37.5 13.5 48.5 15.5 48.5 15.5 44.5 17.5 44.5 17.5 48.5 19.5 48.5 22.5 52.5 34.5 52.5 34.5 49.5 36.5 49.5 36.5 52.5 38.5 52.5 39.5 49.5 39.5 41.5 38.5 38.5" fill="#fff" opacity=".5" stroke="#fff" stroke-linejoin="round" stroke-width="3"/>
    <polygon points="38.5 38.5 36.5 38.5 36.5 41.5 34.5 41.5 34.5 38.5 30.5 38.5 30.5 36.5 26.5 36.5 26.5 34.5 30.5 34.5 30.5 32.5 19.5 32.5 19.5 34.5 23.5 34.5 23.5 36.5 19.5 36.5 19.5 37.5 17.5 37.5 17.5 41.5 15.5 41.5 15.5 37.5 13.5 37.5 13.5 48.5 15.5 48.5 15.5 44.5 17.5 44.5 17.5 48.5 19.5 48.5 22.5 52.5 34.5 52.5 34.5 49.5 36.5 49.5 36.5 52.5 38.5 52.5 39.5 49.5 39.5 41.5 38.5 38.5" fill="url(#a)" stroke="#003755" stroke-linejoin="round"/>
    <circle cx="23.55" cy="41.45" r="2.05" fill="none" stroke="url(#ad)" stroke-linejoin="round"/>
    <circle cx="29.5" cy="47.5" r="3" fill="none" stroke="url(#ae)" stroke-linejoin="round"/>
    <path d="M31.29,45.11h0s-6.41-5.21-6.41-5.21h0c-.36-.3-.82-.5-1.33-.5-1.13,0-2.05.92-2.05,2.05,0,.47.16.89.42,1.23h0s5.25,6.7,5.25,6.7h0c.55.67,1.38,1.11,2.32,1.11,1.66,0,3-1.34,3-3,0-.98-.48-1.85-1.21-2.39Z" fill="none" stroke="url(#af)" stroke-linejoin="round"/>
  </g>
  <g id="ag" data-name="Operator">
    <path d="M51.96,42.14c1.54-1.19,2.54-3.05,2.54-5.14,0-.52-.07-1.02-.18-1.5h.18c.55,0,1-.45,1-1v-1c0-.55-.45-1-1-1h-1c0-2.76-2.24-5-5-5h-1c-2.76,0-5,2.24-5,5h-1c-.55,0-1,.45-1,1v1c0,.55.45,1,1,1h.18c-.11.48-.18.98-.18,1.5,0,2.1,1,3.96,2.54,5.14-3.27,1.11-5.54,3.53-5.54,6.36v6c0,1.66,4.25,3,9.5,3s9.5-1.34,9.5-3v-6c0-2.82-2.27-5.25-5.54-6.36Z" fill="#fff" opacity=".5" stroke="#fff" stroke-linejoin="round" stroke-width="3"/>
    <path d="M48,41.5c-5.25,0-9.5,3.13-9.5,7v6c0,1.66,4.25,3,9.5,3s9.5-1.34,9.5-3v-6c0-3.87-4.25-7-9.5-7Z" fill="url(#ah)" stroke="#787878" stroke-linejoin="round"/>
    <path d="M48,46c2.31,0,4.42-.88,6.01-2.32-1.6-1.04-3.7-1.68-6.01-1.68s-4.42.64-6.01,1.68c1.6,1.44,3.7,2.32,6.01,2.32Z" fill="url(#ai)" opacity=".3" stroke-width="0"/>
    <circle cx="48" cy="37" r="6.5" fill="url(#aj)" stroke="#787878" stroke-linejoin="round"/>
    <path d="M53.5,32.5v3h-11v-3h0c0-2.76,2.24-5,5-5h1c2.76,0,5,2.24,5,5h0Z" fill="url(#ak)" stroke="#787878" stroke-linejoin="round"/>
    <path d="M52,32.5h2.5c.55,0,1,.45,1,1v1c0,.55-.45,1-1,1h-13c-.55,0-1-.45-1-1v-1c0-.55.45-1,1-1h2.5" fill="url(#al)" stroke="#787878" stroke-linejoin="round"/>
    <path d="M54.21,43.21l-1.61-1.61c1.18-1.18,1.9-2.8,1.9-4.6,0-.52-.07-1.02-.18-1.5h.18c.55,0,1-.45,1-1v-1c0-.55-.45-1-1-1h-1c0-2.76-2.24-5-5-5h-1c-2.76,0-5,2.24-5,5h-1c-.55,0-1,.45-1,1v1c0,.55.45,1,1,1h.18c-.11.48-.18.98-.18,1.5,0,1.79.73,3.42,1.9,4.6l-1.61,1.61c-2.01,1.28-3.29,3.17-3.29,5.29v6c0,1.66,4.25,3,9.5,3s9.5-1.34,9.5-3v-6c0-2.11-1.28-4.01-3.29-5.29Z" fill="none" stroke="#323232" stroke-linejoin="round"/>
    <rect x="46" y="28" width="1" height="3" fill="#646464" opacity=".5" stroke-width="0"/>
    <rect x="49" y="28" width="1" height="3" fill="#646464" opacity=".5" stroke-width="0"/>
  </g>
</svg>