<?xml version="1.0" encoding="UTF-8"?>
<svg xmlns="http://www.w3.org/2000/svg" xmlns:xlink="http://www.w3.org/1999/xlink" viewBox="0 0 64 64">
  <defs>
    <linearGradient id="a" x1="22.6" y1="29.25" x2="30.4" y2="42.75" gradientUnits="userSpaceOnUse">
      <stop offset="0" stop-color="#8cd7f5"/>
      <stop offset="1" stop-color="#376e8c"/>
    </linearGradient>
    <linearGradient id="f" x1="17.28" y1="10.05" x2="25.49" y2="24.28" gradientUnits="userSpaceOnUse">
      <stop offset="0" stop-color="#d7d7d7"/>
      <stop offset="1" stop-color="#969696"/>
    </linearGradient>
    <linearGradient id="h" x1="46.59" y1="47.65" x2="49.91" y2="53.4" gradientUnits="userSpaceOnUse">
      <stop offset="0" stop-color="#aaa"/>
      <stop offset="1" stop-color="#5a5a5a"/>
    </linearGradient>
    <linearGradient id="j" x1="36.04" y1="6.19" x2="48.82" y2="28.31" xlink:href="#h"/>
    <linearGradient id="n" x1="50.92" y1="42.56" x2="53.64" y2="47.27" gradientUnits="userSpaceOnUse">
      <stop offset="0" stop-color="#fff"/>
      <stop offset="1" stop-color="#d2d2d2"/>
    </linearGradient>
    <linearGradient id="p" x1="20.24" y1="25.92" x2="33.4" y2="48.71" gradientTransform="translate(0 66) scale(1 -1)" gradientUnits="userSpaceOnUse">
      <stop offset="0" stop-color="#fff"/>
      <stop offset="1" stop-color="#f0f0f0"/>
    </linearGradient>
    <linearGradient id="s" x1="36.04" y1="6.19" x2="48.82" y2="28.31" xlink:href="#h"/>
    <linearGradient id="t" x1="37.06" y1="24.95" x2="39.77" y2="29.65" gradientUnits="userSpaceOnUse">
      <stop offset="0" stop-color="#8cd7f5"/>
      <stop offset=".94" stop-color="#376e8c"/>
    </linearGradient>
    <linearGradient id="u" x1="36.24" y1="22.76" x2="38.76" y2="27.14" gradientUnits="userSpaceOnUse">
      <stop offset=".08" stop-color="#a0e1fa"/>
      <stop offset="1" stop-color="#73c3e1"/>
    </linearGradient>
    <linearGradient id="v" x1="31.22" y1="25.66" x2="33.89" y2="30.28" gradientUnits="userSpaceOnUse">
      <stop offset=".04" stop-color="#82bedc"/>
      <stop offset="1" stop-color="#285a78"/>
    </linearGradient>
    <linearGradient id="w" x1="21.46" y1="29.21" x2="24.43" y2="34.35" xlink:href="#a"/>
    <linearGradient id="x" x1="20.59" y1="26.56" x2="23.41" y2="31.44" gradientUnits="userSpaceOnUse">
      <stop offset=".03" stop-color="#a0e1fa"/>
      <stop offset="1" stop-color="#73c3e1"/>
    </linearGradient>
    <linearGradient id="y" x1="15.06" y1="29.75" x2="18.05" y2="34.93" gradientUnits="userSpaceOnUse">
      <stop offset="0" stop-color="#82bedc"/>
      <stop offset="1" stop-color="#285a78"/>
    </linearGradient>
    <linearGradient id="z" x1="30.77" y1="19.36" x2="33.23" y2="23.64" gradientUnits="userSpaceOnUse">
      <stop offset=".03" stop-color="#8cd7f5"/>
      <stop offset="1" stop-color="#376e8c"/>
    </linearGradient>
    <linearGradient id="aa" x1="15.62" y1="23.12" x2="18.37" y2="27.88" gradientUnits="userSpaceOnUse">
      <stop offset="0" stop-color="#8cd7f5"/>
      <stop offset=".96" stop-color="#376e8c"/>
    </linearGradient>
    <linearGradient id="ab" x1="17.1" y1="40.91" x2="14.6" y2="45.67" gradientTransform="translate(0 66) scale(1 -1)" gradientUnits="userSpaceOnUse">
      <stop offset=".06" stop-color="#a0e1fa"/>
      <stop offset="1" stop-color="#73c3e1"/>
    </linearGradient>
    <linearGradient id="ac" x1="9.22" y1="23.66" x2="11.89" y2="28.28" gradientUnits="userSpaceOnUse">
      <stop offset="0" stop-color="#82bedc"/>
      <stop offset=".86" stop-color="#285a78"/>
    </linearGradient>
    <linearGradient id="ad" x1="25.33" y1="19.85" x2="27.78" y2="24.09" gradientUnits="userSpaceOnUse">
      <stop offset="0" stop-color="#82bedc"/>
      <stop offset=".96" stop-color="#285a78"/>
    </linearGradient>
    <linearGradient id="ae" x1="41.76" y1="56.76" x2="32.93" y2="47.93" gradientTransform="translate(0 66) scale(1 -1)" xlink:href="#n"/>
    <linearGradient id="af" x1="31.8" y1="54.3" x2="22.18" y2="44.68" gradientTransform="translate(0 66) scale(1 -1)" xlink:href="#n"/>
    <linearGradient id="ag" x1="21.53" y1="52.03" x2="10.91" y2="41.41" gradientTransform="translate(0 66) scale(1 -1)" xlink:href="#n"/>
    <linearGradient id="ai" x1="19.57" y1="34" x2="33.43" y2="58" gradientUnits="userSpaceOnUse">
      <stop offset="0" stop-color="#fff"/>
      <stop offset="1" stop-color="#d4d5d3"/>
    </linearGradient>
    <linearGradient id="aj" x1="19.82" y1="38.22" x2="24.18" y2="45.78" gradientUnits="userSpaceOnUse">
      <stop offset="0" stop-color="#3287af"/>
      <stop offset="1" stop-color="#285a78"/>
    </linearGradient>
    <linearGradient id="ak" x1="27.94" y1="43.3" x2="31.06" y2="48.7" xlink:href="#aj"/>
    <linearGradient id="al" x1="31.94" y1="47.3" x2="35.06" y2="52.7" xlink:href="#aj"/>
    <radialGradient id="an" cx="44.53" cy="47.53" fx="44.53" fy="47.53" r="8.78" gradientUnits="userSpaceOnUse">
      <stop offset="0" stop-color="#fff"/>
      <stop offset="1" stop-color="#d2d2d2"/>
    </radialGradient>
    <radialGradient id="ao" cx="48.69" cy="43.34" fx="48.69" fy="43.34" r="5.95" gradientTransform="translate(0 24.68) scale(1 .43)" gradientUnits="userSpaceOnUse">
      <stop offset=".35" stop-color="#141414"/>
      <stop offset="1" stop-color="#464646" stop-opacity="0"/>
    </radialGradient>
    <radialGradient id="ap" cx="46.56" cy="35.59" fx="46.56" fy="35.59" r="6.5" xlink:href="#an"/>
  </defs>
  <g id="r" data-name="Factory">
    <polygon points="35.5 6.5 35.5 18.5 48.5 28.5 48.5 14.5 35.5 6.5" fill="url(#s)" stroke="#323232" stroke-linejoin="round"/>
    <path d="M17.5,38.5l-11-12,29-8,13,10-31,10Z" fill="url(#p)" stroke="#787878" stroke-linejoin="round"/>
    <polygon points="28.93 10.88 25.5 8.5 19.32 12.62 16.5 10.5 6.5 16.5 6.5 26.5 35.5 18.5 35.5 6.5 28.93 10.88" fill="url(#f)" stroke="#787878" stroke-linejoin="round"/>
    <polygon points="43.5 24.4 43.5 27.5 33.5 30.5 33.5 27 43.5 24.4" fill="url(#t)" stroke="#003755" stroke-linejoin="round"/>
    <polygon points="31.5 25.5 33.5 27 43.5 24.4 41.5 22.9 31.5 25.5" fill="url(#u)" stroke="#003755" stroke-linejoin="round"/>
    <polygon points="31.5 25.5 31.5 28.75 33.5 30.5 33.5 27 31.5 25.5" fill="url(#v)" stroke="#003755" stroke-linejoin="round"/>
    <polygon points="28.5 28.5 17.5 31.5 17.5 35.25 28.5 32 28.5 28.5" fill="url(#w)" stroke="#003755" stroke-linejoin="round"/>
    <polygon points="26 26.75 15.5 29.5 17.5 31.5 28.5 28.5 26 26.75" fill="url(#x)" stroke="#003755" stroke-linejoin="round"/>
    <polygon points="17.5 35.25 17.5 31.5 15.5 29.5 15.5 33 17.5 35.25" fill="url(#y)" stroke="#003755" stroke-linejoin="round"/>
    <polygon points="27.5 24.25 36.5 21.75 36.5 18.75 27.5 21.25 27.5 24.25" fill="url(#z)" stroke="#003755" stroke-linejoin="round"/>
    <polygon points="22.5 22.5 22.5 25.5 11.5 28.5 11.5 25.5 22.5 22.5" fill="url(#aa)" stroke="#003755" stroke-linejoin="round"/>
    <polygon points="9.5 23.5 11.5 25.5 22.5 22.5 20 21 9.5 23.5" fill="url(#ab)" stroke="#003755" stroke-linejoin="round"/>
    <polygon points="11.5 28.5 9.5 26.25 9.5 23.5 11.5 25.5 11.5 28.5" fill="url(#ac)" stroke="#003755" stroke-linejoin="round"/>
    <polygon points="27.5 24.25 25.5 22.5 25.5 19.75 27.5 21.25 27.5 24.25" fill="url(#ad)" stroke="#003755" stroke-linejoin="round"/>
    <path d="M38.5,21.5l-12-9,9-6,13,8-10,7Z" fill="url(#ae)" stroke="#787878" stroke-linejoin="round"/>
    <polygon points="38.5 17.5 38.5 21.5 35.7 19.4 38.5 17.5" fill="url(#f)" stroke="#787878" stroke-linejoin="round"/>
    <path d="M28.5,24.3l-12-9.8,9-6,13,9-10,6.8Z" fill="url(#af)" stroke="#787878" stroke-linejoin="round"/>
    <polygon points="28.5 19.5 28.5 24.3 25.2 21.6 28.5 19.5" fill="url(#f)" stroke="#787878" stroke-linejoin="round"/>
    <path d="M17.5,26.5l-11-10,10-6,12,9-11,7Z" fill="url(#ag)" stroke="#787878" stroke-linejoin="round"/>
    <polygon points="35.5 6.5 28.93 10.88 25.5 8.5 19.32 12.62 16.5 10.5 6.5 16.5 6.5 26.5 17.5 38.5 48.5 28.5 48.5 14.5 35.5 6.5" fill="none" stroke="#323232" stroke-linejoin="round"/>
  </g>
  <g id="ah" data-name="GrantChart">
    <rect x="13.5" y="34.5" width="26" height="20" fill="#fff" opacity=".5" stroke="#fff" stroke-linejoin="round" stroke-width="3"/>
    <rect x="13.5" y="37.5" width="26" height="17" fill="url(#ai)" stroke="#323232" stroke-linejoin="round"/>
    <rect x="13.5" y="34.5" width="26" height="3" fill="url(#a)" stroke="#003755" stroke-linejoin="round"/>
    <rect x="19" y="39" width="1" height="14" fill="#646464" opacity=".5" stroke-width="0"/>
    <rect x="26" y="39" width="1" height="14" fill="#646464" opacity=".5" stroke-width="0"/>
    <rect x="33" y="39" width="1" height="14" fill="#646464" opacity=".5" stroke-width="0"/>
    <rect x="15" y="41" width="14" height="2" fill="url(#aj)" stroke-width="0"/>
    <rect x="25" y="45" width="9" height="2" fill="url(#ak)" stroke-width="0"/>
    <rect x="29" y="49" width="9" height="2" fill="url(#al)" stroke-width="0"/>
  </g>
  <g id="am" data-name="Supervisor">
    <path d="M54.21,43.21l-1.61-1.61c1.18-1.18,1.9-2.8,1.9-4.6,0-3.59-2.91-6.5-6.5-6.5s-6.5,2.91-6.5,6.5c0,1.79.73,3.42,1.9,4.6l-1.61,1.61c-2.01,1.28-3.29,3.17-3.29,5.29v6c0,1.66,4.25,3,9.5,3s9.5-1.34,9.5-3v-6c0-2.11-1.28-4.01-3.29-5.29Z" fill="#fff" opacity=".5" stroke="#fff" stroke-linejoin="round" stroke-width="3"/>
    <path d="M48,41.5c-5.25,0-9.5,3.13-9.5,7v6c0,1.66,4.25,3,9.5,3s9.5-1.34,9.5-3v-6c0-3.87-4.25-7-9.5-7Z" fill="url(#an)" stroke="#787878" stroke-linejoin="round"/>
    <path d="M48,46c2.31,0,4.42-.88,6.01-2.32-1.6-1.04-3.7-1.68-6.01-1.68s-4.42.64-6.01,1.68c1.6,1.44,3.7,2.32,6.01,2.32Z" fill="url(#ao)" opacity=".3" stroke-width="0"/>
    <circle cx="48" cy="37" r="6.5" fill="url(#ap)" stroke="#787878" stroke-linejoin="round"/>
    <polygon points="48 49.5 46.5 47.7 46.5 52.5 48 54.5 49.5 52.5 49.5 47.7 48 49.5" fill="url(#h)" stroke="#323232" stroke-linejoin="round"/>
    <polygon points="48 49.5 45.5 46.5 48 44.5 50.5 46.5 48 49.5" fill="url(#h)" stroke="#323232" stroke-linejoin="round"/>
    <polygon points="52.6 41.6 54.5 43.5 51.5 48.5 49 44.5 52.6 41.6" fill="url(#n)" stroke="#787878" stroke-linejoin="round"/>
    <polygon points="43.4 41.6 41.5 43.5 44.5 48.5 47 44.5 43.4 41.6" fill="url(#n)" stroke="#787878" stroke-linejoin="round"/>
    <path d="M54.21,43.21l-1.61-1.61c1.18-1.18,1.9-2.8,1.9-4.6,0-3.59-2.91-6.5-6.5-6.5s-6.5,2.91-6.5,6.5c0,1.79.73,3.42,1.9,4.6l-1.61,1.61c-2.01,1.28-3.29,3.17-3.29,5.29v6c0,1.66,4.25,3,9.5,3s9.5-1.34,9.5-3v-6c0-2.11-1.28-4.01-3.29-5.29Z" fill="none" stroke="#323232" stroke-linejoin="round"/>
  </g>
</svg>