<?xml version="1.0" encoding="UTF-8"?>
<svg id="Layer_2" data-name="Layer 2" xmlns="http://www.w3.org/2000/svg" xmlns:xlink="http://www.w3.org/1999/xlink" viewBox="0 0 64 64">
  <defs>
    <style>
      .cls-1, .cls-2 {
        opacity: .3;
      }

      .cls-3 {
        fill: #003755;
      }

      .cls-4, .cls-5, .cls-6, .cls-7 {
        fill: #fff;
      }

      .cls-5 {
        stroke: #fff;
        stroke-width: 3px;
      }

      .cls-5, .cls-6, .cls-8, .cls-9 {
        stroke-linejoin: round;
      }

      .cls-10 {
        fill: none;
      }

      .cls-6, .cls-9 {
        stroke-linecap: round;
      }

      .cls-6, .cls-9, .cls-7 {
        stroke: #000;
      }

      .cls-8 {
        fill: url(#linear-gradient);
        stroke: #323232;
      }

      .cls-11 {
        opacity: .2;
      }

      .cls-12 {
        fill: url(#linear-gradient-3);
        stroke: #003755;
        stroke-miterlimit: 10;
      }

      .cls-13 {
        fill: #2d6d8b;
      }

      .cls-7 {
        stroke-miterlimit: 1;
      }

      .cls-14 {
        clip-path: url(#clippath);
      }

      .cls-2 {
        fill: url(#linear-gradient-2);
      }
    </style>
    <clipPath id="clippath">
      <polygon class="cls-10" points="58.28 33 58.29 58.25 6.28 58.25 6.28 37.99 8.09 37.99 13.14 32.99 58.28 33"/>
    </clipPath>
    <linearGradient id="linear-gradient" x1="20.65" y1="11.54" x2="44.83" y2="53.43" gradientUnits="userSpaceOnUse">
      <stop offset="0" stop-color="#fff"/>
      <stop offset="1" stop-color="#d4d5d3"/>
    </linearGradient>
    <linearGradient id="linear-gradient-2" x1="32.74" y1="43.06" x2="32.74" y2="23.53" gradientUnits="userSpaceOnUse">
      <stop offset="0" stop-color="#fff"/>
      <stop offset="1" stop-color="#000"/>
    </linearGradient>
    <linearGradient id="linear-gradient-3" x1="11.84" y1="27.61" x2="16.04" y2="31.97" gradientUnits="userSpaceOnUse">
      <stop offset="0" stop-color="#8cd7f5"/>
      <stop offset=".45" stop-color="#4f93b1"/>
      <stop offset=".72" stop-color="#2d6d8b"/>
    </linearGradient>
  </defs>
  <g id="ROUE_Parametres_" data-name="ROUE Parametres ****">
    <g class="cls-14">
      <path class="cls-5" d="M49.37,41.47c0,.63.11,1.24.35,1.84.23.59.59,1.14,1.09,1.64l1.69,1.69c-1.56,2.19-3.42,4.05-5.61,5.61l-1.69-1.69c-.49-.5-1.04-.86-1.64-1.09-.6-.23-1.21-.35-1.84-.35-.66,0-1.29.11-1.89.35-.6.23-1.12.57-1.59,1.02-.47.45-.84.97-1.12,1.59s-.42,1.28-.42,2.01v2.38c-.66.1-1.32.18-1.99.25-.66.07-1.32.1-1.99.1s-1.32-.03-1.99-.1c-.66-.06-1.32-.15-1.99-.25v-2.38c0-.73-.14-1.4-.42-2.01-.28-.61-.66-1.14-1.12-1.59s-1-.79-1.61-1.02c-.61-.23-1.23-.35-1.86-.35s-1.24.11-1.84.35c-.6.23-1.14.59-1.64,1.09l-1.69,1.69c-2.19-1.56-4.05-3.42-5.61-5.61l1.69-1.69c.5-.5.86-1.05,1.09-1.64.23-.6.35-1.21.35-1.84s-.12-1.25-.35-1.86-.57-1.15-1.02-1.62c-.45-.46-.98-.84-1.59-1.12-.61-.28-1.28-.42-2.01-.42h-2.38c-.1-.67-.18-1.33-.25-1.99-.07-.66-.1-1.32-.1-1.99s.03-1.32.1-1.98c.07-.66.15-1.32.25-1.99h2.38c.73,0,1.4-.14,2.01-.42.61-.28,1.14-.65,1.59-1.12.45-.46.79-.99,1.02-1.59.23-.59.35-1.22.35-1.88s-.12-1.24-.35-1.84-.59-1.14-1.09-1.64l-1.69-1.69c1.56-2.19,3.42-4.05,5.61-5.61l1.69,1.69c.49.5,1.04.86,1.64,1.09.6.23,1.21.35,1.84.35s1.25-.11,1.86-.35c.61-.23,1.15-.57,1.61-1.02s.84-.97,1.12-1.56c.28-.59.42-1.27.42-2.04v-2.38c.66-.1,1.32-.18,1.99-.25.66-.07,1.32-.1,1.99-.1s1.32.04,1.99.1c.66.06,1.32.15,1.99.25v2.38c0,.76.14,1.45.42,2.06.28.61.65,1.14,1.12,1.56.46.43.99.76,1.59.99.6.23,1.22.35,1.89.35.6,0,1.2-.11,1.81-.32.61-.21,1.17-.57,1.66-1.07l1.69-1.74c2.19,1.56,4.05,3.42,5.61,5.61l-1.69,1.69c-.5.5-.86,1.05-1.09,1.64-.23.59-.35,1.21-.35,1.84,0,.66.11,1.29.35,1.88.23.6.57,1.13,1.02,1.59.45.46.97.84,1.56,1.12.59.28,1.27.42,2.04.42h2.38c.1.67.18,1.33.25,1.99.07.66.1,1.32.1,1.98s-.03,1.33-.1,1.99c-.07.66-.15,1.32-.25,1.99h-2.38c-.76,0-1.44.14-2.04.42-.6.28-1.12.65-1.56,1.12-.45.46-.79,1-1.02,1.62-.23.61-.35,1.23-.35,1.86ZM32.74,39.89c1.02,0,1.97-.19,2.87-.59s1.68-.92,2.35-1.59c.67-.67,1.2-1.45,1.59-2.35.39-.9.59-1.86.59-2.88s-.2-1.97-.59-2.87c-.39-.9-.92-1.68-1.59-2.35-.67-.67-1.45-1.2-2.35-1.59s-1.86-.59-2.87-.59-1.97.19-2.87.59c-.9.39-1.68.92-2.35,1.59-.67.67-1.2,1.45-1.59,2.35-.39.9-.59,1.86-.59,2.87s.2,1.98.59,2.88c.39.9.92,1.68,1.59,2.35.67.67,1.45,1.2,2.35,1.59.9.39,1.86.59,2.87.59Z"/>
      <path class="cls-8" d="M49.37,41.47c0,.63.11,1.24.35,1.84.23.59.59,1.14,1.09,1.64l1.69,1.69c-1.56,2.19-3.42,4.05-5.61,5.61l-1.69-1.69c-.49-.5-1.04-.86-1.64-1.09-.6-.23-1.21-.35-1.84-.35-.66,0-1.29.11-1.89.35-.6.23-1.12.57-1.59,1.02-.47.45-.84.97-1.12,1.59s-.42,1.28-.42,2.01v2.38c-.66.1-1.32.18-1.99.25-.66.07-1.32.1-1.99.1s-1.32-.03-1.99-.1c-.66-.06-1.32-.15-1.99-.25v-2.38c0-.73-.14-1.4-.42-2.01-.28-.61-.66-1.14-1.12-1.59s-1-.79-1.61-1.02c-.61-.23-1.23-.35-1.86-.35s-1.24.11-1.84.35c-.6.23-1.14.59-1.64,1.09l-1.69,1.69c-2.19-1.56-4.05-3.42-5.61-5.61l1.69-1.69c.5-.5.86-1.05,1.09-1.64.23-.6.35-1.21.35-1.84s-.12-1.25-.35-1.86-.57-1.15-1.02-1.62c-.45-.46-.98-.84-1.59-1.12-.61-.28-1.28-.42-2.01-.42h-2.38c-.1-.67-.18-1.33-.25-1.99-.07-.66-.1-1.32-.1-1.99s.03-1.32.1-1.98c.07-.66.15-1.32.25-1.99h2.38c.73,0,1.4-.14,2.01-.42.61-.28,1.14-.65,1.59-1.12.45-.46.79-.99,1.02-1.59.23-.59.35-1.22.35-1.88s-.12-1.24-.35-1.84-.59-1.14-1.09-1.64l-1.69-1.69c1.56-2.19,3.42-4.05,5.61-5.61l1.69,1.69c.49.5,1.04.86,1.64,1.09.6.23,1.21.35,1.84.35s1.25-.11,1.86-.35c.61-.23,1.15-.57,1.61-1.02s.84-.97,1.12-1.56c.28-.59.42-1.27.42-2.04v-2.38c.66-.1,1.32-.18,1.99-.25.66-.07,1.32-.1,1.99-.1s1.32.04,1.99.1c.66.06,1.32.15,1.99.25v2.38c0,.76.14,1.45.42,2.06.28.61.65,1.14,1.12,1.56.46.43.99.76,1.59.99.6.23,1.22.35,1.89.35.6,0,1.2-.11,1.81-.32.61-.21,1.17-.57,1.66-1.07l1.69-1.74c2.19,1.56,4.05,3.42,5.61,5.61l-1.69,1.69c-.5.5-.86,1.05-1.09,1.64-.23.59-.35,1.21-.35,1.84,0,.66.11,1.29.35,1.88.23.6.57,1.13,1.02,1.59.45.46.97.84,1.56,1.12.59.28,1.27.42,2.04.42h2.38c.1.67.18,1.33.25,1.99.07.66.1,1.32.1,1.98s-.03,1.33-.1,1.99c-.07.66-.15,1.32-.25,1.99h-2.38c-.76,0-1.44.14-2.04.42-.6.28-1.12.65-1.56,1.12-.45.46-.79,1-1.02,1.62-.23.61-.35,1.23-.35,1.86ZM32.74,39.89c1.02,0,1.97-.19,2.87-.59s1.68-.92,2.35-1.59c.67-.67,1.2-1.45,1.59-2.35.39-.9.59-1.86.59-2.88s-.2-1.97-.59-2.87c-.39-.9-.92-1.68-1.59-2.35-.67-.67-1.45-1.2-2.35-1.59s-1.86-.59-2.87-.59-1.97.19-2.87.59c-.9.39-1.68.92-2.35,1.59-.67.67-1.2,1.45-1.59,2.35-.39.9-.59,1.86-.59,2.87s.2,1.98.59,2.88c.39.9.92,1.68,1.59,2.35.67.67,1.45,1.2,2.35,1.59.9.39,1.86.59,2.87.59Z"/>
      <path class="cls-8" d="M49.37,41.47c0,.63.11,1.24.35,1.84.23.59.59,1.14,1.09,1.64l1.69,1.69c-1.56,2.19-3.42,4.05-5.61,5.61l-1.69-1.69c-.49-.5-1.04-.86-1.64-1.09-.6-.23-1.21-.35-1.84-.35-.66,0-1.29.11-1.89.35-.6.23-1.12.57-1.59,1.02-.47.45-.84.97-1.12,1.59s-.42,1.28-.42,2.01v2.38c-.66.1-1.32.18-1.99.25-.66.07-1.32.1-1.99.1s-1.32-.03-1.99-.1c-.66-.06-1.32-.15-1.99-.25v-2.38c0-.73-.14-1.4-.42-2.01-.28-.61-.66-1.14-1.12-1.59s-1-.79-1.61-1.02c-.61-.23-1.23-.35-1.86-.35s-1.24.11-1.84.35c-.6.23-1.14.59-1.64,1.09l-1.69,1.69c-2.19-1.56-4.05-3.42-5.61-5.61l1.69-1.69c.5-.5.86-1.05,1.09-1.64.23-.6.35-1.21.35-1.84s-.12-1.25-.35-1.86-.57-1.15-1.02-1.62c-.45-.46-.98-.84-1.59-1.12-.61-.28-1.28-.42-2.01-.42h-2.38c-.1-.67-.18-1.33-.25-1.99-.07-.66-.1-1.32-.1-1.99s.03-1.32.1-1.98c.07-.66.15-1.32.25-1.99h2.38c.73,0,1.4-.14,2.01-.42.61-.28,1.14-.65,1.59-1.12.45-.46.79-.99,1.02-1.59.23-.59.35-1.22.35-1.88s-.12-1.24-.35-1.84-.59-1.14-1.09-1.64l-1.69-1.69c1.56-2.19,3.42-4.05,5.61-5.61l1.69,1.69c.49.5,1.04.86,1.64,1.09.6.23,1.21.35,1.84.35s1.25-.11,1.86-.35c.61-.23,1.15-.57,1.61-1.02s.84-.97,1.12-1.56c.28-.59.42-1.27.42-2.04v-2.38c.66-.1,1.32-.18,1.99-.25.66-.07,1.32-.1,1.99-.1s1.32.04,1.99.1c.66.06,1.32.15,1.99.25v2.38c0,.76.14,1.45.42,2.06.28.61.65,1.14,1.12,1.56.46.43.99.76,1.59.99.6.23,1.22.35,1.89.35.6,0,1.2-.11,1.81-.32.61-.21,1.17-.57,1.66-1.07l1.69-1.74c2.19,1.56,4.05,3.42,5.61,5.61l-1.69,1.69c-.5.5-.86,1.05-1.09,1.64-.23.59-.35,1.21-.35,1.84,0,.66.11,1.29.35,1.88.23.6.57,1.13,1.02,1.59.45.46.97.84,1.56,1.12.59.28,1.27.42,2.04.42h2.38c.1.67.18,1.33.25,1.99.07.66.1,1.32.1,1.98s-.03,1.33-.1,1.99c-.07.66-.15,1.32-.25,1.99h-2.38c-.76,0-1.44.14-2.04.42-.6.28-1.12.65-1.56,1.12-.45.46-.79,1-1.02,1.62-.23.61-.35,1.23-.35,1.86Z"/>
      <g class="cls-11">
        <path d="M16.75,21.28c.15.39.25.78.32,1.18.06-.35.1-.71.1-1.07,0-.76-.14-1.5-.42-2.22-.28-.73-.73-1.4-1.33-2l-.05-.05c-.33.37-.68.73-.99,1.13l1.04,1.04c.6.6,1.05,1.27,1.33,2Z"/>
        <path d="M48.74,19.16c-.28.71-.42,1.46-.42,2.22,0,.37.04.73.1,1.08.07-.4.17-.8.33-1.19.28-.72.72-1.39,1.32-2l1.05-1.04c-.31-.4-.66-.75-.99-1.13l-.05.05c-.6.6-1.05,1.28-1.32,2Z"/>
        <path d="M55.92,32.25c-.04.34-.07.69-.12,1.03h-1.46c-.92,0-1.76.18-2.49.52-.71.34-1.34.78-1.87,1.34-.55.57-.97,1.23-1.24,1.97-.28.73-.42,1.48-.42,2.24,0,.35.04.7.1,1.05.07-.4.17-.79.32-1.17.28-.74.7-1.4,1.24-1.97.53-.55,1.16-1,1.87-1.34.73-.35,1.57-.52,2.49-.52h1.46c.04-.34.08-.69.12-1.03.06-.63.09-1.25.09-1.88,0-.35-.03-.7-.05-1.06-.02.27-.01.55-.04.82Z"/>
        <path d="M16.75,39.23c.15.39.25.78.32,1.17.06-.35.1-.7.1-1.05,0-.75-.14-1.5-.42-2.24-.28-.75-.7-1.41-1.24-1.97-.54-.56-1.18-1.01-1.91-1.34-.75-.34-1.57-.52-2.45-.52h-1.46c-.04-.34-.08-.69-.12-1.04-.03-.27-.03-.55-.04-.82-.02.35-.05.71-.05,1.06,0,.63.03,1.25.09,1.88.04.35.07.69.12,1.04h1.46c.88,0,1.71.17,2.45.52.73.33,1.37.79,1.91,1.34.54.56.96,1.23,1.24,1.97Z"/>
        <path d="M46.99,48.73l-1.04-1.04c-.6-.6-1.28-1.05-2-1.33-1.46-.57-3.1-.55-4.49,0-.72.28-1.38.7-1.94,1.24-.56.54-1.01,1.18-1.34,1.91-.34.75-.52,1.57-.52,2.45v1.46c-.34.04-.69.08-1.03.12-1.26.13-2.5.13-3.76,0-.34-.03-.69-.07-1.03-.11v-1.46c0-.87-.18-1.7-.52-2.45-.33-.73-.79-1.37-1.34-1.91-.57-.55-1.23-.97-1.97-1.24-1.46-.56-3.04-.55-4.46,0-.73.28-1.41.73-2.01,1.33l-1.04,1.04c-1.15-.89-2.17-1.91-3.12-2.99l-.99.99c1.19,1.54,2.57,2.92,4.11,4.11l1.04-1.04c.59-.6,1.27-1.05,2.01-1.33,1.42-.55,3-.56,4.46,0,.74.27,1.4.69,1.97,1.24.56.54,1.01,1.18,1.34,1.91.34.75.52,1.58.52,2.45v1.46c.34.04.69.08,1.03.11,1.26.13,2.51.13,3.76,0,.34-.04.69-.07,1.03-.12v-1.46c0-.88.18-1.7.52-2.45.33-.73.78-1.37,1.34-1.91.57-.55,1.22-.96,1.94-1.24,1.39-.54,3.03-.57,4.49,0,.73.28,1.4.73,2,1.33l1.04,1.04c1.54-1.19,2.92-2.57,4.11-4.11l-.99-.99c-.96,1.08-1.98,2.1-3.12,2.99Z"/>
      </g>
      <g class="cls-1">
        <path class="cls-4" d="M48.73,25.76c-.15-.38-.25-.78-.32-1.19-.06.34-.1.69-.1,1.04,0,.8.14,1.56.42,2.26.28.73.7,1.38,1.24,1.95.53.55,1.16,1,1.87,1.34.74.35,1.57.52,2.49.52h1.46c.04.34.08.69.12,1.03.03.27.03.55.04.82.02-.35.05-.7.05-1.06,0-.63-.03-1.25-.09-1.88-.04-.34-.07-.69-.12-1.03h-1.46c-.92,0-1.75-.18-2.49-.52-.71-.34-1.34-.78-1.87-1.34-.55-.57-.96-1.22-1.24-1.95Z"/>
        <path class="cls-4" d="M18.49,16.23l1.04,1.04c.6.6,1.28,1.05,2,1.33,1.43.56,3.01.56,4.45,0,.74-.28,1.41-.7,1.98-1.25.55-.54,1-1.17,1.34-1.87.35-.74.52-1.58.52-2.49v-1.46c.34-.04.69-.08,1.04-.12,1.25-.13,2.49-.13,3.76,0,.34.03.68.07,1.03.11v1.46c0,.92.18,1.76.52,2.5.34.74.8,1.38,1.36,1.9.56.53,1.21.93,1.92,1.21,1.36.53,2.92.57,4.43.04.76-.27,1.45-.71,2.07-1.33l1.04-1.07c1.14.88,2.16,1.9,3.11,2.98l.99-.99c-1.19-1.54-2.57-2.92-4.1-4.11l-1.04,1.07c-.62.62-1.31,1.06-2.07,1.33-1.51.54-3.07.49-4.43-.04-.71-.27-1.36-.68-1.92-1.21-.56-.51-1.02-1.15-1.36-1.9-.34-.74-.52-1.58-.52-2.5v-1.46c-.34-.04-.68-.08-1.03-.11-1.27-.13-2.51-.13-3.76,0-.35.03-.69.07-1.04.12v1.46c0,.91-.18,1.75-.52,2.49-.33.71-.78,1.33-1.34,1.87-.57.55-1.24.97-1.98,1.25-1.44.55-3.02.55-4.45,0-.73-.28-1.4-.73-2-1.33l-1.04-1.04c-1.54,1.19-2.92,2.57-4.11,4.11l.99.99c.96-1.08,1.98-2.1,3.12-2.99Z"/>
        <path class="cls-4" d="M48.73,43.69c-.15-.38-.25-.77-.32-1.17-.06.35-.1.71-.1,1.06,0,.76.14,1.51.42,2.22.28.73.73,1.4,1.33,2.01l.05.05c.33-.37.68-.73.99-1.13l-1.04-1.04c-.6-.61-1.05-1.28-1.33-2.01Z"/>
        <path class="cls-4" d="M16.75,45.8c.28-.72.42-1.47.42-2.22,0-.35-.04-.71-.1-1.06-.07.39-.17.78-.32,1.17-.28.73-.73,1.4-1.33,2l-1.05,1.04c.31.4.66.75.99,1.13l.05-.05c.6-.6,1.04-1.27,1.33-2Z"/>
        <path class="cls-4" d="M9.57,32.72c.04-.34.07-.69.12-1.03h1.46c.88,0,1.7-.17,2.45-.52.73-.33,1.37-.79,1.91-1.34.54-.56.96-1.22,1.24-1.94.28-.72.42-1.48.42-2.27,0-.35-.04-.7-.1-1.04-.07.41-.17.81-.32,1.19-.28.73-.7,1.38-1.24,1.94-.54.56-1.18,1.01-1.91,1.34-.75.34-1.58.52-2.45.52h-1.46c-.04.34-.08.69-.12,1.03-.06.63-.09,1.25-.09,1.88,0,.35.03.71.05,1.06.02-.27.01-.55.04-.82Z"/>
      </g>
      <path class="cls-2" d="M32.74,21.9c-5.84,0-10.58,4.74-10.58,10.58s4.74,10.58,10.58,10.58,10.58-4.74,10.58-10.58-4.74-10.58-10.58-10.58ZM32.74,40.94c-4.67,0-8.46-3.79-8.46-8.46s3.79-8.46,8.46-8.46,8.46,3.79,8.46,8.46-3.79,8.46-8.46,8.46Z"/>
    </g>
  </g>
  <g id="BARRE">
    <polygon class="cls-13" points="58.29 34 6 34 7 32 58.29 32.01 58.29 34"/>
    <rect class="cls-3" x="27.28" y="26.26" width="3.97" height="3.94"/>
    <rect class="cls-3" x="36.28" y="13.26" width="3.98" height="16.94"/>
    <rect class="cls-3" x="45.36" y="22.24" width="3.76" height="7.93"/>
    <rect class="cls-3" x="54.29" y="6.23" width="3.98" height="23.99"/>
  </g>
  <g id="Layer_3" data-name="Layer 3">
    <polygon class="cls-9" points="6.73 10.88 10.61 15.04 13.97 15.06 13.97 11.76 9.97 7.82 9.97 6.74 15.43 7.82 19.76 11.81 19.76 16.7 31.95 28.75 36.09 28.75 40.81 32.94 40.81 37.76 36.71 33.83 32.82 33.83 32.82 37.73 35.8 39.85 35.8 40.81 30.89 40.82 27.83 37.74 27.83 32.84 15.68 20.72 10.76 20.72 6.73 16.52 6.73 10.88"/>
    <polygon class="cls-6" points="6.73 9.79 10.61 13.95 13.97 13.98 13.97 10.68 9.97 6.74 15.43 6.74 19.76 10.72 19.76 15.61 31.95 27.66 36.09 27.66 40.81 31.86 40.8 36.68 36.71 32.75 32.82 32.75 32.82 36.65 35.8 39.73 30.89 39.74 27.83 36.66 27.83 31.76 15.68 19.64 10.76 19.64 6.73 15.44 6.73 9.79"/>
    <polygon class="cls-7" points="17.59 24.46 31.82 10.15 31.93 7.78 35.88 5.34 38.27 7.78 35.9 11.74 33.51 11.74 19.23 26.15 17.59 24.46"/>
    <path class="cls-12" d="M6.69,34.05l2.97,2.99c.32.31.82.31,1.13-.01l10.38-10.4c.3-.31.3-.8,0-1.12l-2.95-2.97c-.31-.32-.82-.33-1.14-.01l-10.4,10.38c-.32.31-.31.82,0,1.14Z"/>
  </g>
</svg>