<?xml version="1.0" encoding="UTF-8"?>
<svg xmlns="http://www.w3.org/2000/svg" xmlns:xlink="http://www.w3.org/1999/xlink" viewBox="0 0 64 64">
  <defs>
    <style>
      .cls-1 {
        fill: url(#linear-gradient-5);
      }

      .cls-1, .cls-2, .cls-3, .White_SINGLE_14, .cls-4, .White_SINGLE, .Blue_RIGHT_FRONT_SINGLE, .cls-5, .cls-6 {
        stroke-linejoin: round;
      }

      .cls-1, .cls-2, .Blue_RIGHT_FRONT_SINGLE {
        stroke: #003755;
      }

      .cls-2 {
        fill: url(#linear-gradient-4);
      }

      .cls-3 {
        fill: #787878;
        stroke: #787878;
      }

      .White_SINGLE_14 {
        fill: url(#linear-gradient-3);
      }

      .White_SINGLE_14, .cls-4, .White_SINGLE {
        stroke: #323232;
      }

      .cls-4 {
        fill: url(#linear-gradient-6);
      }

      .White_SINGLE {
        fill: url(#linear-gradient-2);
      }

      .Blue_RIGHT_FRONT_SINGLE {
        fill: url(#linear-gradient);
      }

      .De-emphasized_GREY_fill {
        fill: #646464;
        opacity: .5;
      }

      .De-emphasized_GREY_fill, .cls-7, .cls-8 {
        stroke-width: 0px;
      }

      .cls-7 {
        fill: url(#linear-gradient-8);
      }

      .cls-8 {
        fill: url(#linear-gradient-7);
      }

      .cls-5 {
        stroke: #333332;
      }

      .cls-5, .cls-6 {
        fill: none;
        stroke-linecap: round;
      }

      .cls-6 {
        stroke: #797979;
      }
    </style>
    <linearGradient id="linear-gradient" x1="25.33" y1=".94" x2="38.67" y2="24.06" gradientUnits="userSpaceOnUse">
      <stop offset="0" stop-color="#8cd7f5"/>
      <stop offset="1" stop-color="#376e8c"/>
    </linearGradient>
    <linearGradient id="linear-gradient-2" x1="17.96" y1="5.19" x2="46.04" y2="53.81" gradientUnits="userSpaceOnUse">
      <stop offset="0" stop-color="#fff"/>
      <stop offset="1" stop-color="#d4d5d3"/>
    </linearGradient>
    <linearGradient id="linear-gradient-3" x1="41.51" y1="37.85" x2="51.49" y2="55.15" xlink:href="#linear-gradient-2"/>
    <linearGradient id="linear-gradient-4" x1="29.6" y1="27.98" x2="35.4" y2="38.02" xlink:href="#linear-gradient"/>
    <linearGradient id="linear-gradient-5" x1="34.23" y1="36.19" x2="39.77" y2="45.81" xlink:href="#linear-gradient"/>
    <linearGradient id="linear-gradient-6" x1="41.51" y1="37.85" x2="51.49" y2="55.15" xlink:href="#linear-gradient-2"/>
    <linearGradient id="linear-gradient-7" x1="9.3" y1="47.97" x2="22.26" y2="47.97" gradientUnits="userSpaceOnUse">
      <stop offset="0" stop-color="#bebebe"/>
      <stop offset=".26" stop-color="#f0f0f0"/>
      <stop offset=".54" stop-color="#c8c8c8"/>
      <stop offset=".84" stop-color="#dcdcdc"/>
      <stop offset="1" stop-color="#aaa"/>
    </linearGradient>
    <linearGradient id="linear-gradient-8" x1="13.71" y1="36.05" x2="17.45" y2="42.52" gradientUnits="userSpaceOnUse">
      <stop offset="0" stop-color="#aaa"/>
      <stop offset=".49" stop-color="#f0f0f0"/>
      <stop offset="1" stop-color="#aaa"/>
    </linearGradient>
  </defs>
  <g id="Layer_5" data-name="Layer 5">
    <rect class="White_SINGLE" x="10.5" y="9.5" width="43" height="40"/>
    <rect class="De-emphasized_GREY_fill" x="11" y="25" width="42" height="1"/>
    <rect class="De-emphasized_GREY_fill" x="11" y="34" width="42" height="1"/>
    <rect class="cls-3" x="23.5" y="15.5" width="0" height="32"/>
    <rect class="cls-3" x="38.5" y="15.5" width="0" height="32"/>
    <rect class="De-emphasized_GREY_fill" x="11" y="42" width="42" height="1"/>
    <rect class="Blue_RIGHT_FRONT_SINGLE" x="10.5" y="9.5" width="43" height="6"/>
    <rect class="Blue_RIGHT_FRONT_SINGLE" x="16.5" y="22.5" width="16" height="3"/>
    <rect class="cls-2" x="23.5" y="31.5" width="18" height="3"/>
    <rect class="cls-1" x="28.5" y="39.5" width="17" height="3"/>
  </g>
  <g id="Layer_9" data-name="Layer 9">
    <path class="cls-4" d="M53.84,48.41h2.47c.14-.62.19-1.19.19-1.9s-.05-1.29-.19-1.91h-2.47c-.81,0-1.1-1-1.1-1.24s.1-.48.29-.67l1.76-1.81c-.38-.52-.81-.9-1.24-1.43-.52-.43-.9-.86-1.43-1.24l-1.81,1.76c-.19.19-.43.29-.67.29-.33,0-1.24-.29-1.24-1.09v-2.48c-.62-.14-1.19-.19-1.9-.19s-1.29.05-1.9.19v2.48c0,.81-1,1.09-1.24,1.09s-.48-.1-.67-.29l-1.81-1.76c-.52.38-1.05.76-1.47,1.19-.43.43-.86.95-1.19,1.48l1.76,1.81c.19.19.29.43.29.67,0,.33-.33,1.24-1.09,1.24h-2.48c-.14.52-.19,1.19-.19,1.91s.05,1.38.19,1.9h2.48c.81,0,1.09,1,1.09,1.24s-.1.48-.29.67l-1.76,1.81c.33.52.67,1.05,1.19,1.48.43.52.95.86,1.47,1.19l1.81-1.76c.19-.19.43-.29.67-.29.33,0,1.24.33,1.24,1.1v2.47c.52.14,1.19.19,1.9.19s1.38-.05,1.9-.19v-2.47c0-.81,1-1.1,1.24-1.1s.48.1.67.29l1.81,1.76c.52-.33.91-.71,1.43-1.24.48-.48.9-.95,1.24-1.43l-1.76-1.81c-.19-.19-.29-.43-.29-.67,0-.33.29-1.24,1.1-1.24ZM46.5,49.98c-1.9,0-3.48-1.57-3.48-3.48s1.57-3.48,3.48-3.48,3.48,1.57,3.48,3.48-1.57,3.48-3.48,3.48Z"/>
  </g>
  <g id="Layer_8" data-name="Layer 8">
    <g>
      <path class="cls-8" d="M7.5,39.44v14.12c0,1.62,3.58,2.94,8,2.94s8-1.32,8-2.94v-14.12H7.5Z"/>
      <ellipse class="cls-7" cx="15.5" cy="39.15" rx="8" ry="2.65"/>
      <path class="cls-6" d="M7.5,43.85c0,1.46,3.58,2.65,8,2.65s8-1.19,8-2.65"/>
      <path class="cls-6" d="M7.5,49c0,1.46,3.58,2.65,8,2.65s8-1.19,8-2.65"/>
      <path class="cls-6" d="M7.5,38.92c0,1.46,3.58,2.65,8,2.65,3.82,0,7.02-.89,7.81-2.07"/>
      <path class="cls-5" d="M15.5,36.5c-4.42,0-8,1.32-8,2.94v14.12c0,1.62,3.58,2.94,8,2.94s8-1.32,8-2.94v-14.12c0-1.62-3.58-2.94-8-2.94Z"/>
    </g>
  </g>
</svg>