<?xml version="1.0" encoding="UTF-8"?>
<svg id="Layer_8" xmlns="http://www.w3.org/2000/svg" xmlns:xlink="http://www.w3.org/1999/xlink" viewBox="0 0 64 64">
  <defs>
    <style>
      .White_SINGLE_14 {
        fill: url(#linear-gradient-2);
        stroke: #323232;
      }

      .White_SINGLE_14, .Blue_RIGHT_FRONT_or_SINGLE_15 {
        stroke-linejoin: round;
      }

      .Blue_RIGHT_FRONT_or_SINGLE_15 {
        fill: url(#linear-gradient);
        stroke: #053755;
      }
    </style>
    <linearGradient id="linear-gradient" x1="34" y1="25.24" x2="49.68" y2="52.39" gradientUnits="userSpaceOnUse">
      <stop offset="0" stop-color="#8dd7f4"/>
      <stop offset="1" stop-color="#386e8c"/>
    </linearGradient>
    <linearGradient id="linear-gradient-2" x1="15.81" y1="14.93" x2="28.81" y2="37.45" gradientUnits="userSpaceOnUse">
      <stop offset="0" stop-color="#fff"/>
      <stop offset="1" stop-color="#d4d5d3"/>
    </linearGradient>
  </defs>
  <path class="Blue_RIGHT_FRONT_or_SINGLE_15" d="M53.5,36.5c0-7.18-5.82-13-13-13s-13,5.82-13,13,5.82,13,13,13c.61,0,1.21-.06,1.81-.14l9.57,1.76-3.06-4.64c2.86-2.38,4.68-5.97,4.68-9.99Z"/>
  <path class="White_SINGLE_14" d="M23.5,12.5c-7.18,0-13,5.82-13,13,0,3.97,1.79,7.52,4.59,9.9l-1.34,4.72,7.81-1.79c.63.1,1.28.16,1.94.16,7.18,0,13-5.82,13-13s-5.82-13-13-13Z"/>
  <path d="M16.5,31.39l5.33-13.89h1.98l5.69,13.89h-2.09l-1.62-4.21h-5.81l-1.53,4.21h-1.95ZM20.51,25.69h4.71l-1.45-3.85c-.44-1.17-.77-2.13-.99-2.88-.18.89-.43,1.78-.75,2.65l-1.52,4.07Z"/>
  <path d="M46.78,41.6c-1.53-1.5-2.88-2.81-3.65-5.84h5.37v-2.26h-5.33v-2.99h-2.3v3.03h-5.37v2.26h5.48s-.04.44-.11.77c-.77,2.99-1.68,4.89-5.37,6.76l.77,2.26c3.51-1.86,5.33-4.2,6.13-6.79.77,1.97,2.08,3.58,3.58,5.04l.8-2.23h0Z"/>
</svg>