<?xml version="1.0" encoding="UTF-8"?><svg id="ok_on_copy" xmlns="http://www.w3.org/2000/svg" xmlns:xlink="http://www.w3.org/1999/xlink" viewBox="0 0 64 64"><defs><style>.cls-1{fill:url(#linear-gradient-2);}.cls-2{fill:#fff;}.cls-3{fill:#409f1d;}.cls-4{fill:url(#linear-gradient-6);}.cls-5{fill:#323232;}.cls-6{fill:url(#Dark_BLUE_gradient_LEFT_2-2);}.cls-7{fill:#003755;}.cls-8{fill:#aadcfa;}.cls-8,.cls-9,.cls-10,.cls-11,.cls-12,.cls-13,.cls-14,.cls-15,.cls-16,.cls-17,.cls-18{stroke-linejoin:round;}.cls-8,.cls-9,.cls-10,.cls-11,.cls-13,.cls-14,.cls-15,.cls-16,.cls-18{stroke-linecap:round;}.cls-8,.cls-9,.cls-11,.cls-12,.cls-13,.cls-15,.cls-16,.cls-17,.cls-18{stroke:#00415f;}.cls-8,.cls-12,.cls-13,.cls-15,.cls-17{stroke-width:.75px;}.cls-9,.cls-11,.cls-16,.cls-18{stroke-width:.5px;}.cls-9,.cls-13,.cls-17{fill:#5a9ab8;}.cls-10{fill:url(#linear-gradient-7);}.cls-10,.cls-14{stroke:#6d6d6d;stroke-width:.99px;}.cls-19{fill:url(#linear-gradient-10);}.cls-11{fill:url(#linear-gradient-4);}.cls-12,.cls-15,.cls-16{fill:#82bddb;}.cls-14{fill:url(#linear-gradient-9);}.cls-20{clip-path:url(#clippath);}.cls-21,.cls-22{fill:none;}.cls-23{fill:#2d2d2d;}.cls-24{fill:url(#top_white);}.cls-25{fill:url(#New_Gradient_Swatch_1);}.cls-26{fill:url(#white_left);}.cls-22{stroke:#000;stroke-miterlimit:10;stroke-width:.63px;}.cls-27{fill:url(#linear-gradient-3);}.cls-28{fill:url(#linear-gradient);}.cls-29{fill:#6d6d6d;}.cls-30{fill:url(#Dark_BLUE_gradient_LEFT_2-3);}.cls-18{fill:url(#linear-gradient-5);}.cls-31{fill:url(#linear-gradient-8);}.cls-32{fill:url(#Dark_BLUE_gradient_LEFT_2);}</style><clipPath id="clippath"><path class="cls-21" d="m36.38,24h-1.38c-.55,0-1,.45-1,1h0c0,.55-.45,1-1,1h-2c-.55,0-1,.45-1,1v13H5V4h47v18.04l-13.38-.04c-.38,0-.73.21-.9.55l-.45.89c-.17.34-.52.55-.89.55Z"/></clipPath><linearGradient id="linear-gradient" x1="76.51" y1="-11.37" x2="12.47" y2="37.78" gradientUnits="userSpaceOnUse"><stop offset="0" stop-color="#fcfcfc"/><stop offset="1" stop-color="#b3b3b3"/></linearGradient><linearGradient id="linear-gradient-2" x1="23.03" y1="1.76" x2="7.75" y2="26.13" gradientUnits="userSpaceOnUse"><stop offset="0" stop-color="#c9c9c9"/><stop offset="1" stop-color="#737373"/></linearGradient><linearGradient id="linear-gradient-3" x1="36.86" y1="21.32" x2="66.04" y2="21.32" gradientUnits="userSpaceOnUse"><stop offset="0" stop-color="#787878"/><stop offset="1" stop-color="#fcfcfc"/></linearGradient><linearGradient id="linear-gradient-4" x1="26.11" y1="19.81" x2="35.9" y2="19.81" gradientUnits="userSpaceOnUse"><stop offset=".1" stop-color="#195a72"/><stop offset=".5" stop-color="#5a9cb5"/><stop offset="1" stop-color="#93d2f0"/></linearGradient><linearGradient id="linear-gradient-5" x1="6.3" y1="22.32" x2="18.52" y2="22.32" xlink:href="#linear-gradient-4"/><linearGradient id="linear-gradient-6" x1="41.14" y1="9.69" x2="25.29" y2="23.26" xlink:href="#linear-gradient"/><linearGradient id="linear-gradient-7" x1="35.26" y1="19.02" x2="38.14" y2="19.02" xlink:href="#linear-gradient-2"/><linearGradient id="linear-gradient-8" x1="31.67" y1="11.23" x2="17.77" y2="24.11" xlink:href="#linear-gradient"/><linearGradient id="linear-gradient-9" x1="24.94" y1="21.95" x2="27.7" y2="21.95" xlink:href="#linear-gradient-2"/><linearGradient id="linear-gradient-10" x1="21.21" y1="14.55" x2="2.96" y2="28.4" xlink:href="#linear-gradient"/><linearGradient id="top_white" x1="-8863.66" y1="-9213.27" x2="-8826.87" y2="-9149.53" gradientTransform="translate(-4543.86 -4377.86) rotate(-90) scale(.5 -.5)" gradientUnits="userSpaceOnUse"><stop offset="0" stop-color="#fff"/><stop offset="1" stop-color="#f0f0f0"/></linearGradient><linearGradient id="New_Gradient_Swatch_1" x1="32" y1="43" x2="58" y2="43" gradientUnits="userSpaceOnUse"><stop offset="0" stop-color="#464646"/><stop offset=".99" stop-color="#141414"/></linearGradient><linearGradient id="white_left" x1="42.57" y1="23.79" x2="47.43" y2="32.21" gradientUnits="userSpaceOnUse"><stop offset="0" stop-color="#f5f5f5"/><stop offset="1" stop-color="#bebebe"/></linearGradient><linearGradient id="Dark_BLUE_gradient_LEFT_2" x1="45" y1="52" x2="51.37" y2="52" gradientUnits="userSpaceOnUse"><stop offset="0" stop-color="#81bbd9"/><stop offset="1" stop-color="#275a78"/></linearGradient><linearGradient id="Dark_BLUE_gradient_LEFT_2-2" y1="45" y2="45" xlink:href="#Dark_BLUE_gradient_LEFT_2"/><linearGradient id="Dark_BLUE_gradient_LEFT_2-3" y1="38" y2="38" xlink:href="#Dark_BLUE_gradient_LEFT_2"/></defs><g id="Layer_78"><g class="cls-20"><g><path class="cls-28" d="m16.18,38.07c-.16,0-.31-.08-.41-.21l-9.02-12.94c-.09-.13-.11-.3-.06-.45.06-.15.18-.27.34-.31l26.43-7s.08-.02.13-.02c.1,0,.21.03.29.1l14.12,10.34c.15.11.23.3.2.48s-.17.34-.34.39l-31.53,9.6s-.1.02-.14.02Z"/><path class="cls-29" d="m33.59,17.63l14.12,10.34-31.53,9.6-9.02-12.94,26.43-7m0-.99c-.08,0-.17.01-.25.03l-26.43,7c-.31.08-.56.31-.68.62-.11.3-.07.64.12.91l9.02,12.94c.19.27.49.42.81.42.1,0,.19-.01.29-.04l31.53-9.6c.36-.11.62-.41.69-.78.06-.37-.09-.74-.39-.96l-14.12-10.34c-.17-.13-.38-.19-.59-.19h0Z"/></g><polygon class="cls-1" points="7.15 15.7 7.16 24.63 17.56 21.88 7.15 15.7"/><polygon class="cls-27" points="47.7 14.67 47.7 27.97 32.07 16.44 47.7 14.67"/><g><polygon class="cls-13" points="42.58 24.32 42.58 27.28 33.51 30.06 33.51 26.75 42.58 24.32"/><polygon class="cls-8" points="30.61 24.64 33.51 26.75 42.58 24.32 39.33 22.43 30.61 24.64"/><polygon class="cls-15" points="30.61 24.64 30.63 27.57 33.51 30.06 33.51 26.75 30.61 24.64"/></g><g><polygon class="cls-17" points="28.39 28.36 17.73 31.24 17.73 34.65 28.39 31.53 28.39 28.36"/><polygon class="cls-8" points="25.86 26.16 15.33 28.78 17.73 31.24 28.39 28.36 25.86 26.16"/><polygon class="cls-12" points="17.73 34.65 17.73 31.24 15.33 28.78 15.33 31.6 17.73 34.65"/></g><g><polygon class="cls-9" points="28.3 23.71 35.9 21.55 35.9 19.71 28.22 21.62 28.3 23.71"/><polygon class="cls-16" points="26.11 19.44 28.22 21.5 28.22 23.71 26.11 21.27 26.11 19.44"/><polygon class="cls-11" points="33.41 18.01 35.9 19.71 28.22 21.62 26.11 19.44 33.41 18.01"/></g><g><polygon class="cls-9" points="22.9 21.64 22.9 24.92 12.82 27.73 12.82 24.45 22.9 21.64"/><polygon class="cls-18" points="10.67 21.8 12.82 24.45 22.9 21.64 21.51 20.2 10.67 21.8"/><polygon class="cls-16" points="12.82 27.73 10.71 25.01 10.67 21.8 12.82 24.45 12.82 27.73"/></g><g><path class="cls-4" d="m38.14,21.42c-.14,0-.28-.06-.37-.17l-9.63-11.02c-.09-.11-.14-.25-.12-.39s.1-.27.22-.35l5.6-3.68c.08-.05.18-.08.27-.08s.18.02.26.07l13.59,8.44c.14.09.23.25.23.42s-.08.33-.22.42l-9.56,6.26c-.08.05-.18.08-.27.08Z"/><path class="cls-29" d="m34.12,6.23l13.59,8.44-9.56,6.26-9.63-11.02,5.6-3.68m0-.99c-.19,0-.38.05-.54.16l-5.6,3.68c-.24.16-.4.41-.44.69-.04.28.05.57.24.79l9.63,11.02c.19.22.47.34.75.34.19,0,.38-.05.54-.16l9.56-6.26c.28-.19.45-.5.45-.84,0-.34-.18-.65-.47-.83l-13.59-8.44c-.16-.1-.34-.15-.52-.15h0Z"/></g><polygon class="cls-10" points="38.14 16.72 38.14 21.32 35.26 18.75 38.14 16.72"/><g><path class="cls-31" d="m27.7,24.38c-.15,0-.3-.07-.4-.21l-8.69-12.01c-.08-.11-.11-.25-.08-.39.03-.14.11-.25.23-.33l6.67-3.97c.08-.05.17-.07.25-.07.1,0,.21.03.29.1l11.98,8.82c.13.09.2.24.2.4s-.08.31-.21.4l-9.97,7.16c-.09.06-.19.09-.29.09Z"/><path class="cls-29" d="m25.69,7.91l11.98,8.82-9.97,7.16-8.69-12.01,6.67-3.97m0-.99c-.17,0-.35.05-.51.14l-6.67,3.97c-.24.14-.41.38-.46.65-.06.27,0,.56.17.78l8.69,12.01c.19.27.5.41.8.41.2,0,.4-.06.58-.19l9.97-7.16c.26-.18.41-.48.41-.8,0-.32-.15-.62-.4-.8l-11.98-8.82c-.17-.13-.38-.19-.59-.19h0Z"/></g><polygon class="cls-14" points="27.7 19.52 27.7 24.38 24.94 21.27 27.7 19.52"/><path class="cls-23" d="m34.12,6.23l13.59,8.44v13.31l-31.53,9.61-9.02-12.95v-8.97s9.35-6.01,9.35-6.01l2.51,2.23,6.67-3.97,2.82,2,5.6-3.68m0-.99c-.19,0-.38.05-.54.16l-5.04,3.31-2.27-1.61c-.17-.12-.37-.18-.57-.18-.17,0-.35.05-.51.14l-6.05,3.6-1.97-1.75c-.19-.17-.42-.25-.66-.25-.19,0-.37.05-.54.16l-9.35,6.01c-.28.18-.45.5-.45.83v8.97c0,.2.06.4.17.57l9.02,12.95c.19.27.49.42.81.42.1,0,.19-.01.29-.04l31.53-9.61c.42-.13.7-.51.7-.95v-13.31c0-.34-.18-.66-.47-.84l-13.59-8.44c-.16-.1-.34-.15-.52-.15h0Z"/><g><path class="cls-19" d="m16.36,27.36c-.14,0-.29-.06-.38-.18L6.78,15.98c-.09-.11-.13-.25-.11-.39.02-.14.1-.26.22-.34l9.35-6.02c.08-.05.17-.08.27-.08.12,0,.24.04.33.13l10.73,9.88c.11.1.17.25.16.4-.01.15-.09.29-.22.37l-10.89,7.34c-.08.06-.18.08-.28.08Z"/><path class="cls-29" d="m16.51,9.65l10.73,9.87-10.89,7.34L7.16,15.66l9.35-6.01m0-.99c-.19,0-.37.05-.54.16l-9.35,6.01c-.24.15-.4.4-.44.68-.04.28.03.56.21.78l9.2,11.2c.19.24.48.36.77.36.19,0,.38-.06.55-.17l10.89-7.34c.25-.17.41-.44.43-.75.02-.3-.09-.6-.32-.8l-10.73-9.87c-.19-.17-.43-.26-.67-.26h0Z"/></g></g></g><g id="Layer_44_copy_3"><g><rect class="cls-24" x="32" y="28" width="26" height="30" rx="1" ry="1"/><rect class="cls-2" x="32" y="28" width="26" height="30" rx="1" ry="1"/><path class="cls-5" d="m57,29v28h-24v-28h24Zm1,0c0-.55-.45-1-1-1h-24c-.55,0-1,.45-1,1v28c0,.55.45,1,1,1h24c.55,0,1-.45,1-1v-28Z"/><path class="cls-25" d="m57,29v28h-24v-28h24Zm1,0c0-.55-.45-1-1-1h-24c-.55,0-1,.45-1,1v28c0,.55.45,1,1,1h24c.55,0,1-.45,1-1v-28Z"/></g><g><polygon class="cls-26" points="37 29 53 29 53 27 50 27 49 25 41 25 40 27 37 27 37 29"/><g id="_"><path class="cls-5" d="m49,25l1,2h3v2h-16v-2h3l1-2h8m0-1h-8c-.38,0-.73.21-.89.55l-.72,1.45h-2.38c-.55,0-1,.45-1,1v2c0,.55.45,1,1,1h16c.55,0,1-.45,1-1v-2c0-.55-.45-1-1-1h-2.38l-.72-1.45c-.17-.34-.52-.55-.89-.55h0Z"/></g></g></g><g id="Layer_74"><g id="txt_ok"><rect class="cls-32" x="44" y="51" width="9" height="2"/><rect class="cls-6" x="44" y="44" width="9" height="2"/><rect class="cls-30" x="44" y="37" width="9" height="2"/></g></g><g id="ok"><polyline id="Activate" class="cls-22" points="35.33 35.31 38.53 38.51 43.65 33.37"/><polygon id="DeActivate" class="cls-3" points="38.53 35.95 36.6 34.05 35.66 35.01 38.53 37.87 43.01 33.39 42.08 32.44 38.53 35.95"/></g><g id="Layer_45_copy_5"><g><path class="cls-2" d="m26.38,58.37c-.24,0-.43-.19-.43-.43v-2.49l-.29-.1c-.24-.09-.48-.19-.71-.3l-.28-.13-1.76,1.76c-.08.08-.19.13-.31.13s-.22-.04-.31-.13l-2.45-2.45c-.08-.08-.13-.19-.13-.31s.04-.22.13-.31l1.76-1.76-.13-.28c-.11-.23-.21-.47-.3-.71l-.1-.29h-2.49c-.24,0-.43-.19-.43-.43v-3.46c0-.24.19-.43.43-.43h2.49l.1-.29c.09-.24.19-.48.3-.71l.13-.28-1.76-1.76c-.08-.08-.13-.19-.13-.31s.04-.22.13-.3l2.45-2.45c.08-.08.19-.13.31-.13s.22.04.31.13l1.76,1.76.28-.13c.23-.11.47-.21.71-.3l.29-.1v-2.49c0-.24.19-.43.43-.43h3.46c.24,0,.43.19.43.43v2.49l.29.1c.24.09.48.19.71.3l.28.13,1.76-1.76c.08-.08.19-.13.31-.13s.22.04.31.13l2.45,2.45c.17.17.17.44,0,.61l-1.76,1.76.13.28c.11.23.21.47.29.71l.1.29h2.49c.24,0,.43.19.43.43v3.46c0,.24-.19.43-.43.43h-2.49l-.1.29c-.09.24-.18.48-.29.71l-.13.28,1.76,1.76c.17.17.17.44,0,.61l-2.45,2.45c-.08.08-.19.13-.31.13s-.22-.04-.31-.13l-1.76-1.76-.28.13c-.23.11-.47.21-.71.3l-.29.1v2.49c0,.24-.19.43-.43.43h-3.46Zm1.73-13.86c-2.15,0-3.9,1.75-3.9,3.9s1.75,3.9,3.9,3.9,3.9-1.75,3.9-3.9-1.75-3.9-3.9-3.9Z"/><path class="cls-7" d="m29.84,38.89v2.8l.58.2c.23.08.45.17.67.28l.55.26.43-.43,1.55-1.55,2.45,2.45-1.55,1.55-.43.43.26.55c.1.22.2.44.28.67l.2.58h2.8v3.46h-2.8l-.2.58c-.08.23-.17.45-.28.67l-.26.55.43.43,1.55,1.55-2.45,2.45-1.55-1.55-.43-.43-.55.26c-.22.1-.44.2-.67.28l-.58.2v2.8h-3.46v-2.8l-.58-.2c-.23-.08-.45-.17-.67-.28l-.55-.26-.43.43-1.55,1.55-2.45-2.45,1.55-1.55.43-.43-.26-.55c-.1-.22-.2-.44-.28-.67l-.2-.58h-2.8v-3.46h2.8l.2-.58c.08-.23.17-.45.28-.67l.26-.55-.43-.43-1.55-1.55,2.45-2.45,1.55,1.55.43.43.55-.26c.22-.1.44-.2.67-.28l.58-.2v-2.8h3.46m-1.73,13.86c2.39,0,4.33-1.94,4.33-4.33s-1.94-4.33-4.33-4.33-4.33,1.94-4.33,4.33,1.94,4.33,4.33,4.33m1.73-14.72h-3.46c-.48,0-.87.39-.87.87v2.18c-.26.09-.51.2-.76.31l-1.55-1.55c-.17-.17-.39-.25-.61-.25s-.44.08-.61.25l-2.45,2.45c-.34.34-.34.89,0,1.22l1.55,1.55c-.12.25-.22.5-.31.76h-2.18c-.48,0-.87.39-.87.87v3.46c0,.48.39.87.87.87h2.18c.09.26.2.51.31.76l-1.55,1.55c-.34.34-.34.89,0,1.22l2.45,2.45c.17.17.39.25.61.25s.44-.08.61-.25l1.55-1.55c.25.12.5.22.76.31v2.18c0,.48.39.87.87.87h3.46c.48,0,.87-.39.87-.87v-2.18c.26-.09.51-.2.76-.31l1.55,1.55c.17.17.39.25.61.25s.44-.08.61-.25l2.45-2.45c.34-.34.34-.89,0-1.22l-1.55-1.55c.12-.25.22-.5.31-.76h2.18c.48,0,.87-.39.87-.87v-3.46c0-.48-.39-.87-.87-.87h-2.18c-.09-.26-.2-.51-.31-.76l1.55-1.55c.34-.34.34-.89,0-1.22l-2.45-2.45c-.17-.17-.39-.25-.61-.25s-.44.08-.61.25l-1.55,1.55c-.25-.12-.5-.22-.76-.31v-2.18c0-.48-.39-.87-.87-.87h0Zm-1.73,13.86c-1.91,0-3.46-1.55-3.46-3.46s1.55-3.46,3.46-3.46,3.46,1.55,3.46,3.46-1.55,3.46-3.46,3.46h0Z"/></g></g></svg>