<?xml version="1.0" encoding="UTF-8"?><svg xmlns="http://www.w3.org/2000/svg" xmlns:xlink="http://www.w3.org/1999/xlink" viewBox="0 0 64 64"><defs><linearGradient id="linear-gradient" x1="29.27" y1="43.63" x2="31.8" y2="48.01" gradientUnits="userSpaceOnUse"><stop offset="0" stop-color="#82bedc"/><stop offset="1" stop-color="#285a78"/></linearGradient><linearGradient id="linear-gradient-2" x1="34.26" y1="43.44" x2="36.68" y2="47.63" gradientUnits="userSpaceOnUse"><stop offset="0" stop-color="#8cd7f5"/><stop offset="1" stop-color="#376e8c"/></linearGradient><linearGradient id="linear-gradient-3" x1="33.36" y1="41.27" x2="35.64" y2="45.23" gradientUnits="userSpaceOnUse"><stop offset="0" stop-color="#a0e1fa"/><stop offset="1" stop-color="#73c3e1"/></linearGradient><linearGradient id="linear-gradient-4" x1="8.07" y1="21.09" x2="12.25" y2="28.33" gradientTransform="translate(0 66) scale(1 -1)" gradientUnits="userSpaceOnUse"><stop offset="0" stop-color="#aaa"/><stop offset="1" stop-color="#5a5a5a"/></linearGradient><linearGradient id="linear-gradient-5" x1="18.92" y1="9.1" x2="30.9" y2="29.85" gradientTransform="translate(0 66) scale(1 -1)" gradientUnits="userSpaceOnUse"><stop offset="0" stop-color="#f5f5f5"/><stop offset="1" stop-color="#bebebe"/></linearGradient><linearGradient id="linear-gradient-6" x1="31.5" y1="27.81" x2="36.81" y2="37.01" gradientTransform="translate(0 66) scale(1 -1)" gradientUnits="userSpaceOnUse"><stop offset="0" stop-color="#fff"/><stop offset="1" stop-color="#d2d2d2"/></linearGradient><linearGradient id="linear-gradient-7" x1="32.99" y1="27.5" x2="35.5" y2="27.5" gradientTransform="translate(0 66) scale(1 -1)" gradientUnits="userSpaceOnUse"><stop offset="0" stop-color="#c9c9c9"/><stop offset="1" stop-color="#737373"/></linearGradient><linearGradient id="linear-gradient-8" x1="23.59" y1="24.97" x2="26.5" y2="24.97" xlink:href="#linear-gradient-7"/></defs><g id="Layer_4"><path d="m24.33,26.44c.21-.25.49-.43.8-.49,0,0,2.68-.69,2.86-.73s.37.02.37.02c0,0-1.2-.27-1.48-.2l-2.75.69c-.31.07-.59.23-.8.48-.2.21-.32.49-.33.79v8.42l1,.59v-8.74c0-.31.13-.6.33-.82Z" fill="#5a9ab8"/><path d="m28.68,25.38c-.24-.17-.53-.22-.8-.15l-.12.03-2.64.68c-.31.07-.59.24-.8.49-.2.22-.32.51-.33.82v8.74l5-1.2v-8.74c.02-.27-.11-.52-.32-.67Z" fill="#00304b"/><path d="m32.33,28.44c.21-.25.49-.43.8-.49,0,0,2.68-.69,2.86-.73s.37.02.37.02c0,0-1.2-.27-1.48-.2l-2.75.69c-.31.07-.59.23-.8.48-.2.21-.32.49-.33.79v4.42l1,.59v-4.74c0-.31.13-.6.33-.82Z" fill="#5a9ab8"/><path d="m36.68,27.38c-.24-.17-.53-.22-.8-.15l-.12.03-2.64.68c-.31.07-.59.24-.8.49-.2.22-.32.51-.33.82v4.74l5-1.2v-4.74c.02-.27-.11-.52-.32-.67Z" fill="#00304b"/><path d="m40.33,20.44c.21-.25.49-.43.8-.49,0,0,2.68-.69,2.86-.73s.37.02.37.02c0,0-1.2-.27-1.48-.2l-2.75.69c-.31.07-.59.23-.8.48-.2.21-.32.49-.33.79v10.42l1,.59v-10.74c0-.31.13-.6.33-.82Z" fill="#5a9ab8"/><path d="m44.68,19.38c-.24-.17-.53-.22-.8-.15l-.12.03-2.64.68c-.31.07-.59.24-.8.49-.2.22-.32.51-.33.82v10.74l5-1.2v-10.74c.02-.27-.11-.52-.32-.67Z" fill="#00304b"/><path d="m48.33,11.44c.21-.25.49-.43.8-.49,0,0,2.68-.69,2.86-.73s.37.02.37.02c0,0-1.2-.27-1.48-.2l-2.75.69c-.31.07-.59.23-.8.48-.2.21-.32.49-.33.79v17.42l1,.59V12.26c0-.31.13-.6.33-.82Z" fill="#5a9ab8"/><path d="m52.68,10.38c-.24-.17-.53-.22-.8-.15l-.12.03-2.64.68c-.31.07-.59.24-.8.49-.2.22-.32.51-.33.82v17.74l5-1.2V11.05c.02-.27-.11-.52-.32-.67Z" fill="#00304b"/><g id="ECLAIR_"><polygon points="18 30 17 29.8 17 25.95 18 26.16 18 30" fill="#285977"/><polygon points="38 12 37.14 12 34.1 9 35 9 38 12" fill="#00304b"/><polygon points="43 17.26 42.12 17.15 39.33 14.14 40 14 43 17.26" fill="#00304b"/><polygon points="18 26.16 17 25.95 25.13 16.71 26 17 18 26.16" fill="#285977"/><polygon points="30.56 20.04 29.84 19.56 37.14 12 38 12 30.56 20.04" fill="#285977"/><polygon points="35 9 34.1 9 44.09 7 45 7 35 9" fill="#285977"/><polygon points="30.53 23.9 26 20.72 18 30 18 26.16 26 17 30.56 20.04 38 12 35 9 45 7 43 17.26 40 14 30.53 23.9" fill="#aadcfa"/></g><g id="EQUERRE_"><path d="m12.32,44.91c-.24-.15-.36-.42-.32-.7l-1-.21c-.02.27.11.53.33.69.08.05.16.09.25.12l1,.19c-.09-.03-.18-.03-.26-.09Z" fill="#285977"/><polygon points="11.99 44.21 11 43.97 11 14.81 12.01 15.06 11.99 44.21" fill="#5a9ab8"/><polygon points="15 42.2 14 41.95 56 32.01 57 32.2 15 42.2" fill="#aadcfa"/><polygon points="12.01 15.06 11 14.81 14 14.28 15 14.51 12.01 15.06" fill="#aadcfa"/><path d="m15,42.2l42-10v2.53l-44,10.27s-.48.05-.71-.11c-.22-.15-.32-.42-.29-.68V15.06l3-.55v27.69Z" fill="#285977"/></g></g><g id="Layer_1"><polygon points="44.5 34.5 32.5 26.5 26.79 30.07 24 28 18.23 31.73 15.5 29.5 6.5 35.5 6.5 44 16.5 55.5 44.5 47 44.5 34.5" fill="#fff" opacity=".5" stroke="#fff" stroke-linejoin="round" stroke-width="3"/><path d="m16.5,55.5l-10-11.5,25-7.5,13,10.5-28,8.5Z" fill="url(#linear-gradient-5)" stroke="#787878" stroke-linejoin="round"/><polygon points="6.5 35.5 6.5 44 17.5 40.7 6.5 35.5" fill="url(#linear-gradient-4)" stroke="#323232" stroke-linejoin="round"/><polygon points="44.5 34.5 44.5 47 31.5 36.5 44.5 34.5" fill="url(#linear-gradient-4)" stroke="#323232" stroke-linejoin="round"/><polygon points="39.5 43 39.5 46 31.5 48.19 31.5 45.03 39.5 43" fill="url(#linear-gradient-2)" stroke="#003755" stroke-linejoin="round"/><polygon points="29.5 43.5 31.5 45.03 39.5 43 37.23 41.5 29.5 43.5" fill="url(#linear-gradient-3)" stroke="#003755" stroke-linejoin="round"/><polygon points="29.5 43.5 29.5 46.5 31.5 48.19 31.5 45.03 29.5 43.5" fill="url(#linear-gradient)" stroke="#003755" stroke-linejoin="round"/><polygon points="26.5 46.5 16.5 49.5 16.5 52.5 26.5 49.5 26.5 46.5" fill="url(#linear-gradient-2)" stroke="#003755" stroke-linejoin="round"/><polygon points="24.43 44.84 14.5 47.44 16.5 49.5 26.5 46.5 24.43 44.84" fill="url(#linear-gradient-3)" stroke="#003755" stroke-linejoin="round"/><polygon points="16.5 52.5 16.5 49.5 14.5 47.44 14.5 50.27 16.5 52.5" fill="url(#linear-gradient)" stroke="#003755" stroke-linejoin="round"/><polygon points="25.5 42.5 33.5 40.5 33.5 37.78 25.5 39.75 25.5 42.5" fill="url(#linear-gradient-2)" stroke="#003755" stroke-linejoin="round"/><polygon points="26.5 38.55 28.5 40.5 28.5 42.6 26.5 40.29 26.5 38.55" fill="#82bddb" stroke="#00415f" stroke-linecap="round" stroke-linejoin="round" stroke-width=".5"/><polygon points="33.41 37.01 35.9 38.71 28.22 40.62 26.11 38.44 33.41 37.01" fill="url(#linear-gradient-3)" stroke="#003755" stroke-linejoin="round"/><polygon points="21.5 41 21.5 43.84 11.5 46.5 11.5 43.5 21.5 41" fill="url(#linear-gradient-2)" stroke="#003755" stroke-linejoin="round"/><polygon points="9.5 41.5 11.5 43.5 21.5 41 19.07 39.57 9.5 41.5" fill="url(#linear-gradient-3)" stroke="#003755" stroke-linejoin="round"/><polygon points="11.5 46.5 9.5 44.5 9.5 41.5 11.5 43.5 11.5 46.5" fill="url(#linear-gradient)" stroke="#003755" stroke-linejoin="round"/><path d="m35.5,40.5l-11-9,8-5,12,8-9,6Z" fill="url(#linear-gradient-6)" stroke="#787878" stroke-linejoin="round"/><polygon points="35.5 36.5 35.5 40.5 32.99 38.45 35.5 36.5" fill="url(#linear-gradient-7)" stroke="#6d6d6d" stroke-linecap="round" stroke-linejoin="round" stroke-width=".99"/><path d="m26.5,43.5l-11-10,8.5-5.5,11.5,8.5-9,7Z" fill="url(#linear-gradient-6)" stroke="#787878" stroke-linejoin="round"/><polygon points="26.5 38.55 26.5 43.5 23.57 40.84 26.5 38.55" fill="url(#linear-gradient-8)" stroke="#6d6d6d" stroke-linecap="round" stroke-linejoin="round" stroke-width=".99"/><path d="m16.5,46.5l-10-11,9-6,11,9-10,8Z" fill="url(#linear-gradient-6)" stroke="#787878" stroke-linejoin="round"/><polygon points="44.5 34.5 32.5 26.5 26.79 30.07 24 28 18.23 31.73 15.5 29.5 6.5 35.5 6.5 44 16.5 55.5 44.5 47 44.5 34.5" fill="none" stroke="#323232" stroke-linejoin="round"/></g></svg>