<?xml version="1.0" encoding="UTF-8"?><svg id="a" xmlns="http://www.w3.org/2000/svg" xmlns:xlink="http://www.w3.org/1999/xlink" viewBox="0 0 64 64"><defs><clipPath id="h"><polygon points="63.29 53.9 41.67 53.9 30.29 49.69 17.49 49.69 -3.99 44.51 -4.24 12.9 63.29 12.9 63.29 53.9" fill="none"/></clipPath><linearGradient id="i" x1="13.86" y1="-13.99" x2="28.72" y2="-39.74" gradientTransform="translate(0 18) scale(1 -1)" gradientUnits="userSpaceOnUse"><stop offset="0" stop-color="#fff"/><stop offset="1" stop-color="#d4d5d3"/></linearGradient><clipPath id="j"><rect x="35.95" y="8.74" width="19.25" height="19" fill="none"/></clipPath><clipPath id="k"><rect x="35.95" y="8.74" width="19.25" height="19" fill="none"/></clipPath><clipPath id="l"><rect x="35.95" y="8.74" width="19.25" height="19" fill="none"/></clipPath><clipPath id="m"><rect x="47.96" y="20.51" width="2.47" height="2.47" transform="translate(-.97 41.16) rotate(-45)" fill="none"/></clipPath><linearGradient id="n" x1="-16.35" y1="36.35" x2="-15.85" y2="36.35" gradientTransform="translate(143.32 234.26) scale(5.85 -5.85)" gradientUnits="userSpaceOnUse"><stop offset="0" stop-color="#a39f9f"/><stop offset=".04" stop-color="#a39f9f"/><stop offset=".2" stop-color="#ddd"/><stop offset=".4" stop-color="#c6c6c5"/><stop offset=".68" stop-color="#f5f5f5"/><stop offset="1" stop-color="#bebebe"/><stop offset="1" stop-color="#bebebe"/></linearGradient><clipPath id="o"><rect x="35.95" y="8.74" width="19.25" height="19" fill="none"/></clipPath><clipPath id="p"><rect x="47.8" y="21.49" width="2.8" height="1.65" fill="none"/></clipPath><clipPath id="q"><rect x="47.8" y="20.34" width="2.8" height="1.65" fill="none"/></clipPath><clipPath id="r"><rect x="47.8" y="20.34" width="1.8" height="2" fill="none"/></clipPath><clipPath id="s"><rect x="37.2" y="9.99" width="12.5" height="12.5" fill="none"/></clipPath><clipPath id="t"><path d="M37.95,16.24c0-3.05,2.45-5.5,5.5-5.5s5.5,2.45,5.5,5.5-2.45,5.5-5.5,5.5-5.5-2.45-5.5-5.5M36.45,16.24c0,3.85,3.15,7,7,7s7-3.15,7-7-3.15-7-7-7-7,3.15-7,7" fill="none"/></clipPath><linearGradient id="u" x1="-21.88" y1="42.62" x2="-21.38" y2="42.62" gradientTransform="translate(-1149.1 621.55) rotate(90) scale(27.98 -27.98)" gradientUnits="userSpaceOnUse"><stop offset="0" stop-color="#fff"/><stop offset="1" stop-color="#d2d2d2"/></linearGradient><clipPath id="v"><rect x="35.95" y="8.74" width="19.25" height="19" fill="none"/></clipPath><clipPath id="w"><rect x="37.2" y="9.99" width="12.5" height="12.5" fill="none"/></clipPath><clipPath id="x"><path d="M43.45,9.99c-3.45,0-6.25,2.8-6.25,6.25s2.8,6.25,6.25,6.25,6.25-2.8,6.25-6.25-2.8-6.25-6.25-6.25M43.45,21.99c-3.2,0-5.75-2.55-5.75-5.75s2.55-5.75,5.75-5.75,5.75,2.55,5.75,5.75-2.6,5.75-5.75,5.75" fill="none"/></clipPath><linearGradient id="y" x1="-21.78" y1="42.82" x2="-21.28" y2="42.82" gradientTransform="translate(-1027.04 554.57) rotate(90) scale(25 -25)" gradientUnits="userSpaceOnUse"><stop offset="0" stop-color="#000"/><stop offset="1" stop-color="#fff"/></linearGradient><clipPath id="z"><path d="M48.45,22.74l4.05,4.15c.5.5,1.3.5,1.8-.05.5-.5.5-1.3.05-1.8l-4.15-4.05-1.75,1.75Z" fill="none"/></clipPath><linearGradient id="aa" x1="-21.84" y1="43.94" x2="-21.34" y2="43.94" gradientTransform="translate(-581.47 335.36) rotate(90) scale(14.41 -14.41)" gradientUnits="userSpaceOnUse"><stop offset="0" stop-color="#8dd7f4"/><stop offset="1" stop-color="#386e8c"/></linearGradient><clipPath id="ab"><rect x="35.95" y="8.74" width="19.25" height="19" fill="none"/></clipPath><clipPath id="ac"><rect x="48.8" y="22.49" width="5.7" height="4.5" fill="none"/></clipPath><clipPath id="ad"><rect x="48.8" y="21.34" width="5.65" height="4.9" fill="none"/></clipPath><clipPath id="ae"><path d="M49.2,22.49l3.75,3.75c.25.25.3.25.5.25.25,0,.5-.2.5-.45v-.05c0-.2-.1-.35-.25-.5l-1-1-2.75-2.75-.75.75Z" fill="none"/></clipPath><linearGradient id="af" x1="-21.64" y1="44.57" x2="-21.14" y2="44.57" gradientTransform="translate(-478.08 278.41) rotate(90) scale(11.88 -11.88)" gradientUnits="userSpaceOnUse"><stop offset="0" stop-color="#8dd7f4"/><stop offset=".26" stop-color="#8bd4f1"/><stop offset=".44" stop-color="#83cbe8"/><stop offset=".61" stop-color="#76bbd8"/><stop offset=".76" stop-color="#64a4c2"/><stop offset=".9" stop-color="#4d88a6"/><stop offset="1" stop-color="#386e8c"/></linearGradient><linearGradient id="ah" x1="41.55" y1="5.06" x2="45.03" y2="-.97" gradientTransform="translate(0 18) scale(1 -1)" gradientUnits="userSpaceOnUse"><stop offset="0" stop-color="#fff"/><stop offset="1" stop-color="#d4d5d3"/></linearGradient><linearGradient id="ai" x1="43.29" y1=".52" x2="43.29" y2="3.33" gradientTransform="translate(0 18) scale(1 -1)" gradientUnits="userSpaceOnUse"><stop offset="0" stop-color="#fff"/><stop offset="1" stop-color="#000"/></linearGradient></defs><g id="b"><path d="M50.87,20.51l.85.25c-.21-.05-.43-.05-.64,0l-.82-.25c.2-.05.41-.05.61,0Z" fill="#5a9ab8"/><path d="M47.11,21.22c-.35.07-.66.25-.89.52-.23.24-.36.56-.36.89l.84.25c.02-.34.16-.66.41-.89.23-.26.54-.45.88-.53l-.88-.24Z" fill="#5a9ab8"/><polygon points="46.47 43.32 45.42 43.07 45.42 22.63 46.47 22.89 46.47 43.32" fill="#5a9ab8"/><polygon points="47.97 21.48 47.13 21.22 50.23 20.51 51.08 20.76 47.97 21.48" fill="#5a9ab8"/><path d="M51.41,21.55c.22.16.34.42.32.68v19.22l-5.26,1.2v-19.21c.01-.32.15-.62.38-.84.22-.25.51-.42.83-.49l2.96-.67c.26-.07.54-.02.77.12Z" fill="#00304b"/></g><g id="c"><path d="M42.24,31.13l.85.25c-.21-.06-.43-.06-.64,0l-.84-.25c.21-.06.43-.06.63,0Z" fill="#5a9ab8"/><polygon points="38.06 45.33 37.01 45.04 37.01 33.24 38.06 33.49 38.06 45.33" fill="#5a9ab8"/><path d="M38.51,31.84c-.35.07-.66.25-.89.52-.23.24-.36.55-.37.88l.85.25c0-.33.14-.64.37-.87.23-.27.54-.45.88-.53l-.84-.25Z" fill="#5a9ab8"/><polygon points="39.35 32.09 38.51 31.84 41.61 31.13 42.45 31.38 39.35 32.09" fill="#5a9ab8"/><path d="M42.99,31.85c.22.15.35.41.33.67v11.15l-5.26,1.25v-11.15c0-.31.13-.6.35-.82.21-.25.51-.43.83-.49l2.97-.67c.26-.09.54-.06.78.07Z" fill="#00304b"/></g><g id="d"><path d="M30,40.5c-.34.08-.65.27-.88.54-.23.23-.36.55-.37.87l.84.26c0-.33.14-.64.37-.88.23-.27.55-.45.89-.53l-.85-.26Z" fill="#5a9ab8"/><path d="M33.74,39.8l.84.25c-.21-.05-.42-.05-.63,0l-.84-.26c.21-.06.43-.05.63.01Z" fill="#5a9ab8"/><polygon points="30.86 40.77 30 40.5 33.11 39.79 33.95 40.05 30.86 40.77" fill="#5a9ab8"/><polygon points="29.65 47.22 28.6 46.97 28.6 41.91 29.65 42.18 29.65 47.22" fill="#5a9ab8"/><path d="M34.57,40.38c.23.14.35.4.34.66v4.75l-5.26,1.21v-4.74c0-.31.13-.61.35-.83.22-.25.51-.43.84-.49l2.9-.67c.28-.09.58-.04.83.12Z" fill="#00304b"/></g><g id="e"><path d="M25.03,37.55l.84.25c-.21-.05-.43-.05-.64,0l-.84-.25c.21-.05.43-.05.64,0Z" fill="#5a9ab8"/><polygon points="22.09 38.52 21.24 38.27 24.34 37.55 25.18 37.81 22.09 38.52" fill="#5a9ab8"/><polygon points="21.24 49.22 20.19 48.97 20.19 39.66 21.24 39.92 21.24 49.22" fill="#5a9ab8"/><path d="M21.24,38.27c-.34.08-.65.26-.88.53-.23.23-.36.55-.37.87l.84.25c.01-.33.14-.64.37-.87.23-.27.55-.45.89-.53l-.85-.25Z" fill="#5a9ab8"/><path d="M26.16,38.27c.22.15.35.4.33.67v8.71l-5.26,1.2v-8.71c.01-.31.13-.6.34-.82.22-.25.51-.42.84-.49l2.89-.71c.29-.07.6-.02.85.15Z" fill="#00304b"/></g><g id="f"><polygon points="14.94 42.54 13.88 42.33 13.88 38.44 14.93 38.65 14.94 42.54" fill="#285977"/><polygon points="35.56 24.09 34.68 23.95 31.48 20.73 32.35 20.88 35.56 24.09" fill="#00304b"/><polygon points="40.8 29.39 39.99 29.16 36.95 26.07 37.62 26.14 40.8 29.39" fill="#00304b"/><polygon points="14.62 38.59 13.54 38.38 22.07 28.75 23 29.06 14.62 38.59" fill="#285977"/><polygon points="27.78 32.28 27.11 31.81 34.68 23.95 35.56 24.09 27.78 32.28" fill="#285977"/><polygon points="32.35 20.88 31.46 20.73 41.95 18.63 42.9 18.79 32.35 20.88" fill="#285977"/><polygon points="28.04 36.28 23.33 32.99 14.93 42.6 14.92 38.59 23.3 29.06 28.07 32.28 35.85 24.09 32.65 20.88 43.2 18.79 41.1 29.4 37.91 26.13 28.04 36.28" fill="#aadcfa"/></g><g id="g"><g clip-path="url(#h)"><path d="M8.55,58.69c-.25-.15-.39-.44-.35-.74l-1.04-.22c-.02.29.11.56.35.73.08.06.17.1.26.13l1.05.25c-.1-.04-.19-.08-.27-.15Z" fill="#285977"/><polygon points="8.6 57.8 7.57 57.55 7.57 27.2 8.63 27.46 8.6 57.8" fill="#5a9ab8"/><polygon points="11.36 55.84 10.32 55.58 54.56 45.13 55.6 45.38 11.36 55.84" fill="#aadcfa"/><polygon points="8.22 27.31 7.16 27.05 10.32 26.49 11.37 26.73 8.22 27.31" fill="#aadcfa"/><path d="M11.79,55.83l44.14-10.49v2.66l-46.19,10.77c-.27.09-.57.05-.81-.12-.23-.16-.35-.44-.31-.71v-30.63l3.15-.58v29.1Z" fill="#285977"/></g></g><rect x="7.79" y="35.16" width="27" height="19.41" rx=".79" ry=".79" fill="url(#i)" stroke="#323232" stroke-linejoin="round"/><path d="M8.64,33.47h25.31c.47,0,.84.38.84.84v2.53H7.79v-2.53c0-.47.38-.84.84-.84Z"/><path d="M14.52,38.96c.25,0,.44.2.45.45,0,.12-.05.24-.13.32l-3.17,3.16-1.62-1.62c-.09-.08-.14-.19-.13-.31,0-.25.2-.45.45-.45.12,0,.23.05.31.13l1,1,2.53-2.53c.08-.09.2-.15.33-.15Z" fill="#57b847"/><rect x="16.65" y="39.8" width="16.03" height="1.69" fill="#646464" isolation="isolate" opacity=".5"/><path d="M14.52,44.02c.25,0,.44.2.45.45,0,.12-.05.24-.13.32l-3.17,3.16-1.62-1.62c-.09-.08-.14-.19-.13-.31,0-.25.2-.45.45-.45.12,0,.23.05.31.13l1,1,2.53-2.53c.08-.09.2-.15.33-.15Z" fill="#57b847"/><rect x="16.65" y="44.86" width="16.03" height="1.69" fill="#646464" isolation="isolate" opacity=".5"/><path d="M14.52,49.08c.25,0,.44.2.45.45,0,.12-.05.24-.13.32l-3.17,3.16-1.62-1.62c-.09-.08-.14-.19-.13-.31,0-.25.2-.45.45-.45.12,0,.23.05.31.13l1,1,2.53-2.53c.08-.09.2-.15.33-.15Z" fill="#57b847"/><rect x="16.65" y="49.93" width="16.03" height="1.69" fill="#646464" isolation="isolate" opacity=".5"/><g clip-path="url(#j)"><g clip-path="url(#k)"><g opacity=".5"><g clip-path="url(#l)"><path d="M53.4,27.49c-.4,0-.8-.15-1.1-.45l-4.05-4.15-.7-.7c-1.2.85-2.65,1.3-4.1,1.3-4,0-7.25-3.25-7.25-7.25s3.25-7.25,7.25-7.25,7.25,3.25,7.25,7.25c0,1.35-.35,2.7-1.1,3.8l.75.75,4.15,4.05c.6.6.6,1.55,0,2.15-.25.35-.65.5-1.1.5M43.45,10.99c-2.9,0-5.25,2.35-5.25,5.25s2.35,5.25,5.25,5.25,5.25-2.35,5.25-5.25-2.35-5.25-5.25-5.25" fill="#fff"/><path d="M43.45,9.24c3.85,0,7,3.15,7,7,0,1.35-.4,2.7-1.15,3.85l.9.9,4.15,4.05c.5.5.5,1.3,0,1.8s-1.3.5-1.8,0l-4.05-4.15-.85-.85c-3.1,2.3-7.5,1.6-9.8-1.5-2.3-3.1-1.6-7.5,1.5-9.8,1.15-.85,2.6-1.3,4.1-1.3M43.45,21.74c3.05,0,5.5-2.45,5.5-5.5s-2.45-5.5-5.5-5.5-5.5,2.45-5.5,5.5,2.45,5.5,5.5,5.5M43.45,8.74c-4.15,0-7.5,3.35-7.5,7.5s3.35,7.5,7.5,7.5c1.45,0,2.85-.4,4.1-1.2l.55.55,4.05,4.15c.35.35.8.5,1.25.5,1,0,1.8-.8,1.8-1.75,0-.5-.2-.95-.5-1.25l-4.15-4.05-.6-.7c2.1-3.6.9-8.15-2.7-10.25-1.15-.65-2.45-1-3.8-1M43.45,21.24c-2.75,0-5-2.25-5-5s2.25-5,5-5,5,2.25,5,5-2.25,5-5,5" fill="#fff"/></g></g></g><g clip-path="url(#m)"><rect x="46.73" y="19.27" width="4.95" height="4.95" transform="translate(-.97 41.16) rotate(-45)" fill="url(#n)"/></g><g clip-path="url(#o)"><g isolation="isolate" opacity=".3"><g clip-path="url(#p)"><polygon points="49.2 22.64 48.05 21.49 47.8 21.74 49.2 23.14 50.6 21.74 50.35 21.49 49.2 22.64"/></g></g><g isolation="isolate" opacity=".3"><g clip-path="url(#q)"><polygon points="49.2 20.84 50.35 21.99 50.6 21.74 49.2 20.34 47.8 21.74 48.05 21.99 49.2 20.84" fill="#fff"/></g></g><g isolation="isolate" opacity=".5"><g clip-path="url(#r)"><path d="M49.6,20.74l-.4-.4-1.4,1.4.6.6c.45-.5.85-1,1.2-1.6" fill="#646565"/></g></g><g isolation="isolate" opacity=".3"><g clip-path="url(#s)"><path d="M43.45,9.99c3.45,0,6.25,2.8,6.25,6.25s-2.8,6.25-6.25,6.25-6.25-2.8-6.25-6.25,2.8-6.25,6.25-6.25" fill="#fff"/></g></g></g><g clip-path="url(#t)"><rect x="33.89" y="6.68" width="19.12" height="19.12" transform="translate(-2.3 23.9) rotate(-30)" fill="url(#u)"/></g><g clip-path="url(#v)"><path d="M43.45,9.24c-3.85,0-7,3.15-7,7s3.15,7,7,7,7-3.15,7-7-3.15-7-7-7ZM43.45,21.74c-3.05,0-5.5-2.45-5.5-5.5s2.45-5.5,5.5-5.5,5.5,2.45,5.5,5.5-2.45,5.5-5.5,5.5Z" fill="none" stroke="#787979" stroke-linejoin="round"/><g isolation="isolate" opacity=".3"><g clip-path="url(#w)"><g clip-path="url(#x)"><rect x="34.91" y="7.71" width="17.08" height="17.08" transform="translate(-2.3 23.9) rotate(-30)" fill="url(#y)"/></g></g></g><path d="M50.95,21.74l-1.65-1.65c2.15-3.25,1.25-7.6-2-9.75-3.25-2.15-7.6-1.25-9.75,2-2.15,3.25-1.25,7.6,2,9.75,2.45,1.65,5.65,1.55,8.05-.2l1.6,1.6,1.75-1.75Z" fill="none" stroke="#323232" stroke-linejoin="round"/></g><g clip-path="url(#z)"><rect x="47.28" y="19.84" width="8.7" height="8.72" transform="translate(-5.18 29.06) rotate(-30)" fill="url(#aa)"/></g><g clip-path="url(#ab)"><path d="M54.35,25.04l-4.15-4.05-1.75,1.75,4.05,4.15c.5.5,1.3.5,1.8-.05.5-.5.5-1.3.05-1.8Z" fill="none" stroke="#053755" stroke-linejoin="round"/><g isolation="isolate" opacity=".3"><g clip-path="url(#ac)"><path d="M54.15,26.19c-.2.2-.45.3-.7.3s-.55-.1-.75-.3l-3.65-3.7-.25.25,3.9,3.95c.2.2.45.3.75.3.55,0,1-.45,1.05-1v-.05c0-.1,0-.15-.05-.25-.05.2-.15.35-.3.5"/></g></g><g isolation="isolate" opacity=".3"><g clip-path="url(#ad)"><path d="M50.2,21.84l3.95,3.9c.15.15.2.3.25.5,0-.1.05-.15.05-.25,0-.25-.1-.55-.3-.75l-3.95-3.9-1.4,1.4.25.25,1.15-1.15Z" fill="#fff"/></g></g></g><g clip-path="url(#ae)"><rect x="48.33" y="20.88" width="6.49" height="6.49" transform="translate(-5.15 29.02) rotate(-30)" fill="url(#af)"/></g></g><g id="ag"><path d="M45.68,17.25c0,.09.02.18.05.26s.09.16.16.23l.24.24c-.23.31-.49.58-.81.81l-.24-.24c-.07-.07-.15-.12-.23-.16s-.17-.05-.26-.05-.19.02-.27.05-.16.08-.23.15-.12.14-.16.23-.06.19-.06.29v.34c-.09.02-.19.03-.29.04-.09,0-.19.02-.29.02s-.19,0-.29-.02c-.09,0-.19-.02-.29-.04v-.34c0-.1-.02-.2-.06-.29s-.09-.16-.16-.23-.14-.11-.23-.15c-.09-.03-.18-.05-.27-.05s-.18.02-.26.05-.16.09-.23.16l-.24.24c-.31-.23-.58-.49-.81-.81l.24-.24c.07-.07.12-.15.16-.23s.05-.17.05-.26-.02-.18-.05-.27-.08-.16-.15-.23c-.06-.07-.14-.12-.23-.16-.09-.04-.19-.06-.29-.06h-.34c-.02-.09-.03-.19-.04-.29,0-.09-.02-.19-.02-.29s0-.19.02-.29c0-.09.02-.19.04-.29h.34c.1,0,.2-.02.29-.06s.16-.09.23-.16c.06-.07.11-.14.15-.23s.05-.18.05-.27-.02-.18-.05-.26-.09-.16-.16-.23l-.24-.24c.23-.31.49-.58.81-.81l.24.24c.07.07.15.12.23.16s.17.05.26.05.18-.02.27-.05.16-.08.23-.15.12-.14.16-.23c.04-.09.06-.18.06-.29v-.34c.09-.02.19-.03.29-.04.09,0,.19-.02.29-.02s.19,0,.29.02c.09,0,.19.02.29.04v.34c0,.11.02.21.06.3.04.09.09.16.16.23.07.06.14.11.23.14s.18.05.27.05c.09,0,.17-.02.26-.05.09-.03.17-.08.24-.15l.24-.25c.31.23.58.49.81.81l-.24.24c-.07.07-.12.15-.16.23s-.05.17-.05.26.02.19.05.27.08.16.15.23.14.12.23.16c.09.04.18.06.29.06h.34c.02.09.03.19.04.29,0,.09.02.19.02.29s0,.19-.02.29c0,.09-.02.19-.04.29h-.34c-.11,0-.21.02-.29.06s-.16.09-.23.16c-.06.07-.11.14-.15.23-.03.09-.05.18-.05.27h0ZM43.29,17.02c.15,0,.28-.03.41-.09s.24-.13.34-.23.17-.21.23-.34c.05-.13.09-.27.09-.41s-.03-.28-.09-.41-.13-.24-.23-.34-.21-.17-.34-.23-.27-.09-.41-.09-.28.03-.41.09-.24.13-.34.23-.17.21-.23.34c-.05.13-.09.27-.09.41s.03.28.09.41.13.24.23.34.21.17.34.23c.13.06.27.09.41.09Z" fill="#fff" isolation="isolate" opacity=".7" stroke="#fff" stroke-linejoin="round" stroke-width="3"/><path d="M45.68,17.25c0,.09.02.18.05.26s.09.16.16.23l.24.24c-.23.31-.49.58-.81.81l-.24-.24c-.07-.07-.15-.12-.23-.16s-.17-.05-.26-.05-.19.02-.27.05-.16.08-.23.15-.12.14-.16.23-.06.19-.06.29v.34c-.09.02-.19.03-.29.04-.09,0-.19.02-.29.02s-.19,0-.29-.02c-.09,0-.19-.02-.29-.04v-.34c0-.1-.02-.2-.06-.29s-.09-.16-.16-.23-.14-.11-.23-.15c-.09-.03-.18-.05-.27-.05s-.18.02-.26.05-.16.09-.23.16l-.24.24c-.31-.23-.58-.49-.81-.81l.24-.24c.07-.07.12-.15.16-.23s.05-.17.05-.26-.02-.18-.05-.27-.08-.16-.15-.23c-.06-.07-.14-.12-.23-.16-.09-.04-.19-.06-.29-.06h-.34c-.02-.09-.03-.19-.04-.29,0-.09-.02-.19-.02-.29s0-.19.02-.29c0-.09.02-.19.04-.29h.34c.1,0,.2-.02.29-.06s.16-.09.23-.16c.06-.07.11-.14.15-.23s.05-.18.05-.27-.02-.18-.05-.26-.09-.16-.16-.23l-.24-.24c.23-.31.49-.58.81-.81l.24.24c.07.07.15.12.23.16s.17.05.26.05.18-.02.27-.05.16-.08.23-.15.12-.14.16-.23c.04-.09.06-.18.06-.29v-.34c.09-.02.19-.03.29-.04.09,0,.19-.02.29-.02s.19,0,.29.02c.09,0,.19.02.29.04v.34c0,.11.02.21.06.3.04.09.09.16.16.23.07.06.14.11.23.14s.18.05.27.05c.09,0,.17-.02.26-.05.09-.03.17-.08.24-.15l.24-.25c.31.23.58.49.81.81l-.24.24c-.07.07-.12.15-.16.23s-.05.17-.05.26.02.19.05.27.08.16.15.23.14.12.23.16c.09.04.18.06.29.06h.34c.02.09.03.19.04.29,0,.09.02.19.02.29s0,.19-.02.29c0,.09-.02.19-.04.29h-.34c-.11,0-.21.02-.29.06s-.16.09-.23.16c-.06.07-.11.14-.15.23-.03.09-.05.18-.05.27h0ZM43.29,17.02c.15,0,.28-.03.41-.09s.24-.13.34-.23.17-.21.23-.34c.05-.13.09-.27.09-.41s-.03-.28-.09-.41-.13-.24-.23-.34-.21-.17-.34-.23-.27-.09-.41-.09-.28.03-.41.09-.24.13-.34.23-.17.21-.23.34c-.05.13-.09.27-.09.41s.03.28.09.41.13.24.23.34.21.17.34.23c.13.06.27.09.41.09Z" fill="url(#ah)" stroke="#323232" stroke-linejoin="round"/><g opacity=".2"><path d="M40.99,14.34c.02.05.04.11.05.17,0-.05.02-.1.02-.16,0-.11-.02-.22-.06-.32s-.1-.2-.19-.29h0s-.1.1-.14.16l.15.15c.09.09.15.18.19.29Z"/><path d="M45.59,14.04c-.04.1-.06.21-.06.32,0,.05,0,.1.02.16,0-.06.02-.12.05-.17.04-.1.1-.2.19-.29l.15-.15c-.05-.06-.09-.11-.14-.16h0c-.09.1-.15.19-.19.3h0Z"/><path d="M46.62,15.92s-.01.1-.02.15h-.21c-.13,0-.25.02-.36.08-.1.05-.19.11-.27.19-.08.08-.14.18-.18.28-.04.1-.06.21-.06.32,0,.05,0,.1.02.15,0-.06.02-.11.05-.17.04-.11.1-.2.18-.28.08-.08.17-.14.27-.19s.23-.08.36-.08h.21s.01-.1.02-.15c0-.09.01-.18.01-.27,0-.05,0-.1,0-.15,0,.04,0,.08,0,.12h0Z"/><path d="M40.99,16.93c.02.05.04.11.05.17,0-.05.02-.1.02-.15,0-.11-.02-.22-.06-.32-.04-.11-.1-.2-.18-.28-.08-.08-.17-.15-.27-.19-.11-.05-.23-.08-.35-.08h-.21s-.01-.1-.02-.15c0-.04,0-.08,0-.12,0,.05,0,.1,0,.15,0,.09,0,.18.01.27,0,.05.01.1.02.15h.21c.13,0,.25.02.35.08.11.05.2.11.27.19.08.08.14.18.18.28h0Z"/><path d="M45.34,18.29l-.15-.15c-.09-.09-.18-.15-.29-.19-.21-.08-.45-.08-.65,0-.1.04-.2.1-.28.18-.08.08-.15.17-.19.27-.05.11-.08.23-.08.35v.21s-.1.01-.15.02c-.18.02-.36.02-.54,0-.05,0-.1,0-.15-.02v-.21c0-.12-.02-.24-.08-.35-.05-.1-.11-.2-.19-.27-.08-.08-.18-.14-.28-.18-.21-.08-.44-.08-.64,0-.11.04-.2.11-.29.19l-.15.15c-.16-.13-.31-.27-.45-.43l-.14.14c.17.22.37.42.59.59l.15-.15c.09-.09.18-.15.29-.19.2-.08.43-.08.64,0,.11.04.2.1.28.18.08.08.15.17.19.27.05.11.08.23.08.35v.21s.1.01.15.02c.18.02.36.02.54,0,.05,0,.1,0,.15-.02v-.21c0-.13.02-.25.08-.35.05-.1.11-.2.19-.27.08-.08.18-.14.28-.18.2-.08.44-.08.65,0,.1.04.2.1.29.19l.15.15c.22-.17.42-.37.59-.59l-.14-.14c-.14.16-.29.3-.45.43Z"/></g><g opacity=".3"><path d="M45.59,14.99c-.02-.05-.04-.11-.05-.17,0,.05-.02.1-.02.15,0,.12.02.23.06.33.04.1.1.2.18.28.08.08.17.14.27.19.11.05.23.08.36.08h.21s.01.1.02.15c0,.04,0,.08,0,.12,0-.05,0-.1,0-.15,0-.09,0-.18-.01-.27,0-.05-.01-.1-.02-.15h-.21c-.13,0-.25-.02-.36-.08-.1-.05-.19-.11-.27-.19-.08-.08-.14-.18-.18-.28Z" fill="#fff"/><path d="M41.24,13.62l.15.15c.09.09.18.15.29.19.21.08.43.08.64,0,.11-.04.2-.1.29-.18.08-.08.14-.17.19-.27.05-.11.08-.23.08-.36v-.21s.1-.01.15-.02c.18-.02.36-.02.54,0,.05,0,.1,0,.15.02v.21c0,.13.02.25.08.36.05.11.12.2.19.27.08.08.17.13.28.17.19.08.42.08.64,0,.11-.04.21-.1.3-.19l.15-.16c.16.13.31.27.45.43l.14-.14c-.17-.22-.37-.42-.59-.59l-.15.16c-.09.09-.19.15-.3.19-.22.08-.44.07-.64,0-.1-.04-.19-.1-.28-.17-.08-.07-.15-.16-.19-.27-.05-.11-.08-.23-.08-.36v-.21s-.1-.01-.15-.02c-.18-.02-.36-.02-.54,0-.05,0-.1,0-.15.02v.21c0,.13-.02.25-.08.36-.05.1-.11.19-.19.27-.08.08-.18.14-.29.18-.21.08-.44.08-.64,0-.1-.04-.2-.1-.29-.19l-.15-.15c-.22.17-.42.37-.59.59l.14.14c.14-.16.29-.3.45-.43h0Z" fill="#fff"/><path d="M45.59,17.57c-.02-.05-.04-.11-.05-.17,0,.05-.02.1-.02.15,0,.11.02.22.06.32s.1.2.19.29h0s.1-.1.14-.16l-.15-.15c-.09-.09-.15-.18-.19-.29Z" fill="#fff"/><path d="M40.99,17.87c.04-.1.06-.21.06-.32,0-.05,0-.1-.02-.15,0,.06-.02.11-.05.17-.04.11-.1.2-.19.29l-.15.15c.04.06.09.11.14.16h0c.09-.09.15-.19.19-.3h0Z" fill="#fff"/><path d="M39.95,15.99s.01-.1.02-.15h.21c.12,0,.24-.02.35-.08.11-.05.2-.11.27-.19.08-.08.14-.18.18-.28.04-.1.06-.21.06-.33,0-.05,0-.1-.02-.15,0,.06-.02.12-.05.17-.04.1-.1.2-.18.28-.08.08-.17.15-.27.19-.11.05-.23.08-.35.08h-.21s-.01.1-.02.15c0,.09-.01.18-.01.27,0,.05,0,.1,0,.15,0-.04,0-.08,0-.12Z" fill="#fff"/></g><path d="M43.29,14.44c-.84,0-1.52.68-1.52,1.52s.68,1.52,1.52,1.52,1.52-.68,1.52-1.52-.68-1.52-1.52-1.52ZM43.29,17.17c-.67,0-1.22-.54-1.22-1.22s.54-1.22,1.22-1.22,1.22.54,1.22,1.22-.54,1.22-1.22,1.22Z" fill="url(#ai)" isolation="isolate" opacity=".3"/></g></svg>