<?xml version="1.0" encoding="UTF-8"?><svg xmlns="http://www.w3.org/2000/svg" xmlns:xlink="http://www.w3.org/1999/xlink" viewBox="0 0 64 64"><defs><linearGradient id="linear-gradient" x1="26.08" y1="29.34" x2="40.39" y2="54.12" gradientUnits="userSpaceOnUse"><stop offset="0" stop-color="#82bedc"/><stop offset="1" stop-color="#285a78"/></linearGradient><linearGradient id="linear-gradient-2" x1="37.07" y1="28.17" x2="40.44" y2="34.01" gradientUnits="userSpaceOnUse"><stop offset="0" stop-color="#8cd7f5"/><stop offset="1" stop-color="#376e8c"/></linearGradient><linearGradient id="linear-gradient-3" x1="35.37" y1="24.07" x2="39.51" y2="31.23" gradientUnits="userSpaceOnUse"><stop offset="0" stop-color="#a0e1fa"/><stop offset="1" stop-color="#73c3e1"/></linearGradient><linearGradient id="linear-gradient-4" x1="36.99" y1="28.13" x2="46.13" y2="43.96" gradientUnits="userSpaceOnUse"><stop offset="0" stop-color="#f5f5f5"/><stop offset="1" stop-color="#bebebe"/></linearGradient><linearGradient id="linear-gradient-5" x1="47.49" y1="30.94" x2="52.95" y2="40.4" gradientUnits="userSpaceOnUse"><stop offset="0" stop-color="#fff"/><stop offset="1" stop-color="#d2d2d2"/></linearGradient><linearGradient id="linear-gradient-6" x1="43.65" y1="24.28" x2="49.78" y2="34.88" gradientUnits="userSpaceOnUse"><stop offset="0" stop-color="#fff"/><stop offset="1" stop-color="#f0f0f0"/></linearGradient><linearGradient id="linear-gradient-7" x1="15.55" y1="59.57" x2="40.45" y2="16.43" gradientTransform="translate(0 66) scale(1 -1)" gradientUnits="userSpaceOnUse"><stop offset="0" stop-color="#f4f5f5"/><stop offset=".99" stop-color="#d2d2d2"/></linearGradient><linearGradient id="linear-gradient-8" x1="23.19" y1="60.83" x2="55.24" y2="5.31" gradientTransform="translate(0 66) scale(1 -1)" gradientUnits="userSpaceOnUse"><stop offset="0" stop-color="#82bddc"/><stop offset="1" stop-color="#275a78"/></linearGradient><linearGradient id="linear-gradient-9" x1="22.68" y1="44.21" x2="58.11" y2="-17.15" xlink:href="#linear-gradient-8"/></defs><g id="Layer_1"><rect x="8.5" y="10.5" width="39" height="35" fill="url(#linear-gradient-7)"/><path d="M47,11V45H9V11H47m1-1H8V46H48V10Z" fill="#323232"/><rect x="8.5" y="10.5" width="39" height="6" fill="url(#linear-gradient-8)"/><path d="M47,11v5H9v-5H47m1-1H8v7H48v-7Z" fill="#063755"/><rect x="8.5" y="26.5" width="39" height="9" fill="url(#linear-gradient-9)"/><path d="M47,27v8H9v-8H47m1-1H8v10H48v-10Z" fill="#063755"/><line x1="21.51" y1="17.38" x2="21.51" y2="45.38" fill="none" isolation="isolate" opacity=".3" stroke="#323232" stroke-linecap="square" stroke-linejoin="round"/><line x1="34.5" y1="17" x2="34.5" y2="45" fill="none" isolation="isolate" opacity=".3" stroke="#323232" stroke-linejoin="round"/><line x1="34.5" y1="25.67" x2="34.5" y2="35.67" fill="none" stroke="#063755" stroke-linejoin="round"/><line x1="21.5" y1="27" x2="21.5" y2="35" fill="none" stroke="#063755" stroke-linejoin="round"/></g><g id="Layer_4"><polygon points="41.81 23.67 29 27.75 29 31.67 33.88 32.17 44.81 28.17 47.38 26.23 41.81 23.67" fill="url(#linear-gradient-3)" stroke="#003755" stroke-linejoin="round"/><polygon points="45.84 30.23 32.5 34.92 32.5 40.29 35.23 41.73 47.21 35.98 48.98 33.79 45.84 30.23" fill="url(#linear-gradient-3)" stroke="#003755" stroke-linejoin="round"/><polygon points="50.63 37.35 36.91 42.85 37.38 46.45 40.94 48.67 49.38 46.17 53.88 41.73 50.63 37.35" fill="url(#linear-gradient-3)" stroke="#003755" stroke-linejoin="round"/><polygon points="37.5 44.67 37.5 38.67 33.5 36.67 33.5 30.23 28.5 27.94 28.5 45.5 41.5 53.48 41.5 46.67 37.5 44.67" fill="url(#linear-gradient)" stroke="#003755" stroke-linejoin="round"/><polygon points="33.5 30.23 33.5 36.5 44.5 31.67 44.5 26.54 33.5 30.23" fill="url(#linear-gradient-2)" stroke="#003755" stroke-linejoin="round"/><polygon points="37.5 38.67 37.5 44.35 46.5 39.42 46.5 34.29 37.5 38.67" fill="url(#linear-gradient-2)" stroke="#003755" stroke-linejoin="round"/><polygon points="41.5 46.54 41.5 53.48 54.5 45.67 54.5 39.42 41.5 46.54" fill="url(#linear-gradient-2)" stroke="#003755" stroke-linejoin="round"/><polygon points="48.41 24.26 36.5 28.41 36.5 31 43.19 37.35 56.5 31 56.5 27.42 48.41 24.26" fill="url(#linear-gradient-6)" stroke="#787878" stroke-linejoin="round"/><polygon points="36.5 28.41 36.5 35.29 40.5 37.35 40.5 42.67 44.5 44.9 44.5 32.67 36.5 28.41" fill="url(#linear-gradient-4)" stroke="#787878" stroke-linejoin="round"/><polygon points="44.5 32.67 44.5 44.9 56.5 38.35 56.5 27.42 44.5 32.67" fill="url(#linear-gradient-5)" stroke="#787878" stroke-linejoin="round"/><polyline points="54.51 39.44 56.5 38.35 56.5 31 56.5 27.42 48.41 24.26 45.39 25.31" fill="none" stroke="#323232" stroke-linejoin="round"/></g></svg>