<?xml version="1.0" encoding="UTF-8"?><svg xmlns="http://www.w3.org/2000/svg" xmlns:xlink="http://www.w3.org/1999/xlink" viewBox="0 0 64 64"><defs><style>.cls-1,.cls-2{fill:#343434;}.cls-3{fill:url(#linear-gradient-15);}.cls-4{opacity:.9;}.Blue_TOP_2{fill:url(#linear-gradient-3);}.Blue_TOP_2,.cls-5,.Blue_LEFT_2,.cls-6,.cls-7,.cls-8,.Blue_RIGHT_FRONT_SINGLE,.Blue_TOP_4,.White_LEFT_4,.White_TOP_4,.Blue_TOP_3,.White_RIGHT_FRONT{stroke-linejoin:round;}.Blue_TOP_2,.cls-5,.Blue_LEFT_2,.cls-8,.Blue_RIGHT_FRONT_SINGLE,.Blue_TOP_4,.Blue_TOP_3{stroke:#003755;}.cls-5{fill:url(#linear-gradient-14);}.cls-9{fill:url(#linear-gradient-11);}.Blue_LEFT_2{fill:url(#linear-gradient);}.cls-10{fill:url(#linear-gradient-10);}.cls-6{fill:url(#linear-gradient-9);stroke:#2d2d2d;}.cls-6,.cls-7{stroke-linecap:round;}.cls-7{fill:none;stroke:#323232;}.cls-8{fill:url(#linear-gradient-13);}.Blue_RIGHT_FRONT_SINGLE{fill:url(#linear-gradient-2);}.Blue_TOP_4{fill:url(#linear-gradient-5);}.White_LEFT_4{fill:url(#linear-gradient-6);}.White_LEFT_4,.White_TOP_4,.White_RIGHT_FRONT{stroke:#787878;}.White_TOP_4{fill:url(#linear-gradient-8);}.Blue_TOP_3{fill:url(#linear-gradient-4);}.White_RIGHT_FRONT{fill:url(#linear-gradient-7);}.cls-11{fill:#231f20;}.cls-2{opacity:.7;}.cls-12{opacity:.5;}.cls-13{fill:url(#linear-gradient-12);}</style><linearGradient id="linear-gradient" x1="8.54" y1="15.63" x2="20.38" y2="36.15" gradientUnits="userSpaceOnUse"><stop offset="0" stop-color="#82bedc"/><stop offset="1" stop-color="#285a78"/></linearGradient><linearGradient id="linear-gradient-2" x1="17.66" y1="14.68" x2="20.34" y2="19.32" gradientUnits="userSpaceOnUse"><stop offset="0" stop-color="#8cd7f5"/><stop offset="1" stop-color="#376e8c"/></linearGradient><linearGradient id="linear-gradient-3" x1="23.12" y1="23.25" x2="26.01" y2="28.25" gradientUnits="userSpaceOnUse"><stop offset="0" stop-color="#a0e1fa"/><stop offset="1" stop-color="#73c3e1"/></linearGradient><linearGradient id="linear-gradient-4" x1="19.16" y1="16.81" x2="21.98" y2="21.69" xlink:href="#linear-gradient-3"/><linearGradient id="linear-gradient-5" x1="16.28" y1="11.16" x2="19.53" y2="16.79" xlink:href="#linear-gradient-3"/><linearGradient id="linear-gradient-6" x1="17.79" y1="14.33" x2="26.03" y2="28.62" gradientUnits="userSpaceOnUse"><stop offset="0" stop-color="#f5f5f5"/><stop offset="1" stop-color="#bebebe"/></linearGradient><linearGradient id="linear-gradient-7" x1="26.14" y1="16.55" x2="31.42" y2="25.7" gradientUnits="userSpaceOnUse"><stop offset="0" stop-color="#fff"/><stop offset="1" stop-color="#d2d2d2"/></linearGradient><linearGradient id="linear-gradient-8" x1="23.72" y1="10.91" x2="27.28" y2="17.09" gradientUnits="userSpaceOnUse"><stop offset="0" stop-color="#fff"/><stop offset="1" stop-color="#f0f0f0"/></linearGradient><linearGradient id="linear-gradient-9" x1="36.12" y1="8.43" x2="60.23" y2="45.87" gradientUnits="userSpaceOnUse"><stop offset="0" stop-color="#fff"/><stop offset="1" stop-color="#bfbfbf"/></linearGradient><linearGradient id="linear-gradient-10" x1="41.9" y1="205.05" x2="51.16" y2="213.86" gradientTransform="translate(0 -208.89) rotate(22) scale(1.08 .93) skewX(19.15)" gradientUnits="userSpaceOnUse"><stop offset="0" stop-color="#f0f0f0"/><stop offset="1" stop-color="#b3b3b3"/></linearGradient><linearGradient id="linear-gradient-11" x1="36.35" y1="214.57" x2="45.62" y2="223.39" xlink:href="#linear-gradient-10"/><linearGradient id="linear-gradient-12" x1="42.11" y1="212.44" x2="51.37" y2="221.26" xlink:href="#linear-gradient-10"/><linearGradient id="linear-gradient-13" x1="16.28" y1="11.16" x2="19.53" y2="16.79" xlink:href="#linear-gradient-3"/><linearGradient id="linear-gradient-14" x1="19.16" y1="16.81" x2="21.98" y2="21.69" xlink:href="#linear-gradient-3"/><linearGradient id="linear-gradient-15" x1="21" y1="46.04" x2="44" y2="46.04" gradientUnits="userSpaceOnUse"><stop offset="0" stop-color="#464646"/><stop offset="1" stop-color="#141414"/></linearGradient></defs><g id="Layer_8"><polygon class="cls-6" points="37.5 30.5 53.5 36.5 53.5 15.5 37.5 9.5 37.5 30.5"/><g class="cls-4"><polygon class="cls-10" points="43.5 18.61 43.5 15.69 47.5 17.31 47.5 20.23 43.5 18.61"/><path class="cls-1" d="m44,16.43l3,1.21v1.84l-3-1.21v-1.84m-1-1.48v4l5,2.02v-4l-5-2.02h0Z"/><polygon class="cls-9" points="39.5 28 39.5 25.08 43.5 26.69 43.5 29.61 39.5 28"/><path class="cls-1" d="m40,25.82l3,1.21v1.84l-3-1.21v-1.84m-1-1.48v4l5,2.02v-4l-5-2.02h0Z"/><polygon class="cls-13" points="47.5 31.23 47.5 28.31 51.5 29.92 51.5 32.85 47.5 31.23"/><path class="cls-1" d="m48,29.05l3,1.21v1.84l-3-1.21v-1.84m-1-1.48v4l5,2.02v-4l-5-2.02h0Z"/><polygon class="cls-2" points="49 26.38 46 25.16 46 23.16 48 23.97 48 22.97 47 22.57 47 21.57 46 21.16 46 19.16 45 18.76 45 20.76 44 20.36 44 21.36 43 20.95 43 21.95 45 22.76 45 24.76 42 23.55 41 23.14 41 25.14 42 25.55 42 24.55 49 27.38 49 28.38 50 28.78 50 26.78 49 26.38"/></g></g><g id="Layer_12"><g class="cls-12"><path d="m32.35,28.95h0c-2.52-1.53-6.4-2.52-10.8-2.52s-8.45,1.02-10.87,2.57l10.71,6.49,10.96-6.55Z"/></g><path d="m32.35,28.95h0c-2.52-1.53-6.4-2.52-10.8-2.52s-8.45,1.02-10.87,2.57l10.71,6.49,10.96-6.55Z"/><polygon class="cls-8" points="10.5 17.5 10.5 14.5 21.5 10.5 26.5 12.5 23.5 14.5 14.5 17.5 10.5 17.5"/><polygon class="cls-5" points="14.5 21.5 14.5 19.5 24.5 15.5 27.5 18.5 25.3 19.5 17.5 23.5 14.5 21.5"/><polygon class="Blue_TOP_2" points="17.5 28.5 17.5 26.5 28.5 21.5 32.5 24.5 21.5 30.5 17.5 28.5"/><polygon class="Blue_LEFT_2" points="10.5 14.5 10.5 28.5 21.5 35.5 21.5 30.5 17.5 28.5 17.5 23.5 14.5 21.5 14.5 16.5 10.5 14.5"/><polygon class="Blue_RIGHT_FRONT_SINGLE" points="23.5 12.5 14.5 16.5 14.5 21.5 23.5 17.5 23.5 12.5"/><polygon class="Blue_RIGHT_FRONT_SINGLE" points="17.5 23.5 25.5 19.5 25.5 24.5 17.5 28.5 17.5 23.5"/><polygon class="Blue_RIGHT_FRONT_SINGLE" points="21.5 30.5 32.5 24.5 32.5 29.5 21.5 35.5 21.5 30.5"/><polygon class="cls-7" points="30.3 23.5 28.46 21.98 25.22 23.24 25.22 20.98 25.69 20.82 27.3 18.5 24.5 16.5 23.53 16.49 23.5 14.5 26.5 12.5 21.5 10.5 10.5 14.5 10.5 28.5 21.5 35.5 32.5 29.5 32.5 24.5 30.3 23.5"/><polygon class="White_TOP_4" points="17.5 14.5 27.5 10.5 33.5 13.5 24.5 17.5 17.5 14.5"/><polygon class="White_LEFT_4" points="17.5 20.5 17.5 14.5 24.5 17.5 24.5 29.5 20.5 27.5 20.5 22.5 17.5 20.5"/><polygon class="White_RIGHT_FRONT" points="33.5 13.5 24.5 17.5 24.5 29.5 33.5 24.5 33.5 13.5"/></g><g id="Layer_11"><g id="progress-3-ok-2"><rect class="cls-3" x="25" y="40" width="4" height="6"/><rect class="cls-3" x="30" y="40" width="4" height="6"/><path class="cls-3" d="m42.83,45.21c-.31,0-.61.13-.82.36l-6.22,6.21-2.93-2.93c-.45-.45-1.19-.45-1.64,0-.45.45-.45,1.19,0,1.64l4.58,4.58,7.85-7.87c.23-.21.36-.51.36-.82,0-.65-.53-1.17-1.17-1.17Z"/><polygon class="cls-3" points="40 40 36 40 36 46 38.24 46 40 44.18 40 40"/><path class="cls-3" d="m30.15,48h-7.15v-9h19v4.79c.67-.17,1.37-.11,2,.16v-5.31c0-.91-.74-1.64-1.64-1.64h-19.72c-.91,0-1.64.74-1.64,1.64v-.89s0,10.5,0,10.5c0,.97.78,1.75,1.75,1.75h7.05c-.03-.16-.05-.33-.05-.5,0-.53.13-1.04.4-1.5Z"/><rect class="cls-11" x="25" y="40" width="4" height="6"/><rect class="cls-11" x="30" y="40" width="4" height="6"/><path class="cls-11" d="m42.83,45.21c-.31,0-.61.13-.82.36l-6.22,6.21-2.93-2.93c-.45-.45-1.19-.45-1.64,0-.45.45-.45,1.19,0,1.64l4.58,4.58,7.85-7.87c.23-.21.36-.51.36-.82,0-.65-.53-1.17-1.17-1.17Z"/><polygon class="cls-11" points="40 40 36 40 36 46 38.24 46 40 44.18 40 40"/><path class="cls-11" d="m30.15,48h-7.15v-9h19v4.79c.67-.17,1.37-.11,2,.16v-5.31c0-.91-.74-1.64-1.64-1.64h-19.72c-.91,0-1.64.74-1.64,1.64v-.89s0,10.5,0,10.5c0,.97.78,1.75,1.75,1.75h7.05c-.03-.16-.05-.33-.05-.5,0-.53.13-1.04.4-1.5Z"/></g></g></svg>