<?xml version="1.0" encoding="UTF-8"?><svg xmlns="http://www.w3.org/2000/svg" xmlns:xlink="http://www.w3.org/1999/xlink" viewBox="0 0 64 64"><defs><linearGradient id="a" x1="16.42" y1="3.93" x2="24.58" y2="18.07" gradientUnits="userSpaceOnUse"><stop offset="0" stop-color="#8cd7f5"/><stop offset="1" stop-color="#376e8c"/></linearGradient><linearGradient id="c" x1="9.45" y1="12.95" x2="13.55" y2="20.05" gradientUnits="userSpaceOnUse"><stop offset="0" stop-color="#fff"/><stop offset="1" stop-color="#d4d5d3"/></linearGradient><linearGradient id="f" x1="15.45" y1="12.95" x2="19.55" y2="20.05" xlink:href="#c"/><linearGradient id="g" x1="21.45" x2="25.55" xlink:href="#c"/><linearGradient id="h" x1="27.45" x2="31.55" xlink:href="#c"/><linearGradient id="i" y1="18.95" y2="26.05" xlink:href="#c"/><linearGradient id="j" x1="15.45" y1="18.95" x2="19.55" y2="26.05" xlink:href="#c"/><linearGradient id="k" x1="21.45" y1="18.95" x2="25.55" y2="26.05" xlink:href="#c"/><linearGradient id="l" x1="27.45" y1="18.95" x2="31.55" y2="26.05" xlink:href="#c"/><linearGradient id="m" y1="24.95" y2="32.05" xlink:href="#c"/><linearGradient id="n" x1="15.45" y1="24.95" x2="19.55" y2="32.05" xlink:href="#c"/><linearGradient id="o" x1="21.45" y1="24.95" x2="25.55" y2="32.05" xlink:href="#c"/><linearGradient id="p" x1="27.45" y1="24.95" x2="30.8" y2="30.75" xlink:href="#c"/><mask id="s" x="6.98" y="8" width="50.02" height="50" maskUnits="userSpaceOnUse"><g id="t"><rect x="32" y="8" width="25" height="50" fill="#fff"/></g></mask><linearGradient id="v" x1="48.51" y1="-17.74" x2="52.57" y2="-24.77" gradientTransform="translate(0 18) scale(1 -1)" gradientUnits="userSpaceOnUse"><stop offset="0" stop-color="#f5f5f5"/><stop offset="1" stop-color="#bebebe"/></linearGradient><linearGradient id="w" x1="50.13" y1="-12.46" x2="54.55" y2="-12.46" gradientTransform="translate(0 18) scale(1 -1)" gradientUnits="userSpaceOnUse"><stop offset="0" stop-color="#8cd7f5"/><stop offset="1" stop-color="#376e8c"/></linearGradient><linearGradient id="x" x1="55.52" y1="-21.99" x2="8.4" y2="-21.99" gradientTransform="translate(0 18) scale(1 -1)" gradientUnits="userSpaceOnUse"><stop offset="0" stop-color="#d2d2d2"/><stop offset=".02" stop-color="#dcdcdc"/><stop offset=".08" stop-color="#f5f5f5"/><stop offset=".12" stop-color="#fff"/><stop offset=".57" stop-color="#d2d2d2"/><stop offset=".88" stop-color="#fff"/><stop offset="1" stop-color="#d2d2d2"/></linearGradient><linearGradient id="y" x1="28.49" y1="-11.12" x2="33.43" y2="-19.67" gradientTransform="translate(0 18) scale(1 -1)" gradientUnits="userSpaceOnUse"><stop offset="0" stop-color="#fff"/><stop offset="1" stop-color="#f0f0f0"/></linearGradient><linearGradient id="z" x1="41.39" y1="-26.87" x2="32.52" y2="-23.15" gradientTransform="translate(0 18) scale(1 -1)" gradientUnits="userSpaceOnUse"><stop offset="0" stop-color="#d7d7d7"/><stop offset="1" stop-color="#969696"/></linearGradient><linearGradient id="aa" x1="33.81" y1="-25.87" x2="27.98" y2="-18.91" gradientTransform="translate(0 18) scale(1 -1)" gradientUnits="userSpaceOnUse"><stop offset="0" stop-color="#82bedc"/><stop offset=".16" stop-color="#74aecc"/><stop offset=".48" stop-color="#5087a5"/><stop offset=".79" stop-color="#285a78"/></linearGradient><linearGradient id="ab" x1="39.6" y1="-20.64" x2="27.01" y2="-27.31" xlink:href="#w"/><linearGradient id="ac" x1="9.59" y1="-21.67" x2="13.41" y2="-21.67" xlink:href="#w"/><linearGradient id="ad" x1="10.65" y1="-27.4" x2="12.36" y2="-30.36" gradientTransform="translate(0 18) scale(1 -1)" gradientUnits="userSpaceOnUse"><stop offset="0" stop-color="#82bedc"/><stop offset="1" stop-color="#285a78"/></linearGradient><linearGradient id="ae" x1="45.25" y1="-7.42" x2="46.96" y2="-10.38" xlink:href="#ad"/><linearGradient id="af" x1="10.66" y1="-11.76" x2="12.4" y2="-14.78" gradientTransform="translate(0 18) scale(1 -1)" gradientUnits="userSpaceOnUse"><stop offset="0" stop-color="#a0e1fa"/><stop offset="1" stop-color="#73c3e1"/></linearGradient><linearGradient id="ag" x1="50.48" y1="-1.52" x2="54.07" y2="-1.52" xlink:href="#w"/><linearGradient id="ah" x1="52.14" y1="-3.44" x2="53.85" y2="-6.4" xlink:href="#ad"/><linearGradient id="ai" x1="51.58" y1="3.03" x2="53.32" y2=".01" xlink:href="#af"/><mask id="aj" x="6.98" y="8" width="50.02" height="50" maskUnits="userSpaceOnUse"><g id="ak"><rect x="7" y="8" width="24" height="50" fill="#fff"/></g></mask><linearGradient id="am" x1="35.64" y1="-26.9" x2="28.29" y2="-19.96" gradientTransform="translate(0 18) scale(1 -1)" gradientUnits="userSpaceOnUse"><stop offset="0" stop-color="#f5f5f5"/><stop offset=".26" stop-color="#ececec"/><stop offset=".65" stop-color="#d6d6d6"/><stop offset="1" stop-color="#bebebe"/></linearGradient><linearGradient id="an" x1="10.65" y1="-27.4" x2="12.35" y2="-30.36" gradientTransform="translate(0 18) scale(1 -1)" gradientUnits="userSpaceOnUse"><stop offset="0" stop-color="#aaa"/><stop offset="1" stop-color="#5a5a5a"/></linearGradient><linearGradient id="ao" x1="45.33" y1="-7.48" x2="47.03" y2="-10.44" xlink:href="#an"/><linearGradient id="ap" x1="52.2" y1="-3.53" x2="53.9" y2="-6.49" xlink:href="#an"/></defs><g id="e"><rect x="8.5" y="13.5" width="6" height="6" fill="url(#c)" stroke="#323232" stroke-linejoin="round"/><rect x="14.5" y="13.5" width="6" height="6" fill="url(#f)" stroke="#323232" stroke-linejoin="round"/><rect x="20.5" y="13.5" width="6" height="6" fill="url(#g)" stroke="#323232" stroke-linejoin="round"/><rect x="26.5" y="13.5" width="6" height="6" fill="url(#h)" stroke="#323232" stroke-linejoin="round"/><rect x="8.5" y="19.5" width="6" height="6" fill="url(#i)" stroke="#323232" stroke-linejoin="round"/><rect x="14.5" y="19.5" width="6" height="6" fill="url(#j)" stroke="#323232" stroke-linejoin="round"/><rect x="20.5" y="19.5" width="6" height="6" fill="url(#k)" stroke="#323232" stroke-linejoin="round"/><rect x="26.5" y="19.5" width="6" height="6" fill="url(#l)" stroke="#323232" stroke-linejoin="round"/><rect x="8.5" y="25.5" width="6" height="6" fill="url(#m)" stroke="#323232" stroke-linejoin="round"/><rect x="14.5" y="25.5" width="6" height="6" fill="url(#n)" stroke="#323232" stroke-linejoin="round"/><rect x="20.5" y="25.5" width="6" height="6" fill="url(#o)" stroke="#323232" stroke-linejoin="round"/><polyline points="29.5 31.5 26.5 31.5 26.5 25.5 32.5 25.5 32.5 27.5" fill="url(#p)" stroke="#323232" stroke-linejoin="round"/><rect x="8.5" y="8.5" width="24" height="5" fill="url(#a)" stroke="#003755" stroke-linejoin="round"/></g><g id="q"><g id="r"><g mask="url(#s)"><g id="u"><path d="M46.69,36.79s4.12-1.17,5.81-1.29c2.7-.2,4,.72,4,2.5v2.5l-10.89,2.54,1.09-6.25h-.01Z" fill="url(#v)" stroke="#787878" stroke-linejoin="round"/><path d="M49.5,38.5v-15.38c.02-.21.91-.69,2.49-.69.18,0,.36,0,.55.02,1.29.09,2.34.66,2.77,1.16.16.18.19.3.19.35v14.54h-6Z" fill="url(#w)"/><path d="M51.99,22.94c.17,0,.34,0,.51.02,1.34.09,2.32.77,2.49,1.07v13.97h-5v-14.67c.23-.15.89-.39,1.99-.39M51.99,21.94c-1.65,0-2.94.49-2.99,1.19v15.87h7v-15c.06-.78-1.51-1.91-3.43-2.04-.2-.01-.39-.02-.58-.02h0Z" fill="#003755"/><path d="M7.5,47.5v8c.37,1,1.64,2,3.5,2,2.95,0,6.1-2.49,9.1-3.7,4.6-1.86,20.69-4.8,34.81-10.17,1.57-.6,1.59-1.42,1.59-1.63v-4c0,1.28-1.08,1.73-1.08,1.73,0,0-7,2.02-7.4,2.02-1.14,0-1.31-1.18-1.31-1.18,0,0,.34-5,.51-7.37s2.03-2.97,2.03-2.97c0,0,2.69-1.1,4.72-1.61,2.04-.51,2.53-1.63,2.53-1.63v-4.5s-12.67.96-19.79,4.01c-7.12,3.05-19.07,15.85-19.07,15.85l-10.14,5.14h0Z" fill="url(#x)" stroke="#787878" stroke-linejoin="round"/><path d="M40.52,23.04c-13.18,3.84-19.97,17.65-26.95,20.08-3.45,1.2-6.08,2.63-6.08,4.38,0,1,.34,2,3.5,2,5.72,0,4.33-4.01,17.91-14,13.77-10.14,12.46-7.36,26.25-11.78.96-.31,1.34-.67,1.34-1.22,0-.82-1.16-2-5-2-1.36,0-8.94,1.95-10.98,2.54h0Z" fill="url(#y)" stroke="#787878" stroke-linejoin="round"/><path d="M7.5,47.5c0,1,.34,2,3.5,2,5.72,0,4.33-4.01,17.91-14,13.77-10.14,12.46-7.36,26.25-11.78.96-.31,1.34-.67,1.34-1.22" fill="none" stroke="#003755" stroke-linejoin="round"/><path d="M43.5,31.5c0-.34-.24-1-1-1-4.48,0-23.99,15.73-23.99,19,0,.55.28,1,1,1l21.99-6s1.38-.42,1.39-2.39c.02-2.29.61-10.61.61-10.61Z" fill="url(#z)" stroke="#787878" stroke-linejoin="round"/><path d="M18.54,49.35c.2,0,.41-.04.57-.1.42-.17,20.91-5.87,20.91-5.87,0,0,1.41-.27,1.5-1.88s.28-10.83.28-10.83" fill="none" stroke="#787878" stroke-linejoin="round"/><path d="M43.51,31.5c0-.34-.24-1-1-1-4.48,0-24,15.73-24,19,0,.55.28,1,1,1l22-6s1.37-.42,1.38-2.39c.02-2.29.62-10.61.62-10.61Z" fill="url(#aa)" stroke="#003755" stroke-linejoin="round"/><path d="M43.51,31.5s-.6,8.32-.62,10.61c0,1.97-1.38,2.39-1.38,2.39l-22,6c-.72,0-1-.45-1-1,0-.06.01-.12.02-.19.27-.02.51-.04.57-.07.43-.17,20.64-5.79,20.64-5.79,0,0,1.41-.27,1.5-1.88.07-1.32.44-8.49.53-10.97.28-.06.53-.1.74-.1.76,0,1,.66,1,1Z" fill="url(#ab)" stroke="#003755" stroke-linejoin="round"/><path d="M11.45,47.83c-1.1,0-2.93-.24-2.93-1.83v-13.61l3.56-.89h2.44v14.5c0,.61-1.69,1.83-3.07,1.83Z" fill="url(#ac)"/><path d="M14.01,32v13.96c-.11.42-1.49,1.37-2.57,1.37-.91,0-2.43-.17-2.43-1.33v-13.22l3.12-.78h1.88M15.01,31h-3l-4,1v14c0,2,2.2,2.33,3.43,2.33,1.49,0,3.57-1.31,3.57-2.33v-15h0Z" fill="#003755"/><path d="M14.49,46.2c-.2-.81-1.69-1.16-3.34-.78s-2.82,1.34-2.62,2.15,1.69,1.16,3.33.78c1.65-.38,2.82-1.34,2.62-2.15h.01Z" fill="url(#ad)" stroke="#003755" stroke-linejoin="round"/><path d="M52.6,36.44c-1.66-.13-3.1.46-3.1,1.31s1.25,1.64,2.9,1.77c1.66.13,3.04-.46,3.09-1.31.05-.85-1.25-1.64-2.9-1.76h0Z" fill="url(#ae)" stroke="#003755" stroke-linejoin="round"/><path d="M10.65,32.5c-1.16,0-2.06-.34-2.13-.8-.03-.16.09-.41.31-.67.59-.69,1.89-1.42,3.14-1.42,1.54,0,2.54.54,2.54,1.39s-.48.98-2.56,1.38c-.44.08-.88.12-1.3.12h0Z" fill="url(#af)"/><path d="M11.98,30.11c1.2,0,2.04.36,2.04.89,0,.35,0,.48-2.15.88-.41.08-.82.12-1.21.12-1.02,0-1.53-.26-1.63-.37.15-.45,1.53-1.52,2.95-1.52M11.98,29.11c-1.98,0-4.12,1.6-3.95,2.67.13.8,1.25,1.22,2.63,1.22.45,0,.92-.04,1.39-.13,1.94-.37,2.96-.57,2.96-1.87,0-1.08-1.07-1.89-3.04-1.89h0Z" fill="#003755"/><path d="M53.21,23.5c-.19,0-.38,0-.58-.02-1.68-.12-2.74-.67-2.99-1.05l-.14-.6v-4.94c.02-.31,1.22-1.34,2.89-1.34h.26c1.33.09,2.34.59,2.71,1.02.11.13.14.22.14.27v6.21c-.49.27-1.35.44-2.28.44h0Z" fill="url(#ag)"/><path d="M52.39,16.05h.22c1.35.09,2.21.63,2.38.87v5.81c-.39.15-1.01.27-1.78.27-.18,0-.36,0-.54-.02-1.41-.1-2.33-.53-2.56-.77l-.11-.44v-4.76c.2-.31,1.17-.96,2.39-.96M52.39,15.05c-1.78,0-3.34,1.1-3.39,1.84v5l.17.73c.35.67,1.73,1.24,3.43,1.36.21.01.41.02.61.02,1.22,0,2.26-.26,2.77-.68l.02-1.44v-5c.06-.78-1.41-1.7-3.32-1.83h-.29Z" fill="#003755"/><path d="M56.5,42v-4c0-1.61-1.06-2.47-3.27-2.47-.35,0-1.43-.08-6.26,1.19.09-1.27.18-2.59.24-3.51.17-2.37,2.03-2.97,2.03-2.97,0,0,2.69-1.1,4.72-1.61,2.04-.51,2.53-1.63,2.53-1.63v-4.5c0-.82-1.14-2-4.99-2-1.36,0-8.96,1.95-10.99,2.54-13.18,3.84-19.97,17.65-26.95,20.08-3.45,1.2-6.08,2.63-6.08,4.38v8c.37,1,1.64,2,3.5,2,2.95,0,6.1-2.49,9.1-3.7,4.6-1.86,20.69-4.8,34.81-10.17,1.41-.54,1.59-1.33,1.59-1.63h.02Z" fill="none" stroke="#323232" stroke-linejoin="round"/><path d="M55.5,22.31c.05-.78-1.26-1.51-2.91-1.64-1.66-.13-3.04.39-3.08,1.17-.05.78,1.26,1.51,2.91,1.64,1.66.13,3.04-.39,3.08-1.17Z" fill="url(#ah)" stroke="#003755" stroke-linejoin="round"/><path d="M52.84,17.54c-.15,0-.3,0-.46-.02-1.68-.11-2.75-.82-2.73-1.24.03-.36.96-.86,2.42-.86.15,0,.3,0,.45.02,1.68.11,2.75.82,2.72,1.23-.03.36-.95.86-2.41.86h0Z" fill="url(#ai)"/><path d="M52.07,15.93c.14,0,.28,0,.42.01,1.18.08,1.93.46,2.18.69-.23.16-.83.4-1.83.4-.14,0-.28,0-.42-.02-1.18-.08-1.92-.46-2.18-.69.24-.16.84-.4,1.84-.4M52.07,14.93c-1.6,0-2.86.56-2.91,1.32-.06.85,1.37,1.64,3.19,1.77.17.01.33.02.49.02,1.59,0,2.85-.56,2.91-1.33.06-.85-1.37-1.64-3.19-1.76-.17-.01-.33-.02-.49-.02h0Z" fill="#003755"/></g></g><g mask="url(#aj)"><g id="al"><path d="M46.69,36.79s4.12-1.17,5.81-1.29c2.7-.2,4,.72,4,2.5v2.5l-10.89,2.54,1.09-6.25h-.01Z" fill="url(#v)" stroke="#787878" stroke-linejoin="round"/><path d="M7.5,47.5v8c.37,1,1.64,2,3.5,2,2.95,0,6.1-2.49,9.1-3.7,4.6-1.86,20.69-4.8,34.81-10.17,1.57-.6,1.59-1.42,1.59-1.63v-4c0,1.28-1.08,1.73-1.08,1.73,0,0-7,2.02-7.4,2.02-1.14,0-1.31-1.18-1.31-1.18,0,0,.34-5,.51-7.37s2.03-2.97,2.03-2.97c0,0,2.69-1.1,4.72-1.61,2.04-.51,2.53-1.63,2.53-1.63v-4.5s-12.67.96-19.79,4.01c-7.12,3.05-19.07,15.85-19.07,15.85l-10.14,5.14h0Z" fill="url(#x)" stroke="#787878" stroke-linejoin="round"/><path d="M40.52,23.04c-13.18,3.84-19.97,17.65-26.95,20.08-3.45,1.2-6.08,2.63-6.08,4.38,0,1,.34,2,3.5,2,5.72,0,4.33-4.01,17.91-14,13.77-10.14,12.46-7.36,26.25-11.78.96-.31,1.34-.67,1.34-1.22,0-.82-1.16-2-5-2-1.36,0-8.94,1.95-10.98,2.54h0Z" fill="url(#y)" stroke="#787878" stroke-linejoin="round"/><path d="M43.5,31.5c0-.34-.24-1-1-1-4.48,0-23.99,15.73-23.99,19,0,.55.28,1,1,1l21.99-6s1.38-.42,1.39-2.39c.02-2.29.61-10.61.61-10.61Z" fill="url(#am)" stroke="#787878" stroke-linejoin="round"/><path d="M18.54,49.35c.2,0,.41-.04.57-.1.42-.17,20.91-5.87,20.91-5.87,0,0,1.41-.27,1.5-1.88s.28-10.83.28-10.83" fill="none" stroke="#787878" stroke-linejoin="round"/><path d="M14.48,46.2c-.2-.81-1.69-1.16-3.34-.78s-2.82,1.34-2.62,2.15,1.69,1.16,3.33.78c1.65-.38,2.82-1.34,2.62-2.15h.01Z" fill="url(#an)" stroke="#323232" stroke-linejoin="round"/><path d="M52.61,36.44c-1.66-.13-3.04.46-3.1,1.31-.05.85,1.25,1.64,2.9,1.77,1.66.13,3.04-.46,3.09-1.31.05-.85-1.25-1.64-2.9-1.76h0Z" fill="url(#ao)" stroke="#323232" stroke-linejoin="round"/><path d="M56.5,42v-4c0-1.61-1.06-2.47-3.27-2.47-.35,0-1.43-.08-6.26,1.19.09-1.27.18-2.59.24-3.51.17-2.37,2.03-2.97,2.03-2.97,0,0,2.69-1.1,4.72-1.61,2.04-.51,2.53-1.63,2.53-1.63v-4.5c0-.82-1.14-2-4.99-2-1.36,0-8.96,1.95-10.99,2.54-13.18,3.84-19.97,17.65-26.95,20.08-3.45,1.2-6.08,2.63-6.08,4.38v8c.37,1,1.64,2,3.5,2,2.95,0,6.1-2.49,9.1-3.7,4.6-1.86,20.69-4.8,34.81-10.17,1.41-.54,1.59-1.33,1.59-1.63h.02Z" fill="none" stroke="#323232" stroke-linejoin="round"/><path d="M55.51,22.31c.05-.78-1.26-1.51-2.91-1.64-1.66-.13-3.04.39-3.08,1.17-.05.78,1.26,1.51,2.91,1.64,1.66.13,3.04-.39,3.08-1.17Z" fill="url(#ap)" stroke="#323232" stroke-linejoin="round"/></g></g></g></g><g id="aq"><g id="ar"><circle cx="40.21" cy="13.17" r="3.51" fill="#00415f"/><path d="M39.23,11.41c.13-.04.29-.07.46-.08s.35-.03.51-.03c.19,0,.36.02.52.05.16.04.3.09.42.17s.21.18.28.31c.07.13.1.29.1.47,0,.15-.02.3-.07.42-.05.13-.11.25-.19.37-.08.12-.17.23-.27.34-.11.11-.22.22-.33.34l-.82.8h1.73v.43h-2.45v-.41l1.11-1.12c.1-.1.2-.2.28-.3.09-.09.16-.19.22-.28s.11-.19.14-.29c.03-.1.05-.2.05-.31,0-.21-.07-.35-.2-.44-.13-.09-.32-.13-.56-.13-.07,0-.14,0-.22.01-.08,0-.16.02-.24.03-.08.01-.16.02-.23.04-.07.01-.13.03-.18.04l-.06-.44Z" fill="#fff"/><line x1="51.5" y1="19.5" x2="42.5" y2="14.5" fill="none" stroke="#00415f" stroke-linecap="round" stroke-linejoin="round"/></g><g id="as"><line x1="36.82" y1="47.61" x2="39.89" y2="51.56" fill="none" stroke="#00415f" stroke-linecap="round" stroke-linejoin="round"/><circle cx="41.21" cy="52.87" r="3.51" fill="#00415f"/><path d="M41.29,51.23h.41v3.33h-.51v-2.88l-.76.2v-.42l.86-.23Z" fill="#fff"/></g></g></svg>