<?xml version="1.0" encoding="UTF-8"?><svg xmlns="http://www.w3.org/2000/svg" xmlns:xlink="http://www.w3.org/1999/xlink" viewBox="0 0 64 64"><defs><style>.cls-1{fill:#343434;}.cls-2{fill:url(#linear-gradient-2);}.cls-3,.De-emphasized_WHITE_for_Vector_Highlights{fill:#fff;}.cls-4{fill:url(#linear-gradient-14);}.cls-4,.cls-5,.cls-6,.cls-7,.cls-8,.cls-9,.De-emphasized_WHITE_for_Vector_Highlights,.cls-10,.cls-11,.cls-12,.cls-13,.cls-14,.cls-15,.cls-16{stroke-linejoin:round;}.cls-4,.cls-5,.cls-6,.cls-7,.cls-8,.cls-10,.cls-11,.cls-12,.cls-13,.cls-14,.cls-15{stroke-linecap:round;}.cls-4,.cls-7,.cls-10,.cls-11,.cls-13,.cls-15{stroke:#00415f;}.cls-5{stroke:url(#linear-gradient-10);}.cls-5,.cls-6,.cls-8,.cls-17,.cls-14{fill:none;}.cls-6{stroke:url(#linear-gradient-12);}.cls-18{fill:url(#linear-gradient-6);}.cls-19{fill:#323232;}.cls-7{fill:url(#linear-gradient-7);}.cls-8{stroke:#6d6d6d;}.cls-20{opacity:.7;}.cls-9{fill:url(#linear-gradient-18);stroke:#053755;}.De-emphasized_WHITE_for_Vector_Highlights{opacity:.5;stroke:#fff;stroke-width:3px;}.cls-10{fill:url(#linear-gradient-15);}.cls-11{fill:url(#linear-gradient-8);}.cls-12{fill:url(#linear-gradient-17);}.cls-12,.cls-16{stroke:#323232;}.cls-21{fill:url(#linear-gradient-5);}.cls-22{clip-path:url(#clippath);}.cls-23{opacity:.3;}.cls-13{fill:url(#linear-gradient-9);}.cls-14{stroke:url(#linear-gradient-11);}.cls-24{fill:#00415f;}.cls-25{fill:url(#linear-gradient-3);}.cls-26{fill:url(#linear-gradient);}.cls-27{fill:#6d6d6d;}.cls-15{fill:url(#linear-gradient-13);}.cls-28{fill:url(#linear-gradient-4);}.cls-16{fill:url(#linear-gradient-16);}</style><clipPath id="clippath"><polygon class="cls-17" points="39 14 39 32.5 56.5 32.5 56.5 5.5 39.5 5.5 30.96 11.97 39 14"/></clipPath><linearGradient id="linear-gradient" x1="37.21" y1="1.97" x2="52.44" y2="-10.31" gradientTransform="translate(0 18) scale(1 -1)" gradientUnits="userSpaceOnUse"><stop offset="0" stop-color="#fff"/><stop offset="1" stop-color="#bbbdbf"/></linearGradient><linearGradient id="linear-gradient-2" x1="38.65" y1="5.88" x2="48.59" y2="-12.28" gradientTransform="translate(0 18) scale(1 -1)" gradientUnits="userSpaceOnUse"><stop offset="0" stop-color="#92d5ee"/><stop offset="1" stop-color="#6f9cae"/></linearGradient><linearGradient id="linear-gradient-3" x1="42.69" y1="1.54" x2="51.41" y2="-5.49" gradientTransform="translate(0 18) scale(1 -1)" gradientUnits="userSpaceOnUse"><stop offset="0" stop-color="#92d5ee"/><stop offset=".15" stop-color="#8ccfe8"/><stop offset=".34" stop-color="#7bbed7"/><stop offset=".57" stop-color="#60a2bb"/><stop offset=".81" stop-color="#3a7c94"/><stop offset="1" stop-color="#185971"/></linearGradient><linearGradient id="linear-gradient-4" x1="16.49" y1="-8.04" x2="42.13" y2="-31.48" gradientTransform="translate(0 18) scale(1 -1)" gradientUnits="userSpaceOnUse"><stop offset="0" stop-color="#f0f0f0"/><stop offset="1" stop-color="#b3b3b3"/></linearGradient><linearGradient id="linear-gradient-5" x1="29.1" y1="-24.68" x2="71.22" y2="-70.88" xlink:href="#linear-gradient-4"/><linearGradient id="linear-gradient-6" x1="-4.74" y1="11.51" x2="19.29" y2="-32.46" xlink:href="#linear-gradient-4"/><linearGradient id="linear-gradient-7" x1="18.53" y1="-8.03" x2="49.07" y2="-31.39" gradientTransform="translate(0 18) scale(1 -1)" gradientUnits="userSpaceOnUse"><stop offset="0" stop-color="#92d5ee"/><stop offset=".48" stop-color="#599bb4"/><stop offset="1" stop-color="#185971"/></linearGradient><linearGradient id="linear-gradient-8" x1="25.13" y1="-10.7" x2="45.3" y2="-22.42" xlink:href="#linear-gradient-7"/><linearGradient id="linear-gradient-9" x1="-3.23" y1="16.03" x2="36.47" y2="-41.18" xlink:href="#linear-gradient-7"/><linearGradient id="linear-gradient-10" x1="24.2" y1="-5.12" x2="29.68" y2="-15.16" gradientTransform="translate(0 18) scale(1 -1)" gradientUnits="userSpaceOnUse"><stop offset="0" stop-color="#00415f" stop-opacity=".2"/><stop offset="1" stop-color="#00415f"/></linearGradient><linearGradient id="linear-gradient-11" x1="14.53" y1="-3.27" x2="20.22" y2="-13.68" xlink:href="#linear-gradient-10"/><linearGradient id="linear-gradient-12" x1="34.63" y1="1.37" x2="40.32" y2="-9.05" xlink:href="#linear-gradient-10"/><linearGradient id="linear-gradient-13" x1="17.62" y1="4.68" x2="50.62" y2="-20.55" xlink:href="#linear-gradient-7"/><linearGradient id="linear-gradient-14" x1="25.32" y1="1.54" x2="45.98" y2="-10.47" xlink:href="#linear-gradient-7"/><linearGradient id="linear-gradient-15" x1="-4.17" y1="29.26" x2="37.05" y2="-30.13" xlink:href="#linear-gradient-7"/><linearGradient id="linear-gradient-16" x1="36.98" y1="32.27" x2="51.67" y2="57.73" gradientUnits="userSpaceOnUse"><stop offset="0" stop-color="#fff"/><stop offset="1" stop-color="#d4d5d3"/></linearGradient><linearGradient id="linear-gradient-17" x1="47.85" y1="36.15" x2="51.58" y2="42.61" xlink:href="#linear-gradient-16"/><linearGradient id="linear-gradient-18" x1="37.24" y1="45.5" x2="41.75" y2="53.3" gradientUnits="userSpaceOnUse"><stop offset="0" stop-color="#8dd7f4"/><stop offset="1" stop-color="#386e8c"/></linearGradient></defs><g id="Layer_10"><g class="cls-22"><circle class="cls-26" cx="43.62" cy="21.2" r="10.35"/><path class="cls-2" d="m43.62,12.65c4.71,0,8.55,3.84,8.55,8.55s-3.84,8.55-8.55,8.55-8.55-3.84-8.55-8.55,3.84-8.55,8.55-8.55m0-1.8c-5.72,0-10.35,4.63-10.35,10.35s4.63,10.35,10.35,10.35,10.35-4.63,10.35-10.35-4.63-10.35-10.35-10.35h0Z"/><path class="cls-24" d="m43.62,10.85c5.72,0,10.35,4.63,10.35,10.35s-4.63,10.35-10.35,10.35-10.35-4.63-10.35-10.35,4.63-10.35,10.35-10.35m0-.9c-6.2,0-11.25,5.05-11.25,11.25s5.05,11.25,11.25,11.25,11.25-5.05,11.25-11.25-5.05-11.25-11.25-11.25h0Z"/><path class="cls-25" d="m43.17,13.92c4.02,0,7.29,3.26,7.29,7.29,0,1.91-.73,3.65-1.94,4.95l-5.35-4.95v-7.29"/><rect class="cls-24" x="43.17" y="14.45" width=".9" height="7.2"/><rect class="cls-24" x="45.14" y="20.2" width=".9" height="5.93" transform="translate(-3.03 39.02) rotate(-45)"/><rect class="cls-24" x="41.37" y="7.25" width="4.5" height=".9"/><rect class="cls-24" x="42.27" y="8.15" width="2.7" height="1.8"/><rect class="cls-24" x="52.47" y="9.61" width=".9" height="4.5" transform="translate(7.11 40.89) rotate(-45)"/><rect class="cls-24" x="51.07" y="11.46" width="1.8" height="2.7" transform="translate(6.16 40.5) rotate(-45)"/></g></g><g id="Layer_4"><g id="volume_ok_copy"><polygon class="cls-28" points="8.26 29.81 18.95 23.29 28.08 25.34 17.4 32.19 8.26 29.81"/><path class="cls-21" d="m27.39,54.59c-.09,0-.18-.02-.26-.06-.2-.1-.33-.31-.33-.53v-9.51c0-.19.09-.38.25-.49l9.51-6.45c.1-.07.22-.11.34-.11.1,0,.19.02.27.07.2.1.32.3.32.52v8.32c0,.18-.09.35-.23.46l-9.45,7.63c-.12.1-.27.15-.43.14Z"/><path class="cls-27" d="m36.82,38.05v8.32l-9.43,7.63v-9.51l9.43-6.44m0-1.19c-.24,0-.48.07-.68.2l-9.43,6.44c-.32.22-.51.59-.51.99v9.51c0,.46.26.87.68,1.07.16.08.33.12.51.12.27,0,.53-.09.74-.26l9.51-7.63c.28-.23.44-.57.44-.93v-8.32c0-.44-.24-.85-.63-1.06-.17-.08-.36-.13-.55-.13h-.07Z"/><polygon class="cls-18" points="17.4 32.19 17.4 42.41 26.2 44.63 26.2 53.99 8.26 48.74 8.26 29.81 17.4 32.19"/><line id="arete_ok_" class="cls-8" x1="8.57" y1="29.73" x2="17.28" y2="32"/><g id="Layer_44_copy"><polygon class="cls-7" points="26.94 34.69 36.83 27.52 36.83 38.03 26.94 44.97 26.94 34.69"/><polygon class="cls-11" points="17.4 32.19 28.08 25.34 36.83 27.52 26.94 34.69 17.4 32.19"/><polygon class="cls-13" points="26.94 34.69 26.94 44.97 17.4 42.45 17.4 32.19 26.94 34.69"/><path class="cls-1" d="m18.95,23.29l9.13,2.06,8.75,2.17v18.84l-9.71,8.06-18.86-5.68v-18.93l10.69-6.52m-.2-1.27l-.42.25-10.69,6.54-.57.34v20.47l.84.26,18.87,5.68.61.18.49-.4,9.71-8.06.43-.36v-20.33l-.89-.23-8.75-2.17-9.15-2.07-.46-.11h-.01Z"/></g><g id="Layer_51_copy"><line class="cls-5" x1="26.94" y1="34.09" x2="26.94" y2="22.19"/><line class="cls-14" x1="17.37" y1="32.66" x2="17.37" y2="20.28"/><line class="cls-6" x1="37.48" y1="28.03" x2="37.48" y2="15.65"/></g><g class="cls-23"><polygon class="cls-15" points="26.94 22.36 37.29 15.27 37.29 26.4 26.94 33.53 26.94 22.36"/><polygon class="cls-4" points="17.4 20.01 27.83 13.25 37.29 15.27 26.94 22.36 17.4 20.01"/><polygon class="cls-10" points="26.94 22.36 26.94 33.53 17.4 31.01 17.4 20.01 26.94 22.36"/></g></g><g id="FL_OK_" class="cls-20"><polygon class="cls-3" points="8.32 11.33 14.26 7.73 14.26 10.11 27.33 10.11 27.33 17.24 24.95 17.24 24.95 12.49 14.26 12.49 14.26 16.05 8.32 11.33 8.32 11.33"/></g><polygon id="FL_OK_2" class="cls-19" points="8.18 10.75 14.12 7.15 14.12 9.53 27.19 9.53 27.19 16.66 24.81 16.66 24.81 11.91 14.12 11.91 14.12 15.47 8.18 10.75 8.18 10.75"/></g><g id="Layer_5"><polygon class="De-emphasized_WHITE_for_Vector_Highlights" points="37.56 38.91 37.56 36.21 36.21 34.85 34.85 33.5 38.91 33.5 40.26 34.85 40.26 37.56 41.62 38.91 51.09 48.38 55.15 48.38 56.5 49.74 56.5 51.09 56.5 53.79 55.15 52.44 53.79 51.09 51.09 51.09 51.09 53.79 53.79 56.5 51.09 56.5 49.74 56.5 48.38 55.15 48.38 52.44 48.38 51.09 38.91 41.62 33.5 41.62 32.15 40.26 32.15 38.91 32.15 36.21 33.5 37.56 34.85 38.91 37.56 38.91"/><polyline class="De-emphasized_WHITE_for_Vector_Highlights" points="55.15 33.5 52.44 33.5 44.11 41.79 42.97 42.97 45.68 46.01 47.03 44.32 55.15 36.21 55.15 33.5"/><polygon class="De-emphasized_WHITE_for_Vector_Highlights" points="44.32 42.97 41.62 42.97 32.15 52.44 36.21 56.5 45.68 47.03 45.68 44.32 44.32 42.97"/></g><g id="Layer_6"><polygon class="cls-16" points="37.56 38.91 37.56 36.21 36.21 34.85 34.85 33.5 38.91 33.5 40.26 34.85 40.26 37.56 41.62 38.91 51.09 48.38 55.15 48.38 56.5 49.74 56.5 51.09 56.5 53.79 55.15 52.44 53.79 51.09 51.09 51.09 51.09 53.79 53.79 56.5 51.09 56.5 49.74 56.5 48.38 55.15 48.38 52.44 48.38 51.09 38.91 41.62 33.5 41.62 32.15 40.26 32.15 38.91 32.15 36.21 33.5 37.56 34.85 38.91 37.56 38.91"/><polyline class="cls-12" points="55.15 33.5 52.44 33.5 44.11 41.79 42.97 42.97 45.68 46.01 47.03 44.32 55.15 36.21 55.15 33.5"/><polygon class="cls-9" points="44.32 42.97 41.62 42.97 32.15 52.44 36.21 56.5 45.68 47.03 45.68 44.32 44.32 42.97"/></g></svg>