<?xml version="1.0" encoding="UTF-8"?><svg xmlns="http://www.w3.org/2000/svg" xmlns:xlink="http://www.w3.org/1999/xlink" viewBox="0 0 64 64"><defs><linearGradient id="linear-gradient" x1="14.16" y1="8.39" x2="40.84" y2="54.61" gradientUnits="userSpaceOnUse"><stop offset="0" stop-color="#fff"/><stop offset="1" stop-color="#d2d2d2"/></linearGradient><linearGradient id="linear-gradient-2" x1="25" y1="21" x2="41" y2="21" gradientUnits="userSpaceOnUse"><stop offset="0" stop-color="#464646"/><stop offset="1" stop-color="#141414"/></linearGradient><linearGradient id="linear-gradient-3" y1="32" y2="32" xlink:href="#linear-gradient-2"/><linearGradient id="linear-gradient-4" y1="43" y2="43" xlink:href="#linear-gradient-2"/><linearGradient id="linear-gradient-5" x1="21.88" y1="18" x2="24.75" y2="13.04" gradientTransform="translate(-9.62 26.77) rotate(-45)" gradientUnits="userSpaceOnUse"><stop offset="0" stop-color="#379614"/><stop offset="1" stop-color="#55b432"/></linearGradient><linearGradient id="linear-gradient-6" x1="21.63" y1="18.43" x2="25" y2="12.6" gradientTransform="translate(-9.62 26.77) rotate(-45)" gradientUnits="userSpaceOnUse"><stop offset="0" stop-color="#28780a"/><stop offset="1" stop-color="#3c9b19"/></linearGradient><linearGradient id="linear-gradient-7" x1="14.1" y1="25.78" x2="16.97" y2="20.81" xlink:href="#linear-gradient-5"/><linearGradient id="linear-gradient-8" x1="13.85" y1="26.21" x2="17.22" y2="20.38" xlink:href="#linear-gradient-6"/><linearGradient id="linear-gradient-9" x1="6.33" y1="33.56" x2="9.19" y2="28.59" xlink:href="#linear-gradient-5"/><linearGradient id="linear-gradient-10" x1="6.08" y1="33.99" x2="9.44" y2="28.16" xlink:href="#linear-gradient-6"/><linearGradient id="linear-gradient-11" x1="24.13" y1="4.67" x2="30.87" y2="16.33" xlink:href="#linear-gradient"/><linearGradient id="linear-gradient-12" x1="41.51" y1="37.49" x2="52.49" y2="56.51" gradientUnits="userSpaceOnUse"><stop offset="0" stop-color="#3287af"/><stop offset="1" stop-color="#285a78"/></linearGradient></defs><g id="Layer_1"><rect x="10.5" y="10.5" width="34" height="42" fill="url(#linear-gradient)" stroke="#787878" stroke-linejoin="round"/><rect x="13.5" y="17.5" width="7" height="7" fill="none" stroke="#787878" stroke-linejoin="round"/><rect x="13.5" y="28.5" width="7" height="7" fill="none" stroke="#787878" stroke-linejoin="round"/><rect x="13.5" y="39.5" width="7" height="7" fill="none" stroke="#787878" stroke-linejoin="round"/><rect x="25" y="20" width="16" height="2" fill="url(#linear-gradient-2)"/><rect x="25" y="31" width="16" height="2" fill="url(#linear-gradient-3)"/><rect x="25" y="42" width="16" height="2" fill="url(#linear-gradient-4)"/><polygon points="16.44 21.77 14.32 19.65 12.9 21.06 15.03 23.18 16.44 24.6 17.85 23.18 22.1 18.94 20.68 17.53 16.44 21.77" fill="#fff" opacity=".5" stroke="#fff" stroke-linejoin="round" stroke-width="3"/><polygon points="16.44 32.77 14.32 30.65 12.9 32.06 15.03 34.18 16.44 35.6 17.85 34.18 22.1 29.94 20.68 28.53 16.44 32.77" fill="#fff" opacity=".5" stroke="#fff" stroke-linejoin="round" stroke-width="3"/><polygon points="16.44 43.77 14.32 41.65 12.9 43.06 15.03 45.18 16.44 46.6 17.85 45.18 22.1 40.94 20.68 39.53 16.44 43.77" fill="#fff" opacity=".5" stroke="#fff" stroke-linejoin="round" stroke-width="3"/><polygon points="16.44 21.77 14.32 19.65 12.9 21.06 15.03 23.18 16.44 24.6 17.85 23.18 22.1 18.94 20.68 17.53 16.44 21.77" fill="url(#linear-gradient-5)" stroke="url(#linear-gradient-6)" stroke-linejoin="round"/><polygon points="16.44 32.77 14.32 30.65 12.9 32.06 15.03 34.18 16.44 35.6 17.85 34.18 22.1 29.94 20.68 28.53 16.44 32.77" fill="url(#linear-gradient-7)" stroke="url(#linear-gradient-8)" stroke-linejoin="round"/><polygon points="16.44 43.77 14.32 41.65 12.9 43.06 15.03 45.18 16.44 46.6 17.85 45.18 22.1 40.94 20.68 39.53 16.44 43.77" fill="url(#linear-gradient-9)" stroke="url(#linear-gradient-10)" stroke-linejoin="round"/><path d="M17.5,8.5v4h20v-4h-6l-.59-.59c-.91-.91-2.13-1.41-3.41-1.41h0c-1.28,0-2.51,.51-3.41,1.41l-.59,.59h-6Z" fill="url(#linear-gradient-11)" stroke="#787878" stroke-linejoin="round"/><path d="M37.5,10.5v-2h-6l-.59-.59c-.91-.91-2.13-1.41-3.41-1.41s-2.51,.51-3.41,1.41l-.59,.59h-6v2h-7V52.5H44.5V10.5h-7Z" fill="none" stroke="#323232" stroke-linejoin="round"/></g><g id="Layer_3"><path d="M55.07,49.1h2.72c.16-.68,.21-1.31,.21-2.1s-.05-1.41-.21-2.09h-2.72c-.89,0-1.2-1.1-1.2-1.36s.11-.52,.31-.73l1.94-1.99c-.79-1.15-1.78-2.15-2.93-2.93l-1.99,1.94c-.21,.21-.47,.31-.73,.31-.37,0-1.36-.37-1.36-1.2v-2.72c-.68-.16-1.31-.21-2.1-.21s-1.41,.05-2.09,.21v2.72c0,.89-1.1,1.2-1.36,1.2s-.52-.1-.73-.31l-1.99-1.94c-1.41,1-1.94,1.52-2.93,2.93l1.94,1.99c.21,.21,.31,.47,.31,.73,0,.37-.37,1.36-1.2,1.36h-2.72c-.16,.68-.21,1.31-.21,2.09s.05,1.41,.21,2.1h2.72c.89,0,1.2,1.1,1.2,1.36s-.1,.52-.31,.73l-1.94,1.99c1,1.41,1.52,1.94,2.93,2.93l1.99-1.94c.21-.21,.47-.31,.73-.31,.37,0,1.36,.37,1.36,1.2v2.72c.68,.16,1.31,.21,2.09,.21s1.41-.05,2.1-.21v-2.72c0-.89,1.1-1.2,1.36-1.2s.52,.11,.73,.31l1.99,1.94c1.15-.79,2.15-1.78,2.93-2.93l-1.94-1.99c-.21-.21-.31-.47-.31-.73,0-.37,.37-1.36,1.2-1.36Zm-8.08,1.55c-1.99,0-3.63-1.64-3.63-3.63s1.64-3.63,3.63-3.63,3.63,1.64,3.63,3.63-1.64,3.63-3.63,3.63Z" fill="#fff" opacity=".5" stroke="#fff" stroke-linejoin="round" stroke-width="2"/><path d="M55.07,49.1h2.72c.16-.68,.21-1.31,.21-2.1s-.05-1.41-.21-2.09h-2.72c-.89,0-1.2-1.1-1.2-1.36s.11-.52,.31-.73l1.94-1.99c-.79-1.15-1.78-2.15-2.93-2.93l-1.99,1.94c-.21,.21-.47,.31-.73,.31-.37,0-1.36-.37-1.36-1.2v-2.72c-.68-.16-1.31-.21-2.1-.21s-1.41,.05-2.09,.21v2.72c0,.89-1.1,1.2-1.36,1.2s-.52-.1-.73-.31l-1.99-1.94c-1.41,1-1.94,1.52-2.93,2.93l1.94,1.99c.21,.21,.31,.47,.31,.73,0,.37-.37,1.36-1.2,1.36h-2.72c-.16,.68-.21,1.31-.21,2.09s.05,1.41,.21,2.1h2.72c.89,0,1.2,1.1,1.2,1.36s-.1,.52-.31,.73l-1.94,1.99c1,1.41,1.52,1.94,2.93,2.93l1.99-1.94c.21-.21,.47-.31,.73-.31,.37,0,1.36,.37,1.36,1.2v2.72c.68,.16,1.31,.21,2.09,.21s1.41-.05,2.1-.21v-2.72c0-.89,1.1-1.2,1.36-1.2s.52,.11,.73,.31l1.99,1.94c1.15-.79,2.15-1.78,2.93-2.93l-1.94-1.99c-.21-.21-.31-.47-.31-.73,0-.37,.37-1.36,1.2-1.36Zm-8.08,1.55c-1.99,0-3.63-1.64-3.63-3.63s1.64-3.63,3.63-3.63,3.63,1.64,3.63,3.63-1.64,3.63-3.63,3.63Z" fill="url(#linear-gradient-12)"/></g></svg>