<?xml version="1.0" encoding="UTF-8"?><svg xmlns="http://www.w3.org/2000/svg" xmlns:xlink="http://www.w3.org/1999/xlink" viewBox="0 0 64 64"><defs><style>.cls-1{fill:#343434;}.cls-2{fill:url(#linear-gradient-2);}.cls-3{fill:#96989a;}.cls-4,.De-emphasized_WHITE_for_Vector_Highlights{fill:#fff;}.cls-5,.cls-6,.cls-7,.cls-8,.cls-9,.cls-10,.cls-11,.cls-12,.De-emphasized_WHITE_for_Vector_Highlights,.cls-13,.cls-14,.cls-15,.cls-16,.cls-17,.cls-18,.cls-19,.cls-20,.cls-21,.cls-22,.cls-23,.cls-24,.cls-25{stroke-linejoin:round;}.cls-5,.cls-26,.cls-27,.cls-9,.cls-13,.cls-14,.cls-28,.cls-29,.cls-30,.cls-23,.cls-31{fill:none;}.cls-5,.cls-10,.cls-11,.cls-15,.cls-17,.cls-18,.cls-24{stroke:#063755;}.cls-32{fill:url(#linear-gradient-17);}.cls-33{fill:url(#linear-gradient-43);}.cls-6{fill:url(#linear-gradient-15);}.cls-6,.cls-26,.cls-7,.cls-8,.cls-9,.cls-10,.cls-11,.cls-12,.cls-13,.cls-14,.cls-15,.cls-16,.cls-17,.cls-18,.cls-19,.cls-20,.cls-21,.cls-22,.cls-23,.cls-24,.cls-25,.cls-31{stroke-linecap:round;}.cls-6,.cls-9,.cls-16,.cls-20{stroke:#6d6d6d;}.cls-26,.cls-13,.cls-31{stroke:#323232;}.cls-26,.cls-28,.cls-31{stroke-miterlimit:10;}.cls-34{fill:url(#linear-gradient-18);}.cls-35{fill:url(#linear-gradient-40);}.cls-36{fill:url(#linear-gradient-28);}.cls-7{fill:url(#linear-gradient-7);}.cls-7,.cls-12,.cls-19,.cls-21,.cls-22,.cls-25{stroke:#797979;}.cls-27{opacity:.5;}.cls-37{fill:url(#linear-gradient-36);}.cls-38{fill:url(#linear-gradient-20);}.cls-39{fill:#323232;}.cls-8{fill:url(#linear-gradient-44);}.cls-8,.cls-23{stroke:#00415f;}.cls-40{fill:url(#linear-gradient-35);}.cls-41{fill:url(#linear-gradient-32);}.cls-10{fill:url(#linear-gradient-11);}.cls-42{fill:url(#linear-gradient-39);}.cls-11{fill:url(#linear-gradient-12);}.cls-12{fill:url(#linear-gradient-4);}.De-emphasized_WHITE_for_Vector_Highlights{opacity:.5;stroke:#fff;stroke-width:3px;}.cls-43{fill:url(#linear-gradient-37);}.cls-14{stroke:#2b6c86;}.cls-44{fill:url(#linear-gradient-16);}.cls-45{fill:url(#linear-gradient-31);}.cls-46{fill:url(#linear-gradient-41);}.cls-15{fill:url(#linear-gradient-9);}.cls-16,.cls-47{fill:#6d6d6d;}.cls-48{fill:url(#linear-gradient-21);}.cls-17{fill:url(#linear-gradient-10);}.cls-49{fill:url(#linear-gradient-25);}.cls-18{fill:url(#linear-gradient-14);}.cls-28{stroke:#818182;}.cls-50{fill:url(#linear-gradient-34);}.cls-19{fill:url(#linear-gradient-8);}.cls-51{fill:#4f4f4f;}.cls-52{fill:#2d2d2d;}.cls-53{fill:url(#top_white);}.cls-20{fill:url(#linear-gradient-30);}.cls-54{fill:url(#white_left);}.cls-29{mask:url(#mask);}.cls-30{opacity:.3;}.cls-55{fill:url(#linear-gradient-24);}.cls-56{fill:#00415f;}.cls-21{fill:url(#linear-gradient-5);}.cls-57{fill:url(#linear-gradient-22);}.cls-22{fill:url(#linear-gradient-6);}.cls-58{fill:url(#linear-gradient-42);}.cls-24{fill:url(#linear-gradient-13);}.cls-25{fill:url(#linear-gradient-3);}.DARK_GREY_Fill_4{fill:url(#linear-gradient);}.cls-59{fill:url(#linear-gradient-27);}.cls-60{fill:url(#linear-gradient-33);}.cls-61{fill:url(#linear-gradient-38);}.cls-62{fill:url(#linear-gradient-29);}.cls-63{fill:url(#linear-gradient-23);}.cls-64{fill:url(#linear-gradient-19);}.cls-65{fill:url(#linear-gradient-26);}.cls-31{stroke-dasharray:0 0 2.03 2.03;}</style><linearGradient id="linear-gradient" x1="13.25" y1="44.63" x2="40.67" y2="44.63" gradientUnits="userSpaceOnUse"><stop offset="0" stop-color="#464646"/><stop offset="1" stop-color="#141414"/></linearGradient><linearGradient id="white_left" x1="6.5" y1="45.06" x2="57.5" y2="45.06" gradientUnits="userSpaceOnUse"><stop offset="0" stop-color="#f5f5f5"/><stop offset="1" stop-color="#bebebe"/></linearGradient><linearGradient id="top_white" x1="6.5" y1="45.06" x2="57.5" y2="45.06" gradientUnits="userSpaceOnUse"><stop offset="0" stop-color="#fff"/><stop offset="1" stop-color="#f0f0f0"/></linearGradient><linearGradient id="linear-gradient-2" x1="12.26" y1="19.34" x2="15.73" y2="25.34" gradientUnits="userSpaceOnUse"><stop offset="0" stop-color="#fff"/><stop offset="1" stop-color="#f0f0f0"/></linearGradient><linearGradient id="linear-gradient-3" x1="14.27" y1="25.89" x2="17.74" y2="31.9" xlink:href="#linear-gradient-2"/><linearGradient id="linear-gradient-4" x1="18.58" y1="32.18" x2="22.4" y2="38.79" xlink:href="#linear-gradient-2"/><linearGradient id="linear-gradient-5" x1="4.47" y1="23.76" x2="16.47" y2="44.54" gradientUnits="userSpaceOnUse"><stop offset="0" stop-color="#f4f5f5"/><stop offset=".99" stop-color="#bebdbd"/></linearGradient><linearGradient id="linear-gradient-6" x1="13.68" y1="22.78" x2="16.51" y2="27.68" gradientUnits="userSpaceOnUse"><stop offset="0" stop-color="#fff"/><stop offset="1" stop-color="#d2d2d2"/></linearGradient><linearGradient id="linear-gradient-7" x1="16.64" y1="30.08" x2="18.8" y2="33.82" xlink:href="#linear-gradient-6"/><linearGradient id="linear-gradient-8" x1="21.52" y1="35.8" x2="24.04" y2="40.17" xlink:href="#linear-gradient-6"/><linearGradient id="linear-gradient-9" x1="19.21" y1="19.51" x2="24.34" y2="28.4" gradientUnits="userSpaceOnUse"><stop offset="0" stop-color="#a2ddf7"/><stop offset="1" stop-color="#73c3e1"/></linearGradient><linearGradient id="linear-gradient-10" x1="14.46" y1="24.2" x2="34.37" y2="58.67" gradientUnits="userSpaceOnUse"><stop offset="0" stop-color="#82bddc"/><stop offset="1" stop-color="#275a78"/></linearGradient><linearGradient id="linear-gradient-11" x1="20.06" y1="21.01" x2="34.03" y2="45.21" gradientUnits="userSpaceOnUse"><stop offset="0" stop-color="#8bd6f4"/><stop offset="1" stop-color="#376e8c"/></linearGradient><linearGradient id="linear-gradient-12" x1="25.08" y1="21.18" x2="30.21" y2="30.08" xlink:href="#linear-gradient-9"/><linearGradient id="linear-gradient-13" x1="20.33" y1="25.87" x2="40.24" y2="60.34" xlink:href="#linear-gradient-10"/><linearGradient id="linear-gradient-14" x1="25.93" y1="22.69" x2="39.9" y2="46.88" xlink:href="#linear-gradient-11"/><linearGradient id="linear-gradient-15" x1="41.57" y1="33.8" x2="55.52" y2="33.8" gradientUnits="userSpaceOnUse"><stop offset=".01" stop-color="#4d4d4d"/><stop offset="1" stop-color="#c7c7c9"/></linearGradient><linearGradient id="linear-gradient-16" x1="56.94" y1="26.2" x2="38.6" y2="37.53" gradientUnits="userSpaceOnUse"><stop offset="0" stop-color="#f0f0f0"/><stop offset="1" stop-color="#b3b3b3"/></linearGradient><linearGradient id="linear-gradient-17" x1="52.63" y1="33.45" x2="54.6" y2="33.45" xlink:href="#linear-gradient-16"/><linearGradient id="linear-gradient-18" x1="43.92" y1="27.95" x2="45.48" y2="27.95" xlink:href="#linear-gradient-16"/><linearGradient id="linear-gradient-19" x1="44.37" y1="31.22" x2="53.41" y2="31.22" xlink:href="#linear-gradient-15"/><linearGradient id="linear-gradient-20" x1="44.37" y1="29.13" x2="53.41" y2="29.13" xlink:href="#linear-gradient-16"/><linearGradient id="linear-gradient-21" x1="47.52" y1="22.06" x2="52.31" y2="22.06" xlink:href="#linear-gradient-16"/><linearGradient id="linear-gradient-22" x1="51.24" y1="25.34" x2="45.77" y2="25.34" gradientUnits="userSpaceOnUse"><stop offset="0" stop-color="#f0f0f0"/><stop offset=".12" stop-color="#e5e5e5"/><stop offset=".33" stop-color="#c9c9c9"/><stop offset=".59" stop-color="#9b9b9b"/><stop offset=".91" stop-color="#5c5c5c"/><stop offset="1" stop-color="#4a4a4a"/></linearGradient><linearGradient id="linear-gradient-23" x1="53.37" y1="22.07" x2="44.51" y2="28.48" xlink:href="#linear-gradient-16"/><linearGradient id="linear-gradient-24" x1="46.87" y1="15.35" x2="43.1" y2="18.92" gradientUnits="userSpaceOnUse"><stop offset=".18" stop-color="#f0f0f0"/><stop offset=".3" stop-color="#e8e8e8"/><stop offset=".47" stop-color="#d5d5d5"/><stop offset=".68" stop-color="#b4b4b4"/><stop offset=".91" stop-color="#888"/><stop offset="1" stop-color="#757575"/></linearGradient><linearGradient id="linear-gradient-25" x1="42.29" y1="8.89" x2="39.13" y2="11.71" gradientUnits="userSpaceOnUse"><stop offset=".41" stop-color="#f0f0f0"/><stop offset=".61" stop-color="#d0d0d0"/><stop offset="1" stop-color="#8c8c8c"/></linearGradient><linearGradient id="linear-gradient-26" x1="37.65" y1="12.44" x2="43.46" y2="12.44" xlink:href="#linear-gradient-16"/><linearGradient id="linear-gradient-27" x1="39.64" y1="12.5" x2="41.74" y2="12.5" xlink:href="#linear-gradient-16"/><linearGradient id="linear-gradient-28" x1="32.98" y1="15.5" x2="36.66" y2="19.19" gradientUnits="userSpaceOnUse"><stop offset="0" stop-color="#f0f0f0"/><stop offset="1" stop-color="#919191"/></linearGradient><linearGradient id="linear-gradient-29" x1="27.41" y1="22.2" x2="34.31" y2="22.2" xlink:href="#linear-gradient-28"/><linearGradient id="linear-gradient-30" x1="42.47" y1="11.94" x2="37.46" y2="15.82" xlink:href="#linear-gradient-16"/><linearGradient id="linear-gradient-31" x1="27.15" y1="23.02" x2="33.07" y2="23.02" xlink:href="#linear-gradient-16"/><linearGradient id="linear-gradient-32" x1="27.72" y1="14.01" x2="38.16" y2="22.52" gradientTransform="translate(-3.32 4.74) rotate(-.6)" gradientUnits="userSpaceOnUse"><stop offset="0" stop-color="#757575"/><stop offset=".1" stop-color="#929292"/><stop offset=".23" stop-color="#b3b3b3"/><stop offset=".37" stop-color="#cecece"/><stop offset=".52" stop-color="#e1e1e1"/><stop offset=".66" stop-color="#ececec"/><stop offset=".82" stop-color="#f0f0f0"/></linearGradient><linearGradient id="linear-gradient-33" x1="30.04" y1="27.67" x2="38.01" y2="25.41" xlink:href="#linear-gradient-15"/><linearGradient id="linear-gradient-34" x1="25.68" y1="29.22" x2="41.97" y2="27.25" xlink:href="#linear-gradient-15"/><linearGradient id="linear-gradient-35" x1="28.58" y1="24.9" x2="30.03" y2="24.9" gradientTransform="translate(-3.32 4.74) rotate(-.6)" xlink:href="#linear-gradient-15"/><linearGradient id="linear-gradient-36" x1="21.59" y1="22.46" x2="34.26" y2="18.69" xlink:href="#linear-gradient-15"/><linearGradient id="linear-gradient-37" x1="19.37" y1="27.11" x2="31.81" y2="19.89" xlink:href="#linear-gradient-15"/><linearGradient id="linear-gradient-38" x1="20.86" y1="29.89" x2="34.74" y2="27.89" xlink:href="#linear-gradient-28"/><linearGradient id="linear-gradient-39" x1="18.99" y1="25.53" x2="32.58" y2="22.77" xlink:href="#linear-gradient-28"/><mask id="mask" x="19.45" y="14.53" width="19.59" height="19.78" maskUnits="userSpaceOnUse"><rect class="cls-4" x="19.45" y="14.53" width="19.59" height="19.78"/><polygon points="28.67 18.55 27.17 20.16 32.89 25.13 34.66 23.43 28.67 18.55"/></mask><linearGradient id="linear-gradient-40" x1="37.26" y1="27.16" x2="66.53" y2="74.15" gradientUnits="userSpaceOnUse"><stop offset="0" stop-color="#fcfcfc"/><stop offset="1" stop-color="#b3b3b3"/></linearGradient><linearGradient id="linear-gradient-41" x1="40.2" y1="26.64" x2="59.9" y2="58.26" gradientUnits="userSpaceOnUse"><stop offset="0" stop-color="#92d5ee"/><stop offset=".48" stop-color="#599bb3"/><stop offset="1" stop-color="#185971"/></linearGradient><linearGradient id="linear-gradient-42" x1="39.89" y1="32.17" x2="45.45" y2="37.26" xlink:href="#linear-gradient-16"/><linearGradient id="linear-gradient-43" x1="44.7" y1="34.04" x2="29.48" y2="42.85" xlink:href="#linear-gradient-16"/><linearGradient id="linear-gradient-44" x1="42.16" y1="33.88" x2="48.44" y2="40.4" xlink:href="#linear-gradient-41"/></defs><g id="Layer_12"><polygon class="cls-54" points="57.5 40.28 38.24 57.5 6.5 44.55 25.76 32.62 57.5 40.28"/><path class="cls-53" d="m25.93,33.69l29.48,7.11-17.37,15.54-29.35-11.97,17.23-10.68m-.17-1.07l-19.26,11.93,31.74,12.95,19.26-17.22-31.74-7.66h0Z"/><path class="cls-39" d="m25.76,32.62s0,0-.02.01h0s-.03.02-.05.03h0s0,0,0,0h0s0,0,0,0h0s0,0,0,0h0s0,0,0,0h0s-.01,0-.02.01h0s0,0,0,0h0s-.01,0-.02,0h0s0,0,0,0h0s0,0,0,0h0s0,0,0,0h0s0,0,0,0h0s0,0,0,0h-.01s0,0,0,0h0s0,0,0,0h-.01s0,0,0,0l-.03.02h0s-1.48.92-1.48.92l.13.21,1.7-1.05-.13-.21h0Zm-3.4,2.11l-1.7,1.05.13.21,1.7-1.05-.13-.21h0Zm-3.4,2.11l-.32.2s0,0,0,0h0s0,0,0,0h0s0,0,0,0h0c-.49.31-1.37.85-1.37.85l.13.21,1.7-1.05-.13-.21h0Zm-3.4,2.11l-1.7,1.05.13.21,1.7-1.05-.13-.21h0Zm-3.4,2.11s-.2.12-.46.29h0s-.01,0-.02.01h0s0,0,0,0h0s0,0,0,0h0s-.01,0-.02.01h0s0,0,0,0h0s0,0,0,0l-1.17.72.13.21,1.7-1.05-.13-.21h0Zm-3.4,2.11l-1.7,1.05.13.21,1.7-1.05-.13-.21h0Zm-.92,1.67l-.09.23,1.85.76.09-.23-1.85-.76h0Zm3.7,1.51l-.09.23,1.85.76.09-.23-1.85-.76h0Zm3.7,1.51l-.09.23,1.85.76.09-.23-1.85-.76h0Zm3.7,1.51l-.09.23,1.85.76.09-.23-1.85-.76h0Zm3.7,1.51l-.09.23,1.85.76.09-.23-1.85-.76h0Zm3.7,1.51l-.09.23,1.85.76.09-.23-1.85-.76h0Zm3.7,1.51l-.09.23s.48.19.95.39h0s0,0,.01,0h0s0,0,0,0h0s0,0,0,0h0s0,0,0,0h0s0,0,0,0h0s0,0,0,0h0s0,0,0,0h0s0,0,0,0h0s0,0,0,0l.86.35.09-.23-1.85-.76h0Zm3.7,1.51l-.09.23,1.85.76.09-.23-1.85-.76h0Zm5.1,1.2l-.68.61-.72-.29-.09.23.84.34s0,0,0,0h0s0,0,0,0h0s0,0,0,0h0s0,0,0,0h0s0,0,0,0h0s0,0,0,0h0s0,0,0,0h0s0,0,0,0h0s0,0,0,0h0s0,0,0,0h0s0,0,0,0h0s0,0,0,0h0s0,0,0,0h0s0,0,0,0h0l.79-.71-.17-.19h0Zm2.98-2.67l-1.49,1.33.17.19,1.49-1.33-.17-.19h0Zm2.98-2.67l-1.49,1.33.17.19,1.49-1.33-.17-.19h0Zm2.98-2.67l-1.49,1.33.17.19,1.49-1.33-.17-.19h0Zm2.98-2.67l-1.49,1.33.17.19s.29-.26.61-.54h0s.01-.01.02-.01h0s0,0,0,0h0s0,0,0,0l.86-.76-.17-.19h0Zm2.98-2.67l-1.49,1.33.17.19s.39-.34.76-.68l.73-.65-.17-.19h0Zm2.98-2.67l-1.49,1.33.17.19,1.49-1.33-.17-.19h0Zm-2.4-1.08l-.06.24,1.94.47.06-.24s-.67-.16-1.22-.29h0s0,0-.01,0h0s0,0,0,0h0s0,0,0,0h0s0,0,0,0h0s0,0,0,0h0s0,0,0,0h0s0,0,0,0h0s0,0,0,0h0s0,0,0,0l-.67-.16h0Zm-3.89-.94l-.06.24,1.94.47.06-.24-1.27-.31s0,0,0,0h0s0,0,0,0h0s0,0,0,0h0c-.36-.09-.66-.16-.66-.16h0Zm-3.89-.94l-.06.24,1.94.47.06-.24-1.94-.47h0Zm-3.89-.94l-.06.24,1.94.47.06-.24-1.94-.47h0Zm-3.89-.94l-.06.24,1.94.47.06-.24-1.94-.47h0Zm-3.89-.94l-.06.24,1.94.47.06-.24-1.94-.47h0Zm-3.89-.94l-.06.24,1.94.47.06-.24-.64-.15s0,0,0,0h0s0,0,0,0h0s0,0,0,0h0s0,0,0,0h0c-.56-.14-1.29-.31-1.29-.31h0Zm-3.89-.94l-.06.24,1.94.47.06-.24s-.31-.07-.68-.16h0s0,0,0,0h0s0,0,0,0h0s0,0,0,0h0s0,0,0,0h0s0,0,0,0h0s0,0,0,0l-1.24-.3h0Z"/><line class="cls-26" x1="32.26" y1="40.55" x2="31.43" y2="41.11"/><line class="cls-26" x1="30.05" y1="42.05" x2="29.22" y2="42.61"/><line class="cls-26" x1="36.68" y1="47.8" x2="37.45" y2="47.17"/><polyline class="cls-26" points="38.62 46.23 39.4 45.59 38.44 45.32"/><polyline class="cls-31" points="36.48 44.75 29.32 42.69 25.76 41.56"/><polyline class="cls-26" points="24.79 41.26 23.84 40.95 23.01 41.51"/><line class="cls-26" x1="22.01" y1="42.17" x2="21.18" y2="42.73"/><path class="DARK_GREY_Fill_4" d="m31.96,46.26l8.72,2.74-4.71,3.69-8.6-3.2,4.6-3.24Zm-18.7-2.02l7.15,2.68,4.65-2.93-7.58-2.46-4.22,2.71Zm14.15-5.05l8.66,2.52,4.07-2.83-8.79-2.31-3.94,2.62Z"/></g><g id="Layer_11"><line class="cls-5" x1="11.53" y1="20.68" x2="11.53" y2="29.06"/><g class="cls-27"><path d="m28.72,37.45h0c-2.52-1.53-6.4-2.52-10.8-2.52s-8.45,1.02-10.87,2.57l10.71,6.49,10.96-6.55Z"/></g><path d="m28.72,37.45h0c-2.52-1.53-6.4-2.52-10.8-2.52s-8.45,1.02-10.87,2.57l10.71,6.49,10.96-6.55Z"/><polygon class="cls-2" points="6.92 25.71 6.92 22.42 17.66 19 22.33 21.15 20.18 22.77 11.01 26.13 6.92 25.71"/><polygon class="cls-25" points="9.85 32.94 9.85 28.43 21.04 24.5 23.68 27.49 22.19 29.32 12.14 34.15 9.85 32.94"/><polygon class="cls-12" points="13.94 38.1 13.55 35.09 25.05 30.48 27.78 34.15 24.01 37.87 16.93 39.96 13.94 38.1"/><polygon class="cls-21" points="6.5 22.58 6.5 37.31 17.4 44 17.4 38.29 14.05 36.61 14.05 31.58 10.69 29.9 10.69 24.5 6.5 22.58"/><polygon class="cls-22" points="19.92 21.41 10.69 24.5 10.69 29.76 19.92 25.71 19.92 21.41"/><polygon class="cls-7" points="14.05 31.58 21.59 27.91 21.59 32.21 14.05 36.35 14.05 31.58"/><polygon class="cls-19" points="17.4 38.18 28.3 32.21 28.3 37.45 17.4 44 17.4 38.18"/><polygon class="cls-13" points="26.63 31.44 24.83 30.48 21.59 31.74 21.59 29.48 22.07 29.32 23.66 27.49 21 24.5 19.92 24.86 19.92 22.77 22.2 21.15 17.39 19 6.5 22.42 6.5 25.71 6.5 37.45 17.32 44 28.3 37.45 28.3 32.21 26.63 31.44"/><polygon class="cls-15" points="13.21 25.15 13.21 22.97 23.19 19.49 29.98 22.14 29.98 25.15 18.82 30.47 13.21 25.15"/><polygon class="cls-17" points="13.21 28.74 13.21 22.97 19.92 26.54 19.92 36.8 16.56 34.93 16.56 30.47 13.21 28.74"/><polygon class="cls-10" points="29.98 22.14 19.92 26.54 19.92 36.8 29.98 31.31 29.98 22.14"/><g class="cls-30"><polygon class="cls-11" points="19.08 26.82 19.08 24.65 29.06 21.17 35.85 23.82 35.85 26.82 24.69 32.15 19.08 26.82"/><polygon class="cls-24" points="19.08 30.42 19.08 24.65 25.79 28.22 25.79 38.48 22.43 36.61 22.43 32.15 19.08 30.42"/><polygon class="cls-18" points="35.85 23.82 25.79 28.22 25.79 38.48 35.85 32.99 35.85 23.82"/></g><g id="DELMIA___28-DELMIA_Spot_Weld_Programming"><path class="cls-6" d="m41.8,30.43c-.69,1.85,1.83,4.49,5.61,5.9,3.79,1.41,7.42,1.05,8.1-.8.07-.19.25-.97.26-1.17"/><path class="cls-44" d="m52.24,35.81c-1.43,0-3.03-.31-4.61-.9-4.14-1.54-6.75-4.43-5.95-6.58.47-1.27,2-2,4.2-2,1.44,0,3.03.31,4.61.9,4.14,1.54,6.75,4.43,5.95,6.58-.47,1.27-2,2-4.2,2h0Z"/><path class="cls-47" d="m45.88,26.83c1.32,0,2.86.28,4.43.86,3.82,1.42,6.35,4.08,5.66,5.94-.41,1.1-1.84,1.67-3.73,1.67-1.32,0-2.86-.28-4.43-.86-3.82-1.42-6.35-4.08-5.66-5.94.41-1.1,1.84-1.67,3.73-1.67m0-1c-2.42,0-4.12.85-4.67,2.33-.91,2.46,1.77,5.56,6.25,7.23,1.63.61,3.29.93,4.78.93,2.42,0,4.12-.85,4.67-2.33.91-2.46-1.77-5.57-6.25-7.23-1.63-.61-3.29-.93-4.78-.93h0Z"/><path class="cls-32" d="m53.78,33.83c-.06,0-.13,0-.2,0-.3-.03-.59-.12-.78-.26-.13-.1-.17-.18-.17-.2,0-.07.28-.29.82-.29.06,0,.13,0,.2,0,.63.06.96.38.95.47,0,.07-.28.29-.82.29h0Z"/><path class="cls-47" d="m53.46,32.57c-.71,0-1.28.31-1.32.74-.05.48.58.93,1.4,1.01.08,0,.16.01.24.01.71,0,1.28-.31,1.32-.74.05-.48-.58-.93-1.4-1.01-.08,0-.16-.01-.24-.01h0Z"/><path class="cls-34" d="m44.7,28.2c-.48,0-.76-.19-.78-.27.03-.05.31-.25.78-.25s.76.2.78.27c-.03.05-.31.25-.78.25Z"/><path class="cls-47" d="m44.7,27.19c-.71,0-1.28.34-1.28.76s.57.76,1.28.76,1.28-.34,1.28-.76-.57-.76-1.28-.76h0Z"/><path class="cls-64" d="m48.78,33.51c-2.5-.06-4.44-1.28-4.4-2.78v-1.3c0-.13.06-.26.15-.36.09-.09.22-.14.35-.14,0,0,8.05.18,8.05.18.14,0,.27.06.36.17.09.1.14.24.12.38l-.12,1.31c-.03,1.44-1.9,2.55-4.34,2.55h-.17Z"/><path class="cls-47" d="m44.88,29.43l8.04.18-.12,1.31c-.03,1.17-1.73,2.09-3.84,2.09-.05,0-.11,0-.16,0-2.19-.05-3.94-1.07-3.91-2.27v-1.31m0-1c-.26,0-.51.1-.7.28-.19.19-.3.45-.3.71v1.31c-.04,1.79,2.06,3.21,4.89,3.27h.19c2.7,0,4.78-1.3,4.84-3.03l.11-1.28c.02-.28-.07-.55-.25-.75-.18-.21-.45-.33-.72-.33l-8.04-.18s-.01,0-.02,0h0Z"/><path class="cls-38" d="m48.83,31.84c-2.53-.06-4.49-1.29-4.46-2.81.03-1.49,1.93-2.61,4.4-2.61h.18c1.16.03,2.25.3,3.07.78.91.53,1.41,1.25,1.39,2.03-.03,1.49-1.93,2.61-4.4,2.61h-.18Z"/><path class="cls-47" d="m48.78,26.92c.06,0,.11,0,.17,0,2.22.05,4,1.08,3.97,2.3-.03,1.19-1.76,2.12-3.9,2.12-.06,0-.11,0-.17,0-2.22-.05-4-1.08-3.97-2.3.03-1.19,1.76-2.12,3.9-2.12m0-1c-2.76,0-4.86,1.33-4.9,3.1-.02.96.58,1.86,1.64,2.48.89.52,2.07.82,3.31.85h.19c2.75,0,4.86-1.33,4.9-3.1.02-.96-.58-1.86-1.64-2.48-.89-.52-2.07-.82-3.31-.85h-.19Z"/><path class="cls-48" d="m48.54,24.91c-.07,0-.14-.01-.2-.04-.08-.04-.82-.4-.82-1.68,0-1.88,1.58-3.37,2.3-3.76.27-.15.58-.23.88-.23.74,0,1.6.5,1.6,1.89l-.07.43c-.03.2-.19.36-.39.41l-2.71.56-.1,1.94c0,.16-.1.31-.24.4-.08.05-.17.07-.26.07Z"/><path class="cls-47" d="m50.7,19.7c.55,0,1.1.36,1.1,1.39l-.06.35-3.09.64-.12,2.33s-.52-.23-.52-1.22c0-1.63,1.4-2.97,2.04-3.32.19-.1.42-.16.65-.16m0-1c-.39,0-.78.1-1.12.29-.84.46-2.56,2.08-2.56,4.2,0,1.21.6,1.91,1.12,2.14.13.06.27.09.41.09.18,0,.36-.05.52-.15.28-.17.46-.47.48-.8l.08-1.56,2.33-.48c.4-.08.71-.41.78-.81l.06-.35c0-.05.01-.11.01-.17,0-1.65-1.06-2.39-2.1-2.39h0Z"/><path class="cls-57" d="m48.89,30.62c-1.5,0-2.6-.63-2.6-1.49l.12-5.72c0-.15.08-.3.2-.39l1.69-1.28c.06-.04,1.32-.96,2.03-1.37.36-.21.65-.31.9-.31.33,0,.54.18.62.34.04.08.06.16.05.25l-.41,8.5c0,.84-1.09,1.47-2.6,1.47Z"/><path class="cls-47" d="m51.23,20.56c.14,0,.17.07.17.07l-.41,8.5c0,.55-.94.99-2.1.99s-2.1-.44-2.1-.99l.12-5.71,1.69-1.28s1.28-.93,1.98-1.34c.33-.19.53-.24.65-.24m0-1c-.34,0-.71.12-1.15.38-.73.43-2.01,1.36-2.06,1.39l-1.71,1.29c-.24.18-.39.47-.4.78l-.12,5.71c0,1.17,1.3,2.01,3.1,2.01s3.1-.84,3.1-1.99l.41-8.46c0-.17-.03-.34-.1-.5-.15-.3-.51-.62-1.06-.62h0Z"/><path class="cls-16" d="m51.11,19.75l-1.69-.76s-3.09-.35-3.09,2.8c0,1.34.58,1.63.58,1.63l1.63.99v-2.62s1.16-2.1,2.56-2.04Z"/><path class="cls-63" d="m50.79,25.47c-.19,0-.37-.05-.53-.14-.67-.4-.75-1.44-.17-2.43.42-.72,1.08-1.18,1.67-1.18.19,0,.38.05.54.14.68.4.75,1.44.17,2.43-.42.72-1.08,1.19-1.67,1.19h0Z"/><path class="cls-47" d="m51.76,22.22c.1,0,.2.02.28.07.42.24.41,1.03-.01,1.75-.34.58-.84.94-1.24.94-.1,0-.2-.02-.28-.07-.42-.24-.41-1.03.01-1.75.34-.58.84-.94,1.24-.94m0-1c-.78,0-1.58.55-2.1,1.43-.29.5-.45,1.05-.46,1.55,0,.69.29,1.26.8,1.57.23.14.51.21.79.21.78,0,1.58-.55,2.1-1.43.72-1.24.58-2.58-.34-3.12-.24-.14-.51-.21-.79-.21h0Z"/><path class="cls-55" d="m47.21,23c-.08,0-.21-.03-.28-.07-.05-.03-.1-.06-.13-.1l-6.87-6.99c-.17-.17-.19-.43-.06-.62l2.62-4.02c.09-.13.23-.21.38-.23.01,0,.02,0,.03,0,.14,0,.28.06.38.17l6.82,7.86c.19.23.51.63-1.05,2.41-1.17,1.58-1.67,1.58-1.83,1.58Z"/><path class="cls-47" d="m42.89,11.48l6.82,7.86c.23.29-1.05,1.75-1.05,1.75,0,0-1.05,1.41-1.45,1.41-.02,0-.04,0-.06-.01l-6.87-6.99,2.62-4.02m0-1s-.05,0-.07,0c-.31.02-.6.19-.77.45l-2.62,4.02c-.26.39-.2.91.12,1.25l6.87,6.99c.08.08.17.14.27.19.16.08.33.12.51.12.29,0,.9,0,2.23-1.78,1.3-1.48,1.59-2.33,1.05-3l-6.84-7.89c-.19-.22-.47-.35-.76-.35h0Z"/><path class="cls-49" d="m39.28,15.94c-.07,0-.13-.01-.2-.04l-1.82-.77c-.54-.21-.98-.64-1.25-1.26-.4-.9-.38-2.11.04-3.22.61-1.58,1.88-2.65,3.15-2.65.26,0,.52.05.76.14l2.01.83c.12.05.22.15.27.27.05.12.05.26,0,.38l-2.5,6c-.05.12-.15.22-.27.27-.06.02-.12.04-.19.04Z"/><path class="cls-47" d="m39.21,8.51c.2,0,.4.03.58.11l2,.83-2.5,6-1.82-.77c-1.16-.45-1.58-2.16-.94-3.84.54-1.4,1.65-2.32,2.68-2.32m0-1h0c-1.48,0-2.93,1.19-3.62,2.97-.38,1-.47,2.05-.25,2.97.25,1.04.89,1.82,1.76,2.15l1.79.76c.12.05.26.08.39.08s.26-.02.38-.07c.25-.1.44-.3.55-.54l2.5-6c.1-.25.1-.52,0-.77-.1-.25-.3-.44-.54-.54l-2-.83c-.32-.12-.64-.18-.97-.18h0Z"/><path class="cls-65" d="m39.97,16.08c-.26,0-.52-.05-.76-.14-.72-.28-1.23-.92-1.45-1.81-.2-.82-.12-1.77.23-2.68.61-1.58,1.88-2.65,3.15-2.65.26,0,.52.05.76.14,1.44.56,1.98,2.52,1.22,4.48-.61,1.58-1.88,2.64-3.15,2.64h0Z"/><path class="cls-47" d="m41.14,9.31c.2,0,.4.03.58.11,1.16.45,1.58,2.16.94,3.84-.54,1.4-1.65,2.32-2.68,2.32-.2,0-.4-.03-.58-.11-1.16-.45-1.58-2.16-.94-3.84.54-1.4,1.65-2.32,2.68-2.32m0-1c-1.48,0-2.93,1.19-3.62,2.97-.38,1-.47,2.05-.25,2.97.25,1.04.89,1.82,1.76,2.15.3.12.62.17.94.17,1.48,0,2.93-1.19,3.62-2.96.85-2.22.19-4.47-1.51-5.13-.3-.12-.62-.17-.94-.17h0Z"/><path class="cls-59" d="m40.02,14.09c-.11-.05-.21-.16-.28-.33-.17-.42-.12-1.05.12-1.64.35-.85.96-1.3,1.36-1.3.06,0,.12.01.17.03l.35.17-1.45,3.18-.27-.11Z"/><path class="cls-47" d="m41.01,11.4l-.87,1.91c-.02-.24,0-.59.18-1,.2-.48.49-.78.69-.91m.21-1.09c-.66,0-1.41.64-1.82,1.61-.48,1.15-.29,2.33.44,2.63l.71.28,1.84-4.05-.82-.4c-.11-.05-.24-.07-.36-.07h0Z"/><path class="cls-36" d="m32.53,22.98c-.12,0-.23-.04-.33-.12l-2.39-2.04c-.2-.17-.23-.47-.07-.68l6.41-8.39c.35-.47.56-.56.78-.56.19,0,.39.13.48.29.09.19.11.45.15,1.01.03.53.08,1.25.22,1.66.25.69.87,1.38,1.22,1.63.12.08.19.22.21.36s-.04.29-.14.39l-6.17,6.29c-.1.1-.23.15-.36.15Z"/><path class="cls-47" d="m36.93,11.68s.02,0,.03.02c.13.26.06,1.81.35,2.62.29.82.99,1.57,1.4,1.86l-6.17,6.29-2.39-2.04,6.41-8.39s.28-.37.38-.37m0-1c-.53,0-.88.37-1.18.77l-6.4,8.38c-.32.42-.26,1.02.15,1.37l2.39,2.04c.19.16.42.24.65.24.26,0,.52-.1.71-.3l6.17-6.29c.2-.21.31-.5.28-.79-.03-.29-.18-.56-.42-.73-.25-.18-.82-.77-1.04-1.39-.12-.35-.17-1.06-.2-1.52-.04-.59-.06-.92-.2-1.21-.17-.34-.55-.57-.92-.57h0Z"/><path class="cls-62" d="m32.82,25.33c-.12,0-.23-.04-.33-.12l-4.91-4.23c-.1-.09-.17-.22-.17-.35,0-.14.04-.27.13-.37l.95-1.02c.09-.1.25-.17.39-.17s.53,0,2.92,2.06c2.83,2.44,2.64,2.67,2.34,3.01l-.96,1.04c-.1.11-.23.16-.37.16Z"/><path class="cls-47" d="m28.89,19.57c.19,0,1.31.83,2.59,1.94,1.36,1.17,2.38,2.2,2.29,2.3l-.95,1.02-4.91-4.23.95-1.02s.01,0,.02,0m0-1c-.29,0-.59.14-.78.36l-.93.99c-.19.2-.28.46-.27.74s.14.53.35.7l4.91,4.23c.19.16.42.24.65.24.27,0,.54-.11.73-.32l.95-1.02c.19-.2.29-.5.27-.78-.03-.34-.05-.74-2.64-2.97-2.53-2.18-2.94-2.18-3.25-2.18h0Z"/><path class="cls-20" d="m42.73,13.29c.48-1.15.28-2.33-.44-2.63-.72-.3-1.7.39-2.18,1.54-.48,1.15-.28,2.33.44,2.63.72.3,1.7-.39,2.18-1.54Z"/><path class="cls-45" d="m32.54,25.64c-.15,0-.53,0-2.92-2.06-2.43-2.1-2.46-2.47-2.47-2.63,0-.13.04-.28.13-.38.1-.11.26-.18.4-.18.13,0,.53,0,2.92,2.06,2.43,2.1,2.46,2.47,2.47,2.62,0,.13-.04.28-.13.38-.09.11-.26.18-.4.18Z"/><path class="cls-47" d="m27.68,20.89c.19,0,1.31.83,2.59,1.94,1.36,1.17,2.38,2.2,2.29,2.3,0,0-.01,0-.02,0-.19,0-1.31-.83-2.59-1.94-1.36-1.17-2.38-2.2-2.29-2.3,0,0,.01,0,.02,0m0-1c-.29,0-.59.13-.78.36-.17.2-.26.48-.25.75.02.35.05.74,2.64,2.97,2.53,2.18,2.94,2.18,3.25,2.18s.59-.14.78-.36c.67-.78-.1-1.55-.66-2.11-.45-.45-1.07-1.02-1.74-1.6-2.53-2.18-2.94-2.18-3.24-2.18h0Z"/><path class="cls-1" d="m39.21,8.5c.2,0,.4.03.58.11l2,.83h0c.72.32,1.13,1.13,1.17,2.1l6.46,7.45s.01,0,.01,0l1.69.76s0,0-.01,0c-.03,0-.05,0-.08,0,.43.12.79.51.79,1.34l-.06.35-.39.08-.04.82c.15-.08.3-.13.44-.13.1,0,.19.02.28.07.42.24.41,1.03-.01,1.75-.23.39-.53.68-.83.83l-.12,2.45c.98.37,1.67.96,1.81,1.63,2.3,1.43,3.6,3.29,3.09,4.69l-.45,1.89c-.4,1.09-1.83,1.66-3.7,1.66-1.31,0-2.84-.28-4.4-.86-3.79-1.41-6.3-4.05-5.61-5.9l.35-1.93c.41-1.1,1.84-1.67,3.73-1.67.31,0,.63.02.96.05l.07-3.45s-.58-.29-.58-1.63c0-.04,0-.08,0-.12l-6.03-6.13c-.11.02-.22.03-.33.03-.19,0-.37-.03-.55-.09l-6.88,6.98c.78.73,1.29,1.27,1.22,1.35l-.95,1.02-.26.3s-.01,0-.02,0c-.19,0-1.31-.83-2.59-1.94-1.36-1.17-2.29-2.3-2.29-2.3,0,0,.13-.25.26-.3l.95-1.02s.01,0,.02,0c.12,0,.61.33,1.27.85l6.07-7.95c-.01-.52.08-1.08.29-1.64.54-1.4,1.65-2.32,2.68-2.32m0-.8s0,0,0,0c-1.4,0-2.78,1.14-3.43,2.84-.21.54-.32,1.09-.34,1.65l-5.42,7.1c-.68-.49-.9-.53-1.12-.53h0c-.23,0-.48.11-.63.29l-.86.92c-.23.17-.37.4-.45.55-.15.29-.11.63.09.88.04.05,1,1.2,2.39,2.4,2.47,2.13,2.87,2.13,3.11,2.13.23,0,.47-.11.62-.27l.27-.31.93-1c.51-.59.13-1.13-.67-1.91l6-6.08c.1.01.19.02.29.02,0,0,.02,0,.02,0l5.53,5.62c.04.91.31,1.45.57,1.77l-.05,2.27c-.06,0-.12,0-.18,0-2.33,0-3.96.8-4.48,2.2-.02.04-.03.09-.04.14l-.34,1.86c-.4,1.18.07,2.55,1.33,3.87,1.14,1.2,2.84,2.26,4.79,2.98,1.6.59,3.22.91,4.68.91,2.31,0,3.94-.8,4.45-2.18.01-.03.02-.06.03-.09l.44-1.85c.59-1.7-.62-3.76-3.18-5.43-.26-.65-.84-1.22-1.66-1.63l.07-1.49c.28-.23.54-.52.74-.86.65-1.1.56-2.28-.19-2.79,0-.02.01-.05.02-.07l.06-.35s.01-.09.01-.13c0-.89-.35-1.59-.97-1.94-.06-.05-.13-.1-.21-.13l-1.54-.69-6.16-7.11c-.12-1.12-.66-2.01-1.48-2.44-.05-.03-.1-.06-.15-.08l-2-.83c-.3-.11-.59-.17-.89-.17h0Z"/><path class="cls-41" d="m33.8,28.16c-.11,0-.22-.04-.31-.11l-9.9-7.76c-.11-.08-.17-.21-.19-.34-.01-.14.03-.27.12-.37l1.58-1.86c.09-.11.23-.17.37-.18,0,0,.91-.02.91-.02.04,0,.09,0,.13.02.12.03.38.15.88.59.48.43,1.75,1.52,1.75,1.52.1.09.16.21.17.35s-.04.27-.13.37l-.36.4,3.93,3.31.29-.31c.1-.1.23-.16.36-.16.12,0,.24.04.33.12l1.92,1.68c.2.18.23.49.06.69l-1.53,1.86c-.1.12-.24.18-.39.18Z"/><path class="cls-47" d="m26.38,18.02s.2.05.68.48c.48.43,1.76,1.53,1.76,1.53l-.71.78,4.69,3.95.61-.65,1.92,1.68-1.53,1.86-9.9-7.76,1.58-1.86.9-.02m0-1s-.02,0-.02,0l-.9.02c-.28,0-.55.14-.74.35l-1.58,1.86c-.18.21-.26.48-.23.75.03.27.16.52.38.69l9.9,7.76c.18.14.4.21.62.21.29,0,.58-.12.77-.36l1.53-1.86c.34-.42.29-1.03-.11-1.39l-1.92-1.68c-.19-.17-.42-.25-.66-.25-.25,0-.5.09-.69.28l-3.17-2.67h.01c.18-.21.27-.48.26-.75s-.14-.52-.35-.7c0,0-1.27-1.09-1.75-1.52-.44-.39-.8-.63-1.08-.7-.09-.02-.17-.04-.26-.04h0Z"/><path class="cls-3" d="m23.9,19.9l8.41,7.17,1.51.64s.12,0-.28-.35l-8.09-6.92s-.43-.41-.83-.48c-.4-.07-.71-.07-.71-.07Z"/><path class="cls-9" d="m33.8,27.72s.12,0-.28-.35l-8.09-6.92s-.43-.41-.83-.48c-.4-.07-.71-.07-.71-.07"/><polygon class="cls-60" points="31.18 28.42 32.6 26.63 31.36 26.23 29.99 27.85 31.18 28.42"/><polygon class="cls-50" points="25.99 28.79 27.57 29.83 31.18 28.42 29.99 27.85 25.99 28.79"/><polygon class="cls-40" points="25.89 28.72 26.97 29.4 26.51 29.93 25.52 29.19 25.89 28.72"/><polygon class="cls-37" points="24.66 20.55 23.08 22.47 23.93 22.76 25.65 20.69 24.66 20.55"/><polygon class="cls-43" points="23.36 27.29 22.54 26.77 23.08 22.47 23.93 22.76 23.36 27.29"/><polygon class="cls-61" points="33.14 27.11 31.62 29.02 27.45 30.51 26.51 29.93 26.97 29.4 27.65 29.79 31.18 28.42 32.6 26.63 33.14 27.11"/><polygon class="cls-42" points="26.22 21.23 24.74 22.97 24.01 26.98 24.66 27.48 24.21 27.95 23.36 27.29 23.93 22.76 25.65 20.69 26.22 21.23"/><line class="cls-9" x1="30.17" y1="27.98" x2="31.52" y2="28.53"/><line class="cls-9" x1="23.15" y1="22.69" x2="23.98" y2="22.98"/><g class="cls-29"><path class="cls-1" d="m26.38,18.02s.2.05.68.48c.48.43,1.76,1.53,1.76,1.53l-.71.78,3.53,2.97,1.16.97.61-.65,1.92,1.68-1.52,1.85c.05.07.01.07.01.07h0l-.87-.37-1.33,1.67-4.11,1.47-.03.05-1.94-1.35.35-.43,1.04.27,3.05-1.17,1.35-1.6-5.44-4.64-1.16,1.36-.73,4.01.64.5-.45.47-.85-.66-.81-.52.54-4.3,1.57-1.91h0s-.76-.65-.76-.65l1.58-1.86.9-.02m0-1s-.02,0-.02,0l-.9.02c-.28,0-.55.14-.74.35l-1.58,1.86c-.36.42-.31,1.05.11,1.41h.01s-.95,1.17-.95,1.17c-.12.15-.2.32-.22.51l-.54,4.3c-.05.38.13.76.46.97l.77.49.81.64c.18.14.4.21.62.21.13,0,.26-.03.38-.08-.05.15-.06.3-.04.46.04.28.19.52.42.68l1.94,1.35c.17.12.37.18.57.18.07,0,.14,0,.2-.02.14-.03.26-.08.38-.16l3.9-1.39c.18-.06.33-.17.45-.32l.85-1.08.17.07c.12.05.26.08.39.08.37,0,.73-.21.9-.55.02-.04.04-.09.06-.13l1.33-1.61c.34-.42.29-1.03-.11-1.39l-1.92-1.68c-.19-.17-.42-.25-.66-.25-.25,0-.5.09-.69.28l-.43-.37-2.74-2.3h.01c.18-.21.27-.48.26-.75s-.14-.52-.35-.7c0,0-1.27-1.09-1.75-1.52-.44-.39-.8-.63-1.08-.7-.09-.02-.17-.04-.26-.04h0Zm-.7,6.39l.34-.4,3.92,3.35-.54.65-2.52.96-.73-.19c-.08-.02-.17-.03-.25-.03-.1,0-.2.02-.29.04.04-.13.06-.27.05-.4-.02-.28-.16-.54-.39-.71l-.16-.13.57-3.14h0Z"/></g></g></g><g id="Label"><circle class="De-emphasized_WHITE_for_Vector_Highlights" cx="52.52" cy="11.91" r="5"/><line class="cls-23" x1="47.26" y1="17.94" x2="49.71" y2="12.35"/><circle class="cls-56" cx="52.52" cy="11.91" r="5"/><path class="cls-4" d="m50.7,9.07c.24-.07.49-.12.75-.13h.83c.28-.03.56-.03.85,0,.25.05.49.15.7.29.2.12.35.3.46.5.12.24.18.5.16.76,0,.23-.03.46-.11.68-.06.22-.16.42-.29.6-.13.2-.29.38-.46.55l-.54.55-1.33,1.3h2.81v.72h-4v-.65l1.82-1.8.46-.49c.13-.16.26-.31.36-.46.1-.15.17-.31.23-.47.02-.17.02-.34,0-.5.02-.28-.1-.55-.33-.72-.28-.16-.6-.23-.93-.21h-1.43v-.54Z"/><circle class="De-emphasized_WHITE_for_Vector_Highlights" cx="28.88" cy="39.62" r="5"/><line class="cls-23" x1="22.82" y1="31.61" x2="25.89" y2="35.56"/><circle class="cls-56" cx="28.88" cy="39.62" r="5"/><path class="cls-4" d="m29.24,37.01h.65v5.23h-.8v-4.52l-1.2.3v-.66l1.35-.35Z"/></g><g id="Layer_7"><path class="cls-35" d="m55,57c-.06,0-.11,0-.17-.03l-17-6c-.2-.07-.33-.26-.33-.47v-21c0-.15.07-.3.19-.39.09-.07.2-.11.31-.11.04,0,.08,0,.11.01l17,4c.23.05.39.25.39.49v23c0,.16-.08.31-.21.41-.09.06-.19.09-.29.09Z"/><path class="cls-52" d="m38,29.5l17,4v23l-17-6v-21m0-1c-.22,0-.44.07-.62.22-.24.19-.38.48-.38.78v21c0,.42.27.8.67.94l17,6c.11.04.22.06.33.06.2,0,.41-.06.58-.18.26-.19.42-.49.42-.82v-23c0-.46-.32-.87-.77-.97l-17-4c-.08-.02-.15-.03-.23-.03h0Z"/><polygon class="cls-46" points="38 29.5 55 33.5 55 45 38 40 38 29.5"/><line class="cls-14" x1="38" y1="40" x2="55" y2="45"/><line class="cls-58" x1="41.5" y1="33" x2="39" y2="32"/><polygon class="cls-33" points="41.5 33 41.5 36 44.5 36.5 44.5 39.5 39 38 39 32 41.5 33"/><polygon class="cls-8" points="44.5 33.5 44.5 36.5 41.5 36 41.5 33 44.5 33.5"/><rect class="cls-47" x="44" y="36.5" width="1" height="3"/><path class="cls-51" d="m39.8,32.52l4.4,1.1v5.27l-4.4-1.47v-4.9m-.8-1.02v6.5l6,2v-7l-6-1.5h0Z"/><line class="cls-28" x1="39.5" y1="43.5" x2="52.5" y2="47.5"/><line class="cls-28" x1="39.5" y1="45.5" x2="52.5" y2="49.5"/><line class="cls-28" x1="39.5" y1="47.5" x2="47.5" y2="50"/></g></svg>