<?xml version="1.0" encoding="UTF-8"?>
<svg xmlns="http://www.w3.org/2000/svg" xmlns:xlink="http://www.w3.org/1999/xlink" viewBox="0 0 64 64">
  <defs>
    <linearGradient id="a" x1="34.37" y1="41.64" x2="39.79" y2="51.03" gradientUnits="userSpaceOnUse">
      <stop offset="0" stop-color="#8cd7f5"/>
      <stop offset="1" stop-color="#376e8c"/>
    </linearGradient>
    <linearGradient id="e" x1="29.78" y1="44.56" x2="36.78" y2="56.69" gradientUnits="userSpaceOnUse">
      <stop offset="0" stop-color="#aaa"/>
      <stop offset="1" stop-color="#5a5a5a"/>
    </linearGradient>
    <linearGradient id="h" x1="39.04" y1="32.3" x2="51.96" y2="54.7" gradientUnits="userSpaceOnUse">
      <stop offset="0" stop-color="#fff"/>
      <stop offset="1" stop-color="#d2d2d2"/>
    </linearGradient>
    <linearGradient id="gv" x1="41.63" y1="26.8" x2="49.37" y2="40.2" xlink:href="#a"/>
    <linearGradient id="gw" x1="36.38" y1="29.57" x2="38.62" y2="33.43" xlink:href="#h"/>
    <linearGradient id="gx" x1="44.38" y1="29.57" x2="46.62" y2="33.43" xlink:href="#h"/>
    <linearGradient id="gy" x1="52.38" y1="29.57" x2="54.62" y2="33.43" xlink:href="#h"/>
    <linearGradient id="gz" x1="42.75" y1="51.15" x2="46.19" y2="57.1" gradientUnits="userSpaceOnUse">
      <stop offset="0" stop-color="#fff"/>
      <stop offset="1" stop-color="#d4d5d3"/>
    </linearGradient>
    <linearGradient id="ha" x1="46.1" y1="48.52" x2="50.84" y2="56.73" xlink:href="#e"/>
    <linearGradient id="hb" x1="54.31" y1="49.4" x2="58.62" y2="56.85" gradientUnits="userSpaceOnUse">
      <stop offset="0" stop-color="#d7d7d7"/>
      <stop offset="1" stop-color="#969696"/>
    </linearGradient>
    <linearGradient id="hc" x1="49.66" y1="46.77" x2="55.27" y2="56.48" xlink:href="#a"/>
  </defs>
  <g id="j" data-name="Inventory">
    <g>
      <g id="k" data-name="_x34_">
        <polygon points="33.6 21.58 38.42 19.78 42.53 21.41 42.53 25.28 37.73 27.08 33.62 25.47 33.62 21.59 33.6 21.58" fill="#323232"/>
        <path d="M37.58,27.34l-4.11-1.61c-.12-.05-.2-.15-.2-.26v-3.78s-.03-.08-.03-.12c0-.11.08-.21.21-.26l4.82-1.8c.09-.04.2-.03.3,0l4.11,1.63c.12.05.2.15.2.26v3.87c0,.11-.08.22-.21.27l-4.8,1.8s-.1.03-.14.03-.1,0-.15-.03ZM42.18,21.59l-3.76-1.49-4.44,1.66v3.53s3.76,1.47,3.76,1.47l4.45-1.67v-3.5Z" stroke="#000" stroke-miterlimit="10" stroke-width=".25"/>
      </g>
      <polygon id="l" data-name="_x33_" points="33.62 21.58 33.62 25.47 37.73 27.08 37.73 23.21 33.62 21.58" fill="#797979"/>
      <polygon id="m" data-name="_x32_" points="42.53 21.41 42.53 25.28 37.73 27.08 37.73 23.21 42.53 21.41" fill="#e1e1e1"/>
      <path id="n" data-name="_x31_" d="M33.6,21.58l4.13,1.63,4.8-1.81-4.11-1.63-4.82,1.8Z" fill="#f1f0f0"/>
    </g>
    <g>
      <g id="o" data-name="_x34_">
        <polygon points="33.6 17.1 38.42 15.3 42.53 16.93 42.53 20.78 37.73 22.58 33.62 20.98 33.62 17.11 33.6 17.1" fill="#323232"/>
        <path d="M37.58,22.85l-4.11-1.61c-.12-.05-.2-.15-.2-.26v-3.76s-.03-.08-.03-.12c0-.11.08-.22.21-.26l4.82-1.8c.09-.04.2-.03.29,0l4.11,1.63c.12.05.2.15.2.26v3.85c0,.11-.08.22-.21.27l-4.8,1.8s-.1.03-.14.03-.1,0-.15-.03ZM42.18,17.11l-3.76-1.49-4.44,1.66v3.51s3.76,1.47,3.76,1.47l4.45-1.67v-3.48Z" stroke="#000" stroke-miterlimit="10" stroke-width=".25"/>
      </g>
      <polygon id="p" data-name="_x33_" points="33.62 17.1 33.62 20.98 37.73 22.58 37.73 18.73 33.62 17.1" fill="#797979"/>
      <polygon id="q" data-name="_x32_" points="42.53 16.93 42.53 20.78 37.73 22.58 37.73 18.73 42.53 16.93" fill="#e1e1e1"/>
      <path id="r" data-name="_x31_" d="M33.6,17.1l4.13,1.63,4.8-1.8-4.11-1.63-4.82,1.8Z" fill="#f1f0f0"/>
    </g>
    <g>
      <g id="s" data-name="_x34_">
        <polygon points="33.6 12.66 38.42 10.86 42.53 12.48 42.53 16.33 37.73 18.14 33.62 16.53 33.62 12.67 33.6 12.66" fill="#323232"/>
        <path d="M37.58,18.4l-4.11-1.6c-.12-.05-.2-.15-.2-.26v-3.76s-.03-.08-.03-.12c0-.11.08-.22.21-.26l4.82-1.8c.09-.04.2-.03.3,0l4.11,1.63c.12.05.2.15.2.26v3.85c0,.11-.08.22-.21.27l-4.8,1.8s-.1.03-.14.03-.1,0-.15-.03ZM42.18,12.67l-3.76-1.49-4.44,1.66v3.51s3.76,1.47,3.76,1.47l4.45-1.67v-3.48Z" stroke="#000" stroke-miterlimit="10" stroke-width=".25"/>
      </g>
      <polygon id="t" data-name="_x33_" points="33.62 12.66 33.62 16.53 37.73 18.14 37.73 14.28 33.62 12.66" fill="#797979"/>
      <polygon id="u" data-name="_x32_" points="42.53 12.48 42.53 16.33 37.73 18.14 37.73 14.28 42.53 12.48" fill="#e1e1e1"/>
      <path id="v" data-name="_x31_" d="M33.6,12.66l4.13,1.63,4.8-1.8-4.11-1.63-4.82,1.8Z" fill="#f1f0f0"/>
    </g>
    <g>
      <g id="w" data-name="_x34_">
        <polygon points="33.6 8.17 38.42 6.38 42.53 8 42.53 11.85 37.73 13.66 33.62 12.05 33.62 8.19 33.6 8.17" fill="#323232"/>
        <path d="M37.58,13.92l-4.11-1.6c-.12-.05-.2-.15-.2-.26v-3.76s-.03-.08-.03-.12c0-.11.08-.22.21-.26l4.82-1.8c.09-.04.2-.03.3,0l4.11,1.63c.12.05.2.15.2.26v3.85c0,.11-.08.22-.21.27l-4.8,1.8s-.1.03-.14.03-.1,0-.15-.03ZM42.18,8.19l-3.76-1.49-4.44,1.66v3.51s3.76,1.47,3.76,1.47l4.45-1.67v-3.48Z" stroke="#000" stroke-miterlimit="10" stroke-width=".25"/>
      </g>
      <polygon id="x" data-name="_x33_" points="33.62 8.17 33.62 12.05 37.73 13.66 37.73 9.8 33.62 8.17" fill="#797979"/>
      <polygon id="y" data-name="_x32_" points="42.53 8 42.53 11.85 37.73 13.66 37.73 9.8 42.53 8" fill="#e1e1e1"/>
      <path id="z" data-name="_x31_" d="M33.6,8.17l4.13,1.63,4.8-1.8-4.11-1.63-4.82,1.8Z" fill="#f1f0f0"/>
    </g>
    <g>
      <g id="aa" data-name="_x34_">
        <polygon points="38.52 23.69 43.35 21.89 47.46 23.52 47.46 27.39 42.66 29.19 38.55 27.59 38.55 23.7 38.52 23.69" fill="#323232"/>
        <path d="M42.51,29.46l-4.11-1.61c-.12-.05-.2-.15-.2-.26v-3.78s-.03-.08-.03-.12c0-.11.08-.21.21-.26l4.82-1.8c.09-.04.2-.03.3,0l4.11,1.63c.12.05.2.15.2.26v3.87c0,.11-.08.22-.21.27l-4.8,1.8s-.1.03-.14.03-.1,0-.15-.03ZM47.11,23.7l-3.76-1.49-4.44,1.66v3.53s3.76,1.47,3.76,1.47l4.45-1.67v-3.5Z" stroke="#000" stroke-miterlimit="10" stroke-width=".25"/>
      </g>
      <polygon id="ab" data-name="_x33_" points="38.55 23.69 38.55 27.59 42.66 29.19 42.66 25.32 38.55 23.69" fill="#797979"/>
      <polygon id="ac" data-name="_x32_" points="47.46 23.52 47.46 27.39 42.66 29.19 42.66 25.32 47.46 23.52" fill="#e1e1e1"/>
      <path id="ad" data-name="_x31_" d="M38.52,23.69l4.13,1.63,4.8-1.81-4.11-1.63-4.82,1.8Z" fill="#f1f0f0"/>
    </g>
    <g>
      <g id="ae" data-name="_x34_">
        <polygon points="38.52 19.21 43.35 17.41 47.46 19.04 47.46 22.89 42.66 24.7 38.55 23.09 38.55 19.22 38.52 19.21" fill="#323232"/>
        <path d="M42.51,24.96l-4.11-1.61c-.12-.05-.2-.15-.2-.26v-3.76s-.03-.08-.03-.12c0-.11.08-.22.21-.26l4.82-1.8c.09-.04.2-.03.29,0l4.11,1.63c.12.05.2.15.2.26v3.85c0,.11-.08.22-.21.27l-4.8,1.8s-.1.03-.14.03-.1,0-.15-.03ZM47.11,19.23l-3.76-1.49-4.44,1.66v3.51s3.76,1.47,3.76,1.47l4.45-1.67v-3.48Z" stroke="#000" stroke-miterlimit="10" stroke-width=".25"/>
      </g>
      <polygon id="af" data-name="_x33_" points="38.55 19.21 38.55 23.09 42.66 24.7 42.66 20.84 38.55 19.21" fill="#797979"/>
      <polygon id="ag" data-name="_x32_" points="47.46 19.04 47.46 22.89 42.66 24.7 42.66 20.84 47.46 19.04" fill="#e1e1e1"/>
      <path id="ah" data-name="_x31_" d="M38.52,19.21l4.13,1.63,4.8-1.8-4.11-1.63-4.82,1.8Z" fill="#f1f0f0"/>
    </g>
    <g>
      <g id="ai" data-name="_x34_">
        <polygon points="38.52 14.77 43.35 12.97 47.46 14.59 47.46 18.45 42.66 20.25 38.55 18.64 38.55 14.78 38.52 14.77" fill="#323232"/>
        <path d="M42.51,20.51l-4.11-1.6c-.12-.05-.2-.15-.2-.26v-3.76s-.03-.08-.03-.12c0-.11.08-.22.21-.26l4.82-1.8c.09-.04.2-.03.3,0l4.11,1.63c.12.05.2.15.2.26v3.85c0,.11-.08.22-.21.27l-4.8,1.8s-.1.03-.14.03-.1,0-.15-.03ZM47.11,14.78l-3.76-1.49-4.44,1.66v3.51s3.76,1.47,3.76,1.47l4.45-1.67v-3.48Z" stroke="#000" stroke-miterlimit="10" stroke-width=".25"/>
      </g>
      <polygon id="aj" data-name="_x33_" points="38.55 14.77 38.55 18.64 42.66 20.25 42.66 16.39 38.55 14.77" fill="#797979"/>
      <polygon id="ak" data-name="_x32_" points="47.46 14.59 47.46 18.45 42.66 20.25 42.66 16.39 47.46 14.59" fill="#e1e1e1"/>
      <path id="al" data-name="_x31_" d="M38.52,14.77l4.13,1.63,4.8-1.8-4.11-1.63-4.82,1.8Z" fill="#f1f0f0"/>
    </g>
    <g>
      <g id="am" data-name="_x34_">
        <polygon points="38.52 10.29 43.35 8.49 47.46 10.11 47.46 13.97 42.66 15.77 38.55 14.16 38.55 10.3 38.52 10.29" fill="#323232"/>
        <path d="M42.51,16.03l-4.11-1.6c-.12-.05-.2-.15-.2-.26v-3.76s-.03-.08-.03-.12c0-.11.08-.22.21-.26l4.82-1.8c.09-.04.2-.03.3,0l4.11,1.63c.12.05.2.15.2.26v3.85c0,.11-.08.22-.21.27l-4.8,1.8s-.1.03-.14.03-.1,0-.15-.03ZM47.11,10.3l-3.76-1.49-4.44,1.66v3.51s3.76,1.47,3.76,1.47l4.45-1.67v-3.48Z" stroke="#000" stroke-miterlimit="10" stroke-width=".25"/>
      </g>
      <polygon id="an" data-name="_x33_" points="38.55 10.29 38.55 14.16 42.66 15.77 42.66 11.91 38.55 10.29" fill="#797979"/>
      <polygon id="ao" data-name="_x32_" points="47.46 10.11 47.46 13.97 42.66 15.77 42.66 11.91 47.46 10.11" fill="#e1e1e1"/>
      <path id="ap" data-name="_x31_" d="M38.52,10.29l4.13,1.63,4.8-1.8-4.11-1.63-4.82,1.8Z" fill="#f1f0f0"/>
    </g>
    <g>
      <g id="aq" data-name="_x34_">
        <polygon points="43.67 25.8 48.49 24 52.61 25.63 52.61 29.5 47.81 31.3 43.7 29.7 43.7 25.81 43.67 25.8" fill="#323232"/>
        <path d="M47.66,31.57l-4.11-1.61c-.12-.05-.2-.15-.2-.26v-3.78s-.03-.08-.03-.12c0-.11.08-.21.21-.26l4.82-1.8c.09-.04.2-.03.3,0l4.11,1.63c.12.05.2.15.2.26v3.87c0,.11-.08.22-.21.27l-4.8,1.8s-.1.03-.14.03-.1,0-.15-.03ZM52.25,25.81l-3.76-1.49-4.44,1.66v3.53s3.76,1.47,3.76,1.47l4.45-1.67v-3.5Z" stroke="#000" stroke-miterlimit="10" stroke-width=".25"/>
      </g>
      <polygon id="ar" data-name="_x33_" points="43.7 25.8 43.7 29.7 47.81 31.3 47.81 27.44 43.7 25.8" fill="#797979"/>
      <polygon id="as" data-name="_x32_" points="52.61 25.63 52.61 29.5 47.81 31.3 47.81 27.44 52.61 25.63" fill="#e1e1e1"/>
      <path id="at" data-name="_x31_" d="M43.67,25.8l4.13,1.63,4.8-1.81-4.11-1.63-4.82,1.8Z" fill="#f1f0f0"/>
    </g>
    <g>
      <g id="au" data-name="_x34_">
        <polygon points="43.67 21.32 48.49 19.53 52.61 21.15 52.61 25.01 47.81 26.81 43.7 25.2 43.7 21.34 43.67 21.32" fill="#323232"/>
        <path d="M47.66,27.07l-4.11-1.61c-.12-.05-.2-.15-.2-.26v-3.76s-.03-.08-.03-.12c0-.11.08-.22.21-.26l4.82-1.8c.09-.04.2-.03.29,0l4.11,1.63c.12.05.2.15.2.26v3.85c0,.11-.08.22-.21.27l-4.8,1.8s-.1.03-.14.03-.1,0-.15-.03ZM52.25,21.34l-3.76-1.49-4.44,1.66v3.51s3.76,1.47,3.76,1.47l4.45-1.67v-3.48Z" stroke="#000" stroke-miterlimit="10" stroke-width=".25"/>
      </g>
      <polygon id="av" data-name="_x33_" points="43.7 21.32 43.7 25.2 47.81 26.81 47.81 22.95 43.7 21.32" fill="#797979"/>
      <polygon id="aw" data-name="_x32_" points="52.61 21.15 52.61 25.01 47.81 26.81 47.81 22.95 52.61 21.15" fill="#e1e1e1"/>
      <path id="ax" data-name="_x31_" d="M43.67,21.32l4.13,1.63,4.8-1.8-4.11-1.63-4.82,1.8Z" fill="#f1f0f0"/>
    </g>
    <g>
      <g id="ay" data-name="_x34_">
        <polygon points="43.67 16.88 48.49 15.08 52.61 16.71 52.61 20.56 47.81 22.36 43.7 20.76 43.7 16.89 43.67 16.88" fill="#323232"/>
        <path d="M47.66,22.62l-4.11-1.6c-.12-.05-.2-.15-.2-.26v-3.76s-.03-.08-.03-.12c0-.11.08-.22.21-.26l4.82-1.8c.09-.04.2-.03.3,0l4.11,1.63c.12.05.2.15.2.26v3.85c0,.11-.08.22-.21.27l-4.8,1.8s-.1.03-.14.03-.1,0-.15-.03ZM52.25,16.89l-3.76-1.49-4.44,1.66v3.51s3.76,1.47,3.76,1.47l4.45-1.67v-3.48Z" stroke="#000" stroke-miterlimit="10" stroke-width=".25"/>
      </g>
      <polygon id="az" data-name="_x33_" points="43.7 16.88 43.7 20.76 47.81 22.36 47.81 18.51 43.7 16.88" fill="#797979"/>
      <polygon id="ba" data-name="_x32_" points="52.61 16.71 52.61 20.56 47.81 22.36 47.81 18.51 52.61 16.71" fill="#e1e1e1"/>
      <path id="bb" data-name="_x31_" d="M43.67,16.88l4.13,1.63,4.8-1.8-4.11-1.63-4.82,1.8Z" fill="#f1f0f0"/>
    </g>
    <g>
      <g id="bc" data-name="_x34_">
        <polygon points="43.67 12.4 48.49 10.6 52.61 12.23 52.61 16.08 47.81 17.88 43.7 16.28 43.7 12.41 43.67 12.4" fill="#323232"/>
        <path d="M47.66,18.14l-4.11-1.6c-.12-.05-.2-.15-.2-.26v-3.76s-.03-.08-.03-.12c0-.11.08-.22.21-.26l4.82-1.8c.09-.04.2-.03.3,0l4.11,1.63c.12.05.2.15.2.26v3.85c0,.11-.08.22-.21.27l-4.8,1.8s-.1.03-.14.03-.1,0-.15-.03ZM52.25,12.41l-3.76-1.49-4.44,1.66v3.51s3.76,1.47,3.76,1.47l4.45-1.67v-3.48Z" stroke="#000" stroke-miterlimit="10" stroke-width=".25"/>
      </g>
      <polygon id="bd" data-name="_x33_" points="43.7 12.4 43.7 16.28 47.81 17.88 47.81 14.03 43.7 12.4" fill="#797979"/>
      <polygon id="be" data-name="_x32_" points="52.61 12.23 52.61 16.08 47.81 17.88 47.81 14.03 52.61 12.23" fill="#e1e1e1"/>
      <path id="bf" data-name="_x31_" d="M43.67,12.4l4.13,1.63,4.8-1.8-4.11-1.63-4.82,1.8Z" fill="#f1f0f0"/>
    </g>
    <g>
      <g id="bg" data-name="_x34_">
        <polygon points="48.6 27.91 53.42 26.11 57.53 27.74 57.53 31.61 52.73 33.42 48.63 31.81 48.63 27.93 48.6 27.91" fill="#323232"/>
        <path d="M52.58,33.68l-4.11-1.61c-.12-.05-.2-.15-.2-.26v-3.78s-.03-.08-.03-.12c0-.11.08-.21.21-.26l4.82-1.8c.09-.04.2-.03.3,0l4.11,1.63c.12.05.2.15.2.26v3.87c0,.11-.08.22-.21.27l-4.8,1.8s-.1.03-.14.03-.1,0-.15-.03ZM57.18,27.93l-3.76-1.49-4.44,1.66v3.53s3.76,1.47,3.76,1.47l4.45-1.67v-3.5Z" stroke="#000" stroke-miterlimit="10" stroke-width=".25"/>
      </g>
      <polygon id="bh" data-name="_x33_" points="48.63 27.91 48.63 31.81 52.73 33.42 52.73 29.55 48.63 27.91" fill="#797979"/>
      <polygon id="bi" data-name="_x32_" points="57.53 27.74 57.53 31.61 52.73 33.42 52.73 29.55 57.53 27.74" fill="#e1e1e1"/>
      <path id="bj" data-name="_x31_" d="M48.6,27.91l4.13,1.63,4.8-1.81-4.11-1.63-4.82,1.8Z" fill="#f1f0f0"/>
    </g>
    <g>
      <g id="bk" data-name="_x34_">
        <polygon points="48.6 23.44 53.42 21.64 57.53 23.27 57.53 27.12 52.73 28.92 48.63 27.31 48.63 23.45 48.6 23.44" fill="#323232"/>
        <path d="M52.58,29.19l-4.11-1.61c-.12-.05-.2-.15-.2-.26v-3.76s-.03-.08-.03-.12c0-.11.08-.22.21-.26l4.82-1.8c.09-.04.2-.03.29,0l4.11,1.63c.12.05.2.15.2.26v3.85c0,.11-.08.22-.21.27l-4.8,1.8s-.1.03-.14.03-.1,0-.15-.03ZM57.18,23.45l-3.76-1.49-4.44,1.66v3.51s3.76,1.47,3.76,1.47l4.45-1.67v-3.48Z" stroke="#000" stroke-miterlimit="10" stroke-width=".25"/>
      </g>
      <polygon id="bl" data-name="_x33_" points="48.63 23.44 48.63 27.31 52.73 28.92 52.73 25.07 48.63 23.44" fill="#797979"/>
      <polygon id="bm" data-name="_x32_" points="57.53 23.27 57.53 27.12 52.73 28.92 52.73 25.07 57.53 23.27" fill="#e1e1e1"/>
      <path id="bn" data-name="_x31_" d="M48.6,23.44l4.13,1.63,4.8-1.8-4.11-1.63-4.82,1.8Z" fill="#f1f0f0"/>
    </g>
    <g>
      <g id="bo" data-name="_x34_">
        <polygon points="48.6 18.99 53.42 17.19 57.53 18.82 57.53 22.67 52.73 24.47 48.63 22.87 48.63 19 48.6 18.99" fill="#323232"/>
        <path d="M52.58,24.74l-4.11-1.6c-.12-.05-.2-.15-.2-.26v-3.76s-.03-.08-.03-.12c0-.11.08-.22.21-.26l4.82-1.8c.09-.04.2-.03.3,0l4.11,1.63c.12.05.2.15.2.26v3.85c0,.11-.08.22-.21.27l-4.8,1.8s-.1.03-.14.03-.1,0-.15-.03ZM57.18,19l-3.76-1.49-4.44,1.66v3.51s3.76,1.47,3.76,1.47l4.45-1.67v-3.48Z" stroke="#000" stroke-miterlimit="10" stroke-width=".25"/>
      </g>
      <polygon id="bp" data-name="_x33_" points="48.63 18.99 48.63 22.87 52.73 24.47 52.73 20.62 48.63 18.99" fill="#797979"/>
      <polygon id="bq" data-name="_x32_" points="57.53 18.82 57.53 22.67 52.73 24.47 52.73 20.62 57.53 18.82" fill="#e1e1e1"/>
      <path id="br" data-name="_x31_" d="M48.6,18.99l4.13,1.63,4.8-1.8-4.11-1.63-4.82,1.8Z" fill="#f1f0f0"/>
    </g>
    <g>
      <g id="bs" data-name="_x34_">
        <polygon points="48.6 14.51 53.42 12.71 57.53 14.34 57.53 18.19 52.73 19.99 48.63 18.39 48.63 14.52 48.6 14.51" fill="#323232"/>
        <path d="M52.58,20.26l-4.11-1.6c-.12-.05-.2-.15-.2-.26v-3.76s-.03-.08-.03-.12c0-.11.08-.22.21-.26l4.82-1.8c.09-.04.2-.03.3,0l4.11,1.63c.12.05.2.15.2.26v3.85c0,.11-.08.22-.21.27l-4.8,1.8s-.1.03-.14.03-.1,0-.15-.03ZM57.18,14.52l-3.76-1.49-4.44,1.66v3.51s3.76,1.47,3.76,1.47l4.45-1.67v-3.48Z" stroke="#000" stroke-miterlimit="10" stroke-width=".25"/>
      </g>
      <polygon id="bt" data-name="_x33_" points="48.63 14.51 48.63 18.39 52.73 19.99 52.73 16.14 48.63 14.51" fill="#797979"/>
      <polygon id="bu" data-name="_x32_" points="57.53 14.34 57.53 18.19 52.73 19.99 52.73 16.14 57.53 14.34" fill="#e1e1e1"/>
      <path id="bv" data-name="_x31_" d="M48.6,14.51l4.13,1.63,4.8-1.8-4.11-1.63-4.82,1.8Z" fill="#f1f0f0"/>
    </g>
    <g>
      <g id="bw" data-name="_x34_">
        <polygon points="20.6 22.58 25.42 20.78 29.53 22.41 29.53 26.28 24.73 28.08 20.62 26.47 20.62 22.59 20.6 22.58" fill="#323232"/>
        <path d="M24.58,28.34l-4.11-1.61c-.12-.05-.2-.15-.2-.26v-3.78s-.03-.08-.03-.12c0-.11.08-.21.21-.26l4.82-1.8c.09-.04.2-.03.3,0l4.11,1.63c.12.05.2.15.2.26v3.87c0,.11-.08.22-.21.27l-4.8,1.8s-.1.03-.14.03-.1,0-.15-.03ZM29.18,22.59l-3.76-1.49-4.44,1.66v3.53s3.76,1.47,3.76,1.47l4.45-1.67v-3.5Z" stroke="#000" stroke-miterlimit="10" stroke-width=".25"/>
      </g>
      <polygon id="bx" data-name="_x33_" points="20.62 22.58 20.62 26.47 24.73 28.08 24.73 24.21 20.62 22.58" fill="#797979"/>
      <polygon id="by" data-name="_x32_" points="29.53 22.41 29.53 26.28 24.73 28.08 24.73 24.21 29.53 22.41" fill="#e1e1e1"/>
      <path id="bz" data-name="_x31_" d="M20.6,22.58l4.13,1.63,4.8-1.81-4.11-1.63-4.82,1.8Z" fill="#f1f0f0"/>
    </g>
    <g>
      <g id="ca" data-name="_x34_">
        <polygon points="20.6 18.1 25.42 16.3 29.53 17.93 29.53 21.78 24.73 23.58 20.62 21.98 20.62 18.11 20.6 18.1" fill="#323232"/>
        <path d="M24.58,23.85l-4.11-1.61c-.12-.05-.2-.15-.2-.26v-3.76s-.03-.08-.03-.12c0-.11.08-.22.21-.26l4.82-1.8c.09-.04.2-.03.29,0l4.11,1.63c.12.05.2.15.2.26v3.85c0,.11-.08.22-.21.27l-4.8,1.8s-.1.03-.14.03-.1,0-.15-.03ZM29.18,18.11l-3.76-1.49-4.44,1.66v3.51s3.76,1.47,3.76,1.47l4.45-1.67v-3.48Z" stroke="#000" stroke-miterlimit="10" stroke-width=".25"/>
      </g>
      <polygon id="cb" data-name="_x33_" points="20.62 18.1 20.62 21.98 24.73 23.58 24.73 19.73 20.62 18.1" fill="#797979"/>
      <polygon id="cc" data-name="_x32_" points="29.53 17.93 29.53 21.78 24.73 23.58 24.73 19.73 29.53 17.93" fill="#e1e1e1"/>
      <path id="cd" data-name="_x31_" d="M20.6,18.1l4.13,1.63,4.8-1.8-4.11-1.63-4.82,1.8Z" fill="#f1f0f0"/>
    </g>
    <g>
      <g id="ce" data-name="_x34_">
        <polygon points="20.6 13.66 25.42 11.86 29.53 13.48 29.53 17.33 24.73 19.14 20.62 17.53 20.62 13.67 20.6 13.66" fill="#323232"/>
        <path d="M24.58,19.4l-4.11-1.6c-.12-.05-.2-.15-.2-.26v-3.76s-.03-.08-.03-.12c0-.11.08-.22.21-.26l4.82-1.8c.09-.04.2-.03.3,0l4.11,1.63c.12.05.2.15.2.26v3.85c0,.11-.08.22-.21.27l-4.8,1.8s-.1.03-.14.03-.1,0-.15-.03ZM29.18,13.67l-3.76-1.49-4.44,1.66v3.51s3.76,1.47,3.76,1.47l4.45-1.67v-3.48Z" stroke="#000" stroke-miterlimit="10" stroke-width=".25"/>
      </g>
      <polygon id="cf" data-name="_x33_" points="20.62 13.66 20.62 17.53 24.73 19.14 24.73 15.28 20.62 13.66" fill="#797979"/>
      <polygon id="cg" data-name="_x32_" points="29.53 13.48 29.53 17.33 24.73 19.14 24.73 15.28 29.53 13.48" fill="#e1e1e1"/>
      <path id="ch" data-name="_x31_" d="M20.6,13.66l4.13,1.63,4.8-1.8-4.11-1.63-4.82,1.8Z" fill="#f1f0f0"/>
    </g>
    <g>
      <g id="ci" data-name="_x34_">
        <polygon points="20.6 9.17 25.42 7.38 29.53 9 29.53 12.85 24.73 14.66 20.62 13.05 20.62 9.19 20.6 9.17" fill="#323232"/>
        <path d="M24.58,14.92l-4.11-1.6c-.12-.05-.2-.15-.2-.26v-3.76s-.03-.08-.03-.12c0-.11.08-.22.21-.26l4.82-1.8c.09-.04.2-.03.3,0l4.11,1.63c.12.05.2.15.2.26v3.85c0,.11-.08.22-.21.27l-4.8,1.8s-.1.03-.14.03-.1,0-.15-.03ZM29.18,9.19l-3.76-1.49-4.44,1.66v3.51s3.76,1.47,3.76,1.47l4.45-1.67v-3.48Z" stroke="#000" stroke-miterlimit="10" stroke-width=".25"/>
      </g>
      <polygon id="cj" data-name="_x33_" points="20.62 9.17 20.62 13.05 24.73 14.66 24.73 10.8 20.62 9.17" fill="#797979"/>
      <polygon id="ck" data-name="_x32_" points="29.53 9 29.53 12.85 24.73 14.66 24.73 10.8 29.53 9" fill="#e1e1e1"/>
      <path id="cl" data-name="_x31_" d="M20.6,9.17l4.13,1.63,4.8-1.8-4.11-1.63-4.82,1.8Z" fill="#f1f0f0"/>
    </g>
    <g>
      <g id="cm" data-name="_x34_">
        <polygon points="25.52 24.69 30.35 22.89 34.46 24.52 34.46 28.39 29.66 30.19 25.55 28.59 25.55 24.7 25.52 24.69" fill="#323232"/>
        <path d="M29.51,30.46l-4.11-1.61c-.12-.05-.2-.15-.2-.26v-3.78s-.03-.08-.03-.12c0-.11.08-.21.21-.26l4.82-1.8c.09-.04.2-.03.3,0l4.11,1.63c.12.05.2.15.2.26v3.87c0,.11-.08.22-.21.27l-4.8,1.8s-.1.03-.14.03-.1,0-.15-.03ZM34.11,24.7l-3.76-1.49-4.44,1.66v3.53s3.76,1.47,3.76,1.47l4.45-1.67v-3.5Z" stroke="#000" stroke-miterlimit="10" stroke-width=".25"/>
      </g>
      <polygon id="cn" data-name="_x33_" points="25.55 24.69 25.55 28.59 29.66 30.19 29.66 26.32 25.55 24.69" fill="#797979"/>
      <polygon id="co" data-name="_x32_" points="34.46 24.52 34.46 28.39 29.66 30.19 29.66 26.32 34.46 24.52" fill="#e1e1e1"/>
      <path id="cp" data-name="_x31_" d="M25.52,24.69l4.13,1.63,4.8-1.81-4.11-1.63-4.82,1.8Z" fill="#f1f0f0"/>
    </g>
    <g>
      <g id="cq" data-name="_x34_">
        <polygon points="25.52 20.21 30.35 18.41 34.46 20.04 34.46 23.89 29.66 25.7 25.55 24.09 25.55 20.22 25.52 20.21" fill="#323232"/>
        <path d="M29.51,25.96l-4.11-1.61c-.12-.05-.2-.15-.2-.26v-3.76s-.03-.08-.03-.12c0-.11.08-.22.21-.26l4.82-1.8c.09-.04.2-.03.29,0l4.11,1.63c.12.05.2.15.2.26v3.85c0,.11-.08.22-.21.27l-4.8,1.8s-.1.03-.14.03-.1,0-.15-.03ZM34.11,20.23l-3.76-1.49-4.44,1.66v3.51s3.76,1.47,3.76,1.47l4.45-1.67v-3.48Z" stroke="#000" stroke-miterlimit="10" stroke-width=".25"/>
      </g>
      <polygon id="cr" data-name="_x33_" points="25.55 20.21 25.55 24.09 29.66 25.7 29.66 21.84 25.55 20.21" fill="#797979"/>
      <polygon id="cs" data-name="_x32_" points="34.46 20.04 34.46 23.89 29.66 25.7 29.66 21.84 34.46 20.04" fill="#e1e1e1"/>
      <path id="ct" data-name="_x31_" d="M25.52,20.21l4.13,1.63,4.8-1.8-4.11-1.63-4.82,1.8Z" fill="#f1f0f0"/>
    </g>
    <g>
      <g id="cu" data-name="_x34_">
        <polygon points="25.52 15.77 30.35 13.97 34.46 15.59 34.46 19.45 29.66 21.25 25.55 19.64 25.55 15.78 25.52 15.77" fill="#323232"/>
        <path d="M29.51,21.51l-4.11-1.6c-.12-.05-.2-.15-.2-.26v-3.76s-.03-.08-.03-.12c0-.11.08-.22.21-.26l4.82-1.8c.09-.04.2-.03.3,0l4.11,1.63c.12.05.2.15.2.26v3.85c0,.11-.08.22-.21.27l-4.8,1.8s-.1.03-.14.03-.1,0-.15-.03ZM34.11,15.78l-3.76-1.49-4.44,1.66v3.51s3.76,1.47,3.76,1.47l4.45-1.67v-3.48Z" stroke="#000" stroke-miterlimit="10" stroke-width=".25"/>
      </g>
      <polygon id="cv" data-name="_x33_" points="25.55 15.77 25.55 19.64 29.66 21.25 29.66 17.39 25.55 15.77" fill="#797979"/>
      <polygon id="cw" data-name="_x32_" points="34.46 15.59 34.46 19.45 29.66 21.25 29.66 17.39 34.46 15.59" fill="#e1e1e1"/>
      <path id="cx" data-name="_x31_" d="M25.52,15.77l4.13,1.63,4.8-1.8-4.11-1.63-4.82,1.8Z" fill="#f1f0f0"/>
    </g>
    <g>
      <g id="cy" data-name="_x34_">
        <polygon points="25.52 11.29 30.35 9.49 34.46 11.11 34.46 14.97 29.66 16.77 25.55 15.16 25.55 11.3 25.52 11.29" fill="#323232"/>
        <path d="M29.51,17.03l-4.11-1.6c-.12-.05-.2-.15-.2-.26v-3.76s-.03-.08-.03-.12c0-.11.08-.22.21-.26l4.82-1.8c.09-.04.2-.03.3,0l4.11,1.63c.12.05.2.15.2.26v3.85c0,.11-.08.22-.21.27l-4.8,1.8s-.1.03-.14.03-.1,0-.15-.03ZM34.11,11.3l-3.76-1.49-4.44,1.66v3.51s3.76,1.47,3.76,1.47l4.45-1.67v-3.48Z" stroke="#000" stroke-miterlimit="10" stroke-width=".25"/>
      </g>
      <polygon id="cz" data-name="_x33_" points="25.55 11.29 25.55 15.16 29.66 16.77 29.66 12.91 25.55 11.29" fill="#797979"/>
      <polygon id="da" data-name="_x32_" points="34.46 11.11 34.46 14.97 29.66 16.77 29.66 12.91 34.46 11.11" fill="#e1e1e1"/>
      <path id="db" data-name="_x31_" d="M25.52,11.29l4.13,1.63,4.8-1.8-4.11-1.63-4.82,1.8Z" fill="#f1f0f0"/>
    </g>
    <g>
      <g id="dc" data-name="_x34_">
        <polygon points="30.67 26.8 35.49 25 39.61 26.63 39.61 30.5 34.81 32.3 30.7 30.7 30.7 26.81 30.67 26.8" fill="#323232"/>
        <path d="M34.66,32.57l-4.11-1.61c-.12-.05-.2-.15-.2-.26v-3.78s-.03-.08-.03-.12c0-.11.08-.21.21-.26l4.82-1.8c.09-.04.2-.03.3,0l4.11,1.63c.12.05.2.15.2.26v3.87c0,.11-.08.22-.21.27l-4.8,1.8s-.1.03-.14.03-.1,0-.15-.03ZM39.25,26.81l-3.76-1.49-4.44,1.66v3.53s3.76,1.47,3.76,1.47l4.45-1.67v-3.5Z" stroke="#000" stroke-miterlimit="10" stroke-width=".25"/>
      </g>
      <polygon id="dd" data-name="_x33_" points="30.7 26.8 30.7 30.7 34.81 32.3 34.81 28.44 30.7 26.8" fill="#797979"/>
      <polygon id="de" data-name="_x32_" points="39.61 26.63 39.61 30.5 34.81 32.3 34.81 28.44 39.61 26.63" fill="#e1e1e1"/>
      <path id="df" data-name="_x31_" d="M30.67,26.8l4.13,1.63,4.8-1.81-4.11-1.63-4.82,1.8Z" fill="#f1f0f0"/>
    </g>
    <g>
      <g id="dg" data-name="_x34_">
        <polygon points="30.67 22.32 35.49 20.53 39.61 22.15 39.61 26.01 34.81 27.81 30.7 26.2 30.7 22.34 30.67 22.32" fill="#323232"/>
        <path d="M34.66,28.07l-4.11-1.61c-.12-.05-.2-.15-.2-.26v-3.76s-.03-.08-.03-.12c0-.11.08-.22.21-.26l4.82-1.8c.09-.04.2-.03.29,0l4.11,1.63c.12.05.2.15.2.26v3.85c0,.11-.08.22-.21.27l-4.8,1.8s-.1.03-.14.03-.1,0-.15-.03ZM39.25,22.34l-3.76-1.49-4.44,1.66v3.51s3.76,1.47,3.76,1.47l4.45-1.67v-3.48Z" stroke="#000" stroke-miterlimit="10" stroke-width=".25"/>
      </g>
      <polygon id="dh" data-name="_x33_" points="30.7 22.32 30.7 26.2 34.81 27.81 34.81 23.95 30.7 22.32" fill="#797979"/>
      <polygon id="di" data-name="_x32_" points="39.61 22.15 39.61 26.01 34.81 27.81 34.81 23.95 39.61 22.15" fill="#e1e1e1"/>
      <path id="dj" data-name="_x31_" d="M30.67,22.32l4.13,1.63,4.8-1.8-4.11-1.63-4.82,1.8Z" fill="#f1f0f0"/>
    </g>
    <g>
      <g id="dk" data-name="_x34_">
        <polygon points="30.67 17.88 35.49 16.08 39.61 17.71 39.61 21.56 34.81 23.36 30.7 21.76 30.7 17.89 30.67 17.88" fill="#323232"/>
        <path d="M34.66,23.62l-4.11-1.6c-.12-.05-.2-.15-.2-.26v-3.76s-.03-.08-.03-.12c0-.11.08-.22.21-.26l4.82-1.8c.09-.04.2-.03.3,0l4.11,1.63c.12.05.2.15.2.26v3.85c0,.11-.08.22-.21.27l-4.8,1.8s-.1.03-.14.03-.1,0-.15-.03ZM39.25,17.89l-3.76-1.49-4.44,1.66v3.51s3.76,1.47,3.76,1.47l4.45-1.67v-3.48Z" stroke="#000" stroke-miterlimit="10" stroke-width=".25"/>
      </g>
      <polygon id="dl" data-name="_x33_" points="30.7 17.88 30.7 21.76 34.81 23.36 34.81 19.51 30.7 17.88" fill="#797979"/>
      <polygon id="dm" data-name="_x32_" points="39.61 17.71 39.61 21.56 34.81 23.36 34.81 19.51 39.61 17.71" fill="#e1e1e1"/>
      <path id="dn" data-name="_x31_" d="M30.67,17.88l4.13,1.63,4.8-1.8-4.11-1.63-4.82,1.8Z" fill="#f1f0f0"/>
    </g>
    <g>
      <g id="do" data-name="_x34_">
        <polygon points="30.67 13.4 35.49 11.6 39.61 13.23 39.61 17.08 34.81 18.88 30.7 17.28 30.7 13.41 30.67 13.4" fill="#323232"/>
        <path d="M34.66,19.14l-4.11-1.6c-.12-.05-.2-.15-.2-.26v-3.76s-.03-.08-.03-.12c0-.11.08-.22.21-.26l4.82-1.8c.09-.04.2-.03.3,0l4.11,1.63c.12.05.2.15.2.26v3.85c0,.11-.08.22-.21.27l-4.8,1.8s-.1.03-.14.03-.1,0-.15-.03ZM39.25,13.41l-3.76-1.49-4.44,1.66v3.51s3.76,1.47,3.76,1.47l4.45-1.67v-3.48Z" stroke="#000" stroke-miterlimit="10" stroke-width=".25"/>
      </g>
      <polygon id="dp" data-name="_x33_" points="30.7 13.4 30.7 17.28 34.81 18.88 34.81 15.03 30.7 13.4" fill="#797979"/>
      <polygon id="dq" data-name="_x32_" points="39.61 13.23 39.61 17.08 34.81 18.88 34.81 15.03 39.61 13.23" fill="#e1e1e1"/>
      <path id="dr" data-name="_x31_" d="M30.67,13.4l4.13,1.63,4.8-1.8-4.11-1.63-4.82,1.8Z" fill="#f1f0f0"/>
    </g>
    <g>
      <g id="ds" data-name="_x34_">
        <polygon points="35.6 28.91 40.42 27.11 44.53 28.74 44.53 32.61 39.73 34.42 35.63 32.81 35.63 28.93 35.6 28.91" fill="#323232"/>
        <path d="M39.58,34.68l-4.11-1.61c-.12-.05-.2-.15-.2-.26v-3.78s-.03-.08-.03-.12c0-.11.08-.21.21-.26l4.82-1.8c.09-.04.2-.03.3,0l4.11,1.63c.12.05.2.15.2.26v3.87c0,.11-.08.22-.21.27l-4.8,1.8s-.1.03-.14.03-.1,0-.15-.03ZM44.18,28.93l-3.76-1.49-4.44,1.66v3.53s3.76,1.47,3.76,1.47l4.45-1.67v-3.5Z" stroke="#000" stroke-miterlimit="10" stroke-width=".25"/>
      </g>
      <polygon id="dt" data-name="_x33_" points="35.63 28.91 35.63 32.81 39.73 34.42 39.73 30.55 35.63 28.91" fill="#797979"/>
      <polygon id="du" data-name="_x32_" points="44.53 28.74 44.53 32.61 39.73 34.42 39.73 30.55 44.53 28.74" fill="#e1e1e1"/>
      <path id="dv" data-name="_x31_" d="M35.6,28.91l4.13,1.63,4.8-1.81-4.11-1.63-4.82,1.8Z" fill="#f1f0f0"/>
    </g>
    <g>
      <g id="dw" data-name="_x34_">
        <polygon points="35.6 24.44 40.42 22.64 44.53 24.27 44.53 28.12 39.73 29.92 35.63 28.31 35.63 24.45 35.6 24.44" fill="#323232"/>
        <path d="M39.58,30.19l-4.11-1.61c-.12-.05-.2-.15-.2-.26v-3.76s-.03-.08-.03-.12c0-.11.08-.22.21-.26l4.82-1.8c.09-.04.2-.03.29,0l4.11,1.63c.12.05.2.15.2.26v3.85c0,.11-.08.22-.21.27l-4.8,1.8s-.1.03-.14.03-.1,0-.15-.03ZM44.18,24.45l-3.76-1.49-4.44,1.66v3.51s3.76,1.47,3.76,1.47l4.45-1.67v-3.48Z" stroke="#000" stroke-miterlimit="10" stroke-width=".25"/>
      </g>
      <polygon id="dx" data-name="_x33_" points="35.63 24.44 35.63 28.31 39.73 29.92 39.73 26.07 35.63 24.44" fill="#797979"/>
      <polygon id="dy" data-name="_x32_" points="44.53 24.27 44.53 28.12 39.73 29.92 39.73 26.07 44.53 24.27" fill="#e1e1e1"/>
      <path id="dz" data-name="_x31_" d="M35.6,24.44l4.13,1.63,4.8-1.8-4.11-1.63-4.82,1.8Z" fill="#f1f0f0"/>
    </g>
    <g>
      <g id="ea" data-name="_x34_">
        <polygon points="35.6 19.99 40.42 18.19 44.53 19.82 44.53 23.67 39.73 25.47 35.63 23.87 35.63 20 35.6 19.99" fill="#323232"/>
        <path d="M39.58,25.74l-4.11-1.6c-.12-.05-.2-.15-.2-.26v-3.76s-.03-.08-.03-.12c0-.11.08-.22.21-.26l4.82-1.8c.09-.04.2-.03.3,0l4.11,1.63c.12.05.2.15.2.26v3.85c0,.11-.08.22-.21.27l-4.8,1.8s-.1.03-.14.03-.1,0-.15-.03ZM44.18,20l-3.76-1.49-4.44,1.66v3.51s3.76,1.47,3.76,1.47l4.45-1.67v-3.48Z" stroke="#000" stroke-miterlimit="10" stroke-width=".25"/>
      </g>
      <polygon id="eb" data-name="_x33_" points="35.63 19.99 35.63 23.87 39.73 25.47 39.73 21.62 35.63 19.99" fill="#797979"/>
      <polygon id="ec" data-name="_x32_" points="44.53 19.82 44.53 23.67 39.73 25.47 39.73 21.62 44.53 19.82" fill="#e1e1e1"/>
      <path id="ed" data-name="_x31_" d="M35.6,19.99l4.13,1.63,4.8-1.8-4.11-1.63-4.82,1.8Z" fill="#f1f0f0"/>
    </g>
    <g>
      <g id="ee" data-name="_x34_">
        <polygon points="35.6 15.51 40.42 13.71 44.53 15.34 44.53 19.19 39.73 20.99 35.63 19.39 35.63 15.52 35.6 15.51" fill="#323232"/>
        <path d="M39.58,21.26l-4.11-1.6c-.12-.05-.2-.15-.2-.26v-3.76s-.03-.08-.03-.12c0-.11.08-.22.21-.26l4.82-1.8c.09-.04.2-.03.3,0l4.11,1.63c.12.05.2.15.2.26v3.85c0,.11-.08.22-.21.27l-4.8,1.8s-.1.03-.14.03-.1,0-.15-.03ZM44.18,15.52l-3.76-1.49-4.44,1.66v3.51s3.76,1.47,3.76,1.47l4.45-1.67v-3.48Z" stroke="#000" stroke-miterlimit="10" stroke-width=".25"/>
      </g>
      <polygon id="ef" data-name="_x33_" points="35.63 15.51 35.63 19.39 39.73 20.99 39.73 17.14 35.63 15.51" fill="#797979"/>
      <polygon id="eg" data-name="_x32_" points="44.53 15.34 44.53 19.19 39.73 20.99 39.73 17.14 44.53 15.34" fill="#e1e1e1"/>
      <path id="eh" data-name="_x31_" d="M35.6,15.51l4.13,1.63,4.8-1.8-4.11-1.63-4.82,1.8Z" fill="#f1f0f0"/>
    </g>
    <g>
      <g id="ei" data-name="_x34_">
        <polygon points="7.6 24.58 12.42 22.78 16.53 24.41 16.53 28.28 11.73 30.08 7.62 28.47 7.62 24.59 7.6 24.58" fill="#323232"/>
        <path d="M11.58,30.34l-4.11-1.61c-.12-.05-.2-.15-.2-.26v-3.78s-.03-.08-.03-.12c0-.11.08-.21.21-.26l4.82-1.8c.09-.04.2-.03.3,0l4.11,1.63c.12.05.2.15.2.26v3.87c0,.11-.08.22-.21.27l-4.8,1.8s-.1.03-.14.03-.1,0-.15-.03ZM16.18,24.59l-3.76-1.49-4.44,1.66v3.53s3.76,1.47,3.76,1.47l4.45-1.67v-3.5Z" stroke="#000" stroke-miterlimit="10" stroke-width=".25"/>
      </g>
      <polygon id="ej" data-name="_x33_" points="7.62 24.58 7.62 28.47 11.73 30.08 11.73 26.21 7.62 24.58" fill="#797979"/>
      <polygon id="ek" data-name="_x32_" points="16.53 24.41 16.53 28.28 11.73 30.08 11.73 26.21 16.53 24.41" fill="#e1e1e1"/>
      <path id="el" data-name="_x31_" d="M7.6,24.58l4.13,1.63,4.8-1.81-4.11-1.63-4.82,1.8Z" fill="#f1f0f0"/>
    </g>
    <g>
      <g id="em" data-name="_x34_">
        <polygon points="7.6 20.1 12.42 18.3 16.53 19.93 16.53 23.78 11.73 25.58 7.62 23.98 7.62 20.11 7.6 20.1" fill="#323232"/>
        <path d="M11.58,25.85l-4.11-1.61c-.12-.05-.2-.15-.2-.26v-3.76s-.03-.08-.03-.12c0-.11.08-.22.21-.26l4.82-1.8c.09-.04.2-.03.29,0l4.11,1.63c.12.05.2.15.2.26v3.85c0,.11-.08.22-.21.27l-4.8,1.8s-.1.03-.14.03-.1,0-.15-.03ZM16.18,20.11l-3.76-1.49-4.44,1.66v3.51s3.76,1.47,3.76,1.47l4.45-1.67v-3.48Z" stroke="#000" stroke-miterlimit="10" stroke-width=".25"/>
      </g>
      <polygon id="en" data-name="_x33_" points="7.62 20.1 7.62 23.98 11.73 25.58 11.73 21.73 7.62 20.1" fill="#797979"/>
      <polygon id="eo" data-name="_x32_" points="16.53 19.93 16.53 23.78 11.73 25.58 11.73 21.73 16.53 19.93" fill="#e1e1e1"/>
      <path id="ep" data-name="_x31_" d="M7.6,20.1l4.13,1.63,4.8-1.8-4.11-1.63-4.82,1.8Z" fill="#f1f0f0"/>
    </g>
    <g>
      <g id="eq" data-name="_x34_">
        <polygon points="7.6 15.66 12.42 13.86 16.53 15.48 16.53 19.33 11.73 21.14 7.62 19.53 7.62 15.67 7.6 15.66" fill="#323232"/>
        <path d="M11.58,21.4l-4.11-1.6c-.12-.05-.2-.15-.2-.26v-3.76s-.03-.08-.03-.12c0-.11.08-.22.21-.26l4.82-1.8c.09-.04.2-.03.3,0l4.11,1.63c.12.05.2.15.2.26v3.85c0,.11-.08.22-.21.27l-4.8,1.8s-.1.03-.14.03-.1,0-.15-.03ZM16.18,15.67l-3.76-1.49-4.44,1.66v3.51s3.76,1.47,3.76,1.47l4.45-1.67v-3.48Z" stroke="#000" stroke-miterlimit="10" stroke-width=".25"/>
      </g>
      <polygon id="er" data-name="_x33_" points="7.62 15.66 7.62 19.53 11.73 21.14 11.73 17.28 7.62 15.66" fill="#797979"/>
      <polygon id="es" data-name="_x32_" points="16.53 15.48 16.53 19.33 11.73 21.14 11.73 17.28 16.53 15.48" fill="#e1e1e1"/>
      <path id="et" data-name="_x31_" d="M7.6,15.66l4.13,1.63,4.8-1.8-4.11-1.63-4.82,1.8Z" fill="#f1f0f0"/>
    </g>
    <g>
      <g id="eu" data-name="_x34_">
        <polygon points="7.6 11.17 12.42 9.38 16.53 11 16.53 14.85 11.73 16.66 7.62 15.05 7.62 11.19 7.6 11.17" fill="#323232"/>
        <path d="M11.58,16.92l-4.11-1.6c-.12-.05-.2-.15-.2-.26v-3.76s-.03-.08-.03-.12c0-.11.08-.22.21-.26l4.82-1.8c.09-.04.2-.03.3,0l4.11,1.63c.12.05.2.15.2.26v3.85c0,.11-.08.22-.21.27l-4.8,1.8s-.1.03-.14.03-.1,0-.15-.03ZM16.18,11.19l-3.76-1.49-4.44,1.66v3.51s3.76,1.47,3.76,1.47l4.45-1.67v-3.48Z" stroke="#000" stroke-miterlimit="10" stroke-width=".25"/>
      </g>
      <polygon id="ev" data-name="_x33_" points="7.62 11.17 7.62 15.05 11.73 16.66 11.73 12.8 7.62 11.17" fill="#797979"/>
      <polygon id="ew" data-name="_x32_" points="16.53 11 16.53 14.85 11.73 16.66 11.73 12.8 16.53 11" fill="#e1e1e1"/>
      <path id="ex" data-name="_x31_" d="M7.6,11.17l4.13,1.63,4.8-1.8-4.11-1.63-4.82,1.8Z" fill="#f1f0f0"/>
    </g>
    <g>
      <g id="ey" data-name="_x34_">
        <polygon points="12.52 26.69 17.35 24.89 21.46 26.52 21.46 30.39 16.66 32.19 12.55 30.59 12.55 26.7 12.52 26.69" fill="#323232"/>
        <path d="M16.51,32.46l-4.11-1.61c-.12-.05-.2-.15-.2-.26v-3.78s-.03-.08-.03-.12c0-.11.08-.21.21-.26l4.82-1.8c.09-.04.2-.03.3,0l4.11,1.63c.12.05.2.15.2.26v3.87c0,.11-.08.22-.21.27l-4.8,1.8s-.1.03-.14.03-.1,0-.15-.03ZM21.11,26.7l-3.76-1.49-4.44,1.66v3.53s3.76,1.47,3.76,1.47l4.45-1.67v-3.5Z" stroke="#000" stroke-miterlimit="10" stroke-width=".25"/>
      </g>
      <polygon id="ez" data-name="_x33_" points="12.55 26.69 12.55 30.59 16.66 32.19 16.66 28.32 12.55 26.69" fill="#797979"/>
      <polygon id="fa" data-name="_x32_" points="21.46 26.52 21.46 30.39 16.66 32.19 16.66 28.32 21.46 26.52" fill="#e1e1e1"/>
      <path id="fb" data-name="_x31_" d="M12.52,26.69l4.13,1.63,4.8-1.81-4.11-1.63-4.82,1.8Z" fill="#f1f0f0"/>
    </g>
    <g>
      <g id="fc" data-name="_x34_">
        <polygon points="12.52 22.21 17.35 20.41 21.46 22.04 21.46 25.89 16.66 27.7 12.55 26.09 12.55 22.22 12.52 22.21" fill="#323232"/>
        <path d="M16.51,27.96l-4.11-1.61c-.12-.05-.2-.15-.2-.26v-3.76s-.03-.08-.03-.12c0-.11.08-.22.21-.26l4.82-1.8c.09-.04.2-.03.29,0l4.11,1.63c.12.05.2.15.2.26v3.85c0,.11-.08.22-.21.27l-4.8,1.8s-.1.03-.14.03-.1,0-.15-.03ZM21.11,22.23l-3.76-1.49-4.44,1.66v3.51s3.76,1.47,3.76,1.47l4.45-1.67v-3.48Z" stroke="#000" stroke-miterlimit="10" stroke-width=".25"/>
      </g>
      <polygon id="fd" data-name="_x33_" points="12.55 22.21 12.55 26.09 16.66 27.7 16.66 23.84 12.55 22.21" fill="#797979"/>
      <polygon id="fe" data-name="_x32_" points="21.46 22.04 21.46 25.89 16.66 27.7 16.66 23.84 21.46 22.04" fill="#e1e1e1"/>
      <path id="ff" data-name="_x31_" d="M12.52,22.21l4.13,1.63,4.8-1.8-4.11-1.63-4.82,1.8Z" fill="#f1f0f0"/>
    </g>
    <g>
      <g id="fg" data-name="_x34_">
        <polygon points="12.52 17.77 17.35 15.97 21.46 17.59 21.46 21.45 16.66 23.25 12.55 21.64 12.55 17.78 12.52 17.77" fill="#323232"/>
        <path d="M16.51,23.51l-4.11-1.6c-.12-.05-.2-.15-.2-.26v-3.76s-.03-.08-.03-.12c0-.11.08-.22.21-.26l4.82-1.8c.09-.04.2-.03.3,0l4.11,1.63c.12.05.2.15.2.26v3.85c0,.11-.08.22-.21.27l-4.8,1.8s-.1.03-.14.03-.1,0-.15-.03ZM21.11,17.78l-3.76-1.49-4.44,1.66v3.51s3.76,1.47,3.76,1.47l4.45-1.67v-3.48Z" stroke="#000" stroke-miterlimit="10" stroke-width=".25"/>
      </g>
      <polygon id="fh" data-name="_x33_" points="12.55 17.77 12.55 21.64 16.66 23.25 16.66 19.39 12.55 17.77" fill="#797979"/>
      <polygon id="fi" data-name="_x32_" points="21.46 17.59 21.46 21.45 16.66 23.25 16.66 19.39 21.46 17.59" fill="#e1e1e1"/>
      <path id="fj" data-name="_x31_" d="M12.52,17.77l4.13,1.63,4.8-1.8-4.11-1.63-4.82,1.8Z" fill="#f1f0f0"/>
    </g>
    <g>
      <g id="fk" data-name="_x34_">
        <polygon points="12.52 13.29 17.35 11.49 21.46 13.11 21.46 16.97 16.66 18.77 12.55 17.16 12.55 13.3 12.52 13.29" fill="#323232"/>
        <path d="M16.51,19.03l-4.11-1.6c-.12-.05-.2-.15-.2-.26v-3.76s-.03-.08-.03-.12c0-.11.08-.22.21-.26l4.82-1.8c.09-.04.2-.03.3,0l4.11,1.63c.12.05.2.15.2.26v3.85c0,.11-.08.22-.21.27l-4.8,1.8s-.1.03-.14.03-.1,0-.15-.03ZM21.11,13.3l-3.76-1.49-4.44,1.66v3.51s3.76,1.47,3.76,1.47l4.45-1.67v-3.48Z" stroke="#000" stroke-miterlimit="10" stroke-width=".25"/>
      </g>
      <polygon id="fl" data-name="_x33_" points="12.55 13.29 12.55 17.16 16.66 18.77 16.66 14.91 12.55 13.29" fill="#797979"/>
      <polygon id="fm" data-name="_x32_" points="21.46 13.11 21.46 16.97 16.66 18.77 16.66 14.91 21.46 13.11" fill="#e1e1e1"/>
      <path id="fn" data-name="_x31_" d="M12.52,13.29l4.13,1.63,4.8-1.8-4.11-1.63-4.82,1.8Z" fill="#f1f0f0"/>
    </g>
    <g>
      <g id="fo" data-name="_x34_">
        <polygon points="17.67 28.8 22.49 27 26.61 28.63 26.61 32.5 21.81 34.3 17.7 32.7 17.7 28.81 17.67 28.8" fill="#323232"/>
        <path d="M21.66,34.57l-4.11-1.61c-.12-.05-.2-.15-.2-.26v-3.78s-.03-.08-.03-.12c0-.11.08-.21.21-.26l4.82-1.8c.09-.04.2-.03.3,0l4.11,1.63c.12.05.2.15.2.26v3.87c0,.11-.08.22-.21.27l-4.8,1.8s-.1.03-.14.03-.1,0-.15-.03ZM26.25,28.81l-3.76-1.49-4.44,1.66v3.53s3.76,1.47,3.76,1.47l4.45-1.67v-3.5Z" stroke="#000" stroke-miterlimit="10" stroke-width=".25"/>
      </g>
      <polygon id="fp" data-name="_x33_" points="17.7 28.8 17.7 32.7 21.81 34.3 21.81 30.44 17.7 28.8" fill="#797979"/>
      <polygon id="fq" data-name="_x32_" points="26.61 28.63 26.61 32.5 21.81 34.3 21.81 30.44 26.61 28.63" fill="#e1e1e1"/>
      <path id="fr" data-name="_x31_" d="M17.67,28.8l4.13,1.63,4.8-1.81-4.11-1.63-4.82,1.8Z" fill="#f1f0f0"/>
    </g>
    <g>
      <g id="fs" data-name="_x34_">
        <polygon points="17.67 24.32 22.49 22.53 26.61 24.15 26.61 28.01 21.81 29.81 17.7 28.2 17.7 24.34 17.67 24.32" fill="#323232"/>
        <path d="M21.66,30.07l-4.11-1.61c-.12-.05-.2-.15-.2-.26v-3.76s-.03-.08-.03-.12c0-.11.08-.22.21-.26l4.82-1.8c.09-.04.2-.03.29,0l4.11,1.63c.12.05.2.15.2.26v3.85c0,.11-.08.22-.21.27l-4.8,1.8s-.1.03-.14.03-.1,0-.15-.03ZM26.25,24.34l-3.76-1.49-4.44,1.66v3.51s3.76,1.47,3.76,1.47l4.45-1.67v-3.48Z" stroke="#000" stroke-miterlimit="10" stroke-width=".25"/>
      </g>
      <polygon id="ft" data-name="_x33_" points="17.7 24.32 17.7 28.2 21.81 29.81 21.81 25.95 17.7 24.32" fill="#797979"/>
      <polygon id="fu" data-name="_x32_" points="26.61 24.15 26.61 28.01 21.81 29.81 21.81 25.95 26.61 24.15" fill="#e1e1e1"/>
      <path id="fv" data-name="_x31_" d="M17.67,24.32l4.13,1.63,4.8-1.8-4.11-1.63-4.82,1.8Z" fill="#f1f0f0"/>
    </g>
    <g>
      <g id="fw" data-name="_x34_">
        <polygon points="17.67 19.88 22.49 18.08 26.61 19.71 26.61 23.56 21.81 25.36 17.7 23.76 17.7 19.89 17.67 19.88" fill="#323232"/>
        <path d="M21.66,25.62l-4.11-1.6c-.12-.05-.2-.15-.2-.26v-3.76s-.03-.08-.03-.12c0-.11.08-.22.21-.26l4.82-1.8c.09-.04.2-.03.3,0l4.11,1.63c.12.05.2.15.2.26v3.85c0,.11-.08.22-.21.27l-4.8,1.8s-.1.03-.14.03-.1,0-.15-.03ZM26.25,19.89l-3.76-1.49-4.44,1.66v3.51s3.76,1.47,3.76,1.47l4.45-1.67v-3.48Z" stroke="#000" stroke-miterlimit="10" stroke-width=".25"/>
      </g>
      <polygon id="fx" data-name="_x33_" points="17.7 19.88 17.7 23.76 21.81 25.36 21.81 21.51 17.7 19.88" fill="#797979"/>
      <polygon id="fy" data-name="_x32_" points="26.61 19.71 26.61 23.56 21.81 25.36 21.81 21.51 26.61 19.71" fill="#e1e1e1"/>
      <path id="fz" data-name="_x31_" d="M17.67,19.88l4.13,1.63,4.8-1.8-4.11-1.63-4.82,1.8Z" fill="#f1f0f0"/>
    </g>
    <g>
      <g id="ga" data-name="_x34_">
        <polygon points="17.67 15.4 22.49 13.6 26.61 15.23 26.61 19.08 21.81 20.88 17.7 19.28 17.7 15.41 17.67 15.4" fill="#323232"/>
        <path d="M21.66,21.14l-4.11-1.6c-.12-.05-.2-.15-.2-.26v-3.76s-.03-.08-.03-.12c0-.11.08-.22.21-.26l4.82-1.8c.09-.04.2-.03.3,0l4.11,1.63c.12.05.2.15.2.26v3.85c0,.11-.08.22-.21.27l-4.8,1.8s-.1.03-.14.03-.1,0-.15-.03ZM26.25,15.41l-3.76-1.49-4.44,1.66v3.51s3.76,1.47,3.76,1.47l4.45-1.67v-3.48Z" stroke="#000" stroke-miterlimit="10" stroke-width=".25"/>
      </g>
      <polygon id="gb" data-name="_x33_" points="17.7 15.4 17.7 19.28 21.81 20.88 21.81 17.03 17.7 15.4" fill="#797979"/>
      <polygon id="gc" data-name="_x32_" points="26.61 15.23 26.61 19.08 21.81 20.88 21.81 17.03 26.61 15.23" fill="#e1e1e1"/>
      <path id="gd" data-name="_x31_" d="M17.67,15.4l4.13,1.63,4.8-1.8-4.11-1.63-4.82,1.8Z" fill="#f1f0f0"/>
    </g>
    <g>
      <g id="ge" data-name="_x34_">
        <polygon points="22.6 30.91 27.42 29.11 31.53 30.74 31.53 34.61 26.73 36.42 22.63 34.81 22.63 30.93 22.6 30.91" fill="#323232"/>
        <path d="M26.58,36.68l-4.11-1.61c-.12-.05-.2-.15-.2-.26v-3.78s-.03-.08-.03-.12c0-.11.08-.21.21-.26l4.82-1.8c.09-.04.2-.03.3,0l4.11,1.63c.12.05.2.15.2.26v3.87c0,.11-.08.22-.21.27l-4.8,1.8s-.1.03-.14.03-.1,0-.15-.03ZM31.18,30.93l-3.76-1.49-4.44,1.66v3.53s3.76,1.47,3.76,1.47l4.45-1.67v-3.5Z" stroke="#000" stroke-miterlimit="10" stroke-width=".25"/>
      </g>
      <polygon id="gf" data-name="_x33_" points="22.63 30.91 22.63 34.81 26.73 36.42 26.73 32.55 22.63 30.91" fill="#797979"/>
      <polygon id="gg" data-name="_x32_" points="31.53 30.74 31.53 34.61 26.73 36.42 26.73 32.55 31.53 30.74" fill="#e1e1e1"/>
      <path id="gh" data-name="_x31_" d="M22.6,30.91l4.13,1.63,4.8-1.81-4.11-1.63-4.82,1.8Z" fill="#f1f0f0"/>
    </g>
    <g>
      <g id="gi" data-name="_x34_">
        <polygon points="22.6 26.44 27.42 24.64 31.53 26.27 31.53 30.12 26.73 31.92 22.63 30.31 22.63 26.45 22.6 26.44" fill="#323232"/>
        <path d="M26.58,32.19l-4.11-1.61c-.12-.05-.2-.15-.2-.26v-3.76s-.03-.08-.03-.12c0-.11.08-.22.21-.26l4.82-1.8c.09-.04.2-.03.29,0l4.11,1.63c.12.05.2.15.2.26v3.85c0,.11-.08.22-.21.27l-4.8,1.8s-.1.03-.14.03-.1,0-.15-.03ZM31.18,26.45l-3.76-1.49-4.44,1.66v3.51s3.76,1.47,3.76,1.47l4.45-1.67v-3.48Z" stroke="#000" stroke-miterlimit="10" stroke-width=".25"/>
      </g>
      <polygon id="gj" data-name="_x33_" points="22.63 26.44 22.63 30.31 26.73 31.92 26.73 28.07 22.63 26.44" fill="#797979"/>
      <polygon id="gk" data-name="_x32_" points="31.53 26.27 31.53 30.12 26.73 31.92 26.73 28.07 31.53 26.27" fill="#e1e1e1"/>
      <path id="gl" data-name="_x31_" d="M22.6,26.44l4.13,1.63,4.8-1.8-4.11-1.63-4.82,1.8Z" fill="#f1f0f0"/>
    </g>
    <g>
      <g id="gm" data-name="_x34_">
        <polygon points="22.6 21.99 27.42 20.19 31.53 21.82 31.53 25.67 26.73 27.47 22.63 25.87 22.63 22 22.6 21.99" fill="#323232"/>
        <path d="M26.58,27.74l-4.11-1.6c-.12-.05-.2-.15-.2-.26v-3.76s-.03-.08-.03-.12c0-.11.08-.22.21-.26l4.82-1.8c.09-.04.2-.03.3,0l4.11,1.63c.12.05.2.15.2.26v3.85c0,.11-.08.22-.21.27l-4.8,1.8s-.1.03-.14.03-.1,0-.15-.03ZM31.18,22l-3.76-1.49-4.44,1.66v3.51s3.76,1.47,3.76,1.47l4.45-1.67v-3.48Z" stroke="#000" stroke-miterlimit="10" stroke-width=".25"/>
      </g>
      <polygon id="gn" data-name="_x33_" points="22.63 21.99 22.63 25.87 26.73 27.47 26.73 23.62 22.63 21.99" fill="#797979"/>
      <polygon id="go" data-name="_x32_" points="31.53 21.82 31.53 25.67 26.73 27.47 26.73 23.62 31.53 21.82" fill="#e1e1e1"/>
      <path id="gp" data-name="_x31_" d="M22.6,21.99l4.13,1.63,4.8-1.8-4.11-1.63-4.82,1.8Z" fill="#f1f0f0"/>
    </g>
    <g>
      <g id="gq" data-name="_x34_">
        <polygon points="22.6 17.51 27.42 15.71 31.53 17.34 31.53 21.19 26.73 22.99 22.63 21.39 22.63 17.52 22.6 17.51" fill="#323232"/>
        <path d="M26.58,23.26l-4.11-1.6c-.12-.05-.2-.15-.2-.26v-3.76s-.03-.08-.03-.12c0-.11.08-.22.21-.26l4.82-1.8c.09-.04.2-.03.3,0l4.11,1.63c.12.05.2.15.2.26v3.85c0,.11-.08.22-.21.27l-4.8,1.8s-.1.03-.14.03-.1,0-.15-.03ZM31.18,17.52l-3.76-1.49-4.44,1.66v3.51s3.76,1.47,3.76,1.47l4.45-1.67v-3.48Z" stroke="#000" stroke-miterlimit="10" stroke-width=".25"/>
      </g>
      <polygon id="gr" data-name="_x33_" points="22.63 17.51 22.63 21.39 26.73 22.99 26.73 19.14 22.63 17.51" fill="#797979"/>
      <polygon id="gs" data-name="_x32_" points="31.53 17.34 31.53 21.19 26.73 22.99 26.73 19.14 31.53 17.34" fill="#e1e1e1"/>
      <path id="gt" data-name="_x31_" d="M22.6,17.51l4.13,1.63,4.8-1.8-4.11-1.63-4.82,1.8Z" fill="#f1f0f0"/>
    </g>
  </g>
  <g id="gu" data-name="Prog">
    <polygon points="54.5 31.5 54.5 29.5 52.5 29.5 52.5 31.5 46.5 31.5 46.5 29.5 44.5 29.5 44.5 31.5 38.5 31.5 38.5 29.5 36.5 29.5 36.5 31.5 33.5 31.5 33.5 35.5 33.5 36 33.5 51.5 57.5 51.5 57.5 36 57.5 35.5 57.5 31.5 54.5 31.5" fill="#fff" opacity=".5" stroke="#fff" stroke-linejoin="round" stroke-width="3"/>
    <rect x="33.5" y="35.5" width="24" height="16" fill="url(#h)" stroke="#787878" stroke-linejoin="round"/>
    <rect x="33.5" y="31.5" width="24" height="4" fill="url(#gv)" stroke="#003755" stroke-linejoin="round"/>
    <path d="M35,37v13h21v-13h-21ZM39,49h-3v-3h3v3ZM39,45h-3v-3h3v3ZM39,41h-3v-3h3v3ZM43,49h-3v-3h3v3ZM43,45h-3v-3h3v3ZM43,41h-3v-3h3v3ZM47,49h-3v-3h3v3ZM47,45h-3v-3h3v3ZM47,41h-3v-3h3v3ZM51,49h-3v-3h3v3ZM51,45h-3v-3h3v3ZM51,41h-3v-3h3v3ZM55,49h-3v-3h3v3ZM55,45h-3v-3h3v3ZM55,41h-3v-3h3v3Z" fill="#646464" opacity=".5"/>
    <rect x="36.5" y="29.5" width="2" height="4" fill="url(#gw)" stroke="#787878" stroke-linejoin="round"/>
    <rect x="44.5" y="29.5" width="2" height="4" fill="url(#gx)" stroke="#787878" stroke-linejoin="round"/>
    <rect x="52.5" y="29.5" width="2" height="4" fill="url(#gy)" stroke="#787878" stroke-linejoin="round"/>
    <polyline points="38.5 32 38.5 29.5 36.5 29.5 36.5 32" fill="none" stroke="#323232" stroke-linejoin="round"/>
    <polyline points="46.5 32 46.5 29.5 44.5 29.5 44.5 32" fill="none" stroke="#323232" stroke-linejoin="round"/>
    <polyline points="54.5 32 54.5 29.5 52.5 29.5 52.5 32" fill="none" stroke="#323232" stroke-linejoin="round"/>
    <polyline points="33.5 36 33.5 51.5 57.5 51.5 57.5 36" fill="none" stroke="#323232" stroke-linejoin="round"/>
    <path d="M42.44,49.5c-.46-4.17-3.77-7.48-7.94-7.94v2.02c-.33-.05-.66-.08-1-.08-3.87,0-7,3.13-7,7s3.13,7,7,7,7-3.13,7-7c0-.34-.03-.67-.08-1h2.02Z" fill="#fff" opacity=".5" stroke="#fff" stroke-linejoin="round" stroke-width="3"/>
    <path d="M34.5,43.58c-.33-.05-.66-.08-1-.08-3.87,0-7,3.13-7,7s3.13,7,7,7,7-3.13,7-7c0-.34-.03-.67-.08-1h-5.92v-5.92Z" fill="url(#e)" stroke="#323232" stroke-linejoin="round"/>
    <path d="M34.5,49.5h7.94c-.46-4.17-3.77-7.48-7.94-7.94v7.94Z" fill="url(#a)" stroke="#003755" stroke-linejoin="round"/>
    <g>
      <path d="M44,50.5h1c.28,0,.5.22.5.5v6.5h-2v-6.5c0-.28.22-.5.5-.5Z" fill="#fff" opacity=".5" stroke="#fff" stroke-linejoin="round" stroke-width="3"/>
      <path d="M48,47.5h1c.28,0,.5.22.5.5v9.5h-2v-9.5c0-.28.22-.5.5-.5Z" fill="#fff" opacity=".5" stroke="#fff" stroke-linejoin="round" stroke-width="3"/>
      <path d="M56,48.5h1c.28,0,.5.22.5.5v8.5h-2v-8.5c0-.28.22-.5.5-.5Z" fill="#fff" opacity=".5" stroke="#fff" stroke-linejoin="round" stroke-width="3"/>
      <path d="M52,45.5h1c.28,0,.5.22.5.5v11.5h-2v-11.5c0-.28.22-.5.5-.5Z" fill="#fff" opacity=".5" stroke="#fff" stroke-linejoin="round" stroke-width="3"/>
      <path d="M44,50.5h1c.28,0,.5.22.5.5v6.5h-2v-6.5c0-.28.22-.5.5-.5Z" fill="url(#gz)" stroke="#323232" stroke-linejoin="round"/>
      <path d="M48,47.5h1c.28,0,.5.22.5.5v9.5h-2v-9.5c0-.28.22-.5.5-.5Z" fill="url(#ha)" stroke="#323232" stroke-linejoin="round"/>
      <path d="M56,48.5h1c.28,0,.5.22.5.5v8.5h-2v-8.5c0-.28.22-.5.5-.5Z" fill="url(#hb)" stroke="#323232" stroke-linejoin="round"/>
      <path d="M52,45.5h1c.28,0,.5.22.5.5v11.5h-2v-11.5c0-.28.22-.5.5-.5Z" fill="url(#hc)" stroke="#003755" stroke-linejoin="round"/>
    </g>
  </g>
</svg>