<?xml version="1.0" encoding="UTF-8"?>
<svg id="m" data-name="Calque 1" xmlns="http://www.w3.org/2000/svg" xmlns:xlink="http://www.w3.org/1999/xlink" viewBox="0 0 64 64">
  <defs>
    <linearGradient id="a" x1="50.25" y1="36.97" x2="53.75" y2="43.03" gradientUnits="userSpaceOnUse">
      <stop offset="0" stop-color="#a0e1fa"/>
      <stop offset="1" stop-color="#73c3e1"/>
    </linearGradient>
    <linearGradient id="c" x1="30" y1="48" x2="36" y2="48" gradientUnits="userSpaceOnUse">
      <stop offset="0" stop-color="#464646"/>
      <stop offset="1" stop-color="#141414"/>
    </linearGradient>
    <linearGradient id="h" x1="21.85" y1="14.07" x2="39.91" y2="45.35" gradientUnits="userSpaceOnUse">
      <stop offset="0" stop-color="#d7d7d7"/>
      <stop offset="1" stop-color="#969696"/>
    </linearGradient>
    <linearGradient id="k" x1="23.46" y1="15.81" x2="41.1" y2="46.36" gradientUnits="userSpaceOnUse">
      <stop offset="0" stop-color="#fff"/>
      <stop offset="1" stop-color="#d2d2d2"/>
    </linearGradient>
    <linearGradient id="n" x1="20.63" y1="12.31" x2="43.37" y2="51.69" gradientUnits="userSpaceOnUse">
      <stop offset="0" stop-color="#3287af"/>
      <stop offset="1" stop-color="#285a78"/>
    </linearGradient>
    <linearGradient id="o" data-name="Dégradé sans nom 12" x1="35.64" y1="13.63" x2="13.92" y2="46.57" gradientUnits="userSpaceOnUse">
      <stop offset="0" stop-color="#fff" stop-opacity="0"/>
      <stop offset=".01" stop-color="#fff" stop-opacity=".05"/>
      <stop offset=".07" stop-color="#fff" stop-opacity=".27"/>
      <stop offset=".13" stop-color="#fff" stop-opacity=".47"/>
      <stop offset=".18" stop-color="#fff" stop-opacity=".63"/>
      <stop offset=".24" stop-color="#fff" stop-opacity=".76"/>
      <stop offset=".3" stop-color="#fff" stop-opacity=".87"/>
      <stop offset=".36" stop-color="#fff" stop-opacity=".94"/>
      <stop offset=".42" stop-color="#fff" stop-opacity=".99"/>
      <stop offset=".49" stop-color="#fff"/>
      <stop offset=".54" stop-color="#fff" stop-opacity=".98"/>
      <stop offset=".61" stop-color="#fff" stop-opacity=".93"/>
      <stop offset=".68" stop-color="#fff" stop-opacity=".83"/>
      <stop offset=".75" stop-color="#fff" stop-opacity=".7"/>
      <stop offset=".82" stop-color="#fff" stop-opacity=".54"/>
      <stop offset=".89" stop-color="#fff" stop-opacity=".33"/>
      <stop offset=".97" stop-color="#fff" stop-opacity=".1"/>
      <stop offset="1" stop-color="#fff" stop-opacity="0"/>
    </linearGradient>
    <linearGradient id="p" data-name="Dégradé sans nom 3" x1="36.68" y1="47.75" x2="48.66" y2="47.75" gradientUnits="userSpaceOnUse">
      <stop offset="0" stop-color="#376e8c"/>
      <stop offset=".36" stop-color="#8cd7f5"/>
      <stop offset="1" stop-color="#376e8c"/>
    </linearGradient>
    <linearGradient id="q" data-name="Dégradé sans nom 4" x1="36.52" y1="44.75" x2="48.93" y2="44.75" gradientUnits="userSpaceOnUse">
      <stop offset="0" stop-color="#376e8c"/>
      <stop offset=".28" stop-color="#8cd7f5"/>
      <stop offset=".33" stop-color="#80c8e6"/>
      <stop offset=".45" stop-color="#65a7c5"/>
      <stop offset=".58" stop-color="#518eac"/>
      <stop offset=".71" stop-color="#427c9a"/>
      <stop offset=".84" stop-color="#39718f"/>
      <stop offset="1" stop-color="#376e8c"/>
    </linearGradient>
    <linearGradient id="r" data-name="Dégradé sans nom 3" y1="41.75" y2="41.75" xlink:href="#p"/>
    <linearGradient id="s" data-name="Dégradé sans nom 13" x1="36.68" y1="38.75" x2="48.66" y2="38.75" gradientUnits="userSpaceOnUse">
      <stop offset="0" stop-color="#376e8c"/>
      <stop offset=".36" stop-color="#8cd7f5"/>
      <stop offset=".37" stop-color="#87d1ef"/>
      <stop offset=".5" stop-color="#6aaecc"/>
      <stop offset=".62" stop-color="#5491af"/>
      <stop offset=".75" stop-color="#437d9b"/>
      <stop offset=".87" stop-color="#3a718f"/>
      <stop offset="1" stop-color="#376e8c"/>
    </linearGradient>
    <linearGradient id="t" data-name="Dégradé sans nom 3" y1="35.75" y2="35.75" xlink:href="#p"/>
    <linearGradient id="u" x1="42.25" y1="29.97" x2="45.75" y2="36.03" xlink:href="#a"/>
    <linearGradient id="v" x1="43.13" y1="31.5" x2="44.87" y2="34.5" xlink:href="#n"/>
    <linearGradient id="w" data-name="Dégradé sans nom 6" x1="44.4" y1="51.75" x2="56.81" y2="51.75" gradientUnits="userSpaceOnUse">
      <stop offset="0" stop-color="#376e8c"/>
      <stop offset=".35" stop-color="#8cd7f5"/>
      <stop offset="1" stop-color="#376e8c"/>
    </linearGradient>
    <linearGradient id="x" data-name="Dégradé sans nom 8" x1="44.4" y1="48.75" x2="56.81" y2="48.75" gradientUnits="userSpaceOnUse">
      <stop offset="0" stop-color="#376e8c"/>
      <stop offset=".07" stop-color="#8cd7f5"/>
      <stop offset=".6" stop-color="#376e8c"/>
    </linearGradient>
    <linearGradient id="y" data-name="Dégradé sans nom 6" y1="45.75" y2="45.75" xlink:href="#w"/>
    <linearGradient id="z" data-name="Dégradé sans nom 6" y1="42.75" y2="42.75" xlink:href="#w"/>
    <linearGradient id="aa" data-name="Dégradé sans nom 3" x1="28.08" y1="50.75" x2="38.01" y2="50.75" xlink:href="#p"/>
    <linearGradient id="ab" x1="31.25" y1="44.97" x2="34.75" y2="51.03" xlink:href="#a"/>
    <linearGradient id="ac" data-name="Dégradé sans nom 3" x1="35.47" y1="54.75" x2="45.4" y2="54.75" xlink:href="#p"/>
    <linearGradient id="ad" data-name="Dégradé sans nom 11" x1="34.53" y1="51.75" x2="44.46" y2="51.75" gradientUnits="userSpaceOnUse">
      <stop offset="0" stop-color="#376e8c"/>
      <stop offset=".36" stop-color="#8cd7f5"/>
      <stop offset=".38" stop-color="#86d0ee"/>
      <stop offset=".58" stop-color="#64a6c4"/>
      <stop offset=".75" stop-color="#4b87a5"/>
      <stop offset=".9" stop-color="#3c7492"/>
      <stop offset="1" stop-color="#376e8c"/>
    </linearGradient>
    <linearGradient id="ae" data-name="Dégradé sans nom 10" x1="34.69" y1="48.75" x2="48.47" y2="48.75" gradientUnits="userSpaceOnUse">
      <stop offset=".1" stop-color="#376e8c"/>
      <stop offset=".55" stop-color="#8cd7f5"/>
      <stop offset=".73" stop-color="#65a7c5"/>
      <stop offset=".91" stop-color="#447e9c"/>
      <stop offset="1" stop-color="#376e8c"/>
    </linearGradient>
    <linearGradient id="af" x1="41.25" y1="42.97" x2="44.75" y2="49.03" xlink:href="#a"/>
    <linearGradient id="ag" x1="42.13" y1="44.5" x2="43.87" y2="47.5" xlink:href="#n"/>
  </defs>
  <path d="M50.9,46.19l-15.95,9.01c-1.83,1.04-4.07,1.04-5.91,0l-15.95-9.01c-1.92-1.08-3.1-3.1-3.1-5.29v-17.79c0-2.19,1.18-4.21,3.1-5.29l15.95-9.01c1.83-1.04,4.07-1.04,5.91,0l15.95,9.01c1.92,1.08,3.1,3.1,3.1,5.29v17.79c0,2.19-1.18,4.21-3.1,5.29Z" fill="none" stroke="url(#n)" stroke-miterlimit="10" stroke-width="2"/>
  <path d="M32,10.02c-.68,0-1.36.17-1.97.51l-15.95,9.01c-1.29.73-2.08,2.09-2.08,3.55v17.79c0,1.46.8,2.82,2.08,3.55l15.95,9.01c1.21.69,2.72.69,3.94,0l15.95-9.01c1.29-.73,2.08-2.09,2.08-3.55v-17.79c0-1.46-.8-2.82-2.08-3.55l-15.95-9.01c-.61-.34-1.29-.51-1.97-.51Z" fill="#fff" opacity=".3"/>
  <g>
    <path d="M49.12,12.67v-.02s-2.5-1.49-2.5-1.49h-.01c-.63-.36-1.42-.5-2.29-.3l-27.73,6.43c-1.7.39-3.1,2.15-3.1,3.9v26.1c0,.97.33,1.75.86,2.28v.02s1.99,2.02,1.99,2.02h.02c.73.72,1.85.98,3.11.55l28.32-9.71c1.49-.51,2.7-2.21,2.7-3.78V15.26c0-1.18-.54-2.1-1.38-2.6Z" fill="#fff" opacity=".5" stroke="#fff" stroke-linejoin="round" stroke-width="3"/>
    <path d="M49.12,12.64l-2.5-1.49h-.01c-.63-.36-1.42-.5-2.29-.3l-27.73,6.43c-1.7.39-3.1,2.15-3.1,3.9v26.1c0,.97.33,1.75.86,2.28v.02s1.99,2.02,1.99,2.02l29.87-9.99c1.96-.66,3.27-2.5,3.24-4.57l-.33-24.39Z" fill="url(#h)" stroke="#787878" stroke-linejoin="round"/>
    <path d="M50.5,15.26v23.38c0,1.57-1.22,3.27-2.7,3.78l-28.32,9.71c-2.19.75-3.97-.53-3.97-2.84v-26.61c0-1.75,1.4-3.51,3.11-3.9l28.22-6.45c2.02-.46,3.67.85,3.67,2.92Z" fill="url(#k)" stroke="#787878" stroke-linejoin="round"/>
    <g>
      <g>
        <path d="M21,42.03v6.32l-1.96.65h-.04v-6.97c0-.41.32-.84.71-.96h0c.71-.22,1.29.21,1.29.96Z" fill="#646464" opacity=".5"/>
        <path d="M24,38.26v9.09l-2,.67v-9.76c0-.41.32-.84.72-.96h0c.71-.21,1.28.22,1.28.96Z" fill="#646464" opacity=".5"/>
        <path d="M27,34.54v11.82l-2,.66v-12.48c0-.41.32-.85.72-.96h0c.7-.2,1.28.23,1.28.96Z" fill="#646464" opacity=".5"/>
        <path d="M30,39.28v6.08l-2,.67v-6.75c0-.41.32-.84.71-.96h0c.71-.22,1.29.21,1.29.96Z" fill="#646464" opacity=".5"/>
        <path d="M33,40.5v3.87l-2,.66v-4.53c0-.4.31-.83.7-.95h0c.72-.23,1.3.2,1.3.95Z" fill="#646464" opacity=".5"/>
      </g>
      <path d="M49,28l-7.02,3.18,2.8,1.53-1.71,3.42-3.59-1.99c-.24-.13-.52-.16-.78-.08-.26.08-.48.26-.6.51l-3.11,6.21v2.94l.92-.3,3.51-7.02,3.59,1.99c.24.13.52.16.78.08.26-.08.48-.26.6-.51l2.14-4.29,2.46,1.34v-7Z" fill="#646464" opacity=".5"/>
      <g>
        <path d="M18.5,32.5c1-2,2.75-8.61,5.25-9.25s2.75,6.88,5.25,6.25,3.5-9,3.5-9" fill="none" opacity=".5" stroke="#646464" stroke-miterlimit="10"/>
        <path d="M18.5,29c1-1,2-2.22,4.5-2.86s3.5,1.63,6,1,3.5-2.13,3.5-2.13" fill="none" opacity=".5" stroke="#646464" stroke-linecap="round" stroke-miterlimit="10"/>
      </g>
      <g>
        <path d="M48,20.71v.32c0,3.22-2.53,6.55-5.64,7.42l-.25.07s-.09.02-.13.03c-.48.12-.95.19-1.42.19-2.67,0-4.6-2.06-4.6-4.9v-.33c0-3.35,2.65-6.71,5.9-7.49l.12-.02v6.27l6.02-1.56Z" fill="#646464" opacity=".5"/>
        <path d="M49,19.71l-6.02,1.56v-6.27h.03c.45-.12.9-.17,1.33-.17,2.7,0,4.66,2.05,4.66,4.88Z" fill="#646464" opacity=".5"/>
      </g>
    </g>
    <path d="M17,50.3v-26.61c0-1.51,1.25-3.08,2.72-3.41l28.22-6.45c.23-.05.46-.08.68-.08.39,0,.75.09,1.08.25-.15-.29-.34-.55-.59-.75-.41-.33-.92-.5-1.48-.5-.22,0-.45.03-.68.08l-28.22,6.45c-1.47.34-2.72,1.9-2.72,3.41v26.61c0,.95.34,1.72.96,2.16.1.07.21.12.32.17-.18-.38-.28-.83-.28-1.33Z" fill="url(#o)"/>
    <path d="M49.12,12.67v-.02s-2.5-1.49-2.5-1.49h-.01c-.63-.36-1.42-.5-2.29-.3l-27.73,6.43c-1.7.39-3.1,2.15-3.1,3.9v26.1c0,.97.33,1.75.86,2.28v.02s1.99,2.02,1.99,2.02h.02c.73.72,1.85.98,3.11.55l28.32-9.71c1.49-.51,2.7-2.21,2.7-3.78V15.26c0-1.18-.54-2.1-1.38-2.6Z" fill="none" stroke="#323232" stroke-linejoin="round"/>
  </g>
  <g>
    <path d="M33,45.5c1.86,0,3.5.42,4.5,1.07,0-.15,0-.68,0-.57,0-.53.37-1.03,1-1.43,0-.18,0-12.34,0-11.57,0-1.38,2.46-2.5,5.5-2.5s5.5,1.12,5.5,2.5c0,.1,0,4.88,0,4.78.75-.17,1.6-.28,2.5-.28,3.04,0,5.5,1.12,5.5,2.5,0,.44,0,12.68,0,12,0,1.38-2.46,2.5-5.5,2.5-1.33,0-2.55-.21-3.5-.57v1.07c0,1.38-2.46,2.5-5.5,2.5s-5.5-1.12-5.5-2.5v-2.57c-1,.64-2.64,1.07-4.5,1.07-3.04,0-5.5-1.12-5.5-2.5v-3c0-1.38,2.46-2.5,5.5-2.5Z" fill="#fff" opacity=".75" stroke="#fff" stroke-linejoin="round" stroke-width="3"/>
    <g>
      <path d="M38.5,45v3c0,1.38,2.46,2.5,5.5,2.5s5.5-1.12,5.5-2.5v-3h-11Z" fill="url(#p)" stroke="#003755" stroke-linejoin="round"/>
      <path d="M38.5,42v3c0,1.38,2.46,2.5,5.5,2.5s5.5-1.12,5.5-2.5v-3h-11Z" fill="url(#q)" stroke="#003755" stroke-linejoin="round"/>
      <path d="M38.5,39v3c0,1.38,2.46,2.5,5.5,2.5s5.5-1.12,5.5-2.5v-3h-11Z" fill="url(#r)" stroke="#003755" stroke-linejoin="round"/>
      <path d="M38.5,36v3c0,1.38,2.46,2.5,5.5,2.5s5.5-1.12,5.5-2.5v-3h-11Z" fill="url(#s)" stroke="#003755" stroke-linejoin="round"/>
      <path d="M38.5,33v3c0,1.38,2.46,2.5,5.5,2.5s5.5-1.12,5.5-2.5v-3h-11Z" fill="url(#t)" stroke="#003755" stroke-linejoin="round"/>
      <ellipse cx="44" cy="33" rx="5.5" ry="2.5" fill="url(#u)" stroke="#003755" stroke-linejoin="round"/>
      <ellipse cx="44" cy="33" rx="3" ry="1" fill="url(#v)"/>
    </g>
    <g>
      <path d="M46.5,49v3c0,1.38,2.46,2.5,5.5,2.5s5.5-1.12,5.5-2.5v-3h-11Z" fill="url(#w)" stroke="#003755" stroke-linejoin="round"/>
      <path d="M46.5,46v3c0,1.38,2.46,2.5,5.5,2.5s5.5-1.12,5.5-2.5v-3h-11Z" fill="url(#x)" stroke="#003755" stroke-linejoin="round"/>
      <path d="M46.5,43v3c0,1.38,2.46,2.5,5.5,2.5s5.5-1.12,5.5-2.5v-3h-11Z" fill="url(#y)" stroke="#003755" stroke-linejoin="round"/>
      <path d="M46.5,40v3c0,1.38,2.46,2.5,5.5,2.5s5.5-1.12,5.5-2.5v-3h-11Z" fill="url(#z)" stroke="#003755" stroke-linejoin="round"/>
      <ellipse cx="52" cy="40" rx="5.5" ry="2.5" fill="url(#a)" stroke="#003755" stroke-linejoin="round"/>
      <ellipse cx="52" cy="40" rx="3" ry="1" fill="#646464" opacity=".5"/>
    </g>
    <g>
      <path d="M27.5,48v3c0,1.38,2.46,2.5,5.5,2.5s5.5-1.12,5.5-2.5v-3h-11Z" fill="url(#aa)" stroke="#003755" stroke-linejoin="round"/>
      <ellipse cx="33" cy="48" rx="5.5" ry="2.5" fill="url(#ab)" stroke="#003755" stroke-linejoin="round"/>
      <ellipse cx="33" cy="48" rx="3" ry="1" fill="url(#c)"/>
    </g>
    <g>
      <path d="M37.5,52v3c0,1.38,2.46,2.5,5.5,2.5s5.5-1.12,5.5-2.5v-3h-11Z" fill="url(#ac)" stroke="#003755" stroke-linejoin="round"/>
      <path d="M37.5,49v3c0,1.38,2.46,2.5,5.5,2.5s5.5-1.12,5.5-2.5v-3h-11Z" fill="url(#ad)" stroke="#003755" stroke-linejoin="round"/>
      <path d="M37.5,46v3c0,1.38,2.46,2.5,5.5,2.5s5.5-1.12,5.5-2.5v-3h-11Z" fill="url(#ae)" stroke="#003755" stroke-linejoin="round"/>
      <ellipse cx="43" cy="46" rx="5.5" ry="2.5" fill="url(#af)" stroke="#003755" stroke-linejoin="round"/>
      <ellipse cx="43" cy="46" rx="3" ry="1" fill="url(#ag)"/>
    </g>
  </g>
</svg>