<?xml version="1.0" encoding="UTF-8"?>
<svg id="i" data-name="IT 7" xmlns="http://www.w3.org/2000/svg" xmlns:xlink="http://www.w3.org/1999/xlink" viewBox="0 0 64 64">
  <defs>
    <linearGradient id="a" x1="45.02" y1="41.97" x2="54.19" y2="57.86" gradientUnits="userSpaceOnUse">
      <stop offset="0" stop-color="#8cd7f5"/>
      <stop offset="1" stop-color="#376e8c"/>
    </linearGradient>
    <linearGradient id="d" x1="19.23" y1="35.22" x2="25.62" y2="46.29" gradientUnits="userSpaceOnUse">
      <stop offset="0" stop-color="#aaa"/>
      <stop offset="1" stop-color="#5a5a5a"/>
    </linearGradient>
    <linearGradient id="g" x1="35.04" y1="8.59" x2="49.96" y2="34.42" gradientTransform="translate(12.07 -15.14) rotate(23.45)" gradientUnits="userSpaceOnUse">
      <stop offset="0" stop-color="#fff"/>
      <stop offset="1" stop-color="#d4d5d3"/>
    </linearGradient>
    <linearGradient id="k" data-name="New Gradient Swatch" x1="40.9" y1="24.57" x2="49.84" y2="24.57" gradientUnits="userSpaceOnUse">
      <stop offset="0" stop-color="#fff"/>
      <stop offset=".02" stop-color="#f6f6f7"/>
      <stop offset=".05" stop-color="#dfe0e1"/>
      <stop offset=".09" stop-color="#bcbec0"/>
      <stop offset=".32" stop-color="#f1f2f2"/>
      <stop offset=".54" stop-color="#a7a9ac"/>
      <stop offset=".76" stop-color="#e6e7e8"/>
      <stop offset=".97" stop-color="#bcbec0"/>
    </linearGradient>
    <linearGradient id="l" data-name="New Gradient Swatch copy" x1="43.57" y1="20.7" x2="45.9" y2="24.72" gradientUnits="userSpaceOnUse">
      <stop offset=".04" stop-color="#e6e7e8"/>
      <stop offset=".17" stop-color="#f7f7f8"/>
      <stop offset=".22" stop-color="#fff"/>
      <stop offset=".35" stop-color="#f1f1f2"/>
      <stop offset=".5" stop-color="#e6e7e8"/>
      <stop offset=".61" stop-color="#e9eaeb"/>
      <stop offset=".71" stop-color="#f3f4f4"/>
      <stop offset=".77" stop-color="#fff"/>
      <stop offset=".88" stop-color="#eff0f0"/>
      <stop offset=".97" stop-color="#e6e7e8"/>
    </linearGradient>
    <linearGradient id="m" data-name="New Gradient Swatch" y1="22.11" y2="22.11" xlink:href="#k"/>
    <linearGradient id="n" data-name="New Gradient Swatch copy" x1="43.57" y1="18.23" x2="45.9" y2="22.26" xlink:href="#l"/>
    <linearGradient id="o" data-name="New Gradient Swatch" y1="19.64" y2="19.64" xlink:href="#k"/>
    <linearGradient id="p" data-name="New Gradient Swatch copy" y1="15.77" x2="45.9" y2="19.79" xlink:href="#l"/>
    <linearGradient id="q" data-name="New Gradient Swatch" y1="17.18" y2="17.18" xlink:href="#k"/>
    <linearGradient id="r" data-name="New Gradient Swatch copy" y1="13.3" x2="45.9" y2="17.33" xlink:href="#l"/>
    <linearGradient id="s" data-name="New Gradient Swatch" x1="-105.27" y1="321.91" x2="-97.01" y2="321.91" gradientTransform="translate(-120.27 -272.62) rotate(-45) scale(.96 1)" xlink:href="#k"/>
    <linearGradient id="t" data-name="New Gradient Swatch copy" x1="-102.09" y1="318.34" x2="-99.83" y2="322.25" gradientTransform="translate(152 -291.62) rotate(3.35) scale(.96 1)" xlink:href="#l"/>
    <linearGradient id="v" data-name="Dégradé sans nom 30" x1="25" y1="45.27" x2="25" y2="5.75" gradientUnits="userSpaceOnUse">
      <stop offset=".32" stop-color="#fff" stop-opacity="0"/>
      <stop offset=".42" stop-color="#fff" stop-opacity=".32"/>
      <stop offset=".58" stop-color="#fff" stop-opacity=".81"/>
      <stop offset=".65" stop-color="#fff"/>
      <stop offset="1" stop-color="#fff"/>
    </linearGradient>
    <linearGradient id="w" data-name="Dégradé sans nom 5" x1="24.44" y1="39.39" x2="16.94" y2="15.22" gradientUnits="userSpaceOnUse">
      <stop offset=".21" stop-color="#f5f5f5" stop-opacity=".75"/>
      <stop offset=".35" stop-color="#3287af"/>
      <stop offset=".96" stop-color="#285a78"/>
    </linearGradient>
    <linearGradient id="x" data-name="Dégradé sans nom 14" x1="27.32" y1="13.78" x2="37.65" y2="14.94" gradientUnits="userSpaceOnUse">
      <stop offset="0" stop-color="#285a78"/>
      <stop offset="1" stop-color="#3287af"/>
    </linearGradient>
    <linearGradient id="y" x1="19.22" y1="29.57" x2="20.1" y2="24.88" gradientTransform="translate(0 66) scale(1 -1)" gradientUnits="userSpaceOnUse">
      <stop offset="0" stop-color="#fff"/>
      <stop offset="1" stop-color="#fff" stop-opacity="0"/>
    </linearGradient>
  </defs>
  <g id="j" data-name="Coins">
    <g>
      <path d="m49.7,30.67c-.15.36-.24.73-.25,1.12-.02.39.06.79.21,1.19l.54,1.37c-1.42.85-2.93,1.45-4.55,1.8l-.54-1.37c-.16-.4-.38-.74-.66-1.02-.28-.28-.6-.49-.95-.65-.38-.16-.76-.25-1.15-.27-.39-.02-.78.05-1.15.19-.37.14-.71.35-1.02.62s-.55.62-.73,1.03l-.58,1.35c-.4-.11-.79-.22-1.18-.35-.39-.12-.77-.27-1.15-.43s-.74-.34-1.1-.54c-.36-.2-.71-.41-1.06-.63l.58-1.35c.18-.41.26-.83.25-1.24,0-.42-.09-.81-.24-1.17s-.37-.69-.66-.97c-.29-.28-.61-.5-.97-.65s-.73-.24-1.12-.25c-.39-.02-.79.06-1.19.22l-1.37.54c-.85-1.42-1.45-2.93-1.8-4.55l1.37-.54c.4-.16.74-.38,1.02-.66.28-.28.49-.6.65-.95s.24-.73.26-1.14-.04-.79-.18-1.16c-.14-.37-.35-.71-.62-1.02-.28-.31-.62-.55-1.03-.73l-1.35-.58c.11-.4.22-.8.35-1.19.12-.39.27-.77.43-1.15s.34-.74.54-1.1c.2-.36.41-.71.63-1.06l1.35.58c.41.18.82.26,1.24.26.42,0,.81-.09,1.17-.24.37-.15.69-.37.97-.65.28-.28.5-.61.66-.98s.24-.73.25-1.12-.06-.79-.21-1.19l-.54-1.37c1.42-.85,2.93-1.45,4.55-1.8l.54,1.37c.16.4.38.74.66,1.02.28.28.6.49.95.65s.73.24,1.14.26c.4.02.79-.04,1.16-.18s.71-.34,1.02-.61c.3-.27.55-.62.74-1.05l.58-1.35c.4.11.79.22,1.18.35.39.12.77.27,1.15.43s.74.34,1.1.55c.36.2.71.41,1.06.63l-.58,1.35c-.19.43-.28.85-.27,1.27,0,.42.09.8.25,1.16.16.36.37.68.65.95.28.28.61.5.98.66.34.15.7.23,1.1.26.4.03.8-.04,1.2-.19l1.38-.57c.85,1.42,1.45,2.93,1.8,4.55l-1.37.54c-.4.16-.74.38-1.02.66-.28.28-.49.6-.65.95-.16.37-.25.76-.27,1.15-.02.39.05.78.19,1.15.14.37.34.71.61,1.02.27.3.62.55,1.05.74l1.35.58c-.11.4-.22.8-.35,1.19-.13.39-.27.77-.43,1.15s-.34.74-.54,1.1c-.2.36-.41.71-.63,1.06l-1.35-.58c-.43-.19-.85-.28-1.25-.26-.41.01-.79.1-1.16.25-.37.15-.69.37-.97.66-.28.29-.5.61-.65.97Z" fill="url(#g)" stroke="#323232" stroke-linejoin="round"/>
      <g fill="none" opacity=".2">
        <path d="m36.2,11.24c0,.25-.05.5-.11.75.12-.18.23-.38.32-.58.19-.43.29-.89.31-1.36.02-.48-.07-.97-.26-1.46l-.02-.04c-.28.13-.57.24-.84.39l.33.84c.19.49.28.98.26,1.46Z"/>
        <path d="m54.82,17.89c-.33.33-.6.72-.79,1.15-.09.21-.16.42-.21.63.14-.21.29-.41.48-.59.33-.34.75-.61,1.24-.81l.85-.33c-.08-.3-.19-.59-.28-.88l-.04.02c-.49.19-.91.47-1.24.81Z"/>
        <path d="m55.67,27.05c-.1.19-.21.37-.32.56l-.83-.36c-.52-.23-1.04-.33-1.54-.31-.48.02-.95.12-1.39.3-.45.19-.85.46-1.19.81-.34.34-.6.74-.78,1.16-.09.2-.15.41-.2.62.14-.21.29-.4.47-.59.34-.35.74-.62,1.19-.81.44-.18.9-.28,1.39-.3.5-.02,1.01.09,1.54.31l.83.36c.11-.18.22-.37.32-.56.19-.34.36-.69.51-1.04.09-.2.15-.41.23-.61-.08.15-.14.31-.22.46Z"/>
        <path d="m31.8,21.4c-.01.25-.05.5-.11.74.12-.18.23-.37.31-.57.18-.42.29-.88.31-1.37.02-.49-.05-.97-.22-1.42-.17-.45-.42-.86-.75-1.23-.34-.38-.76-.68-1.26-.89l-.83-.36c.06-.21.12-.41.19-.62.05-.16.12-.32.18-.47-.1.19-.2.39-.29.59-.15.36-.29.72-.41,1.09-.07.2-.13.41-.19.62l.83.36c.5.22.92.52,1.26.89.33.37.58.78.75,1.23.17.45.24.93.22,1.42Z"/>
        <path d="m46.57,34.19l-.33-.84c-.19-.49-.46-.91-.81-1.25-.69-.68-1.62-1.07-2.54-1.1-.48-.02-.95.06-1.4.23-.45.17-.86.42-1.23.75-.38.34-.68.76-.9,1.26l-.36.83c-.21-.06-.41-.12-.61-.19-.74-.24-1.44-.54-2.13-.92-.19-.1-.37-.21-.55-.32l.36-.83c.21-.49.32-1,.31-1.51-.01-.49-.11-.97-.29-1.41-.19-.45-.46-.85-.81-1.19-.69-.67-1.58-1.06-2.52-1.09-.48-.02-.98.07-1.46.26l-.85.33c-.43-.78-.76-1.61-1.03-2.46l-.8.32c.3,1.17.74,2.28,1.32,3.34l.85-.33c.48-.19.98-.28,1.46-.26.94.03,1.83.42,2.52,1.09.35.34.62.74.81,1.19.18.44.28.92.29,1.41.01.51-.09,1.02-.31,1.51l-.36.83c.18.11.37.21.55.32.68.38,1.39.69,2.13.92.2.06.41.13.61.19l.36-.83c.22-.5.52-.92.9-1.26.37-.33.78-.58,1.23-.75.45-.17.93-.25,1.4-.23.92.03,1.85.42,2.54,1.1.34.34.62.76.81,1.25l.33.84c1.17-.3,2.28-.74,3.34-1.32l-.32-.8c-.81.38-1.64.7-2.5.92Z"/>
      </g>
      <g fill="none" opacity=".3">
        <path d="m53.2,21.62c0-.25.05-.5.11-.75-.12.18-.22.37-.31.56-.2.45-.3.92-.32,1.38-.02.48.05.95.22,1.41.17.44.41.85.73,1.22.33.38.76.68,1.28.91l.83.36c-.06.21-.12.41-.19.61-.05.16-.12.32-.18.47.1-.19.2-.39.29-.59.15-.35.29-.72.41-1.09.06-.2.13-.41.19-.61l-.83-.36c-.52-.22-.95-.53-1.28-.91-.32-.36-.57-.77-.73-1.22-.17-.45-.25-.93-.22-1.41Z" fill="#fff"/>
        <path d="m38.43,8.81l.33.84c.19.49.46.91.81,1.25.67.67,1.57,1.05,2.52,1.1.49.02.97-.05,1.43-.22.44-.17.85-.41,1.22-.73.38-.33.68-.76.91-1.28l.36-.83c.2.06.41.12.62.19.74.23,1.44.54,2.13.92.19.1.37.21.55.32l-.36.83c-.23.52-.33,1.04-.32,1.54.01.5.11.98.3,1.41.19.44.46.82.79,1.15.64.63,1.51,1.04,2.5,1.11.5.04,1-.04,1.5-.24l.85-.35c.43.78.76,1.61,1.03,2.45l.8-.32c-.29-1.16-.74-2.28-1.31-3.33l-.85.35c-.5.2-1,.28-1.5.24-.99-.07-1.86-.47-2.5-1.11-.33-.33-.6-.72-.79-1.15-.19-.43-.29-.9-.3-1.41-.01-.5.09-1.02.32-1.54l.36-.83c-.18-.11-.37-.21-.55-.32-.69-.39-1.39-.69-2.13-.92-.21-.07-.41-.13-.62-.19l-.36.83c-.22.52-.53.95-.91,1.28-.36.32-.77.56-1.22.73-.46.17-.94.24-1.43.22-.95-.04-1.85-.43-2.52-1.1-.34-.34-.62-.76-.81-1.25l-.33-.84c-1.17.3-2.28.74-3.34,1.32l.32.8c.81-.38,1.64-.7,2.5-.92Z" fill="#fff"/>
        <path d="m48.8,31.76c0-.25.05-.5.1-.74-.12.18-.23.38-.32.58-.19.43-.29.89-.31,1.36-.02.48.07.97.26,1.46l.02.04c.28-.13.57-.24.84-.39l-.33-.84c-.19-.49-.28-.98-.26-1.46Z" fill="#fff"/>
        <path d="m30.18,25.11c.33-.34.6-.73.78-1.15.09-.2.15-.41.21-.63-.14.21-.29.4-.47.58-.34.34-.76.62-1.24.81l-.85.33c.08.3.19.59.28.88l.04-.02c.48-.19.9-.46,1.24-.81Z" fill="#fff"/>
        <path d="m29.33,15.95c.1-.19.21-.37.32-.56l.83.36c.5.21,1,.32,1.51.31.5,0,.97-.11,1.41-.29.44-.19.84-.45,1.18-.79.33-.34.6-.73.79-1.18.09-.2.15-.4.2-.61-.14.21-.3.41-.48.6-.34.34-.73.61-1.18.79-.44.18-.91.28-1.41.29-.51.01-1.02-.09-1.51-.31l-.83-.36c-.11.18-.22.37-.32.56-.19.34-.36.69-.51,1.04-.09.2-.15.41-.23.61.08-.15.14-.31.22-.45Z" fill="#fff"/>
      </g>
    </g>
    <g>
      <g>
        <path d="m49.5,24.75c0,.97-2.15,1.75-4.8,1.75s-4.8-.78-4.8-1.75v-2.1h9.6v2.1Z" fill="url(#k)" stroke="#797979" stroke-linecap="round" stroke-linejoin="round"/>
        <ellipse cx="44.7" cy="22.65" rx="4.8" ry="1.75" fill="url(#l)" stroke="#797979" stroke-linecap="round" stroke-linejoin="round"/>
      </g>
      <g>
        <path d="m49.5,22.28c0,.97-2.15,1.75-4.8,1.75s-4.8-.78-4.8-1.75v-2.1h9.6v2.1Z" fill="url(#m)" stroke="#797979" stroke-linecap="round" stroke-linejoin="round"/>
        <ellipse cx="44.7" cy="20.18" rx="4.8" ry="1.75" fill="url(#n)" stroke="#797979" stroke-linecap="round" stroke-linejoin="round"/>
      </g>
      <g>
        <path d="m49.5,19.82c0,.97-2.15,1.75-4.8,1.75s-4.8-.78-4.8-1.75v-2.1h9.6v2.1Z" fill="url(#o)" stroke="#797979" stroke-linecap="round" stroke-linejoin="round"/>
        <ellipse cx="44.7" cy="17.72" rx="4.8" ry="1.75" fill="url(#p)" stroke="#797979" stroke-linecap="round" stroke-linejoin="round"/>
      </g>
      <g>
        <path d="m49.5,17.35c0,.97-2.15,1.75-4.8,1.75s-4.8-.78-4.8-1.75v-2.1h9.6v2.1Z" fill="url(#q)" stroke="#797979" stroke-linecap="round" stroke-linejoin="round"/>
        <ellipse cx="44.7" cy="15.25" rx="4.8" ry="1.75" fill="url(#r)" stroke="#797979" stroke-linecap="round" stroke-linejoin="round"/>
      </g>
      <g>
        <path d="m41.68,18.92c.6.66-.41,2.84-2.25,4.88-1.85,2.03-3.84,3.15-4.44,2.49l-1.31-1.44,6.7-7.36,1.31,1.44Z" fill="url(#s)" stroke="#797979" stroke-linecap="round" stroke-linejoin="round"/>
        <ellipse cx="37.02" cy="21.17" rx="4.98" ry="1.61" transform="translate(-3.4 34.76) rotate(-48.35)" fill="url(#t)" stroke="#797979" stroke-linecap="round" stroke-linejoin="round"/>
      </g>
      <path d="m49.5,15.25c0-.97-2.15-1.75-4.8-1.75s-4.8.78-4.8,1.75v2.06c-.86-.04-2.46.99-3.97,2.66-1.85,2.03-2.86,4.22-2.25,4.88l1.31,1.44c.6.66,2.59-.45,4.44-2.49.17-.18.32-.37.47-.55v1.5c0,.97,2.15,1.75,4.8,1.75s4.8-.78,4.8-1.75v-2.1c0-.06,0-.12-.03-.18.02-.06.03-.12.03-.18v-2.1c0-.06,0-.12-.03-.18.02-.06.03-.12.03-.18v-2.1c0-.06,0-.12-.03-.18.02-.06.03-.12.03-.18v-2.1Z" fill="none" stroke="#323232" stroke-linejoin="round"/>
    </g>
  </g>
  <g id="u" data-name="Lightbulb">
    <path d="m36.44,41.28c-.04-.41-.09-.82-.15-1.23h-1.47c-.47,0-.89-.09-1.25-.26-.37-.17-.69-.4-.96-.69-.28-.29-.49-.61-.63-.98-.14-.37-.21-.75-.21-1.16s.07-.77.21-1.13c.14-.37.37-.7.67-1.01l1.04-1.04c-.96-1.35-2.11-2.5-3.46-3.46l-1.04,1.07c-.31.31-.65.52-1.03.66-.38.13-.75.2-1.12.2-.41,0-.8-.07-1.16-.21-.37-.14-.69-.35-.98-.61-.29-.26-.52-.59-.69-.96-.17-.38-.26-.8-.26-1.27v-1.47c-.41-.06-.82-.11-1.22-.15-.41-.04-.82-.06-1.22-.06s-.82.02-1.22.06c-.41.04-.82.09-1.22.15v1.47c0,.47-.09.89-.26,1.25-.17.37-.4.69-.69.96s-.62.49-.99.63c-.38.14-.76.21-1.15.21s-.77-.07-1.13-.21c-.37-.14-.7-.37-1.01-.67l-1.04-1.04c-1.35.96-2.5,2.11-3.46,3.46l1.04,1.04c.31.31.53.64.67,1.01s.21.74.21,1.13c0,.41-.07.8-.21,1.16-.14.37-.35.7-.63.98-.27.29-.6.52-.98.69-.38.17-.79.26-1.24.26h-1.47c-.06.41-.11.82-.15,1.23-.04.41-.06.82-.06,1.22s.02.82.06,1.23c.04.41.09.82.15,1.23h1.47c.45,0,.86.09,1.24.26.38.17.7.4.98.69.28.29.48.62.63,1s.21.76.21,1.15-.07.76-.21,1.13c-.14.37-.37.7-.67,1.01l-1.04,1.04c.96,1.35,2.11,2.5,3.46,3.46l1.04-1.04c.31-.31.64-.53,1.01-.67.37-.14.74-.21,1.13-.21s.77.07,1.15.21c.38.14.71.35.99.63s.52.6.69.98c.17.38.26.79.26,1.24v1.47c.41.06.82.11,1.22.15.41.04.82.06,1.22.06s.82-.02,1.22-.06c.41-.04.82-.09,1.22-.15v-1.47c0-.45.09-.86.26-1.24s.4-.7.69-.98c.29-.28.61-.49.98-.63.37-.14.75-.21,1.16-.21.39,0,.77.07,1.13.21.37.14.7.37,1.01.67l1.04,1.04c1.35-.96,2.5-2.11,3.46-3.46l-1.04-1.04c-.31-.31-.53-.64-.67-1.01-.14-.37-.21-.74-.21-1.13s.07-.77.21-1.15c.14-.38.35-.71.63-1,.27-.29.6-.52.96-.69.37-.17.78-.26,1.25-.26h1.47c.06-.41.11-.82.15-1.23.04-.41.06-.82.06-1.23s-.02-.82-.06-1.22Z" fill="#fff" opacity=".5" stroke="#fff" stroke-linejoin="round" stroke-width="3"/>
    <g>
      <path d="m31.76,48.04c0,.39.07.76.21,1.13.14.37.37.7.67,1.01l1.04,1.04c-.96,1.35-2.11,2.5-3.46,3.46l-1.04-1.04c-.31-.31-.64-.53-1.01-.67-.37-.14-.75-.21-1.13-.21-.41,0-.8.07-1.16.21-.37.14-.69.35-.98.63-.29.28-.52.6-.69.98s-.26.79-.26,1.24v1.47c-.41.06-.82.11-1.22.15-.41.04-.82.06-1.22.06s-.82-.02-1.22-.06c-.41-.04-.82-.09-1.22-.15v-1.47c0-.45-.09-.86-.26-1.24-.17-.38-.4-.7-.69-.98s-.62-.49-.99-.63c-.38-.14-.76-.21-1.15-.21s-.77.07-1.13.21c-.37.14-.7.37-1.01.67l-1.04,1.04c-1.35-.96-2.5-2.11-3.46-3.46l1.04-1.04c.31-.31.53-.64.67-1.01.14-.37.21-.74.21-1.13s-.07-.77-.21-1.15-.35-.71-.63-1c-.27-.29-.6-.52-.98-.69-.38-.17-.79-.26-1.24-.26h-1.47c-.06-.41-.11-.82-.15-1.23-.04-.41-.06-.82-.06-1.23s.02-.82.06-1.22c.04-.41.09-.82.15-1.23h1.47c.45,0,.86-.09,1.24-.26.38-.17.7-.4.98-.69.28-.29.48-.61.63-.98.14-.37.21-.75.21-1.16s-.07-.77-.21-1.13-.37-.7-.67-1.01l-1.04-1.04c.96-1.35,2.11-2.5,3.46-3.46l1.04,1.04c.31.31.64.53,1.01.67.37.14.74.21,1.13.21s.77-.07,1.15-.21c.38-.14.71-.35.99-.63s.52-.6.69-.96c.17-.37.26-.79.26-1.25v-1.47c.41-.06.82-.11,1.22-.15.41-.04.82-.06,1.22-.06s.82.02,1.22.06c.41.04.82.09,1.22.15v1.47c0,.47.09.89.26,1.27.17.38.4.7.69.96.29.27.61.47.98.61.37.14.75.21,1.16.21.37,0,.74-.07,1.12-.2.38-.13.72-.35,1.03-.66l1.04-1.07c1.35.96,2.5,2.11,3.46,3.46l-1.04,1.04c-.31.31-.53.64-.67,1.01-.14.37-.21.74-.21,1.13,0,.41.07.8.21,1.16.14.37.35.7.63.98.27.29.6.52.96.69.37.17.78.26,1.25.26h1.47c.06.41.11.82.15,1.23.04.41.06.82.06,1.22s-.02.82-.06,1.23c-.04.41-.09.82-.15,1.23h-1.47c-.47,0-.89.09-1.25.26-.37.17-.69.4-.96.69-.28.29-.49.62-.63,1-.14.38-.21.76-.21,1.15Z" fill="url(#g)" stroke="#323232" stroke-linejoin="round"/>
      <g fill="none" opacity=".2">
        <path d="m11.64,35.59c.09.24.16.48.2.73.04-.22.06-.44.06-.66,0-.47-.09-.93-.26-1.37-.17-.45-.45-.86-.82-1.24l-.03-.03c-.2.23-.42.45-.61.69l.64.64c.37.37.64.79.82,1.24Z"/>
        <path d="m31.36,34.28c-.17.44-.26.9-.26,1.37,0,.23.02.45.06.66.04-.25.11-.49.2-.73.17-.44.45-.86.82-1.23l.64-.64c-.19-.24-.41-.46-.61-.69l-.03.03c-.37.37-.65.79-.82,1.23Z"/>
        <path d="m35.79,42.36c-.02.21-.05.43-.07.64h-.9c-.57,0-1.08.11-1.53.32-.44.21-.83.48-1.16.83-.34.35-.6.76-.77,1.22-.17.45-.26.91-.26,1.38,0,.22.02.43.06.65.04-.24.11-.49.2-.72.17-.46.43-.87.77-1.22.33-.34.72-.62,1.16-.83.45-.21.97-.32,1.53-.32h.9c.03-.21.05-.43.07-.64.04-.39.06-.77.06-1.16,0-.22-.02-.43-.03-.65,0,.17,0,.34-.03.51Z"/>
        <path d="m11.64,46.66c.09.24.15.48.2.72.04-.21.06-.43.06-.65,0-.46-.09-.92-.26-1.38-.17-.46-.43-.87-.77-1.22-.33-.34-.73-.62-1.18-.83-.46-.21-.97-.32-1.51-.32h-.9c-.03-.21-.05-.43-.07-.64-.02-.17-.02-.34-.02-.51-.01.22-.03.44-.03.65,0,.39.02.77.06,1.16.02.21.05.43.07.64h.9c.54,0,1.05.11,1.51.32.45.21.85.49,1.18.83.34.35.59.76.77,1.22Z"/>
        <path d="m30.29,52.52l-.64-.64c-.37-.37-.79-.65-1.24-.82-.9-.35-1.91-.34-2.77,0-.44.17-.85.43-1.2.77-.35.33-.62.73-.83,1.18-.21.46-.32.97-.32,1.51v.9c-.21.03-.43.05-.64.07-.77.08-1.54.08-2.32,0-.21-.02-.42-.04-.63-.07v-.9c0-.54-.11-1.05-.32-1.51-.21-.45-.49-.84-.83-1.18-.35-.34-.76-.6-1.21-.77-.9-.34-1.87-.34-2.75,0-.45.17-.87.45-1.24.82l-.64.64c-.71-.55-1.34-1.18-1.93-1.84l-.61.61c.73.95,1.59,1.8,2.54,2.54l.64-.64c.37-.37.78-.65,1.24-.82.87-.34,1.85-.34,2.75,0,.45.17.86.43,1.21.77.34.33.62.73.83,1.18.21.46.32.97.32,1.51v.9c.21.03.42.05.63.07.78.08,1.55.08,2.32,0,.21-.02.43-.04.64-.07v-.9c0-.54.11-1.05.32-1.51.21-.45.48-.84.83-1.18.35-.34.75-.59,1.2-.77.86-.34,1.87-.35,2.77,0,.45.17.87.45,1.24.82l.64.64c.95-.73,1.8-1.59,2.54-2.54l-.61-.61c-.59.67-1.22,1.3-1.93,1.84Z"/>
      </g>
      <g fill="none" opacity=".3">
        <path d="m31.36,38.36c-.09-.23-.16-.48-.2-.73-.04.21-.06.42-.06.64,0,.49.09.96.26,1.39.17.45.43.85.77,1.2.33.34.72.62,1.16.83.45.21.97.32,1.53.32h.9c.03.21.05.43.07.64.02.17.02.34.03.51.01-.22.03-.43.03-.65,0-.39-.02-.77-.06-1.16-.02-.21-.05-.43-.07-.64h-.9c-.56,0-1.08-.11-1.53-.32-.44-.21-.83-.48-1.16-.83-.34-.35-.59-.75-.77-1.2Z" fill="#fff"/>
        <path d="m12.71,32.48l.64.64c.37.37.79.65,1.24.82.88.34,1.86.34,2.75,0,.46-.17.87-.43,1.22-.77.34-.33.62-.72.83-1.15.22-.45.32-.97.32-1.53v-.9c.21-.03.42-.05.64-.07.77-.08,1.53-.08,2.32,0,.21.02.42.04.63.07v.9c0,.57.11,1.09.32,1.54.21.46.49.85.84,1.17.35.32.75.57,1.19.74.84.33,1.8.35,2.73.02.47-.16.9-.44,1.28-.82l.64-.66c.7.54,1.33,1.17,1.92,1.84l.61-.61c-.73-.95-1.58-1.8-2.53-2.53l-.64.66c-.38.38-.81.65-1.28.82-.93.33-1.89.3-2.73-.02-.44-.17-.84-.42-1.19-.74-.35-.32-.63-.71-.84-1.17-.21-.46-.32-.98-.32-1.54v-.9c-.21-.03-.42-.05-.63-.07-.78-.08-1.55-.08-2.32,0-.22.02-.43.04-.64.07v.9c0,.56-.11,1.08-.32,1.53-.21.44-.48.82-.83,1.15-.35.34-.76.6-1.22.77-.89.34-1.86.34-2.75,0-.45-.17-.87-.45-1.24-.82l-.64-.64c-.95.73-1.8,1.59-2.54,2.54l.61.61c.59-.67,1.22-1.3,1.93-1.84Z" fill="#fff"/>
        <path d="m31.36,49.41c-.09-.23-.15-.47-.2-.72-.04.22-.06.44-.06.66,0,.47.09.93.26,1.37.17.45.45.86.82,1.24l.03.03c.2-.23.42-.45.61-.69l-.64-.64c-.37-.37-.65-.79-.82-1.24Z" fill="#fff"/>
        <path d="m11.64,50.71c.17-.44.26-.9.26-1.37,0-.22-.02-.44-.06-.66-.04.24-.11.48-.2.72-.17.45-.45.87-.82,1.24l-.64.64c.19.24.41.46.61.69l.03-.03c.37-.37.64-.78.82-1.24Z" fill="#fff"/>
        <path d="m7.21,42.65c.02-.21.05-.43.07-.64h.9c.54,0,1.05-.11,1.51-.32.45-.21.85-.49,1.18-.83.33-.35.59-.75.76-1.2.17-.44.26-.91.26-1.4,0-.22-.02-.43-.06-.64-.04.25-.11.5-.2.74-.17.45-.43.85-.76,1.2-.33.34-.73.62-1.18.83-.46.21-.97.32-1.51.32h-.9c-.03.21-.05.43-.07.64-.04.39-.06.77-.06,1.16,0,.22.02.43.03.65,0-.17,0-.34.02-.51Z" fill="#fff"/>
      </g>
    </g>
    <g>
      <g fill="none" opacity=".5">
        <path d="m27,6.75l13,7.08-13,6.92v-4.72c-6.66.27-12,5.75-12,12.47,0,4.77,2.78,9.2,7.08,11.27l-2.17,4.5c-6.02-2.9-9.92-9.09-9.92-15.77,0-9.48,7.58-17.21,17-17.47v-4.28m0-1c-.18,0-.35.05-.51.14-.3.18-.49.51-.49.86v3.33c-9.46.78-17,8.84-17,18.42,0,7.06,4.11,13.61,10.48,16.68.14.07.29.1.43.1.37,0,.73-.21.9-.57l2.17-4.5c.24-.5.03-1.1-.47-1.33-3.96-1.91-6.52-5.98-6.52-10.37,0-5.84,4.31-10.65,10-11.39v3.64c0,.35.18.68.49.86.16.09.34.14.51.14.16,0,.32-.04.47-.12l13-6.92c.32-.17.53-.51.53-.88,0-.37-.2-.71-.52-.88l-13-7.08c-.15-.08-.31-.12-.48-.12h0Z" fill="url(#v)"/>
      </g>
      <path d="m19.92,44.27c-6.02-2.9-9.92-9.09-9.92-15.77,0-9.65,7.85-17.5,17.5-17.5v5c-6.89,0-12.5,5.61-12.5,12.5,0,4.77,2.78,9.2,7.08,11.27l-2.17,4.5Z" fill="url(#w)"/>
      <polygon points="27 6.75 27 20.75 40 13.82 27 6.75" fill="url(#x)"/>
    </g>
    <g>
      <path d="m25,48c0-.18-.16-.35-.42-.5.26-.15.42-.32.42-.5,0-.55-1.34-1-3-1s-3,.45-3,1c0,.18.16.35.42.5-.26.15-.42.32-.42.5s.16.35.42.5c-.26.15-.42.32-.42.5,0,.22.23.43.6.6-.15.12-.23.26-.23.4,0,.55,1.18,1,2.62,1s2.63-.45,2.63-1c0-.14-.08-.28-.23-.4.37-.17.6-.37.6-.6,0-.18-.16-.35-.42-.5.26-.15.42-.32.42-.5Z" fill="#323232"/>
      <path d="m26.18,36.37c-1.04-1.19-2.57-1.87-4.18-1.87-.43,0-.85.05-1.26.15,0,0,0,0,0,0-.01,0-.03,0-.04,0s-.03.01-.04.02c-2.81.68-4.59,3.36-4.06,6.12,0,0,0,.01,0,.02s0,0,0,.01c.08.33.08.33,0,0,.23,1.2.88,2.28,1.83,3.07.52.43,1.07,1.07,1.07,1.73v1.07c0,.38.54.76,2.5.76s2.5-.38,2.5-.76v-1.07c0-.67.55-1.3,1.08-1.74,2.31-1.91,2.58-5.28.61-7.51Z" fill="url(#d)" stroke="#323232" stroke-linejoin="round"/>
      <path d="m19.52,38.01c-.69.96-.98,2.3-1.39,1.92-.35-.32,0-1.92.82-2.92.58-.7,1.49-1.24,1.95-.92s-.85,1.18-1.39,1.92Z" fill="url(#y)" isolation="isolate"/>
    </g>
  </g>
  <g id="z" data-name="Manager">
    <path d="m52.75,40.88c2.22-1.04,3.75-3.28,3.75-5.88,0-3.59-2.91-6.5-6.5-6.5s-6.5,2.91-6.5,6.5c0,2.61,1.54,4.85,3.75,5.88-3.3,1.02-4.75,3.99-4.75,7.85v6.41c0,1.18,1.56,2.35,7.5,2.35s7.5-1.18,7.5-2.35v-6.41c0-3.86-1.45-6.83-4.75-7.85Z" fill="#fff" opacity=".5" stroke="#fff" stroke-linejoin="round" stroke-width="3"/>
    <g>
      <path d="m50,40.5c-5.26,0-7.5,3.44-7.5,8.24v6.41c0,1.18,1.56,2.35,7.5,2.35s7.5-1.18,7.5-2.35v-6.41c0-4.8-2.24-8.24-7.5-8.24Z" fill="url(#a)" stroke="#003755" stroke-linejoin="round"/>
      <circle cx="50" cy="35" r="6.5" fill="url(#a)" stroke="#003755" stroke-linejoin="round"/>
      <g>
        <path d="m56,54.79v-6.71c0-3.64-3.48-6.07-5-6.07,1.56,1.66,2.45,3.82,2.5,6.07v7.93c.95-.13,1.83-.55,2.5-1.21Z" fill="#fff" isolation="isolate" opacity=".3"/>
        <path d="m53.64,32.45c.54,1.06.47,2.17-.15,2.48s-1.57-.3-2.12-1.37-.47-2.17.15-2.48,1.57.3,2.12,1.37Z" fill="#fff" isolation="isolate" opacity=".3"/>
      </g>
    </g>
  </g>
</svg>