<?xml version="1.0" encoding="UTF-8"?>
<svg xmlns="http://www.w3.org/2000/svg" version="1.1" xmlns:xlink="http://www.w3.org/1999/xlink" viewBox="0 0 64 64">
  <defs>
    <linearGradient id="linear-gradient" x1="12.6" y1="14.2" x2="23.3" y2="32.7" gradientUnits="userSpaceOnUse">
      <stop offset="0" stop-color="#8cd7f5"/>
      <stop offset="1" stop-color="#376e8c"/>
    </linearGradient>
    <linearGradient id="linear-gradient-2" x1="45.5" y1="17.9" x2="49.6" y2="25.1" xlink:href="#linear-gradient"/>
    <linearGradient id="linear-gradient-3" x1="41.8" y1="13.8" x2="50.5" y2="28.8" gradientUnits="userSpaceOnUse">
      <stop offset="0" stop-color="#d7d7d7"/>
      <stop offset="1" stop-color="#969696"/>
    </linearGradient>
    <linearGradient id="linear-gradient-4" x1="43" y1="16.9" x2="50.1" y2="29.1" gradientUnits="userSpaceOnUse">
      <stop offset="0" stop-color="#fff"/>
      <stop offset="1" stop-color="#d2d2d2"/>
    </linearGradient>
    <linearGradient id="linear-gradient-5" x1="50.6" y1="43.2" x2="52.7" y2="46.9" gradientUnits="userSpaceOnUse">
      <stop offset="0" stop-color="#3287af"/>
      <stop offset="1" stop-color="#285a78"/>
    </linearGradient>
    <linearGradient id="linear-gradient-6" x1="45.5" y1="17.9" x2="49.6" y2="25.1" xlink:href="#linear-gradient"/>
    <linearGradient id="linear-gradient-7" x1="45.5" y1="19.2" x2="47.4" y2="22.6" xlink:href="#linear-gradient-5"/>
    <linearGradient id="linear-gradient-8" x1="47.5" y1="19.1" x2="49.7" y2="22.8" xlink:href="#linear-gradient-5"/>
    <linearGradient id="linear-gradient-9" x1="44.8" y1="37.8" x2="53.5" y2="52.8" xlink:href="#linear-gradient-3"/>
    <linearGradient id="linear-gradient-10" x1="46" y1="40.9" x2="53" y2="53.1" xlink:href="#linear-gradient-4"/>
    <linearGradient id="linear-gradient-11" x1="48.4" y1="41.9" x2="52.6" y2="49.1" xlink:href="#linear-gradient"/>
    <linearGradient id="linear-gradient-12" x1="48.4" y1="43.2" x2="50.4" y2="46.6" xlink:href="#linear-gradient-5"/>
    <linearGradient id="linear-gradient-13" x1="50.5" y1="43.1" x2="52.6" y2="46.8" xlink:href="#linear-gradient-5"/>
    <linearGradient id="linear-gradient-14" x1="20" y1="32.5" x2="15.9" y2="11.2" gradientUnits="userSpaceOnUse">
      <stop offset="0" stop-color="#8bd6f3"/>
      <stop offset="1" stop-color="#376e8c"/>
    </linearGradient>
    <linearGradient id="linear-gradient-15" x1="16.7" y1="15.7" x2="23.2" y2="27.1" xlink:href="#linear-gradient"/>
    <linearGradient id="linear-gradient-16" x1="15.6" y1="17.7" x2="19.1" y2="23.7" xlink:href="#linear-gradient-5"/>
    <linearGradient id="linear-gradient-17" x1="20.8" y1="17.6" x2="24.5" y2="24" xlink:href="#linear-gradient-5"/>
  </defs>
  <!-- Generator: Adobe Illustrator 28.7.5, SVG Export Plug-In . SVG Version: 1.2.0 Build 176)  -->
  <g>
    <g id="Layer_1">
      <g>
        <line x1="27" y1="21.9" x2="43" y2="21.9" fill="none" stroke="#323232" stroke-miterlimit="10" stroke-width="2"/>
        <path d="M34,21.9v20.2s-.6,4.8,4.6,4.8h6.4" fill="none" stroke="#323232" stroke-miterlimit="10" stroke-width="2"/>
        <polygon points="52 43 52 47.3 51 46.7 51 43 52 43" fill="url(#linear-gradient-5)"/>
        <g>
          <g>
            <path d="M44,16.5v-.8c0-.6-.5-1.1-1.1-1.1h-2.2c-.6,0-1.1.5-1.1,1.1v10.7c0,.6.5,1.1,1.1,1.1h11.8c.6,0,1.1-.5,1.1-1.1v-8.8c0-.6-.5-1.1-1.1-1.1h-8.5Z" fill="url(#linear-gradient-3)" stroke="#787878" stroke-linejoin="round"/>
            <rect x="39.5" y="18.4" width="14" height="9.1" rx="1.1" ry="1.1" fill="url(#linear-gradient-4)" stroke="#787878" stroke-linejoin="round"/>
            <path d="M44,16.5v-.8c0-.6-.5-1.1-1.1-1.1h-2.2c-.6,0-1.1.5-1.1,1.1v10.7c0,.6.5,1.1,1.1,1.1h11.8c.6,0,1.1-.5,1.1-1.1v-8.8c0-.6-.5-1.1-1.1-1.1h-8.5Z" fill="none" stroke="#323232" stroke-linejoin="round"/>
            <polygon points="50.6 24.6 47.5 22.4 44.5 24.6 44.5 18.4 50.6 18.4 50.6 24.6" fill="url(#linear-gradient-6)" stroke="#003755" stroke-linejoin="round"/>
            <polygon points="46.9 18.8 46.9 22.7 46.2 23.3 46.2 18.8 46.9 18.8" fill="url(#linear-gradient-7)"/>
            <polygon points="48.8 18.8 48.8 23.3 48.1 22.7 48.1 18.8 48.8 18.8" fill="url(#linear-gradient-8)"/>
          </g>
          <polygon points="50.6 24.6 47.5 22.4 44.5 24.6 44.5 18.4 50.6 18.4 50.6 24.6" fill="none" stroke="#003755" stroke-linejoin="round"/>
        </g>
        <g>
          <g>
            <path d="M46.9,40.5v-.8c0-.6-.5-1.1-1.1-1.1h-2.2c-.6,0-1.1.5-1.1,1.1v10.7c0,.6.5,1.1,1.1,1.1h11.8c.6,0,1.1-.5,1.1-1.1v-8.8c0-.6-.5-1.1-1.1-1.1h-8.5Z" fill="url(#linear-gradient-9)" stroke="#787878" stroke-linejoin="round"/>
            <rect x="42.5" y="42.4" width="14" height="9.1" rx="1.1" ry="1.1" fill="url(#linear-gradient-10)" stroke="#787878" stroke-linejoin="round"/>
            <path d="M46.9,40.5v-.8c0-.6-.5-1.1-1.1-1.1h-2.2c-.6,0-1.1.5-1.1,1.1v10.7c0,.6.5,1.1,1.1,1.1h11.8c.6,0,1.1-.5,1.1-1.1v-8.8c0-.6-.5-1.1-1.1-1.1h-8.5Z" fill="none" stroke="#323232" stroke-linejoin="round"/>
            <polygon points="53.6 48.6 50.5 46.4 47.5 48.6 47.5 42.4 53.6 42.4 53.6 48.6" fill="url(#linear-gradient-11)" stroke="#003755" stroke-linejoin="round"/>
            <polygon points="49.9 42.8 49.9 46.7 49.1 47.3 49.1 42.8 49.9 42.8" fill="url(#linear-gradient-12)"/>
            <polygon points="51.8 42.8 51.8 47.3 51.1 46.7 51.1 42.8 51.8 42.8" fill="url(#linear-gradient-13)"/>
          </g>
          <polygon points="53.6 48.6 50.5 46.4 47.5 48.6 47.5 42.4 53.6 42.4 53.6 48.6" fill="none" stroke="#003755" stroke-linejoin="round"/>
        </g>
      </g>
      <path d="M14.5,13.4v-.3c0-.9-.7-1.7-1.7-1.7h-3.7c-.9,0-1.7.7-1.7,1.7v15.7c0,.9.7,1.7,1.7,1.7h17.7c.9,0,1.7-.7,1.7-1.7v-13.7c0-.9-.7-1.7-1.7-1.7h-12.3Z" fill="url(#linear-gradient-14)" stroke="#063755" stroke-linejoin="round"/>
      <rect x="7.5" y="16.4" width="21" height="14" rx="1.7" ry="1.7" fill="url(#linear-gradient)" stroke="#003755" stroke-linejoin="round"/>
      <path d="M14.5,13.4v-.3c0-.9-.7-1.7-1.7-1.7h-3.7c-.9,0-1.7.7-1.7,1.7v15.7c0,.9.7,1.7,1.7,1.7h17.7c.9,0,1.7-.7,1.7-1.7v-13.7c0-.9-.7-1.7-1.7-1.7h-12.3Z" fill="none" stroke="#323232" stroke-linejoin="round"/>
      <g>
        <polygon points="24.5 26.5 20 23.1 15.5 26.5 15.5 16.4 24.5 16.4 24.5 26.5" fill="url(#linear-gradient-15)" stroke="#003755" stroke-linejoin="round"/>
        <polygon points="18 16.9 18 24.1 17 24.9 17 16.9 18 16.9" fill="url(#linear-gradient-16)"/>
        <polygon points="23 16.9 23 24.9 22 24.1 22 16.9 23 16.9" fill="url(#linear-gradient-17)"/>
        <polygon points="24.5 26.5 20 23.1 15.5 26.5 15.5 16.4 24.5 16.4 24.5 26.5" fill="none" stroke="#003755" stroke-linejoin="round"/>
      </g>
    </g>
  </g>
</svg>