<?xml version="1.0" encoding="utf-8"?>
<!-- Generator: Adobe Illustrator 27.1.1, SVG Export Plug-In . SVG Version: 6.00 Build 0)  -->
<svg version="1.1" xmlns="http://www.w3.org/2000/svg" xmlns:xlink="http://www.w3.org/1999/xlink" x="0px" y="0px"
	 viewBox="0 0 64 64" style="enable-background:new 0 0 64 64;" xml:space="preserve">
<style type="text/css">
	.st0{fill:none;}
	.st1{fill:#844138;}
	
		._x0033_D_x0020_White_x0020_Left{fill:url(#SVGID_1_);stroke:#797979;stroke-linecap:round;stroke-linejoin:round;stroke-miterlimit:1;}
	
		._x0033_D_x0020_Blue_x0020_Front_x0020_Right{fill:url(#SVGID_00000132785253140537414690000007138469730777589395_);stroke:#053755;stroke-linecap:round;stroke-linejoin:round;stroke-miterlimit:1;}
	
		._x0033_D_x0020_White_x0020_Front_x0020_Right{fill:url(#SVGID_00000007427614263912578380000011110442817268421270_);stroke:#797979;stroke-linecap:round;stroke-linejoin:round;stroke-miterlimit:1;}
	
		._x0033_D_x0020_White_x0020_Top{fill:url(#SVGID_00000173142409810380640700000013626061843015155358_);stroke:#797979;stroke-linecap:round;stroke-linejoin:round;stroke-miterlimit:1;}
	.st2{display:none;}
	.st3{display:inline;}
	.st4{fill:#3D3D3D;}
	.st5{fill:#EA4F37;}
	.st6{display:inline;opacity:0.5;fill:#D1D4D4;}
	.st7{display:inline;opacity:0.3;}
	.st8{fill:url(#New_Pattern_Swatch_2);}
	.st9{opacity:0.5;fill:#FFFFFF;}
	.st10{fill:#F4F5F6;}
	.st11{fill:#D1D4D4;}
	.st12{fill:none;stroke:#00FF00;stroke-miterlimit:10;}
	.st13{fill:none;stroke:#00FF00;stroke-miterlimit:10;stroke-dasharray:3.2727,1.0909;}
	.st14{fill:none;stroke:#00FF00;stroke-miterlimit:10;stroke-dasharray:1.0909,1.0909,3.2727,1.0909;}
	.st15{fill:#00FF00;}
	.st16{clip-path:url(#SVGID_00000045587908430664263260000012957165177737405074_);}
	
		.st17{fill:url(#SVGID_00000137812899116197332210000016911931676020921734_);stroke:#333332;stroke-linecap:round;stroke-linejoin:round;stroke-miterlimit:1;}
	
		.st18{fill:url(#SVGID_00000007422295051489165020000001509173881580661141_);stroke:#053755;stroke-linecap:round;stroke-linejoin:round;stroke-miterlimit:1;}
	
		.st19{fill:url(#SVGID_00000173844143635103682440000010227238346492657844_);stroke:#797979;stroke-linecap:round;stroke-linejoin:round;stroke-miterlimit:1;}
	
		.st20{fill:url(#SVGID_00000053515707596675251520000005092051213136803231_);stroke:#797979;stroke-linecap:round;stroke-linejoin:round;stroke-miterlimit:1;}
	
		.st21{fill:url(#SVGID_00000072277614100441614510000009748530758748001193_);stroke:#797979;stroke-linecap:round;stroke-linejoin:round;stroke-miterlimit:1;}
	.st22{fill:none;stroke:#333332;stroke-linecap:round;stroke-linejoin:round;stroke-miterlimit:1;}
	.st23{clip-path:url(#SVGID_00000057869398402555999240000010088795521657929624_);}
	
		.st24{fill:url(#SVGID_00000047745491029954389490000005362221378715718065_);stroke:#333332;stroke-linecap:round;stroke-linejoin:round;stroke-miterlimit:1;}
	
		.st25{fill:url(#SVGID_00000013872682716908869030000012787718806989693111_);stroke:#053755;stroke-linecap:round;stroke-linejoin:round;stroke-miterlimit:1;}
	
		.st26{fill:url(#SVGID_00000118389207199485760940000011447625326458175643_);stroke:#797979;stroke-linecap:round;stroke-linejoin:round;stroke-miterlimit:1;}
	
		.st27{fill:url(#SVGID_00000003094544007584996420000011830632098960062113_);stroke:#797979;stroke-linecap:round;stroke-linejoin:round;stroke-miterlimit:1;}
	
		.st28{fill:url(#SVGID_00000072993146464641224720000011631193905571981476_);stroke:#797979;stroke-linecap:round;stroke-linejoin:round;stroke-miterlimit:1;}
	.st29{opacity:0.5;}
	.st30{fill:#FFFFFF;}
	.st31{fill:url(#SVGID_00000031902468692747405970000008175005160005963964_);}
	.st32{opacity:0.3;enable-background:new    ;}
	.st33{opacity:0.3;fill:#FFFFFF;enable-background:new    ;}
	.st34{opacity:0.5;fill:#646565;enable-background:new    ;}
	.st35{fill:url(#SVGID_00000061455144543198333340000010969399054806616252_);stroke:#787979;stroke-linejoin:round;}
	.st36{opacity:0.3;fill:url(#SVGID_00000039850863181361315280000015491946682585386115_);enable-background:new    ;}
	.st37{fill:none;stroke:#323232;stroke-linejoin:round;}
	.st38{fill:url(#SVGID_00000134971055460963347170000016670004207020074679_);}
	.st39{fill:none;stroke:#053755;stroke-linejoin:round;}
	.st40{fill:url(#SVGID_00000176018456460598934720000009865655795623903675_);}
</style>
<pattern  width="20" height="20" patternUnits="userSpaceOnUse" id="New_Pattern_Swatch_2" viewBox="22.1 -42.1 20 20" style="overflow:visible;">
	<g>
		<rect x="22.1" y="-42.1" class="st0" width="20" height="20"/>
		<rect x="49.1" y="-26.3" transform="matrix(0.7071 -0.7071 0.7071 0.7071 23.837 33.3051)" class="st1" width="6" height="28.3"/>
		<rect x="29.1" y="-26.3" transform="matrix(0.7071 -0.7071 0.7071 0.7071 17.9792 19.163)" class="st1" width="6" height="28.3"/>
		<rect x="9.1" y="-26.3" transform="matrix(0.7071 -0.7071 0.7071 0.7071 12.1213 5.0208)" class="st1" width="6" height="28.3"/>
		
			<rect x="49.1" y="-46.3" transform="matrix(0.7071 -0.7071 0.7071 0.7071 37.9792 27.4472)" class="st1" width="6" height="28.3"/>
		
			<rect x="29.1" y="-46.3" transform="matrix(0.7071 -0.7071 0.7071 0.7071 32.1213 13.3051)" class="st1" width="6" height="28.3"/>
		<rect x="9.1" y="-46.3" transform="matrix(0.7071 -0.7071 0.7071 0.7071 26.2635 -0.837)" class="st1" width="6" height="28.3"/>
		
			<rect x="49.1" y="-66.3" transform="matrix(0.7071 -0.7071 0.7071 0.7071 52.1213 21.5894)" class="st1" width="6" height="28.3"/>
		<rect x="29.1" y="-66.3" transform="matrix(0.7071 -0.7071 0.7071 0.7071 46.2635 7.4472)" class="st1" width="6" height="28.3"/>
		<rect x="9.1" y="-66.3" transform="matrix(0.7071 -0.7071 0.7071 0.7071 40.4056 -6.6949)" class="st1" width="6" height="28.3"/>
	</g>
</pattern>
<linearGradient id="SVGID_1_" gradientUnits="userSpaceOnUse" x1="0" y1="0" x2="0.5" y2="0.866">
	<stop  offset="0" style="stop-color:#F5F6F6"/>
	<stop  offset="0.9921" style="stop-color:#BFBEBE"/>
</linearGradient>
<linearGradient id="SVGID_00000010293326433546684230000006593099587955476377_" gradientUnits="userSpaceOnUse" x1="0" y1="0" x2="-0.5" y2="-0.866">
	<stop  offset="0" style="stop-color:#386F8D"/>
	<stop  offset="1" style="stop-color:#8DD7F4"/>
</linearGradient>
<linearGradient id="SVGID_00000107553652781231619450000007685490548926374785_" gradientUnits="userSpaceOnUse" x1="0" y1="0" x2="0.5" y2="0.866">
	<stop  offset="0" style="stop-color:#FFFFFF"/>
	<stop  offset="1" style="stop-color:#D2D3D3"/>
</linearGradient>
<linearGradient id="SVGID_00000027564668408965298230000002015153976286143875_" gradientUnits="userSpaceOnUse" x1="0" y1="0" x2="0.5" y2="0.866">
	<stop  offset="0" style="stop-color:#FFFFFF"/>
	<stop  offset="1" style="stop-color:#F1F0F0"/>
</linearGradient>
<g id="info" class="st2">
	<g class="st3">
		<path class="st5" d="M4,2v46h56V2H4z M51,44H13V6h38V44z"/>
	</g>
	<path id="pedestal" class="st6" d="M53.6,24.4l-0.1-0.1c-0.1-0.1-1-1.3-3.9-1.3H14c-3,0-3.5,1.1-3.6,1.4
		C6.7,35.9,3.6,45.3,3.6,45.5l0.5,12.3c0,2.2,2.7,2.7,3.7,2.7h48.4c1,0,3.7-0.5,3.7-2.7c0.1-2.7-0.3,6.6,0.5-12.4
		C61,46.7,53.6,24.6,53.6,24.4z M11.3,24.7c0,0,0.4-0.7,2.7-0.7h35.6c2.1,0,2.9,0.7,3,0.8c7.1,21.5,6.8,20.5,6.8,20.7
		c0,0.5,0.4,2.5-2.5,2.5H7c-2.8,0-2.3-1.8-2.4-2.5C4.6,45.4,11.3,24.8,11.3,24.7z"/>
	<g id="no-go_zone" class="st7">
		<path class="st8" d="M0,0v64h64V0H0z M60,48H4V2h56V48z"/>
	</g>
</g>
<g id="info_r2021x" class="st2">
	<g id="pedestal_r2021x" class="st3">
		<path class="st9" d="M63,64H1c-0.6,0-1-0.4-1-1V1c0-0.6,0.4-1,1-1h62c0.6,0,1,0.4,1,1v62C64,63.6,63.6,64,63,64z"/>
		<rect x="1" y="1" class="st10" width="62" height="62"/>
		<rect x="1" y="1" class="st11" width="2" height="62"/>
	</g>
	<g id="no-go_zone_1_" class="st7">
		<path class="st8" d="M0,0v64h64V0H0z M57,57H7V7h50V57z"/>
	</g>
	<g class="st3">
		<path class="st5" d="M57,7v50H7V7H57 M58,6h-1H7H6v1v50v1h1h50h1v-1V7V6L58,6z"/>
	</g>
</g>
<g id="Layer_3">
	<g>
		<defs>
			<circle id="SVGID_00000170244419797701623380000015781724183714738847_" cx="35.6" cy="21.2" r="12"/>
		</defs>
		<clipPath id="SVGID_00000038410644978868561570000003866114775133234337_">
			<use xlink:href="#SVGID_00000170244419797701623380000015781724183714738847_"  style="overflow:visible;"/>
		</clipPath>
		<g style="clip-path:url(#SVGID_00000038410644978868561570000003866114775133234337_);">
			
				<radialGradient id="SVGID_00000158006492947084390220000007010516041365013938_" cx="19.7406" cy="22.8946" r="17.5587" fx="16.2479" fy="22.6891" gradientUnits="userSpaceOnUse">
				<stop  offset="0" style="stop-color:#CFCFCF"/>
				<stop  offset="0.1912" style="stop-color:#C1C1C1"/>
				<stop  offset="0.4109" style="stop-color:#ABABAB"/>
				<stop  offset="0.611" style="stop-color:#898989"/>
				<stop  offset="0.8562" style="stop-color:#5B5B5B"/>
			</radialGradient>
			
				<circle style="fill:url(#SVGID_00000158006492947084390220000007010516041365013938_);stroke:#333332;stroke-linecap:round;stroke-linejoin:round;stroke-miterlimit:1;" cx="22.4" cy="27.8" r="12.6"/>
			
				<linearGradient id="SVGID_00000155148325853388240890000003781640554844379818_" gradientUnits="userSpaceOnUse" x1="33.352" y1="36.6868" x2="21.8034" y2="16.684">
				<stop  offset="0" style="stop-color:#386F8D"/>
				<stop  offset="1" style="stop-color:#8DD7F4"/>
			</linearGradient>
			
				<polygon style="fill:url(#SVGID_00000155148325853388240890000003781640554844379818_);stroke:#053755;stroke-linecap:round;stroke-linejoin:round;stroke-miterlimit:1;" points="
				28,41.4 14.9,47.5 22.9,36.4 13.9,32.4 25,28.3 21.9,14.2 29,23.3 33,12.2 36,21.3 45.1,14.2 42.1,21.3 49.1,24.8 			"/>
			<g>
				
					<linearGradient id="SVGID_00000129169326145829275020000002122477732248236462_" gradientUnits="userSpaceOnUse" x1="38.0563" y1="25.3372" x2="46.5885" y2="40.1155">
					<stop  offset="0" style="stop-color:#FFFFFF"/>
					<stop  offset="1" style="stop-color:#F1F0F0"/>
				</linearGradient>
				
					<polygon style="fill:url(#SVGID_00000129169326145829275020000002122477732248236462_);stroke:#797979;stroke-linecap:round;stroke-linejoin:round;stroke-miterlimit:1;" points="
					28,31.3 40.7,21.3 57.2,27.7 57.2,33.6 45.3,42.7 28,38.6 				"/>
				<g>
					
						<linearGradient id="SVGID_00000105409820732435031520000002876498499411467400_" gradientUnits="userSpaceOnUse" x1="48.1328" y1="34.9065" x2="54.3882" y2="45.7413">
						<stop  offset="0" style="stop-color:#FFFFFF"/>
						<stop  offset="1" style="stop-color:#D2D3D3"/>
					</linearGradient>
					
						<polygon style="fill:url(#SVGID_00000105409820732435031520000002876498499411467400_);stroke:#797979;stroke-linecap:round;stroke-linejoin:round;stroke-miterlimit:1;" points="
						57.2,27.7 45.1,38.4 45.1,52.5 57.2,40.5 					"/>
					
						<linearGradient id="SVGID_00000044145626044868078050000011633906194996000660_" gradientUnits="userSpaceOnUse" x1="31.4107" y1="32.8441" x2="42.2926" y2="51.6921">
						<stop  offset="0" style="stop-color:#F5F6F6"/>
						<stop  offset="0.9921" style="stop-color:#BFBEBE"/>
					</linearGradient>
					
						<polygon style="fill:url(#SVGID_00000044145626044868078050000011633906194996000660_);stroke:#797979;stroke-linecap:round;stroke-linejoin:round;stroke-miterlimit:1;" points="
						28,31.3 28,45 45.1,52.5 45.1,38.4 					"/>
					<polygon class="st22" points="40.7,21.3 28,31.3 28,38.6 28,45 45.1,52.5 57.2,40.5 57.2,33.6 57.2,27.7 					"/>
				</g>
			</g>
		</g>
	</g>
	<g>
		<defs>
			<path id="SVGID_00000166638241154033453390000007030711679639784381_" d="M43.9,12.9c1.5,2.1,2.3,4.6,2.3,7.3
				c0,7.1-5.7,12.8-12.8,12.8c-7.1,0-12.8-5.7-12.8-12.8c0-2.7,0.9-5.3,2.3-7.3H5.7v39.9h53V12.9H43.9z"/>
		</defs>
		<clipPath id="SVGID_00000141452284392568607950000012602321661781849504_">
			<use xlink:href="#SVGID_00000166638241154033453390000007030711679639784381_"  style="overflow:visible;"/>
		</clipPath>
		<g style="clip-path:url(#SVGID_00000141452284392568607950000012602321661781849504_);">
			
				<radialGradient id="SVGID_00000074428925742808662680000001649173470346360231_" cx="16.8702" cy="24.5011" r="16.0129" fx="13.685" fy="24.3137" gradientUnits="userSpaceOnUse">
				<stop  offset="0" style="stop-color:#CFCFCF"/>
				<stop  offset="0.1912" style="stop-color:#C1C1C1"/>
				<stop  offset="0.4109" style="stop-color:#ABABAB"/>
				<stop  offset="0.611" style="stop-color:#898989"/>
				<stop  offset="0.8562" style="stop-color:#5B5B5B"/>
			</radialGradient>
			
				<circle style="fill:url(#SVGID_00000074428925742808662680000001649173470346360231_);stroke:#333332;stroke-linecap:round;stroke-linejoin:round;stroke-miterlimit:1;" cx="19.3" cy="29" r="11.5"/>
			
				<linearGradient id="SVGID_00000089541990777239405930000018386158016637213878_" gradientUnits="userSpaceOnUse" x1="29.2833" y1="37.079" x2="18.7514" y2="18.8373">
				<stop  offset="0" style="stop-color:#386F8D"/>
				<stop  offset="1" style="stop-color:#8DD7F4"/>
			</linearGradient>
			
				<polygon style="fill:url(#SVGID_00000089541990777239405930000018386158016637213878_);stroke:#053755;stroke-linecap:round;stroke-linejoin:round;stroke-miterlimit:1;" points="
				24.4,41.4 12.4,46.9 19.8,36.8 11.5,33.1 21.6,29.5 18.9,16.6 25.3,24.9 29,14.8 31.7,23 40,16.6 37.2,23 43.7,26.3 			"/>
			<g>
				
					<linearGradient id="SVGID_00000005244499259462371480000017670909977460233102_" gradientUnits="userSpaceOnUse" x1="33.5733" y1="26.7286" x2="41.3544" y2="40.2059">
					<stop  offset="0" style="stop-color:#FFFFFF"/>
					<stop  offset="1" style="stop-color:#F1F0F0"/>
				</linearGradient>
				
					<polygon style="fill:url(#SVGID_00000005244499259462371480000017670909977460233102_);stroke:#797979;stroke-linecap:round;stroke-linejoin:round;stroke-miterlimit:1;" points="
					24.4,32.2 36,23 51,28.9 51,34.3 40.2,42.6 24.4,38.8 				"/>
				<g>
					
						<linearGradient id="SVGID_00000176013030467858927960000000914446363405651328_" gradientUnits="userSpaceOnUse" x1="42.7627" y1="35.4555" x2="48.4674" y2="45.3364">
						<stop  offset="0" style="stop-color:#FFFFFF"/>
						<stop  offset="1" style="stop-color:#D2D3D3"/>
					</linearGradient>
					
						<polygon style="fill:url(#SVGID_00000176013030467858927960000000914446363405651328_);stroke:#797979;stroke-linecap:round;stroke-linejoin:round;stroke-miterlimit:1;" points="
						51,28.9 40,38.6 40,51.5 51,40.5 					"/>
					
						<linearGradient id="SVGID_00000044881987372480540060000003205267121055322771_" gradientUnits="userSpaceOnUse" x1="27.5129" y1="33.5747" x2="37.4367" y2="50.7632">
						<stop  offset="0" style="stop-color:#F5F6F6"/>
						<stop  offset="0.9921" style="stop-color:#BFBEBE"/>
					</linearGradient>
					
						<polygon style="fill:url(#SVGID_00000044881987372480540060000003205267121055322771_);stroke:#797979;stroke-linecap:round;stroke-linejoin:round;stroke-miterlimit:1;" points="
						24.4,32.2 24.4,44.7 40,51.5 40,38.6 					"/>
					<polygon class="st22" points="36,23 24.4,32.2 24.4,38.8 24.4,44.7 40,51.5 51,40.5 51,34.3 51,28.9 					"/>
				</g>
			</g>
		</g>
	</g>
	<g>
		<g class="st29">
			<path class="st30" d="M55.4,44c-0.8,0-1.6-0.3-2.2-0.9l-8.1-8.3l-1.4-1.4c-2.4,1.7-5.3,2.6-8.2,2.6c-8,0-14.5-6.5-14.5-14.5
				C21,13.5,27.5,7,35.5,7S50,13.5,50,21.5c0,2.7-0.7,5.4-2.2,7.6l1.5,1.5l8.3,8.1c1.2,1.2,1.2,3.1,0,4.3C57.1,43.7,56.3,44,55.4,44
				z M35.5,11C29.7,11,25,15.7,25,21.5S29.7,32,35.5,32S46,27.3,46,21.5l0,0C46,15.7,41.3,11,35.5,11z"/>
			<path class="st30" d="M35.5,7.5c7.7,0,14,6.3,14,14c0,2.7-0.8,5.4-2.3,7.7L49,31l8.3,8.1c1,1,1,2.6,0,3.6c-1,1-2.6,1-3.6,0
				l-8.1-8.3l-1.7-1.7c-6.2,4.6-15,3.2-19.6-3s-3.2-15,3-19.6C29.6,8.4,32.5,7.5,35.5,7.5 M35.5,32.5c6.1,0,11-4.9,11-11
				s-4.9-11-11-11s-11,4.9-11,11S29.4,32.5,35.5,32.5 M35.5,6.5c-8.3,0-15,6.7-15,15s6.7,15,15,15c2.9,0,5.7-0.8,8.2-2.4l1.1,1.1
				l8.1,8.3c0.7,0.7,1.6,1,2.5,1c2,0,3.6-1.6,3.6-3.5c0-1-0.4-1.9-1-2.5l-8.3-8.1L48.5,29c4.2-7.2,1.8-16.3-5.4-20.5
				C40.8,7.2,38.2,6.5,35.5,6.5z M35.5,31.5c-5.5,0-10-4.5-10-10s4.5-10,10-10s10,4.5,10,10C45.5,27,41,31.5,35.5,31.5z"/>
		</g>
		<g>
			
				<linearGradient id="SVGID_00000140016038235575589360000017134671844179517090_" gradientUnits="userSpaceOnUse" x1="44.948" y1="-16.552" x2="49.082" y2="-12.418" gradientTransform="matrix(1 0 0 -1 0 18)">
				<stop  offset="4.000000e-02" style="stop-color:#A39F9F"/>
				<stop  offset="0.2" style="stop-color:#DDDDDD"/>
				<stop  offset="0.4" style="stop-color:#C6C6C5"/>
				<stop  offset="0.68" style="stop-color:#F5F5F5"/>
				<stop  offset="0.996" style="stop-color:#BEBEBE"/>
			</linearGradient>
			<path style="fill:url(#SVGID_00000140016038235575589360000017134671844179517090_);" d="M47,36l-3.5-3.5L47,29l3.5,3.5L47,36z"
				/>
			<polygon class="st32" points="47,34.3 44.7,32 44.2,32.5 47,35.3 49.8,32.5 49.3,32 			"/>
			<polygon class="st33" points="47,30.7 49.3,33 49.8,32.5 47,29.7 44.2,32.5 44.7,33 			"/>
			<path class="st34" d="M47.8,30.5L47,29.7l-2.8,2.8l1.2,1.2C46.3,32.7,47.1,31.7,47.8,30.5z"/>
		</g>
		<g>
			<circle class="st33" cx="35.5" cy="21.5" r="12.5"/>
			
				<linearGradient id="SVGID_00000057832367088859418300000007313894740593475512_" gradientUnits="userSpaceOnUse" x1="28.4988" y1="8.6264" x2="42.5012" y2="-15.6264" gradientTransform="matrix(1 0 0 -1 0 18)">
				<stop  offset="0" style="stop-color:#FFFFFF"/>
				<stop  offset="1" style="stop-color:#D2D2D2"/>
			</linearGradient>
			<path style="fill:url(#SVGID_00000057832367088859418300000007313894740593475512_);stroke:#787979;stroke-linejoin:round;" d="
				M35.5,7.5c-7.7,0-14,6.3-14,14s6.3,14,14,14s14-6.3,14-14S43.2,7.5,35.5,7.5z M35.5,32.5c-6.1,0-11-4.9-11-11s4.9-11,11-11
				s11,4.9,11,11S41.6,32.5,35.5,32.5z"/>
			
				<linearGradient id="SVGID_00000139256592443479062440000015771346563419130503_" gradientUnits="userSpaceOnUse" x1="29.2489" y1="7.3271" x2="41.7511" y2="-14.3271" gradientTransform="matrix(1 0 0 -1 0 18)">
				<stop  offset="0" style="stop-color:#000000"/>
				<stop  offset="1" style="stop-color:#FFFFFF"/>
			</linearGradient>
			<path style="opacity:0.3;fill:url(#SVGID_00000139256592443479062440000015771346563419130503_);enable-background:new    ;" d="
				M35.5,9C28.6,9,23,14.6,23,21.5S28.6,34,35.5,34S48,28.4,48,21.5S42.4,9,35.5,9z M35.5,33C29.1,33,24,27.9,24,21.5
				S29.1,10,35.5,10S47,15.1,47,21.5l0,0C47,27.8,41.8,33,35.5,33z"/>
		</g>
		<path class="st37" d="M50.5,32.5l-3.3-3.3c4.3-6.5,2.5-15.2-4-19.5s-15.2-2.5-19.5,4s-2.5,15.2,4,19.5c4.9,3.3,11.3,3.1,16.1-0.4
			L47,36L50.5,32.5z"/>
		<g>
			
				<linearGradient id="SVGID_00000144312168380309488340000016482215764884444576_" gradientUnits="userSpaceOnUse" x1="48.3047" y1="-13.4014" x2="55.5087" y2="-25.8784" gradientTransform="matrix(1 0 0 -1 0 18)">
				<stop  offset="0" style="stop-color:#8DD7F4"/>
				<stop  offset="1" style="stop-color:#386E8C"/>
			</linearGradient>
			<path style="fill:url(#SVGID_00000144312168380309488340000016482215764884444576_);" d="M57.3,39.1L49,31l-3.5,3.5l8.1,8.3
				c1,1,2.6,1,3.6-0.1C58.2,41.7,58.2,40.1,57.3,39.1z"/>
			<path class="st39" d="M57.3,39.1L49,31l-3.5,3.5l8.1,8.3c1,1,2.6,1,3.6-0.1C58.2,41.7,58.2,40.1,57.3,39.1z"/>
			<path class="st32" d="M56.9,41.4C56.5,41.8,56,42,55.5,42l0,0c-0.5,0-1.1-0.2-1.5-0.6L46.7,34l-0.5,0.5l7.8,7.9
				c0.4,0.4,0.9,0.6,1.5,0.6l0,0c1.1,0,2-0.9,2.1-2c0,0,0-0.1,0-0.1c0-0.2,0-0.3-0.1-0.5C57.4,40.8,57.2,41.1,56.9,41.4z"/>
			<path class="st33" d="M49,32.7l7.9,7.8c0.3,0.3,0.4,0.6,0.5,1c0-0.2,0.1-0.3,0.1-0.5c0-0.5-0.2-1.1-0.6-1.5L49,31.7l-2.8,2.8
				l0.5,0.5L49,32.7z"/>
			
				<linearGradient id="SVGID_00000034812182685307894120000014616136364496243863_" gradientUnits="userSpaceOnUse" x1="48.8307" y1="-14.3091" x2="54.7734" y2="-24.6014" gradientTransform="matrix(1 0 0 -1 0 18)">
				<stop  offset="0" style="stop-color:#8DD7F4"/>
				<stop  offset="0.256" style="stop-color:#8BD4F1"/>
				<stop  offset="0.442" style="stop-color:#83CBE8"/>
				<stop  offset="0.606" style="stop-color:#76BBD8"/>
				<stop  offset="0.757" style="stop-color:#64A4C2"/>
				<stop  offset="0.898" style="stop-color:#4D88A6"/>
				<stop  offset="1" style="stop-color:#386E8C"/>
			</linearGradient>
			<path style="fill:url(#SVGID_00000034812182685307894120000014616136364496243863_);" d="M56,40l-2-2l-5.5-5.5L47,34l7.5,7.5
				c0.5,0.5,0.6,0.5,1,0.5c0.5,0,1-0.4,1-0.9c0,0,0-0.1,0-0.1C56.5,40.6,56.3,40.3,56,40z"/>
		</g>
	</g>
</g>
</svg>
