<?xml version="1.0" encoding="utf-8"?>
<!-- Generator: Adobe Illustrator 27.1.1, SVG Export Plug-In . SVG Version: 6.00 Build 0)  -->
<svg version="1.1" id="Layer_1" xmlns="http://www.w3.org/2000/svg" xmlns:xlink="http://www.w3.org/1999/xlink" x="0px" y="0px"
	 viewBox="0 0 64 64" style="enable-background:new 0 0 64 64;" xml:space="preserve">
<style type="text/css">
	.st0{fill:url(#SVGID_1_);stroke:#00425F;stroke-linecap:round;stroke-linejoin:round;}
	
		.st1{fill:url(#SVGID_00000027570948215559274590000016678993442185499302_);stroke:#797979;stroke-linecap:round;stroke-linejoin:round;}
	
		.st2{fill:url(#SVGID_00000129182263451227782980000013243088768952977794_);stroke:#797979;stroke-linecap:round;stroke-linejoin:round;}
	
		.st3{fill:url(#SVGID_00000000180355712138635650000004458761243497397176_);stroke:#797979;stroke-linecap:round;stroke-linejoin:round;}
	
		.st4{fill:url(#SVGID_00000111186427071132869580000014550845524941896110_);stroke:#797979;stroke-linecap:round;stroke-linejoin:round;}
	
		.st5{fill:url(#SVGID_00000166638279034011440240000015346026525961206461_);stroke:#00425F;stroke-linecap:round;stroke-linejoin:round;}
	
		.st6{fill:url(#SVGID_00000156565819397760062640000010140840504592304304_);stroke:#00425F;stroke-linecap:round;stroke-linejoin:round;}
	
		.st7{fill:url(#SVGID_00000075843108214950704690000010460032630715996802_);stroke:#00425F;stroke-linecap:round;stroke-linejoin:round;}
	
		.st8{fill:url(#SVGID_00000140694142317656268190000018123005600849787799_);stroke:#00425F;stroke-linecap:round;stroke-linejoin:round;}
	.st9{opacity:0.3;fill:#FFFFFF;enable-background:new    ;}
	.st10{fill:url(#SVGID_00000047781127258082712570000018270786892648947114_);}
	.st11{clip-path:url(#SVGID_00000082358047329439672150000016941759135266901684_);}
	
		.st12{fill:url(#SVGID_00000082329308498944074620000013365411583778808707_);stroke:#00425F;stroke-linecap:round;stroke-linejoin:round;}
	
		.st13{fill:url(#SVGID_00000166637345259017148580000017171563659576734868_);stroke:#797979;stroke-linecap:round;stroke-linejoin:round;}
	
		.st14{fill:url(#SVGID_00000134241333971134177700000014493524134127086745_);stroke:#797979;stroke-linecap:round;stroke-linejoin:round;}
	
		.st15{fill:url(#SVGID_00000067234305426944427040000001490457268779030966_);stroke:#797979;stroke-linecap:round;stroke-linejoin:round;}
	
		.st16{fill:url(#SVGID_00000015318374964422546930000001268311134476450186_);stroke:#797979;stroke-linecap:round;stroke-linejoin:round;}
	
		.st17{fill:url(#SVGID_00000034052261787590038590000004795455741832531367_);stroke:#00425F;stroke-linecap:round;stroke-linejoin:round;}
	
		.st18{fill:url(#SVGID_00000004546962579244568180000010733419900843983500_);stroke:#00425F;stroke-linecap:round;stroke-linejoin:round;}
	
		.st19{fill:url(#SVGID_00000155116332151154129030000017486572943547597718_);stroke:#00425F;stroke-linecap:round;stroke-linejoin:round;}
	
		.st20{fill:url(#SVGID_00000025413759157283055260000006318727322515670701_);stroke:#00425F;stroke-linecap:round;stroke-linejoin:round;}
	.st21{fill:url(#SVGID_00000005264031430477093450000004166476989137522580_);}
	.st22{opacity:0.5;}
	.st23{fill:#FFFFFF;}
	.st24{fill:url(#SVGID_00000034063245053791097040000001644287588724005520_);}
	.st25{opacity:0.3;enable-background:new    ;}
	.st26{opacity:0.5;fill:#646565;enable-background:new    ;}
	.st27{fill:url(#SVGID_00000137834197936656418460000016083037958570351529_);stroke:#787979;stroke-linejoin:round;}
	.st28{opacity:0.3;fill:url(#SVGID_00000177477878454120357270000001375478240645042321_);enable-background:new    ;}
	.st29{fill:none;stroke:#323232;stroke-linejoin:round;}
	.st30{fill:url(#SVGID_00000047057587961651884110000016643453924468735887_);}
	.st31{fill:none;stroke:#053755;stroke-linejoin:round;}
	.st32{fill:url(#SVGID_00000127045000276648638950000000094405336629434533_);}
</style>
<g>
	<g id="Layer_32_copy">
		
			<linearGradient id="SVGID_1_" gradientUnits="userSpaceOnUse" x1="14.8057" y1="26.2994" x2="-0.5243" y2="6.6894" gradientTransform="matrix(1 0 0 -1 0 66)">
			<stop  offset="0" style="stop-color:#275A78"/>
			<stop  offset="0.65" style="stop-color:#82BDDC"/>
			<stop  offset="1" style="stop-color:#275A78"/>
		</linearGradient>
		<polygon class="st0" points="5.5,38.2 5.5,31.1 19.5,44.4 19.5,54.2 		"/>
		
			<linearGradient id="SVGID_00000070100127944392366790000004812475869376341412_" gradientUnits="userSpaceOnUse" x1="15" y1="42.25" x2="6.42" y2="42.25" gradientTransform="matrix(1 0 0 -1 0 66)">
			<stop  offset="0" style="stop-color:#BEBDBD"/>
			<stop  offset="0.63" style="stop-color:#F4F5F5"/>
			<stop  offset="1" style="stop-color:#BEBDBD"/>
		</linearGradient>
		
			<polyline style="fill:url(#SVGID_00000070100127944392366790000004812475869376341412_);stroke:#797979;stroke-linecap:round;stroke-linejoin:round;" points="
			13.4,13.7 15,33.8 6.4,30.6 7.7,13.7 		"/>
		
			<linearGradient id="SVGID_00000057111225819776356170000007467969301853727894_" gradientUnits="userSpaceOnUse" x1="22.685" y1="45.9" x2="14.995" y2="45.9" gradientTransform="matrix(1 0 0 -1 0 66)">
			<stop  offset="0" style="stop-color:#BEBDBD"/>
			<stop  offset="0.63" style="stop-color:#F4F5F5"/>
			<stop  offset="1" style="stop-color:#BEBDBD"/>
		</linearGradient>
		
			<polyline style="fill:url(#SVGID_00000057111225819776356170000007467969301853727894_);stroke:#797979;stroke-linecap:round;stroke-linejoin:round;" points="
			15.9,12.7 15,25.6 22.7,27.5 21.7,12.7 		"/>
		
			<linearGradient id="SVGID_00000125570258132742458810000012970786177826988476_" gradientUnits="userSpaceOnUse" x1="17.9949" y1="54.7027" x2="19.5849" y2="51.9326" gradientTransform="matrix(1 0 0 -1 0 66)">
			<stop  offset="0" style="stop-color:#FFFFFF"/>
			<stop  offset="1" style="stop-color:#F0F0F0"/>
		</linearGradient>
		
			<path style="fill:url(#SVGID_00000125570258132742458810000012970786177826988476_);stroke:#797979;stroke-linecap:round;stroke-linejoin:round;" d="
			M21.7,12.7c0-0.4-1.3-0.8-2.9-0.8s-2.9,0.4-2.9,0.8s1.3,0.8,2.9,0.8S21.7,13.1,21.7,12.7z"/>
		
			<linearGradient id="SVGID_00000083068242834019813940000018180765587041931152_" gradientUnits="userSpaceOnUse" x1="9.7271" y1="53.6381" x2="11.3271" y2="50.8681" gradientTransform="matrix(1 0 0 -1 0 66)">
			<stop  offset="0" style="stop-color:#FFFFFF"/>
			<stop  offset="1" style="stop-color:#F0F0F0"/>
		</linearGradient>
		
			<path style="fill:url(#SVGID_00000083068242834019813940000018180765587041931152_);stroke:#797979;stroke-linecap:round;stroke-linejoin:round;" d="
			M13.4,13.7c0-0.4-1.3-0.8-2.9-0.8s-2.9,0.4-2.9,0.8s1.3,0.8,2.9,0.8S13.4,14.2,13.4,13.7z"/>
		
			<linearGradient id="SVGID_00000036974452599481754250000013396684792890689452_" gradientUnits="userSpaceOnUse" x1="20.935" y1="36.35" x2="40.535" y2="36.35" gradientTransform="matrix(1 0 0 -1 0 66)">
			<stop  offset="0" style="stop-color:#A2DDF7"/>
			<stop  offset="0.99" style="stop-color:#73C3E1"/>
		</linearGradient>
		
			<polygon style="fill:url(#SVGID_00000036974452599481754250000013396684792890689452_);stroke:#00425F;stroke-linecap:round;stroke-linejoin:round;" points="
			20.9,24 23.7,21.2 40.5,29.3 34.1,38.1 		"/>
		
			<linearGradient id="SVGID_00000076568207858627404970000001055003435335586957_" gradientUnits="userSpaceOnUse" x1="14.135" y1="34.15" x2="34.105" y2="34.15" gradientTransform="matrix(1 0 0 -1 0 66)">
			<stop  offset="0" style="stop-color:#A2DDF7"/>
			<stop  offset="0.99" style="stop-color:#73C3E1"/>
		</linearGradient>
		
			<polygon style="fill:url(#SVGID_00000076568207858627404970000001055003435335586957_);stroke:#00425F;stroke-linecap:round;stroke-linejoin:round;" points="
			18,22.4 14.1,26.5 27,41.3 34.1,31.2 		"/>
		
			<linearGradient id="SVGID_00000067919070105943045810000007534480583487980683_" gradientUnits="userSpaceOnUse" x1="5.525" y1="31.9" x2="27.025" y2="31.9" gradientTransform="matrix(1 0 0 -1 0 66)">
			<stop  offset="0" style="stop-color:#A2DDF7"/>
			<stop  offset="0.99" style="stop-color:#73C3E1"/>
		</linearGradient>
		
			<polygon style="fill:url(#SVGID_00000067919070105943045810000007534480583487980683_);stroke:#00425F;stroke-linecap:round;stroke-linejoin:round;" points="
			5.5,31.1 11.9,23.8 27,33.8 19.5,44.4 		"/>
		
			<linearGradient id="SVGID_00000082342287679014098070000008444691529635810716_" gradientUnits="userSpaceOnUse" x1="37.6223" y1="50.9431" x2="24.3979" y2="0.6415" gradientTransform="matrix(1 0 0 -1 0 66)">
			<stop  offset="0" style="stop-color:#8BD6F4"/>
			<stop  offset="1" style="stop-color:#376E8C"/>
		</linearGradient>
		
			<polygon style="fill:url(#SVGID_00000082342287679014098070000008444691529635810716_);stroke:#00425F;stroke-linecap:round;stroke-linejoin:round;" points="
			19.5,54.2 19.5,44.4 27,33.8 27,41.3 34.1,31.2 34.1,38.1 40.5,29.3 40.5,43.7 		"/>
	</g>
	<polygon class="st9" points="10.4,26.2 12,24.4 26.3,34 24.7,36.2 	"/>
	<polygon class="st9" points="22.4,23.1 23.8,21.8 39.8,29.5 38.5,31.2 	"/>
	<polygon class="st9" points="16.6,24.4 18.1,23.1 33.4,31.4 32,33.2 	"/>
	
		<linearGradient id="SVGID_00000021095677266764264580000000047619655750246529_" gradientUnits="userSpaceOnUse" x1="31.2239" y1="-8.0881" x2="28.7968" y2="11.8188" gradientTransform="matrix(1 0 0 1 0 42)">
		<stop  offset="0" style="stop-color:#8DD7F4"/>
		<stop  offset="0.2014" style="stop-color:#77BCD9"/>
		<stop  offset="0.556" style="stop-color:#5592AF"/>
		<stop  offset="0.8343" style="stop-color:#407896"/>
		<stop  offset="1" style="stop-color:#386E8C"/>
	</linearGradient>
	<polygon style="fill:url(#SVGID_00000021095677266764264580000000047619655750246529_);" points="20,44.5 20,53.4 40,43.4 
		24.3,47.6 	"/>
</g>
<g>
	<defs>
		<circle id="SVGID_00000167379706856070350610000010289754335978623903_" cx="35.5" cy="24.5" r="13"/>
	</defs>
	<clipPath id="SVGID_00000003796157002112623340000017658822573256926868_">
		<use xlink:href="#SVGID_00000167379706856070350610000010289754335978623903_"  style="overflow:visible;"/>
	</clipPath>
	<g style="clip-path:url(#SVGID_00000003796157002112623340000017658822573256926868_);">
		<g id="Layer_32_copy_00000183221414426176871980000011249054140942732435_">
			
				<linearGradient id="SVGID_00000070807395032391522070000003744539482661908913_" gradientUnits="userSpaceOnUse" x1="7.5738" y1="28.6214" x2="-13.14" y2="2.1245" gradientTransform="matrix(1 0 0 -1 0 66)">
				<stop  offset="0" style="stop-color:#275A78"/>
				<stop  offset="0.65" style="stop-color:#82BDDC"/>
				<stop  offset="1" style="stop-color:#275A78"/>
			</linearGradient>
			
				<polygon style="fill:url(#SVGID_00000070807395032391522070000003744539482661908913_);stroke:#00425F;stroke-linecap:round;stroke-linejoin:round;" points="
				-5,35.4 -5,25.8 13.9,43.7 13.9,57 			"/>
			
				<linearGradient id="SVGID_00000014624691792345431400000015926078911903991693_" gradientUnits="userSpaceOnUse" x1="7.8363" y1="50.1737" x2="-3.7569" y2="50.1737" gradientTransform="matrix(1 0 0 -1 0 66)">
				<stop  offset="0" style="stop-color:#BEBDBD"/>
				<stop  offset="0.63" style="stop-color:#F4F5F5"/>
				<stop  offset="1" style="stop-color:#BEBDBD"/>
			</linearGradient>
			
				<polyline style="fill:url(#SVGID_00000014624691792345431400000015926078911903991693_);stroke:#797979;stroke-linecap:round;stroke-linejoin:round;" points="
				5.7,2.2 7.8,29.4 -3.8,25.1 -2,2.2 			"/>
			
				<linearGradient id="SVGID_00000110429970587255609380000009560020974156605115_" gradientUnits="userSpaceOnUse" x1="18.2202" y1="55.1055" x2="7.8296" y2="55.1055" gradientTransform="matrix(1 0 0 -1 0 66)">
				<stop  offset="0" style="stop-color:#BEBDBD"/>
				<stop  offset="0.63" style="stop-color:#F4F5F5"/>
				<stop  offset="1" style="stop-color:#BEBDBD"/>
			</linearGradient>
			
				<polyline style="fill:url(#SVGID_00000110429970587255609380000009560020974156605115_);stroke:#797979;stroke-linecap:round;stroke-linejoin:round;" points="
				9.1,0.9 7.8,18.3 18.2,20.9 16.9,0.9 			"/>
			
				<linearGradient id="SVGID_00000080898818114683080090000001245824760484199318_" gradientUnits="userSpaceOnUse" x1="11.883" y1="66.9996" x2="14.0314" y2="63.2567" gradientTransform="matrix(1 0 0 -1 0 66)">
				<stop  offset="0" style="stop-color:#FFFFFF"/>
				<stop  offset="1" style="stop-color:#F0F0F0"/>
			</linearGradient>
			
				<path style="fill:url(#SVGID_00000080898818114683080090000001245824760484199318_);stroke:#797979;stroke-linecap:round;stroke-linejoin:round;" d="
				M16.9,0.9c0-0.5-1.8-1.1-3.9-1.1S9.1,0.4,9.1,0.9S10.8,2,13,2S16.9,1.4,16.9,0.9z"/>
			
				<linearGradient id="SVGID_00000016075700436206187130000015412410574914988991_" gradientUnits="userSpaceOnUse" x1="0.7116" y1="65.5612" x2="2.8735" y2="61.8184" gradientTransform="matrix(1 0 0 -1 0 66)">
				<stop  offset="0" style="stop-color:#FFFFFF"/>
				<stop  offset="1" style="stop-color:#F0F0F0"/>
			</linearGradient>
			
				<path style="fill:url(#SVGID_00000016075700436206187130000015412410574914988991_);stroke:#797979;stroke-linecap:round;stroke-linejoin:round;" d="
				M5.7,2.2c0-0.5-1.8-1.1-3.9-1.1s-3.9,0.5-3.9,1.1s1.8,1.1,3.9,1.1S5.7,2.9,5.7,2.2z"/>
			
				<linearGradient id="SVGID_00000095326196997874984030000009148706898108693937_" gradientUnits="userSpaceOnUse" x1="15.8556" y1="42.2017" x2="42.339" y2="42.2017" gradientTransform="matrix(1 0 0 -1 0 66)">
				<stop  offset="0" style="stop-color:#A2DDF7"/>
				<stop  offset="0.99" style="stop-color:#73C3E1"/>
			</linearGradient>
			
				<polygon style="fill:url(#SVGID_00000095326196997874984030000009148706898108693937_);stroke:#00425F;stroke-linecap:round;stroke-linejoin:round;" points="
				15.8,16.2 19.6,12.4 42.3,23.3 33.6,35.2 			"/>
			
				<linearGradient id="SVGID_00000007399345830418633350000007365815335931614387_" gradientUnits="userSpaceOnUse" x1="6.6675" y1="39.229" x2="33.6508" y2="39.229" gradientTransform="matrix(1 0 0 -1 0 66)">
				<stop  offset="0" style="stop-color:#A2DDF7"/>
				<stop  offset="0.99" style="stop-color:#73C3E1"/>
			</linearGradient>
			
				<polygon style="fill:url(#SVGID_00000007399345830418633350000007365815335931614387_);stroke:#00425F;stroke-linecap:round;stroke-linejoin:round;" points="
				11.9,14 6.6,19.5 24.1,39.5 33.6,25.9 			"/>
			
				<linearGradient id="SVGID_00000011747333909854640380000016170824697147428744_" gradientUnits="userSpaceOnUse" x1="-4.9662" y1="36.1889" x2="24.0844" y2="36.1889" gradientTransform="matrix(1 0 0 -1 0 66)">
				<stop  offset="0" style="stop-color:#A2DDF7"/>
				<stop  offset="0.99" style="stop-color:#73C3E1"/>
			</linearGradient>
			
				<polygon style="fill:url(#SVGID_00000011747333909854640380000016170824697147428744_);stroke:#00425F;stroke-linecap:round;stroke-linejoin:round;" points="
				-5,25.8 3.6,15.9 24.1,29.4 13.9,43.7 			"/>
			
				<linearGradient id="SVGID_00000021084321438679476080000005203181407887960713_" gradientUnits="userSpaceOnUse" x1="38.4034" y1="61.9197" x2="20.5347" y2="-6.0474" gradientTransform="matrix(1 0 0 -1 0 66)">
				<stop  offset="0" style="stop-color:#8BD6F4"/>
				<stop  offset="1" style="stop-color:#376E8C"/>
			</linearGradient>
			
				<polygon style="fill:url(#SVGID_00000021084321438679476080000005203181407887960713_);stroke:#00425F;stroke-linecap:round;stroke-linejoin:round;" points="
				13.9,57 13.9,43.7 24.1,29.4 24.1,39.5 33.6,25.9 33.6,35.2 42.3,23.3 42.3,42.8 			"/>
		</g>
		<polygon class="st9" points="1.6,19.1 3.8,16.7 23.1,29.7 20.9,32.6 		"/>
		<polygon class="st9" points="17.8,14.9 19.7,13.2 41.3,23.6 39.6,25.9 		"/>
		<polygon class="st9" points="10,16.7 12,14.9 32.7,26.2 30.8,28.6 		"/>
		
			<linearGradient id="SVGID_00000125590339556891594010000004251082583134292927_" gradientUnits="userSpaceOnUse" x1="29.7579" y1="-12.443" x2="26.4784" y2="14.455" gradientTransform="matrix(1 0 0 1 0 42)">
			<stop  offset="0" style="stop-color:#8DD7F4"/>
			<stop  offset="0.2014" style="stop-color:#77BCD9"/>
			<stop  offset="0.556" style="stop-color:#5592AF"/>
			<stop  offset="0.8343" style="stop-color:#407896"/>
			<stop  offset="1" style="stop-color:#386E8C"/>
		</linearGradient>
		<polygon style="fill:url(#SVGID_00000125590339556891594010000004251082583134292927_);" points="14.6,43.9 14.6,55.9 41.6,42.4 
			20.4,48.1 		"/>
	</g>
</g>
<g>
	<g class="st22">
		<path class="st23" d="M55.4,47c-0.8,0-1.6-0.3-2.2-0.9l-8.1-8.3l-1.4-1.4c-2.4,1.7-5.3,2.6-8.2,2.6c-8,0-14.5-6.5-14.5-14.5
			S27.5,10,35.5,10S50,16.5,50,24.5c0,2.7-0.7,5.4-2.2,7.6l1.5,1.5l8.3,8.1c1.2,1.2,1.2,3.1,0,4.3C57.1,46.7,56.3,47,55.4,47z
			 M35.5,14C29.7,14,25,18.7,25,24.5S29.7,35,35.5,35S46,30.3,46,24.5l0,0C46,18.7,41.3,14,35.5,14z"/>
		<path class="st23" d="M35.5,10.5c7.7,0,14,6.3,14,14c0,2.7-0.8,5.4-2.3,7.7L49,34l8.3,8.1c1,1,1,2.6,0,3.6s-2.6,1-3.6,0l-8.1-8.3
			l-1.7-1.7c-6.2,4.6-15,3.2-19.6-3s-3.2-15,3-19.6C29.6,11.5,32.5,10.5,35.5,10.5 M35.5,35.5c6.1,0,11-4.9,11-11s-4.9-11-11-11
			s-11,4.9-11,11S29.4,35.5,35.5,35.5 M35.5,9.5c-8.3,0-15,6.7-15,15s6.7,15,15,15c2.9,0,5.7-0.8,8.2-2.4l1.1,1.1l8.1,8.3
			c0.7,0.7,1.6,1,2.5,1c2,0,3.6-1.6,3.6-3.5c0-1-0.4-1.9-1-2.5l-8.3-8.1l-1.2-1.2c4.2-7.2,1.8-16.3-5.4-20.5
			C40.8,10.2,38.2,9.5,35.5,9.5z M35.5,34.5c-5.5,0-10-4.5-10-10s4.5-10,10-10s10,4.5,10,10S41,34.5,35.5,34.5z"/>
	</g>
	<g>
		
			<linearGradient id="SVGID_00000070832034349774150220000010046298297102539443_" gradientUnits="userSpaceOnUse" x1="44.938" y1="28.438" x2="49.0721" y2="32.5721" gradientTransform="matrix(1 0 0 -1 0 66)">
			<stop  offset="4.000000e-02" style="stop-color:#A39F9F"/>
			<stop  offset="0.2" style="stop-color:#DDDDDD"/>
			<stop  offset="0.4" style="stop-color:#C6C6C5"/>
			<stop  offset="0.68" style="stop-color:#F5F5F5"/>
			<stop  offset="0.996" style="stop-color:#BEBEBE"/>
		</linearGradient>
		<path style="fill:url(#SVGID_00000070832034349774150220000010046298297102539443_);" d="M47,39l-3.5-3.5L47,32l3.5,3.5L47,39z"/>
		<polygon class="st25" points="47,37.3 44.7,35 44.2,35.5 47,38.3 49.8,35.5 49.3,35 		"/>
		<polygon class="st9" points="47,33.7 49.3,36 49.8,35.5 47,32.7 44.2,35.5 44.7,36 		"/>
		<path class="st26" d="M47.8,33.6L47,32.7l-2.8,2.8l1.2,1.2C46.3,35.7,47.1,34.7,47.8,33.6z"/>
	</g>
	<g>
		<circle class="st9" cx="35.5" cy="24.5" r="12.5"/>
		
			<linearGradient id="SVGID_00000059274136390845095460000000612533807731992505_" gradientUnits="userSpaceOnUse" x1="28.5054" y1="53.615" x2="42.4946" y2="29.385" gradientTransform="matrix(1 0 0 -1 0 66)">
			<stop  offset="0" style="stop-color:#FFFFFF"/>
			<stop  offset="1" style="stop-color:#D2D2D2"/>
		</linearGradient>
		<path style="fill:url(#SVGID_00000059274136390845095460000000612533807731992505_);stroke:#787979;stroke-linejoin:round;" d="
			M35.5,10.5c-7.7,0-14,6.3-14,14s6.3,14,14,14s14-6.3,14-14S43.2,10.5,35.5,10.5z M35.5,35.5c-6.1,0-11-4.9-11-11s4.9-11,11-11
			s11,4.9,11,11S41.6,35.5,35.5,35.5z"/>
		
			<linearGradient id="SVGID_00000176740065200302368900000012261103916590615469_" gradientUnits="userSpaceOnUse" x1="29.2496" y1="52.3258" x2="41.7504" y2="30.6742" gradientTransform="matrix(1 0 0 -1 0 66)">
			<stop  offset="0" style="stop-color:#000000"/>
			<stop  offset="1" style="stop-color:#FFFFFF"/>
		</linearGradient>
		<path style="opacity:0.3;fill:url(#SVGID_00000176740065200302368900000012261103916590615469_);enable-background:new    ;" d="
			M35.5,12C28.6,12,23,17.6,23,24.5S28.6,37,35.5,37S48,31.4,48,24.5S42.4,12,35.5,12z M35.5,36C29.1,36,24,30.9,24,24.5
			S29.1,13,35.5,13S47,18.2,47,24.5l0,0C47,30.9,41.8,36,35.5,36z"/>
	</g>
	<path class="st29" d="M50.5,35.5l-3.3-3.3c4.3-6.5,2.5-15.2-4-19.5s-15.2-2.5-19.5,4s-2.5,15.2,4,19.5c4.9,3.3,11.3,3.1,16.1-0.4
		L47,39L50.5,35.5z"/>
	<g>
		
			<linearGradient id="SVGID_00000029022449932213325230000001400668510995343805_" gradientUnits="userSpaceOnUse" x1="48.3005" y1="31.5762" x2="55.5045" y2="19.0992" gradientTransform="matrix(1 0 0 -1 0 66)">
			<stop  offset="0" style="stop-color:#8DD7F4"/>
			<stop  offset="1" style="stop-color:#386E8C"/>
		</linearGradient>
		<path style="fill:url(#SVGID_00000029022449932213325230000001400668510995343805_);" d="M57.3,42.2L49,34l-3.5,3.5l8.1,8.3
			c1,1,2.6,1,3.6-0.1C58.2,44.7,58.2,43.2,57.3,42.2z"/>
		<path class="st31" d="M57.3,42.2L49,34l-3.5,3.5l8.1,8.3c1,1,2.6,1,3.6-0.1C58.2,44.7,58.2,43.2,57.3,42.2z"/>
		<path class="st25" d="M56.9,44.4C56.5,44.8,56,45,55.5,45l0,0c-0.5,0-1.1-0.2-1.5-0.6L46.7,37l-0.5,0.5l7.8,7.9
			c0.4,0.4,0.9,0.6,1.5,0.6l0,0c1.1,0,2-0.9,2.1-2v-0.1c0-0.2,0-0.3-0.1-0.5C57.4,43.8,57.2,44.2,56.9,44.4z"/>
		<path class="st9" d="M49,35.7l7.9,7.8c0.3,0.3,0.4,0.6,0.5,1c0-0.2,0.1-0.3,0.1-0.5c0-0.5-0.2-1.1-0.6-1.5L49,34.7l-2.8,2.8
			l0.5,0.5L49,35.7z"/>
		
			<linearGradient id="SVGID_00000016769517201865912370000004830181621321968311_" gradientUnits="userSpaceOnUse" x1="48.846" y1="30.6798" x2="54.7887" y2="20.3875" gradientTransform="matrix(1 0 0 -1 0 66)">
			<stop  offset="0" style="stop-color:#8DD7F4"/>
			<stop  offset="0.256" style="stop-color:#8BD4F1"/>
			<stop  offset="0.442" style="stop-color:#83CBE8"/>
			<stop  offset="0.606" style="stop-color:#76BBD8"/>
			<stop  offset="0.757" style="stop-color:#64A4C2"/>
			<stop  offset="0.898" style="stop-color:#4D88A6"/>
			<stop  offset="1" style="stop-color:#386E8C"/>
		</linearGradient>
		<path style="fill:url(#SVGID_00000016769517201865912370000004830181621321968311_);" d="M56,43l-2-2l-5.5-5.5L47,37l7.5,7.5
			c0.5,0.5,0.6,0.5,1,0.5c0.5,0,1-0.4,1-0.9V44C56.5,43.6,56.3,43.3,56,43z"/>
	</g>
</g>
</svg>
