<?xml version="1.0" encoding="utf-8"?>
<!-- Generator: Adobe Illustrator 25.2.3, SVG Export Plug-In . SVG Version: 6.00 Build 0)  -->
<svg version="1.1" id="it_1_-_OK_-_r2021x" xmlns="http://www.w3.org/2000/svg" xmlns:xlink="http://www.w3.org/1999/xlink" x="0px"
	 y="0px" viewBox="0 0 64 64" style="enable-background:new 0 0 64 64;" xml:space="preserve">
<style type="text/css">
	.st0{fill:url(#SVGID_1_);stroke:#053755;stroke-linejoin:round;stroke-miterlimit:10;}
	.st1{fill:url(#SVGID_2_);stroke:#787979;stroke-miterlimit:10;}
	.st2{opacity:0.2;}
	.st3{opacity:0.1;}
	.st4{fill:url(#SVGID_3_);stroke:#053755;stroke-linejoin:round;stroke-miterlimit:10;}
	.st5{opacity:0.15;fill:#FFFFFF;}
	.st6{fill:url(#SVGID_4_);stroke:#053755;stroke-width:1.1335;stroke-linejoin:round;stroke-miterlimit:10;}
	.st7{fill:url(#SVGID_5_);stroke:#053755;stroke-linejoin:round;stroke-miterlimit:10;}
	.st8{fill:url(#SVGID_6_);stroke:#787979;stroke-miterlimit:10;}
	.st9{fill:url(#SVGID_7_);stroke:#053755;stroke-linejoin:round;stroke-miterlimit:10;}
	.st10{fill:url(#SVGID_8_);stroke:#053755;stroke-width:1.1335;stroke-linejoin:round;stroke-miterlimit:10;}
	.st11{fill:url(#SVGID_9_);stroke:#053755;stroke-linejoin:round;stroke-miterlimit:10;}
	.st12{fill:url(#SVGID_10_);stroke:#787979;stroke-miterlimit:10;}
	.st13{fill:url(#SVGID_11_);stroke:#053755;stroke-linejoin:round;stroke-miterlimit:10;}
	.st14{fill:url(#SVGID_12_);stroke:#053755;stroke-width:1.1335;stroke-linejoin:round;stroke-miterlimit:10;}
	.st15{opacity:0.45;}
	.st16{fill:#FFFFFF;}
	.st17{fill:url(#SVGID_13_);stroke:#343332;stroke-linecap:round;stroke-linejoin:round;stroke-miterlimit:1;}
	.st18{fill:url(#SVGID_14_);stroke:#053755;stroke-linecap:round;stroke-linejoin:round;stroke-miterlimit:1;}
	.st19{fill-rule:evenodd;clip-rule:evenodd;fill:url(#SVGID_15_);}
	.st20{fill-rule:evenodd;clip-rule:evenodd;fill:url(#SVGID_16_);}
	
		.st21{opacity:0.2;fill:none;stroke:#053755;stroke-linecap:round;stroke-linejoin:round;stroke-miterlimit:1;enable-background:new    ;}
	
		.st22{opacity:0.5;fill:none;stroke:#053755;stroke-linecap:round;stroke-linejoin:round;stroke-miterlimit:1;enable-background:new    ;}
</style>
<g>
	<linearGradient id="SVGID_1_" gradientUnits="userSpaceOnUse" x1="29.0963" y1="6.4876" x2="49.8696" y2="42.468">
		<stop  offset="0" style="stop-color:#FFFFFF"/>
		<stop  offset="1" style="stop-color:#F1F0F0"/>
	</linearGradient>
	<polygon class="st0" points="53.5,40.37 53.5,9.14 30.08,8.03 24.5,9.14 24.5,38.14 	"/>
	<g>
		<linearGradient id="SVGID_2_" gradientUnits="userSpaceOnUse" x1="43.1198" y1="14.9197" x2="56.9387" y2="38.8549">
			<stop  offset="0" style="stop-color:#FFFFFF"/>
			<stop  offset="1" style="stop-color:#D2D2D2"/>
		</linearGradient>
		<polygon class="st1" points="45.7,13.43 52.5,10.03 52.5,39.71 47.97,44.04 47.4,43.47 		"/>
		<polygon class="st2" points="51.06,40.56 49.93,41.63 49.93,12.08 51.06,11.52 		"/>
		<polygon class="st3" points="51.06,40.56 52.2,39.48 52.2,10.95 51.06,11.52 		"/>
	</g>
	<g>
		<linearGradient id="SVGID_3_" gradientUnits="userSpaceOnUse" x1="26.0769" y1="8.8366" x2="47.9128" y2="46.6575">
			<stop  offset="0.1766" style="stop-color:#83BEDC"/>
			<stop  offset="1" style="stop-color:#285A78"/>
		</linearGradient>
		<polygon class="st4" points="48.5,46.32 48.5,13.18 24.5,9.75 24.5,40.6 		"/>
		<polygon class="st5" points="47.66,45.44 46.53,45.14 46.53,13.63 47.66,13.79 		"/>
		<polygon class="st5" points="30.66,41.39 31.79,41.67 31.79,11.52 30.66,11.37 		"/>
	</g>
	<g>
		<linearGradient id="SVGID_4_" gradientUnits="userSpaceOnUse" x1="23.5811" y1="19.2346" x2="43.5309" y2="53.7887">
			<stop  offset="0" style="stop-color:#285A78"/>
			<stop  offset="0.1756" style="stop-color:#2D5F7D"/>
			<stop  offset="0.3898" style="stop-color:#3A6E8C"/>
			<stop  offset="0.624" style="stop-color:#5187A5"/>
			<stop  offset="0.8708" style="stop-color:#70A9C7"/>
			<stop  offset="1" style="stop-color:#83BEDC"/>
		</linearGradient>
		<polygon class="st6" points="30.09,41.85 24.42,40.5 24.42,9.9 30.09,10.71 		"/>
		<polygon class="st2" points="27.26,40.59 26.12,40.31 26.12,10.71 27.26,10.85 		"/>
		<polygon class="st5" points="29.53,41.1 28.39,40.82 28.39,11.07 29.53,11.24 		"/>
	</g>
</g>
<g>
	<linearGradient id="SVGID_5_" gradientUnits="userSpaceOnUse" x1="21.0963" y1="11.0216" x2="41.8696" y2="47.0021">
		<stop  offset="0" style="stop-color:#FFFFFF"/>
		<stop  offset="1" style="stop-color:#F1F0F0"/>
	</linearGradient>
	<polygon class="st7" points="45.5,44.91 45.5,13.68 22.08,12.56 16.5,13.68 16.5,42.68 	"/>
	<g>
		<linearGradient id="SVGID_6_" gradientUnits="userSpaceOnUse" x1="35.1198" y1="19.4538" x2="48.9387" y2="43.3889">
			<stop  offset="0" style="stop-color:#FFFFFF"/>
			<stop  offset="1" style="stop-color:#D2D2D2"/>
		</linearGradient>
		<polygon class="st8" points="37.7,17.96 44.5,14.56 44.5,44.25 39.97,48.57 39.4,48 		"/>
		<polygon class="st2" points="43.13,45.1 41.99,46.16 41.99,16.61 43.13,16.05 		"/>
		<polygon class="st3" points="43.13,45.1 44.26,44.01 44.26,15.48 43.13,16.05 		"/>
	</g>
	<g>
		<linearGradient id="SVGID_7_" gradientUnits="userSpaceOnUse" x1="18.0769" y1="13.3706" x2="39.9128" y2="51.1915">
			<stop  offset="0.1766" style="stop-color:#83BEDC"/>
			<stop  offset="1" style="stop-color:#285A78"/>
		</linearGradient>
		<polygon class="st9" points="40.5,50.85 40.5,17.71 16.5,14.28 16.5,45.14 		"/>
		<polygon class="st5" points="39.73,49.98 38.59,49.68 38.59,18.16 39.73,18.32 		"/>
		<polygon class="st5" points="22.72,45.92 23.86,46.2 23.86,16.06 22.72,15.9 		"/>
	</g>
	<g>
		<linearGradient id="SVGID_8_" gradientUnits="userSpaceOnUse" x1="15.6465" y1="23.7686" x2="35.5964" y2="58.3228">
			<stop  offset="0" style="stop-color:#285A78"/>
			<stop  offset="0.1756" style="stop-color:#2D5F7D"/>
			<stop  offset="0.3898" style="stop-color:#3A6E8C"/>
			<stop  offset="0.624" style="stop-color:#5187A5"/>
			<stop  offset="0.8708" style="stop-color:#70A9C7"/>
			<stop  offset="1" style="stop-color:#83BEDC"/>
		</linearGradient>
		<polygon class="st10" points="22.16,46.38 16.49,45.04 16.49,14.43 22.16,15.24 		"/>
		<polygon class="st2" points="19.32,45.12 18.19,44.84 18.19,15.25 19.32,15.39 		"/>
		<polygon class="st5" points="21.59,45.64 20.46,45.35 20.46,15.6 21.59,15.78 		"/>
	</g>
</g>
<g>
	<linearGradient id="SVGID_9_" gradientUnits="userSpaceOnUse" x1="13.0963" y1="15.5556" x2="33.8696" y2="51.5361">
		<stop  offset="0" style="stop-color:#FFFFFF"/>
		<stop  offset="1" style="stop-color:#F1F0F0"/>
	</linearGradient>
	<polygon class="st11" points="37.5,49.44 37.5,18.21 14.08,17.09 8.5,18.21 8.5,47.21 	"/>
	<g>
		<linearGradient id="SVGID_10_" gradientUnits="userSpaceOnUse" x1="27.1198" y1="23.9878" x2="40.9387" y2="47.9229">
			<stop  offset="0" style="stop-color:#FFFFFF"/>
			<stop  offset="1" style="stop-color:#D2D2D2"/>
		</linearGradient>
		<polygon class="st12" points="29.7,22.5 36.5,19.1 36.5,48.78 31.97,53.1 31.4,52.54 		"/>
		<polygon class="st2" points="35.19,49.93 34.06,51 34.06,21.14 35.19,20.57 		"/>
		<polygon class="st3" points="35.19,49.93 36.33,48.83 36.33,20 35.19,20.57 		"/>
	</g>
	<g>
		<linearGradient id="SVGID_11_" gradientUnits="userSpaceOnUse" x1="10.0769" y1="17.9046" x2="31.9128" y2="55.7255">
			<stop  offset="0.1766" style="stop-color:#83BEDC"/>
			<stop  offset="1" style="stop-color:#285A78"/>
		</linearGradient>
		<polygon class="st13" points="32.5,55.39 32.5,22.24 8.5,18.82 8.5,49.67 		"/>
		<polygon class="st5" points="31.79,54.51 30.66,54.21 30.66,22.7 31.79,22.86 		"/>
		<polygon class="st5" points="14.79,50.45 15.92,50.74 15.92,20.59 14.79,20.44 		"/>
	</g>
	<g>
		<linearGradient id="SVGID_12_" gradientUnits="userSpaceOnUse" x1="7.712" y1="28.3026" x2="27.6618" y2="62.8568">
			<stop  offset="0" style="stop-color:#285A78"/>
			<stop  offset="0.1756" style="stop-color:#2D5F7D"/>
			<stop  offset="0.3898" style="stop-color:#3A6E8C"/>
			<stop  offset="0.624" style="stop-color:#5187A5"/>
			<stop  offset="0.8708" style="stop-color:#70A9C7"/>
			<stop  offset="1" style="stop-color:#83BEDC"/>
		</linearGradient>
		<polygon class="st14" points="14.22,50.92 8.56,49.57 8.56,18.96 14.22,19.77 		"/>
		<polygon class="st2" points="11.39,49.66 10.26,49.37 10.26,19.78 11.39,19.92 		"/>
		<polygon class="st5" points="13.66,50.17 12.52,49.89 12.52,20.13 13.66,20.31 		"/>
	</g>
</g>
<g>
	<g class="st15">
		<path class="st16" d="M53.94,34c0.16,0,0.32,0.06,0.43,0.18l2.44,2.44c0.11,0.11,0.18,0.27,0.18,0.43v2.44
			c0,0.16-0.06,0.32-0.18,0.43L42.15,54.6c-0.09,0.09-0.19,0.14-0.31,0.17l-6.11,1.22C35.69,56,35.65,56,35.61,56
			c-0.16,0-0.32-0.06-0.43-0.18c-0.14-0.14-0.21-0.35-0.17-0.55l1.22-6.11c0.02-0.12,0.08-0.23,0.17-0.31l14.67-14.67
			C51.18,34.06,51.34,34,51.5,34H53.94 M53.94,33H51.5c-0.43,0-0.83,0.17-1.14,0.47L35.69,48.14c-0.22,0.23-0.38,0.51-0.44,0.82
			l-1.22,6.11c-0.11,0.53,0.06,1.07,0.44,1.46c0.3,0.3,0.71,0.47,1.14,0.47c0.1,0,0.21-0.01,0.31-0.03l6.12-1.22
			c0.31-0.06,0.6-0.22,0.82-0.44l14.67-14.67c0.3-0.3,0.47-0.71,0.47-1.14v-2.44c0-0.43-0.17-0.83-0.47-1.14l-2.44-2.44
			C54.78,33.17,54.37,33,53.94,33L53.94,33z"/>
	</g>
	
		<linearGradient id="SVGID_13_" gradientUnits="userSpaceOnUse" x1="43.2404" y1="22.8399" x2="47.6876" y2="17.9008" gradientTransform="matrix(1 0 0 -1 0 66)">
		<stop  offset="0.2381" style="stop-color:#F5F6F6"/>
		<stop  offset="0.4112" style="stop-color:#E5E5E5"/>
		<stop  offset="0.6587" style="stop-color:#D3D4D3"/>
	</linearGradient>
	<polygon class="st17" points="35.61,55.39 36.83,49.28 51.5,34.61 53.94,34.61 56.39,37.06 56.39,39.5 41.72,54.17 	"/>
	
		<linearGradient id="SVGID_14_" gradientUnits="userSpaceOnUse" x1="42.8456" y1="22.5721" x2="47.2059" y2="17.7295" gradientTransform="matrix(1 0 0 -1 0 66)">
		<stop  offset="0" style="stop-color:#8ED7F3"/>
		<stop  offset="0.1638" style="stop-color:#8BD0EC"/>
		<stop  offset="0.3462" style="stop-color:#81C2DE"/>
		<stop  offset="0.5376" style="stop-color:#71AECA"/>
		<stop  offset="0.735" style="stop-color:#5D95B2"/>
		<stop  offset="0.9354" style="stop-color:#437997"/>
		<stop  offset="1" style="stop-color:#39708E"/>
	</linearGradient>
	<polygon class="st18" points="38.67,47.44 43.56,52.33 51.5,44.39 46.61,39.5 	"/>
	
		<linearGradient id="SVGID_15_" gradientUnits="userSpaceOnUse" x1="55.7019" y1="24.6257" x2="51.4166" y2="32.0481" gradientTransform="matrix(1 0 0 -1 0 66)">
		<stop  offset="0" style="stop-color:#171717"/>
		<stop  offset="1" style="stop-color:#525252"/>
	</linearGradient>
	<path class="st19" d="M56.82,36.62l-2.44-2.44C54.26,34.06,54.11,34,53.94,34H51.5c-0.16,0-0.32,0.06-0.43,0.18l-1.83,1.83
		c-0.24,0.24-0.24,0.63,0,0.86l4.89,4.89c0.12,0.12,0.28,0.18,0.43,0.18c0.16,0,0.31-0.06,0.43-0.18l1.83-1.83
		C56.94,39.82,57,39.66,57,39.5v-2.44C57,36.89,56.94,36.74,56.82,36.62z"/>
	
		<linearGradient id="SVGID_16_" gradientUnits="userSpaceOnUse" x1="37.6944" y1="9.9554" x2="35.4136" y2="13.9056" gradientTransform="matrix(1 0 0 -1 0 66)">
		<stop  offset="0" style="stop-color:#171717"/>
		<stop  offset="1" style="stop-color:#525252"/>
	</linearGradient>
	<path class="st20" d="M39.1,54.35l-2.44-2.44c-0.16-0.16-0.39-0.22-0.61-0.15s-0.38,0.24-0.42,0.46l-0.61,3.06
		c-0.04,0.2,0.02,0.41,0.17,0.55c0.12,0.12,0.27,0.18,0.43,0.18c0.04,0,0.08,0,0.12-0.01l3.06-0.61c0.22-0.04,0.4-0.21,0.46-0.42
		C39.32,54.74,39.26,54.51,39.1,54.35z"/>
	<line class="st21" x1="40.5" y1="48.67" x2="47.83" y2="41.33"/>
	<line class="st22" x1="42.33" y1="50.5" x2="49.67" y2="43.17"/>
</g>
</svg>
