<?xml version="1.0" encoding="utf-8"?>
<!-- Generator: Adobe Illustrator 27.1.1, SVG Export Plug-In . SVG Version: 6.00 Build 0)  -->
<svg version="1.1" id="Layer_1" xmlns="http://www.w3.org/2000/svg" xmlns:xlink="http://www.w3.org/1999/xlink" x="0px" y="0px"
	 viewBox="0 0 64 64" style="enable-background:new 0 0 64 64;" xml:space="preserve">
<style type="text/css">
	.st0{fill:url(#SVGID_1_);stroke:#323232;stroke-linecap:round;stroke-linejoin:round;stroke-miterlimit:10;}
	.st1{fill:none;stroke:#323232;stroke-linejoin:round;stroke-miterlimit:10;}
	
		.st2{fill:url(#SVGID_00000090254190439244588710000004737676070693207947_);stroke:#053755;stroke-linecap:round;stroke-linejoin:round;stroke-miterlimit:10;}
	.st3{fill:none;stroke:#053755;stroke-miterlimit:10;}
	.st4{fill:none;stroke:#323232;stroke-miterlimit:10;}
	.st5{fill:#C2C2C2;}
	.st6{fill:#AEAEAE;}
	.st7{fill:#797979;}
	.st8{fill:#E1E1E1;}
	.st9{fill:url(#SVGID_00000053528850136496500880000015021003138403185806_);}
	.st10{fill:none;stroke:#323232;stroke-width:0.8;stroke-miterlimit:10;}
	.st11{fill:#2D6D8B;}
	.st12{fill:#5A9AB8;}
	.st13{fill:#AADCFA;}
	.st14{clip-path:url(#SVGID_00000111167446799648204360000005762403415734204291_);}
	
		.st15{fill:url(#SVGID_00000103956708803675607930000003234426137149778862_);stroke:#323232;stroke-linecap:round;stroke-linejoin:round;stroke-miterlimit:10;}
	
		.st16{fill:url(#SVGID_00000009553923083848567030000016069619803010804119_);stroke:#053755;stroke-linecap:round;stroke-linejoin:round;stroke-miterlimit:10;}
	
		.st17{fill:url(#SVGID_00000029756402296289647520000015416150379055978892_);stroke:#323232;stroke-linecap:round;stroke-linejoin:round;stroke-miterlimit:10;}
	
		.st18{fill:url(#SVGID_00000058581750319326528950000017299758937861703054_);stroke:#053755;stroke-linecap:round;stroke-linejoin:round;stroke-miterlimit:10;}
	.st19{opacity:0.5;}
	.st20{fill:#FFFFFF;}
	.st21{fill:url(#SVGID_00000153672138473523369200000018354277551096616843_);}
	.st22{opacity:0.3;enable-background:new    ;}
	.st23{opacity:0.3;fill:#FFFFFF;enable-background:new    ;}
	.st24{opacity:0.5;fill:#646565;enable-background:new    ;}
	.st25{opacity:0.2;fill:#FFFFFF;enable-background:new    ;}
	.st26{fill:url(#SVGID_00000033344675813677314620000010360014568394597264_);stroke:#787979;stroke-linejoin:round;}
	.st27{opacity:0.5;fill:#FFFFFF;enable-background:new    ;}
	.st28{opacity:0.3;fill:url(#SVGID_00000167360726848534264680000003394900430925136560_);enable-background:new    ;}
	.st29{fill:none;stroke:#323232;stroke-linejoin:round;}
	.st30{fill:url(#SVGID_00000053510888817976483150000016894525055809074858_);}
	.st31{fill:none;stroke:#053755;stroke-linejoin:round;}
	.st32{fill:url(#SVGID_00000131365870760539180030000008799704750013778324_);}
	.st33{fill:url(#SVGID_00000078010167643745630170000002613873031503048382_);stroke:#797979;stroke-miterlimit:10;}
	.st34{fill:url(#SVGID_00000107551323972089955470000010152715012991488701_);stroke:#797979;stroke-miterlimit:10;}
	.st35{fill:url(#SVGID_00000041981485729911526420000007669716405949159075_);stroke:#797979;stroke-miterlimit:10;}
	.st36{fill:url(#SVGID_00000008870805989565881030000016644258193759618448_);}
	.st37{fill:url(#SVGID_00000165935873350989936190000003858712350891827345_);}
	.st38{fill:url(#SVGID_00000031927671467485164740000014245155740125248191_);stroke:#787979;stroke-linejoin:round;}
	.st39{opacity:0.3;fill:url(#SVGID_00000134221433826976706690000008090440048276045467_);enable-background:new    ;}
	.st40{fill:url(#SVGID_00000183950056219239583770000001685361393149778857_);}
	.st41{fill:url(#SVGID_00000044863618974204508550000017026692229096991376_);}
</style>
<g>
	<linearGradient id="SVGID_1_" gradientUnits="userSpaceOnUse" x1="14.0789" y1="18.8898" x2="32.6068" y2="50.9811">
		<stop  offset="0" style="stop-color:#FFFFFF"/>
		<stop  offset="1" style="stop-color:#D4D5D3"/>
	</linearGradient>
	<polygon class="st0" points="6.5,23.3 18.6,17.2 39.5,21.3 39.5,45.2 27.2,54.1 6.5,47.4 	"/>
	<polyline class="st1" points="27.5,54 27.5,28.1 38.7,21.5 27.5,28.1 6.7,23.2 	"/>
	
		<linearGradient id="SVGID_00000059285359807696864280000001196362639417875840_" gradientUnits="userSpaceOnUse" x1="23.5546" y1="21.5532" x2="32.7488" y2="37.4781">
		<stop  offset="0" style="stop-color:#8DD7F4"/>
		<stop  offset="1" style="stop-color:#386E8C"/>
	</linearGradient>
	
		<polygon style="fill:url(#SVGID_00000059285359807696864280000001196362639417875840_);stroke:#053755;stroke-linecap:round;stroke-linejoin:round;stroke-miterlimit:10;" points="
		16.5,37.4 16.5,25.6 28.7,19 39.5,21.1 39.5,32.9 27,40.8 	"/>
	<polyline class="st3" points="27.5,41 27.5,28.1 39.4,21.4 27.5,28.1 16.8,25.6 	"/>
</g>
<g>
	<defs>
		<circle id="SVGID_00000062885359638521425480000007411924201747573155_" cx="35.5" cy="22.5" r="14.5"/>
	</defs>
	<clipPath id="SVGID_00000067193862483710820010000007651423272057837495_">
		<use xlink:href="#SVGID_00000062885359638521425480000007411924201747573155_"  style="overflow:visible;"/>
	</clipPath>
	<g style="clip-path:url(#SVGID_00000067193862483710820010000007651423272057837495_);">
		
			<linearGradient id="SVGID_00000015337743144796961930000012361546766501709235_" gradientUnits="userSpaceOnUse" x1="8.1046" y1="14.6875" x2="33.1991" y2="58.1524">
			<stop  offset="0" style="stop-color:#FFFFFF"/>
			<stop  offset="1" style="stop-color:#D4D5D3"/>
		</linearGradient>
		
			<polygon style="fill:url(#SVGID_00000015337743144796961930000012361546766501709235_);stroke:#323232;stroke-linecap:round;stroke-linejoin:round;stroke-miterlimit:10;" points="
			-2.2,20.6 14.2,12.4 42.5,17.9 42.5,50.3 25.9,62.4 -2.2,53.3 		"/>
		<polyline class="st1" points="26.3,62.2 26.3,27.2 41.4,18.3 26.3,27.2 -1.9,20.6 		"/>
		
			<linearGradient id="SVGID_00000098179654689766709120000005315311666909496198_" gradientUnits="userSpaceOnUse" x1="20.9387" y1="18.2948" x2="33.3915" y2="39.8637">
			<stop  offset="0" style="stop-color:#8DD7F4"/>
			<stop  offset="1" style="stop-color:#386E8C"/>
		</linearGradient>
		
			<polygon style="fill:url(#SVGID_00000098179654689766709120000005315311666909496198_);stroke:#053755;stroke-linecap:round;stroke-linejoin:round;stroke-miterlimit:10;" points="
			11.4,39.8 11.4,23.8 27.9,14.9 42.5,17.6 42.5,33.7 25.6,44.3 		"/>
		<polyline class="st3" points="26.3,44.6 26.3,27.2 42.4,18.1 26.3,27.2 11.8,23.8 		"/>
	</g>
</g>
<g>
	<g class="st19">
		<path class="st20" d="M55.4,45c-0.8,0-1.6-0.3-2.2-0.9l-8.1-8.3l-1.4-1.4c-2.4,1.7-5.3,2.6-8.2,2.6c-8,0-14.5-6.5-14.5-14.5
			C21,14.5,27.5,8,35.5,8S50,14.5,50,22.5c0,2.7-0.7,5.4-2.2,7.6l1.5,1.5l8.3,8.1c1.2,1.2,1.2,3.1,0,4.3C57.1,44.7,56.3,45,55.4,45z
			 M35.5,12C29.7,12,25,16.7,25,22.5S29.7,33,35.5,33S46,28.3,46,22.5l0,0C46,16.7,41.3,12,35.5,12z"/>
		<path class="st20" d="M35.5,8.5c7.7,0,14,6.3,14,14c0,2.7-0.8,5.4-2.3,7.7L49,32l8.3,8.1c1,1,1,2.6,0,3.6c-1,1-2.6,1-3.6,0
			l-8.1-8.3l-1.7-1.7c-6.2,4.6-15,3.2-19.6-3s-3.2-15,3-19.6C29.6,9.4,32.5,8.5,35.5,8.5 M35.5,33.5c6.1,0,11-4.9,11-11
			s-4.9-11-11-11s-11,4.9-11,11S29.4,33.5,35.5,33.5 M35.5,7.5c-8.3,0-15,6.7-15,15s6.7,15,15,15c2.9,0,5.7-0.8,8.2-2.4l1.1,1.1
			l8.1,8.3c0.7,0.7,1.6,1,2.5,1c2,0,3.6-1.6,3.6-3.5c0-1-0.4-1.9-1-2.5l-8.3-8.1L48.5,30c4.2-7.2,1.8-16.3-5.4-20.5
			C40.8,8.2,38.2,7.5,35.5,7.5z M35.5,32.5c-5.5,0-10-4.5-10-10s4.5-10,10-10s10,4.5,10,10C45.5,28,41,32.5,35.5,32.5z"/>
	</g>
	<g>
		
			<linearGradient id="SVGID_00000114772657108626112360000015394802720693005213_" gradientUnits="userSpaceOnUse" x1="44.948" y1="30.448" x2="49.082" y2="34.582" gradientTransform="matrix(1 0 0 -1 0 66)">
			<stop  offset="4.000000e-02" style="stop-color:#A39F9F"/>
			<stop  offset="0.2" style="stop-color:#DDDDDD"/>
			<stop  offset="0.4" style="stop-color:#C6C6C5"/>
			<stop  offset="0.68" style="stop-color:#F5F5F5"/>
			<stop  offset="0.996" style="stop-color:#BEBEBE"/>
		</linearGradient>
		<path style="fill:url(#SVGID_00000114772657108626112360000015394802720693005213_);" d="M47,37l-3.5-3.5L47,30l3.5,3.5L47,37z"/>
		<polygon class="st22" points="47,35.3 44.7,33 44.2,33.5 47,36.3 49.8,33.5 49.3,33 		"/>
		<polygon class="st23" points="47,31.7 49.3,34 49.8,33.5 47,30.7 44.2,33.5 44.7,34 		"/>
		<path class="st24" d="M47.8,31.5L47,30.7l-2.8,2.8l1.2,1.2C46.3,33.7,47.1,32.7,47.8,31.5z"/>
	</g>
	<g>
		<circle class="st23" cx="35.5" cy="22.5" r="12.5"/>
		
			<linearGradient id="SVGID_00000090277067946132052800000008653692186772785798_" gradientUnits="userSpaceOnUse" x1="28.4988" y1="55.6264" x2="42.5012" y2="31.3736" gradientTransform="matrix(1 0 0 -1 0 66)">
			<stop  offset="0" style="stop-color:#FFFFFF"/>
			<stop  offset="1" style="stop-color:#D2D2D2"/>
		</linearGradient>
		<path style="fill:url(#SVGID_00000090277067946132052800000008653692186772785798_);stroke:#787979;stroke-linejoin:round;" d="
			M35.5,8.5c-7.7,0-14,6.3-14,14s6.3,14,14,14s14-6.3,14-14S43.2,8.5,35.5,8.5z M35.5,33.5c-6.1,0-11-4.9-11-11s4.9-11,11-11
			s11,4.9,11,11S41.6,33.5,35.5,33.5z"/>
		
			<linearGradient id="SVGID_00000101071315733908775060000005309140470942756512_" gradientUnits="userSpaceOnUse" x1="29.2489" y1="54.3271" x2="41.7511" y2="32.6729" gradientTransform="matrix(1 0 0 -1 0 66)">
			<stop  offset="0" style="stop-color:#000000"/>
			<stop  offset="1" style="stop-color:#FFFFFF"/>
		</linearGradient>
		<path style="opacity:0.3;fill:url(#SVGID_00000101071315733908775060000005309140470942756512_);enable-background:new    ;" d="
			M35.5,10C28.6,10,23,15.6,23,22.5S28.6,35,35.5,35S48,29.4,48,22.5S42.4,10,35.5,10z M35.5,34C29.1,34,24,28.9,24,22.5
			S29.1,11,35.5,11S47,16.1,47,22.5l0,0C47,28.8,41.8,34,35.5,34z"/>
	</g>
	<path class="st29" d="M50.5,33.5l-3.3-3.3c4.3-6.5,2.5-15.2-4-19.5s-15.2-2.5-19.5,4s-2.5,15.2,4,19.5c4.9,3.3,11.3,3.1,16.1-0.4
		L47,37L50.5,33.5z"/>
	<g>
		
			<linearGradient id="SVGID_00000023249757986642439810000012588999014644691626_" gradientUnits="userSpaceOnUse" x1="48.3047" y1="33.5986" x2="55.5087" y2="21.1216" gradientTransform="matrix(1 0 0 -1 0 66)">
			<stop  offset="0" style="stop-color:#8DD7F4"/>
			<stop  offset="1" style="stop-color:#386E8C"/>
		</linearGradient>
		<path style="fill:url(#SVGID_00000023249757986642439810000012588999014644691626_);" d="M57.3,40.1L49,32l-3.5,3.5l8.1,8.3
			c1,1,2.6,1,3.6-0.1C58.2,42.7,58.2,41.1,57.3,40.1z"/>
		<path class="st31" d="M57.3,40.1L49,32l-3.5,3.5l8.1,8.3c1,1,2.6,1,3.6-0.1C58.2,42.7,58.2,41.1,57.3,40.1z"/>
		<path class="st22" d="M56.9,42.4C56.5,42.8,56,43,55.5,43l0,0c-0.5,0-1.1-0.2-1.5-0.6L46.7,35l-0.5,0.5l7.8,7.9
			c0.4,0.4,0.9,0.6,1.5,0.6l0,0c1.1,0,2-0.9,2.1-2c0,0,0-0.1,0-0.1c0-0.2,0-0.3-0.1-0.5C57.4,41.8,57.2,42.1,56.9,42.4z"/>
		<path class="st23" d="M49,33.7l7.9,7.8c0.3,0.3,0.4,0.6,0.5,1c0-0.2,0.1-0.3,0.1-0.5c0-0.5-0.2-1.1-0.6-1.5L49,32.7l-2.8,2.8
			l0.5,0.5L49,33.7z"/>
		
			<linearGradient id="SVGID_00000054954038918411538890000018153497385075687321_" gradientUnits="userSpaceOnUse" x1="48.8307" y1="32.6909" x2="54.7734" y2="22.3986" gradientTransform="matrix(1 0 0 -1 0 66)">
			<stop  offset="0" style="stop-color:#8DD7F4"/>
			<stop  offset="0.256" style="stop-color:#8BD4F1"/>
			<stop  offset="0.442" style="stop-color:#83CBE8"/>
			<stop  offset="0.606" style="stop-color:#76BBD8"/>
			<stop  offset="0.757" style="stop-color:#64A4C2"/>
			<stop  offset="0.898" style="stop-color:#4D88A6"/>
			<stop  offset="1" style="stop-color:#386E8C"/>
		</linearGradient>
		<path style="fill:url(#SVGID_00000054954038918411538890000018153497385075687321_);" d="M56,41l-2-2l-5.5-5.5L47,35l7.5,7.5
			c0.5,0.5,0.6,0.5,1,0.5c0.5,0,1-0.4,1-0.9c0,0,0-0.1,0-0.1C56.5,41.6,56.3,41.3,56,41z"/>
	</g>
</g>
</svg>
