<?xml version="1.0" encoding="utf-8"?>
<!-- Generator: Adobe Illustrator 29.4.0, SVG Export Plug-In . SVG Version: 9.03 Build 0)  -->
<svg version="1.0" id="Layer_1" xmlns="http://www.w3.org/2000/svg" xmlns:xlink="http://www.w3.org/1999/xlink" x="0px" y="0px"
	 viewBox="0 0 64 64" style="enable-background:new 0 0 64 64;" xml:space="preserve">
<style type="text/css">
	
		.SINGLE_x0020_Blue_x0020_Item{fill:url(#SVGID_1_);stroke:#053755;stroke-linecap:round;stroke-linejoin:round;stroke-miterlimit:1;}
	
		.De_x002D_emphasized_x0020_WHITE_x0020_for_x0020_Vector_x0020_Highlights{opacity:0.5;fill:#FFFFFF;stroke:#FFFFFF;stroke-width:3;stroke-linejoin:round;stroke-miterlimit:10;}
	.st0{fill:url(#SVGID_00000081647501363288535580000007566553762308097153_);}
	.st1{fill:#323232;}
	
		.st2{opacity:0.3;fill:url(#V_GRIS_00000028313739405689013240000005552165203119978639_);stroke:#323232;stroke-linejoin:round;stroke-miterlimit:1;}
	.st3{opacity:0.3;fill:#E1E1E1;stroke:#323232;stroke-linejoin:round;stroke-miterlimit:1;}
	.st4{fill:url(#SVGID_00000177456038074993565110000004552739368700890758_);}
	.st5{fill:#063755;}
	
		.st6{fill:url(#SVGID_00000158010231734860368120000008966029878451612307_);stroke:#053755;stroke-linecap:round;stroke-linejoin:round;stroke-miterlimit:1;}
	
		.st7{fill:none;stroke:url(#SVGID_00000151544361919443292220000016351945582406893473_);stroke-linecap:round;stroke-linejoin:round;stroke-miterlimit:1;}
	.st8{fill:url(#SVGID_00000044869812909369175680000015640722476141420731_);}
	.st9{fill:url(#SVGID_00000137125905858519664520000001366763982660290214_);}
	.st10{fill:url(#SVGID_00000163042085905109404480000014571746486614484867_);}
	
		.st11{fill:url(#SVGID_00000130643680029313636000000015060778706720955296_);stroke:#787878;stroke-linecap:round;stroke-linejoin:round;stroke-miterlimit:1;}
	.st12{fill:none;stroke:#323232;stroke-linecap:round;stroke-linejoin:round;stroke-miterlimit:1;}
	.st13{opacity:0.8;}
	.st14{opacity:0.5;fill-rule:evenodd;clip-rule:evenodd;fill:url(#SVGID_00000007425530786604496990000013551305733027161233_);}
	.st15{opacity:0.45;}
	.st16{fill:#FFFFFD;}
	.st17{opacity:0.5;fill-rule:evenodd;clip-rule:evenodd;fill:url(#SVGID_00000067922612641399280510000014132994924195331752_);}
	.st18{opacity:0.5;fill-rule:evenodd;clip-rule:evenodd;fill:url(#SVGID_00000023266143073639403220000004559324158184402841_);}
	.st19{opacity:0.5;fill-rule:evenodd;clip-rule:evenodd;fill:url(#SVGID_00000149357083225232989870000004348553297941980606_);}
	.st20{opacity:0.5;}
	.st21{fill:#FFFFFF;}
	
		.st22{fill:url(#SVGID_00000155831558264019267870000016873273911676690352_);stroke:#323232;stroke-linecap:round;stroke-linejoin:round;stroke-miterlimit:1;}
	
		.st23{fill:url(#SVGID_00000171721258932626233170000013380667006046799234_);stroke:#053755;stroke-linecap:round;stroke-linejoin:round;stroke-miterlimit:1;}
	.st24{fill:url(#SVGID_00000025436145664967206150000005727561812995620771_);}
	
		.st25{fill:url(#SVGID_00000147913128814310796820000005472798546971901859_);stroke:#333332;stroke-linecap:round;stroke-linejoin:round;stroke-miterlimit:1;}
	
		.st26{fill:url(#SVGID_00000060004337999198810740000006186366816162134917_);stroke:#333332;stroke-linecap:round;stroke-linejoin:round;stroke-miterlimit:1;}
	.st27{fill:none;stroke:#FFFFFF;stroke-width:3;stroke-linejoin:round;stroke-miterlimit:10;}
	
		.st28{fill:url(#SVGID_00000157992749844107490400000013185259916831876256_);stroke:#323232;stroke-linecap:round;stroke-linejoin:round;stroke-miterlimit:1;}
	
		.st29{fill:url(#SVGID_00000156558259182571306080000014888176200522950311_);stroke:#053755;stroke-linecap:round;stroke-linejoin:round;stroke-miterlimit:1;}
	.st30{fill:url(#SVGID_00000016037777390144774810000007569687775160671158_);}
	
		.st31{fill:url(#SVGID_00000181809984093438294280000015429472327013358495_);stroke:#333332;stroke-linecap:round;stroke-linejoin:round;stroke-miterlimit:1;}
	
		.st32{fill:url(#SVGID_00000158022663861326845570000010858460851275637404_);stroke:#333332;stroke-linecap:round;stroke-linejoin:round;stroke-miterlimit:1;}
</style>
<linearGradient id="SVGID_1_" gradientUnits="userSpaceOnUse" x1="-466.8944" y1="-379.8944" x2="-467.3944" y2="-380.7604">
	<stop  offset="0" style="stop-color:#386F8D"/>
	<stop  offset="1" style="stop-color:#8DD7F4"/>
</linearGradient>
<g>
	<g id="base__x2A__x2A__00000082334781495963273240000014138304607055145352_">
		
			<linearGradient id="SVGID_00000156545181299880229710000007389916283175347358_" gradientUnits="userSpaceOnUse" x1="21.2599" y1="3.1864" x2="41.9513" y2="39.0248">
			<stop  offset="0" style="stop-color:#F4F5F5"/>
			<stop  offset="0.9921" style="stop-color:#D2D2D2"/>
		</linearGradient>
		<rect x="13.6" y="7.6" style="fill:url(#SVGID_00000156545181299880229710000007389916283175347358_);" width="36" height="27"/>
		<path class="st1" d="M49.1,8.1v26h-35v-26H49.1 M50.1,7.1h-37v28h37V7.1L50.1,7.1z"/>
	</g>
	
		<linearGradient id="V_GRIS_00000039825339486373286640000014502945498196321695_" gradientUnits="userSpaceOnUse" x1="25.6056" y1="25.1056" x2="37.6056" y2="25.1056">
		<stop  offset="0" style="stop-color:#F4F5F5"/>
		<stop  offset="0.9921" style="stop-color:#D2D2D2"/>
	</linearGradient>
	
		<path id="V_GRIS_00000011752397959063091960000015146896775765248422_" style="opacity:0.3;fill:url(#V_GRIS_00000039825339486373286640000014502945498196321695_);stroke:#323232;stroke-linejoin:round;stroke-miterlimit:1;" d="
		M37.6,15.1v20 M25.6,15.1v20"/>
	<path id="V_GRIS_00000071542025944560937970000016235829905393596298_" class="st3" d="M13.6,22.6v5h36v-5L13.6,22.6z"/>
	<g id="top__x2A__x2A__00000021087307286790602200000010124971597589055653_">
		
			<linearGradient id="SVGID_00000095316272574680252730000004273730186929319811_" gradientUnits="userSpaceOnUse" x1="21.3874" y1="13.228" x2="48.1058" y2="7.6784">
			<stop  offset="0" style="stop-color:#82BEDC"/>
			<stop  offset="1" style="stop-color:#285A78"/>
		</linearGradient>
		<rect x="13.6" y="7.6" style="fill:url(#SVGID_00000095316272574680252730000004273730186929319811_);" width="36" height="7"/>
		<path class="st5" d="M49.1,8.1v6h-35v-6H49.1 M50.1,7.1h-37v8h37V7.1L50.1,7.1z"/>
	</g>
	<g id="base_contour___x2A__x2A__00000139977963529408249440000017749045062458101909_">
		<path class="st1" d="M49.1,8.1v26h-35v-26H49.1 M50.1,7.1h-37v28h37V7.1L50.1,7.1z"/>
	</g>
</g>
<g>
	
		<linearGradient id="SVGID_00000096050440508041821980000006189509004429604794_" gradientUnits="userSpaceOnUse" x1="54.2511" y1="58.11" x2="37.8639" y2="29.7265">
		<stop  offset="0" style="stop-color:#386F8D"/>
		<stop  offset="1" style="stop-color:#8DD7F4"/>
	</linearGradient>
	
		<circle style="fill:url(#SVGID_00000096050440508041821980000006189509004429604794_);stroke:#053755;stroke-linecap:round;stroke-linejoin:round;stroke-miterlimit:1;" cx="46.1" cy="44" r="12.5"/>
	
		<linearGradient id="SVGID_00000116215645971549429190000006135827141288030851_" gradientUnits="userSpaceOnUse" x1="49.6052" y1="50.0631" x2="42.6041" y2="37.9369">
		<stop  offset="0" style="stop-color:#161616"/>
		<stop  offset="1" style="stop-color:#474747"/>
	</linearGradient>
	
		<circle style="fill:none;stroke:url(#SVGID_00000116215645971549429190000006135827141288030851_);stroke-linecap:round;stroke-linejoin:round;stroke-miterlimit:1;" cx="46.1" cy="44" r="6.5"/>
	
		<linearGradient id="SVGID_00000107548328250290365920000015353093197259817637_" gradientUnits="userSpaceOnUse" x1="50.5857" y1="51.8654" x2="41.6255" y2="36.3458">
		<stop  offset="0" style="stop-color:#161616"/>
		<stop  offset="1" style="stop-color:#474747"/>
	</linearGradient>
	<rect x="45.5" y="34.1" style="fill:url(#SVGID_00000107548328250290365920000015353093197259817637_);" width="1.2" height="20"/>
	
		<linearGradient id="SVGID_00000067947663365021352950000009204664351053755041_" gradientUnits="userSpaceOnUse" x1="48.8654" y1="48.8857" x2="43.3458" y2="39.3255">
		<stop  offset="0" style="stop-color:#161616"/>
		<stop  offset="1" style="stop-color:#474747"/>
	</linearGradient>
	<rect x="36.1" y="43.5" style="fill:url(#SVGID_00000067947663365021352950000009204664351053755041_);" width="20" height="1.2"/>
</g>
<g>
	<g>
		
			<linearGradient id="SVGID_00000083073949167534318070000011431067251908127161_" gradientUnits="userSpaceOnUse" x1="11.8804" y1="31.0587" x2="26.9422" y2="57.1464">
			<stop  offset="0" style="stop-color:#F5F5F5"/>
			<stop  offset="0.9921" style="stop-color:#D2D2D2"/>
		</linearGradient>
		<path style="fill:url(#SVGID_00000083073949167534318070000011431067251908127161_);" d="M24.4,28.1H9.6c-0.3,0-0.5,0.2-0.5,0.5
			v27.9c0,0.3,0.2,0.5,0.5,0.5h21.9c0.3,0,0.6-0.2,0.6-0.6V35.7c0,0,0,0,0,0L24.4,28.1C24.4,28.1,24.4,28.1,24.4,28.1z"/>
		
			<linearGradient id="SVGID_00000149377108887091508670000013804655661230488754_" gradientUnits="userSpaceOnUse" x1="23.7543" y1="28.9418" x2="28.1766" y2="36.6016">
			<stop  offset="0" style="stop-color:#F5F5F5"/>
			<stop  offset="0.9921" style="stop-color:#D2D2D2"/>
		</linearGradient>
		
			<polyline style="fill:url(#SVGID_00000149377108887091508670000013804655661230488754_);stroke:#787878;stroke-linecap:round;stroke-linejoin:round;stroke-miterlimit:1;" points="
			31.6,35.6 23.6,35.6 23.6,27.6 		"/>
		<path class="st12" d="M23.9,27.6L9.7,27.7c-0.6,0-1.1,0.5-1.1,1.1v27.3c0,0.3,0.2,0.5,0.5,0.5h21.4c0.6,0,1.1-0.5,1.1-1.1V35.2
			L23.9,27.6z"/>
	</g>
	<g class="st13">
		
			<linearGradient id="SVGID_00000018210396564587260120000010940119790201917630_" gradientUnits="userSpaceOnUse" x1="18.6301" y1="37.1122" x2="14.5811" y2="30.099">
			<stop  offset="0" style="stop-color:#161616"/>
			<stop  offset="1" style="stop-color:#515151"/>
		</linearGradient>
		
			<rect x="11.1" y="32.1" style="opacity:0.5;fill-rule:evenodd;clip-rule:evenodd;fill:url(#SVGID_00000018210396564587260120000010940119790201917630_);" width="11" height="3"/>
		<g class="st15">
			<path class="st16" d="M22.1,32.1v3h-11v-3H22.1 M22.1,31.1h-11c-0.6,0-1,0.4-1,1v3c0,0.6,0.4,1,1,1h11c0.6,0,1-0.4,1-1v-3
				C23.1,31.6,22.7,31.1,22.1,31.1L22.1,31.1z"/>
		</g>
	</g>
	<g class="st13">
		
			<linearGradient id="SVGID_00000044147153809912586090000001713528042501074359_" gradientUnits="userSpaceOnUse" x1="23.0051" y1="44.6277" x2="17.2061" y2="34.5835">
			<stop  offset="0" style="stop-color:#161616"/>
			<stop  offset="1" style="stop-color:#515151"/>
		</linearGradient>
		
			<rect x="11.1" y="38.1" style="opacity:0.5;fill-rule:evenodd;clip-rule:evenodd;fill:url(#SVGID_00000044147153809912586090000001713528042501074359_);" width="18" height="3"/>
		<g class="st15">
			<path class="st16" d="M29.1,38.1v3h-18v-3H29.1 M29.1,37.1h-18c-0.6,0-1,0.4-1,1v3c0,0.6,0.4,1,1,1h18c0.6,0,1-0.4,1-1v-3
				C30.1,37.6,29.7,37.1,29.1,37.1L29.1,37.1z"/>
		</g>
	</g>
	<g class="st13">
		
			<linearGradient id="SVGID_00000044152040928508755760000015651503739421330614_" gradientUnits="userSpaceOnUse" x1="23.0051" y1="50.6277" x2="17.2061" y2="40.5835">
			<stop  offset="0" style="stop-color:#161616"/>
			<stop  offset="1" style="stop-color:#515151"/>
		</linearGradient>
		
			<rect x="11.1" y="44.1" style="opacity:0.5;fill-rule:evenodd;clip-rule:evenodd;fill:url(#SVGID_00000044152040928508755760000015651503739421330614_);" width="18" height="3"/>
		<g class="st15">
			<path class="st16" d="M29.1,44.1v3h-18v-3H29.1 M29.1,43.1h-18c-0.6,0-1,0.4-1,1v3c0,0.6,0.4,1,1,1h18c0.6,0,1-0.4,1-1v-3
				C30.1,43.6,29.7,43.1,29.1,43.1L29.1,43.1z"/>
		</g>
	</g>
	<g class="st13">
		
			<linearGradient id="SVGID_00000072971212747202044210000007326533871219492486_" gradientUnits="userSpaceOnUse" x1="23.0051" y1="56.6277" x2="17.2061" y2="46.5835">
			<stop  offset="0" style="stop-color:#161616"/>
			<stop  offset="1" style="stop-color:#515151"/>
		</linearGradient>
		
			<rect x="11.1" y="50.1" style="opacity:0.5;fill-rule:evenodd;clip-rule:evenodd;fill:url(#SVGID_00000072971212747202044210000007326533871219492486_);" width="18" height="3"/>
		<g class="st15">
			<path class="st16" d="M29.1,50.1v3h-18v-3H29.1 M29.1,49.1h-18c-0.6,0-1,0.4-1,1v3c0,0.6,0.4,1,1,1h18c0.6,0,1-0.4,1-1v-3
				C30.1,49.6,29.7,49.1,29.1,49.1L29.1,49.1z"/>
		</g>
	</g>
</g>
<g>
	<g class="st20">
		<g>
			<path class="st21" d="M27.6,34.9c0,0-4,2.8-5.9,2.8c0,0,1.3-4.4,2.8-5.9L27.6,34.9z"/>
			<g>
				<path class="st21" d="M24.4,31.9c0,0,2.2,1.7,3.2,3l8-8l-3.1-3.1L24.4,31.9z"/>
			</g>
			<g>
				<path class="st21" d="M22.4,35.6c-0.5,1.2-0.8,2.2-0.8,2.2c0.6,0,1.3-0.3,2.1-0.6C23.3,36.7,22.8,36.1,22.4,35.6z"/>
			</g>
			<g>
				<path class="st21" d="M38.3,24.2c0-2.5-0.7-3.1-3.1-3.1L33,23.3l3.1,3.1L38.3,24.2z"/>
			</g>
			<path class="st21" d="M32.1,24.3l1.3-1.3c1.3,0,3.2,1.6,3.2,3.2L34.6,28c0-0.9-1.6-3.2-3.2-3.2L32.1,24.3z"/>
		</g>
		<g>
			
				<linearGradient id="SVGID_00000032632152640893905890000013185379664579395229_" gradientUnits="userSpaceOnUse" x1="22.5939" y1="-771.3906" x2="25.3794" y2="-774.1761" gradientTransform="matrix(1 0 0 -1 0 -737.0644)">
				<stop  offset="0.3052" style="stop-color:#F5F6F6"/>
				<stop  offset="0.5217" style="stop-color:#BFBEBE"/>
			</linearGradient>
			
				<path style="fill:url(#SVGID_00000032632152640893905890000013185379664579395229_);stroke:#323232;stroke-linecap:round;stroke-linejoin:round;stroke-miterlimit:1;" d="
				M27.6,34.9c0,0-4,2.8-5.9,2.8c0,0,1.3-4.4,2.8-5.9L27.6,34.9z"/>
			<g>
				
					<linearGradient id="SVGID_00000108289555414101895760000001473054557583239308_" gradientUnits="userSpaceOnUse" x1="31.233" y1="-767.6503" x2="28.526" y2="-764.9433" gradientTransform="matrix(1 0 0 -1 0 -737.0644)">
					<stop  offset="2.040000e-02" style="stop-color:#386F8D"/>
					<stop  offset="7.650000e-02" style="stop-color:#386F8D"/>
					<stop  offset="0.1275" style="stop-color:#5A99B8"/>
					<stop  offset="0.141" style="stop-color:#4983A2"/>
					<stop  offset="0.1576" style="stop-color:#3A708F"/>
					<stop  offset="0.1772" style="stop-color:#306382"/>
					<stop  offset="0.2021" style="stop-color:#2A5B7A"/>
					<stop  offset="0.2504" style="stop-color:#285978"/>
					<stop  offset="0.3474" style="stop-color:#285978"/>
					<stop  offset="0.4494" style="stop-color:#285978"/>
					<stop  offset="0.704" style="stop-color:#8DD7F4"/>
					<stop  offset="0.7498" style="stop-color:#8AD3F0"/>
					<stop  offset="0.7973" style="stop-color:#7FC6E4"/>
					<stop  offset="0.8456" style="stop-color:#6EB2CF"/>
					<stop  offset="0.8944" style="stop-color:#5795B2"/>
					<stop  offset="0.9432" style="stop-color:#38708E"/>
					<stop  offset="0.9439" style="stop-color:#386F8D"/>
					<stop  offset="1" style="stop-color:#386F8D"/>
				</linearGradient>
				
					<path style="fill:url(#SVGID_00000108289555414101895760000001473054557583239308_);stroke:#053755;stroke-linecap:round;stroke-linejoin:round;stroke-miterlimit:1;" d="
					M24.4,31.9c0,0,2.2,1.7,3.2,3l8-8l-3.1-3.1L24.4,31.9z"/>
			</g>
			<g>
				
					<linearGradient id="SVGID_00000118381214149526533520000013750228461265948837_" gradientUnits="userSpaceOnUse" x1="22.8781" y1="-774.8293" x2="20.7196" y2="-771.0906" gradientTransform="matrix(1 0 0 -1 0 -737.0644)">
					<stop  offset="0" style="stop-color:#161616"/>
					<stop  offset="1" style="stop-color:#515151"/>
				</linearGradient>
				<path style="fill:url(#SVGID_00000118381214149526533520000013750228461265948837_);" d="M22.4,35.6c-0.5,1.2-0.8,2.2-0.8,2.2
					c0.6,0,1.3-0.3,2.1-0.6C23.3,36.7,22.8,36.1,22.4,35.6z"/>
			</g>
			<g>
				
					<linearGradient id="SVGID_00000023244034887956744720000007189410678780201608_" gradientUnits="userSpaceOnUse" x1="34.7469" y1="-758.988" x2="39.0186" y2="-763.2598" gradientTransform="matrix(1 0 0 -1 0 -737.0644)">
					<stop  offset="0.1429" style="stop-color:#ABABAB"/>
					<stop  offset="0.3418" style="stop-color:#5B5B5B"/>
					<stop  offset="0.4745" style="stop-color:#606060"/>
					<stop  offset="0.8367" style="stop-color:#ABABAB"/>
				</linearGradient>
				
					<path style="fill:url(#SVGID_00000023244034887956744720000007189410678780201608_);stroke:#333332;stroke-linecap:round;stroke-linejoin:round;stroke-miterlimit:1;" d="
					M38.3,24.2c0-2.5-0.7-3.1-3.1-3.1L33,23.3l3.1,3.1L38.3,24.2z"/>
			</g>
			
				<linearGradient id="SVGID_00000003794892488799588920000012203001708168554663_" gradientUnits="userSpaceOnUse" x1="32.9646" y1="-761.0679" x2="35.5882" y2="-763.6915" gradientTransform="matrix(1 0 0 -1 0 -737.0644)">
				<stop  offset="3.570000e-02" style="stop-color:#E1E1E1"/>
				<stop  offset="0.2449" style="stop-color:#ABABAB"/>
				<stop  offset="0.5" style="stop-color:#5B5B5B"/>
				<stop  offset="0.7347" style="stop-color:#5B5B5B"/>
				<stop  offset="0.9337" style="stop-color:#ABABAB"/>
			</linearGradient>
			
				<path style="fill:url(#SVGID_00000003794892488799588920000012203001708168554663_);stroke:#333332;stroke-linecap:round;stroke-linejoin:round;stroke-miterlimit:1;" d="
				M32.1,24.3l1.3-1.3c1.3,0,3.2,1.6,3.2,3.2L34.6,28c0-0.9-1.6-3.2-3.2-3.2L32.1,24.3z"/>
		</g>
		<g>
			<path class="st27" d="M27.6,34.9c0,0-4,2.8-5.9,2.8c0,0,1.3-4.4,2.8-5.9L27.6,34.9z"/>
			<g>
				<path class="st27" d="M24.4,31.9c0,0,2.2,1.7,3.2,3l8-8l-3.1-3.1L24.4,31.9z"/>
			</g>
			<g>
				<path class="st27" d="M22.4,35.6c-0.5,1.2-0.8,2.2-0.8,2.2c0.6,0,1.3-0.3,2.1-0.6C23.3,36.7,22.8,36.1,22.4,35.6z"/>
			</g>
			<g>
				<path class="st27" d="M38.3,24.2c0-2.5-0.7-3.1-3.1-3.1L33,23.3l3.1,3.1L38.3,24.2z"/>
			</g>
			<path class="st27" d="M32.1,24.3l1.3-1.3c1.3,0,3.2,1.6,3.2,3.2L34.6,28c0-0.9-1.6-3.2-3.2-3.2L32.1,24.3z"/>
		</g>
	</g>
	<g>
		
			<linearGradient id="SVGID_00000151533982552874673910000015174035936262565027_" gradientUnits="userSpaceOnUse" x1="22.5939" y1="-771.3906" x2="25.3794" y2="-774.1761" gradientTransform="matrix(1 0 0 -1 0 -737.0644)">
			<stop  offset="0.3052" style="stop-color:#F5F6F6"/>
			<stop  offset="0.5217" style="stop-color:#BFBEBE"/>
		</linearGradient>
		
			<path style="fill:url(#SVGID_00000151533982552874673910000015174035936262565027_);stroke:#323232;stroke-linecap:round;stroke-linejoin:round;stroke-miterlimit:1;" d="
			M27.6,34.9c0,0-4,2.8-5.9,2.8c0,0,1.3-4.4,2.8-5.9L27.6,34.9z"/>
		<g>
			
				<linearGradient id="SVGID_00000114073907621255236330000006529765162629386133_" gradientUnits="userSpaceOnUse" x1="31.233" y1="-767.6503" x2="28.526" y2="-764.9433" gradientTransform="matrix(1 0 0 -1 0 -737.0644)">
				<stop  offset="2.040000e-02" style="stop-color:#386F8D"/>
				<stop  offset="7.650000e-02" style="stop-color:#386F8D"/>
				<stop  offset="0.1275" style="stop-color:#5A99B8"/>
				<stop  offset="0.141" style="stop-color:#4983A2"/>
				<stop  offset="0.1576" style="stop-color:#3A708F"/>
				<stop  offset="0.1772" style="stop-color:#306382"/>
				<stop  offset="0.2021" style="stop-color:#2A5B7A"/>
				<stop  offset="0.2504" style="stop-color:#285978"/>
				<stop  offset="0.3474" style="stop-color:#285978"/>
				<stop  offset="0.4494" style="stop-color:#285978"/>
				<stop  offset="0.704" style="stop-color:#8DD7F4"/>
				<stop  offset="0.7498" style="stop-color:#8AD3F0"/>
				<stop  offset="0.7973" style="stop-color:#7FC6E4"/>
				<stop  offset="0.8456" style="stop-color:#6EB2CF"/>
				<stop  offset="0.8944" style="stop-color:#5795B2"/>
				<stop  offset="0.9432" style="stop-color:#38708E"/>
				<stop  offset="0.9439" style="stop-color:#386F8D"/>
				<stop  offset="1" style="stop-color:#386F8D"/>
			</linearGradient>
			
				<path style="fill:url(#SVGID_00000114073907621255236330000006529765162629386133_);stroke:#053755;stroke-linecap:round;stroke-linejoin:round;stroke-miterlimit:1;" d="
				M24.4,31.9c0,0,2.2,1.7,3.2,3l8-8l-3.1-3.1L24.4,31.9z"/>
		</g>
		<g>
			
				<linearGradient id="SVGID_00000139274635941554003180000014282063499524353464_" gradientUnits="userSpaceOnUse" x1="22.8781" y1="-774.8293" x2="20.7196" y2="-771.0906" gradientTransform="matrix(1 0 0 -1 0 -737.0644)">
				<stop  offset="0" style="stop-color:#161616"/>
				<stop  offset="1" style="stop-color:#515151"/>
			</linearGradient>
			<path style="fill:url(#SVGID_00000139274635941554003180000014282063499524353464_);" d="M22.4,35.6c-0.5,1.2-0.8,2.2-0.8,2.2
				c0.6,0,1.3-0.3,2.1-0.6C23.3,36.7,22.8,36.1,22.4,35.6z"/>
		</g>
		<g>
			
				<linearGradient id="SVGID_00000067222011833657040900000003930116185376040609_" gradientUnits="userSpaceOnUse" x1="34.7469" y1="-758.988" x2="39.0186" y2="-763.2598" gradientTransform="matrix(1 0 0 -1 0 -737.0644)">
				<stop  offset="0.1429" style="stop-color:#ABABAB"/>
				<stop  offset="0.3418" style="stop-color:#5B5B5B"/>
				<stop  offset="0.4745" style="stop-color:#606060"/>
				<stop  offset="0.8367" style="stop-color:#ABABAB"/>
			</linearGradient>
			
				<path style="fill:url(#SVGID_00000067222011833657040900000003930116185376040609_);stroke:#333332;stroke-linecap:round;stroke-linejoin:round;stroke-miterlimit:1;" d="
				M38.3,24.2c0-2.5-0.7-3.1-3.1-3.1L33,23.3l3.1,3.1L38.3,24.2z"/>
		</g>
		
			<linearGradient id="SVGID_00000085223830913683569770000008637819870780355464_" gradientUnits="userSpaceOnUse" x1="32.9646" y1="-761.0679" x2="35.5882" y2="-763.6915" gradientTransform="matrix(1 0 0 -1 0 -737.0644)">
			<stop  offset="3.570000e-02" style="stop-color:#E1E1E1"/>
			<stop  offset="0.2449" style="stop-color:#ABABAB"/>
			<stop  offset="0.5" style="stop-color:#5B5B5B"/>
			<stop  offset="0.7347" style="stop-color:#5B5B5B"/>
			<stop  offset="0.9337" style="stop-color:#ABABAB"/>
		</linearGradient>
		
			<path style="fill:url(#SVGID_00000085223830913683569770000008637819870780355464_);stroke:#333332;stroke-linecap:round;stroke-linejoin:round;stroke-miterlimit:1;" d="
			M32.1,24.3l1.3-1.3c1.3,0,3.2,1.6,3.2,3.2L34.6,28c0-0.9-1.6-3.2-3.2-3.2L32.1,24.3z"/>
	</g>
</g>
</svg>
