<?xml version="1.0" encoding="utf-8"?>
<!-- Generator: Adobe Illustrator 27.5.0, SVG Export Plug-In . SVG Version: 6.00 Build 0)  -->
<svg version="1.1" id="it_4" xmlns="http://www.w3.org/2000/svg" xmlns:xlink="http://www.w3.org/1999/xlink" x="0px" y="0px"
	 viewBox="0 0 64 64" style="enable-background:new 0 0 64 64;" xml:space="preserve">
<style type="text/css">
	.st0{opacity:0.4;}
	.st1{fill:url(#SVGID_1_);stroke:#96341F;stroke-linejoin:round;}
	.st2{fill:url(#SVGID_00000183227364719019490210000012490264217387537290_);stroke:#323232;stroke-miterlimit:10;}
	.st3{fill:none;stroke:#323232;stroke-linecap:round;stroke-linejoin:round;}
	.st4{opacity:0.6;}
	.st5{fill:url(#SVGID_00000038371374525922382540000000396934336029758884_);stroke:#96341F;stroke-linejoin:round;}
	.st6{fill:url(#SVGID_00000021111938542665429180000006314324405435253412_);stroke:#323232;stroke-miterlimit:10;}
	.st7{fill:url(#SVGID_00000100360162055291925290000011458060191240421556_);stroke:#323232;stroke-linejoin:round;}
	.st8{opacity:0.5;fill:#646565;enable-background:new    ;}
	.st9{fill:url(#SVGID_00000021083688455641069490000012443097669978165390_);stroke:#323232;stroke-linejoin:round;}
	.st10{fill:url(#SVGID_00000003096887369560677940000002446197054672704932_);}
	.st11{fill:url(#SVGID_00000077282008160060235210000004348049605616664471_);}
	.st12{fill:url(#SVGID_00000124871128859560530050000017159089220233361558_);}
	.st13{fill:url(#SVGID_00000011730693075403229500000010847877994219854997_);}
	.st14{fill:url(#SVGID_00000007390321211239840420000001224494219175018668_);}
	.st15{fill:none;stroke:#053755;stroke-linejoin:round;}
	.st16{fill:url(#SVGID_00000071537606850498870290000006038148791010214800_);}
	.st17{fill:url(#SVGID_00000151533948694250399270000014328247056663753144_);}
	.st18{fill:url(#SVGID_00000053544677828376136660000001568694623384144566_);stroke:#96341F;stroke-linejoin:round;}
	.st19{opacity:0.3;}
	.st20{fill:url(#SVGID_00000069382560916802783710000010939752869819782806_);}
	.st21{fill:url(#SVGID_00000061432160073538289260000016459262871693276304_);stroke:#323232;stroke-miterlimit:10;}
	.st22{opacity:0.3;enable-background:new    ;}
	.st23{fill:#FFFFFF;}
	
		.st24{fill:url(#SVGID_00000177455521118549213850000015052678622832299657_);stroke:#323232;stroke-linejoin:round;stroke-miterlimit:10;}
	
		.st25{fill:url(#SVGID_00000011733986197522991330000002724016681609809335_);stroke:#003755;stroke-linejoin:round;stroke-miterlimit:10;}
	
		.st26{fill:url(#SVGID_00000088840434337664635500000009808849384952939911_);stroke:#323232;stroke-linejoin:round;stroke-miterlimit:10;}
	
		.st27{fill:url(#SVGID_00000030474924157650008640000003875306041251360445_);stroke:#003755;stroke-linejoin:round;stroke-miterlimit:10;}
	
		.st28{fill:url(#SVGID_00000159469131584618142410000015212515502807049661_);stroke:#323232;stroke-linejoin:round;stroke-miterlimit:10;}
	
		.st29{fill:url(#SVGID_00000152968199193363720090000003120508192305519256_);stroke:#003755;stroke-linejoin:round;stroke-miterlimit:10;}
	
		.st30{fill:url(#SVGID_00000024713142649738064820000015558864505660102813_);stroke:#323232;stroke-linejoin:round;stroke-miterlimit:10;}
	
		.st31{fill:url(#SVGID_00000155139879192109410880000008174858958411286662_);stroke:#003755;stroke-linejoin:round;stroke-miterlimit:10;}
	.st32{display:none;}
	.st33{display:inline;fill:#FFFFFF;}
</style>
<g class="st0">
	
		<linearGradient id="SVGID_1_" gradientUnits="userSpaceOnUse" x1="83.2819" y1="63.288" x2="86.1119" y2="58.388" gradientTransform="matrix(1 0 0 -1 0 66)">
		<stop  offset="0" style="stop-color:#FAE769"/>
		<stop  offset="1" style="stop-color:#F1CF30"/>
	</linearGradient>
	<path class="st1" d="M88.2,6.2c0,0.1,0,0.2-0.1,0.2c-0.1,0.1-0.1,0.1-0.2,0.1h-5c-0.1,0-0.2,0-0.2-0.1c-0.1-0.1-0.1-0.1-0.1-0.2
		c0-0.1,0-0.1,0-0.2L85,1.7c0-0.1,0.1-0.1,0.1-0.1c0,0,0.1,0,0.2,0c0,0,0.1,0,0.2,0c0,0,0.1,0.1,0.1,0.1L88,6.1
		C88.1,6.1,88.1,6.2,88.2,6.2z"/>
	
		<linearGradient id="SVGID_00000059995745841979939140000017016516907178943898_" gradientUnits="userSpaceOnUse" x1="84.5901" y1="61.8501" x2="85.8801" y2="59.6201" gradientTransform="matrix(1 0 0 -1 0 66)">
		<stop  offset="0" style="stop-color:#B4B1B0"/>
		<stop  offset="1" style="stop-color:#615D5C"/>
	</linearGradient>
	<path style="fill:url(#SVGID_00000059995745841979939140000017016516907178943898_);stroke:#323232;stroke-miterlimit:10;" d="
		M86.6,5.1h-0.1c0-0.3-0.2-0.5-0.5-0.5h-0.1c0-0.4-0.4-0.6-0.7-0.6c-0.4,0-0.7,0.3-0.7,0.7c0,0,0,0.1,0,0.1h-0.1
		c-0.3,0-0.5,0.2-0.5,0.5s0.2,0.5,0.5,0.5h2.3c0.2,0,0.4-0.2,0.4-0.4C87,5.3,86.8,5.1,86.6,5.1C86.6,5.1,86.6,5.1,86.6,5.1L86.6,5.1
		z"/>
	<path class="st3" d="M85.4,5c0.1-0.2,0.2-0.3,0.4-0.3"/>
</g>
<g class="st4">
	
		<linearGradient id="SVGID_00000111189986509532014990000003491399806887326850_" gradientUnits="userSpaceOnUse" x1="74.8525" y1="62.3931" x2="77.6825" y2="57.4931" gradientTransform="matrix(1 0 0 -1 0 66)">
		<stop  offset="0" style="stop-color:#FAE769"/>
		<stop  offset="1" style="stop-color:#F1CF30"/>
	</linearGradient>
	<path style="fill:url(#SVGID_00000111189986509532014990000003491399806887326850_);stroke:#96341F;stroke-linejoin:round;" d="
		M86,16.1c0,0.1,0,0.2-0.1,0.3c-0.1,0.1-0.2,0.1-0.3,0.1h-7c-0.1,0-0.2,0-0.3-0.1c-0.1-0.1-0.1-0.2-0.1-0.3c0-0.1,0-0.2,0.1-0.2
		l3.5-6.1c0-0.1,0.1-0.1,0.2-0.2c0.1,0,0.1-0.1,0.2-0.1c0.1,0,0.1,0,0.2,0.1c0.1,0,0.1,0.1,0.2,0.2l3.5,6.1C86,16,86,16,86,16.1z"/>
	
		<linearGradient id="SVGID_00000067940070415355467020000015849536491792587958_" gradientUnits="userSpaceOnUse" x1="81.0488" y1="52.8482" x2="82.8488" y2="49.7282" gradientTransform="matrix(1 0 0 -1 0 66)">
		<stop  offset="0" style="stop-color:#B4B1B0"/>
		<stop  offset="1" style="stop-color:#615D5C"/>
	</linearGradient>
	<path style="fill:url(#SVGID_00000067940070415355467020000015849536491792587958_);stroke:#323232;stroke-miterlimit:10;" d="
		M83.8,14.6h-0.2c0-0.4-0.3-0.7-0.8-0.7h-0.2c0-0.6-0.5-1-1.1-0.9c-0.6,0-1,0.5-0.9,1.1c0,0.1,0,0.1,0,0.2h-0.1
		c-0.4,0-0.8,0.3-0.8,0.8c0,0.4,0.3,0.8,0.8,0.8h3.2c0.3,0,0.6-0.2,0.6-0.5c0-0.3-0.2-0.6-0.5-0.6C83.9,14.6,83.9,14.6,83.8,14.6
		L83.8,14.6z"/>
	<path class="st3" d="M82.2,14.3c0.1-0.2,0.3-0.4,0.5-0.5"/>
</g>
<linearGradient id="SVGID_00000059309757507098549420000009991931511562429369_" gradientUnits="userSpaceOnUse" x1="38.9911" y1="25.6282" x2="47.0489" y2="11.6818" gradientTransform="matrix(1 0 0 -1 0 66)">
	<stop  offset="0" style="stop-color:#FFFFFF"/>
	<stop  offset="1" style="stop-color:#D4D5D3"/>
</linearGradient>
<polygon style="fill:url(#SVGID_00000059309757507098549420000009991931511562429369_);stroke:#323232;stroke-linejoin:round;" points="
	47.8,53.9 36.5,42.5 38.2,40.8 49.5,52.2 "/>
<path class="st8" d="M38.2,41.4l-1.2,1.2l3.9,4c0.6-0.2,1.2-0.4,1.8-0.5L38.2,41.4z"/>
<linearGradient id="SVGID_00000003795775607151803790000004754786880347258790_" gradientUnits="userSpaceOnUse" x1="49.9324" y1="16.2414" x2="53.1924" y2="10.5914" gradientTransform="matrix(1 0 0 -1 0 66)">
	<stop  offset="0" style="stop-color:#ABABAB"/>
	<stop  offset="1" style="stop-color:#5A5B5B"/>
</linearGradient>
<path style="fill:url(#SVGID_00000003795775607151803790000004754786880347258790_);stroke:#323232;stroke-linejoin:round;" d="
	M54.3,48.8c-0.5-0.5-1.3-0.4-1.7,0.1c-0.4,0.5-0.4,1.1,0,1.6c0.7,0.7,0.7,1.7,0,2.4c-0.3,0.3-0.8,0.5-1.2,0.5
	c-0.4,0-0.9-0.2-1.2-0.5l-2-2.1c0.3,0.3,0,1-0.3,1.3s-1.1,0.7-1.4,0.4l2,2.1c0.8,0.8,1.8,1.2,2.9,1.2l0,0c1.1,0,2.1-0.4,2.9-1.2
	C55.8,53.1,55.9,50.4,54.3,48.8z"/>
<radialGradient id="SVGID_00000005970682513680700030000005678721601783194267_" cx="239.5178" cy="-81.7827" r="29.46" fx="239.5178" fy="-90.6392" gradientTransform="matrix(0.82 0 0 -0.82 -164.49 -34.31)" gradientUnits="userSpaceOnUse">
	<stop  offset="0" style="stop-color:#8DD7F4"/>
	<stop  offset="0.98" style="stop-color:#386E8C"/>
</radialGradient>
<path style="fill:url(#SVGID_00000005970682513680700030000005678721601783194267_);" d="M45.5,19.5c-13.7,0-16.6,3.1-21.9,8.4
	c-5.5,5.5-8.5,7-8.1,21.6c0.7,0.4,3,2.2,5,6c6.4-5.6,11.9-5,13-5c1.2-2.9,2.9-5.6,5-8c2.2-2.3,5-4,8-5c-0.1-4.6,1.3-9.2,4-13
	C47.7,23,46.5,21.8,45.5,19.5z"/>
<linearGradient id="SVGID_00000111891552181577558400000007810466595900950674_" gradientUnits="userSpaceOnUse" x1="16.712" y1="33.605" x2="28.7636" y2="12.7349" gradientTransform="matrix(1 0 0 -1 0 66)">
	<stop  offset="0" style="stop-color:#3387AF"/>
	<stop  offset="1" style="stop-color:#285A78"/>
</linearGradient>
<path style="fill:url(#SVGID_00000111891552181577558400000007810466595900950674_);" d="M19.6,40.5c0.9-5.8,2.7-10.1,4.3-12.3
	c0,1.8,2.3,8.9,3.9,12.3c1.6,3.5,3.5,6.8,5.7,10c-4.8-0.2-9.6,1.6-13,5C20.2,53.4,18.7,46.3,19.6,40.5z"/>
<linearGradient id="SVGID_00000018214484859143585370000000775612071865819046_" gradientUnits="userSpaceOnUse" x1="17.918" y1="34.3035" x2="21.698" y2="27.7535" gradientTransform="matrix(1 0 0 -1 0 66)">
	<stop  offset="0" style="stop-color:#3387AF"/>
	<stop  offset="1" style="stop-color:#285A78"/>
</linearGradient>
<path style="fill:url(#SVGID_00000018214484859143585370000000775612071865819046_);" d="M20.3,31.1c1.2-1,2.4-2,3.6-2.9
	c-1.7,2-6.7,5.9-8.2,13.5C16.3,36.2,17.9,33.7,20.3,31.1z"/>
<linearGradient id="SVGID_00000073720740905544137800000018045965060803668916_" gradientUnits="userSpaceOnUse" x1="29.2539" y1="43.1868" x2="30.2631" y2="41.4382" gradientTransform="matrix(1 0 0 -1 0 66)">
	<stop  offset="0" style="stop-color:#3387AF"/>
	<stop  offset="1" style="stop-color:#285A78"/>
</linearGradient>
<path style="fill:url(#SVGID_00000073720740905544137800000018045965060803668916_);" d="M23.9,28.2c0-0.1,0.8-1.2,1.9-2.6l0,0
	c2.8-2.9,6.4-4.9,10.4-5.5C31.6,21.9,27.3,24.7,23.9,28.2z"/>
<linearGradient id="SVGID_00000042707116441527700170000002026111654120227969_" gradientUnits="userSpaceOnUse" x1="34.6477" y1="44.0644" x2="44.3477" y2="27.2544" gradientTransform="matrix(1 0 0 -1 0 66)">
	<stop  offset="0" style="stop-color:#3387AF"/>
	<stop  offset="1" style="stop-color:#285A78"/>
</linearGradient>
<path style="fill:url(#SVGID_00000042707116441527700170000002026111654120227969_);" d="M46.5,37.5c-3.2-1.9-6.4-3.7-9.8-5.3
	c-4.7-2.2-10.7-4-12.9-4l0,0c3-2.3,10.2-4.2,14.1-4.5c6-0.5,11.5,0.2,12.5,0.8C49,26.2,46.4,30.7,46.5,37.5z"/>
<path class="st15" d="M45.5,19.5c-13.7,0-16.6,3.1-21.9,8.4c-5.5,5.5-8.4,7-8,21.5c0.7,0.4,3,2.3,5,6.1c6.4-5.6,11.9-5.1,13-5
	c1.2-2.9,2.9-5.6,5-8c2.2-2.3,5-4,8-5c-0.1-4.6,1.3-9.2,4-13C47.7,23,46.5,21.8,45.5,19.5z"/>
<linearGradient id="SVGID_00000093134911936394441130000002243613966267056802_" gradientUnits="userSpaceOnUse" x1="-615.2339" y1="-867.8531" x2="-614.014" y2="-869.9631" gradientTransform="matrix(0.7062 -0.708 -0.5097 -0.5085 15.1443 -848.5065)">
	<stop  offset="0" style="stop-color:#FFFFFF"/>
	<stop  offset="1" style="stop-color:#F1F0F0"/>
</linearGradient>
<path style="fill:url(#SVGID_00000093134911936394441130000002243613966267056802_);" d="M23.6,28c0.7-0.7,1.5-1.1,1.8-0.8
	c0.3,0.3-0.1,1.1-0.8,1.8c-0.7,0.7-1.5,1.1-1.8,0.8C22.6,29.5,22.9,28.7,23.6,28z"/>
<linearGradient id="SVGID_00000085214887653841593460000002409495207985986979_" gradientUnits="userSpaceOnUse" x1="21.5" y1="38.4514" x2="24.91" y2="38.4514" gradientTransform="matrix(1 0 0 -1 0 66)">
	<stop  offset="0" style="stop-color:#464647"/>
	<stop  offset="1" style="stop-color:#151515"/>
</linearGradient>
<path style="fill:url(#SVGID_00000085214887653841593460000002409495207985986979_);" d="M23.1,29.2l-1.2-1.2
	c-0.5-0.5-0.5-1.3,0-1.7c0.5-0.5,1.2-0.5,1.7,0c0,0,0,0,0,0l1.2,1.2c0.3,0.3-0.1,0.9-0.4,1.3S23.4,29.5,23.1,29.2z"/>
<g>
	<g>
		
			<linearGradient id="SVGID_00000025417967417597965570000005257255372686249602_" gradientUnits="userSpaceOnUse" x1="84.3942" y1="55.1978" x2="87.2243" y2="50.2978" gradientTransform="matrix(1 0 0 -1 0 66)">
			<stop  offset="0" style="stop-color:#FAE769"/>
			<stop  offset="1" style="stop-color:#F1CF30"/>
		</linearGradient>
		<path style="fill:url(#SVGID_00000025417967417597965570000005257255372686249602_);stroke:#96341F;stroke-linejoin:round;" d="
			M111.6,32.9c0,0.4-0.2,0.8-0.5,1.1c-0.3,0.3-0.7,0.5-1.1,0.5H84.2c-0.4,0-0.9-0.2-1.2-0.5c-0.3-0.3-0.4-0.7-0.4-1.1
			c0-0.3,0.1-0.6,0.2-0.8L95.7,9.4c0.1-0.3,0.4-0.5,0.6-0.6c0.2-0.1,0.5-0.2,0.8-0.2c0.3,0,0.5,0.1,0.8,0.2c0.3,0.1,0.5,0.4,0.6,0.6
			l12.9,22.8C111.5,32.4,111.6,32.7,111.6,32.9z"/>
		<g class="st19">
			
				<linearGradient id="SVGID_00000049920023175591473710000012146281380811020463_" gradientUnits="userSpaceOnUse" x1="97.08" y1="56.94" x2="97.08" y2="31.9393" gradientTransform="matrix(1 0 0 -1 0 66)">
				<stop  offset="1.000000e-02" style="stop-color:#FFFFFF"/>
				<stop  offset="5.000000e-02" style="stop-color:#FDFDFD"/>
				<stop  offset="7.000000e-02" style="stop-color:#F6F6F6"/>
				<stop  offset="8.000000e-02" style="stop-color:#EBEBEB"/>
				<stop  offset="8.000000e-02" style="stop-color:#E6E6E6"/>
				<stop  offset="0.74" style="stop-color:#E6E6E6"/>
				<stop  offset="0.85" style="stop-color:#E6E6E6"/>
				<stop  offset="0.86" style="stop-color:#DEDEDE"/>
				<stop  offset="0.88" style="stop-color:#C9C9C9"/>
				<stop  offset="0.9" style="stop-color:#A7A7A7"/>
				<stop  offset="0.92" style="stop-color:#787878"/>
				<stop  offset="0.94" style="stop-color:#3B3B3B"/>
				<stop  offset="0.96" style="stop-color:#000000"/>
			</linearGradient>
			<path style="fill:url(#SVGID_00000049920023175591473710000012146281380811020463_);" d="M97.1,10.1L97.1,10.1L110,32.8
				c0,0,0,0.1,0,0.1c0,0,0,0-0.1,0.1H84.1c-0.1-0.1-0.1-0.1-0.1-0.1c0,0,0,0,0-0.1L97,10.1L97.1,10.1L97.1,10.1 M97.1,9.1
				c-0.2,0-0.4,0.1-0.6,0.1c-0.2,0.1-0.3,0.2-0.4,0.4L83.2,32.4c-0.1,0.2-0.1,0.4-0.2,0.6c0,0.3,0.1,0.6,0.3,0.8
				c0.2,0.2,0.5,0.3,0.8,0.3H110c0.3,0,0.6-0.1,0.8-0.3c0.2-0.2,0.3-0.5,0.3-0.8c0-0.2-0.1-0.4-0.2-0.6L98,9.6
				c-0.1-0.2-0.2-0.3-0.4-0.4C97.4,9.1,97.2,9.1,97.1,9.1L97.1,9.1z"/>
		</g>
		
			<linearGradient id="SVGID_00000090259085901239694210000001920825562109729941_" gradientUnits="userSpaceOnUse" x1="92.8197" y1="44.4214" x2="99.9197" y2="32.1314" gradientTransform="matrix(1 0 0 -1 0 66)">
			<stop  offset="0" style="stop-color:#B4B1B0"/>
			<stop  offset="1" style="stop-color:#615D5C"/>
		</linearGradient>
		<path style="fill:url(#SVGID_00000090259085901239694210000001920825562109729941_);stroke:#323232;stroke-miterlimit:10;" d="
			M103.5,27c-0.2,0-0.4,0-0.7,0c0-1.6-1.2-2.9-2.8-3c-0.2,0-0.4,0-0.6,0.1c-0.2-2-1.8-3.6-3.8-3.7c-2.2,0.1-3.9,1.9-3.9,4.1
			c0,0,0,0,0,0.1c0,0.2,0,0.5,0.1,0.7c-0.1,0-0.3,0-0.5,0c-1.7,0.1-3,1.5-2.9,3.2c0.1,1.6,1.3,2.8,2.9,2.9h12.1
			c1.2-0.1,2.1-1.2,2-2.4C105.4,27.9,104.6,27,103.5,27L103.5,27z"/>
		<path class="st3" d="M97.4,26.1c0.3-0.9,1.1-1.6,2.1-1.9"/>
	</g>
	<path class="st22" d="M103.5,30H91.4c-1.2,0-2.1-0.9-2.3-2.1c0,0.2,0,0.3,0,0.5c-0.1,1.3,1,2.5,2.3,2.6h12.1
		c0.9-0.1,1.6-0.8,1.6-1.7c0-0.2,0-0.3-0.1-0.5C104.8,29.5,104.2,30,103.5,30z"/>
</g>
<g class="st19">
	<path class="st23" d="M23.9,26.2c1.1-1,2.8-0.9,3.8,0.1c0.4,0.5,0.7,1.1,0.7,1.7v0.5c0.9-0.1,2.2-0.4,2.6,1.1
		c0-0.2,0.1-0.3,0.1-0.5c0-0.9-0.7-1.7-1.6-1.7c-0.3,0-0.6,0-1.1,0.1v-0.5c0-1.3-1-2.4-2.3-2.5c-0.2,0-0.3,0-0.5,0l0,0
		C24.8,24.9,24.1,25.5,23.9,26.2z"/>
	<path class="st23" d="M21.6,22c1.3,0,2.5,0.8,3,2c0.1,0,0.2-0.1,0.3-0.1c-0.3-1.6-1.7-2.8-3.3-2.9c-1.9,0.1-3.4,1.7-3.4,3.7
		c0,0.2,0,0.3,0,0.5C18.4,23.4,19.9,22,21.6,22z"/>
	<path class="st23" d="M19.3,27c-0.2-0.4-0.5-0.8-0.9-1c-0.3-0.1-0.7-0.1-1-0.1c-1.4,0.1-2.4,1.2-2.3,2.6c0,0.2,0,0.3,0,0.5
		C15.6,26.1,18.5,26.6,19.3,27z"/>
</g>
<g class="st4">
	
		<linearGradient id="SVGID_00000146470380855713320780000000799534970830977721_" gradientUnits="userSpaceOnUse" x1="24.2484" y1="7.608" x2="28.5412" y2="15.0432">
		<stop  offset="0" style="stop-color:#FFFFFF"/>
		<stop  offset="1" style="stop-color:#D4D5D3"/>
	</linearGradient>
	
		<path style="fill:url(#SVGID_00000146470380855713320780000000799534970830977721_);stroke:#323232;stroke-linejoin:round;stroke-miterlimit:10;" d="
		M33.3,16c0,0.1,0,0.2-0.1,0.3c-0.1,0.1-0.2,0.1-0.3,0.1h-7.5c-0.1,0-0.3,0-0.3-0.1c-0.1-0.1-0.1-0.2-0.1-0.3c0-0.1,0-0.2,0.1-0.2
		l3.8-6.6c0-0.1,0.1-0.1,0.2-0.2c0.1,0,0.1-0.1,0.2-0.1c0.1,0,0.2,0,0.2,0.1c0.1,0,0.1,0.1,0.2,0.2l3.8,6.6
		C33.3,15.9,33.3,15.9,33.3,16z"/>
	
		<linearGradient id="SVGID_00000176735529236738681560000001237700706175808145_" gradientUnits="userSpaceOnUse" x1="28.164" y1="12.9904" x2="29.815" y2="15.8501">
		<stop  offset="0" style="stop-color:#82BEDC"/>
		<stop  offset="1" style="stop-color:#285A78"/>
	</linearGradient>
	
		<path style="fill:url(#SVGID_00000176735529236738681560000001237700706175808145_);stroke:#003755;stroke-linejoin:round;stroke-miterlimit:10;" d="
		M31.3,14.6c0-0.4-0.3-0.8-0.8-0.8c-0.1,0-0.2,0-0.2,0c0-0.1,0.1-0.2,0.1-0.4c0-0.5-0.4-1-1-1c-0.5,0-0.8,0.3-0.9,0.7
		c-0.1-0.1-0.2-0.1-0.3-0.1c-0.3,0-0.5,0.2-0.5,0.5c0,0.1,0,0.1,0,0.2c-0.4,0-0.7,0.3-0.7,0.8c0,0.4,0.3,0.7,0.7,0.8v0h3v0
		C31,15.3,31.3,15,31.3,14.6z"/>
</g>
<g class="st4">
	
		<linearGradient id="SVGID_00000085962802096244910900000001561070529148778422_" gradientUnits="userSpaceOnUse" x1="7.2484" y1="14.608" x2="11.5412" y2="22.0432">
		<stop  offset="0" style="stop-color:#FFFFFF"/>
		<stop  offset="1" style="stop-color:#D4D5D3"/>
	</linearGradient>
	
		<path style="fill:url(#SVGID_00000085962802096244910900000001561070529148778422_);stroke:#323232;stroke-linejoin:round;stroke-miterlimit:10;" d="
		M16.3,23c0,0.1,0,0.2-0.1,0.3c-0.1,0.1-0.2,0.1-0.3,0.1H8.3c-0.1,0-0.3,0-0.3-0.1c-0.1-0.1-0.1-0.2-0.1-0.3c0-0.1,0-0.2,0.1-0.2
		l3.8-6.6c0-0.1,0.1-0.1,0.2-0.2c0.1,0,0.1-0.1,0.2-0.1c0.1,0,0.2,0,0.2,0.1c0.1,0,0.1,0.1,0.2,0.2l3.8,6.6
		C16.3,22.9,16.3,22.9,16.3,23z"/>
	
		<linearGradient id="SVGID_00000045589392830739530620000009940314486247829633_" gradientUnits="userSpaceOnUse" x1="11.164" y1="19.9904" x2="12.815" y2="22.8501">
		<stop  offset="0" style="stop-color:#82BEDC"/>
		<stop  offset="1" style="stop-color:#285A78"/>
	</linearGradient>
	
		<path style="fill:url(#SVGID_00000045589392830739530620000009940314486247829633_);stroke:#003755;stroke-linejoin:round;stroke-miterlimit:10;" d="
		M14.3,21.6c0-0.4-0.3-0.8-0.8-0.8c-0.1,0-0.2,0-0.2,0c0-0.1,0.1-0.2,0.1-0.4c0-0.5-0.4-1-1-1c-0.5,0-0.8,0.3-0.9,0.7
		c-0.1-0.1-0.2-0.1-0.3-0.1c-0.3,0-0.5,0.2-0.5,0.5c0,0.1,0,0.1,0,0.2c-0.4,0-0.7,0.3-0.7,0.8c0,0.4,0.3,0.7,0.7,0.8v0h3v0
		C14,22.3,14.3,22,14.3,21.6z"/>
</g>
<g class="st0">
	
		<linearGradient id="SVGID_00000107585644458485956400000010194577532163013562_" gradientUnits="userSpaceOnUse" x1="10.5029" y1="6.933" x2="13.6795" y2="12.4351">
		<stop  offset="0" style="stop-color:#FFFFFF"/>
		<stop  offset="1" style="stop-color:#D4D5D3"/>
	</linearGradient>
	
		<path style="fill:url(#SVGID_00000107585644458485956400000010194577532163013562_);stroke:#323232;stroke-linejoin:round;stroke-miterlimit:10;" d="
		M17.2,13.2c0,0.1,0,0.2-0.1,0.2c-0.1,0.1-0.2,0.1-0.2,0.1h-5.6c-0.1,0-0.2,0-0.3-0.1c-0.1-0.1-0.1-0.2-0.1-0.2c0-0.1,0-0.1,0-0.2
		l2.8-4.9c0-0.1,0.1-0.1,0.1-0.1c0.1,0,0.1,0,0.2,0c0.1,0,0.1,0,0.2,0c0.1,0,0.1,0.1,0.1,0.1l2.8,4.9C17.2,13,17.2,13.1,17.2,13.2z"
		/>
	
		<linearGradient id="SVGID_00000077322698254892430090000014248160150618362254_" gradientUnits="userSpaceOnUse" x1="13.4004" y1="10.916" x2="14.6222" y2="13.0322">
		<stop  offset="0" style="stop-color:#82BEDC"/>
		<stop  offset="1" style="stop-color:#285A78"/>
	</linearGradient>
	
		<path style="fill:url(#SVGID_00000077322698254892430090000014248160150618362254_);stroke:#003755;stroke-linejoin:round;stroke-miterlimit:10;" d="
		M15.7,12.1c0-0.3-0.3-0.6-0.6-0.6c-0.1,0-0.1,0-0.2,0c0-0.1,0.1-0.2,0.1-0.3c0-0.4-0.3-0.7-0.7-0.7c-0.3,0-0.6,0.2-0.7,0.5
		c-0.1,0-0.1-0.1-0.2-0.1c-0.2,0-0.4,0.2-0.4,0.4c0,0,0,0.1,0,0.1c-0.3,0-0.6,0.3-0.6,0.6c0,0.3,0.2,0.5,0.5,0.6v0h2.2v0
		C15.5,12.6,15.7,12.4,15.7,12.1z"/>
</g>
<g>
	
		<linearGradient id="SVGID_00000029761780889967275970000013794668218755962282_" gradientUnits="userSpaceOnUse" x1="7.346" y1="5.4235" x2="22.017" y2="30.8344">
		<stop  offset="0" style="stop-color:#FFFFFF"/>
		<stop  offset="1" style="stop-color:#D4D5D3"/>
	</linearGradient>
	
		<path style="fill:url(#SVGID_00000029761780889967275970000013794668218755962282_);stroke:#323232;stroke-linejoin:round;stroke-miterlimit:10;" d="
		M37.5,32.8c0,0.4-0.2,0.8-0.5,1.1c-0.3,0.3-0.7,0.5-1.1,0.5H10.2c-0.4,0-0.9-0.2-1.2-0.5c-0.3-0.3-0.4-0.7-0.4-1.1
		c0-0.3,0.1-0.6,0.2-0.8L21.7,9.3c0.1-0.3,0.4-0.5,0.6-0.6c0.2-0.1,0.5-0.2,0.8-0.2c0.3,0,0.5,0.1,0.8,0.2c0.3,0.1,0.5,0.4,0.6,0.6
		L37.3,32C37.5,32.3,37.5,32.6,37.5,32.8z"/>
	<g>
		<path class="st23" d="M23.1,10.1L23.1,10.1l12.7,22.5c0,0,0,0.1,0,0.1c0,0,0,0-0.1,0.1H10.3c-0.1-0.1-0.1-0.1-0.1-0.1
			c0,0,0,0,0-0.1L23,10.2L23.1,10.1L23.1,10.1 M23.1,9c-0.2,0-0.4,0.1-0.5,0.1c-0.2,0.1-0.3,0.2-0.4,0.4L9.2,32.2
			c-0.1,0.2-0.1,0.4-0.1,0.6c0,0.3,0.1,0.6,0.3,0.8c0.2,0.2,0.5,0.3,0.8,0.3h25.8c0.3,0,0.6-0.1,0.8-0.3c0.2-0.2,0.3-0.5,0.3-0.8
			c0-0.2-0.1-0.4-0.1-0.6L24,9.5c-0.1-0.2-0.2-0.3-0.4-0.4C23.4,9,23.2,9,23.1,9L23.1,9z"/>
	</g>
	
		<linearGradient id="SVGID_00000016760491857769431990000005788152917182148225_" gradientUnits="userSpaceOnUse" x1="17.2277" y1="18.9537" x2="23.8504" y2="30.4246">
		<stop  offset="0" style="stop-color:#82BEDC"/>
		<stop  offset="1" style="stop-color:#285A78"/>
	</linearGradient>
	
		<path style="fill:url(#SVGID_00000016760491857769431990000005788152917182148225_);stroke:#003755;stroke-linejoin:round;stroke-miterlimit:10;" d="
		M31.6,28.5c0-1.7-1.4-3.1-3.1-3.1c-0.3,0-0.6,0.1-0.9,0.2c0.2-0.4,0.3-0.9,0.3-1.5c0-2.1-1.8-3.8-4-3.8c-1.8,0-3.3,1.2-3.8,2.8
		c-0.4-0.3-0.8-0.4-1.3-0.4c-1.2,0-2.2,0.9-2.2,2.1c0,0.2,0,0.4,0.1,0.6c-1.7,0-3,1.4-3,3.1c0,1.6,1.3,2.9,2.9,3v0h12v0
		C30.3,31.4,31.6,30.1,31.6,28.5z"/>
</g>
<g class="st32">
	<path class="st33" d="M38.1,9.3L38.1,9.3l3.7,6.6c0,0,0,0,0,0c0,0,0,0,0,0h-7.3c0,0,0,0,0,0c0,0,0,0,0,0C34.4,15.9,38,9.3,38.1,9.3
		C38.1,9.3,38.1,9.3,38.1,9.3z M37.9,9.1c0,0-0.1,0.1-0.1,0.1l-3.7,6.6c0,0.1,0,0.1,0,0.2c0,0.1,0,0.2,0.1,0.2
		c0.1,0.1,0.1,0.1,0.2,0.1h7.4c0.1,0,0.2,0,0.2-0.1c0.1-0.1,0.1-0.1,0.1-0.2c0-0.1,0-0.1,0-0.2l-3.7-6.6c0-0.1-0.1-0.1-0.1-0.1
		c0,0-0.1,0-0.2,0C38.1,9,38,9.1,37.9,9.1z"/>
</g>
</svg>
