<?xml version="1.0" encoding="utf-8"?>
<!-- Generator: Adobe Illustrator 27.1.1, SVG Export Plug-In . SVG Version: 6.00 Build 0)  -->
<svg version="1.1" id="Layer_1" xmlns="http://www.w3.org/2000/svg" xmlns:xlink="http://www.w3.org/1999/xlink" x="0px" y="0px"
	 viewBox="0 0 64 64" style="enable-background:new 0 0 64 64;" xml:space="preserve">
<style type="text/css">
	.st0{fill:#FFFFFF;stroke:#003755;stroke-width:1.331;stroke-linecap:round;stroke-linejoin:round;stroke-miterlimit:1;}
	.st1{fill:url(#SVGID_1_);stroke:#003755;stroke-width:1.331;stroke-linecap:round;stroke-linejoin:round;stroke-miterlimit:1;}
	.st2{fill:url(#SVGID_00000121971935113538227600000011637520456403065012_);}
	.st3{fill:url(#SVGID_00000141447326608353848000000005467129800565771916_);stroke:#053755;stroke-linejoin:round;}
	.st4{opacity:0.5;fill:url(#SVGID_00000016038894831344450660000001875513575142467751_);enable-background:new    ;}
	.st5{fill:url(#SVGID_00000081637470845101182460000007196697199781070984_);stroke:#787979;stroke-linejoin:round;}
	.st6{opacity:0.5;fill:url(#SVGID_00000013169686608769978310000003771806582175984286_);enable-background:new    ;}
	
		.st7{fill:url(#SVGID_00000002361982036437818520000007967080393892925360_);stroke:url(#SVGID_00000086679650760427315500000012786871142721696672_);stroke-linecap:round;stroke-linejoin:round;stroke-miterlimit:10;}
	.st8{display:none;}
	.st9{display:inline;fill:url(#SVGID_00000120522393605694911680000018308360775653405365_);stroke:#053755;stroke-linejoin:round;}
	
		.st10{display:inline;fill:url(#SVGID_00000160902842517492354350000014534271929721501596_);stroke:#787979;stroke-linejoin:round;}
	
		.st11{display:inline;opacity:0.5;fill:url(#SVGID_00000005967301591818234910000008273488297948326288_);enable-background:new    ;}
	
		.st12{display:inline;fill:url(#SVGID_00000180354949542463675700000009332478582730137015_);stroke:#053755;stroke-linejoin:round;}
	.st13{clip-path:url(#SVGID_00000012431901236947036070000000732988901755886507_);}
	.st14{fill:url(#SVGID_00000012457858803689162670000015089414151396715450_);stroke:#053755;stroke-linejoin:round;}
	.st15{opacity:0.5;fill:url(#SVGID_00000044876904575634206510000015346602272232944295_);enable-background:new    ;}
	.st16{fill:url(#SVGID_00000163044590819110796650000001745042617449204633_);stroke:#787979;stroke-linejoin:round;}
	.st17{opacity:0.5;fill:url(#SVGID_00000103975912275455905610000018152108723440675717_);enable-background:new    ;}
	.st18{fill:url(#SVGID_00000099650974898715721090000005895036506047232386_);stroke:#053755;stroke-linejoin:round;}
	.st19{opacity:0.4;fill:url(#SVGID_00000156585686201310411770000016897802538800528273_);enable-background:new    ;}
	.st20{opacity:0.5;}
	.st21{fill:#FFFFFF;}
	.st22{fill:url(#SVGID_00000032613005377600200630000010730113076291190691_);}
	.st23{opacity:0.3;enable-background:new    ;}
	.st24{opacity:0.3;fill:#FFFFFF;enable-background:new    ;}
	.st25{opacity:0.5;fill:#646565;enable-background:new    ;}
	.st26{fill:url(#SVGID_00000146490386887394449170000017494517307400916134_);stroke:#787979;stroke-linejoin:round;}
	.st27{opacity:0.3;fill:url(#SVGID_00000027590601312551401960000004237829622373533844_);enable-background:new    ;}
	.st28{fill:none;stroke:#323232;stroke-linejoin:round;}
	.st29{fill:url(#SVGID_00000133486954204371724260000013103308860770190983_);}
	.st30{fill:none;stroke:#053755;stroke-linejoin:round;}
	.st31{fill:url(#SVGID_00000078012781779312783430000010915520015716532114_);}
	.st32{fill:url(#SVGID_00000093875368269021310310000013828300600362951080_);}
</style>
<linearGradient id="SVGID_1_" gradientUnits="userSpaceOnUse" x1="15.8731" y1="46.4905" x2="34.6269" y2="14.0095" gradientTransform="matrix(1 0 0 -1 0 66)">
	<stop  offset="0" style="stop-color:#8DD7F4"/>
	<stop  offset="1" style="stop-color:#386E8C"/>
</linearGradient>
<path style="fill:url(#SVGID_1_);stroke:#053755;stroke-linejoin:round;" d="M6.5,35.8C6.5,25.4,14.9,17,25.2,17S44,25.4,44,35.8
	s-8.4,18.8-18.8,18.8S6.5,46.1,6.5,35.8z"/>
<linearGradient id="SVGID_00000019644909956046689600000010791690946269365130_" gradientUnits="userSpaceOnUse" x1="17.8363" y1="43.0917" x2="32.6637" y2="17.4083" gradientTransform="matrix(1 0 0 -1 0 66)">
	<stop  offset="0" style="stop-color:#386E8C"/>
	<stop  offset="1" style="stop-color:#8DD7F4"/>
</linearGradient>
<circle style="opacity:0.5;fill:url(#SVGID_00000019644909956046689600000010791690946269365130_);enable-background:new    ;" cx="25.2" cy="35.8" r="14.8"/>
<linearGradient id="SVGID_00000181800241405866904970000012761874042604735626_" gradientUnits="userSpaceOnUse" x1="18.4901" y1="41.9584" x2="32.0099" y2="18.5416" gradientTransform="matrix(1 0 0 -1 0 66)">
	<stop  offset="0" style="stop-color:#FFFFFF"/>
	<stop  offset="1" style="stop-color:#D2D2D2"/>
</linearGradient>
<path style="fill:url(#SVGID_00000181800241405866904970000012761874042604735626_);stroke:#787979;stroke-linejoin:round;" d="
	M11.7,35.8c0-7.5,6.1-13.5,13.5-13.5s13.5,6.1,13.5,13.5s-6.1,13.5-13.5,13.5S11.7,43.2,11.7,35.8L11.7,35.8z"/>
<radialGradient id="SVGID_00000147912268716300247360000011180582917771595440_" cx="24.814" cy="30.3956" r="7.0709" gradientTransform="matrix(1 0 0 -1 0 66)" gradientUnits="userSpaceOnUse">
	<stop  offset="0" style="stop-color:#646565"/>
	<stop  offset="1" style="stop-color:#646565;stop-opacity:0"/>
</radialGradient>
<path style="opacity:0.5;fill:url(#SVGID_00000147912268716300247360000011180582917771595440_);enable-background:new    ;" d="
	M15.7,35.8c0-5.3,4.3-9.6,9.6-9.6s9.6,4.3,9.6,9.6s-4.3,9.6-9.6,9.6S15.7,41,15.7,35.8z"/>
<linearGradient id="SVGID_00000173839335824206226520000008774229170122864770_" gradientUnits="userSpaceOnUse" x1="17.6526" y1="30.25" x2="28.9898" y2="30.25" gradientTransform="matrix(1 0 0 -1 0 66)">
	<stop  offset="0" style="stop-color:#464646"/>
	<stop  offset="1" style="stop-color:#141414"/>
</linearGradient>
<linearGradient id="SVGID_00000067934393307112422420000011537176536951807132_" gradientUnits="userSpaceOnUse" x1="19.9535" y1="35.75" x2="32.2907" y2="35.75">
	<stop  offset="0" style="stop-color:#464646"/>
	<stop  offset="1" style="stop-color:#141414"/>
</linearGradient>
<path style="fill:url(#SVGID_00000173839335824206226520000008774229170122864770_);stroke:url(#SVGID_00000067934393307112422420000011537176536951807132_);stroke-linecap:round;stroke-linejoin:round;stroke-miterlimit:10;" d="
	M20.5,29.2l11.3,6.5l-11.3,6.5V29.2z"/>
<g class="st8">
	
		<linearGradient id="SVGID_00000114768295033122688050000012679397232711140998_" gradientUnits="userSpaceOnUse" x1="15.5331" y1="46.8034" x2="31.7749" y2="18.6734" gradientTransform="matrix(1 0 0 -1 0 66)">
		<stop  offset="0" style="stop-color:#8DD7F4"/>
		<stop  offset="1" style="stop-color:#386E8C"/>
	</linearGradient>
	
		<path style="display:inline;fill:url(#SVGID_00000114768295033122688050000012679397232711140998_);stroke:#053755;stroke-linejoin:round;" d="
		M7.4,33.3c0-9,7.3-16.2,16.2-16.2s16.2,7.3,16.2,16.2s-7.3,16.2-16.2,16.2S7.4,42.2,7.4,33.3z"/>
	
		<linearGradient id="SVGID_00000163058711104944546950000001418454608837613736_" gradientUnits="userSpaceOnUse" x1="17.7996" y1="42.8784" x2="29.5084" y2="22.5984" gradientTransform="matrix(1 0 0 -1 0 66)">
		<stop  offset="0" style="stop-color:#FFFFFF"/>
		<stop  offset="1" style="stop-color:#D2D2D2"/>
	</linearGradient>
	
		<path style="display:inline;fill:url(#SVGID_00000163058711104944546950000001418454608837613736_);stroke:#787979;stroke-linejoin:round;" d="
		M11.9,33.3c0-6.5,5.2-11.7,11.7-11.7s11.7,5.2,11.7,11.7S30.1,45,23.7,45S11.9,39.7,11.9,33.3L11.9,33.3z"/>
	
		<radialGradient id="SVGID_00000023991273055837980830000004795058032740247454_" cx="23.2764" cy="32.8645" r="6.1238" gradientTransform="matrix(1 0 0 -1 0 66)" gradientUnits="userSpaceOnUse">
		<stop  offset="0" style="stop-color:#646565"/>
		<stop  offset="1" style="stop-color:#646565;stop-opacity:0"/>
	</radialGradient>
	
		<path style="display:inline;opacity:0.5;fill:url(#SVGID_00000023991273055837980830000004795058032740247454_);enable-background:new    ;" d="
		M15.3,33.3c0-4.6,3.7-8.3,8.3-8.3s8.3,3.7,8.3,8.3s-3.7,8.3-8.3,8.3S15.3,37.9,15.3,33.3z"/>
	
		<linearGradient id="SVGID_00000069391595182308436140000011703819104615644058_" gradientUnits="userSpaceOnUse" x1="19.503" y1="38.4047" x2="25.957" y2="27.2252" gradientTransform="matrix(1 0 0 -1 0 66)">
		<stop  offset="0" style="stop-color:#8DD7F4"/>
		<stop  offset="1" style="stop-color:#386E8C"/>
	</linearGradient>
	
		<path style="display:inline;fill:url(#SVGID_00000069391595182308436140000011703819104615644058_);stroke:#053755;stroke-linejoin:round;" d="
		M19.5,27.6l9.8,5.7l-9.8,5.7V27.6z"/>
</g>
<g>
	<defs>
		<circle id="SVGID_00000143579962263916165160000013236479367632999861_" cx="35.5" cy="21.5" r="13"/>
	</defs>
	<clipPath id="SVGID_00000054959887986845840030000008807831477130373565_">
		<use xlink:href="#SVGID_00000143579962263916165160000013236479367632999861_"  style="overflow:visible;"/>
	</clipPath>
</g>
<g>
	<defs>
		<circle id="SVGID_00000160882622855136638750000010473542941287403411_" cx="35.5" cy="21.5" r="12"/>
	</defs>
	<clipPath id="SVGID_00000112609790907467929830000003246980406229773743_">
		<use xlink:href="#SVGID_00000160882622855136638750000010473542941287403411_"  style="overflow:visible;"/>
	</clipPath>
	<g style="clip-path:url(#SVGID_00000112609790907467929830000003246980406229773743_);">
		
			<linearGradient id="SVGID_00000069375792093121257410000007968442022819179429_" gradientUnits="userSpaceOnUse" x1="17.6229" y1="50.2897" x2="37.8771" y2="15.2103" gradientTransform="matrix(1 0 0 -1 0 66)">
			<stop  offset="0" style="stop-color:#8DD7F4"/>
			<stop  offset="1" style="stop-color:#386E8C"/>
		</linearGradient>
		<path style="fill:url(#SVGID_00000069375792093121257410000007968442022819179429_);stroke:#053755;stroke-linejoin:round;" d="
			M7.5,33.2C7.5,22.1,16.6,13,27.8,13S48,22.1,48,33.2s-9.1,20.2-20.2,20.2S7.5,44.4,7.5,33.2z"/>
		
			<linearGradient id="SVGID_00000084508998995704470290000005028512327356391810_" gradientUnits="userSpaceOnUse" x1="19.7432" y1="46.619" x2="35.7568" y2="18.881" gradientTransform="matrix(1 0 0 -1 0 66)">
			<stop  offset="0" style="stop-color:#386E8C"/>
			<stop  offset="1" style="stop-color:#8DD7F4"/>
		</linearGradient>
		
			<circle style="opacity:0.5;fill:url(#SVGID_00000084508998995704470290000005028512327356391810_);enable-background:new    ;" cx="27.8" cy="33.2" r="16"/>
		
			<linearGradient id="SVGID_00000073707048176999221450000013908673000664977283_" gradientUnits="userSpaceOnUse" x1="20.4493" y1="45.395" x2="35.0507" y2="20.105" gradientTransform="matrix(1 0 0 -1 0 66)">
			<stop  offset="0" style="stop-color:#FFFFFF"/>
			<stop  offset="1" style="stop-color:#D2D2D2"/>
		</linearGradient>
		<path style="fill:url(#SVGID_00000073707048176999221450000013908673000664977283_);stroke:#787979;stroke-linejoin:round;" d="
			M13.2,33.2c0-8.1,6.5-14.6,14.6-14.6s14.6,6.5,14.6,14.6s-6.5,14.6-14.6,14.6S13.2,41.3,13.2,33.2L13.2,33.2z"/>
		
			<radialGradient id="SVGID_00000127762493542584621570000003057604473794734240_" cx="27.2791" cy="32.9073" r="7.6366" gradientTransform="matrix(1 0 0 -1 0 66)" gradientUnits="userSpaceOnUse">
			<stop  offset="0" style="stop-color:#646565"/>
			<stop  offset="1" style="stop-color:#646565;stop-opacity:0"/>
		</radialGradient>
		<path style="opacity:0.5;fill:url(#SVGID_00000127762493542584621570000003057604473794734240_);enable-background:new    ;" d="
			M17.4,33.2c0-5.7,4.6-10.4,10.4-10.4s10.4,4.6,10.4,10.4s-4.6,10.4-10.4,10.4S17.4,39,17.4,33.2z"/>
		
			<linearGradient id="SVGID_00000034770997724829087020000012969928739002283434_" gradientUnits="userSpaceOnUse" x1="22.5735" y1="39.8161" x2="28.6929" y2="29.2163" gradientTransform="matrix(1 0 0 -1 0 66)">
			<stop  offset="0" style="stop-color:#8DD7F4"/>
			<stop  offset="1" style="stop-color:#386E8C"/>
		</linearGradient>
		<path style="fill:url(#SVGID_00000034770997724829087020000012969928739002283434_);stroke:#053755;stroke-linejoin:round;" d="
			M22.6,26.2l12.2,7.1l-12.2,7.1V26.2z"/>
		
			<linearGradient id="SVGID_00000042000766550538489120000000015300480952736946_" gradientUnits="userSpaceOnUse" x1="22.3881" y1="35.2847" x2="28.4669" y2="29.6156" gradientTransform="matrix(1 0 0 -1 0 66)">
			<stop  offset="0" style="stop-color:#FFFFFF"/>
			<stop  offset="1" style="stop-color:#FFFFFF;stop-opacity:0"/>
		</linearGradient>
		
			<polygon style="opacity:0.4;fill:url(#SVGID_00000042000766550538489120000000015300480952736946_);enable-background:new    ;" points="
			24,28.9 32.7,33.9 33.9,33.2 23,27 23,39.5 24,39 		"/>
	</g>
</g>
<g>
	<g class="st20">
		<path class="st21" d="M55.4,44c-0.8,0-1.6-0.3-2.2-0.9l-8.1-8.3l-1.4-1.4c-2.4,1.7-5.3,2.6-8.2,2.6c-8,0-14.5-6.5-14.5-14.5
			C21,13.5,27.5,7,35.5,7S50,13.5,50,21.5c0,2.7-0.7,5.4-2.2,7.6l1.5,1.5l8.3,8.1c1.2,1.2,1.2,3.1,0,4.3C57.1,43.7,56.3,44,55.4,44z
			 M35.5,11C29.7,11,25,15.7,25,21.5S29.7,32,35.5,32S46,27.3,46,21.5l0,0C46,15.7,41.3,11,35.5,11z"/>
		<path class="st21" d="M35.5,7.5c7.7,0,14,6.3,14,14c0,2.7-0.8,5.4-2.3,7.7L49,31l8.3,8.1c1,1,1,2.6,0,3.6c-1,1-2.6,1-3.6,0
			l-8.1-8.3l-1.7-1.7c-6.2,4.6-15,3.2-19.6-3s-3.2-15,3-19.6C29.6,8.4,32.5,7.5,35.5,7.5 M35.5,32.5c6.1,0,11-4.9,11-11
			s-4.9-11-11-11s-11,4.9-11,11S29.4,32.5,35.5,32.5 M35.5,6.5c-8.3,0-15,6.7-15,15s6.7,15,15,15c2.9,0,5.7-0.8,8.2-2.4l1.1,1.1
			l8.1,8.3c0.7,0.7,1.6,1,2.5,1c2,0,3.6-1.6,3.6-3.5c0-1-0.4-1.9-1-2.5l-8.3-8.1L48.5,29c4.2-7.2,1.8-16.3-5.4-20.5
			C40.8,7.2,38.2,6.5,35.5,6.5z M35.5,31.5c-5.5,0-10-4.5-10-10s4.5-10,10-10s10,4.5,10,10C45.5,27,41,31.5,35.5,31.5z"/>
	</g>
	<g>
		
			<linearGradient id="SVGID_00000128450222646050914790000004886597265959902141_" gradientUnits="userSpaceOnUse" x1="44.948" y1="31.448" x2="49.082" y2="35.582" gradientTransform="matrix(1 0 0 -1 0 66)">
			<stop  offset="4.000000e-02" style="stop-color:#A39F9F"/>
			<stop  offset="0.2" style="stop-color:#DDDDDD"/>
			<stop  offset="0.4" style="stop-color:#C6C6C5"/>
			<stop  offset="0.68" style="stop-color:#F5F5F5"/>
			<stop  offset="0.996" style="stop-color:#BEBEBE"/>
		</linearGradient>
		<path style="fill:url(#SVGID_00000128450222646050914790000004886597265959902141_);" d="M47,36l-3.5-3.5L47,29l3.5,3.5L47,36z"/>
		<polygon class="st23" points="47,34.3 44.7,32 44.2,32.5 47,35.3 49.8,32.5 49.3,32 		"/>
		<polygon class="st24" points="47,30.7 49.3,33 49.8,32.5 47,29.7 44.2,32.5 44.7,33 		"/>
		<path class="st25" d="M47.8,30.5L47,29.7l-2.8,2.8l1.2,1.2C46.3,32.7,47.1,31.7,47.8,30.5z"/>
	</g>
	<g>
		<circle class="st24" cx="35.5" cy="21.5" r="12.5"/>
		
			<linearGradient id="SVGID_00000014619049766369172760000003425459701021385345_" gradientUnits="userSpaceOnUse" x1="28.4988" y1="56.6264" x2="42.5012" y2="32.3736" gradientTransform="matrix(1 0 0 -1 0 66)">
			<stop  offset="0" style="stop-color:#FFFFFF"/>
			<stop  offset="1" style="stop-color:#D2D2D2"/>
		</linearGradient>
		<path style="fill:url(#SVGID_00000014619049766369172760000003425459701021385345_);stroke:#787979;stroke-linejoin:round;" d="
			M35.5,7.5c-7.7,0-14,6.3-14,14s6.3,14,14,14s14-6.3,14-14S43.2,7.5,35.5,7.5z M35.5,32.5c-6.1,0-11-4.9-11-11s4.9-11,11-11
			s11,4.9,11,11S41.6,32.5,35.5,32.5z"/>
		
			<linearGradient id="SVGID_00000003824803059548636430000007940112125733247665_" gradientUnits="userSpaceOnUse" x1="29.2489" y1="55.3271" x2="41.7511" y2="33.6729" gradientTransform="matrix(1 0 0 -1 0 66)">
			<stop  offset="0" style="stop-color:#000000"/>
			<stop  offset="1" style="stop-color:#FFFFFF"/>
		</linearGradient>
		<path style="opacity:0.3;fill:url(#SVGID_00000003824803059548636430000007940112125733247665_);enable-background:new    ;" d="
			M35.5,9C28.6,9,23,14.6,23,21.5S28.6,34,35.5,34S48,28.4,48,21.5S42.4,9,35.5,9z M35.5,33C29.1,33,24,27.9,24,21.5
			S29.1,10,35.5,10S47,15.1,47,21.5l0,0C47,27.8,41.8,33,35.5,33z"/>
	</g>
	<path class="st28" d="M50.5,32.5l-3.3-3.3c4.3-6.5,2.5-15.2-4-19.5s-15.2-2.5-19.5,4s-2.5,15.2,4,19.5c4.9,3.3,11.3,3.1,16.1-0.4
		L47,36L50.5,32.5z"/>
	<g>
		
			<linearGradient id="SVGID_00000121963882016451128870000003985990338164797620_" gradientUnits="userSpaceOnUse" x1="48.3047" y1="34.5986" x2="55.5087" y2="22.1216" gradientTransform="matrix(1 0 0 -1 0 66)">
			<stop  offset="0" style="stop-color:#8DD7F4"/>
			<stop  offset="1" style="stop-color:#386E8C"/>
		</linearGradient>
		<path style="fill:url(#SVGID_00000121963882016451128870000003985990338164797620_);" d="M57.3,39.1L49,31l-3.5,3.5l8.1,8.3
			c1,1,2.6,1,3.6-0.1C58.2,41.7,58.2,40.1,57.3,39.1z"/>
		<path class="st30" d="M57.3,39.1L49,31l-3.5,3.5l8.1,8.3c1,1,2.6,1,3.6-0.1C58.2,41.7,58.2,40.1,57.3,39.1z"/>
		<path class="st23" d="M56.9,41.4C56.5,41.8,56,42,55.5,42l0,0c-0.5,0-1.1-0.2-1.5-0.6L46.7,34l-0.5,0.5l7.8,7.9
			c0.4,0.4,0.9,0.6,1.5,0.6l0,0c1.1,0,2-0.9,2.1-2c0,0,0-0.1,0-0.1c0-0.2,0-0.3-0.1-0.5C57.4,40.8,57.2,41.1,56.9,41.4z"/>
		<path class="st24" d="M49,32.7l7.9,7.8c0.3,0.3,0.4,0.6,0.5,1c0-0.2,0.1-0.3,0.1-0.5c0-0.5-0.2-1.1-0.6-1.5L49,31.7l-2.8,2.8
			l0.5,0.5L49,32.7z"/>
		
			<linearGradient id="SVGID_00000116944551662184684750000005920317293536946819_" gradientUnits="userSpaceOnUse" x1="48.8307" y1="33.6909" x2="54.7734" y2="23.3986" gradientTransform="matrix(1 0 0 -1 0 66)">
			<stop  offset="0" style="stop-color:#8DD7F4"/>
			<stop  offset="0.256" style="stop-color:#8BD4F1"/>
			<stop  offset="0.442" style="stop-color:#83CBE8"/>
			<stop  offset="0.606" style="stop-color:#76BBD8"/>
			<stop  offset="0.757" style="stop-color:#64A4C2"/>
			<stop  offset="0.898" style="stop-color:#4D88A6"/>
			<stop  offset="1" style="stop-color:#386E8C"/>
		</linearGradient>
		<path style="fill:url(#SVGID_00000116944551662184684750000005920317293536946819_);" d="M56,40l-2-2l-5.5-5.5L47,34l7.5,7.5
			c0.5,0.5,0.6,0.5,1,0.5c0.5,0,1-0.4,1-0.9c0,0,0-0.1,0-0.1C56.5,40.6,56.3,40.3,56,40z"/>
	</g>
</g>
</svg>
