<?xml version="1.0" encoding="utf-8"?>
<!-- Generator: Adobe Illustrator 27.1.1, SVG Export Plug-In . SVG Version: 6.00 Build 0)  -->
<svg version="1.1" id="Layer_1" xmlns="http://www.w3.org/2000/svg" xmlns:xlink="http://www.w3.org/1999/xlink" x="0px" y="0px"
	 viewBox="0 0 64 64" style="enable-background:new 0 0 64 64;" xml:space="preserve">
<style type="text/css">
	.st0{fill:none;stroke:#323232;stroke-miterlimit:10;}
	.st1{fill:url(#SVGID_1_);stroke:#787979;}
	.st2{fill:url(#SVGID_00000159453105624776372250000015328066518289392796_);stroke:#003755;stroke-miterlimit:10;}
	.st3{fill:url(#SVGID_00000050652300669000499770000016798306808254963884_);stroke:#787979;}
	.st4{opacity:0.5;}
	.st5{fill:#FFFFFF;}
	.st6{fill:url(#SVGID_00000028293195558354540030000000362066737395801486_);}
	.st7{opacity:0.3;enable-background:new    ;}
	.st8{opacity:0.3;fill:#FFFFFF;enable-background:new    ;}
	.st9{opacity:0.5;fill:#646565;enable-background:new    ;}
	.st10{opacity:0.2;fill:#FFFFFF;enable-background:new    ;}
	.st11{fill:url(#SVGID_00000005979026024111146240000017584049911943068330_);stroke:#787979;stroke-linejoin:round;}
	.st12{opacity:0.5;fill:#FFFFFF;enable-background:new    ;}
	.st13{opacity:0.3;fill:url(#SVGID_00000026870413718054503530000011905716246999193492_);enable-background:new    ;}
	.st14{fill:none;stroke:#323232;stroke-linejoin:round;}
	.st15{fill:url(#SVGID_00000003083337201784811450000003170425253901020291_);}
	.st16{fill:none;stroke:#053755;stroke-linejoin:round;}
	.st17{fill:url(#SVGID_00000143601892848644143010000001862809917659074214_);}
</style>
<g>
	<line class="st0" x1="12.5" y1="24.5" x2="26.5" y2="24.5"/>
	<polyline class="st0" points="32.1,35.9 26.9,35.9 26.9,19 26.9,16 35.4,16 	"/>
	<linearGradient id="SVGID_1_" gradientUnits="userSpaceOnUse" x1="5.5" y1="24.25" x2="22.5" y2="24.25">
		<stop  offset="0" style="stop-color:#FFFFFF"/>
		<stop  offset="1" style="stop-color:#D2D2D2"/>
	</linearGradient>
	<rect x="5.5" y="21" class="st1" width="17" height="6.5"/>
	
		<linearGradient id="SVGID_00000076566061934326496670000000185376016650414266_" gradientUnits="userSpaceOnUse" x1="31.5" y1="36" x2="47.5" y2="36">
		<stop  offset="0" style="stop-color:#8CD7F5"/>
		<stop  offset="1" style="stop-color:#376E8C"/>
	</linearGradient>
	
		<rect x="31.5" y="32.5" style="fill:url(#SVGID_00000076566061934326496670000000185376016650414266_);stroke:#003755;stroke-miterlimit:10;" width="16" height="7"/>
	
		<linearGradient id="SVGID_00000176027884800426598340000000005157896278021796_" gradientUnits="userSpaceOnUse" x1="31.5" y1="16" x2="50.5" y2="16">
		<stop  offset="0" style="stop-color:#FFFFFF"/>
		<stop  offset="1" style="stop-color:#D2D2D2"/>
	</linearGradient>
	
		<rect x="31.5" y="12.5" style="fill:url(#SVGID_00000176027884800426598340000000005157896278021796_);stroke:#787979;" width="19" height="7"/>
</g>
<g>
	<g class="st4">
		<path class="st5" d="M55.4,60c-0.8,0-1.6-0.3-2.2-0.9l-8.1-8.3l-1.4-1.4c-2.4,1.7-5.3,2.6-8.2,2.6c-8,0-14.5-6.5-14.5-14.5
			c0-8,6.5-14.5,14.5-14.5S50,29.5,50,37.5c0,2.7-0.7,5.4-2.2,7.6l1.5,1.5l8.3,8.1c1.2,1.2,1.2,3.1,0,4.3C57.1,59.7,56.3,60,55.4,60
			z M35.5,27C29.7,27,25,31.7,25,37.5S29.7,48,35.5,48S46,43.3,46,37.5l0,0C46,31.7,41.3,27,35.5,27z"/>
		<path class="st5" d="M35.5,23.5c7.7,0,14,6.3,14,14c0,2.7-0.8,5.4-2.3,7.7L49,47l8.3,8.1c1,1,1,2.6,0,3.6c-1,1-2.6,1-3.6,0
			l-8.1-8.3l-1.7-1.7c-6.2,4.6-15,3.2-19.6-3s-3.2-15,3-19.6C29.6,24.5,32.5,23.5,35.5,23.5 M35.5,48.5c6.1,0,11-4.9,11-11
			s-4.9-11-11-11s-11,4.9-11,11S29.4,48.5,35.5,48.5 M35.5,22.5c-8.3,0-15,6.7-15,15s6.7,15,15,15c2.9,0,5.7-0.8,8.2-2.4l1.1,1.1
			l8.1,8.3c0.7,0.7,1.6,1,2.5,1c2,0,3.6-1.6,3.6-3.5c0-1-0.4-1.9-1-2.5l-8.3-8.1l-1.2-1.2c4.2-7.2,1.8-16.3-5.4-20.5
			C40.8,23.2,38.2,22.5,35.5,22.5z M35.5,47.5c-5.5,0-10-4.5-10-10s4.5-10,10-10s10,4.5,10,10C45.5,43,41,47.5,35.5,47.5z"/>
	</g>
	<g>
		
			<linearGradient id="SVGID_00000085940210730754058570000009271457684698057394_" gradientUnits="userSpaceOnUse" x1="44.948" y1="15.4281" x2="49.082" y2="19.5621" gradientTransform="matrix(1 0 0 -1 0 66)">
			<stop  offset="4.000000e-02" style="stop-color:#A39F9F"/>
			<stop  offset="0.2" style="stop-color:#DDDDDD"/>
			<stop  offset="0.4" style="stop-color:#C6C6C5"/>
			<stop  offset="0.68" style="stop-color:#F5F5F5"/>
			<stop  offset="0.996" style="stop-color:#BEBEBE"/>
		</linearGradient>
		<path style="fill:url(#SVGID_00000085940210730754058570000009271457684698057394_);" d="M47,52l-3.5-3.5L47,45l3.5,3.5L47,52z"/>
		<polygon class="st7" points="47,50.3 44.7,48 44.2,48.5 47,51.3 49.8,48.5 49.3,48 		"/>
		<polygon class="st8" points="47,46.7 49.3,49 49.8,48.5 47,45.7 44.2,48.5 44.7,49 		"/>
		<path class="st9" d="M47.8,46.6L47,45.7l-2.8,2.8l1.2,1.2C46.3,48.7,47.1,47.7,47.8,46.6z"/>
	</g>
	<g>
		<circle class="st10" cx="35.5" cy="37.5" r="12.5"/>
		
			<linearGradient id="SVGID_00000080180841789924913970000009983050052489103293_" gradientUnits="userSpaceOnUse" x1="28.4988" y1="40.6064" x2="42.5012" y2="16.3537" gradientTransform="matrix(1 0 0 -1 0 66)">
			<stop  offset="0" style="stop-color:#FFFFFF"/>
			<stop  offset="1" style="stop-color:#D2D2D2"/>
		</linearGradient>
		<path style="fill:url(#SVGID_00000080180841789924913970000009983050052489103293_);stroke:#787979;stroke-linejoin:round;" d="
			M35.5,23.5c-7.7,0-14,6.3-14,14s6.3,14,14,14s14-6.3,14-14S43.2,23.5,35.5,23.5z M35.5,48.5c-6.1,0-11-4.9-11-11s4.9-11,11-11
			s11,4.9,11,11S41.6,48.5,35.5,48.5z"/>
		<path class="st8" d="M43,38.9L43,38.9c-0.8-0.2-1.7,0.1-2.1,0.9c-0.6,1.1-1.5,2.1-2.7,2.7c-0.8,0.4-1.1,1.3-0.9,2.1l0,0
			c0.3,1,1.3,1.5,2.3,1.3c0.1,0,0.3-0.1,0.4-0.2c1.8-0.9,3.2-2.4,4.2-4.2c0.5-0.9,0.1-2-0.7-2.5C43.3,39,43.2,38.9,43,38.9z"/>
		<path class="st12" d="M26,37.7h3.6c0-3.6,2.9-6.5,6.5-6.5v-3.6C30.6,27.5,26,32.1,26,37.7z"/>
		
			<linearGradient id="SVGID_00000014624519529659240090000004667997232150846646_" gradientUnits="userSpaceOnUse" x1="29.2489" y1="39.3072" x2="41.7511" y2="17.653" gradientTransform="matrix(1 0 0 -1 0 66)">
			<stop  offset="0" style="stop-color:#000000"/>
			<stop  offset="1" style="stop-color:#FFFFFF"/>
		</linearGradient>
		<path style="opacity:0.3;fill:url(#SVGID_00000014624519529659240090000004667997232150846646_);enable-background:new    ;" d="
			M35.5,25C28.6,25,23,30.6,23,37.5S28.6,50,35.5,50S48,44.4,48,37.5S42.4,25,35.5,25z M35.5,49C29.1,49,24,43.9,24,37.5
			S29.1,26,35.5,26S47,31.2,47,37.5l0,0C47,43.9,41.8,49,35.5,49z"/>
	</g>
	<path class="st14" d="M50.5,48.5l-3.3-3.3c4.3-6.5,2.5-15.2-4-19.5s-15.2-2.5-19.5,4s-2.5,15.2,4,19.5c4.9,3.3,11.3,3.1,16.1-0.4
		L47,52L50.5,48.5z"/>
	<g>
		
			<linearGradient id="SVGID_00000033334255054166572040000015005972908847575453_" gradientUnits="userSpaceOnUse" x1="48.3047" y1="18.5786" x2="55.5087" y2="6.1016" gradientTransform="matrix(1 0 0 -1 0 66)">
			<stop  offset="0" style="stop-color:#8DD7F4"/>
			<stop  offset="1" style="stop-color:#386E8C"/>
		</linearGradient>
		<path style="fill:url(#SVGID_00000033334255054166572040000015005972908847575453_);" d="M57.3,55.2L49,47l-3.5,3.5l8.1,8.3
			c1,1,2.6,1,3.6-0.1C58.2,57.7,58.2,56.2,57.3,55.2z"/>
		<path class="st16" d="M57.3,55.2L49,47l-3.5,3.5l8.1,8.3c1,1,2.6,1,3.6-0.1C58.2,57.7,58.2,56.2,57.3,55.2z"/>
		<path class="st7" d="M56.9,57.4C56.5,57.8,56,58,55.5,58l0,0c-0.5,0-1.1-0.2-1.5-0.6L46.7,50l-0.5,0.5l7.8,7.9
			c0.4,0.4,0.9,0.6,1.5,0.6l0,0c1.1,0,2-0.9,2.1-2c0,0,0-0.1,0-0.1c0-0.2,0-0.3-0.1-0.5C57.4,56.8,57.2,57.2,56.9,57.4z"/>
		<path class="st8" d="M49,48.7l7.9,7.8c0.3,0.3,0.4,0.6,0.5,1c0-0.2,0.1-0.3,0.1-0.5c0-0.5-0.2-1.1-0.6-1.5L49,47.7l-2.8,2.8
			l0.5,0.5L49,48.7z"/>
		
			<linearGradient id="SVGID_00000047773760675113351280000011235963062036725691_" gradientUnits="userSpaceOnUse" x1="48.8307" y1="17.671" x2="54.7734" y2="7.3787" gradientTransform="matrix(1 0 0 -1 0 66)">
			<stop  offset="0" style="stop-color:#8DD7F4"/>
			<stop  offset="0.256" style="stop-color:#8BD4F1"/>
			<stop  offset="0.442" style="stop-color:#83CBE8"/>
			<stop  offset="0.606" style="stop-color:#76BBD8"/>
			<stop  offset="0.757" style="stop-color:#64A4C2"/>
			<stop  offset="0.898" style="stop-color:#4D88A6"/>
			<stop  offset="1" style="stop-color:#386E8C"/>
		</linearGradient>
		<path style="fill:url(#SVGID_00000047773760675113351280000011235963062036725691_);" d="M56,56l-2-2l-5.5-5.5L47,50l7.5,7.5
			c0.5,0.5,0.6,0.5,1,0.5c0.5,0,1-0.4,1-0.9c0,0,0-0.1,0-0.1C56.5,56.6,56.3,56.3,56,56z"/>
	</g>
</g>
</svg>
