<?xml version="1.0" encoding="UTF-8"?>
<svg id="Layer_6_copy_2" data-name="Layer 6 copy 2" xmlns="http://www.w3.org/2000/svg" viewBox="0 0 64 64">
  <g>
    <path d="m29.3251,51.358c-.54-.324-1.188-.432-1.728-.432-.972,0-1.836.324-2.592.864-.756.54-1.188,1.404-1.296,2.376,0,1.188,1.08,1.512,2.16,1.512.864,0,1.728-.108,2.592-.432l-1.08,1.404c-.648.108-1.188.216-1.836.216-1.62,0-3.78-.432-3.78-2.376.108-1.512.864-2.808,2.052-3.672,1.188-.864,2.7-1.404,4.32-1.296.756,0,1.62.108,2.268.432,0,0-1.08,1.404-1.08,1.404Z" fill="#283a97"/>
    <path d="m35.6971,56.866l-.756-5.4-1.944,2.484h1.728l.108,1.08h-1.08c-.864-.108-1.62.108-2.16.756l-.756.972h-2.16l5.94-7.02h2.052l1.08,7.02-2.052.108Z" fill="#283a97"/>
    <path d="m45.5251,51.142h-2.16l-1.944,5.724h-1.944l2.052-5.724h-2.808l.432-1.188h7.452s-1.08,1.188-1.08,1.188Z" fill="#283a97"/>
    <path d="m47.3611,56.866h-1.944l2.484-7.02h1.944l-2.484,7.02Z" fill="#283a97"/>
    <path d="m56.0011,56.866l-.756-5.4-1.944,2.484h1.728l.108,1.08h-1.08c-.864-.108-1.62.108-2.16.756l-.756.972h-2.16l5.94-7.02h2.052l1.08,7.02-2.052.108h0Z" fill="#283a97"/>
    <path d="m26.4091,36.13c-2.7-.648-5.616-.648-8.316,0-.864.216-1.512.54-1.404.756,0,.324.216.324,1.404.324,2.16-.108,4.32,0,6.372.432,1.728.54,1.944,1.404,1.08,3.132-.54.972-1.08,1.836-1.944,2.592-1.62,1.512-3.348,2.7-5.292,3.672-1.188.648-1.728.324-1.512-.324.216-.756,3.672-6.804,3.672-6.804.216-.432.324-.864,0-1.08s-.756.216-1.188.864c-2.052,2.376-5.832,9.612-5.832,9.828-.108.216.108.216.216.216,1.62,0,11.34-2.916,14.58-8.856,1.512-3.024.648-3.996-1.836-4.752Z" fill="#283a97"/>
    <path d="m31.2691,33.214c-1.944,1.728.972,4.536,2.376,6.156s2.916,3.564,3.024,4.212c.108.324-.108.648-.432.864-.648.432-3.132.756-8.424.756-1.08,0-1.404.108-1.404.324s0,.324,1.404.756c0,0,6.048,1.08,9.18,0,3.24-1.08,2.484-3.024,1.836-4.104-.864-1.62-5.076-6.48-5.4-7.128-.216-.324-.108-.648.108-.864h0s.648-.864,6.156-.756c1.08,0,1.404-.108,1.404-.324s-.324-.54-1.404-.756-6.048-1.188-8.424.864Z" fill="#f7941d"/>
    <path d="m24.1411,23.17c-.432.108-1.296.324-1.296.648.108.324.216.324,1.296.324,1.728,0,3.564.108,5.292.324,2.484.432,1.944,1.728,1.188,2.916-1.728,2.916-6.372,6.264-6.696,6.48-.324.216-.108.432.108.216,3.78-1.404,7.56-3.78,9.072-6.696,1.296-2.484.324-3.672-1.62-4.212-2.268-.648-4.86-.648-7.344,0Z" fill="#ee3524"/>
  </g>
  <path d="m29.6,15.9c0-4-3.3-7.2-7.3-7.2-3.5,0-6.5,2.5-7.1,6-4,.4-6.9,3.9-6.6,7.9.4,4,3.9,6.9,7.9,6.6,3.3-.3,5.9-2.7,6.5-6,3.7-.4,6.6-3.5,6.6-7.3Z" fill="#fff"/>
  <g id="FINAL_BADGE" data-name="FINAL BADGE">
    <path d="m29,14.75c-.0208-4.004-3.2835-7.2331-7.2875-7.2123-3.5047.0182-6.4946,2.5407-7.1025,5.9923-3.9885.3525-6.9361,3.8716-6.5836,7.8601.3525,3.9885,3.8716,6.9361,7.8601,6.5836,3.2703-.289,5.9383-2.7396,6.5035-5.9737,3.7499-.3371,6.6199-3.485,6.61-7.25Z" fill="#fff"/>
    <path d="m21.5,24.5c-3.535,0-6.7428-2.0693-8.2-5.29-.08-.15-.08-.33,0-.48.0918-.1431.25-.2297.42-.23h4.98c.1159,0,.2286.0387.32.11.6996.5732,1.5755.8875,2.48.89,2.2091,0,4-1.7909,4-4s-1.7909-4-4-4c-.9045.0025-1.7804.3168-2.48.89-.0914.0713-.2041.11-.32.11h-4.94c-.17-.0003-.3282-.0869-.42-.23-.08-.15-.08-.33,0-.48,2.049-4.5286,7.3812-6.5386,11.9098-4.4896s6.5386,7.3812,4.4896,11.9098c-1.4631,3.2337-4.6902,5.3055-8.2394,5.2898Z" fill="#075081"/>
    <path d="m21.5,7c4.6944-.0033,8.5027,3.7996,8.506,8.494.0033,4.6944-3.7996,8.5027-8.494,8.506-3.3423.0023-6.3757-1.9542-7.7519-5h4.94c1.933,1.5621,4.7663,1.2614,6.3284-.6716,1.5621-1.933,1.2614-4.7663-.6716-6.3284-1.6499-1.3333-4.0069-1.3333-5.6569,0h-4.94c1.3724-3.0436,4.4013-5.0002,7.74-5m0-1c-3.7301.0057-7.1125,2.1915-8.65,5.59-.1387.3082-.1123.6655.07.95.1836.2862.5.4594.84.46h4.94c.229.001.4514-.0767.63-.22.6129-.5005,1.3788-.7758,2.17-.78,1.933,0,3.5,1.567,3.5,3.5s-1.567,3.5-3.5,3.5h0c-.7912-.0042-1.5571-.2795-2.17-.78-.1786-.1433-.401-.221-.63-.22h-4.94c-.34.0006-.6564.1738-.84.46-.1823.2845-.2087.6418-.07.95,2.1594,4.7817,7.7863,6.9075,12.5681,4.748,4.7817-2.1594,6.9075-7.7863,4.748-12.5681-1.5379-3.4055-4.9294-5.5932-8.6661-5.59Z" fill="#fff"/>
    <path d="m15.5,30.5c-4.9706-.0001-8.9999-4.0297-8.9997-9.0002.0001-4.9706,4.0297-8.9999,9.0003-8.9998,3.5349,0,6.7424,2.0694,8.1995,5.29.08.15.08.33,0,.48-.0918.1431-.25.2297-.42.23h-4.98c-.1159,0-.2286-.0387-.32-.11-.6996-.5732-1.5755-.8875-2.48-.89-2.2091,0-4,1.7909-4,4s1.7909,4,4,4c.9113.0022,1.7951-.3124,2.5-.89.0914-.0713.2041-.11.32-.11h4.94c.17.0003.3282.0869.42.23.08.15.08.33,0,.48-1.4542,3.2141-4.6522,5.2823-8.18,5.29Z" fill="#075081"/>
    <path d="m15.5,13c3.3387-.0002,6.3676,1.9564,7.74,5h-4.94c-1.933-1.5621-4.7663-1.2614-6.3284.6716-1.5621,1.933-1.2614,4.7663.6716,6.3284,1.6499,1.3333,4.0069,1.3333,5.6569,0h4.94c-1.933,4.278-6.968,6.179-11.246,4.246-4.278-1.933-6.179-6.968-4.246-11.246,1.3762-3.0458,4.4097-5.0023,7.7519-5m0-1c-5.2467-.0044-9.5036,4.2452-9.508,9.4919-.0044,5.2467,4.2452,9.5036,9.4919,9.508,3.7367.0032,7.1282-2.1845,8.6661-5.59.1387-.3082.1123-.6655-.07-.95-.1836-.2862-.5-.4594-.84-.46h-4.94c-.229-.001-.4514.0767-.63.22-.6129.5005-1.3788.7758-2.17.78-1.933,0-3.5-1.567-3.5-3.5s1.567-3.5,3.5-3.5c.7912.0042,1.5571.2795,2.17.78.1786.1433.401.221.63.22h4.94c.34-.0006.6564-.1738.84-.46.1823-.2845.2087-.6418.07-.95-1.5375-3.3985-4.9199-5.5843-8.65-5.59Z" fill="#fff"/>
  </g>
</svg>