<?xml version="1.0" encoding="UTF-8"?>
<svg id="Layer_6_copy_2" data-name="Layer 6 copy 2" xmlns="http://www.w3.org/2000/svg" viewBox="0 0 64 64">
  <g>
    <path d="m29.3251,51.358c-.54-.324-1.188-.432-1.728-.432-.972,0-1.836.324-2.592.864-.756.54-1.188,1.404-1.296,2.376,0,1.188,1.08,1.512,2.16,1.512.864,0,1.728-.108,2.592-.432l-1.08,1.404c-.648.108-1.188.216-1.836.216-1.62,0-3.78-.432-3.78-2.376.108-1.512.864-2.808,2.052-3.672,1.188-.864,2.7-1.404,4.32-1.296.756,0,1.62.108,2.268.432,0,0-1.08,1.404-1.08,1.404Z" fill="#283a97"/>
    <path d="m35.6971,56.866l-.756-5.4-1.944,2.484h1.728l.108,1.08h-1.08c-.864-.108-1.62.108-2.16.756l-.756.972h-2.16l5.94-7.02h2.052l1.08,7.02-2.052.108Z" fill="#283a97"/>
    <path d="m45.5251,51.142h-2.16l-1.944,5.724h-1.944l2.052-5.724h-2.808l.432-1.188h7.452s-1.08,1.188-1.08,1.188Z" fill="#283a97"/>
    <path d="m47.3611,56.866h-1.944l2.484-7.02h1.944l-2.484,7.02Z" fill="#283a97"/>
    <path d="m56.0011,56.866l-.756-5.4-1.944,2.484h1.728l.108,1.08h-1.08c-.864-.108-1.62.108-2.16.756l-.756.972h-2.16l5.94-7.02h2.052l1.08,7.02-2.052.108h0Z" fill="#283a97"/>
    <path d="m26.4091,36.13c-2.7-.648-5.616-.648-8.316,0-.864.216-1.512.54-1.404.756,0,.324.216.324,1.404.324,2.16-.108,4.32,0,6.372.432,1.728.54,1.944,1.404,1.08,3.132-.54.972-1.08,1.836-1.944,2.592-1.62,1.512-3.348,2.7-5.292,3.672-1.188.648-1.728.324-1.512-.324.216-.756,3.672-6.804,3.672-6.804.216-.432.324-.864,0-1.08s-.756.216-1.188.864c-2.052,2.376-5.832,9.612-5.832,9.828-.108.216.108.216.216.216,1.62,0,11.34-2.916,14.58-8.856,1.512-3.024.648-3.996-1.836-4.752Z" fill="#283a97"/>
    <path d="m31.2691,33.214c-1.944,1.728.972,4.536,2.376,6.156s2.916,3.564,3.024,4.212c.108.324-.108.648-.432.864-.648.432-3.132.756-8.424.756-1.08,0-1.404.108-1.404.324s0,.324,1.404.756c0,0,6.048,1.08,9.18,0,3.24-1.08,2.484-3.024,1.836-4.104-.864-1.62-5.076-6.48-5.4-7.128-.216-.324-.108-.648.108-.864h0s.648-.864,6.156-.756c1.08,0,1.404-.108,1.404-.324s-.324-.54-1.404-.756-6.048-1.188-8.424.864Z" fill="#f7941d"/>
    <path d="m24.1411,23.17c-.432.108-1.296.324-1.296.648.108.324.216.324,1.296.324,1.728,0,3.564.108,5.292.324,2.484.432,1.944,1.728,1.188,2.916-1.728,2.916-6.372,6.264-6.696,6.48-.324.216-.108.432.108.216,3.78-1.404,7.56-3.78,9.072-6.696,1.296-2.484.324-3.672-1.62-4.212-2.268-.648-4.86-.648-7.344,0Z" fill="#ee3524"/>
  </g>
  <g id="FINAL_BADGE" data-name="FINAL BADGE">
    <path d="m29,14.8c0-4-3.3-7.2-7.3-7.2-3.5,0-6.5,2.5-7.1,6-4,.4-6.9,3.9-6.6,7.9.4,4,3.9,6.9,7.9,6.6,3.3-.3,5.9-2.7,6.5-6,3.7-.4,6.6-3.6,6.6-7.3Z" fill="#fff"/>
    <path d="m21.5,24.5c-3.5,0-6.7-2.1-8.2-5.3-.1-.1-.1-.3,0-.5.1-.1.3-.2.4-.2h5c.1,0,.2,0,.3.1.7.6,1.6.9,2.5.9,2.2,0,4-1.8,4-4s-1.8-4-4-4c-.9,0-1.8.3-2.5.9-.1.1-.2.1-.3.1h-4.9c-.2,0-.3-.1-.4-.2s-.1-.3,0-.5c2-4.5,7.4-6.5,11.9-4.5s6.5,7.4,4.5,11.9c-1.5,3.2-4.8,5.3-8.3,5.3Z" fill="#e87722"/>
    <path d="m21.5,7c4.7,0,8.5,3.8,8.5,8.5s-3.8,8.5-8.5,8.5c-3.3,0-6.4-2-7.8-5h4.9c1.9,1.6,4.8,1.3,6.3-.7,1.6-1.9,1.3-4.8-.7-6.3-1.6-1.3-4-1.3-5.7,0h-4.9c1.5-3,4.6-5,7.9-5m0-1c-3.7,0-7.1,2.2-8.6,5.6-.1.3-.1.7.1.9.2.3.5.5.8.5h4.9c.2,0,.5-.1.6-.2.6-.5,1.4-.8,2.2-.8,1.9,0,3.5,1.6,3.5,3.5s-1.6,3.5-3.5,3.5h0c-.8,0-1.6-.3-2.2-.8-.2-.1-.4-.2-.6-.2h-4.9c-.3,0-.7.2-.8.5-.2.3-.2.6-.1,1,2.2,4.8,7.8,6.9,12.6,4.7s6.9-7.8,4.7-12.6c-1.6-3.4-5-5.6-8.7-5.6Z" fill="#fff"/>
    <path d="m15.5,30.5c-5,0-9-4-9-9s4-9,9-9c3.5,0,6.7,2.1,8.2,5.3.1.1.1.3,0,.5-.1.1-.3.2-.4.2h-5c-.1,0-.2,0-.3-.1-.7-.6-1.6-.9-2.5-.9-2.2,0-4,1.8-4,4s1.8,4,4,4c.9,0,1.8-.3,2.5-.9.1-.1.2-.1.3-.1h4.9c.2,0,.3.1.4.2s.1.3,0,.5c-1.4,3.2-4.6,5.3-8.1,5.3Z" fill="#e87722"/>
    <path d="m15.5,13c3.3,0,6.4,2,7.7,5h-4.9c-1.9-1.6-4.8-1.3-6.3.7s-1.3,4.8.7,6.3c1.6,1.3,4,1.3,5.7,0h4.9c-1.9,4.3-7,6.2-11.2,4.2s-6.2-7-4.2-11.2c1.2-3,4.3-5,7.6-5m0-1c-5.2,0-9.5,4.2-9.5,9.5s4.2,9.5,9.5,9.5c3.7,0,7.1-2.2,8.7-5.6.1-.3.1-.7-.1-1s-.5-.5-.8-.5h-4.9c-.2,0-.5.1-.6.2-.6.5-1.4.8-2.2.8-1.9,0-3.5-1.6-3.5-3.5s1.6-3.5,3.5-3.5c.8,0,1.6.3,2.2.8.2.1.4.2.6.2h4.9c.3,0,.7-.2.8-.5.2-.3.2-.6.1-1-1.6-3.2-5-5.4-8.7-5.4Z" fill="#fff"/>
  </g>
</svg>