<?xml version="1.0" encoding="utf-8"?>
<!-- Generator: Adobe Illustrator 28.0.0, SVG Export Plug-In . SVG Version: 6.00 Build 0)  -->
<svg version="1.1" id="Layer_1" xmlns="http://www.w3.org/2000/svg" xmlns:xlink="http://www.w3.org/1999/xlink" x="0px" y="0px"
	 viewBox="0 0 64 64" style="enable-background:new 0 0 64 64;" xml:space="preserve">
<style type="text/css">
	.st0{fill:url(#SVGID_1_);stroke:#003755;stroke-linecap:round;stroke-linejoin:round;stroke-miterlimit:10;}
	.st1{fill:url(#SVGID_00000147180891131025104140000006430739272034539441_);}
	.st2{fill:#003755;}
	.st3{fill:url(#SVGID_00000102522559496854293420000000612758340617231286_);}
	.st4{fill:url(#SVGID_00000116923433008583905860000000326194465641111483_);}
	.st5{fill:none;stroke:#003755;stroke-linecap:round;stroke-linejoin:round;stroke-miterlimit:10;}
	
		.st6{fill:url(#SVGID_00000086678351738514130990000006133947982670105260_);stroke:#003755;stroke-linejoin:round;stroke-miterlimit:10;}
	
		.st7{fill:url(#SVGID_00000175309681090987941010000004657895180314119344_);stroke:#003755;stroke-linejoin:round;stroke-miterlimit:10;}
	
		.st8{fill:url(#SVGID_00000146481255305229983450000002539503731242903997_);stroke:#003755;stroke-linejoin:round;stroke-miterlimit:10;}
	.st9{fill:none;stroke:#003755;stroke-linejoin:round;stroke-miterlimit:10;}
	
		.st10{fill:url(#SVGID_00000080892027781863884430000009513995043884558013_);stroke:#003755;stroke-linejoin:round;stroke-miterlimit:10;}
	
		.st11{fill:url(#SVGID_00000134223456304362848450000008940262868308413616_);stroke:#323232;stroke-linecap:round;stroke-linejoin:round;stroke-miterlimit:1;}
	
		.st12{fill:url(#SVGID_00000055686876718524314580000010745967168815289016_);stroke:#323232;stroke-linecap:round;stroke-linejoin:round;stroke-miterlimit:1;}
	.st13{fill:#FFFFFF;stroke:#231F20;stroke-width:0.25;stroke-linecap:round;stroke-linejoin:round;stroke-miterlimit:10;}
	
		.st14{fill:url(#SVGID_00000095313540280871690980000016793361910513891487_);stroke:#323232;stroke-linecap:round;stroke-linejoin:round;stroke-miterlimit:1;}
	.st15{fill:none;stroke:#231F20;stroke-miterlimit:10;}
	
		.st16{fill:url(#SVGID_00000085245806873971283860000002369492827355229618_);stroke:#063755;stroke-linecap:round;stroke-linejoin:round;stroke-miterlimit:1;}
	
		.st17{fill:url(#SVGID_00000048467341054197514810000012558052776118038202_);stroke:#063755;stroke-linecap:round;stroke-linejoin:round;stroke-miterlimit:1;}
	
		.st18{fill:url(#SVGID_00000003081802903073482130000015676094058849559178_);stroke:#063755;stroke-linecap:round;stroke-linejoin:round;stroke-miterlimit:1;}
	
		.st19{fill:url(#SVGID_00000153669908937425022640000009866716797131013535_);stroke:#053755;stroke-linejoin:round;stroke-miterlimit:10;}
	.st20{fill:url(#SVGID_00000114793801617638437170000009645636245136624023_);}
</style>
<g>
	<linearGradient id="SVGID_1_" gradientUnits="userSpaceOnUse" x1="18.3207" y1="16.213" x2="35.694" y2="46.3046">
		<stop  offset="0" style="stop-color:#82BEDC"/>
		<stop  offset="1" style="stop-color:#285A78"/>
	</linearGradient>
	<path style="fill:url(#SVGID_1_);stroke:#003755;stroke-linejoin:round;stroke-miterlimit:10;" d="M28.1,49.5
		c4.1,0,7.5-3.3,7.5-7.5l0-20.2l0-11.7c0-0.9-0.7-1.7-1.7-1.7h-1.7c-0.9,0-1.7,0.7-1.7,1.7v11.8c0,0.5-0.3,1-0.7,1.3
		c-2.7,1.5-13.7,7.6-16.4,9.3v9.6c0,4.1,3.3,7.5,7.5,7.5H28.1z"/>
	
		<linearGradient id="SVGID_00000016783725313894190290000004783029049947505060_" gradientUnits="userSpaceOnUse" x1="18.1307" y1="23.2677" x2="23.2542" y2="32.1419">
		<stop  offset="0" style="stop-color:#82BEDC"/>
		<stop  offset="1" style="stop-color:#285A78"/>
	</linearGradient>
	
		<path style="fill:url(#SVGID_00000016783725313894190290000004783029049947505060_);stroke:#003755;stroke-linejoin:round;stroke-miterlimit:10;" d="
		M23.5,32l0-8.2c0-0.7-0.6-1.3-1.3-1.3h-2.4c-0.7,0-1.3,0.6-1.3,1.3V33"/>
	
		<linearGradient id="SVGID_00000101094309704801288810000009014430072461422743_" gradientUnits="userSpaceOnUse" x1="22.6979" y1="21.5176" x2="28.6875" y2="31.8918">
		<stop  offset="0" style="stop-color:#82BEDC"/>
		<stop  offset="1" style="stop-color:#285A78"/>
	</linearGradient>
	
		<path style="fill:url(#SVGID_00000101094309704801288810000009014430072461422743_);stroke:#003755;stroke-linejoin:round;stroke-miterlimit:10;" d="
		M28.5,32l0-10.2c0-0.7-0.6-1.3-1.3-1.3h-2.4c-0.7,0-1.3,0.6-1.3,1.3V33"/>
	<path class="st9" d="M26.5,44v-5.3c0-0.1-0.1-0.2-0.2-0.2h-4.9c-1,0-1.9-0.8-1.9-1.8v-2.3c0-1,0.8-1.8,1.9-1.8h11.1
		c1.7,0,3.1,2,3.1,4.4"/>
	
		<linearGradient id="SVGID_00000035492344377153445080000008461239231430084252_" gradientUnits="userSpaceOnUse" x1="13.1058" y1="27.3848" x2="18.9456" y2="37.4997">
		<stop  offset="0" style="stop-color:#82BEDC"/>
		<stop  offset="1" style="stop-color:#285A78"/>
	</linearGradient>
	
		<path style="fill:url(#SVGID_00000035492344377153445080000008461239231430084252_);stroke:#003755;stroke-linejoin:round;stroke-miterlimit:10;" d="
		M18.6,27.9c0-0.8-0.7-1.4-1.6-1.4h-1.8c-0.9,0-1.6,0.6-1.6,1.4V37c0,0.8,0.9,1.5,2,1.5h1.1c1.1,0,1.9-0.6,2-1.5L18.6,27.9z"/>
</g>
<g>
	
		<linearGradient id="SVGID_00000018200112261979125580000016900593802813326470_" gradientUnits="userSpaceOnUse" x1="31.6325" y1="32.9491" x2="45.9208" y2="8.2009" gradientTransform="matrix(1 0 0 -1 0 66)">
		<stop  offset="0" style="stop-color:#F4F5F5"/>
		<stop  offset="0.9921" style="stop-color:#D2D2D2"/>
	</linearGradient>
	
		<polygon style="fill:url(#SVGID_00000018200112261979125580000016900593802813326470_);stroke:#323232;stroke-linecap:round;stroke-linejoin:round;stroke-miterlimit:1;" points="
		32.5,32.5 32.5,50.3 48.5,56.3 48.5,46.5 40.5,43.5 40.5,34.5 	"/>
	
		<linearGradient id="SVGID_00000181063329185966080600000000414511968570173352_" gradientUnits="userSpaceOnUse" x1="39.537" y1="37.5629" x2="42.583" y2="32.2871" gradientTransform="matrix(1 0 0 -1 0 66)">
		<stop  offset="0" style="stop-color:#F4F5F5"/>
		<stop  offset="0.9921" style="stop-color:#D2D2D2"/>
	</linearGradient>
	
		<polygon style="fill:url(#SVGID_00000181063329185966080600000000414511968570173352_);stroke:#323232;stroke-linecap:round;stroke-linejoin:round;stroke-miterlimit:1;" points="
		49.6,29.6 43.3,28.5 32.5,32.5 40.5,34.5 	"/>
	<polygon class="st13" points="50,37 56,39 49,45 42,42 	"/>
	<polygon class="st13" points="50,30 41,34 41,43 50,37 	"/>
	
		<linearGradient id="SVGID_00000060017605393036357980000013736509220000712843_" gradientUnits="userSpaceOnUse" x1="49.7956" y1="22.9292" x2="55.2044" y2="13.5608" gradientTransform="matrix(1 0 0 -1 0 66)">
		<stop  offset="0" style="stop-color:#F4F5F5"/>
		<stop  offset="0.9921" style="stop-color:#D2D2D2"/>
	</linearGradient>
	
		<polygon style="fill:url(#SVGID_00000060017605393036357980000013736509220000712843_);stroke:#323232;stroke-linecap:round;stroke-linejoin:round;stroke-miterlimit:1;" points="
		56.5,47.4 56.5,39.2 48.5,46.1 48.5,56.3 	"/>
	
		<linearGradient id="SVGID_00000032609629731184030630000007424212559912802468_" gradientUnits="userSpaceOnUse" x1="47.2518" y1="35.3983" x2="50.1179" y2="30.4341" gradientTransform="matrix(1 0 0 -1 0 66)">
		<stop  offset="0" style="stop-color:#A2DDF7"/>
		<stop  offset="1" style="stop-color:#73C3E1"/>
	</linearGradient>
	
		<polygon style="fill:url(#SVGID_00000032609629731184030630000007424212559912802468_);stroke:#063755;stroke-linecap:round;stroke-linejoin:round;stroke-miterlimit:1;" points="
		40.5,34.5 49.6,29.7 56.5,31 48.5,36.5 	"/>
	
		<linearGradient id="SVGID_00000177465769999918683920000009535193119886247605_" gradientUnits="userSpaceOnUse" x1="41.8757" y1="30.4605" x2="60.5571" y2="-1.8967" gradientTransform="matrix(1 0 0 -1 0 66)">
		<stop  offset="0" style="stop-color:#82BDDC"/>
		<stop  offset="1" style="stop-color:#275A78"/>
	</linearGradient>
	
		<polygon style="fill:url(#SVGID_00000177465769999918683920000009535193119886247605_);stroke:#063755;stroke-linecap:round;stroke-linejoin:round;stroke-miterlimit:1;" points="
		40.5,43.7 40.5,34.5 48.5,36.5 48.5,46.5 	"/>
	
		<linearGradient id="SVGID_00000036959407441599707670000007824518442714854828_" gradientUnits="userSpaceOnUse" x1="47.7222" y1="35.5205" x2="62.0787" y2="10.6543" gradientTransform="matrix(1 0 0 -1 0 66)">
		<stop  offset="0" style="stop-color:#8BD6F4"/>
		<stop  offset="1" style="stop-color:#376E8C"/>
	</linearGradient>
	
		<polygon style="fill:url(#SVGID_00000036959407441599707670000007824518442714854828_);stroke:#063755;stroke-linecap:round;stroke-linejoin:round;stroke-miterlimit:1;" points="
		56.5,39.2 56.5,31 48.5,36.5 48.5,46.5 	"/>
</g>
<g>
	<g>
		
			<linearGradient id="SVGID_00000124128118003457052960000013300072899805406341_" gradientUnits="userSpaceOnUse" x1="48.3977" y1="48.872" x2="55.1979" y2="37.0937" gradientTransform="matrix(1 0 0 -1 0 66)">
			<stop  offset="0" style="stop-color:#8DD7F4"/>
			<stop  offset="1" style="stop-color:#386E8C"/>
		</linearGradient>
		
			<path style="fill:url(#SVGID_00000124128118003457052960000013300072899805406341_);stroke:#053755;stroke-linejoin:round;stroke-miterlimit:10;" d="
			M55.4,20.8c0,2.5-4.4,10.5-4.4,10.5s-4.4-8.1-4.4-10.5s1.9-4.5,4.4-4.5S55.4,18.3,55.4,20.8z"/>
		
			<linearGradient id="SVGID_00000132780377715138929950000000566704443186758844_" gradientUnits="userSpaceOnUse" x1="48.32" y1="45.4" x2="53.64" y2="45.4" gradientTransform="matrix(1 0 0 -1 0 66)">
			<stop  offset="0" style="stop-color:#464647"/>
			<stop  offset="1" style="stop-color:#151515"/>
		</linearGradient>
		<circle style="fill:url(#SVGID_00000132780377715138929950000000566704443186758844_);" cx="51" cy="20.6" r="2.7"/>
	</g>
</g>
</svg>
