<?xml version="1.0" encoding="utf-8"?>
<!-- Generator: Adobe Illustrator 27.5.0, SVG Export Plug-In . SVG Version: 6.00 Build 0)  -->
<svg version="1.1" id="Layer_1" xmlns="http://www.w3.org/2000/svg" xmlns:xlink="http://www.w3.org/1999/xlink" x="0px" y="0px"
	 viewBox="0 0 64 64" style="enable-background:new 0 0 64 64;" xml:space="preserve">
<style type="text/css">
	.Grey_x0020_METAL{fill:url(#SVGID_1_);stroke:#323232;stroke-linejoin:round;stroke-miterlimit:10;}
	.st0{fill:url(#SVGID_00000042016331601460389570000013861201930242213023_);stroke:#003755;stroke-miterlimit:10;}
	.st1{opacity:0.3;}
	.st2{fill:url(#SVGID_00000029749169738777017420000008304826071563377820_);stroke:#003755;stroke-miterlimit:10;}
	.st3{opacity:0.5;}
	.st4{fill:#003755;}
	.st5{fill:url(#SVGID_00000039824310693014680960000012005114556126994354_);stroke:#003755;stroke-miterlimit:10;}
	.st6{fill:url(#SVGID_00000055681879413113563740000012200346451310823867_);stroke:#003755;stroke-miterlimit:10;}
	.st7{fill:url(#SVGID_00000055680430166183257250000016882699257033044619_);stroke:#003755;stroke-miterlimit:10;}
	.st8{fill:url(#SVGID_00000106109609366640956790000003239889943043316142_);stroke:#003755;stroke-miterlimit:10;}
	.st9{opacity:0.5;fill:#FFFFFF;enable-background:new    ;}
	.st10{fill:url(#SVGID_00000089548202080228336690000001507153218685622656_);}
	.st11{fill:url(#SVGID_00000078018343930858086690000005671224797107632571_);}
	.st12{fill:#787878;}
	.st13{opacity:0.3;fill:#FFFFFF;enable-background:new    ;}
	.st14{fill:#323232;}
	.st15{fill:url(#SVGID_00000055680399772179263540000005840486242439034558_);}
	.st16{fill:url(#SVGID_00000166656031168269788070000004520641590654044052_);}
	.st17{opacity:0.6;fill:#FFFFFF;}
	
		.st18{fill:url(#SVGID_00000042014439980545350710000015440342958338459818_);stroke:#323232;stroke-linejoin:round;stroke-miterlimit:10;}
	
		.st19{fill:url(#SVGID_00000102524601667377532720000018348251826074055584_);stroke:#323232;stroke-linejoin:round;stroke-miterlimit:10;}
	
		.st20{fill:url(#SVGID_00000154391439564615690090000009580542932009993900_);stroke:#053755;stroke-linejoin:round;stroke-miterlimit:10;}
	.st21{fill:url(#SVGID_00000015332001749141488720000013107151917751745969_);}
	.st22{fill:url(#SVGID_00000183958362292211838250000012444588932383018633_);}
	.st23{opacity:0.5;fill:#FFFFFF;}
	
		.st24{fill:url(#SVGID_00000042712210216786029160000003193980682645877913_);stroke:#323232;stroke-linejoin:round;stroke-miterlimit:10;}
	.st25{fill:url(#SVGID_00000109715321366362862530000014782365276471776187_);}
	.st26{fill:url(#SVGID_00000023260996934169102090000006015415867260470968_);}
	.st27{opacity:0.5;fill:url(#SVGID_00000170960105509914698170000014220884504667497873_);}
	.st28{opacity:0.5;fill:url(#SVGID_00000043441486884022344680000002820879569003334042_);}
	.st29{opacity:0.61;fill:url(#SVGID_00000057832816618447883340000002589006677137115024_);}
</style>
<linearGradient id="SVGID_1_" gradientUnits="userSpaceOnUse" x1="0" y1="0" x2="1" y2="0">
	<stop  offset="0.18" style="stop-color:#BEBEBE"/>
	<stop  offset="0.32" style="stop-color:#F5F5F5"/>
	<stop  offset="0.6" style="stop-color:#C6C6C6"/>
	<stop  offset="0.8" style="stop-color:#DDDDDD"/>
	<stop  offset="0.96" style="stop-color:#A49F9F"/>
</linearGradient>
<g>
	<g>
		<g>
			
				<linearGradient id="SVGID_00000127729448782510606520000012564463686257532297_" gradientUnits="userSpaceOnUse" x1="14.2417" y1="7.0718" x2="39.9952" y2="51.6782">
				<stop  offset="0" style="stop-color:#8CD7F5"/>
				<stop  offset="1" style="stop-color:#376E8C"/>
			</linearGradient>
			
				<polygon style="fill:url(#SVGID_00000127729448782510606520000012564463686257532297_);stroke:#003755;stroke-miterlimit:10;" points="
				45.5,48.5 13.5,48.5 13.5,7.5 34.5,7.5 45.5,18.5 			"/>
			<g class="st1">
				<g transform="translate(1 -21)">
					
						<image style="overflow:visible;enable-background:new    ;" width="18" height="17" xlink:href="8E62E03F.png"  transform="matrix(1 0 0 1 29.5 6.5)">
					</image>
				</g>
			</g>
			
				<linearGradient id="SVGID_00000129188680623768047970000012970929717930135451_" gradientUnits="userSpaceOnUse" x1="33.0204" y1="7.7769" x2="41.2165" y2="21.9731">
				<stop  offset="0" style="stop-color:#8CD7F5"/>
				<stop  offset="1" style="stop-color:#376E8C"/>
			</linearGradient>
			
				<polygon style="fill:url(#SVGID_00000129188680623768047970000012970929717930135451_);stroke:#003755;stroke-miterlimit:10;" points="
				33.5,19.5 33.5,7.5 34.5,7.5 45.5,18.5 45.5,19.5 			"/>
			<g id="txt__ok_00000168084042273336781170000002030334489071869626_" class="st3">
				<rect x="17.5" y="30.5" class="st4" width="23" height="2"/>
				<rect x="17.5" y="39.5" class="st4" width="23" height="2"/>
				<rect x="17.5" y="21.5" class="st4" width="23" height="2"/>
				<rect x="17.5" y="12.5" class="st4" width="12" height="2"/>
			</g>
		</g>
		<g>
			
				<linearGradient id="SVGID_00000006686260886200985800000009022594546625954225_" gradientUnits="userSpaceOnUse" x1="17.2417" y1="9.0718" x2="42.9952" y2="53.6782">
				<stop  offset="0" style="stop-color:#8CD7F5"/>
				<stop  offset="1" style="stop-color:#376E8C"/>
			</linearGradient>
			
				<polygon style="fill:url(#SVGID_00000006686260886200985800000009022594546625954225_);stroke:#003755;stroke-miterlimit:10;" points="
				48.5,50.5 16.5,50.5 16.5,9.5 37.5,9.5 48.5,20.5 			"/>
			<g class="st1">
				<g transform="translate(1 -21)">
					
						<image style="overflow:visible;enable-background:new    ;" width="18" height="17" xlink:href="8E62E03D.png"  transform="matrix(1 0 0 1 32 8)">
					</image>
				</g>
			</g>
			
				<linearGradient id="SVGID_00000147214929089980381200000003277442622574469548_" gradientUnits="userSpaceOnUse" x1="36.0204" y1="9.7769" x2="44.2165" y2="23.9731">
				<stop  offset="0" style="stop-color:#8CD7F5"/>
				<stop  offset="1" style="stop-color:#376E8C"/>
			</linearGradient>
			
				<polygon style="fill:url(#SVGID_00000147214929089980381200000003277442622574469548_);stroke:#003755;stroke-miterlimit:10;" points="
				36.5,21.5 36.5,9.5 37.5,9.5 48.5,20.5 48.5,21.5 			"/>
			<g id="txt__ok_00000162349891998355325470000016240072138677510273_" class="st3">
				<rect x="21" y="33" class="st4" width="23" height="2"/>
				<rect x="21" y="42" class="st4" width="23" height="2"/>
				<rect x="21" y="24" class="st4" width="23" height="2"/>
				<rect x="21" y="15" class="st4" width="12" height="2"/>
			</g>
		</g>
		<g>
			
				<linearGradient id="SVGID_00000147915441340764389050000005526461034096122497_" gradientUnits="userSpaceOnUse" x1="20.2417" y1="11.0718" x2="45.9952" y2="55.6782">
				<stop  offset="0" style="stop-color:#8CD7F5"/>
				<stop  offset="1" style="stop-color:#376E8C"/>
			</linearGradient>
			
				<polygon style="fill:url(#SVGID_00000147915441340764389050000005526461034096122497_);stroke:#003755;stroke-miterlimit:10;" points="
				51.5,52.5 19.5,52.5 19.5,11.5 40.5,11.5 51.5,22.5 			"/>
			<g class="st1">
				<g transform="translate(1 -21)">
					
						<image style="overflow:visible;enable-background:new    ;" width="18" height="17" xlink:href="8E62E043.png"  transform="matrix(1 0 0 1 35 10)">
					</image>
				</g>
			</g>
			
				<linearGradient id="SVGID_00000010307826253721203420000009689927799006552975_" gradientUnits="userSpaceOnUse" x1="39.0204" y1="11.7769" x2="47.2165" y2="25.9731">
				<stop  offset="0" style="stop-color:#8CD7F5"/>
				<stop  offset="1" style="stop-color:#376E8C"/>
			</linearGradient>
			
				<polygon style="fill:url(#SVGID_00000010307826253721203420000009689927799006552975_);stroke:#003755;stroke-miterlimit:10;" points="
				39.5,23.5 39.5,11.5 40.5,11.5 51.5,22.5 51.5,23.5 			"/>
			<g id="txt__ok_00000154406837258481189530000009124453823155760535_" class="st3">
				<rect x="24" y="35" class="st4" width="23" height="2"/>
				<rect x="24" y="44" class="st4" width="23" height="2"/>
				<rect x="24" y="26" class="st4" width="23" height="2"/>
				<rect x="24" y="17" class="st4" width="12" height="2"/>
			</g>
		</g>
	</g>
	<g>
		<path class="st9" d="M55.9,45.1c0-0.1,0-0.2,0-0.3c0-0.2-0.1-0.3-0.1-0.5c0-0.1-0.1-0.2-0.1-0.4c0-0.1-0.1-0.2-0.1-0.3
			c-0.1-0.1-0.1-0.3-0.2-0.4l0,0c-0.5-1.3-1.4-2.4-2.6-3.1l0,0c0.4-0.4,0.6-0.9,0.8-1.5v-0.1c0.1-0.2,0.1-0.5,0.2-0.7
			c0.1-0.3,0.1-0.6,0.1-0.9c0-2.8-2.2-5-5-5c-2.1,0-3.9,1.3-4.6,3.1c-0.7-0.4-1.5-0.6-2.4-0.6c-2.8,0-5,2.2-5,5c0,0.3,0,0.6,0.1,0.9
			c0,0.3,0.1,0.5,0.2,0.7c0,0,0,0,0,0.1c0.2,0.5,0.5,1,0.8,1.5l0,0c-0.5,0.3-0.9,0.7-1.2,1.1c-0.1,0.1-0.1,0.1-0.2,0.2
			c-0.1,0.1-0.2,0.2-0.3,0.3s-0.2,0.2-0.3,0.4v0.1c-0.3,0.5-0.6,1.1-0.8,1.6c0,0.1,0,0.1-0.1,0.2c0,0.1-0.1,0.3-0.1,0.4
			c0,0.1-0.1,0.3-0.1,0.4c0,0.1,0,0.2-0.1,0.4c0,0.3,0,0.5,0,0.8V56c0,2.2,4.4,2.5,7,2.5s7-0.3,7-2.5c2.6,0,7-0.3,7-2.5V46
			C56,45.6,56,45.4,55.9,45.1z"/>
		<g>
			<g>
				
					<linearGradient id="SVGID_00000128484871672769738830000017748708671497689239_" gradientUnits="userSpaceOnUse" x1="44.6979" y1="88.5391" x2="52.5922" y2="74.8656" gradientTransform="matrix(1 0 0 -1 0 130)">
					<stop  offset="0" style="stop-color:#D7D7D7"/>
					<stop  offset="1" style="stop-color:#969696"/>
				</linearGradient>
				<path style="fill:url(#SVGID_00000128484871672769738830000017748708671497689239_);" d="M49,39.9c-3.3,0-6,2.7-6,6v7.5
					c0,0.8,2.2,1.5,6,1.5s6-0.7,6-1.5v-7.5C55,42.6,52.3,39.9,49,39.9z"/>
				<g>
					
						<linearGradient id="SVGID_00000145757047276384579030000015247982855838521746_" gradientUnits="userSpaceOnUse" x1="45.5" y1="93.1" x2="52.5" y2="93.1" gradientTransform="matrix(1 0 0 -1 0 130)">
						<stop  offset="0" style="stop-color:#D7D7D7"/>
						<stop  offset="1" style="stop-color:#969696"/>
					</linearGradient>
					<circle style="fill:url(#SVGID_00000145757047276384579030000015247982855838521746_);" cx="49" cy="36.9" r="3.5"/>
					<path class="st12" d="M49,33.9c1.7,0,3,1.3,3,3s-1.3,3-3,3s-3-1.3-3-3S47.3,33.9,49,33.9 M49,32.9c-2.2,0-4,1.8-4,4s1.8,4,4,4
						s4-1.8,4-4S51.2,32.9,49,32.9L49,32.9z"/>
				</g>
				<path class="st13" d="M51.3,42.7c0.4,0.8,0.7,1.8,0.7,3v7.1c0.4-0.1,0.8-0.1,1-0.2V46C53,44.6,52.3,43.4,51.3,42.7z"/>
				<path class="st13" d="M51.6,36.6c0-1.1-0.9-2.2-1.6-2.2c-0.4,0-0.7,0.3-0.7,0.9c0,1.1,0.9,2.2,1.6,2.2
					C51.4,37.5,51.6,37.1,51.6,36.6z"/>
				<path class="st14" d="M49,33.9c1.7,0,3,1.3,3,3c0,1-0.5,2-1.4,2.5c-0.3,0.2-0.5,0.6-0.5,0.9c0,0.4,0.3,0.7,0.6,0.8
					c1.9,0.7,3.2,2.6,3.2,4.7v7.3c-0.5,0.3-2,0.7-5,0.7s-4.5-0.5-5-0.7v-7.3c0-2.1,1.3-3.9,3.2-4.7c0.4-0.1,0.6-0.5,0.6-0.8
					c0-0.4-0.1-0.7-0.5-0.9c-0.9-0.6-1.4-1.5-1.4-2.5C46,35.3,47.3,33.9,49,33.9 M49,32.9c-2.2,0-4,1.8-4,4c0,1.4,0.8,2.7,1.9,3.4
					c-2.3,0.9-3.9,3-3.9,5.6v7.5c0,0.8,2.2,1.5,6,1.5s6-0.7,6-1.5v-7.5c0-2.6-1.6-4.8-3.9-5.6c1.1-0.7,1.9-2,1.9-3.4
					C53,34.7,51.2,32.9,49,32.9L49,32.9z"/>
			</g>
			<g>
				<g>
					
						<radialGradient id="SVGID_00000034781172668391646380000014668257370008035481_" cx="41.8323" cy="90.2403" r="3.5" gradientTransform="matrix(1 0 0 -1 0 130)" gradientUnits="userSpaceOnUse">
						<stop  offset="0" style="stop-color:#FFFFFF"/>
						<stop  offset="1" style="stop-color:#D2D2D2"/>
					</radialGradient>
					<circle style="fill:url(#SVGID_00000034781172668391646380000014668257370008035481_);" cx="42" cy="39.4" r="3.5"/>
					<path class="st12" d="M42,36.4c1.7,0,3,1.3,3,3s-1.3,3-3,3s-3-1.3-3-3S40.3,36.4,42,36.4 M42,35.4c-2.2,0-4,1.8-4,4s1.8,4,4,4
						s4-1.8,4-4S44.2,35.4,42,35.4L42,35.4z"/>
				</g>
				<g>
					
						<linearGradient id="SVGID_00000074440203909733413710000013265789062216734865_" gradientUnits="userSpaceOnUse" x1="37.9462" y1="85.5937" x2="45.3475" y2="72.7742" gradientTransform="matrix(1 0 0 -1 0 130)">
						<stop  offset="0" style="stop-color:#FFFFFF"/>
						<stop  offset="1" style="stop-color:#D2D2D2"/>
					</linearGradient>
					<path style="fill:url(#SVGID_00000074440203909733413710000013265789062216734865_);" d="M42,56.9c-3.9,0-5.4-0.8-5.5-1v-7.5
						c0-3,2.5-5.5,5.5-5.5s5.5,2.5,5.5,5.5v7.5C47.4,56.2,45.9,56.9,42,56.9z"/>
					<path class="st12" d="M42,43.4c2.8,0,5,2.2,5,5v7.3c-0.5,0.3-2,0.7-5,0.7s-4.5-0.5-5-0.7v-7.3C37,45.7,39.2,43.4,42,43.4
						 M42,42.4c-3.3,0-6,2.7-6,6v7.5c0,0.8,2.2,1.5,6,1.5s6-0.7,6-1.5v-7.5C48,45.1,45.3,42.4,42,42.4L42,42.4z"/>
				</g>
				<path class="st13" d="M44.3,45.2c0.4,0.8,0.7,1.8,0.7,3v7.1c0.4-0.1,0.8-0.1,1-0.2v-6.6C46,47.1,45.3,45.9,44.3,45.2z"/>
				<path class="st13" d="M44.6,39.1c0-1.1-0.9-2.2-1.6-2.2c-0.4,0-0.7,0.3-0.7,0.9c0,1.1,0.9,2.2,1.6,2.2
					C44.4,40,44.6,39.6,44.6,39.1z"/>
				<g>
					<path class="st14" d="M42,36.4c1.7,0,3,1.3,3,3c0,1-0.5,2-1.4,2.5c-0.3,0.2-0.5,0.6-0.5,0.9c0,0.4,0.3,0.7,0.6,0.8
						c1.9,0.7,3.2,2.6,3.2,4.7v7.3c-0.5,0.3-2,0.7-5,0.7s-4.5-0.5-5-0.7v-7.3c0-2.1,1.3-3.9,3.2-4.7c0.4-0.1,0.6-0.5,0.6-0.8
						c0-0.4-0.1-0.7-0.5-0.9c-0.9-0.6-1.4-1.5-1.4-2.5C39,37.8,40.3,36.4,42,36.4 M42,35.4c-2.2,0-4,1.8-4,4c0,1.4,0.8,2.7,1.9,3.4
						c-2.3,0.9-3.9,3-3.9,5.6v7.5c0,0.8,2.2,1.5,6,1.5s6-0.7,6-1.5v-7.5c0-2.6-1.6-4.8-3.9-5.6c1.1-0.7,1.9-2,1.9-3.4
						C46,37.2,44.2,35.4,42,35.4L42,35.4z"/>
				</g>
			</g>
		</g>
	</g>
</g>
<g>
	<g>
		
			<linearGradient id="SVGID_00000085949865072751187020000012823991199893536932_" gradientUnits="userSpaceOnUse" x1="8.0634" y1="44.75" x2="29.6051" y2="44.75">
			<stop  offset="4.000000e-02" style="stop-color:#A49F9F"/>
			<stop  offset="0.2" style="stop-color:#DDDDDD"/>
			<stop  offset="0.4" style="stop-color:#C6C6C6"/>
			<stop  offset="0.68" style="stop-color:#F5F5F5"/>
			<stop  offset="1" style="stop-color:#BEBEBE"/>
		</linearGradient>
		<path style="fill:url(#SVGID_00000085949865072751187020000012823991199893536932_);" d="M18.8,33c0,0-2.5,2.4-10.8,2.4v3.4
			c0,15.9,10.8,17.6,10.8,17.6s10.8-1.7,10.8-17.6v-3.4C21.3,35.4,18.8,33,18.8,33z"/>
	</g>
	
		<linearGradient id="SVGID_00000055667356352906030210000011124227156605638801_" gradientUnits="userSpaceOnUse" x1="8.0634" y1="44.75" x2="29.6051" y2="44.75">
		<stop  offset="0.18" style="stop-color:#BEBEBE"/>
		<stop  offset="0.32" style="stop-color:#F5F5F5"/>
		<stop  offset="0.6" style="stop-color:#C6C6C6"/>
		<stop  offset="0.8" style="stop-color:#DDDDDD"/>
		<stop  offset="0.96" style="stop-color:#A49F9F"/>
	</linearGradient>
	
		<path style="fill:url(#SVGID_00000055667356352906030210000011124227156605638801_);stroke:#323232;stroke-linejoin:round;stroke-miterlimit:10;" d="
		M18.8,33c0,0-2.5,2.4-10.8,2.4v3.4c0,15.9,10.8,17.6,10.8,17.6s10.8-1.7,10.8-17.6v-3.4C21.3,35.4,18.8,33,18.8,33z"/>
	
		<linearGradient id="SVGID_00000129905079047794496490000011010316335058391724_" gradientUnits="userSpaceOnUse" x1="14.9463" y1="34.563" x2="24.7187" y2="51.4893">
		<stop  offset="0" style="stop-color:#D7D7D7"/>
		<stop  offset="1" style="stop-color:#969696"/>
	</linearGradient>
	<path style="fill:url(#SVGID_00000129905079047794496490000011010316335058391724_);" d="M18.8,54.5c-1.6-0.4-8.8-3-8.8-15.7v-1.5
		c4.6-0.2,7.4-1.4,8.8-2.2c1.5,0.8,4.2,2,8.8,2.2v1.5C27.6,51.5,20.5,54.1,18.8,54.5z"/>
	
		<linearGradient id="SVGID_00000044152263961388145730000009952909521994310299_" gradientUnits="userSpaceOnUse" x1="14.6872" y1="33.9404" x2="25.0264" y2="51.8483">
		<stop  offset="0" style="stop-color:#AAAAAA"/>
		<stop  offset="1" style="stop-color:#5A5A5A"/>
	</linearGradient>
	<path style="fill:url(#SVGID_00000044152263961388145730000009952909521994310299_);" d="M18.8,34.7c-1.4,0.8-4.2,2-9.3,2.2v2
		c0,13.3,7.8,15.8,9.3,16.2c1.4-0.3,9.3-2.9,9.3-16.2v-2C23,36.7,20.2,35.5,18.8,34.7z M27.6,38.9c0,12.6-7.1,15.2-8.8,15.7
		c-1.7-0.4-8.8-3-8.8-15.7v-1.5c4.4-0.2,7.2-1.3,8.8-2.2c1.6,0.9,4.4,2,8.8,2.2V38.9z"/>
	
		<radialGradient id="SVGID_00000003088711965628194220000010490136812605189560_" cx="20.0453" cy="38.9354" r="15.5453" gradientTransform="matrix(6.408839e-03 0.9428 -0.5322 3.423570e-03 41.5037 20.6189)" gradientUnits="userSpaceOnUse">
		<stop  offset="0" style="stop-color:#FFFFFF"/>
		<stop  offset="1" style="stop-color:#FFFFFF;stop-opacity:0"/>
	</radialGradient>
	<path style="opacity:0.5;fill:url(#SVGID_00000003088711965628194220000010490136812605189560_);" d="M18.8,34.4V56
		c0.3-0.1,2.7-0.6,5.1-2.6c2.3-2,5.1-6.1,5.1-13.8v-3C22.2,36.6,19.5,34.9,18.8,34.4z"/>
	
		<linearGradient id="SVGID_00000123436483698035517550000015966141735461489342_" gradientUnits="userSpaceOnUse" x1="18.8342" y1="34.4178" x2="18.8342" y2="54.9395">
		<stop  offset="0" style="stop-color:#FFFFFF"/>
		<stop  offset="0.2775" style="stop-color:#FFFFFF;stop-opacity:0.3"/>
		<stop  offset="1" style="stop-color:#FFFFFF"/>
	</linearGradient>
	<path style="opacity:0.5;fill:url(#SVGID_00000123436483698035517550000015966141735461489342_);" d="M18.8,34.5
		c-3.3,1.9-7.6,2.1-9.1,2.2c-0.3,0-0.5,0.2-0.5,0.5v1.7c0,7.4,2.5,14.2,9.5,16.4c7.1-2.2,9.5-9,9.5-16.4v-1.7c0-0.3-0.2-0.5-0.5-0.5
		C26.5,36.6,22.2,36.4,18.8,34.5z M28.1,38.9c0,13.3-7.9,15.8-9.3,16.2c-1.5-0.4-9.3-2.9-9.3-16.2v-2c5.1-0.2,7.9-1.4,9.3-2.2
		c1.4,0.8,4.2,2,9.3,2.2V38.9z"/>
	
		<linearGradient id="SVGID_00000081625327764517506250000015896979263634112132_" gradientUnits="userSpaceOnUse" x1="18.9566" y1="35.4275" x2="18.9566" y2="47.6378">
		<stop  offset="0" style="stop-color:#FFFFFF;stop-opacity:0"/>
		<stop  offset="0.3274" style="stop-color:#FFFFFF"/>
		<stop  offset="1" style="stop-color:#FFFFFF;stop-opacity:0"/>
	</linearGradient>
	
		<rect x="18.8" y="35.4" style="opacity:0.61;fill:url(#SVGID_00000081625327764517506250000015896979263634112132_);" width="0.2" height="12.2"/>
</g>
</svg>
