<?xml version="1.0" encoding="UTF-8"?>
<svg xmlns="http://www.w3.org/2000/svg" version="1.1" xmlns:xlink="http://www.w3.org/1999/xlink" viewBox="0 0 64 64">
  <defs>
    <linearGradient id="linear-gradient" x1="41.8" y1="13.8" x2="50.5" y2="28.8" gradientUnits="userSpaceOnUse">
      <stop offset="0" stop-color="#d7d7d7"/>
      <stop offset="1" stop-color="#969696"/>
    </linearGradient>
    <linearGradient id="linear-gradient-2" x1="43" y1="16.9" x2="50.1" y2="29.1" gradientUnits="userSpaceOnUse">
      <stop offset="0" stop-color="#fff"/>
      <stop offset="1" stop-color="#d2d2d2"/>
    </linearGradient>
    <linearGradient id="linear-gradient-3" x1="12.5" y1="13.9" x2="22.5" y2="31.2" gradientUnits="userSpaceOnUse">
      <stop offset="0" stop-color="#8cd7f5"/>
      <stop offset="1" stop-color="#376e8c"/>
    </linearGradient>
    <linearGradient id="linear-gradient-4" x1="50.6" y1="44.2" x2="52.7" y2="47.9" gradientUnits="userSpaceOnUse">
      <stop offset="0" stop-color="#3287af"/>
      <stop offset="1" stop-color="#285a78"/>
    </linearGradient>
    <linearGradient id="linear-gradient-5" x1="45.5" y1="17.9" x2="49.6" y2="25.1" xlink:href="#linear-gradient-3"/>
    <linearGradient id="linear-gradient-6" x1="45.5" y1="19.2" x2="47.4" y2="22.6" xlink:href="#linear-gradient-4"/>
    <linearGradient id="linear-gradient-7" x1="47.5" y1="19.1" x2="49.7" y2="22.8" xlink:href="#linear-gradient-4"/>
    <linearGradient id="linear-gradient-8" x1="44.8" y1="38.8" x2="53.5" y2="53.8" xlink:href="#linear-gradient"/>
    <linearGradient id="linear-gradient-9" x1="46" y1="41.9" x2="53" y2="54.1" xlink:href="#linear-gradient-2"/>
    <linearGradient id="linear-gradient-10" x1="48.4" y1="42.9" x2="52.6" y2="50.1" xlink:href="#linear-gradient-3"/>
    <linearGradient id="linear-gradient-11" x1="48.4" y1="44.2" x2="50.4" y2="47.6" xlink:href="#linear-gradient-4"/>
    <linearGradient id="linear-gradient-12" x1="50.5" y1="44.1" x2="52.6" y2="47.8" xlink:href="#linear-gradient-4"/>
  </defs>
  <!-- Generator: Adobe Illustrator 28.7.5, SVG Export Plug-In . SVG Version: 1.2.0 Build 176)  -->
  <g>
    <g id="Layer_1">
      <line x1="27" y1="22.9" x2="39.5" y2="22.9" fill="none" stroke="#323232" stroke-miterlimit="10" stroke-width="2"/>
      <path d="M34,22.9v20.2s-.6,4.8,4.6,4.8h6.4" fill="none" stroke="#323232" stroke-miterlimit="10" stroke-width="2"/>
      <g>
        <g>
          <path d="M17.5,32.5c-5.5,0-10-4.5-10-10s4.5-10,10-10,10,4.5,10,10-4.5,10-10,10Z" fill="url(#linear-gradient-3)"/>
          <path d="M17.5,13c5.2,0,9.5,4.3,9.5,9.5s-4.3,9.5-9.5,9.5-9.5-4.3-9.5-9.5,4.3-9.5,9.5-9.5M17.5,12c-5.8,0-10.5,4.7-10.5,10.5s4.7,10.5,10.5,10.5,10.5-4.7,10.5-10.5-4.7-10.5-10.5-10.5h0Z" fill="#003755"/>
        </g>
        <path d="M25.7,22.3l-7.1-5.5v3.3c-4.8,0-8.1,2.6-8.1,6.5s1.8,4.8,4.1,5.9c1,.3,2,.5,3.1.5s.9,0,1.4,0c-2.7-.9-6.1-2.5-6.1-5.1s2.9-3.3,5.7-3.3v3.3l7.1-5.5Z" fill="#fff"/>
      </g>
      <polygon points="52 44 52 48.3 51 47.7 51 44 52 44" fill="url(#linear-gradient-4)"/>
      <path d="M44,16.5v-.8c0-.6-.5-1.1-1.1-1.1h-2.2c-.6,0-1.1.5-1.1,1.1v10.7c0,.6.5,1.1,1.1,1.1h11.8c.6,0,1.1-.5,1.1-1.1v-8.8c0-.6-.5-1.1-1.1-1.1h-8.5Z" fill="url(#linear-gradient)" stroke="#787878" stroke-linejoin="round"/>
      <rect x="39.5" y="18.4" width="14" height="9.1" rx="1.1" ry="1.1" fill="url(#linear-gradient-2)" stroke="#787878" stroke-linejoin="round"/>
      <path d="M44,16.5v-.8c0-.6-.5-1.1-1.1-1.1h-2.2c-.6,0-1.1.5-1.1,1.1v10.7c0,.6.5,1.1,1.1,1.1h11.8c.6,0,1.1-.5,1.1-1.1v-8.8c0-.6-.5-1.1-1.1-1.1h-8.5Z" fill="none" stroke="#323232" stroke-linejoin="round"/>
      <polygon points="50.6 24.6 47.5 22.4 44.5 24.6 44.5 18.4 50.6 18.4 50.6 24.6" fill="url(#linear-gradient-5)" stroke="#003755" stroke-linejoin="round"/>
      <polygon points="46.9 18.8 46.9 22.7 46.2 23.3 46.2 18.8 46.9 18.8" fill="url(#linear-gradient-6)"/>
      <polygon points="48.8 18.8 48.8 23.3 48.1 22.7 48.1 18.8 48.8 18.8" fill="url(#linear-gradient-7)"/>
      <polygon points="50.6 24.6 47.5 22.4 44.5 24.6 44.5 18.4 50.6 18.4 50.6 24.6" fill="none" stroke="#003755" stroke-linejoin="round"/>
      <g>
        <g>
          <path d="M46.9,41.5v-.8c0-.6-.5-1.1-1.1-1.1h-2.2c-.6,0-1.1.5-1.1,1.1v10.7c0,.6.5,1.1,1.1,1.1h11.8c.6,0,1.1-.5,1.1-1.1v-8.8c0-.6-.5-1.1-1.1-1.1h-8.5Z" fill="url(#linear-gradient-8)" stroke="#787878" stroke-linejoin="round"/>
          <rect x="42.5" y="43.4" width="14" height="9.1" rx="1.1" ry="1.1" fill="url(#linear-gradient-9)" stroke="#787878" stroke-linejoin="round"/>
          <path d="M46.9,41.5v-.8c0-.6-.5-1.1-1.1-1.1h-2.2c-.6,0-1.1.5-1.1,1.1v10.7c0,.6.5,1.1,1.1,1.1h11.8c.6,0,1.1-.5,1.1-1.1v-8.8c0-.6-.5-1.1-1.1-1.1h-8.5Z" fill="none" stroke="#323232" stroke-linejoin="round"/>
          <polygon points="53.6 49.6 50.5 47.4 47.5 49.6 47.5 43.4 53.6 43.4 53.6 49.6" fill="url(#linear-gradient-10)" stroke="#003755" stroke-linejoin="round"/>
          <polygon points="49.9 43.8 49.9 47.7 49.1 48.3 49.1 43.8 49.9 43.8" fill="url(#linear-gradient-11)"/>
          <polygon points="51.8 43.8 51.8 48.3 51.1 47.7 51.1 43.8 51.8 43.8" fill="url(#linear-gradient-12)"/>
        </g>
        <polygon points="53.6 49.6 50.5 47.4 47.5 49.6 47.5 43.4 53.6 43.4 53.6 49.6" fill="none" stroke="#003755" stroke-linejoin="round"/>
      </g>
    </g>
  </g>
</svg>