<?xml version="1.0" encoding="UTF-8"?>
<svg xmlns="http://www.w3.org/2000/svg" version="1.1" xmlns:xlink="http://www.w3.org/1999/xlink" viewBox="0 0 64 64">
  <defs>
    <style>
      .cls-1 {
        fill: url(#linear-gradient-8);
      }

      .cls-1, .cls-2, .cls-3, .cls-4, .cls-5, .cls-6, .Blue_RIGHT_x2C__FRONT__x26__SINGLE {
        stroke-linejoin: round;
      }

      .cls-1, .Blue_RIGHT_x2C__FRONT__x26__SINGLE {
        stroke: #003755;
      }

      .cls-2 {
        fill: url(#linear-gradient-6);
        stroke: #323232;
      }

      .cls-7 {
        fill: url(#linear-gradient-7);
        opacity: .3;
      }

      .cls-7, .cls-8, .cls-9 {
        isolation: isolate;
      }

      .cls-10 {
        fill: url(#linear-gradient-2);
      }

      .cls-3 {
        fill: none;
        stroke: #335;
      }

      .cls-3, .cls-4, .cls-5, .cls-6 {
        stroke-linecap: round;
      }

      .cls-8 {
        fill: #646464;
      }

      .cls-8, .cls-9 {
        opacity: .5;
      }

      .cls-4 {
        stroke: #333332;
      }

      .cls-4, .cls-5 {
        fill: #999;
      }

      .cls-11 {
        fill: url(#linear-gradient-4);
      }

      .cls-12 {
        fill: url(#linear-gradient-3);
      }

      .cls-13 {
        fill: url(#linear-gradient-5);
      }

      .cls-5 {
        stroke: #333332;
      }

      .cls-9 {
        fill: #fff;
      }

      .cls-6 {
        fill: url(#radial-gradient);
        stroke: #333;
      }

      .cls-14 {
        fill: #787878;
      }

      .Blue_RIGHT_x2C__FRONT__x26__SINGLE {
        fill: url(#linear-gradient);
      }

      .cls-15 {
        fill: #323232;
      }
    </style>
    <linearGradient id="linear-gradient" x1="12.3" y1="25" x2="32.1" y2="59.3" gradientUnits="userSpaceOnUse">
      <stop offset="0" stop-color="#8cd7f5"/>
      <stop offset="1" stop-color="#376e8c"/>
    </linearGradient>
    <linearGradient id="linear-gradient-2" x1="23.9" y1="-201.5" x2="32.7" y2="-216.8" gradientTransform="translate(0 -175.1) scale(1 -1)" gradientUnits="userSpaceOnUse">
      <stop offset="0" stop-color="#f5f5f5"/>
      <stop offset="1" stop-color="#bebebe"/>
    </linearGradient>
    <linearGradient id="linear-gradient-3" x1="29.7" y1="-198.1" x2="38.3" y2="-213.1" gradientTransform="translate(0 -175.1) scale(1 -1)" gradientUnits="userSpaceOnUse">
      <stop offset="0" stop-color="#fff"/>
      <stop offset="1" stop-color="#f0f0f0"/>
    </linearGradient>
    <linearGradient id="linear-gradient-4" x1="31.5" y1="-204.9" x2="38.1" y2="-216.4" gradientTransform="translate(0 -175.1) scale(1 -1)" gradientUnits="userSpaceOnUse">
      <stop offset="0" stop-color="#fff"/>
      <stop offset="1" stop-color="#d2d2d2"/>
    </linearGradient>
    <linearGradient id="linear-gradient-5" x1="30" y1="-198.5" x2="35.9" y2="-208.9" gradientTransform="translate(0 -175.1) scale(1 -1)" gradientUnits="userSpaceOnUse">
      <stop offset="0" stop-color="#3287af"/>
      <stop offset="1" stop-color="#285a78"/>
    </linearGradient>
    <radialGradient id="radial-gradient" cx="4.8" cy="46.6" fx="4.8" fy="46.6" r="4.7" gradientTransform="translate(-14.5 -24.2) rotate(-29.2)" gradientUnits="userSpaceOnUse">
      <stop offset="0" stop-color="#fff"/>
      <stop offset=".5" stop-color="#dedede"/>
      <stop offset="1" stop-color="#c5c5c5"/>
    </radialGradient>
    <linearGradient id="linear-gradient-6" x1="46.2" y1="-220.1" x2="52.6" y2="-231.1" gradientTransform="translate(0 -175.1) scale(1 -1)" gradientUnits="userSpaceOnUse">
      <stop offset="0" stop-color="#fff"/>
      <stop offset="1" stop-color="#d4d5d3"/>
    </linearGradient>
    <linearGradient id="linear-gradient-7" x1="49.4" y1="-228.4" x2="49.4" y2="-222.8" gradientTransform="translate(0 -175.1) scale(1 -1)" gradientUnits="userSpaceOnUse">
      <stop offset="0" stop-color="#fff"/>
      <stop offset="1" stop-color="#000"/>
    </linearGradient>
    <linearGradient id="linear-gradient-8" x1="32.1" y1="8.8" x2="51.8" y2="42.8" xlink:href="#linear-gradient"/>
  </defs>
  <!-- Generator: Adobe Illustrator 28.7.1, SVG Export Plug-In . SVG Version: 1.2.0 Build 142)  -->
  <g>
    <g id="Layer_1">
      <g>
        <g>
          <g>
            <polygon class="cls-10" points="23.9 37.3 23.9 26.4 29.2 26.4 31.4 28.5 31.4 41.6 29.5 43.4 23.9 37.3"/>
            <path class="cls-14" d="M29,27l1.8,1.8v12.6l-1.2,1.2-5-5.5v-10.1h4.4M29.5,25.7h-6.2v11.8l6.2,6.8,2.5-2.5v-13.6l-2.5-2.5h0Z"/>
          </g>
          <g>
            <polygon class="cls-12" points="32.6 32.2 24.2 26.2 33.1 24.5 40 28 38.8 37.7 32.6 39.8 32.6 32.2"/>
            <path class="cls-14" d="M33,25.2l6.3,3.1-1,8.9-5.1,1.7v-7l-.5-.4-7-5,7.3-1.4M33.2,23.9l-9.9,1.9v.6l8.7,6.2v8.1l7.4-2.5,1.2-10.5-7.4-3.7h0Z"/>
          </g>
          <g>
            <polygon class="cls-11" points="30.1 30.6 40 28.4 40 40.2 30.1 43.5 30.1 30.6"/>
            <path class="cls-14" d="M39.4,29.1v10.6l-8.7,2.9v-11.5l8.7-1.9M40.6,27.6l-11.2,2.5v14.3l11.2-3.7v-13h0Z"/>
          </g>
          <path class="cls-15" d="M39.4,38.9v.8l-9.5,3.2-5.3-5.9v-10.3l6.4-1.2,2.1-.4,6.4,3.2M23.3,25.7v.6-.5,11.7l6.2,6.8,11.2-3.7v-13.1c0,0-7.4-3.6-7.4-3.6l-9.9,1.9Z"/>
          <polygon class="cls-13" points="36.9 33.2 34.4 33.8 34.4 29.6 27.2 25 29.4 24.6 36.9 29 36.9 33.2"/>
        </g>
        <g>
          <path class="cls-6" d="M18.8,15h0c0-.7-.2-1.4-.5-2.1-1.2-2.2-4.1-2.9-6.4-1.6-2.3,1.3-3.2,4.1-2,6.2.4.7.9,1.2,1.5,1.6h0s0,0,0,0c.2,0,.3.2.5.3,2.5.9,3.8,2,3.8,2l2.8-1.6c-.3-2.2.2-3.6.3-4.3,0-.2,0-.3,0-.5,0,0,0,0,0,0Z"/>
          <rect class="cls-5" x="15.1" y="19.5" width="3.9" height="2.1" rx=".7" ry=".7" transform="translate(-7.9 10.9) rotate(-29.2)"/>
          <rect class="cls-4" x="16.2" y="21.4" width="3.9" height="2.1" rx=".7" ry=".7" transform="translate(-8.6 11.7) rotate(-29.2)"/>
        </g>
        <g>
          <path class="cls-2" d="M55.6,49.5c-1.4,0-2.1-1.7-1.1-2.7h0c0,0,0-.4-.6-.9s-.8-.6-.8-.6h0c-1,1.1-2.7.4-2.7-1h0c0,0,0-.3-1-.3s-1,.3-1,.3h0c0,1.5-1.7,2.2-2.7,1.2h0c0,0-.3,0-.8.5s-.6.8-.6.8h0c1,1.1.3,2.8-1.1,2.8h0s-.3,0-.3,1,.3,1,.3,1h0c1.4,0,2.1,1.7,1.1,2.7h0c0,0,0,.3.5.9s.9.6.9.6h0c1-1.1,2.7-.4,2.7,1h0c0,0,0,.3,1,.3s1-.3,1-.3h0c0-1.5,1.7-2.2,2.7-1.2h0c0,0,.3,0,.8-.5s.6-.8.6-.8h0c-1-1.1-.3-2.8,1.1-2.8h0s.3,0,.3-1-.3-1-.3-1h0ZM49.4,52.5c-1.2,0-2.1-.9-2.1-2.1s.9-2.1,2.1-2.1,2.1.9,2.1,2.1-.9,2.1-2.1,2.1Z"/>
          <path class="cls-9" d="M55.7,49.6h0c-.7,0-1.3-.4-1.6-1.1,0-.1,0-.3-.1-.4,0,.3,0,.6.1.9.3.7.9,1.1,1.6,1.1h0s.1,0,.2.6c0,0,0-.2,0-.3,0-.7-.2-.8-.2-.8ZM53.9,46c-.4-.4-.6-.5-.7-.5h0c-.5.5-1.2.7-1.9.4s-1.1-.9-1.1-1.6h0s-.1-.2-.8-.2-.8.2-.8.2h0c0,.7-.4,1.4-1.1,1.6-.7.3-1.4.1-1.9-.4h0c0,0-.3.1-.7.5-.4.4-.5.6-.5.7h0c0,0,.1.2.2.2,0-.1.2-.2.3-.4.4-.4.6-.5.7-.5h0c.5.5,1.2.7,1.9.4.7-.3,1.1-.9,1.1-1.6h0s.1-.2.8-.2.8.2.8.1h0c0,.8.4,1.4,1.1,1.7.7.3,1.4.1,1.9-.4h0c0,0,.3.1.7.5.1.1.2.3.3.4,0,0,.1-.1.2-.2h0c0-.1-.1-.3-.5-.7h0ZM54.4,54.2c-.3-.3-.4-.6-.5-.9,0,.5,0,.9.3,1.3.1-.2.2-.3.2-.3h0ZM44.9,48.2c0,.1,0,.3-.1.4-.3.7-.9,1.1-1.6,1.1h0s-.1.2-.1.8,0,.2,0,.3c0-.4.1-.5.1-.5h0c.7,0,1.3-.4,1.6-1.1.1-.3.2-.6.1-.9ZM44.9,53.3c0,.3-.2.7-.5.9h0c0,0,0,.2.2.4.3-.4.4-.8.3-1.3Z"/>
          <path class="cls-8" d="M55.8,50.2c0,.4-.1.5-.1.5h0c-.7,0-1.3.4-1.6,1.1-.1.3-.2.6-.1.9,0-.1,0-.3.1-.4.3-.7.9-1.1,1.6-1.1h0s.1-.2.1-.8,0-.2,0-.3ZM54.2,46.3c-.3.4-.4.8-.3,1.3,0-.3.2-.7.5-.9h0c0,0,0-.2-.2-.4ZM54.4,54.2c0,0-.1-.1-.2-.2,0,.1-.2.2-.3.4-.4.4-.6.5-.7.5h0c-.5-.5-1.2-.7-1.9-.4s-1.1.9-1.1,1.6h0s-.1.2-.8.2-.5,0-.7,0c-.1,0-.2,0-.2,0h0c0-.8-.4-1.4-1.1-1.7s-1.4-.1-1.9.4h0c0,0-.3-.1-.7-.5-.1-.1-.2-.2-.3-.3,0,0-.1.1-.2.2h0c0,.1.1.3.5.7.4.4.6.5.7.5h0c.5-.5,1.2-.7,1.9-.4s1.1.9,1.1,1.6h0c0,0,0,.1.2.1.1,0,.3,0,.7,0,.7,0,.8-.2.8-.2h0c0-.7.4-1.4,1.1-1.6s1.4-.1,1.9.4h0c0,0,.3-.1.7-.5.4-.4.5-.6.5-.7h0ZM44.6,46.3c-.1.2-.2.3-.2.3h0c.3.3.4.6.5,1,0-.5,0-.9-.3-1.3ZM44.8,51.8c-.3-.7-.9-1.1-1.6-1.1h0s-.1,0-.2-.6c0,0,0,.2,0,.3,0,.7.2.8.2.8h0c.7,0,1.3.4,1.6,1.1,0,.1,0,.3.1.4,0-.3,0-.6-.1-.9Z"/>
          <path class="cls-7" d="M49.4,47.7c-1.5,0-2.8,1.2-2.8,2.8s1.2,2.8,2.8,2.8,2.8-1.2,2.8-2.8-1.2-2.8-2.8-2.8ZM49.4,52.7c-1.2,0-2.2-1-2.2-2.2s1-2.2,2.2-2.2,2.2,1,2.2,2.2-1,2.2-2.2,2.2Z"/>
        </g>
        <path class="Blue_RIGHT_x2C__FRONT__x26__SINGLE" d="M30.4,57.1c-5.5,0-10.6-2.1-14.4-6-4.7-4.6-7-11.3-6.1-17.8l.2-1.2h-4.9s6.6-6.7,6.6-6.7l6.9,6.7h-3.4s-.2.9-.2.9c-1.2,5.4.4,10.9,4.3,14.7,3,2.8,6.9,4.4,11,4.4s4.8-.6,7-1.6l3.7,3.6c-3.2,2-6.9,3.1-10.8,3.1Z"/>
        <path class="cls-1" d="M45.5,36.1h3.4s.2-.8.2-.8c1.9-8.5-3.4-16.9-11.8-18.8-1.1-.3-2.3-.4-3.5-.4-2.5,0-4.9.6-7.1,1.7l-3.7-3.6c3.2-2,6.9-3,10.7-3,6.8,0,13.1,3.3,17,8.9,3,4.3,4.2,9.6,3.5,14.8l-.2,1.2h4.7c0,0-6.5,6.6-6.5,6.6l-6.7-6.5Z"/>
        <line class="cls-3" x1="8.7" y1="8.6" x2="10" y2="10.2"/>
        <line class="cls-3" x1="12.4" y1="7.1" x2="12.7" y2="9.1"/>
        <line class="cls-3" x1="6.4" y1="11.5" x2="8.2" y2="12.3"/>
      </g>
    </g>
  </g>
</svg>