<?xml version="1.0" encoding="UTF-8"?>
<svg xmlns="http://www.w3.org/2000/svg" version="1.1" xmlns:xlink="http://www.w3.org/1999/xlink" viewBox="0 0 64 64">
  <defs>
    <style>
      .cls-1 {
        fill: url(#linear-gradient-12);
      }

      .cls-1, .cls-2, .cls-3, .cls-4, .White_SINGLE_2, .cls-5, .cls-6, .cls-7, .cls-8, .cls-9, .cls-10 {
        stroke-linejoin: round;
      }

      .cls-1, .cls-2, .cls-3, .cls-4, .cls-5, .cls-6, .cls-7, .cls-9, .cls-10 {
        stroke: #053755;
      }

      .cls-2 {
        fill: url(#linear-gradient-4);
      }

      .cls-3 {
        fill: url(#linear-gradient-13);
      }

      .cls-3, .cls-7, .cls-9 {
        stroke-width: 1.1px;
      }

      .cls-11, .cls-12 {
        opacity: .3;
      }

      .cls-4 {
        fill: url(#linear-gradient-8);
      }

      .cls-13, .cls-14, .cls-8 {
        fill: #fff;
      }

      .cls-15 {
        fill: url(#linear-gradient-3);
      }

      .cls-15, .cls-16, .cls-17 {
        stroke: #787979;
        stroke-miterlimit: 10;
      }

      .cls-18 {
        fill: none;
      }

      .cls-12 {
        fill: url(#linear-gradient-14);
      }

      .cls-16 {
        fill: url(#linear-gradient-11);
      }

      .White_SINGLE_2 {
        fill: url(#linear-gradient);
        stroke: #323232;
      }

      .cls-5 {
        fill: url(#linear-gradient-10);
      }

      .cls-6 {
        fill: url(#linear-gradient-2);
      }

      .cls-19 {
        opacity: .2;
      }

      .cls-14 {
        opacity: .1;
      }

      .cls-17 {
        fill: url(#linear-gradient-7);
      }

      .cls-7 {
        fill: url(#linear-gradient-5);
      }

      .cls-8 {
        opacity: .7;
        stroke: #fff;
        stroke-width: 3px;
      }

      .cls-20 {
        opacity: 0;
      }

      .cls-9 {
        fill: url(#linear-gradient-9);
      }

      .cls-10 {
        fill: url(#linear-gradient-6);
      }

      .cls-21 {
        clip-path: url(#clippath);
      }
    </style>
    <linearGradient id="linear-gradient" x1="40.3" y1="36.1" x2="51.7" y2="55.9" gradientUnits="userSpaceOnUse">
      <stop offset="0" stop-color="#fff"/>
      <stop offset="1" stop-color="#d4d5d3"/>
    </linearGradient>
    <clipPath id="clippath">
      <path class="cls-18" d="M5.5,6v52h51V6H5.5ZM46.1,52.2c-3.5,0-6.4-2.9-6.4-6.4s2.9-6.4,6.4-6.4,6.4,2.9,6.4,6.4-2.9,6.4-6.4,6.4Z"/>
    </clipPath>
    <linearGradient id="linear-gradient-2" x1="29.1" y1="6.5" x2="49.9" y2="42.5" gradientUnits="userSpaceOnUse">
      <stop offset="0" stop-color="#fff"/>
      <stop offset="1" stop-color="#f1f0f0"/>
    </linearGradient>
    <linearGradient id="linear-gradient-3" x1="43.1" y1="14.9" x2="56.9" y2="38.9" gradientUnits="userSpaceOnUse">
      <stop offset="0" stop-color="#fff"/>
      <stop offset="1" stop-color="#d2d2d2"/>
    </linearGradient>
    <linearGradient id="linear-gradient-4" x1="26.1" y1="8.8" x2="47.9" y2="46.7" gradientUnits="userSpaceOnUse">
      <stop offset=".2" stop-color="#83bedc"/>
      <stop offset="1" stop-color="#285a78"/>
    </linearGradient>
    <linearGradient id="linear-gradient-5" x1="23.6" y1="19.2" x2="43.5" y2="53.8" gradientUnits="userSpaceOnUse">
      <stop offset="0" stop-color="#285a78"/>
      <stop offset=".2" stop-color="#2c5f7d"/>
      <stop offset=".4" stop-color="#3a6e8c"/>
      <stop offset=".6" stop-color="#5086a4"/>
      <stop offset=".9" stop-color="#6fa9c7"/>
      <stop offset="1" stop-color="#83bedc"/>
    </linearGradient>
    <linearGradient id="linear-gradient-6" x1="21.1" y1="11" x2="41.9" y2="47" xlink:href="#linear-gradient-2"/>
    <linearGradient id="linear-gradient-7" x1="35.1" y1="19.5" x2="48.9" y2="43.4" xlink:href="#linear-gradient-3"/>
    <linearGradient id="linear-gradient-8" x1="18.1" y1="13.4" x2="39.9" y2="51.2" xlink:href="#linear-gradient-4"/>
    <linearGradient id="linear-gradient-9" x1="15.6" y1="23.8" x2="35.6" y2="58.3" xlink:href="#linear-gradient-5"/>
    <linearGradient id="linear-gradient-10" x1="13.1" y1="15.6" x2="33.9" y2="51.5" xlink:href="#linear-gradient-2"/>
    <linearGradient id="linear-gradient-11" x1="27.1" y1="24" x2="40.9" y2="47.9" xlink:href="#linear-gradient-3"/>
    <linearGradient id="linear-gradient-12" x1="10.1" y1="17.9" x2="31.9" y2="55.7" xlink:href="#linear-gradient-4"/>
    <linearGradient id="linear-gradient-13" x1="7.7" y1="28.3" x2="27.7" y2="62.9" xlink:href="#linear-gradient-5"/>
    <linearGradient id="linear-gradient-14" x1="46" y1="51" x2="46" y2="41.8" gradientUnits="userSpaceOnUse">
      <stop offset="0" stop-color="#fff"/>
      <stop offset="1" stop-color="#000"/>
    </linearGradient>
  </defs>
  <!-- Generator: Adobe Illustrator 28.7.1, SVG Export Plug-In . SVG Version: 1.2.0 Build 142)  -->
  <g>
    <g id="Layer_1">
      <g class="cls-21">
        <g>
          <g>
            <polygon class="cls-6" points="53.5 40.4 53.5 9.1 30.1 8 24.5 9.1 24.5 38.1 53.5 40.4"/>
            <g>
              <polygon class="cls-15" points="45.7 13.4 52.5 10 52.5 39.7 48 44 47.4 43.5 45.7 13.4"/>
              <polygon class="cls-19" points="51.1 40.6 49.9 41.6 49.9 12.1 51.1 11.5 51.1 40.6"/>
              <polygon class="cls-20" points="51.1 40.6 52.2 39.5 52.2 11 51.1 11.5 51.1 40.6"/>
            </g>
            <g>
              <polygon class="cls-2" points="48.5 46.3 48.5 13.2 24.5 9.7 24.5 40.6 48.5 46.3"/>
              <polygon class="cls-14" points="47.7 45.4 46.5 45.1 46.5 13.6 47.7 13.8 47.7 45.4"/>
              <polygon class="cls-14" points="30.7 41.4 31.8 41.7 31.8 11.5 30.7 11.4 30.7 41.4"/>
            </g>
            <g>
              <polygon class="cls-7" points="30.1 41.9 24.4 40.5 24.4 9.9 30.1 10.7 30.1 41.9"/>
              <polygon class="cls-19" points="27.3 40.6 26.1 40.3 26.1 10.7 27.3 10.9 27.3 40.6"/>
              <polygon class="cls-14" points="29.5 41.1 28.4 40.8 28.4 11.1 29.5 11.2 29.5 41.1"/>
            </g>
          </g>
          <g>
            <polygon class="cls-10" points="45.5 44.9 45.5 13.7 22.1 12.6 16.5 13.7 16.5 42.7 45.5 44.9"/>
            <g>
              <polygon class="cls-17" points="37.7 18 44.5 14.6 44.5 44.2 40 48.6 39.4 48 37.7 18"/>
              <polygon class="cls-19" points="43.1 45.1 42 46.2 42 16.6 43.1 16.1 43.1 45.1"/>
              <polygon class="cls-20" points="43.1 45.1 44.3 44 44.3 15.5 43.1 16.1 43.1 45.1"/>
            </g>
            <g>
              <polygon class="cls-4" points="40.5 50.9 40.5 17.7 16.5 14.3 16.5 45.1 40.5 50.9"/>
              <polygon class="cls-14" points="39.7 50 38.6 49.7 38.6 18.2 39.7 18.3 39.7 50"/>
              <polygon class="cls-14" points="22.7 45.9 23.9 46.2 23.9 16.1 22.7 15.9 22.7 45.9"/>
            </g>
            <g>
              <polygon class="cls-9" points="22.2 46.4 16.5 45 16.5 14.4 22.2 15.2 22.2 46.4"/>
              <polygon class="cls-19" points="19.3 45.1 18.2 44.8 18.2 15.2 19.3 15.4 19.3 45.1"/>
              <polygon class="cls-14" points="21.6 45.6 20.5 45.4 20.5 15.6 21.6 15.8 21.6 45.6"/>
            </g>
          </g>
          <g>
            <polygon class="cls-5" points="37.5 49.4 37.5 18.2 14.1 17.1 8.5 18.2 8.5 47.2 37.5 49.4"/>
            <g>
              <polygon class="cls-16" points="29.7 22.5 36.5 19.1 36.5 48.8 32 53.1 31.4 52.5 29.7 22.5"/>
              <polygon class="cls-19" points="35.2 49.9 34.1 51 34.1 21.1 35.2 20.6 35.2 49.9"/>
              <polygon class="cls-20" points="35.2 49.9 36.3 48.8 36.3 20 35.2 20.6 35.2 49.9"/>
            </g>
            <g>
              <polygon class="cls-1" points="32.5 55.4 32.5 22.2 8.5 18.8 8.5 49.7 32.5 55.4"/>
              <polygon class="cls-14" points="31.8 54.5 30.7 54.2 30.7 22.7 31.8 22.9 31.8 54.5"/>
              <polygon class="cls-14" points="14.8 50.5 15.9 50.7 15.9 20.6 14.8 20.4 14.8 50.5"/>
            </g>
            <g>
              <polygon class="cls-3" points="14.2 50.9 8.6 49.6 8.6 19 14.2 19.8 14.2 50.9"/>
              <polygon class="cls-19" points="11.4 49.7 10.3 49.4 10.3 19.8 11.4 19.9 11.4 49.7"/>
              <polygon class="cls-14" points="13.7 50.2 12.5 49.9 12.5 20.1 13.7 20.3 13.7 50.2"/>
            </g>
          </g>
        </g>
      </g>
      <g>
        <g>
          <path class="cls-8" d="M53.9,50.2c0,.3,0,.6.2.9.1.3.3.5.5.8l.8.8c-.7,1-1.6,1.9-2.7,2.7l-.8-.8c-.2-.2-.5-.4-.8-.5-.3-.1-.6-.2-.9-.2s-.6,0-.9.2c-.3.1-.5.3-.8.5-.2.2-.4.5-.5.8s-.2.6-.2,1v1.1c-.3,0-.6,0-.9.1-.3,0-.6,0-.9,0s-.6,0-.9,0c-.3,0-.6,0-.9-.1v-1.1c0-.3,0-.7-.2-1-.1-.3-.3-.5-.5-.8s-.5-.4-.8-.5c-.3-.1-.6-.2-.9-.2s-.6,0-.9.2c-.3.1-.5.3-.8.5l-.8.8c-1-.7-1.9-1.6-2.7-2.7l.8-.8c.2-.2.4-.5.5-.8.1-.3.2-.6.2-.9s0-.6-.2-.9-.3-.5-.5-.8c-.2-.2-.5-.4-.8-.5-.3-.1-.6-.2-1-.2h-1.1c0-.3,0-.6-.1-.9,0-.3,0-.6,0-.9s0-.6,0-.9c0-.3,0-.6.1-.9h1.1c.3,0,.7,0,1-.2.3-.1.5-.3.8-.5.2-.2.4-.5.5-.8.1-.3.2-.6.2-.9s0-.6-.2-.9-.3-.5-.5-.8l-.8-.8c.7-1,1.6-1.9,2.7-2.7l.8.8c.2.2.5.4.8.5.3.1.6.2.9.2s.6,0,.9-.2c.3-.1.5-.3.8-.5s.4-.5.5-.7c.1-.3.2-.6.2-1v-1.1c.3,0,.6,0,.9-.1.3,0,.6,0,.9,0s.6,0,.9,0c.3,0,.6,0,.9.1v1.1c0,.4,0,.7.2,1,.1.3.3.5.5.7.2.2.5.4.8.5.3.1.6.2.9.2s.6,0,.9-.2c.3-.1.6-.3.8-.5l.8-.8c1,.7,1.9,1.6,2.7,2.7l-.8.8c-.2.2-.4.5-.5.8-.1.3-.2.6-.2.9s0,.6.2.9c.1.3.3.5.5.8.2.2.5.4.7.5.3.1.6.2,1,.2h1.1c0,.3,0,.6.1.9,0,.3,0,.6,0,.9s0,.6,0,.9c0,.3,0,.6-.1.9h-1.1c-.4,0-.7,0-1,.2-.3.1-.5.3-.7.5-.2.2-.4.5-.5.8-.1.3-.2.6-.2.9ZM46,49.5c.5,0,.9,0,1.4-.3s.8-.4,1.1-.8c.3-.3.6-.7.8-1.1.2-.4.3-.9.3-1.4s0-.9-.3-1.4c-.2-.4-.4-.8-.8-1.1-.3-.3-.7-.6-1.1-.8s-.9-.3-1.4-.3-.9,0-1.4.3c-.4.2-.8.4-1.1.8-.3.3-.6.7-.8,1.1-.2.4-.3.9-.3,1.4s0,.9.3,1.4c.2.4.4.8.8,1.1.3.3.7.6,1.1.8.4.2.9.3,1.4.3Z"/>
          <path class="White_SINGLE_2" d="M53.9,50.2c0,.3,0,.6.2.9.1.3.3.5.5.8l.8.8c-.7,1-1.6,1.9-2.7,2.7l-.8-.8c-.2-.2-.5-.4-.8-.5-.3-.1-.6-.2-.9-.2s-.6,0-.9.2c-.3.1-.5.3-.8.5-.2.2-.4.5-.5.8s-.2.6-.2,1v1.1c-.3,0-.6,0-.9.1-.3,0-.6,0-.9,0s-.6,0-.9,0c-.3,0-.6,0-.9-.1v-1.1c0-.3,0-.7-.2-1-.1-.3-.3-.5-.5-.8s-.5-.4-.8-.5c-.3-.1-.6-.2-.9-.2s-.6,0-.9.2c-.3.1-.5.3-.8.5l-.8.8c-1-.7-1.9-1.6-2.7-2.7l.8-.8c.2-.2.4-.5.5-.8.1-.3.2-.6.2-.9s0-.6-.2-.9-.3-.5-.5-.8c-.2-.2-.5-.4-.8-.5-.3-.1-.6-.2-1-.2h-1.1c0-.3,0-.6-.1-.9,0-.3,0-.6,0-.9s0-.6,0-.9c0-.3,0-.6.1-.9h1.1c.3,0,.7,0,1-.2.3-.1.5-.3.8-.5.2-.2.4-.5.5-.8.1-.3.2-.6.2-.9s0-.6-.2-.9-.3-.5-.5-.8l-.8-.8c.7-1,1.6-1.9,2.7-2.7l.8.8c.2.2.5.4.8.5.3.1.6.2.9.2s.6,0,.9-.2c.3-.1.5-.3.8-.5s.4-.5.5-.7c.1-.3.2-.6.2-1v-1.1c.3,0,.6,0,.9-.1.3,0,.6,0,.9,0s.6,0,.9,0c.3,0,.6,0,.9.1v1.1c0,.4,0,.7.2,1,.1.3.3.5.5.7.2.2.5.4.8.5.3.1.6.2.9.2s.6,0,.9-.2c.3-.1.6-.3.8-.5l.8-.8c1,.7,1.9,1.6,2.7,2.7l-.8.8c-.2.2-.4.5-.5.8-.1.3-.2.6-.2.9s0,.6.2.9c.1.3.3.5.5.8.2.2.5.4.7.5.3.1.6.2,1,.2h1.1c0,.3,0,.6.1.9,0,.3,0,.6,0,.9s0,.6,0,.9c0,.3,0,.6-.1.9h-1.1c-.4,0-.7,0-1,.2-.3.1-.5.3-.7.5-.2.2-.4.5-.5.8-.1.3-.2.6-.2.9ZM46,49.5c.5,0,.9,0,1.4-.3s.8-.4,1.1-.8c.3-.3.6-.7.8-1.1.2-.4.3-.9.3-1.4s0-.9-.3-1.4c-.2-.4-.4-.8-.8-1.1-.3-.3-.7-.6-1.1-.8s-.9-.3-1.4-.3-.9,0-1.4.3c-.4.2-.8.4-1.1.8-.3.3-.6.7-.8,1.1-.2.4-.3.9-.3,1.4s0,.9.3,1.4c.2.4.4.8.8,1.1.3.3.7.6,1.1.8.4.2.9.3,1.4.3Z"/>
        </g>
        <g class="cls-19">
          <path d="M38.4,40.7c0,.2.1.4.2.6,0-.2,0-.3,0-.5,0-.4,0-.7-.2-1-.1-.3-.3-.7-.6-.9h0c-.2.2-.3.3-.5.5l.5.5c.3.3.5.6.6.9Z"/>
          <path d="M53.6,39.7c-.1.3-.2.7-.2,1.1s0,.3,0,.5c0-.2,0-.4.2-.6.1-.3.3-.7.6-.9l.5-.5c-.1-.2-.3-.4-.5-.5h0c-.3.3-.5.6-.6,1Z"/>
          <path d="M57,45.9c0,.2,0,.3,0,.5h-.7c-.4,0-.8,0-1.2.2-.3.2-.6.4-.9.6-.3.3-.5.6-.6.9-.1.3-.2.7-.2,1.1s0,.3,0,.5c0-.2,0-.4.2-.6.1-.3.3-.7.6-.9.3-.3.5-.5.9-.6.3-.2.7-.2,1.2-.2h.7c0-.2,0-.3,0-.5,0-.3,0-.6,0-.9s0-.3,0-.5c0,.1,0,.3,0,.4Z"/>
          <path d="M38.4,49.2c0,.2.1.4.2.6,0-.2,0-.3,0-.5,0-.4,0-.7-.2-1.1-.1-.4-.3-.7-.6-.9-.3-.3-.6-.5-.9-.6-.4-.2-.7-.2-1.2-.2h-.7c0-.2,0-.3,0-.5,0-.1,0-.3,0-.4,0,.2,0,.3,0,.5,0,.3,0,.6,0,.9,0,.2,0,.3,0,.5h.7c.4,0,.8,0,1.2.2.3.2.6.4.9.6.3.3.5.6.6.9Z"/>
          <path d="M52.7,53.7l-.5-.5c-.3-.3-.6-.5-.9-.6-.7-.3-1.5-.3-2.1,0-.3.1-.7.3-.9.6-.3.3-.5.6-.6.9-.2.4-.2.7-.2,1.2v.7c-.2,0-.3,0-.5,0-.6,0-1.2,0-1.8,0-.2,0-.3,0-.5,0v-.7c0-.4,0-.8-.2-1.2-.2-.3-.4-.6-.6-.9-.3-.3-.6-.5-.9-.6-.7-.3-1.4-.3-2.1,0-.3.1-.7.3-.9.6l-.5.5c-.5-.4-1-.9-1.5-1.4l-.5.5c.6.7,1.2,1.4,1.9,1.9l.5-.5c.3-.3.6-.5.9-.6.7-.3,1.4-.3,2.1,0,.3.1.7.3.9.6.3.3.5.6.6.9.2.4.2.7.2,1.2v.7c.2,0,.3,0,.5,0,.6,0,1.2,0,1.8,0,.2,0,.3,0,.5,0v-.7c0-.4,0-.8.2-1.2.2-.3.4-.6.6-.9.3-.3.6-.5.9-.6.7-.3,1.4-.3,2.1,0,.3.1.7.3.9.6l.5.5c.7-.6,1.4-1.2,1.9-1.9l-.5-.5c-.5.5-.9,1-1.5,1.4Z"/>
        </g>
        <g class="cls-11">
          <path class="cls-13" d="M53.6,42.8c0-.2-.1-.4-.2-.6,0,.2,0,.3,0,.5,0,.4,0,.7.2,1.1.1.3.3.7.6.9.3.3.5.5.9.6.3.2.7.2,1.2.2h.7c0,.2,0,.3,0,.5,0,.1,0,.3,0,.4,0-.2,0-.3,0-.5,0-.3,0-.6,0-.9,0-.2,0-.3,0-.5h-.7c-.4,0-.8,0-1.2-.2-.3-.2-.6-.4-.9-.6-.3-.3-.5-.6-.6-.9Z"/>
          <path class="cls-13" d="M39.3,38.3l.5.5c.3.3.6.5.9.6.7.3,1.4.3,2.1,0,.4-.1.7-.3.9-.6.3-.3.5-.6.6-.9.2-.3.2-.7.2-1.2v-.7c.2,0,.3,0,.5,0,.6,0,1.2,0,1.8,0,.2,0,.3,0,.5,0v.7c0,.4,0,.8.2,1.2.2.4.4.7.6.9.3.2.6.4.9.6.6.3,1.4.3,2.1,0,.4-.1.7-.3,1-.6l.5-.5c.5.4,1,.9,1.5,1.4l.5-.5c-.6-.7-1.2-1.4-1.9-1.9l-.5.5c-.3.3-.6.5-1,.6-.7.3-1.5.2-2.1,0-.3-.1-.6-.3-.9-.6-.3-.2-.5-.5-.6-.9-.2-.3-.2-.7-.2-1.2v-.7c-.2,0-.3,0-.5,0-.6,0-1.2,0-1.8,0-.2,0-.3,0-.5,0v.7c0,.4,0,.8-.2,1.2-.2.3-.4.6-.6.9-.3.3-.6.5-.9.6-.7.3-1.4.3-2.1,0-.3-.1-.7-.3-.9-.6l-.5-.5c-.7.6-1.4,1.2-1.9,1.9l.5.5c.5-.5.9-1,1.5-1.4Z"/>
          <path class="cls-13" d="M53.6,51.3c0-.2-.1-.4-.2-.6,0,.2,0,.3,0,.5,0,.4,0,.7.2,1,.1.3.3.7.6.9h0c.2-.2.3-.3.5-.5l-.5-.5c-.3-.3-.5-.6-.6-.9Z"/>
          <path class="cls-13" d="M38.4,52.3c.1-.3.2-.7.2-1s0-.3,0-.5c0,.2,0,.4-.2.6-.1.3-.3.7-.6.9l-.5.5c.1.2.3.4.5.5h0c.3-.3.5-.6.6-1Z"/>
          <path class="cls-13" d="M35,46.1c0-.2,0-.3,0-.5h.7c.4,0,.8,0,1.2-.2.3-.2.6-.4.9-.6.3-.3.5-.6.6-.9.1-.3.2-.7.2-1.1s0-.3,0-.5c0,.2,0,.4-.2.6-.1.3-.3.7-.6.9-.3.3-.6.5-.9.6-.4.2-.7.2-1.2.2h-.7c0,.2,0,.3,0,.5,0,.3,0,.6,0,.9s0,.3,0,.5c0-.1,0-.3,0-.4Z"/>
        </g>
        <path class="cls-12" d="M46,41c-2.8,0-5,2.2-5,5s2.2,5,5,5,5-2.2,5-5-2.2-5-5-5ZM46,50c-2.2,0-4-1.8-4-4s1.8-4,4-4,4,1.8,4,4-1.8,4-4,4Z"/>
      </g>
    </g>
  </g>
</svg>