<?xml version="1.0" encoding="utf-8"?>
<!-- Generator: Adobe Illustrator 27.4.0, SVG Export Plug-In . SVG Version: 6.00 Build 0)  -->
<svg version="1.1" id="Layer_1" xmlns="http://www.w3.org/2000/svg" xmlns:xlink="http://www.w3.org/1999/xlink" x="0px" y="0px"
	 viewBox="0 0 64 64" style="enable-background:new 0 0 64 64;" xml:space="preserve">
<style type="text/css">
	.st0{fill:url(#SVGID_1_);stroke:#323232;stroke-linecap:round;stroke-linejoin:round;stroke-miterlimit:10;}
	
		.st1{fill:url(#SVGID_00000064328679840799827360000016546275751558241954_);stroke:#053755;stroke-linejoin:round;stroke-miterlimit:1;}
	
		.st2{fill:url(#SVGID_00000105423736341302284130000009378905538980896907_);stroke:#053755;stroke-linejoin:round;stroke-miterlimit:1;}
	.st3{fill:#053755;}
	.st4{opacity:0.5;fill:#FFFFFF;}
	.st5{fill:none;stroke:#053755;stroke-linecap:square;stroke-linejoin:round;stroke-miterlimit:1;}
	.st6{opacity:0.15;}
	.st7{fill:url(#SVGID_00000087398136388671535750000005417820596178585480_);}
	.st8{opacity:0.2;}
	.st9{opacity:0.3;}
	.st10{fill:#FFFFFF;}
	.st11{opacity:0.3;fill:url(#SVGID_00000142861880496648786690000010292696955621018538_);enable-background:new    ;}
	.st12{opacity:0.1;}
</style>
<g>
	<g>
		<g>
			<linearGradient id="SVGID_1_" gradientUnits="userSpaceOnUse" x1="12.2286" y1="46.3221" x2="21.2411" y2="46.3221">
				<stop  offset="0" style="stop-color:#FFFFFF"/>
				<stop  offset="1" style="stop-color:#D3D4D2"/>
			</linearGradient>
			<polyline class="st0" points="21.2,46.7 12.8,51.1 12.2,41.6 			"/>
			
				<linearGradient id="SVGID_00000110449784024467878480000012383195157291993743_" gradientUnits="userSpaceOnUse" x1="37.7237" y1="15.5948" x2="34.4939" y2="11.2158">
				<stop  offset="0" style="stop-color:#386F8D"/>
				<stop  offset="1" style="stop-color:#8DD7F4"/>
			</linearGradient>
			
				<polygon style="fill:url(#SVGID_00000110449784024467878480000012383195157291993743_);stroke:#053755;stroke-linejoin:round;stroke-miterlimit:1;" points="
				33.9,9.3 37.6,11.3 35.9,14.3 32.2,12.3 			"/>
			
				<linearGradient id="SVGID_00000096059197965844353640000006731570474986793857_" gradientUnits="userSpaceOnUse" x1="31.526" y1="52.5072" x2="22.3534" y2="17.5672">
				<stop  offset="0" style="stop-color:#386F8D"/>
				<stop  offset="1" style="stop-color:#8DD7F4"/>
			</linearGradient>
			
				<path style="fill:url(#SVGID_00000096059197965844353640000006731570474986793857_);stroke:#053755;stroke-linejoin:round;stroke-miterlimit:1;" d="
				M21.3,46.7l-9.1-5.1L29,11.8c0.5-0.9,1.7-1.3,2.6-0.7l5.7,3.2c0.9,0.5,1.3,1.7,0.7,2.6L21.3,46.7z"/>
			<path class="st3" d="M20.1,27l-2-1.1c-0.2-0.1-0.3-0.4-0.2-0.6l7.2-12.7c0.1-0.2,0.4-0.3,0.6-0.2l2,1.1c0.2,0.1,0.3,0.4,0.2,0.6
				l-7.2,12.7C20.5,27.1,20.3,27.1,20.1,27z"/>
			
				<rect x="7.6" y="26.8" transform="matrix(0.4944 -0.8692 0.8692 0.4944 -12.2954 34.8108)" class="st4" width="32.3" height="2.4"/>
		</g>
		<line class="st5" x1="34.6" y1="21.3" x2="26.8" y2="16.8"/>
	</g>
	<polygon class="st6" points="36.3,51.5 13,51.5 27.8,48.1 51.1,48.1 	"/>
</g>
<g>
	<path d="M50.6,43.3c0,0.3,0,0.7,0.1,0.9c0.1,0.3,0.3,0.5,0.5,0.8l0.8,0.8c-0.8,1.1-1.7,2-2.8,2.8l-0.8-0.8
		c-0.3-0.3-0.5-0.4-0.8-0.5c-0.3-0.1-0.7-0.1-0.9-0.1s-0.7,0-0.9,0.1s-0.5,0.3-0.8,0.5c-0.3,0.3-0.4,0.5-0.5,0.8
		c-0.1,0.3-0.3,0.7-0.3,1.1v1.2c-0.3,0-0.7,0.1-0.9,0.1s-0.7,0-0.9,0c-0.3,0-0.7,0-0.9,0s-0.7-0.1-0.9-0.1v-1.2
		c0-0.4-0.1-0.7-0.3-1.1c-0.1-0.3-0.3-0.5-0.5-0.8s-0.5-0.4-0.8-0.5c-0.3-0.1-0.7-0.1-0.9-0.1s-0.7,0-0.9,0.1
		c-0.3,0.1-0.5,0.3-0.8,0.5l-0.8,0.8c-1.1-0.8-2-1.7-2.8-2.8l0.8-0.8c0.3-0.3,0.4-0.5,0.5-0.8c0.1-0.3,0.1-0.7,0.1-0.9
		s0-0.7-0.1-0.9c-0.1-0.3-0.3-0.5-0.5-0.8c-0.3-0.3-0.5-0.4-0.8-0.5c-0.3-0.1-0.7-0.3-1.1-0.3h-1.2c0-0.4-0.1-0.7-0.1-0.9
		s0-0.7,0-0.9s0-0.7,0-0.9s0.1-0.7,0.1-0.9h1.2c0.4,0,0.7-0.1,1.1-0.3c0.3-0.1,0.5-0.3,0.8-0.5c0.3-0.3,0.4-0.5,0.5-0.8
		c0.1-0.3,0.1-0.7,0.1-0.9s0-0.7-0.1-0.9c-0.1-0.3-0.3-0.5-0.5-0.8l-0.8-0.8c0.8-1.1,1.7-2,2.8-2.8l0.8,0.8c0.3,0.3,0.5,0.4,0.8,0.5
		c0.3,0.1,0.7,0.1,0.9,0.1s0.7,0,0.9-0.1c0.3-0.1,0.5-0.3,0.8-0.5s0.4-0.5,0.5-0.8c0.1-0.3,0.3-0.7,0.3-1.1v-1.2
		c0.3,0,0.7-0.1,0.9-0.1s0.7,0,0.9,0c0.3,0,0.7,0,0.9,0s0.7,0.1,0.9,0.1v0.9c0,0.4,0.1,0.7,0.3,1.1c0.1,0.3,0.3,0.5,0.5,0.8
		c0.3,0.3,0.5,0.4,0.8,0.5c0.3,0.1,0.7,0.1,0.9,0.1s0.7,0,0.9-0.1c0.3-0.1,0.5-0.3,0.8-0.5l0.8-0.9c1.1,0.8,2,1.7,2.8,2.8l-0.8,0.8
		c-0.3,0.3-0.4,0.5-0.5,0.8c-0.1,0.3-0.1,0.7-0.1,0.9s0,0.7,0.1,0.9c0.1,0.3,0.3,0.5,0.5,0.8c0.3,0.3,0.5,0.4,0.8,0.5
		c0.3,0.1,0.7,0.3,1.1,0.3h1.2c0,0.4,0.1,0.7,0.1,0.9c0,0.3,0,0.7,0,0.9c0,0.4,0,0.7,0,0.9s-0.1,0.7-0.1,0.9h-1.2
		c-0.4,0-0.7,0.1-1.1,0.3c-0.3,0.1-0.5,0.3-0.8,0.5c-0.3,0.3-0.4,0.5-0.5,0.8C50.6,42.7,50.6,42.9,50.6,43.3z M42.4,42.6
		c0.5,0,0.9-0.1,1.4-0.3c0.5-0.1,0.8-0.4,1.2-0.8c0.4-0.4,0.7-0.7,0.8-1.2c0.1-0.4,0.3-0.9,0.3-1.4c0-0.5-0.1-0.9-0.3-1.4
		c-0.1-0.4-0.4-0.8-0.8-1.2c-0.4-0.4-0.7-0.7-1.2-0.8c-0.5-0.1-0.9-0.3-1.4-0.3c-0.5,0-0.9,0.1-1.4,0.3c-0.4,0.1-0.8,0.4-1.2,0.8
		c-0.4,0.4-0.7,0.7-0.8,1.2c-0.1,0.4-0.3,0.9-0.3,1.4c0,0.5,0.1,0.9,0.3,1.4c0.1,0.4,0.4,0.8,0.8,1.2c0.4,0.4,0.7,0.7,1.2,0.8
		C41.3,42.4,41.8,42.6,42.4,42.6z"/>
	
		<linearGradient id="SVGID_00000018919083591808052030000011095867832984981892_" gradientUnits="userSpaceOnUse" x1="36.4894" y1="37.5894" x2="48.453" y2="16.868" gradientTransform="matrix(1 0 0 -1 0 66)">
		<stop  offset="0" style="stop-color:#464647"/>
		<stop  offset="1" style="stop-color:#151515"/>
	</linearGradient>
	<path style="fill:url(#SVGID_00000018919083591808052030000011095867832984981892_);" d="M50.6,43.3c0,0.3,0,0.7,0.1,0.9
		c0.1,0.3,0.3,0.5,0.5,0.8l0.8,0.8c-0.8,1.1-1.7,2-2.8,2.8l-0.8-0.8c-0.3-0.3-0.5-0.4-0.8-0.5c-0.3-0.1-0.7-0.1-0.9-0.1
		s-0.7,0-0.9,0.1s-0.5,0.3-0.8,0.5c-0.3,0.3-0.4,0.5-0.5,0.8c-0.1,0.3-0.3,0.7-0.3,1.1v1.2c-0.3,0-0.7,0.1-0.9,0.1s-0.7,0-0.9,0
		c-0.3,0-0.7,0-0.9,0s-0.7-0.1-0.9-0.1v-1.2c0-0.4-0.1-0.7-0.3-1.1c-0.1-0.3-0.3-0.5-0.5-0.8s-0.5-0.4-0.8-0.5
		c-0.3-0.1-0.7-0.1-0.9-0.1s-0.7,0-0.9,0.1c-0.3,0.1-0.5,0.3-0.8,0.5l-0.8,0.8c-1.1-0.8-2-1.7-2.8-2.8l0.8-0.8
		c0.3-0.3,0.4-0.5,0.5-0.8c0.1-0.3,0.1-0.7,0.1-0.9s0-0.7-0.1-0.9c-0.1-0.3-0.3-0.5-0.5-0.8c-0.3-0.3-0.5-0.4-0.8-0.5
		c-0.3-0.1-0.7-0.3-1.1-0.3h-1.2c0-0.4-0.1-0.7-0.1-0.9s0-0.7,0-0.9s0-0.7,0-0.9s0.1-0.7,0.1-0.9h1.2c0.4,0,0.7-0.1,1.1-0.3
		c0.3-0.1,0.5-0.3,0.8-0.5c0.3-0.3,0.4-0.5,0.5-0.8c0.1-0.3,0.1-0.7,0.1-0.9s0-0.7-0.1-0.9c-0.1-0.3-0.3-0.5-0.5-0.8l-0.8-0.8
		c0.8-1.1,1.7-2,2.8-2.8l0.8,0.8c0.3,0.3,0.5,0.4,0.8,0.5c0.3,0.1,0.7,0.1,0.9,0.1s0.7,0,0.9-0.1c0.3-0.1,0.5-0.3,0.8-0.5
		s0.4-0.5,0.5-0.8c0.1-0.3,0.3-0.7,0.3-1.1v-1.2c0.3,0,0.7-0.1,0.9-0.1s0.7,0,0.9,0c0.3,0,0.7,0,0.9,0s0.7,0.1,0.9,0.1v0.9
		c0,0.4,0.1,0.7,0.3,1.1c0.1,0.3,0.3,0.5,0.5,0.8c0.3,0.3,0.5,0.4,0.8,0.5c0.3,0.1,0.7,0.1,0.9,0.1s0.7,0,0.9-0.1
		c0.3-0.1,0.5-0.3,0.8-0.5l0.8-0.9c1.1,0.8,2,1.7,2.8,2.8l-0.8,0.8c-0.3,0.3-0.4,0.5-0.5,0.8c-0.1,0.3-0.1,0.7-0.1,0.9
		s0,0.7,0.1,0.9c0.1,0.3,0.3,0.5,0.5,0.8c0.3,0.3,0.5,0.4,0.8,0.5c0.3,0.1,0.7,0.3,1.1,0.3h1.2c0,0.4,0.1,0.7,0.1,0.9
		c0,0.3,0,0.7,0,0.9c0,0.4,0,0.7,0,0.9s-0.1,0.7-0.1,0.9h-1.2c-0.4,0-0.7,0.1-1.1,0.3c-0.3,0.1-0.5,0.3-0.8,0.5
		c-0.3,0.3-0.4,0.5-0.5,0.8C50.6,42.7,50.6,42.9,50.6,43.3z M42.4,42.6c0.5,0,0.9-0.1,1.4-0.3c0.5-0.1,0.8-0.4,1.2-0.8
		c0.4-0.4,0.7-0.7,0.8-1.2c0.1-0.4,0.3-0.9,0.3-1.4c0-0.5-0.1-0.9-0.3-1.4c-0.1-0.4-0.4-0.8-0.8-1.2c-0.4-0.4-0.7-0.7-1.2-0.8
		c-0.5-0.1-0.9-0.3-1.4-0.3c-0.5,0-0.9,0.1-1.4,0.3c-0.4,0.1-0.8,0.4-1.2,0.8c-0.4,0.4-0.7,0.7-0.8,1.2c-0.1,0.4-0.3,0.9-0.3,1.4
		c0,0.5,0.1,0.9,0.3,1.4c0.1,0.4,0.4,0.8,0.8,1.2c0.4,0.4,0.7,0.7,1.2,0.8C41.3,42.4,41.8,42.6,42.4,42.6z"/>
	<g class="st8">
		<path d="M34.5,33.2c0.1,0.1,0.1,0.4,0.1,0.5c0-0.1,0-0.4,0-0.5c0-0.4-0.1-0.8-0.3-1.1c-0.1-0.4-0.4-0.7-0.7-1.1l0,0
			c-0.1,0.1-0.4,0.4-0.5,0.5l0.5,0.5C34.1,32.6,34.4,33,34.5,33.2z"/>
		<path d="M50.2,32.2C50.1,32.6,50,33,50,33.2c0,0.1,0,0.4,0,0.5c0-0.3,0.1-0.4,0.1-0.5c0.1-0.4,0.4-0.7,0.7-1.1l0.5-0.5
			c-0.1-0.1-0.3-0.4-0.5-0.5l0,0C50.6,31.5,50.4,31.9,50.2,32.2z"/>
		<path d="M53.8,38.7c0,0.1,0,0.4,0,0.5H53c-0.4,0-0.9,0.1-1.2,0.3c-0.4,0.1-0.7,0.4-0.9,0.7c-0.3,0.3-0.5,0.7-0.7,0.9
			c-0.1,0.4-0.3,0.8-0.3,1.1c0,0.1,0,0.4,0,0.5c0-0.1,0.1-0.4,0.1-0.5c0.1-0.4,0.4-0.7,0.7-0.9c0.3-0.3,0.5-0.5,0.9-0.7
			c0.4-0.1,0.8-0.3,1.2-0.3h0.8c0-0.1,0-0.4,0-0.5C53.9,39.4,53.9,39.1,53.8,38.7c0,0,0-0.3,0-0.4C53.8,38.5,53.8,38.6,53.8,38.7z"
			/>
		<path d="M34.5,42.2c0.1,0.1,0.1,0.4,0.1,0.5c0-0.1,0-0.4,0-0.5c0-0.4-0.1-0.8-0.3-1.1c-0.1-0.4-0.4-0.7-0.7-0.9
			c-0.3-0.3-0.5-0.5-0.9-0.7c-0.4-0.1-0.8-0.3-1.2-0.3h-0.7c0-0.1,0-0.4,0-0.5c0-0.1,0-0.3,0-0.4c0,0.1,0,0.4,0,0.5
			c0,0.3,0,0.7,0,0.9c0,0.1,0,0.4,0,0.5h0.8c0.4,0,0.8,0.1,1.2,0.3c0.4,0.1,0.7,0.4,0.9,0.7C34.1,41.5,34.4,41.8,34.5,42.2z"/>
		<path d="M49.5,46.9l-0.5-0.5c-0.3-0.3-0.7-0.5-1.1-0.7c-0.7-0.3-1.6-0.3-2.2,0c-0.4,0.1-0.7,0.4-0.9,0.7s-0.5,0.5-0.7,0.9
			c-0.1,0.4-0.3,0.8-0.3,1.2v0.8c-0.1,0-0.4,0-0.5,0c-0.7,0-1.2,0-1.8,0c-0.1,0-0.4,0-0.5,0v-0.8c0-0.4-0.1-0.8-0.3-1.2
			c-0.1-0.4-0.4-0.7-0.7-0.9c-0.3-0.3-0.7-0.5-0.9-0.7c-0.7-0.3-1.4-0.3-2.2,0c-0.4,0.1-0.7,0.4-1.1,0.7l-0.5,0.5
			c-0.5-0.4-1.1-0.9-1.6-1.4L33.2,46c0.5,0.8,1.3,1.4,2.1,2.1l0.5-0.5c0.3-0.3,0.7-0.5,1.1-0.7c0.7-0.3,1.4-0.3,2.2,0
			c0.4,0.1,0.7,0.4,0.9,0.7c0.3,0.3,0.5,0.5,0.7,0.9c0.1,0.4,0.3,0.8,0.3,1.2v0.8c0.1,0,0.4,0,0.5,0c0.7,0,1.2,0,1.8,0
			c0.1,0,0.4,0,0.5,0v-0.8c0-0.4,0.1-0.8,0.3-1.2c0.1-0.4,0.4-0.7,0.7-0.9s0.7-0.5,0.9-0.7c0.7-0.3,1.4-0.3,2.2,0
			c0.4,0.1,0.7,0.4,1.1,0.7l0.5,0.5c0.8-0.5,1.4-1.3,2.1-2.1L51,45.4C50.5,46,50,46.5,49.5,46.9z"/>
	</g>
	<g class="st9">
		<path class="st10" d="M50.2,35.5c-0.1-0.1-0.1-0.4-0.1-0.5c0,0.1,0,0.4,0,0.5c0,0.4,0.1,0.8,0.3,1.2c0.1,0.4,0.4,0.7,0.7,0.9
			s0.5,0.5,0.9,0.7c0.4,0.1,0.8,0.3,1.2,0.3h0.8c0,0.1,0,0.4,0,0.5c0,0.1,0,0.3,0,0.4c0-0.1,0-0.4,0-0.5c0-0.3,0-0.7,0-0.9
			c0-0.1,0-0.4,0-0.5h-0.8c-0.4,0-0.9-0.1-1.2-0.3c-0.4-0.1-0.7-0.4-0.9-0.7C50.6,36.3,50.4,35.9,50.2,35.5z"/>
		<path class="st10" d="M35.3,30.7l0.5,0.5c0.3,0.3,0.7,0.5,1.1,0.7c0.7,0.3,1.4,0.3,2.2,0c0.4-0.1,0.7-0.4,0.9-0.7s0.5-0.5,0.7-0.9
			c0.1-0.4,0.3-0.8,0.3-1.2v-0.8c0.1,0,0.4,0,0.5,0c0.7,0,1.2,0,1.8,0c0.1,0,0.4,0,0.5,0v0.8c0,0.4,0.1,0.9,0.3,1.2
			c0.1,0.4,0.4,0.7,0.7,0.9c0.3,0.3,0.7,0.5,0.9,0.7c0.7,0.3,1.4,0.3,2.2,0c0.4-0.1,0.7-0.4,1.1-0.7l0.5-0.5
			c0.5,0.4,1.1,0.9,1.6,1.4l0.5-0.5c-0.5-0.8-1.3-1.4-2-2l-0.5,0.5c-0.3,0.3-0.7,0.5-1.1,0.7c-0.8,0.3-1.6,0.3-2.2,0
			c-0.4-0.1-0.7-0.4-0.9-0.7c-0.3-0.3-0.5-0.5-0.7-0.9c-0.1-0.4-0.3-0.8-0.3-1.2v-0.8c-0.1,0-0.4,0-0.5,0c-0.7,0-1.2,0-1.8,0
			c-0.1,0-0.4,0-0.5,0v0.8c0,0.4-0.1,0.9-0.3,1.2c-0.1,0.4-0.4,0.7-0.7,0.9c-0.3,0.3-0.7,0.5-0.9,0.7c-0.7,0.3-1.4,0.3-2.2,0
			c-0.4-0.1-0.7-0.4-1.1-0.7l-0.5-0.5c-0.8,0.5-1.4,1.3-2.1,2.1l0.5,0.5C34.2,31.8,34.8,31.3,35.3,30.7z"/>
		<path class="st10" d="M50.2,44.4c-0.1-0.1-0.1-0.4-0.1-0.5c0,0.1,0,0.4,0,0.5c0,0.4,0.1,0.8,0.3,1.1c0.1,0.4,0.4,0.7,0.7,1.1l0,0
			c0.1-0.1,0.4-0.4,0.5-0.5L51,45.4C50.6,45,50.4,44.8,50.2,44.4z"/>
		<path class="st10" d="M34.5,45.4c0.1-0.4,0.3-0.8,0.3-1.1c0-0.1,0-0.4,0-0.5c0,0.1-0.1,0.4-0.1,0.5c-0.1,0.4-0.4,0.7-0.7,1.1
			L33.4,46c0.1,0.1,0.3,0.4,0.5,0.5l0,0C34.1,46.1,34.4,45.8,34.5,45.4z"/>
		<path class="st10" d="M30.9,39c0-0.1,0-0.4,0-0.5h0.8c0.4,0,0.8-0.1,1.2-0.3c0.4-0.1,0.7-0.4,0.9-0.7s0.5-0.7,0.7-0.9
			c0.1-0.4,0.3-0.8,0.3-1.2c0-0.1,0-0.4,0-0.5c0,0.3-0.1,0.4-0.1,0.5c-0.1,0.4-0.4,0.7-0.7,0.9S33.4,36.9,33,37
			c-0.4,0.1-0.8,0.3-1.2,0.3h-0.9c0,0.1,0,0.4,0,0.5C30.8,38.2,30.8,38.5,30.9,39c0,0,0,0.3,0,0.4C30.9,39.3,30.9,39.1,30.9,39z"/>
	</g>
	
		<linearGradient id="SVGID_00000034807083833951345890000013985618296179013271_" gradientUnits="userSpaceOnUse" x1="42.365" y1="21.9319" x2="42.365" y2="31.5891" gradientTransform="matrix(1 0 0 -1 0 66)">
		<stop  offset="0" style="stop-color:#FFFFFF"/>
		<stop  offset="1" style="stop-color:#000000"/>
	</linearGradient>
	<path style="opacity:0.3;fill:url(#SVGID_00000034807083833951345890000013985618296179013271_);enable-background:new    ;" d="
		M42.4,33.6c-2.9,0-5.3,2.4-5.3,5.3c0,2.9,2.4,5.3,5.3,5.3s5.3-2.4,5.3-5.3C47.6,36,45.3,33.6,42.4,33.6z M42.4,43.1
		c-2.4,0-4.2-1.8-4.2-4.2c0-2.4,1.8-4.2,4.2-4.2s4.2,1.8,4.2,4.2C46.6,41.1,44.7,43.1,42.4,43.1z"/>
</g>
<path class="st12" d="M21.6,44.2l5.4-9c0,0-5,7.6-7.9,7.6L21.6,44.2z"/>
</svg>
