<?xml version="1.0" encoding="UTF-8"?>
<svg id="Layer_1" data-name="Layer 1" xmlns="http://www.w3.org/2000/svg" xmlns:xlink="http://www.w3.org/1999/xlink" viewBox="0 0 64 64">
  <defs>
    <linearGradient id="linear-gradient" x1="42.0499" y1="33.9272" x2="53.9822" y2="54.5945" gradientUnits="userSpaceOnUse">
      <stop offset="0" stop-color="#fff"/>
      <stop offset="1" stop-color="#d4d5d3"/>
    </linearGradient>
    <linearGradient id="linear-gradient-2" x1="40.711" y1="27" x2="52.862" y2="27" gradientTransform="translate(0 66) scale(1 -1)" gradientUnits="userSpaceOnUse">
      <stop offset="0" stop-color="#d4d5d3"/>
      <stop offset=".288" stop-color="#b4b4b4"/>
      <stop offset=".809" stop-color="#fff"/>
      <stop offset="1" stop-color="#d4d5d3"/>
    </linearGradient>
    <linearGradient id="linear-gradient-3" y1="31" y2="31" xlink:href="#linear-gradient-2"/>
    <linearGradient id="linear-gradient-4" y1="35" y2="35" xlink:href="#linear-gradient-2"/>
    <linearGradient id="linear-gradient-5" y1="39" y2="39" xlink:href="#linear-gradient-2"/>
    <linearGradient id="linear-gradient-6" y1="43" y2="43" xlink:href="#linear-gradient-2"/>
    <linearGradient id="linear-gradient-7" x1="44.2703" y1="53.2543" x2="50.0602" y2="43.2266" gradientTransform="translate(0 66) scale(1 -1)" gradientUnits="userSpaceOnUse">
      <stop offset="0" stop-color="#d7d7d7"/>
      <stop offset="1" stop-color="#969696"/>
    </linearGradient>
    <linearGradient id="linear-gradient-8" y1="51" y2="51" xlink:href="#linear-gradient-2"/>
    <linearGradient id="linear-gradient-9" x1="44.6018" y1="59.1539" x2="50.3618" y2="49.1769" gradientTransform="translate(0 66) scale(1 -1)" gradientUnits="userSpaceOnUse">
      <stop offset="0" stop-color="#b4b4b4"/>
      <stop offset=".089" stop-color="#c6c6c6"/>
      <stop offset=".321" stop-color="#efefef"/>
      <stop offset=".441" stop-color="#fff"/>
      <stop offset=".673" stop-color="#fdfdfd"/>
      <stop offset=".803" stop-color="#f5f5f4"/>
      <stop offset=".908" stop-color="#e7e8e7"/>
      <stop offset=".999" stop-color="#d4d5d3"/>
      <stop offset="1" stop-color="#d4d5d3"/>
    </linearGradient>
    <linearGradient id="linear-gradient-10" x1="45.4789" y1="57.6342" x2="48.5211" y2="52.3658" gradientTransform="translate(0 66) scale(1 -1)" gradientUnits="userSpaceOnUse">
      <stop offset="0" stop-color="#3287af"/>
      <stop offset="1" stop-color="#285a78"/>
    </linearGradient>
    <linearGradient id="linear-gradient-11" x1="28.711" y1="22" x2="40.862" y2="22" xlink:href="#linear-gradient-2"/>
    <linearGradient id="linear-gradient-12" x1="32.2706" y1="32.2543" x2="38.0599" y2="22.2266" xlink:href="#linear-gradient-7"/>
    <linearGradient id="linear-gradient-13" x1="28.711" y1="30" x2="40.862" y2="30" xlink:href="#linear-gradient-2"/>
    <linearGradient id="linear-gradient-14" x1="28.711" y1="34" x2="40.862" y2="34" xlink:href="#linear-gradient-2"/>
    <linearGradient id="linear-gradient-15" x1="28.711" y1="38" x2="40.862" y2="38" xlink:href="#linear-gradient-2"/>
    <linearGradient id="linear-gradient-16" x1="32.2703" y1="44.2543" x2="38.0602" y2="34.2266" xlink:href="#linear-gradient-7"/>
    <linearGradient id="linear-gradient-17" x1="28.711" y1="42" x2="40.862" y2="42" xlink:href="#linear-gradient-2"/>
    <linearGradient id="linear-gradient-18" x1="32.6018" y1="50.1539" x2="38.3618" y2="40.1769" xlink:href="#linear-gradient-9"/>
    <linearGradient id="linear-gradient-19" x1="36.0156" y1="45.2609" x2="60.0166" y2="45.2609" gradientTransform="translate(0 -1)" gradientUnits="userSpaceOnUse">
      <stop offset="0" stop-color="#464646"/>
      <stop offset="1" stop-color="#141414"/>
    </linearGradient>
    <linearGradient id="linear-gradient-20" x1="17.0438" y1="32.5772" x2="14.8394" y2="36.4015" gradientTransform="translate(0 66) scale(1 -1)" gradientUnits="userSpaceOnUse">
      <stop offset="0" stop-color="#fff"/>
      <stop offset="1" stop-color="#f1f0f0"/>
    </linearGradient>
    <linearGradient id="linear-gradient-21" x1="8.5832" y1="32.1958" x2="21.9432" y2=".4658" gradientTransform="translate(0 66) scale(1 -1)" gradientUnits="userSpaceOnUse">
      <stop offset="0" stop-color="#f5f6f6"/>
      <stop offset=".99" stop-color="#bfbebe"/>
    </linearGradient>
    <linearGradient id="linear-gradient-22" x1="25.3131" y1="19.8367" x2="22.0232" y2="25.5147" xlink:href="#linear-gradient-20"/>
    <linearGradient id="linear-gradient-23" x1="26.0132" y1="20.604" x2="28.2343" y2="15.8612" gradientTransform="translate(0 66) scale(1 -1)" gradientUnits="userSpaceOnUse">
      <stop offset="0" stop-color="#fff"/>
      <stop offset="1" stop-color="#d2d3d3"/>
    </linearGradient>
    <linearGradient id="linear-gradient-24" x1="17.491" y1="33.1269" x2="21.0815" y2="24.0254" xlink:href="#linear-gradient-23"/>
  </defs>
  <g>
    <g>
      <g>
        <g>
          <path d="m47,42.5c-4.065,0-7.5-1.6-7.5-3.5v-3.5h15v3.5c0,1.9-3.435,3.5-7.5,3.5Z" fill="url(#linear-gradient-2)"/>
          <path d="m54,36v3c0,1.416-2.994,3-7,3s-7-1.584-7-3v-3h14m1-1h-16v4c0,2.209,3.582,4,8,4s8-1.791,8-4v-4Z" fill="#787878"/>
        </g>
        <g>
          <path d="m47,38.5c-4.065,0-7.5-1.6-7.5-3.5v-3.5h15v3.5c0,1.9-3.435,3.5-7.5,3.5Z" fill="url(#linear-gradient-3)"/>
          <path d="m54,32v3c0,1.416-2.994,3-7,3s-7-1.584-7-3v-3h14m1-1h-16v4c0,2.209,3.582,4,8,4s8-1.791,8-4v-4Z" fill="#787878"/>
        </g>
        <g>
          <path d="m47,34.5c-4.065,0-7.5-1.6-7.5-3.5v-3.5h15v3.5c0,1.9-3.435,3.5-7.5,3.5Z" fill="url(#linear-gradient-4)"/>
          <path d="m54,28v3c0,1.416-2.994,3-7,3s-7-1.584-7-3v-3h14m1-1h-16v4c0,2.209,3.582,4,8,4s8-1.791,8-4v-4Z" fill="#787878"/>
        </g>
        <g>
          <path d="m47,30.5c-4.065,0-7.5-1.6-7.5-3.5v-3.5h15v3.5c0,1.9-3.435,3.5-7.5,3.5Z" fill="url(#linear-gradient-5)"/>
          <path d="m54,24v3c0,1.416-2.994,3-7,3s-7-1.584-7-3v-3h14m1-1h-16v4c0,2.209,3.582,4,8,4s8-1.791,8-4v-4Z" fill="#787878"/>
        </g>
        <g>
          <path d="m47,26.5c-4.065,0-7.5-1.6-7.5-3.5v-3.5h15v3.5c0,1.9-3.435,3.5-7.5,3.5Z" fill="url(#linear-gradient-6)"/>
          <path d="m54,20v3c0,1.416-2.994,3-7,3s-7-1.584-7-3v-3h14m1-1h-16v4c0,2.209,3.582,4,8,4s8-1.791,8-4v-4Z" fill="#787878"/>
        </g>
        <g>
          <path d="m47,22.5c-4.065,0-7.5-1.6-7.5-3.5v-3.5h15v3.5c0,1.9-3.435,3.5-7.5,3.5Z" fill="url(#linear-gradient-7)"/>
          <path d="m54,16v3c0,1.416-2.994,3-7,3s-7-1.584-7-3v-3h14m1-1h-16v4c0,2.209,3.582,4,8,4s8-1.791,8-4v-4Z" fill="#787878"/>
        </g>
      </g>
      <g>
        <g>
          <path d="m47,18.5c-4.065,0-7.5-1.6-7.5-3.5v-3.5h15v3.5c0,1.9-3.435,3.5-7.5,3.5Z" fill="url(#linear-gradient-8)"/>
          <path d="m54,12v3c0,1.416-2.994,3-7,3s-7-1.584-7-3v-3h14m1-1h-16v4c0,2.209,3.582,4,8,4s8-1.791,8-4v-4Z" fill="#787878"/>
        </g>
        <g>
          <ellipse cx="47" cy="11" rx="7.5" ry="3.5" fill="url(#linear-gradient-9)"/>
          <path d="m47,8c4.006,0,7,1.584,7,3s-2.994,3-7,3-7-1.584-7-3,2.994-3,7-3m0-1c-4.418,0-8,1.791-8,4s3.582,4,8,4,8-1.791,8-4-3.582-4-8-4Z" fill="#787878"/>
        </g>
        <ellipse cx="47" cy="11" rx="5" ry="2" fill="url(#linear-gradient-10)"/>
      </g>
    </g>
    <g>
      <g>
        <g>
          <path d="m35,47.5c-4.065,0-7.5-1.6-7.5-3.5v-3.5h15v3.5c0,1.9-3.435,3.5-7.5,3.5Z" fill="url(#linear-gradient-11)"/>
          <path d="m42,41v3c0,1.416-2.994,3-7,3s-7-1.584-7-3v-3h14m1-1h-16v4c0,2.209,3.582,4,8,4s8-1.791,8-4v-4Z" fill="#787878"/>
        </g>
        <g>
          <path d="m35,43.5c-4.065,0-7.5-1.6-7.5-3.5v-3.5h15v3.5c0,1.9-3.435,3.5-7.5,3.5Z" fill="url(#linear-gradient-12)"/>
          <path d="m42,37v3c0,1.416-2.994,3-7,3s-7-1.584-7-3v-3h14m1-1h-16v4c0,2.209,3.582,4,8,4s8-1.791,8-4v-4Z" fill="#787878"/>
        </g>
        <g>
          <path d="m35,39.5c-4.065,0-7.5-1.6-7.5-3.5v-3.5h15v3.5c0,1.9-3.435,3.5-7.5,3.5Z" fill="url(#linear-gradient-13)"/>
          <path d="m42,33v3c0,1.416-2.994,3-7,3s-7-1.584-7-3v-3h14m1-1h-16v4c0,2.209,3.582,4,8,4s8-1.791,8-4v-4Z" fill="#787878"/>
        </g>
        <g>
          <path d="m35,35.5c-4.065,0-7.5-1.6-7.5-3.5v-3.5h15v3.5c0,1.9-3.435,3.5-7.5,3.5Z" fill="url(#linear-gradient-14)"/>
          <path d="m42,29v3c0,1.416-2.994,3-7,3s-7-1.584-7-3v-3h14m1-1h-16v4c0,2.209,3.582,4,8,4s8-1.791,8-4v-4Z" fill="#787878"/>
        </g>
        <g>
          <path d="m35,31.5c-4.065,0-7.5-1.6-7.5-3.5v-3.5h15v3.5c0,1.9-3.435,3.5-7.5,3.5Z" fill="url(#linear-gradient-15)"/>
          <path d="m42,25v3c0,1.416-2.994,3-7,3s-7-1.584-7-3v-3h14m1-1h-16v4c0,2.209,3.582,4,8,4s8-1.791,8-4v-4Z" fill="#787878"/>
        </g>
        <g>
          <path d="m35,31.5c-4.065,0-7.5-1.6-7.5-3.5v-3.5h15v3.5c0,1.9-3.435,3.5-7.5,3.5Z" fill="url(#linear-gradient-16)"/>
          <path d="m42,25v3c0,1.416-2.994,3-7,3s-7-1.584-7-3v-3h14m1-1h-16v4c0,2.209,3.582,4,8,4s8-1.791,8-4v-4Z" fill="#787878"/>
        </g>
      </g>
      <g>
        <g>
          <path d="m35,27.5c-4.065,0-7.5-1.6-7.5-3.5v-3.5h15v3.5c0,1.9-3.435,3.5-7.5,3.5Z" fill="url(#linear-gradient-17)"/>
          <path d="m42,21v3c0,1.416-2.994,3-7,3s-7-1.584-7-3v-3h14m1-1h-16v4c0,2.209,3.582,4,8,4s8-1.791,8-4v-4Z" fill="#787878"/>
        </g>
        <g>
          <ellipse cx="35" cy="20" rx="7.5" ry="3.5" fill="url(#linear-gradient-18)"/>
          <path d="m35,17c4.006,0,7,1.584,7,3s-2.994,3-7,3-7-1.584-7-3,2.994-3,7-3m0-1c-4.418,0-8,1.791-8,4s3.582,4,8,4,8-1.791,8-4-3.582-4-8-4Z" fill="#787878"/>
        </g>
        <ellipse cx="35" cy="20" rx="5" ry="2" fill="#646464" isolation="isolate" opacity=".5"/>
      </g>
    </g>
    <path d="m55,16.8287v-5.8287c0-2.209-3.582-4-8-4s-8,1.791-8,4v5.539c-1.3017-.3652-2.6481-.5466-4-.539-4.418,0-8,1.791-8,4v24c0,2.209,3.582,4,8,4,.1188.0031.2361-.0127.3547-.0131.201-.0044.401-.0102.5979-.0219.41-.0209.8162-.0618,1.221-.1226.1832-.0259.3625-.0556.5401-.0877.1624-.0317.3256-.056.4866-.0941,1.0621-.2322,1.9993-.5776,2.761-1.004.0126-.0063.0261-.0103.0386-.0167,0,0,.0071-.0079.0079-.0089,1.2366-.7042,1.9922-1.6246,1.9922-2.6353v-1.6015c1.3017.3652,2.6481.5466,4,.539,4.418,0,8-1.791,8-4v-22.1048s0,0-.0001,0Zm-7.9999,25.1047c-1.2578.0064-2.5104-.1619-3.722-.5l-1.278-.37v2.9325c0,.6078-.5546,1.2459-1.5012,1.777-.7991.4013-1.6412.6987-2.5044.905-.2057.0454-.4172.0862-.6345.1227-.1089.0197-.2182.0358-.3276.0523-.3839.0545-.7831.0944-1.1959.1176-.1509.007-.3016.0149-.453.0159-.1277.0033-.2535.0094-.3834.0094-4.006,0-7-1.584-7-3v-12.3631s0-.0018-.0001-.0021v-11.6307c0-1.416,2.994-3,7-3,1.2578-.0064,2.5104.1619,3.722.5l1.278.37v-6.87c0-1.416,2.994-3,7-3s7,1.584,7,3v16.3006s0,.0018.0001.0021v11.6307c0,1.416-2.994,3-7,3Z" fill="#323232"/>
  </g>
  <g>
    <circle cx="48" cy="44" r="6" fill="#fff"/>
    <path d="m61.3604,42.7158c-.0342-.3506-.0791-.7119-.1357-1.0625l-.0424-.2649c-.1309-.8174-.8361-1.4187-1.6639-1.4187h-1.3982c-.0439,0-.0732-.0039-.084-.0039-.0068,0-.0068.002,0,.0059-.1064-.0547-.1514-.0938-.167-.1104-.04-.042-.0566-.0742-.0674-.1035-.0078-.0186-.0215-.0762-.0215-.1582,0-.0742.0117-.1123.0156-.125.001-.002.0244-.043.0781-.1006l.9874-.9872c.5809-.5807.6584-1.4957.1836-2.1659l-.1534-.2166c-.8408-1.1885-1.8887-2.2373-3.1133-3.1182l-.2223-.1598c-.6759-.486-1.6054-.4056-2.1878.1892l-1.003,1.0244c-.0947.0332-.1641.04-.2051.04-.0664,0-.124-.0078-.1582-.0215-.0469-.0181-.0928-.0479-.1406-.0913l-.0557-.0962s-.0156-.0415-.0156-.1309v-1.3986c0-.8274-.6007-1.5324-1.4176-1.6637l-.265-.0426c-.3506-.0566-.7148-.1021-1.0635-.1357-.373-.0361-.7598-.0596-1.1338-.0596-.375,0-.7598.0234-1.1318.0596-.3516.0337-.7148.0791-1.0654.1357l-.265.0426c-.8169.1313-1.4176.8363-1.4176,1.6637v1.3986c0,.0581-.0068.0913-.0029.0913,0,0,.001-.001.002-.0024-.0391.0757-.0781.1333-.1113.165s-.0557.0439-.0889.0566c-.0557.021-.1045.0293-.1689.0293-.0742,0-.1123-.0112-.1377-.021l-.0869-.0728-.9895-.989c-.5808-.5806-1.4956-.6579-2.1656-.183l-.2179.1544c-1.1904.8447-2.2393,1.8926-3.1172,3.1147l-.1559.2172c-.4812.6703-.4062,1.5904.1771,2.174l.1888.1889.8516.832c.0381.1045.043.1553.043.1943,0,.0664-.0078.124-.0225.1611-.0098.0264-.0264.0586-.0635.0977-.0361.0381-.0732.0645-.1211.0859-.0381.0166-.082.0254-.1328.0254h-1.3982c-.8274,0-1.5324.6007-1.6637,1.4176l-.0426.265c-.0537.3311-.0967.6738-.1309,1.0078-.0645.4424-.0645.8545-.0645,1.1895,0,.375.0225.7598.0596,1.1348.0342.3506.0791.7129.1357,1.0625l.0426.265c.1313.8169.8363,1.4176,1.6637,1.4176h1.3982c.0371,0,.0703.0049.0811.0049.0039,0,.0049-.001.002-.0029.0557.0273.1309.0684.207.1436.0322.0938.0498.1719.0498.2246,0,.0742-.0117.1123-.0156.126-.001.002-.0244.043-.0781.1006l-.9877.9877c-.5807.5807-.6582,1.4956-.1834,2.1657l.1535.2167c.8438,1.1904,1.8916,2.2393,3.1143,3.1172l.2174.1561c.6704.4816,1.591.4066,2.1746-.1771l.9888-.9888.0889-.0723c.0254-.0098.0635-.0215.1377-.0215.0645,0,.1133.0088.1689.0293l.0889.0566c.0391.0361.0664.0752.0869.1211.0166.0381.0254.082.0254.1328v1.3982c0,.8274.6007,1.5324,1.4176,1.6637l.265.0426c.3311.0537.6738.0967,1.0068.1309.4434.0645.8555.0645,1.1904.0645.374,0,.7607-.0225,1.1338-.0596.3516-.0342.7139-.0791,1.0635-.1357l.265-.0426c.8169-.1313,1.4176-.8363,1.4176-1.6637v-1.3982c0-.0508.0088-.0947.0254-.1328.0215-.0479.0479-.085.083-.1182.042-.04.0742-.0566.1035-.0674.0156-.0059.0723-.0215.1582-.0215.0742,0,.1123.0117.1377.0215l.0859.0713.9887.9887c.5807.5807,1.4956.6582,2.1657.1834l.2167-.1535c1.1885-.8408,2.2383-1.8887,3.1191-3.1133l.1562-.2172c.4821-.6704.4073-1.5914-.1766-2.1753l-.9893-.9893-.0713-.084c-.0107-.0273-.0234-.0684-.0234-.1426,0-.0205.0068-.0732.0322-.1377l.0645-.1104c.0391-.041.085-.0742.1348-.0977.0088-.0039.0459-.0137.1191-.0137h1.3982c.8278,0,1.533-.6013,1.6639-1.4187l.0424-.2649c.0566-.3506.1016-.7119.1357-1.0625.0371-.373.0596-.7598.0596-1.1348,0-.374-.0225-.7607-.0596-1.1338Zm-14.8177,1.0517c.0771-.1807.1895-.3477.3252-.4834.1348-.1348.3008-.2451.501-.333.1719-.0762.3477-.1113.5547-.1113.2061,0,.3818.0352.5742.1201.1787.0762.3447.1885.4814.3242.1357.1357.2441.2998.3359.5068.0742.167.1084.3418.1084.5488,0,.1973-.04.3838-.1191.5732-.0771.1807-.1895.3477-.3252.4834-.1348.1348-.2998.2441-.5029.334-.1689.0742-.3447.1094-.5527.1094-.1982,0-.3857-.04-.5703-.1162-.1816-.0781-.3496-.1914-.4854-.3271-.1348-.1357-.2441-.2998-.3359-.5068-.0742-.167-.1084-.3418-.1084-.5498,0-.1973.0391-.3828.1191-.5723Z" fill="#fff" opacity=".7"/>
    <g>
      <path d="m56.9306,50.4094l.8326.8326c-.7583,1.0769-1.6896,2.0072-2.7674,2.7674l-.8326-.8326c-.4896-.4906-1.1023-.7114-1.714-.7114-1.2733,0-2.4733.9811-2.4733,2.4489v1.1746c-.6616.0997-1.2987.172-1.9593.172-.6616,0-1.2987-.0723-1.9593-.172v-1.1746c0-1.4678-1.2-2.4489-2.4743-2.4489-.6117,0-1.2244.2208-1.714.7114l-.8326.8326c-1.0779-.7603-2.0081-1.6906-2.7674-2.7674l.8326-.8326c.4896-.4906.7104-1.1023.7104-1.716,0-1.2743-.9801-2.4743-2.4498-2.4743h-1.1756c-.0977-.6606-.171-1.2977-.171-1.9583s.0733-1.2977.171-1.9583h1.1756c1.4697,0,2.4498-1.2,2.4498-2.4743,0-.6137-.2208-1.2235-.7104-1.716l-.8326-.8326c.7593-1.0749,1.6896-2.0072,2.7674-2.7674l.8326.8326c.4896.4925,1.1023.7114,1.714.7114,1.2743,0,2.4743-.9792,2.4743-2.4489v-1.1746c.6606-.0977,1.2977-.172,1.9593-.172.6606,0,1.2977.0743,1.9593.172v1.1746c0,1.4951,1.2,2.4489,2.4733,2.4489.5873,0,1.2244-.1954,1.714-.686l.8326-.858c1.0779.7603,2.0091,1.6925,2.7674,2.7674l-.8326.8326c-.4896.4925-.7094,1.1023-.7094,1.716,0,1.2743.9792,2.4743,2.4489,2.4743h1.1756c.0977.6606.171,1.2977.171,1.9583s-.0733,1.2977-.171,1.9583h-1.1756c-1.4697,0-2.4489,1.2-2.4489,2.4743,0,.6137.2199,1.2254.7094,1.716Zm-4.7511-6.1485c0-2.2788-1.886-4.1629-4.1629-4.1629s-4.1638,1.884-4.1638,4.1629,1.886,4.1629,4.1638,4.1629,4.1629-1.884,4.1629-4.1629Z" fill="url(#linear-gradient-19)"/>
      <path d="m56.9306,50.4094l.8326.8326c-.7583,1.0769-1.6896,2.0072-2.7674,2.7674l-.8326-.8326c-.4896-.4906-1.1023-.7114-1.714-.7114-1.2733,0-2.4733.9811-2.4733,2.4489v1.1746c-.6616.0997-1.2987.172-1.9593.172-.6616,0-1.2987-.0723-1.9593-.172v-1.1746c0-1.4678-1.2-2.4489-2.4743-2.4489-.6117,0-1.2244.2208-1.714.7114l-.8326.8326c-1.0779-.7603-2.0081-1.6906-2.7674-2.7674l.8326-.8326c.4896-.4906.7104-1.1023.7104-1.716,0-1.2743-.9801-2.4743-2.4498-2.4743h-1.1756c-.0977-.6606-.171-1.2977-.171-1.9583s.0733-1.2977.171-1.9583h1.1756c1.4697,0,2.4498-1.2,2.4498-2.4743,0-.6137-.2208-1.2235-.7104-1.716l-.8326-.8326c.7593-1.0749,1.6896-2.0072,2.7674-2.7674l.8326.8326c.4896.4925,1.1023.7114,1.714.7114,1.2743,0,2.4743-.9792,2.4743-2.4489v-1.1746c.6606-.0977,1.2977-.172,1.9593-.172.6606,0,1.2977.0743,1.9593.172v1.1746c0,1.4951,1.2,2.4489,2.4733,2.4489.5873,0,1.2244-.1954,1.714-.686l.8326-.858c1.0779.7603,2.0091,1.6925,2.7674,2.7674l-.8326.8326c-.4896.4925-.7094,1.1023-.7094,1.716,0,1.2743.9792,2.4743,2.4489,2.4743h1.1756c.0977.6606.171,1.2977.171,1.9583s-.0733,1.2977-.171,1.9583h-1.1756c-1.4697,0-2.4489,1.2-2.4489,2.4743,0,.6137.2199,1.2254.7094,1.716Zm-4.7511-6.1485c0-2.2788-1.886-4.1629-4.1629-4.1629s-4.1638,1.884-4.1638,4.1629,1.886,4.1629,4.1638,4.1629,4.1629-1.884,4.1629-4.1629Z" fill="url(#linear-gradient)" stroke="#323232" stroke-linejoin="round"/>
    </g>
  </g>
  <g>
    <polygon points="14.155 35.0426 7.475 33.1554 18.5972 27.6946 24.2251 29.5482 14.155 35.0426" fill="url(#linear-gradient-20)"/>
    <polyline points="7.475 33.1554 7.475 49.8554 22.505 56.5354 22.505 48.1854 14.155 44.8454 14.155 35.0426" fill="none" stroke="#797979" stroke-linecap="round" stroke-linejoin="round"/>
    <polygon points="14.155 35.0426 14.155 44.8454 22.505 48.1854 22.505 56.5354 7.475 49.8554 7.475 33.1554 14.155 35.0426" fill="url(#linear-gradient-21)"/>
    <polygon points="24.2251 38.1654 32.525 40.6704 22.505 48.1854 14.155 44.8454 24.2251 38.1654" fill="url(#linear-gradient-22)"/>
    <polygon points="32.525 40.6704 32.525 48.1854 22.505 56.5354 22.505 48.1854 32.525 40.6704" fill="url(#linear-gradient-23)" stroke="#797979" stroke-linecap="round" stroke-linejoin="round"/>
    <polygon points="24.2251 29.5148 14.155 35.0426 14.155 44.8454 24.2251 38.1654 24.2251 29.5148" fill="url(#linear-gradient-24)" stroke="#797979" stroke-linecap="round" stroke-linejoin="round"/>
    <line x1="14.155" y1="35.0426" x2="7.475" y2="33.1554" fill="none" stroke="#797979" stroke-linecap="round" stroke-linejoin="round"/>
    <line x1="14.155" y1="44.8454" x2="22.505" y2="48.1854" fill="none" stroke="#797979" stroke-linecap="round" stroke-linejoin="round"/>
    <polygon points="24.2251 38.1654 24.2251 29.5148 24.1917 29.5315 18.5972 27.6946 7.475 33.1554 7.475 49.8554 22.505 56.5354 32.525 48.1854 32.525 40.6704 24.2251 38.1654" fill="none" stroke="#333332" stroke-linecap="round" stroke-linejoin="round"/>
  </g>
</svg>