<?xml version="1.0" encoding="utf-8"?>
<!-- Generator: Adobe Illustrator 28.0.0, SVG Export Plug-In . SVG Version: 6.00 Build 0)  -->
<svg version="1.1" id="Layer_1" xmlns="http://www.w3.org/2000/svg" xmlns:xlink="http://www.w3.org/1999/xlink" x="0px" y="0px"
	 viewBox="0 0 64 64" style="enable-background:new 0 0 64 64;" xml:space="preserve">
<style type="text/css">
	.White_x0020_RIGHT_x0020__x002F__x0020_FRONT{fill:url(#SVGID_1_);stroke:#787979;stroke-linejoin:round;stroke-miterlimit:10;}
	
		.Blue_x0020_LEFT{fill:url(#SVGID_00000102520308010325886470000004585601293969511319_);stroke:#003755;stroke-linejoin:round;stroke-miterlimit:10;}
	
		.st0{fill:url(#SVGID_00000021832995488453276390000016270962899608372629_);stroke:#003755;stroke-linejoin:round;stroke-miterlimit:10;}
	
		.st1{fill:url(#SVGID_00000107582742137629513530000013428214294663904155_);stroke:#003755;stroke-linejoin:round;stroke-miterlimit:10;}
	
		.st2{fill:url(#SVGID_00000034808859006814171590000005699615662507979182_);stroke:#003755;stroke-linejoin:round;stroke-miterlimit:10;}
	.st3{fill:none;stroke:#003755;stroke-linejoin:round;stroke-miterlimit:10;}
	
		.st4{fill:url(#SVGID_00000181789649264547294720000013749734151091225239_);stroke:#003755;stroke-linejoin:round;stroke-miterlimit:10;}
	.st5{display:none;}
	
		.st6{display:inline;fill:url(#SVGID_00000179622405173147776240000002815725356984324245_);stroke:#003755;stroke-linejoin:round;stroke-miterlimit:10;}
	.st7{display:inline;}
	.st8{fill:url(#SVGID_00000118398459314414283690000000032761891771345337_);}
	.st9{fill:#153957;}
	.st10{fill:url(#SVGID_00000148663029133494426440000012594538455873496196_);}
	.st11{fill:#003755;}
	.st12{fill:url(#SVGID_00000036934438365906650960000015046098222068762551_);}
	
		.st13{display:inline;fill:url(#SVGID_00000069374240693901282960000009724171201333336464_);stroke:#153957;stroke-linecap:round;stroke-linejoin:round;stroke-miterlimit:10;}
	.st14{opacity:0.5;fill:#FFFFFF;}
	
		.st15{clip-path:url(#cadre_00000021099834762076542070000015837970572502599586_);fill:url(#SVGID_00000132796883561215868580000012405068793871915965_);stroke:#787979;stroke-linejoin:round;stroke-miterlimit:10;}
	.st16{clip-path:url(#cadre_00000021099834762076542070000015837970572502599586_);}
	.st17{fill:url(#SVGID_00000088126801711412340830000000821200241739963034_);}
	.st18{fill:url(#SVGID_00000011729256579877357900000014261957917486765189_);}
	.st19{fill:url(#SVGID_00000000203797087210082580000007310040641557635724_);}
	.st20{fill:url(#SVGID_00000129206130311851145610000016718706185037440956_);}
	.st21{fill:#963200;}
	.st22{fill:url(#SVGID_00000109725273726723811200000013146762683369421750_);}
	.st23{fill:#831300;}
	.st24{clip-path:url(#cadre_00000021099834762076542070000015837970572502599586_);fill:none;stroke:#003755;stroke-miterlimit:10;}
	
		.st25{fill:url(#aiguille_00000166643511117042695130000014784742237607600273_);stroke:#003654;stroke-width:2.2608;stroke-linecap:round;stroke-miterlimit:10;}
	.st26{fill:url(#SVGID_00000054975426293672088360000012977436598085833891_);}
	.st27{fill:#003654;}
	.st28{fill:none;stroke:#003654;stroke-miterlimit:10;}
	.st29{display:none;fill:none;stroke:#000000;stroke-miterlimit:10;}
</style>
<linearGradient id="SVGID_1_" gradientUnits="userSpaceOnUse" x1="0" y1="0" x2="0.5" y2="0.866">
	<stop  offset="0" style="stop-color:#FFFFFF"/>
	<stop  offset="1" style="stop-color:#D2D2D2"/>
</linearGradient>
<linearGradient id="SVGID_00000133528479467630261480000010246066202584237488_" gradientUnits="userSpaceOnUse" x1="0" y1="0" x2="0.5" y2="0.866">
	<stop  offset="0" style="stop-color:#82BEDC"/>
	<stop  offset="1" style="stop-color:#285A78"/>
</linearGradient>
<g>
	
		<linearGradient id="SVGID_00000095324138039418484270000000882243069656840110_" gradientUnits="userSpaceOnUse" x1="18.3378" y1="49.7969" x2="35.7111" y2="19.7053" gradientTransform="matrix(1 0 0 -1 0 66)">
		<stop  offset="0" style="stop-color:#82BEDC"/>
		<stop  offset="1" style="stop-color:#285A78"/>
	</linearGradient>
	
		<path style="fill:url(#SVGID_00000095324138039418484270000000882243069656840110_);stroke:#003755;stroke-linejoin:round;stroke-miterlimit:10;" d="
		M28.1,49.5c4.1,0,7.5-3.3,7.5-7.5V21.8V10.1c0-0.9-0.7-1.7-1.7-1.7h-1.7c-0.9,0-1.7,0.7-1.7,1.7v11.8c0,0.5-0.3,1-0.7,1.3
		c-2.7,1.5-13.7,7.6-16.4,9.3v9.6c0,4.1,3.3,7.5,7.5,7.5L28.1,49.5L28.1,49.5z"/>
	
		<linearGradient id="SVGID_00000171712200196278171820000006608041159430409379_" gradientUnits="userSpaceOnUse" x1="18.134" y1="42.731" x2="23.2562" y2="33.8592" gradientTransform="matrix(1 0 0 -1 0 66)">
		<stop  offset="0" style="stop-color:#82BEDC"/>
		<stop  offset="1" style="stop-color:#285A78"/>
	</linearGradient>
	
		<path style="fill:url(#SVGID_00000171712200196278171820000006608041159430409379_);stroke:#003755;stroke-linejoin:round;stroke-miterlimit:10;" d="
		M23.5,32v-8.2c0-0.7-0.6-1.3-1.3-1.3h-2.4c-0.7,0-1.3,0.6-1.3,1.3V33"/>
	
		<linearGradient id="SVGID_00000026874598973263091180000015706143514443981214_" gradientUnits="userSpaceOnUse" x1="22.701" y1="44.481" x2="28.6892" y2="34.1092" gradientTransform="matrix(1 0 0 -1 0 66)">
		<stop  offset="0" style="stop-color:#82BEDC"/>
		<stop  offset="1" style="stop-color:#285A78"/>
	</linearGradient>
	
		<path style="fill:url(#SVGID_00000026874598973263091180000015706143514443981214_);stroke:#003755;stroke-linejoin:round;stroke-miterlimit:10;" d="
		M28.5,32V21.8c0-0.7-0.6-1.3-1.3-1.3h-2.4c-0.7,0-1.3,0.6-1.3,1.3V33"/>
	<path class="st3" d="M26.5,44v-5.3c0-0.1-0.1-0.2-0.2-0.2h-4.9c-1,0-1.9-0.8-1.9-1.8v-2.3c0-1,0.8-1.8,1.9-1.8h11.1
		c1.7,0,3.1,2,3.1,4.4"/>
	
		<linearGradient id="SVGID_00000137091887309212461210000006989598402432176314_" gradientUnits="userSpaceOnUse" x1="13.1696" y1="38.652" x2="19.0094" y2="28.5371" gradientTransform="matrix(1 0 0 -1 0 66)">
		<stop  offset="0" style="stop-color:#82BEDC"/>
		<stop  offset="1" style="stop-color:#285A78"/>
	</linearGradient>
	
		<path style="fill:url(#SVGID_00000137091887309212461210000006989598402432176314_);stroke:#003755;stroke-linejoin:round;stroke-miterlimit:10;" d="
		M18.6,27.9c0-0.8-0.7-1.4-1.6-1.4h-1.8c-0.9,0-1.6,0.6-1.6,1.4V37c0,0.8,0.9,1.5,2,1.5h1.1c1.1,0,1.9-0.6,2-1.5L18.6,27.9z"/>
</g>
<g class="st5">
	
		<linearGradient id="SVGID_00000142876489328702775360000011154318180446854055_" gradientUnits="userSpaceOnUse" x1="15.4955" y1="16.0591" x2="31.3206" y2="43.4691">
		<stop  offset="0" style="stop-color:#82BEDC"/>
		<stop  offset="1" style="stop-color:#285A78"/>
	</linearGradient>
	
		<path style="display:inline;fill:url(#SVGID_00000142876489328702775360000011154318180446854055_);stroke:#003755;stroke-linejoin:round;stroke-miterlimit:10;" d="
		M34.4,28.1c0-1.4-0.9-2.4-2.3-2.4h-0.2c-0.5,0-0.9,0.2-1.3,0.4c-0.3-1.1-1.2-2-2.4-2H28c-0.5,0-0.9,0.2-1.3,0.4
		c-0.3-1.1-1.2-1.9-2.4-1.9h-0.2c-0.4,0-0.8,0.1-1.2,0.3v-6.8c0-1.4-1.1-2.5-2.5-2.5h-0.2c-1.4,0-2.5,1.1-2.5,2.5v13.3l-1.6-2.1
		c-0.8-1.1-2.4-1.3-3.5-0.5l-0.2,0.1c-1.1,0.8-1.3,2.4-0.5,3.5c0,0,0.7,0.9,2.7,4c2.6,4.1,1.9,8.8,8.3,9.9c2.1,0.4,7.8,0.8,9.6-2.4
		c0.6-1.1,1.2-2.7,1.4-8c0.2-0.4,0.4-0.8,0.4-1.3V28.1z"/>
	<g class="st7">
		
			<linearGradient id="SVGID_00000109015924835626166200000006256406999782334136_" gradientUnits="userSpaceOnUse" x1="30.249" y1="29.3333" x2="34.46" y2="29.3333">
			<stop  offset="0" style="stop-color:#3388B0"/>
			<stop  offset="0.9921" style="stop-color:#2A5B79"/>
		</linearGradient>
		<path style="fill:url(#SVGID_00000109015924835626166200000006256406999782334136_);" d="M32.4,33.7c-1.2,0-2.1-0.9-2.1-2.1v-4.5
			c0-1.2,0.9-2.1,2.1-2.1s2.1,0.9,2.1,2.1v4.5C34.5,32.8,33.5,33.7,32.4,33.7z"/>
		<path class="st9" d="M32.4,25.5c0.9,0,1.6,0.7,1.6,1.6v4.5c0,0.9-0.7,1.6-1.6,1.6s-1.6-0.7-1.6-1.6v-4.5
			C30.7,26.2,31.5,25.5,32.4,25.5 M32.4,24.5c-1.4,0-2.6,1.2-2.6,2.6v4.5c0,1.4,1.2,2.6,2.6,2.6S35,33,35,31.6v-4.5
			C35,25.6,33.8,24.5,32.4,24.5L32.4,24.5z"/>
	</g>
	<g class="st7">
		
			<linearGradient id="SVGID_00000142150716492452396770000005800749173927889801_" gradientUnits="userSpaceOnUse" x1="26.185" y1="24.8075" x2="31.1053" y2="33.3298">
			<stop  offset="0" style="stop-color:#82BEDC"/>
			<stop  offset="1" style="stop-color:#285A78"/>
		</linearGradient>
		<path style="fill:url(#SVGID_00000142150716492452396770000005800749173927889801_);" d="M28.6,34.4c-1.2,0-2.1-0.9-2.1-2.1v-6.5
			c0-1.2,0.9-2.1,2.1-2.1s2.1,0.9,2.1,2.1v6.5C30.8,33.5,29.8,34.4,28.6,34.4z"/>
		<path class="st11" d="M28.6,24.2c0.9,0,1.6,0.7,1.6,1.6v6.5c0,0.9-0.7,1.6-1.6,1.6S27,33.2,27,32.3v-6.5
			C27,24.9,27.8,24.2,28.6,24.2 M28.6,23.2c-1.4,0-2.6,1.2-2.6,2.6v6.5c0,1.4,1.2,2.6,2.6,2.6s2.6-1.2,2.6-2.6v-6.5
			C31.3,24.4,30.1,23.2,28.6,23.2L28.6,23.2z"/>
	</g>
	<g class="st7">
		
			<linearGradient id="SVGID_00000144335735286197473690000008915741886268406415_" gradientUnits="userSpaceOnUse" x1="21.8766" y1="23.4925" x2="27.6962" y2="33.5722">
			<stop  offset="0" style="stop-color:#82BEDC"/>
			<stop  offset="1" style="stop-color:#285A78"/>
		</linearGradient>
		<path style="fill:url(#SVGID_00000144335735286197473690000008915741886268406415_);" d="M24.8,34.9c-1.2,0-2.1-0.9-2.1-2.1v-8.6
			c0-1.2,0.9-2.1,2.1-2.1s2.1,0.9,2.1,2.1v8.6C26.9,34,25.9,34.9,24.8,34.9z"/>
		<path class="st11" d="M24.8,22.6c0.9,0,1.6,0.7,1.6,1.6v8.6c0,0.9-0.7,1.6-1.6,1.6s-1.6-0.7-1.6-1.6v-8.6
			C23.2,23.4,23.9,22.6,24.8,22.6 M24.8,21.6c-1.4,0-2.6,1.2-2.6,2.6v8.6c0,1.4,1.2,2.6,2.6,2.6s2.6-1.2,2.6-2.6v-8.6
			C27.4,22.8,26.2,21.6,24.8,21.6L24.8,21.6z"/>
	</g>
	
		<linearGradient id="SVGID_00000008116586306911415780000018015106445298276992_" gradientUnits="userSpaceOnUse" x1="18.0528" y1="30.8022" x2="18.4254" y2="30.5256">
		<stop  offset="0" style="stop-color:#3388B0"/>
		<stop  offset="0.9921" style="stop-color:#2A5B79"/>
	</linearGradient>
	
		<line style="display:inline;fill:url(#SVGID_00000008116586306911415780000018015106445298276992_);stroke:#153957;stroke-linecap:round;stroke-linejoin:round;stroke-miterlimit:10;" x1="17.4" y1="29.2" x2="19.1" y2="32.2"/>
</g>
<g>
	<path class="st14" d="M44.1,53.3L60,47.7C58.5,40.4,52,35,44.4,35c-7.7,0-14.2,5.5-15.7,12.8L44.1,53.3z"/>
	<g>
		<defs>
			<polygon id="cadre_4_" points="59,47 44,52.5 29.6,47 29.6,34 44,34 59,34 			"/>
		</defs>
		<clipPath id="cadre_00000013191580838072309870000015724094987156857742_">
			<use xlink:href="#cadre_4_"  style="overflow:visible;"/>
		</clipPath>
		
			<linearGradient id="SVGID_00000166647522531373966030000002948312518521000381_" gradientUnits="userSpaceOnUse" x1="36.9495" y1="38.6532" x2="51.67" y2="64.1499">
			<stop  offset="0" style="stop-color:#FFFFFF"/>
			<stop  offset="1" style="stop-color:#D2D2D2"/>
		</linearGradient>
		
			<circle style="clip-path:url(#cadre_00000013191580838072309870000015724094987156857742_);fill:url(#SVGID_00000166647522531373966030000002948312518521000381_);stroke:#787979;stroke-linejoin:round;stroke-miterlimit:10;" cx="44.3" cy="51.4" r="14.7"/>
		<g id="ROUE_OK_4_" style="clip-path:url(#cadre_00000013191580838072309870000015724094987156857742_);">
			<g id="_x34__x2A__x2A__6_">
				
					<linearGradient id="SVGID_00000088847394274739834180000017569620223679244941_" gradientUnits="userSpaceOnUse" x1="50.4716" y1="44.8923" x2="56.6823" y2="44.8923">
					<stop  offset="0" style="stop-color:#379614"/>
					<stop  offset="1" style="stop-color:#55B432"/>
				</linearGradient>
				<path style="fill:url(#SVGID_00000088847394274739834180000017569620223679244941_);" d="M53.3,48.5l3.4-1.1
					c-0.8-2.4-2.2-4.4-4.1-6l-2.1,2.9C51.8,45.4,52.7,46.8,53.3,48.5z"/>
				
					<linearGradient id="SVGID_00000031200534480844581020000017553693944936820925_" gradientUnits="userSpaceOnUse" x1="50.4716" y1="44.8923" x2="56.6823" y2="44.8923">
					<stop  offset="0" style="stop-color:#28780A"/>
					<stop  offset="1" style="stop-color:#3C9B19"/>
				</linearGradient>
				<path style="fill:url(#SVGID_00000031200534480844581020000017553693944936820925_);" d="M52.7,42.8c1.1,1.1,2,2.4,2.6,3.9
					l-1.5,0.5c-0.5-1.1-1.2-2.2-2.1-3.1L52.7,42.8 M52.6,41.3l-2.1,2.9c1.3,1.1,2.3,2.6,2.8,4.2l3.4-1.1
					C55.9,45,54.5,42.9,52.6,41.3L52.6,41.3z"/>
			</g>
			<g id="_x33___x2A__x2A__6_">
				
					<linearGradient id="SVGID_00000164510218530406864080000010786032873866605247_" gradientUnits="userSpaceOnUse" x1="45.5" y1="40.9683" x2="51.2783" y2="40.9683">
					<stop  offset="0" style="stop-color:#8CD7F5"/>
					<stop  offset="1" style="stop-color:#376E8C"/>
				</linearGradient>
				<path style="fill:url(#SVGID_00000164510218530406864080000010786032873866605247_);" d="M49.8,43c-1.3-0.8-2.7-1.3-4.3-1.4
					v-2.6c2.1,0.2,4,0.8,5.8,1.9L49.8,43z"/>
				<path class="st11" d="M46,39.5c1.6,0.2,3.2,0.7,4.6,1.5l-0.9,1.3c-1.1-0.6-2.3-1-3.6-1.2V39.5 M45,38.4V42
					c1.8,0.1,3.5,0.7,4.9,1.6l2.1-2.9C50,39.4,47.6,38.5,45,38.4L45,38.4z"/>
			</g>
			<g id="_x32__x2A__x2A__6_">
				
					<linearGradient id="SVGID_00000166660694918464567680000004396882101801593790_" gradientUnits="userSpaceOnUse" x1="37.7529" y1="40.9932" x2="43.5" y2="40.9932">
					<stop  offset="0" style="stop-color:#FBE86A"/>
					<stop  offset="1" style="stop-color:#F1CF2F"/>
				</linearGradient>
				<path style="fill:url(#SVGID_00000166660694918464567680000004396882101801593790_);" d="M37.8,40.9c1.7-1.1,3.7-1.8,5.7-2v2.6
					c-1.5,0.2-2.9,0.7-4.2,1.5L37.8,40.9z"/>
				<path class="st21" d="M43,39.5v1.6c-1.3,0.2-2.5,0.6-3.6,1.2l-0.9-1.3C39.9,40.2,41.4,39.7,43,39.5 M44,38.4c-2.6,0.1-5,1-7,2.4
					l2.1,2.9c1.4-1,3-1.6,4.8-1.7V38.4L44,38.4z"/>
			</g>
			<g id="_x31__x2A__x2A__6_">
				
					<linearGradient id="SVGID_00000073000959266529766360000000554916525031137431_" gradientUnits="userSpaceOnUse" x1="33.0781" y1="45.0356" x2="37.9355" y2="45.0356">
					<stop  offset="0" style="stop-color:#FC3F05"/>
					<stop  offset="1" style="stop-color:#C10E00"/>
				</linearGradient>
				<path style="fill:url(#SVGID_00000073000959266529766360000000554916525031137431_);" d="M33.1,47.1c0.7-1.9,1.8-3.6,3.3-4.9
					l1.5,2.1c-1.1,1-1.9,2.3-2.4,3.6L33.1,47.1z"/>
				<path class="st23" d="M36.3,42.9l1,1.3c-0.9,0.9-1.5,1.9-2,3l-1.5-0.5C34.3,45.3,35.2,44,36.3,42.9 M36.5,41.4
					c-1.9,1.6-3.3,3.6-4,6l3.4,1.1c0.5-1.6,1.5-3.1,2.7-4.2L36.5,41.4L36.5,41.4z"/>
			</g>
		</g>
		
			<circle id="cercle_contour_8_" style="clip-path:url(#cadre_00000013191580838072309870000015724094987156857742_);fill:none;stroke:#003755;stroke-miterlimit:10;" cx="44.3" cy="51.4" r="14.7"/>
		
			<circle id="cercle_contour_7_" style="clip-path:url(#cadre_00000013191580838072309870000015724094987156857742_);fill:none;stroke:#003755;stroke-miterlimit:10;" cx="44.3" cy="51.4" r="14.7"/>
	</g>
	<g id="aiguille__x2A__x2A__4_">
		
			<linearGradient id="aiguille_00000158708161556128166220000002044127483487722911_" gradientUnits="userSpaceOnUse" x1="44.7146" y1="48.0986" x2="58.2544" y2="62.9434">
			<stop  offset="0" style="stop-color:#F0F0F0"/>
			<stop  offset="1" style="stop-color:#B3B3B3"/>
		</linearGradient>
		
			<line id="aiguille_4_" style="fill:url(#aiguille_00000158708161556128166220000002044127483487722911_);stroke:#003654;stroke-width:2.2608;stroke-linecap:round;stroke-miterlimit:10;" x1="44" y1="52.4" x2="47.1" y2="45.7"/>
		<g id="M2_S1_16_">
			
				<radialGradient id="SVGID_00000039836445836326978740000014882503977193290115_" cx="66.5305" cy="18.4699" r="1.8946" gradientTransform="matrix(0.9468 0.1858 -0.1838 0.9545 -15.8844 21.5356)" gradientUnits="userSpaceOnUse">
				<stop  offset="6.998684e-02" style="stop-color:#FFFFFF"/>
				<stop  offset="0.5162" style="stop-color:#82BDDB"/>
			</radialGradient>
			<path style="fill:url(#SVGID_00000039836445836326978740000014882503977193290115_);" d="M44,54.3c-0.3,0-0.6-0.1-0.9-0.2
				c-0.5-0.3-0.8-0.8-0.9-1.3c-0.1-0.6,0.1-1.1,0.5-1.5c0.3-0.4,0.8-0.6,1.4-0.6c0.3,0,0.6,0.1,0.9,0.2c0.5,0.3,0.8,0.8,0.9,1.3
				c0.1,0.6-0.1,1.1-0.5,1.5C45.1,54,44.6,54.3,44,54.3z"/>
			<g>
				<path class="st27" d="M44,50.7L44,50.7c0.3,0,0.6,0.1,0.8,0.2c0.4,0.2,0.7,0.7,0.8,1.2c0.1,0.5-0.1,1-0.4,1.4
					c-0.3,0.4-0.8,0.6-1.2,0.6c-0.3,0-0.6-0.1-0.8-0.2c-0.4-0.2-0.7-0.7-0.8-1.2c-0.1-0.5,0.1-1,0.4-1.4
					C43.1,50.9,43.6,50.7,44,50.7 M44,50.4c-1.1,0-2.1,1-2,2.3c0.1,0.6,0.4,1.2,1,1.5c0.3,0.2,0.7,0.3,1,0.3c1.1,0,2.1-1,2-2.3
					c-0.1-0.6-0.4-1.2-1-1.5C44.7,50.5,44.4,50.4,44,50.4L44,50.4z"/>
			</g>
		</g>
		<path id="M2_S1_10_" class="st28" d="M46,52.1c0.2,1.7-1.5,2.8-3,2c-0.5-0.3-0.9-0.9-1-1.5c-0.2-1.7,1.5-2.8,3-2
			C45.6,51,46,51.5,46,52.1z"/>
	</g>
</g>
<rect x="7.5" y="13.5" class="st29" width="34" height="34.4"/>
</svg>
