<?xml version="1.0" encoding="UTF-8"?>
<svg id="Layer_1" data-name="Layer 1" xmlns="http://www.w3.org/2000/svg" xmlns:xlink="http://www.w3.org/1999/xlink" viewBox="0 0 64 64">
  <defs>
    <linearGradient id="linear-gradient" x1="16.7419" y1="4.3042" x2="54.7157" y2="70.0768" gradientUnits="userSpaceOnUse">
      <stop offset="0" stop-color="#8cd7f5"/>
      <stop offset=".9999" stop-color="#376e8c"/>
    </linearGradient>
    <linearGradient id="linear-gradient-2" x1="17.4094" y1="28.1981" x2="27.1621" y2="36.489" gradientUnits="userSpaceOnUse">
      <stop offset="0" stop-color="#fff"/>
      <stop offset="1" stop-color="#d4d5d3"/>
    </linearGradient>
    <linearGradient id="linear-gradient-3" x1="17.4094" y1="38.1981" x2="27.1621" y2="46.489" xlink:href="#linear-gradient-2"/>
    <linearGradient id="linear-gradient-4" x1="32.4094" x2="42.1621" y2="36.489" xlink:href="#linear-gradient-2"/>
    <linearGradient id="linear-gradient-5" x1="32.4094" y1="38.1981" x2="42.1621" y2="46.489" xlink:href="#linear-gradient-2"/>
    <linearGradient id="linear-gradient-6" x1="47.4094" x2="57.1621" y2="36.489" xlink:href="#linear-gradient-2"/>
    <linearGradient id="linear-gradient-7" x1="47.4094" y1="38.1981" x2="57.1621" y2="46.489" xlink:href="#linear-gradient-2"/>
    <linearGradient id="linear-gradient-8" x1="43.1499" y1="36.1398" x2="51.9821" y2="51.4376" xlink:href="#linear-gradient-2"/>
    <linearGradient id="linear-gradient-9" x1="46.3498" y1="41.1494" x2="49.3645" y2="46.371" gradientUnits="userSpaceOnUse">
      <stop offset="0" stop-color="#3387af"/>
      <stop offset="1" stop-color="#285a78"/>
    </linearGradient>
  </defs>
  <rect x="8.5" y="12.5" width="45" height="33" fill="url(#linear-gradient)" stroke="#003755" stroke-miterlimit="10"/>
  <line x1="38.5" y1="12" x2="38.5" y2="45" fill="none" stroke="#003755" stroke-miterlimit="10"/>
  <line x1="23.5" y1="12" x2="23.5" y2="45" fill="none" stroke="#003755" stroke-miterlimit="10"/>
  <g>
    <rect x="11" y="23" width="10" height="8" fill="url(#linear-gradient-2)"/>
    <rect x="12" y="24" width="8" height="1" fill="#b2b2b2"/>
    <rect x="12" y="26" width="8" height="1" fill="#b2b2b2"/>
    <rect x="12" y="28" width="4" height="1" fill="#b2b2b2"/>
  </g>
  <g>
    <rect x="11" y="33" width="10" height="8" fill="url(#linear-gradient-3)"/>
    <rect x="12" y="34" width="8" height="1" fill="#b2b2b2"/>
    <rect x="12" y="36" width="8" height="1" fill="#b2b2b2"/>
    <rect x="12" y="38" width="4" height="1" fill="#b2b2b2"/>
  </g>
  <g>
    <rect x="26" y="23" width="10" height="8" fill="url(#linear-gradient-4)"/>
    <rect x="27" y="24" width="8" height="1" fill="#b2b2b2"/>
    <rect x="27" y="26" width="8" height="1" fill="#b2b2b2"/>
    <rect x="27" y="28" width="4" height="1" fill="#b2b2b2"/>
  </g>
  <g>
    <rect x="26" y="33" width="10" height="8" fill="url(#linear-gradient-5)"/>
    <rect x="27" y="34" width="8" height="1" fill="#b2b2b2"/>
    <rect x="27" y="36" width="8" height="1" fill="#b2b2b2"/>
    <rect x="27" y="38" width="4" height="1" fill="#b2b2b2"/>
  </g>
  <g>
    <rect x="41" y="23" width="10" height="8" fill="url(#linear-gradient-6)"/>
    <rect x="42" y="24" width="8" height="1" fill="#b2b2b2"/>
    <rect x="42" y="26" width="8" height="1" fill="#b2b2b2"/>
    <rect x="42" y="28" width="4" height="1" fill="#b2b2b2"/>
  </g>
  <g>
    <rect x="41" y="33" width="10" height="8" fill="url(#linear-gradient-7)"/>
    <rect x="42" y="34" width="8" height="1" fill="#b2b2b2"/>
    <rect x="42" y="36" width="8" height="1" fill="#b2b2b2"/>
    <rect x="42" y="38" width="4" height="1" fill="#b2b2b2"/>
  </g>
  <line x1="54" y1="19.5" x2="9" y2="19.5" fill="none" stroke="#003755" stroke-miterlimit="10"/>
  <g>
    <circle cx="47.566" cy="43.7887" r="8.8307" fill="url(#linear-gradient-8)" stroke="#323232" stroke-linejoin="round" stroke-width=".75"/>
    <path d="m45.7762,48.281c-.2415,0-.4836-.083-.6766-.2509l-3.239-2.8179c-.4147-.3608-.4478-.9777-.074-1.3778.3738-.4002,1.013-.4321,1.4277-.0714l2.5065,2.1806,5.5344-5.6389c.3839-.3911,1.0237-.4079,1.4291-.0374s.4227.988.0388,1.3792l-6.2127,6.3299c-.1985.2022-.466.3047-.7341.3047Z" fill="url(#linear-gradient-9)"/>
  </g>
  <g opacity=".7">
    <rect x="11" y="15" width="10" height="2" fill="#fff"/>
  </g>
  <g opacity=".7">
    <rect x="26" y="15" width="10" height="2" fill="#fff"/>
  </g>
  <g opacity=".7">
    <rect x="41" y="15" width="10" height="2" fill="#fff"/>
  </g>
</svg>