<?xml version="1.0" encoding="utf-8"?>
<!-- Generator: Adobe Illustrator 27.5.0, SVG Export Plug-In . SVG Version: 6.00 Build 0)  -->
<svg version="1.1" id="Layer_1" xmlns="http://www.w3.org/2000/svg" xmlns:xlink="http://www.w3.org/1999/xlink" x="0px" y="0px"
	 viewBox="0 0 64 64" style="enable-background:new 0 0 64 64;" xml:space="preserve">
<style type="text/css">
	.st0{fill:none;stroke:#003755;stroke-linecap:round;stroke-linejoin:round;stroke-miterlimit:10;}
	.st1{fill:url(#SVGID_1_);stroke:#003755;stroke-linecap:round;stroke-linejoin:round;stroke-miterlimit:10;}
	
		.st2{fill:url(#SVGID_00000174567972599447850180000015290696098411659953_);stroke:#003755;stroke-linecap:round;stroke-linejoin:round;stroke-miterlimit:10;}
	.st3{fill:url(#SVGID_00000170267966921504185540000015092828763549829523_);}
	.st4{fill:url(#SVGID_00000181787366122563359460000010977783915043009719_);stroke:#333332;stroke-linejoin:round;}
	.st5{fill:none;stroke:#323232;stroke-linejoin:round;stroke-miterlimit:10;}
	.st6{opacity:0.5;fill:#FFFFFF;enable-background:new    ;}
	.st7{fill:url(#SVGID_00000116210265028244919390000003381848867716187025_);stroke:#333332;}
</style>
<g>
	<line class="st0" x1="32.5" y1="3" x2="32.5" y2="7.9"/>
	<line class="st0" x1="32.5" y1="37.1" x2="32.5" y2="42"/>
	<line class="st0" x1="13" y1="22.5" x2="17.9" y2="22.5"/>
	<line class="st0" x1="47.2" y1="22.5" x2="52" y2="22.5"/>
	<line class="st0" x1="18.8" y1="8.8" x2="22.2" y2="12.2"/>
	<line class="st0" x1="42.9" y1="32.8" x2="46.3" y2="36.3"/>
	<line class="st0" x1="42.9" y1="12.2" x2="46.3" y2="8.8"/>
	<line class="st0" x1="18.8" y1="36.3" x2="22.2" y2="32.8"/>
	
		<linearGradient id="SVGID_1_" gradientUnits="userSpaceOnUse" x1="27.5429" y1="1027.9141" x2="37.4526" y2="1045.0782" gradientTransform="matrix(1 0 0 1 0 -1014)">
		<stop  offset="0" style="stop-color:#82BEDC"/>
		<stop  offset="1" style="stop-color:#285A78"/>
	</linearGradient>
	<circle class="st1" cx="32.5" cy="22.5" r="9.8"/>
</g>
<linearGradient id="SVGID_00000158010803417439687590000003414229719922960050_" gradientUnits="userSpaceOnUse" x1="104.9993" y1="154.2955" x2="114.0007" y2="138.7045" gradientTransform="matrix(1 0 0 -1 0 66)">
	<stop  offset="0" style="stop-color:#82BEDC"/>
	<stop  offset="1" style="stop-color:#285A78"/>
</linearGradient>
<circle style="fill:url(#SVGID_00000158010803417439687590000003414229719922960050_);stroke:#003755;stroke-linecap:round;stroke-linejoin:round;stroke-miterlimit:10;" cx="109.5" cy="-80.5" r="9"/>
<line class="st0" x1="109.5" y1="-93.5" x2="109.5" y2="-96.5"/>
<line class="st0" x1="118.2" y1="-89.9" x2="120.3" y2="-92"/>
<line class="st0" x1="121.5" y1="-80.5" x2="124.5" y2="-80.5"/>
<line class="st0" x1="118.2" y1="-72" x2="120.3" y2="-69.9"/>
<line class="st0" x1="109.5" y1="-68.5" x2="109.5" y2="-65.5"/>
<line class="st0" x1="80.4" y1="31" x2="78.2" y2="33.1"/>
<line class="st0" x1="76.5" y1="22.5" x2="73.5" y2="22.5"/>
<line class="st0" x1="80.4" y1="13.1" x2="78.2" y2="11"/>
<g>
	<g>
		
			<linearGradient id="SVGID_00000051344586665698055590000017081572124520944520_" gradientUnits="userSpaceOnUse" x1="40.5492" y1="61.5008" x2="72.6182" y2="5.9557" gradientTransform="matrix(1 0 0 -1 69 -21)">
			<stop  offset="0" style="stop-color:#FFFFFF"/>
			<stop  offset="1" style="stop-color:#D4D5D3"/>
		</linearGradient>
		
			<rect x="102.1" y="-78.2" style="fill:url(#SVGID_00000051344586665698055590000017081572124520944520_);" width="47" height="47"/>
	</g>
	<g>
		
			<linearGradient id="SVGID_00000104692483190496010920000003977067777849129601_" gradientUnits="userSpaceOnUse" x1="94.7011" y1="174.2186" x2="126.77" y2="118.6735" gradientTransform="matrix(1 0 0 -1 0 66)">
			<stop  offset="0" style="stop-color:#FFFFFF"/>
			<stop  offset="1" style="stop-color:#D2D2D2"/>
		</linearGradient>
		
			<rect x="102.1" y="-78.2" style="fill:url(#SVGID_00000104692483190496010920000003977067777849129601_);stroke:#333332;stroke-linejoin:round;" width="47" height="47"/>
	</g>
	<g>
		<rect x="102.1" y="-78.2" class="st5" width="47" height="47"/>
	</g>
</g>
<polygon class="st6" points="37.4,42.6 39.6,46.4 37,47.8 37,40 44.6,40 32.5,26.4 20.4,40 28,40 28,47.7 25.5,46.4 27.7,42.6 
	15.3,45.1 19.6,56.6 21.8,52.8 28,56.1 28,60 37,60 37,56.1 43.3,52.8 45.5,56.6 49.7,45.1 "/>
<linearGradient id="SVGID_00000076578236075842759190000009048686944017324953_" gradientUnits="userSpaceOnUse" x1="24.0498" y1="32.6291" x2="38.6136" y2="57.8543">
	<stop  offset="0" style="stop-color:#FFFFFF"/>
	<stop  offset="1" style="stop-color:#D2D2D2"/>
</linearGradient>
<polygon style="fill:url(#SVGID_00000076578236075842759190000009048686944017324953_);stroke:#333332;" points="39.4,44 41,46.8 
	36,49.4 36,39 42.4,39 32.5,27.9 22.6,39 29,39 29,49.4 24.1,46.8 25.7,44 16.7,45.8 19.8,54.2 21.4,51.4 29,55.5 29,59 36,59 
	36,55.5 43.7,51.4 45.3,54.2 48.4,45.8 "/>
</svg>
