<?xml version="1.0" encoding="UTF-8"?>
<svg id="Layer_1" data-name="Layer 1" xmlns="http://www.w3.org/2000/svg" xmlns:xlink="http://www.w3.org/1999/xlink" viewBox="0 0 64 64">
  <defs>
    <linearGradient id="linear-gradient" x1="42.0499" y1="31.9272" x2="53.9822" y2="52.5945" gradientUnits="userSpaceOnUse">
      <stop offset="0" stop-color="#fff"/>
      <stop offset="1" stop-color="#d4d5d3"/>
    </linearGradient>
    <linearGradient id="linear-gradient-2" x1="19.4764" y1="52.7273" x2="43.5829" y2="10.9738" gradientTransform="translate(0 64) scale(1 -1)" gradientUnits="userSpaceOnUse">
      <stop offset="0" stop-color="#fff"/>
      <stop offset="1" stop-color="#d4d5d3"/>
    </linearGradient>
    <linearGradient id="linear-gradient-3" x1="21.0281" y1="45.7852" x2="23.5918" y2="41.3447" gradientTransform="translate(0 64) scale(1 -1)" gradientUnits="userSpaceOnUse">
      <stop offset="0" stop-color="#8cd7f5"/>
      <stop offset="1" stop-color="#376e8c"/>
    </linearGradient>
    <linearGradient id="linear-gradient-4" x1="36.0508" y1="45.8964" x2="38.6145" y2="41.4559" xlink:href="#linear-gradient-3"/>
    <linearGradient id="linear-gradient-5" x1="21.782" y1="35.2436" x2="25.9471" y2="28.0295" xlink:href="#linear-gradient-3"/>
    <linearGradient id="linear-gradient-6" x1="26.8522" y1="26.122" x2="30.0173" y2="20.64" xlink:href="#linear-gradient-3"/>
  </defs>
  <g>
    <rect x="9.5" y="13.5" width="41" height="32" fill="url(#linear-gradient-2)" stroke="#323232" stroke-linejoin="round"/>
    <rect x="14" y="19" width="32" height="2" fill="#003755"/>
    <polygon id="a1_matrice-4" data-name="a1 matrice-4" points="24.7427 19.7339 22.0077 22.7194 19.1173 19.8199 21.9371 16.8395 24.7427 19.7339" fill="url(#linear-gradient-3)" stroke="#003755" stroke-miterlimit="10"/>
    <polygon id="a1_matrice-4-2" data-name="a1 matrice-4-2" points="39.8296 19.7339 37.0946 22.7194 34.2042 19.8199 37.0241 16.8395 39.8296 19.7339" fill="url(#linear-gradient-4)" stroke="#003755" stroke-miterlimit="10"/>
    <rect x="14" y="29" width="26" height="2" fill="#003755"/>
    <rect x="14" y="38" width="20" height="2" fill="#003755"/>
    <rect x="18.5" y="27.5" width="8" height="5" fill="url(#linear-gradient-5)" stroke="#003755" stroke-miterlimit="10"/>
    <rect x="25.5" y="36.5" width="4" height="5" fill="url(#linear-gradient-6)" stroke="#003755" stroke-miterlimit="10"/>
  </g>
  <g>
    <path d="m61.3604,40.7158c-.0342-.3506-.0791-.7119-.1357-1.0625l-.0424-.2649c-.1309-.8174-.8361-1.4187-1.6639-1.4187h-1.3982c-.0439,0-.0732-.0039-.084-.0039-.0068,0-.0068.002,0,.0059-.1064-.0547-.1514-.0938-.167-.1104-.04-.042-.0566-.0742-.0674-.1035-.0078-.0186-.0215-.0762-.0215-.1582,0-.0742.0117-.1123.0156-.125.001-.002.0244-.043.0781-.1006l.9874-.9872c.5809-.5807.6584-1.4957.1836-2.1659l-.1534-.2166c-.8408-1.1885-1.8887-2.2373-3.1133-3.1182l-.2223-.1598c-.6759-.486-1.6054-.4056-2.1878.1892l-1.003,1.0244c-.0947.0332-.1641.04-.2051.04-.0664,0-.124-.0078-.1582-.0215-.0469-.0181-.0928-.0479-.1406-.0913l-.0557-.0962s-.0156-.0415-.0156-.1309v-1.3986c0-.8274-.6007-1.5324-1.4176-1.6637l-.265-.0426c-.3506-.0566-.7148-.1021-1.0635-.1357-.373-.0361-.7598-.0596-1.1338-.0596-.375,0-.7598.0234-1.1318.0596-.3516.0337-.7148.0791-1.0654.1357l-.265.0426c-.8169.1313-1.4176.8363-1.4176,1.6637v1.3986c0,.0581-.0068.0913-.0029.0913,0,0,.001-.001.002-.0024-.0391.0757-.0781.1333-.1113.165s-.0557.0439-.0889.0566c-.0557.021-.1045.0293-.1689.0293-.0742,0-.1123-.0112-.1377-.021l-.0869-.0728-.9895-.989c-.5808-.5806-1.4956-.6579-2.1656-.183l-.2179.1544c-1.1904.8447-2.2393,1.8926-3.1172,3.1147l-.1559.2172c-.4812.6703-.4062,1.5904.1771,2.174l.1888.1889.8516.832c.0381.1045.043.1553.043.1943,0,.0664-.0078.124-.0225.1611-.0098.0264-.0264.0586-.0635.0977-.0361.0381-.0732.0645-.1211.0859-.0381.0166-.082.0254-.1328.0254h-1.3982c-.8274,0-1.5324.6007-1.6637,1.4176l-.0426.265c-.0537.3311-.0967.6738-.1309,1.0078-.0645.4424-.0645.8545-.0645,1.1895,0,.375.0225.7598.0596,1.1348.0342.3506.0791.7129.1357,1.0625l.0426.265c.1313.8169.8363,1.4176,1.6637,1.4176h1.3982c.0371,0,.0703.0049.0811.0049.0039,0,.0049-.001.002-.0029.0557.0273.1309.0684.207.1436.0322.0938.0498.1719.0498.2246,0,.0742-.0117.1123-.0156.126-.001.002-.0244.043-.0781.1006l-.9877.9877c-.5807.5807-.6582,1.4956-.1834,2.1657l.1535.2167c.8438,1.1904,1.8916,2.2393,3.1143,3.1172l.2174.1561c.6704.4816,1.591.4066,2.1746-.1771l.9888-.9888.0889-.0723c.0254-.0098.0635-.0215.1377-.0215.0645,0,.1133.0088.1689.0293l.0889.0566c.0391.0361.0664.0752.0869.1211.0166.0381.0254.082.0254.1328v1.3982c0,.8274.6007,1.5324,1.4176,1.6637l.265.0426c.3311.0537.6738.0967,1.0068.1309.4434.0645.8555.0645,1.1904.0645.374,0,.7607-.0225,1.1338-.0596.3516-.0342.7139-.0791,1.0635-.1357l.265-.0426c.8169-.1313,1.4176-.8363,1.4176-1.6637v-1.3982c0-.0508.0088-.0947.0254-.1328.0215-.0479.0479-.085.083-.1182.042-.04.0742-.0566.1035-.0674.0156-.0059.0723-.0215.1582-.0215.0742,0,.1123.0117.1377.0215l.0859.0713.9887.9887c.5807.5807,1.4956.6582,2.1657.1834l.2167-.1535c1.1885-.8408,2.2383-1.8887,3.1191-3.1133l.1562-.2172c.4821-.6704.4073-1.5914-.1766-2.1753l-.9893-.9893-.0713-.084c-.0107-.0273-.0234-.0684-.0234-.1426,0-.0205.0068-.0732.0322-.1377l.0645-.1104c.0391-.041.085-.0742.1348-.0977.0088-.0039.0459-.0137.1191-.0137h1.3982c.8278,0,1.533-.6013,1.6639-1.4187l.0424-.2649c.0566-.3506.1016-.7119.1357-1.0625.0371-.373.0596-.7598.0596-1.1348,0-.374-.0225-.7607-.0596-1.1338Zm-14.8177,1.0517c.0771-.1807.1895-.3477.3252-.4834.1348-.1348.3008-.2451.501-.333.1719-.0762.3477-.1113.5547-.1113.2061,0,.3818.0352.5742.1201.1787.0762.3447.1885.4814.3242.1357.1357.2441.2998.3359.5068.0742.167.1084.3418.1084.5488,0,.1973-.04.3838-.1191.5732-.0771.1807-.1895.3477-.3252.4834-.1348.1348-.2998.2441-.5029.334-.1689.0742-.3447.1094-.5527.1094-.1982,0-.3857-.04-.5703-.1162-.1816-.0781-.3496-.1914-.4854-.3271-.1348-.1357-.2441-.2998-.3359-.5068-.0742-.167-.1084-.3418-.1084-.5498,0-.1973.0391-.3828.1191-.5723Z" fill="#fff" opacity=".7"/>
    <path d="m56.9306,48.4094l.8326.8326c-.7583,1.0769-1.6896,2.0072-2.7674,2.7674l-.8326-.8326c-.4896-.4906-1.1023-.7114-1.714-.7114-1.2733,0-2.4733.9811-2.4733,2.4489v1.1746c-.6616.0997-1.2987.172-1.9593.172-.6616,0-1.2987-.0723-1.9593-.172v-1.1746c0-1.4678-1.2-2.4489-2.4743-2.4489-.6117,0-1.2244.2208-1.714.7114l-.8326.8326c-1.0779-.7603-2.0081-1.6906-2.7674-2.7674l.8326-.8326c.4896-.4906.7104-1.1023.7104-1.716,0-1.2743-.9801-2.4743-2.4498-2.4743h-1.1756c-.0977-.6606-.171-1.2977-.171-1.9583s.0733-1.2977.171-1.9583h1.1756c1.4697,0,2.4498-1.2,2.4498-2.4743,0-.6137-.2208-1.2235-.7104-1.716l-.8326-.8326c.7593-1.0749,1.6896-2.0072,2.7674-2.7674l.8326.8326c.4896.4925,1.1023.7114,1.714.7114,1.2743,0,2.4743-.9792,2.4743-2.4489v-1.1746c.6606-.0977,1.2977-.172,1.9593-.172.6606,0,1.2977.0743,1.9593.172v1.1746c0,1.4951,1.2,2.4489,2.4733,2.4489.5873,0,1.2244-.1954,1.714-.686l.8326-.858c1.0779.7603,2.0091,1.6925,2.7674,2.7674l-.8326.8326c-.4896.4925-.7094,1.1023-.7094,1.716,0,1.2743.9792,2.4743,2.4489,2.4743h1.1756c.0977.6606.171,1.2977.171,1.9583s-.0733,1.2977-.171,1.9583h-1.1756c-1.4697,0-2.4489,1.2-2.4489,2.4743,0,.6137.2199,1.2254.7094,1.716Zm-4.7511-6.1485c0-2.2788-1.886-4.1629-4.1629-4.1629s-4.1638,1.884-4.1638,4.1629,1.886,4.1629,4.1638,4.1629,4.1629-1.884,4.1629-4.1629Z" fill="url(#linear-gradient)" stroke="#323232" stroke-linejoin="round"/>
  </g>
</svg>