<?xml version="1.0" encoding="UTF-8"?>
<svg id="Layer_1" data-name="Layer 1" xmlns="http://www.w3.org/2000/svg" xmlns:xlink="http://www.w3.org/1999/xlink" viewBox="0 0 64 64">
  <defs>
    <linearGradient id="linear-gradient" x1="19.4764" y1="9.2727" x2="43.5828" y2="51.0262" gradientTransform="translate(2.5 57.5) rotate(-90)" gradientUnits="userSpaceOnUse">
      <stop offset="0" stop-color="#fff"/>
      <stop offset="1" stop-color="#d4d5d3"/>
    </linearGradient>
    <linearGradient id="linear-gradient-2" x1="21.0281" y1="16.2148" x2="23.5918" y2="20.6553" gradientUnits="userSpaceOnUse">
      <stop offset="0" stop-color="#8cd7f5"/>
      <stop offset="1" stop-color="#376e8c"/>
    </linearGradient>
    <linearGradient id="linear-gradient-3" x1="36.0509" y1="16.1036" x2="38.6146" y2="20.5441" xlink:href="#linear-gradient-2"/>
    <linearGradient id="linear-gradient-4" x1="36.9491" y1="38.4025" x2="44.3469" y2="51.2158" gradientUnits="userSpaceOnUse">
      <stop offset="0" stop-color="#d7d7d7"/>
      <stop offset="1" stop-color="#969696"/>
    </linearGradient>
    <linearGradient id="linear-gradient-5" x1="39.2504" y1="30.3827" x2="42.7496" y2="36.4435" xlink:href="#linear-gradient-4"/>
    <linearGradient id="linear-gradient-6" x1="48.9491" y1="36.9025" x2="56.3469" y2="49.7158" xlink:href="#linear-gradient-4"/>
    <linearGradient id="linear-gradient-7" x1="51.2504" y1="28.8827" x2="54.7496" y2="34.9435" xlink:href="#linear-gradient-4"/>
    <radialGradient id="radial-gradient" cx="44.8323" cy="35.7597" fx="44.8323" fy="35.7597" r="3.5" gradientUnits="userSpaceOnUse">
      <stop offset="0" stop-color="#fff"/>
      <stop offset="1" stop-color="#d2d2d2"/>
    </radialGradient>
    <linearGradient id="linear-gradient-8" x1="40.9491" y1="40.4025" x2="48.3469" y2="53.2158" gradientUnits="userSpaceOnUse">
      <stop offset="0" stop-color="#fff"/>
      <stop offset="1" stop-color="#d2d2d2"/>
    </linearGradient>
    <linearGradient id="linear-gradient-9" x1="21.782" y1="26.7564" x2="25.9471" y2="33.9705" gradientUnits="userSpaceOnUse">
      <stop offset="0" stop-color="#8cd7f5"/>
      <stop offset="1" stop-color="#376e8c"/>
    </linearGradient>
    <linearGradient id="linear-gradient-10" x1="26.8522" y1="35.878" x2="30.0173" y2="41.3601" xlink:href="#linear-gradient-9"/>
  </defs>
  <rect x="14" y="7" width="32" height="41" transform="translate(57.5 -2.5) rotate(90)" fill="url(#linear-gradient)" stroke="#323232" stroke-linejoin="round"/>
  <rect x="14" y="17" width="32" height="2" fill="#003755"/>
  <polygon id="a1_matrice-4" data-name="a1 matrice-4" points="24.7427 17.7339 22.0077 20.7194 19.1173 17.8199 21.9371 14.8395 24.7427 17.7339" fill="url(#linear-gradient-2)" stroke="#003755" stroke-miterlimit="10"/>
  <polygon id="a1_matrice-4-2" data-name="a1 matrice-4" points="39.8296 17.7339 37.0946 20.7194 34.2042 17.8199 37.0241 14.8395 39.8296 17.7339" fill="url(#linear-gradient-3)" stroke="#003755" stroke-miterlimit="10"/>
  <rect x="14" y="27" width="22" height="2" fill="#003755"/>
  <rect x="14" y="36" width="21" height="2" fill="#003755"/>
  <g>
    <g opacity=".5">
      <path d="m59.9476,40.093c-.0074-.0622-.0192-.123-.0283-.1848-.0319-.2199-.0732-.4363-.1251-.6492-.0121-.0491-.0246-.0978-.0378-.1466-.0667-.2497-.1453-.494-.2381-.7319-.0026-.0066-.0047-.0134-.0073-.02-.313-.7953-.7675-1.5175-1.3325-2.1403-.0112-.0124-.0223-.0246-.0336-.0369-.3828-.4161-.8109-.7892-1.2834-1.1031.0496-.0598.0854-.1284.132-.1903.084-.1125.1646-.2253.2391-.3448.0952-.1517.1773-.309.2554-.4699.0534-.1104.1088-.2181.1542-.3328.0755-.1906.1312-.3878.1827-.5875.0259-.1002.06-.1962.0797-.2988.0591-.3077.0953-.6219.0953-.9431,0-2.7568-2.2432-5-5-5-2.6069,0-4.7299,2.0129-4.9557,4.5621-.8459-.6557-1.8937-1.0621-3.0443-1.0621-.0081,0-.0155.0023-.0236.0024-.9136-1.2084-2.3484-2.0024-3.9764-2.0024-2.7568,0-5,2.2432-5,5,0,.3212.0363.6354.0953.9431.0197.1025.0538.1985.0797.2988.0515.1998.1072.397.1827.5875.0454.1147.1008.2224.1542.3328.0781.1609.1602.3182.2554.4699.0746.1194.1551.2323.2391.3448.0465.0619.0825.1306.132.1904-.4725.3139-.9007.687-1.2835,1.1031-.0113.0123-.0224.0245-.0336.0369-.565.6229-1.0195,1.345-1.3325,2.1403-.0026.0066-.0047.0134-.0073.02-.0927.2378-.1713.482-.238.7315-.0132.049-.0259.0981-.038.1475-.0518.2129-.0932.4294-.125.6494-.009.0614-.0208.1218-.0281.1835-.0317.2697-.0524.5426-.0524.8207v7.5c0,1.4543,1.962,2.0795,4.0433,2.3354.4329,1.8712,4.4843,2.1646,6.9567,2.1646,2.6143,0,7-.3252,7-2.5v-1.0169c.3511.0118.6887.0169,1,.0169,2.6143,0,7-.3252,7-2.5v-7.5c0-.2779-.0207-.5506-.0524-.8201Z" fill="#fff"/>
    </g>
    <g>
      <g>
        <g>
          <path d="m41,50.9131c-3.874,0-5.3906-.752-5.5039-1.0264l.0039-7.4736c0-3.0322,2.4678-5.5,5.5-5.5s5.5,2.4678,5.5,5.5v7.5c-.1094.248-1.626,1-5.5,1Z" fill="url(#linear-gradient-4)"/>
          <path d="m41,37.413c2.757,0,5,2.243,5,5v7.258c-.4591.2839-2.0453.742-5,.742s-4.5407-.4581-5-.742v-7.258c0-2.757,2.243-5,5-5m0-1c-3.3137,0-6,2.6863-6,6v7.5c0,.7673,2.2007,1.5,6,1.5s6-.7326,6-1.5v-7.5c0-3.3137-2.6863-6-6-6h0Z" fill="#787878"/>
        </g>
        <g>
          <circle cx="41" cy="33.4131" r="3.5" fill="url(#linear-gradient-5)"/>
          <path d="m41,30.413c1.6542,0,3,1.3458,3,3s-1.3458,3-3,3-3-1.3458-3-3,1.3458-3,3-3m0-1c-2.2097,0-4,1.791-4,4s1.7903,4,4,4,4-1.791,4-4-1.7903-4-4-4h0Z" fill="#787878"/>
        </g>
        <path d="m43.308,39.1575c.4257.8162.692,1.8463.692,2.9828v7.0676c.4257-.0679.7568-.144,1-.2144v-6.5805c0-1.3445-.6718-2.53-1.692-3.2556Z" fill="#fff" opacity=".3"/>
        <path d="m43.6378,33.0618c0-1.0672-.8897-2.1988-1.6132-2.1988-.3963,0-.6624.3417-.6624.9023,0,1.0605.8864,2.1977,1.6134,2.1977.3893,0,.6621-.331.6621-.9012Z" fill="#fff" opacity=".3"/>
        <path d="m41,30.413c1.6542,0,3,1.3458,3,3,0,1.0347-.5318,1.9839-1.4226,2.5389-.3231.2013-.5039.5687-.4663.9475.0376.3789.2871.7035.6435.8373,1.9411.729,3.2453,2.6082,3.2453,4.6762v7.258c-.4591.2839-2.0453.742-5,.742s-4.5407-.4581-5-.742v-7.258c0-2.068,1.3042-3.9472,3.2453-4.6762.3564-.1339.6059-.4585.6435-.8373.0376-.3789-.1432-.7462-.4663-.9475-.8908-.555-1.4226-1.5042-1.4226-2.5389,0-1.6542,1.3458-3,3-3m0-1c-2.2097,0-4,1.791-4,4,0,1.4336.7603,2.6814,1.8937,3.3876-2.2731.8537-3.8937,3.041-3.8937,5.6124v7.5c0,.7673,2.2007,1.5,6,1.5s6-.7326,6-1.5v-7.5c0-2.5714-1.6206-4.7587-3.8937-5.6124,1.1334-.7062,1.8937-1.954,1.8937-3.3876,0-2.209-1.7903-4-4-4h0Z" fill="#323232"/>
      </g>
      <g>
        <g>
          <path d="m53,49.4131c-3.874,0-5.3906-.752-5.5039-1.0264l.0039-7.4736c0-3.0322,2.4678-5.5,5.5-5.5s5.5,2.4678,5.5,5.5v7.5c-.1094.248-1.626,1-5.5,1Z" fill="url(#linear-gradient-6)"/>
          <path d="m53,35.913c2.757,0,5,2.243,5,5v7.258c-.4591.2839-2.0453.742-5,.742s-4.5407-.4581-5-.742v-7.258c0-2.757,2.243-5,5-5m0-1c-3.3137,0-6,2.6863-6,6v7.5c0,.7673,2.2007,1.5,6,1.5s6-.7326,6-1.5v-7.5c0-3.3137-2.6863-6-6-6h0Z" fill="#787878"/>
        </g>
        <g>
          <circle cx="53" cy="31.9131" r="3.5" fill="url(#linear-gradient-7)"/>
          <path d="m53,28.913c1.6542,0,3,1.3458,3,3s-1.3458,3-3,3-3-1.3458-3-3,1.3458-3,3-3m0-1c-2.2097,0-4,1.791-4,4s1.7903,4,4,4,4-1.791,4-4-1.7903-4-4-4h0Z" fill="#787878"/>
        </g>
        <path d="m55.308,37.6575c.4257.8162.692,1.8463.692,2.9828v7.0676c.4257-.0679.7568-.144,1-.2144v-6.5805c0-1.3445-.6718-2.53-1.692-3.2556Z" fill="#fff" opacity=".3"/>
        <path d="m55.6378,31.5618c0-1.0672-.8897-2.1988-1.6132-2.1988-.3963,0-.6624.3417-.6624.9023,0,1.0605.8864,2.1977,1.6134,2.1977.3893,0,.6621-.331.6621-.9012Z" fill="#fff" opacity=".3"/>
        <g>
          <path d="m53,49.4131c-3.874,0-5.3906-.752-5.5039-1.0264l.0039-7.4736c0-2.2754,1.4346-4.3428,3.5693-5.1445.1777-.0664.3027-.2285.3213-.418.0195-.1895-.0713-.373-.2324-.4746-1.0381-.6465-1.6582-1.7549-1.6582-2.9629,0-1.9297,1.5703-3.5,3.5-3.5s3.5,1.5703,3.5,3.5c0,1.208-.6201,2.3164-1.6582,2.9629-.1611.1016-.252.2852-.2324.4746.0186.1895.1436.3516.3213.418,2.1348.8018,3.5693,2.8691,3.5693,5.1445v7.5c-.1094.248-1.626,1-5.5,1Z" fill="none"/>
          <path d="m53,28.913c1.6542,0,3,1.3458,3,3,0,1.0347-.5318,1.9839-1.4226,2.5389-.3231.2013-.5039.5687-.4663.9475.0376.3789.2871.7035.6435.8373,1.9411.729,3.2453,2.6082,3.2453,4.6762v7.258c-.4591.2839-2.0453.742-5,.742s-4.5407-.4581-5-.742v-7.258c0-2.068,1.3042-3.9472,3.2453-4.6762.3564-.1339.6059-.4585.6435-.8373.0376-.3789-.1432-.7462-.4663-.9475-.8908-.555-1.4226-1.5042-1.4226-2.5389,0-1.6542,1.3458-3,3-3m0-1c-2.2097,0-4,1.791-4,4,0,1.4336.7603,2.6814,1.8937,3.3876-2.2731.8537-3.8937,3.041-3.8937,5.6124v7.5c0,.7673,2.2007,1.5,6,1.5s6-.7326,6-1.5v-7.5c0-2.5714-1.6206-4.7587-3.8937-5.6124,1.1334-.7062,1.8937-1.954,1.8937-3.3876,0-2.209-1.7903-4-4-4h0Z" fill="#323232"/>
        </g>
      </g>
      <g>
        <g>
          <circle cx="45" cy="35.4131" r="3.5" fill="url(#radial-gradient)"/>
          <path d="m45,32.413c1.6542,0,3,1.3458,3,3s-1.3458,3-3,3-3-1.3458-3-3,1.3458-3,3-3m0-1c-2.2097,0-4,1.791-4,4s1.7903,4,4,4,4-1.791,4-4-1.7903-4-4-4h0Z" fill="#787878"/>
        </g>
        <g>
          <path d="m45,52.9131c-3.874,0-5.3906-.752-5.5039-1.0264l.0039-7.4736c0-3.0322,2.4678-5.5,5.5-5.5s5.5,2.4678,5.5,5.5v7.5c-.1094.248-1.626,1-5.5,1Z" fill="url(#linear-gradient-8)"/>
          <path d="m45,39.413c2.757,0,5,2.243,5,5v7.258c-.4591.2839-2.0453.742-5,.742s-4.5407-.4581-5-.742v-7.258c0-2.757,2.243-5,5-5m0-1c-3.3137,0-6,2.6863-6,6v7.5c0,.7673,2.2007,1.5,6,1.5s6-.7326,6-1.5v-7.5c0-3.3137-2.6863-6-6-6h0Z" fill="#787878"/>
        </g>
        <path d="m47.308,41.1575c.4257.8162.692,1.8463.692,2.9828v7.0676c.4257-.0679.7568-.144,1-.2144v-6.5805c0-1.3445-.6718-2.53-1.692-3.2556Z" fill="#fff" opacity=".3"/>
        <path d="m47.6378,35.0618c0-1.0672-.8897-2.1988-1.6132-2.1988-.3963,0-.6624.3417-.6624.9023,0,1.0605.8864,2.1977,1.6134,2.1977.3893,0,.6621-.331.6621-.9012Z" fill="#fff" opacity=".3"/>
        <path d="m45,32.413c1.6542,0,3,1.3458,3,3,0,1.0347-.5318,1.9839-1.4226,2.5389-.3231.2013-.5039.5687-.4663.9475.0376.3789.2871.7035.6435.8373,1.9411.729,3.2453,2.6082,3.2453,4.6762v7.258c-.4591.2839-2.0453.742-5,.742s-4.5407-.4581-5-.742v-7.258c0-2.068,1.3042-3.9472,3.2453-4.6762.3564-.1339.6059-.4585.6435-.8373.0376-.3789-.1432-.7462-.4663-.9475-.8908-.555-1.4226-1.5042-1.4226-2.5389,0-1.6542,1.3458-3,3-3m0-1c-2.2097,0-4,1.791-4,4,0,1.4336.7603,2.6814,1.8937,3.3876-2.2731.8537-3.8937,3.041-3.8937,5.6124v7.5c0,.7673,2.2007,1.5,6,1.5s6-.7326,6-1.5v-7.5c0-2.5714-1.6206-4.7587-3.8937-5.6124,1.1334-.7062,1.8937-1.954,1.8937-3.3876,0-2.209-1.7903-4-4-4h0Z" fill="#323232"/>
      </g>
    </g>
  </g>
  <rect x="18.5" y="25.5" width="8" height="5" fill="url(#linear-gradient-9)" stroke="#003755" stroke-miterlimit="10"/>
  <rect x="25.5" y="34.5" width="4" height="5" fill="url(#linear-gradient-10)" stroke="#003755" stroke-miterlimit="10"/>
</svg>