<?xml version="1.0" encoding="UTF-8"?>
<svg xmlns="http://www.w3.org/2000/svg" version="1.1" xmlns:xlink="http://www.w3.org/1999/xlink" viewBox="0 0 64 64">
  <defs>
    <linearGradient id="linear-gradient" x1="10.4" y1="4.8" x2="37.5" y2="51.7" gradientUnits="userSpaceOnUse">
      <stop offset="0" stop-color="#fff"/>
      <stop offset="1" stop-color="#d2d2d2"/>
    </linearGradient>
    <linearGradient id="linear-gradient-2" x1="13.5" y1="24.2" x2="33.8" y2="24.2" gradientUnits="userSpaceOnUse">
      <stop offset="0" stop-color="#3287af"/>
      <stop offset="1" stop-color="#285a78"/>
    </linearGradient>
    <linearGradient id="linear-gradient-3" x1="39.7" y1="35.2" x2="51.2" y2="15.2" gradientTransform="translate(0 70.5) scale(1 -1)" gradientUnits="userSpaceOnUse">
      <stop offset="0" stop-color="#fff"/>
      <stop offset="1" stop-color="#d4d5d3"/>
    </linearGradient>
    <linearGradient id="linear-gradient-4" x1="45.5" y1="21.3" x2="45.5" y2="30.3" gradientTransform="translate(0 70.5) scale(1 -1)" gradientUnits="userSpaceOnUse">
      <stop offset="0" stop-color="#000" stop-opacity="0"/>
      <stop offset="1" stop-color="#000"/>
    </linearGradient>
    <linearGradient id="linear-gradient-5" x1="45.5" y1="21.3" x2="45.5" y2="30.3" gradientTransform="translate(0 70.5) scale(1 -1)" gradientUnits="userSpaceOnUse">
      <stop offset="0" stop-color="#fff"/>
      <stop offset=".3" stop-color="#000" stop-opacity=".6"/>
      <stop offset=".5" stop-color="#000" stop-opacity=".3"/>
      <stop offset=".7" stop-color="#000" stop-opacity="0"/>
      <stop offset=".8" stop-color="#fff" stop-opacity="0"/>
    </linearGradient>
  </defs>
  <!-- Generator: Adobe Illustrator 28.7.5, SVG Export Plug-In . SVG Version: 1.2.0 Build 176)  -->
  <g>
    <g id="Layer_1">
      <g>
        <g>
          <polygon points="41 49.7 7 49.7 7 6.7 41 6.7 41 18.9 41 49.7" fill="url(#linear-gradient)" stroke="#787878" stroke-linecap="round" stroke-linejoin="round"/>
          <polygon points="41 49.7 7 49.7 7 6.7 41 6.7 41 18.9 41 49.7" fill="none" stroke="#323232" stroke-linecap="round" stroke-linejoin="round"/>
          <path d="M25.6,31.9c-2.3,0-4.3-1.5-5.4-3.6h7.2v-3h-7.9c0-.8,0-1,0-1.3s0-.7,0-.7h7.9v-3h-7.2c1.1-2.2,3.1-3.6,5.4-3.6s4.2,1.4,5.3,3.6l2.9-1.3c-1.7-3.3-4.8-5.3-8.2-5.3s-4.9,1.1-6.7,3.1c-.9,1-1.6,2.2-2,3.5h-3.4v3h2.8c0,.2,0,.4,0,.7s0,1.3,0,1.3h-2.8v3h3.4c.4,1.3,1.1,2.5,2,3.5,1.8,2,4.2,3.1,6.7,3.1s6.5-2,8.2-5.3l-2.9-1.3c-1.1,2.2-3.2,3.6-5.3,3.6Z" fill="url(#linear-gradient-2)"/>
        </g>
        <g>
          <rect x="12.5" y="40.2" width="4" height="4" fill="#787878"/>
          <rect x="18.5" y="40.2" width="17" height="4" fill="#787878"/>
        </g>
      </g>
      <g>
        <g>
          <g>
            <circle cx="45.5" cy="45.3" r="4.5" fill="#fff"/>
            <g>
              <path d="M56.8,43.1h-1.6c-.8,0-1.4-.5-1.7-1.2,0,0,0,0,0,0-.3-.7-.2-1.5.4-2.1l1.1-1.1c-.8-1.2-1.8-2.2-3-3l-1.1,1.1c-.5.5-1.4.7-2.1.4,0,0,0,0,0,0-.7-.3-1.2-1-1.2-1.7v-1.6c-.7-.1-1.4-.2-2.1-.2s-1.4,0-2.1.2v1.6c0,.8-.5,1.4-1.2,1.7,0,0,0,0,0,0-.7.3-1.5.2-2.1-.4l-1.1-1.1c-1.2.8-2.2,1.8-3,3l1.1,1.1c.5.5.7,1.4.4,2.1,0,0,0,0,0,0-.3.7-1,1.2-1.7,1.2h-1.6c-.1.7-.2,1.4-.2,2.1s0,1.4.2,2.1h1.6c.8,0,1.4.5,1.7,1.2,0,0,0,0,0,0,.3.7.2,1.5-.4,2.1l-1.1,1.1c.8,1.2,1.8,2.2,3,3l1.1-1.1c.5-.5,1.4-.7,2.1-.4,0,0,0,0,0,0,.7.3,1.2,1,1.2,1.7v1.6c.7.1,1.4.2,2.1.2s1.4,0,2.1-.2v-1.6c0-.8.5-1.4,1.2-1.7,0,0,0,0,0,0,.7-.3,1.5-.2,2.1.4l1.1,1.1c1.2-.8,2.2-1.8,3-3l-1.1-1.1c-.5-.5-.7-1.4-.4-2.1,0,0,0,0,0,0,.3-.7,1-1.2,1.7-1.2h1.6c.1-.7.2-1.4.2-2.1s0-1.4-.2-2.1ZM45.5,49.1c-2.1,0-3.9-1.7-3.9-3.9s1.7-3.9,3.9-3.9,3.9,1.7,3.9,3.9-1.7,3.9-3.9,3.9Z" fill="#fff"/>
              <g>
                <path d="M45.5,40.1c-2.8,0-5.1,2.3-5.1,5.1s2.3,5.1,5.1,5.1,5.1-2.3,5.1-5.1-2.3-5.1-5.1-5.1ZM45.5,49.5c-2.4,0-4.3-1.9-4.3-4.3s1.9-4.3,4.3-4.3,4.3,1.9,4.3,4.3-1.9,4.3-4.3,4.3Z" fill="#fff"/>
                <path d="M45.5,40.1c-2.8,0-5.1,2.3-5.1,5.1s2.3,5.1,5.1,5.1,5.1-2.3,5.1-5.1-2.3-5.1-5.1-5.1ZM45.5,49.5c-2.4,0-4.3-1.9-4.3-4.3s1.9-4.3,4.3-4.3,4.3,1.9,4.3,4.3-1.9,4.3-4.3,4.3Z" fill="#fff"/>
              </g>
            </g>
          </g>
          <g>
            <circle cx="45.5" cy="45.3" r="4.5" fill="#fff" stroke="#231f20" stroke-miterlimit="10"/>
            <g>
              <path d="M56.8,43.1h-1.6c-.8,0-1.4-.5-1.7-1.2,0,0,0,0,0,0-.3-.7-.2-1.5.4-2.1l1.1-1.1c-.8-1.2-1.8-2.2-3-3l-1.1,1.1c-.5.5-1.4.7-2.1.4,0,0,0,0,0,0-.7-.3-1.2-1-1.2-1.7v-1.6c-.7-.1-1.4-.2-2.1-.2s-1.4,0-2.1.2v1.6c0,.8-.5,1.4-1.2,1.7,0,0,0,0,0,0-.7.3-1.5.2-2.1-.4l-1.1-1.1c-1.2.8-2.2,1.8-3,3l1.1,1.1c.5.5.7,1.4.4,2.1,0,0,0,0,0,0-.3.7-1,1.2-1.7,1.2h-1.6c-.1.7-.2,1.4-.2,2.1s0,1.4.2,2.1h1.6c.8,0,1.4.5,1.7,1.2,0,0,0,0,0,0,.3.7.2,1.5-.4,2.1l-1.1,1.1c.8,1.2,1.8,2.2,3,3l1.1-1.1c.5-.5,1.4-.7,2.1-.4,0,0,0,0,0,0,.7.3,1.2,1,1.2,1.7v1.6c.7.1,1.4.2,2.1.2s1.4,0,2.1-.2v-1.6c0-.8.5-1.4,1.2-1.7,0,0,0,0,0,0,.7-.3,1.5-.2,2.1.4l1.1,1.1c1.2-.8,2.2-1.8,3-3l-1.1-1.1c-.5-.5-.7-1.4-.4-2.1,0,0,0,0,0,0,.3-.7,1-1.2,1.7-1.2h1.6c.1-.7.2-1.4.2-2.1s0-1.4-.2-2.1ZM45.5,49.1c-2.1,0-3.9-1.7-3.9-3.9s1.7-3.9,3.9-3.9,3.9,1.7,3.9,3.9-1.7,3.9-3.9,3.9Z" fill="url(#linear-gradient-3)" stroke="#323232" stroke-linejoin="round"/>
              <g>
                <path d="M45.5,40.1c-2.8,0-5.1,2.3-5.1,5.1s2.3,5.1,5.1,5.1,5.1-2.3,5.1-5.1-2.3-5.1-5.1-5.1ZM45.5,49.5c-2.4,0-4.3-1.9-4.3-4.3s1.9-4.3,4.3-4.3,4.3,1.9,4.3,4.3-1.9,4.3-4.3,4.3Z" fill="url(#linear-gradient-4)" isolation="isolate" opacity=".3"/>
                <path d="M45.5,40.1c-2.8,0-5.1,2.3-5.1,5.1s2.3,5.1,5.1,5.1,5.1-2.3,5.1-5.1-2.3-5.1-5.1-5.1ZM45.5,49.5c-2.4,0-4.3-1.9-4.3-4.3s1.9-4.3,4.3-4.3,4.3,1.9,4.3,4.3-1.9,4.3-4.3,4.3Z" fill="url(#linear-gradient-5)" isolation="isolate" opacity=".8"/>
              </g>
            </g>
          </g>
          <g>
            <circle cx="45.5" cy="45.3" r="4.5" fill="none" stroke="#fff" stroke-linejoin="round" stroke-width="4"/>
            <g>
              <path d="M56.8,43.1h-1.6c-.8,0-1.4-.5-1.7-1.2,0,0,0,0,0,0-.3-.7-.2-1.5.4-2.1l1.1-1.1c-.8-1.2-1.8-2.2-3-3l-1.1,1.1c-.5.5-1.4.7-2.1.4,0,0,0,0,0,0-.7-.3-1.2-1-1.2-1.7v-1.6c-.7-.1-1.4-.2-2.1-.2s-1.4,0-2.1.2v1.6c0,.8-.5,1.4-1.2,1.7,0,0,0,0,0,0-.7.3-1.5.2-2.1-.4l-1.1-1.1c-1.2.8-2.2,1.8-3,3l1.1,1.1c.5.5.7,1.4.4,2.1,0,0,0,0,0,0-.3.7-1,1.2-1.7,1.2h-1.6c-.1.7-.2,1.4-.2,2.1s0,1.4.2,2.1h1.6c.8,0,1.4.5,1.7,1.2,0,0,0,0,0,0,.3.7.2,1.5-.4,2.1l-1.1,1.1c.8,1.2,1.8,2.2,3,3l1.1-1.1c.5-.5,1.4-.7,2.1-.4,0,0,0,0,0,0,.7.3,1.2,1,1.2,1.7v1.6c.7.1,1.4.2,2.1.2s1.4,0,2.1-.2v-1.6c0-.8.5-1.4,1.2-1.7,0,0,0,0,0,0,.7-.3,1.5-.2,2.1.4l1.1,1.1c1.2-.8,2.2-1.8,3-3l-1.1-1.1c-.5-.5-.7-1.4-.4-2.1,0,0,0,0,0,0,.3-.7,1-1.2,1.7-1.2h1.6c.1-.7.2-1.4.2-2.1s0-1.4-.2-2.1ZM45.5,49.1c-2.1,0-3.9-1.7-3.9-3.9s1.7-3.9,3.9-3.9,3.9,1.7,3.9,3.9-1.7,3.9-3.9,3.9Z" fill="none" stroke="#fff" stroke-linejoin="round" stroke-width="4"/>
              <g>
                <path d="M45.5,40.1c-2.8,0-5.1,2.3-5.1,5.1s2.3,5.1,5.1,5.1,5.1-2.3,5.1-5.1-2.3-5.1-5.1-5.1ZM45.5,49.5c-2.4,0-4.3-1.9-4.3-4.3s1.9-4.3,4.3-4.3,4.3,1.9,4.3,4.3-1.9,4.3-4.3,4.3Z" fill="none" stroke="#fff" stroke-linejoin="round" stroke-width="4"/>
                <path d="M45.5,40.1c-2.8,0-5.1,2.3-5.1,5.1s2.3,5.1,5.1,5.1,5.1-2.3,5.1-5.1-2.3-5.1-5.1-5.1ZM45.5,49.5c-2.4,0-4.3-1.9-4.3-4.3s1.9-4.3,4.3-4.3,4.3,1.9,4.3,4.3-1.9,4.3-4.3,4.3Z" fill="none" stroke="#fff" stroke-linejoin="round" stroke-width="4"/>
              </g>
            </g>
          </g>
        </g>
        <g>
          <circle cx="45.5" cy="45.3" r="4.5" fill="#fff" stroke="#231f20" stroke-miterlimit="10"/>
          <g>
            <path d="M56.8,43.1h-1.6c-.8,0-1.4-.5-1.7-1.2,0,0,0,0,0,0-.3-.7-.2-1.5.4-2.1l1.1-1.1c-.8-1.2-1.8-2.2-3-3l-1.1,1.1c-.5.5-1.4.7-2.1.4,0,0,0,0,0,0-.7-.3-1.2-1-1.2-1.7v-1.6c-.7-.1-1.4-.2-2.1-.2s-1.4,0-2.1.2v1.6c0,.8-.5,1.4-1.2,1.7,0,0,0,0,0,0-.7.3-1.5.2-2.1-.4l-1.1-1.1c-1.2.8-2.2,1.8-3,3l1.1,1.1c.5.5.7,1.4.4,2.1,0,0,0,0,0,0-.3.7-1,1.2-1.7,1.2h-1.6c-.1.7-.2,1.4-.2,2.1s0,1.4.2,2.1h1.6c.8,0,1.4.5,1.7,1.2,0,0,0,0,0,0,.3.7.2,1.5-.4,2.1l-1.1,1.1c.8,1.2,1.8,2.2,3,3l1.1-1.1c.5-.5,1.4-.7,2.1-.4,0,0,0,0,0,0,.7.3,1.2,1,1.2,1.7v1.6c.7.1,1.4.2,2.1.2s1.4,0,2.1-.2v-1.6c0-.8.5-1.4,1.2-1.7,0,0,0,0,0,0,.7-.3,1.5-.2,2.1.4l1.1,1.1c1.2-.8,2.2-1.8,3-3l-1.1-1.1c-.5-.5-.7-1.4-.4-2.1,0,0,0,0,0,0,.3-.7,1-1.2,1.7-1.2h1.6c.1-.7.2-1.4.2-2.1s0-1.4-.2-2.1ZM45.5,49.1c-2.1,0-3.9-1.7-3.9-3.9s1.7-3.9,3.9-3.9,3.9,1.7,3.9,3.9-1.7,3.9-3.9,3.9Z" fill="url(#linear-gradient-3)" stroke="#323232" stroke-linejoin="round"/>
            <g>
              <path d="M45.5,40.1c-2.8,0-5.1,2.3-5.1,5.1s2.3,5.1,5.1,5.1,5.1-2.3,5.1-5.1-2.3-5.1-5.1-5.1ZM45.5,49.5c-2.4,0-4.3-1.9-4.3-4.3s1.9-4.3,4.3-4.3,4.3,1.9,4.3,4.3-1.9,4.3-4.3,4.3Z" fill="url(#linear-gradient-4)" isolation="isolate" opacity=".3"/>
              <path d="M45.5,40.1c-2.8,0-5.1,2.3-5.1,5.1s2.3,5.1,5.1,5.1,5.1-2.3,5.1-5.1-2.3-5.1-5.1-5.1ZM45.5,49.5c-2.4,0-4.3-1.9-4.3-4.3s1.9-4.3,4.3-4.3,4.3,1.9,4.3,4.3-1.9,4.3-4.3,4.3Z" fill="url(#linear-gradient-5)" isolation="isolate" opacity=".8"/>
            </g>
          </g>
        </g>
      </g>
    </g>
  </g>
</svg>