<?xml version="1.0" encoding="utf-8"?>
<!-- Generator: Adobe Illustrator 28.7.1, SVG Export Plug-In . SVG Version: 9.03 Build 54978)  -->
<svg version="1.0" id="Layer_1" xmlns="http://www.w3.org/2000/svg" xmlns:xlink="http://www.w3.org/1999/xlink" x="0px" y="0px"
	 viewBox="0 0 64 64" style="enable-background:new 0 0 64 64;" xml:space="preserve">
<style type="text/css">
	.st0{fill:none;stroke:#323232;stroke-miterlimit:10;}
	.st1{fill:url(#SVGID_1_);stroke:#FFFFFF;stroke-width:3;stroke-linejoin:round;}
	.st2{fill:url(#SVGID_00000176021776408715717440000007795331566015235490_);stroke:#053755;stroke-linejoin:round;}
	.st3{fill:url(#SVGID_00000040538986403191847630000010833574147481256344_);stroke:#323232;stroke-linejoin:round;}
	.st4{fill:url(#SVGID_00000156566844932275853570000000448119255424460208_);}
	.st5{fill:#C9C7C7;}
	.st6{fill:url(#SVGID_00000075156693500580281860000010276026174466348984_);}
	.st7{fill:url(#SVGID_00000079479683026627660380000011793794651441772217_);}
	.st8{fill:url(#SVGID_00000009556450857785846910000003352083399973802891_);}
	.st9{fill:#D9D9D9;}
	.st10{fill:url(#SVGID_00000062902019378351514980000015723178525628983224_);}
	.st11{fill:url(#SVGID_00000092445581623957009450000002443674846258872704_);}
	.st12{fill:url(#SVGID_00000121269938433688120180000004794300717195249547_);}
	.st13{fill:#FFFFFF;}
	.st14{fill:url(#SVGID_00000154396445465877659720000007111113942620076430_);}
	.st15{opacity:0.3;enable-background:new    ;}
	.st16{opacity:0.3;fill:#FFFFFF;enable-background:new    ;}
	.st17{opacity:0.5;fill:#646565;enable-background:new    ;}
	.st18{opacity:0.2;fill:#FFFFFF;enable-background:new    ;}
	.st19{fill:url(#SVGID_00000022559877888600862850000014983836552442437002_);stroke:#787979;stroke-linejoin:round;}
	.st20{opacity:0.5;fill:#FFFFFF;enable-background:new    ;}
	.st21{opacity:0.3;fill:url(#SVGID_00000098181486188397058830000006271914949020152193_);enable-background:new    ;}
	.st22{fill:none;stroke:#323232;stroke-linejoin:round;}
	.st23{fill:url(#SVGID_00000073691990624248595280000000312353320361976248_);}
	.st24{fill:none;stroke:#053755;stroke-linejoin:round;}
	.st25{fill:url(#SVGID_00000126308626938981157050000001216648366447485341_);}
</style>
<polygon class="st0" points="6.5,27.3 6.5,52.3 17.5,56.5 28.5,52.4 39.5,56.5 39.5,31.5 28.6,27.3 17.5,31.5 "/>
<line class="st0" x1="17.5" y1="31.5" x2="17.5" y2="56"/>
<line class="st0" x1="28.5" y1="27.9" x2="28.5" y2="52.3"/>
<linearGradient id="SVGID_1_" gradientUnits="userSpaceOnUse" x1="15.5201" y1="-199.8318" x2="24.8615" y2="-216.0043" gradientTransform="matrix(1 0 0 -1 0 -191.89)">
	<stop  offset="0" style="stop-color:#8DD7F4"/>
	<stop  offset="1" style="stop-color:#386E8C"/>
</linearGradient>
<path class="st1" d="M19,7c-3.7,0-6.7,2.9-6.7,6.5s6.7,14,6.7,14s6.7-10.5,6.7-14S22.7,7,19,7L19,7z M19,16.9c-2,0-3.6-1.6-3.6-3.5
	S17,10,19,10s3.6,1.6,3.6,3.5S21,16.9,19,16.9z"/>
<ellipse cx="19" cy="13.4" rx="4.1" ry="4"/>
<linearGradient id="SVGID_00000127737213508242589610000007362543836331559303_" gradientUnits="userSpaceOnUse" x1="15.5201" y1="-199.8318" x2="24.8615" y2="-216.0043" gradientTransform="matrix(1 0 0 -1 0 -191.89)">
	<stop  offset="0" style="stop-color:#8DD7F4"/>
	<stop  offset="1" style="stop-color:#386E8C"/>
</linearGradient>
<path style="fill:url(#SVGID_00000127737213508242589610000007362543836331559303_);stroke:#053755;stroke-linejoin:round;" d="
	M19,7c-3.7,0-6.7,2.9-6.7,6.5s6.7,14,6.7,14s6.7-10.5,6.7-14S22.7,7,19,7L19,7z M19,16.9c-2,0-3.6-1.6-3.6-3.5S17,10,19,10
	s3.6,1.6,3.6,3.5S21,16.9,19,16.9z"/>
<ellipse cx="19" cy="13.4" rx="4.1" ry="4"/>
<linearGradient id="SVGID_00000150794588519071397460000010216585053116023992_" gradientUnits="userSpaceOnUse" x1="28.5898" y1="25.7801" x2="38.6096" y2="43.1397">
	<stop  offset="0" style="stop-color:#D7D7D7"/>
	<stop  offset="1" style="stop-color:#969696"/>
</linearGradient>
<path style="fill:url(#SVGID_00000150794588519071397460000010216585053116023992_);stroke:#323232;stroke-linejoin:round;" d="
	M40.5,30.5l-12.9-4.2c-2.6,3.4-3.3,10.2-1.1,11.2l4,3c1,1,3.9,2.8,7,3c0.6,0,3-1.4,3-2V30.5z"/>
<linearGradient id="SVGID_00000124139966763760778810000016203351315063061400_" gradientUnits="userSpaceOnUse" x1="19.8184" y1="42.0409" x2="21.3884" y2="44.7709">
	<stop  offset="0" style="stop-color:#3287AF"/>
	<stop  offset="1" style="stop-color:#285A78"/>
</linearGradient>
<circle style="fill:url(#SVGID_00000124139966763760778810000016203351315063061400_);" cx="20.6" cy="43.4" r="1.6"/>
<circle class="st5" cx="20.6" cy="36.4" r="1.6"/>
<linearGradient id="SVGID_00000150097668886002669280000016468102357055092153_" gradientUnits="userSpaceOnUse" x1="19.8184" y1="49.0409" x2="21.3884" y2="51.7709">
	<stop  offset="0" style="stop-color:#3287AF"/>
	<stop  offset="1" style="stop-color:#285A78"/>
</linearGradient>
<circle style="fill:url(#SVGID_00000150097668886002669280000016468102357055092153_);" cx="20.6" cy="50.4" r="1.6"/>
<linearGradient id="SVGID_00000075884233917125927220000003923765854158693799_" gradientUnits="userSpaceOnUse" x1="8.8005" y1="39.2097" x2="10.3705" y2="41.9397">
	<stop  offset="0" style="stop-color:#3287AF"/>
	<stop  offset="1" style="stop-color:#285A78"/>
</linearGradient>
<circle style="fill:url(#SVGID_00000075884233917125927220000003923765854158693799_);" cx="9.6" cy="40.6" r="1.6"/>
<circle class="st5" cx="9.6" cy="33.4" r="1.6"/>
<circle class="st5" cx="9.6" cy="47.4" r="1.6"/>
<linearGradient id="SVGID_00000121242251410232165450000000187002287158796459_" gradientUnits="userSpaceOnUse" x1="13.8184" y1="42.0409" x2="15.3884" y2="44.7709">
	<stop  offset="0" style="stop-color:#3287AF"/>
	<stop  offset="1" style="stop-color:#285A78"/>
</linearGradient>
<circle style="fill:url(#SVGID_00000121242251410232165450000000187002287158796459_);" cx="14.6" cy="43.4" r="1.6"/>
<circle class="st5" cx="14.6" cy="36.4" r="1.6"/>
<circle class="st5" cx="14.6" cy="50.4" r="1.6"/>
<circle class="st5" cx="31.6" cy="47.4" r="1.6"/>
<circle class="st5" cx="36.6" cy="50.4" r="1.6"/>
<circle class="st9" cx="31.6" cy="40.6" r="1.6"/>
<circle class="st9" cx="36.6" cy="43.4" r="1.6"/>
<linearGradient id="SVGID_00000057144017503832226680000012632693948618262708_" gradientUnits="userSpaceOnUse" x1="24.6116" y1="39.2291" x2="26.1816" y2="41.9591">
	<stop  offset="0" style="stop-color:#3287AF"/>
	<stop  offset="1" style="stop-color:#285A78"/>
</linearGradient>
<circle style="fill:url(#SVGID_00000057144017503832226680000012632693948618262708_);" cx="25.4" cy="40.6" r="1.6"/>
<linearGradient id="SVGID_00000122718404697711506560000017380774963534904192_" gradientUnits="userSpaceOnUse" x1="24.6116" y1="32.2291" x2="26.1816" y2="34.9591">
	<stop  offset="0" style="stop-color:#3287AF"/>
	<stop  offset="1" style="stop-color:#285A78"/>
</linearGradient>
<circle style="fill:url(#SVGID_00000122718404697711506560000017380774963534904192_);" cx="25.4" cy="33.6" r="1.6"/>
<linearGradient id="SVGID_00000126294229956675903810000010767198801240249525_" gradientUnits="userSpaceOnUse" x1="24.6295" y1="46.0603" x2="26.1995" y2="48.7903">
	<stop  offset="0" style="stop-color:#3287AF"/>
	<stop  offset="1" style="stop-color:#285A78"/>
</linearGradient>
<circle style="fill:url(#SVGID_00000126294229956675903810000010767198801240249525_);" cx="25.4" cy="47.4" r="1.6"/>
<g>
	<path class="st13" d="M57.7,53c-0.8,0-1.6-0.3-2.2-0.9l-8.1-8.3L46,42.4c-2.4,1.7-5.3,2.6-8.2,2.6c-8,0-14.5-6.5-14.5-14.5
		S29.8,16,37.7,16s14.5,6.5,14.5,14.5c0,2.7-0.7,5.3-2.2,7.6l1.5,1.5l8.3,8.1c0.6,0.6,0.9,1.4,0.9,2.2s-0.3,1.6-0.9,2.2
		C59.3,52.7,58.5,53,57.7,53C57.7,53,57.7,53,57.7,53z M37.7,20c-5.8,0-10.5,4.7-10.5,10.5S32,41,37.7,41s10.5-4.7,10.5-10.5
		S43.5,20,37.7,20z"/>
	<path class="st13" d="M37.7,16.5c7.7,0,14,6.3,14,14c0,2.8-0.9,5.5-2.3,7.7l1.8,1.8l8.3,8.1c1,1,1,2.7,0,3.6
		c-0.5,0.5-1.2,0.7-1.8,0.7c-0.7,0-1.3-0.2-1.8-0.7l-8.1-8.3L46,41.8c-2.3,1.7-5.2,2.7-8.3,2.7c-7.7,0-14-6.3-14-14
		S30,16.5,37.7,16.5 M37.7,41.5c6.1,0,11-4.9,11-11s-4.9-11-11-11s-11,4.9-11,11S31.7,41.5,37.7,41.5 M37.7,15.5
		c-8.3,0-15,6.7-15,15s6.7,15,15,15c2.9,0,5.7-0.8,8.2-2.4l1.1,1.1l8.1,8.3c0.7,0.7,1.6,1,2.5,1c1,0,1.9-0.4,2.5-1
		c1.4-1.4,1.4-3.7,0-5L52,39.3L50.7,38c1.3-2.3,2-4.9,2-7.5C52.7,22.2,46,15.5,37.7,15.5C37.7,15.5,37.7,15.5,37.7,15.5z M37.7,40.5
		c-5.5,0-10-4.5-10-10s4.5-10,10-10s10,4.5,10,10S43.3,40.5,37.7,40.5L37.7,40.5z"/>
	
		<linearGradient id="SVGID_00000112600238810760845150000011942035398659108769_" gradientUnits="userSpaceOnUse" x1="47.95" y1="43.55" x2="52.08" y2="39.42">
		<stop  offset="4.000000e-02" style="stop-color:#A39F9F"/>
		<stop  offset="0.2" style="stop-color:#DDDDDD"/>
		<stop  offset="0.4" style="stop-color:#C6C6C5"/>
		<stop  offset="0.68" style="stop-color:#F5F5F5"/>
		<stop  offset="1" style="stop-color:#BEBEBE"/>
	</linearGradient>
	<path style="fill:url(#SVGID_00000112600238810760845150000011942035398659108769_);" d="M50,45l-3.5-3.5L50,38l3.5,3.5L50,45z"/>
	<polygon class="st15" points="50,43.3 47.7,41 47.2,41.5 50,44.3 52.8,41.5 52.3,41 	"/>
	<polygon class="st16" points="50,39.7 52.3,42 52.8,41.5 50,38.7 47.2,41.5 47.7,42 	"/>
	<path class="st17" d="M50.8,39.5L50,38.7l-2.8,2.8l1.2,1.2C49.3,41.7,50.1,40.7,50.8,39.5z"/>
	<circle class="st18" cx="38.5" cy="30.5" r="12.5"/>
	
		<linearGradient id="SVGID_00000128485529080468488420000012459825970239981717_" gradientUnits="userSpaceOnUse" x1="31.511" y1="18.3817" x2="45.489" y2="42.6183">
		<stop  offset="0" style="stop-color:#FFFFFF"/>
		<stop  offset="1" style="stop-color:#D2D2D2"/>
	</linearGradient>
	<path style="fill:url(#SVGID_00000128485529080468488420000012459825970239981717_);stroke:#787979;stroke-linejoin:round;" d="
		M38.5,16.5c-7.7,0-14,6.3-14,14s6.3,14,14,14s14-6.3,14-14S46.2,16.5,38.5,16.5z M38.5,41.5c-6.1,0-11-4.9-11-11s4.9-11,11-11
		s11,4.9,11,11S44.6,41.5,38.5,41.5z"/>
	<path class="st16" d="M46,31.9L46,31.9c-0.8-0.2-1.7,0.2-2.1,0.9c-0.6,1.1-1.5,2.1-2.7,2.7c-0.8,0.4-1.1,1.3-0.9,2.1l0,0
		c0.3,1.1,1.6,1.7,2.6,1.1c1.8-0.9,3.2-2.4,4.2-4.2C47.7,33.5,47.2,32.2,46,31.9z"/>
	<path class="st20" d="M29,30.7h3.6c0-3.6,2.9-6.5,6.5-6.5v-3.6C33.6,20.5,29,25.1,29,30.7z"/>
	
		<linearGradient id="SVGID_00000180328704510007162270000017973482850765920406_" gradientUnits="userSpaceOnUse" x1="32.2517" y1="19.673" x2="44.7483" y2="41.327">
		<stop  offset="0" style="stop-color:#000000"/>
		<stop  offset="1" style="stop-color:#FFFFFF"/>
	</linearGradient>
	<path style="opacity:0.3;fill:url(#SVGID_00000180328704510007162270000017973482850765920406_);enable-background:new    ;" d="
		M38.5,18C31.6,18,26,23.6,26,30.5S31.6,43,38.5,43S51,37.4,51,30.5S45.4,18,38.5,18z M38.5,42C32.2,42,27,36.8,27,30.5
		S32.2,19,38.5,19S50,24.2,50,30.5S44.8,42,38.5,42z"/>
	<path class="st22" d="M53.5,41.5l-3.3-3.3c1.5-2.2,2.3-4.8,2.3-7.7c0-7.7-6.3-14-14-14s-14,6.3-14,14s6.3,14,14,14
		c3.1,0,6-1,8.3-2.7L50,45L53.5,41.5z"/>
	
		<linearGradient id="SVGID_00000005249247968860178490000003409468517902905493_" gradientUnits="userSpaceOnUse" x1="51.3117" y1="40.3971" x2="58.5117" y2="52.8771">
		<stop  offset="0" style="stop-color:#8DD7F4"/>
		<stop  offset="1" style="stop-color:#386E8C"/>
	</linearGradient>
	<path style="fill:url(#SVGID_00000005249247968860178490000003409468517902905493_);" d="M60.3,48.1L52,40l-3.5,3.5l8.1,8.3
		c1,1,2.7,1,3.6,0S61.2,49.1,60.3,48.1z"/>
	<path class="st24" d="M60.3,48.1L52,40l-3.5,3.5l8.1,8.3c1,1,2.7,1,3.6,0S61.2,49.1,60.3,48.1z"/>
	<path class="st15" d="M59.9,50.4C59.5,50.8,59,51,58.5,51l0,0c-0.6,0-1.1-0.2-1.5-0.6L49.7,43l-0.5,0.5l7.8,7.9
		c0.4,0.4,0.9,0.6,1.5,0.6l0,0c0.6,0,1.1-0.2,1.5-0.6s0.6-0.9,0.6-1.5c0-0.2,0-0.3-0.1-0.5C60.3,49.8,60.2,50.2,59.9,50.4z"/>
	<path class="st16" d="M52,41.7l7.9,7.8c0.3,0.3,0.4,0.6,0.5,1c0-0.2,0.1-0.3,0.1-0.5c0-0.6-0.2-1.1-0.6-1.5L52,40.7l-2.8,2.8
		l0.5,0.5L52,41.7z"/>
	
		<linearGradient id="SVGID_00000173159543155854861850000001387531699355548825_" gradientUnits="userSpaceOnUse" x1="51.8241" y1="41.3129" x2="57.764" y2="51.6027">
		<stop  offset="0" style="stop-color:#8DD7F4"/>
		<stop  offset="0.26" style="stop-color:#8BD4F1"/>
		<stop  offset="0.44" style="stop-color:#83CBE8"/>
		<stop  offset="0.61" style="stop-color:#76BBD8"/>
		<stop  offset="0.76" style="stop-color:#64A4C2"/>
		<stop  offset="0.9" style="stop-color:#4D88A6"/>
		<stop  offset="1" style="stop-color:#386E8C"/>
	</linearGradient>
	<path style="fill:url(#SVGID_00000173159543155854861850000001387531699355548825_);" d="M59,49l-2-2l-5.5-5.5L50,43l7.5,7.5
		c0.5,0.5,0.6,0.5,1,0.5c0.6,0,1-0.4,1-1C59.5,49.7,59.2,49.2,59,49z"/>
</g>
</svg>
