<?xml version="1.0" encoding="UTF-8"?>
<svg xmlns="http://www.w3.org/2000/svg" xmlns:xlink="http://www.w3.org/1999/xlink" viewBox="0 0 64 64">
  <defs>
    <linearGradient id="linear-gradient" x1="20.37" y1="12.23" x2="42.63" y2="50.77" gradientUnits="userSpaceOnUse">
      <stop offset="0" stop-color="#8bd6f3"/>
      <stop offset="1" stop-color="#376e8c"/>
    </linearGradient>
    <linearGradient id="linear-gradient-2" x1="40.28" y1="36.1" x2="51.72" y2="55.9" gradientUnits="userSpaceOnUse">
      <stop offset="0" stop-color="#fff"/>
      <stop offset="1" stop-color="#d4d5d3"/>
    </linearGradient>
    <linearGradient id="linear-gradient-3" x1="46" y1="51" x2="46" y2="41.77" gradientUnits="userSpaceOnUse">
      <stop offset="0" stop-color="#fff"/>
      <stop offset="1" stop-color="#000"/>
    </linearGradient>
  </defs>
  <g id="Semicondutor_chip" data-name="Semicondutor chip">
    <path d="M56.5,26c.28,0,.5-.22.5-.5s-.22-.5-.5-.5h-7.5v-5h7.5c.28,0,.5-.22.5-.5s-.22-.5-.5-.5h-7.5v-1.86c0-1.73-1.41-3.14-3.14-3.14h-1.86v-7.5c0-.28-.22-.5-.5-.5s-.5.22-.5.5v7.5h-5v-7.5c0-.28-.22-.5-.5-.5s-.5.22-.5.5v7.5h-5v-7.5c0-.28-.22-.5-.5-.5s-.5.22-.5.5v7.5h-5v-7.5c0-.28-.22-.5-.5-.5s-.5.22-.5.5v7.5h-5v-7.5c0-.28-.22-.5-.5-.5s-.5.22-.5.5v7.5h-1.86c-1.73,0-3.14,1.41-3.14,3.14v1.86h-7.5c-.28,0-.5.22-.5.5s.22.5.5.5h7.5v5h-7.5c-.28,0-.5.22-.5.5s.22.5.5.5h7.5v5h-7.5c-.28,0-.5.22-.5.5s.22.5.5.5h7.5v5h-7.5c-.28,0-.5.22-.5.5s.22.5.5.5h7.5v5h-7.5c-.28,0-.5.22-.5.5s.22.5.5.5h7.5v1.86c0,1.73,1.41,3.14,3.14,3.14h1.86v7.5c0,.28.22.5.5.5s.5-.22.5-.5v-7.5h5v7.5c0,.28.22.5.5.5s.5-.22.5-.5v-7.5h5v7.5c0,.28.22.5.5.5s.5-.22.5-.5v-7.5h5v7.5c0,.28.22.5.5.5s.5-.22.5-.5v-7.5h5v7.5c0,.28.22.5.5.5s.5-.22.5-.5v-7.5h1.86c1.73,0,3.14-1.41,3.14-3.14v-1.86h7.5c.28,0,.5-.22.5-.5s-.22-.5-.5-.5h-7.5v-5h7.5c.28,0,.5-.22.5-.5s-.22-.5-.5-.5h-7.5v-5h7.5c.28,0,.5-.22.5-.5s-.22-.5-.5-.5h-7.5v-5h7.5Z" fill="#fff" opacity=".5" stroke="#fff" stroke-linejoin="round" stroke-width="2"/>
    <g>
      <path d="M19.5,17c-.28,0-.5-.22-.5-.5V6.5c0-.28.22-.5.5-.5s.5.22.5.5v10c0,.28-.22.5-.5.5Z" fill="#063755" stroke-width="0"/>
      <path d="M25.5,17c-.28,0-.5-.22-.5-.5V6.5c0-.28.22-.5.5-.5s.5.22.5.5v10c0,.28-.22.5-.5.5Z" fill="#063755" stroke-width="0"/>
      <path d="M31.5,17c-.28,0-.5-.22-.5-.5V6.5c0-.28.22-.5.5-.5s.5.22.5.5v10c0,.28-.22.5-.5.5Z" fill="#063755" stroke-width="0"/>
      <path d="M37.5,17c-.28,0-.5-.22-.5-.5V6.5c0-.28.22-.5.5-.5s.5.22.5.5v10c0,.28-.22.5-.5.5Z" fill="#063755" stroke-width="0"/>
      <path d="M43.5,17c-.28,0-.5-.22-.5-.5V6.5c0-.28.22-.5.5-.5s.5.22.5.5v10c0,.28-.22.5-.5.5Z" fill="#063755" stroke-width="0"/>
      <path d="M19.5,57c-.28,0-.5-.22-.5-.5v-10c0-.28.22-.5.5-.5s.5.22.5.5v10c0,.28-.22.5-.5.5Z" fill="#063755" stroke-width="0"/>
      <path d="M25.5,57c-.28,0-.5-.22-.5-.5v-10c0-.28.22-.5.5-.5s.5.22.5.5v10c0,.28-.22.5-.5.5Z" fill="#063755" stroke-width="0"/>
      <path d="M31.5,57c-.28,0-.5-.22-.5-.5v-10c0-.28.22-.5.5-.5s.5.22.5.5v10c0,.28-.22.5-.5.5Z" fill="#063755" stroke-width="0"/>
      <path d="M37.5,57c-.28,0-.5-.22-.5-.5v-10c0-.28.22-.5.5-.5s.5.22.5.5v10c0,.28-.22.5-.5.5Z" fill="#063755" stroke-width="0"/>
      <path d="M43.5,57c-.28,0-.5-.22-.5-.5v-10c0-.28.22-.5.5-.5s.5.22.5.5v10c0,.28-.22.5-.5.5Z" fill="#063755" stroke-width="0"/>
      <path d="M56.5,20h-10c-.28,0-.5-.22-.5-.5s.22-.5.5-.5h10c.28,0,.5.22.5.5s-.22.5-.5.5Z" fill="#063755" stroke-width="0"/>
      <path d="M56.5,26h-10c-.28,0-.5-.22-.5-.5s.22-.5.5-.5h10c.28,0,.5.22.5.5s-.22.5-.5.5Z" fill="#063755" stroke-width="0"/>
      <path d="M56.5,32h-10c-.28,0-.5-.22-.5-.5s.22-.5.5-.5h10c.28,0,.5.22.5.5s-.22.5-.5.5Z" fill="#063755" stroke-width="0"/>
      <path d="M56.5,38h-10c-.28,0-.5-.22-.5-.5s.22-.5.5-.5h10c.28,0,.5.22.5.5s-.22.5-.5.5Z" fill="#063755" stroke-width="0"/>
      <path d="M56.5,44h-10c-.28,0-.5-.22-.5-.5s.22-.5.5-.5h10c.28,0,.5.22.5.5s-.22.5-.5.5Z" fill="#063755" stroke-width="0"/>
      <path d="M16.5,20H6.5c-.28,0-.5-.22-.5-.5s.22-.5.5-.5h10c.28,0,.5.22.5.5s-.22.5-.5.5Z" fill="#063755" stroke-width="0"/>
      <path d="M16.5,26H6.5c-.28,0-.5-.22-.5-.5s.22-.5.5-.5h10c.28,0,.5.22.5.5s-.22.5-.5.5Z" fill="#063755" stroke-width="0"/>
      <path d="M16.5,32H6.5c-.28,0-.5-.22-.5-.5s.22-.5.5-.5h10c.28,0,.5.22.5.5s-.22.5-.5.5Z" fill="#063755" stroke-width="0"/>
      <path d="M16.5,38H6.5c-.28,0-.5-.22-.5-.5s.22-.5.5-.5h10c.28,0,.5.22.5.5s-.22.5-.5.5Z" fill="#063755" stroke-width="0"/>
      <path d="M16.5,44H6.5c-.28,0-.5-.22-.5-.5s.22-.5.5-.5h10c.28,0,.5.22.5.5s-.22.5-.5.5Z" fill="#063755" stroke-width="0"/>
      <rect x="14.5" y="14.5" width="34" height="34" rx="2.64" ry="2.64" fill="url(#linear-gradient)" stroke="#063755" stroke-linejoin="round"/>
      <polyline points="15 22.5 22.5 22.5 22.5 18.5 27.5 18.5 27.5 15" fill="none" stroke="#063755" stroke-linecap="round" stroke-linejoin="round"/>
      <polyline points="33.5 14.5 33.5 18.5 27.91 24.09" fill="none" stroke="#063755" stroke-linecap="round" stroke-linejoin="round"/>
      <polyline points="39.5 14.5 39.5 24.5 36.5 24.5 33.5 27.5 33.5 31.5 30.5 34.5 14.5 34.5" fill="none" stroke="#063755" stroke-linecap="round" stroke-linejoin="round"/>
      <polyline points="14.5 42.5 21.25 42.5 25.5 39.5 32.5 39.5" fill="none" stroke="#063755" stroke-linecap="round" stroke-linejoin="round"/>
      <polyline points="43.5 48.5 43.5 39.5 41.5 36.5 41.5 31.5" fill="none" stroke="#063755" stroke-linecap="round" stroke-linejoin="round"/>
      <circle cx="41.5" cy="29.5" r="2" fill="none" stroke="#063755" stroke-linecap="round" stroke-linejoin="round"/>
      <circle cx="26.5" cy="25.5" r="2" fill="none" stroke="#063755" stroke-linecap="round" stroke-linejoin="round"/>
      <circle cx="34.5" cy="39.5" r="2" fill="none" stroke="#063755" stroke-linecap="round" stroke-linejoin="round"/>
    </g>
  </g>
  <g id="Gear">
    <g>
      <g>
        <path d="M53.86,50.25c0,.3.05.59.16.87.11.28.28.54.52.77l.8.8c-.74,1.03-1.62,1.92-2.65,2.65l-.8-.8c-.23-.24-.49-.41-.77-.52-.28-.11-.57-.16-.87-.16-.31,0-.61.05-.89.16-.28.11-.53.27-.75.48-.22.21-.4.46-.53.75s-.2.61-.2.95v1.13c-.31.05-.63.09-.94.12-.31.03-.63.05-.94.05s-.63-.01-.94-.05c-.31-.03-.63-.07-.94-.12v-1.13c0-.34-.07-.66-.2-.95-.13-.29-.31-.54-.53-.75s-.47-.37-.76-.48c-.29-.11-.58-.16-.88-.16s-.59.05-.87.16c-.28.11-.54.28-.77.52l-.8.8c-1.03-.74-1.92-1.62-2.65-2.65l.8-.8c.23-.24.41-.49.52-.77.11-.28.16-.57.16-.87s-.06-.59-.16-.88-.27-.54-.48-.76c-.21-.22-.46-.39-.75-.53-.29-.13-.61-.2-.95-.2h-1.13c-.05-.31-.09-.63-.12-.94-.03-.31-.05-.63-.05-.94s.01-.63.05-.94c.03-.31.07-.63.12-.94h1.13c.34,0,.66-.07.95-.2.29-.13.54-.31.75-.53.21-.22.37-.47.48-.75.11-.28.16-.58.16-.89s-.06-.59-.16-.87-.28-.54-.52-.77l-.8-.8c.74-1.03,1.62-1.92,2.65-2.65l.8.8c.23.24.49.41.77.52.28.11.57.16.87.16s.59-.05.88-.16c.29-.11.54-.27.76-.48s.39-.46.53-.74c.13-.28.2-.6.2-.96v-1.13c.31-.05.63-.09.94-.12.31-.03.63-.05.94-.05s.63.02.94.05c.31.03.63.07.94.12v1.13c0,.36.07.69.2.97.13.29.31.54.53.74.22.2.47.36.75.47.28.11.58.16.89.16.28,0,.57-.05.86-.15.29-.1.55-.27.79-.5l.8-.82c1.03.74,1.92,1.62,2.65,2.65l-.8.8c-.23.24-.41.49-.52.77-.11.28-.16.57-.16.87,0,.31.05.61.16.89.11.28.27.53.48.75.21.22.46.39.74.53.28.13.6.2.96.2h1.13c.05.31.09.63.12.94.03.31.05.63.05.94s-.02.63-.05.94c-.03.31-.07.63-.12.94h-1.13c-.36,0-.68.07-.96.2-.28.13-.53.31-.74.53-.21.22-.37.47-.48.76-.11.29-.16.58-.16.88ZM46,49.5c.48,0,.93-.09,1.36-.28s.8-.44,1.11-.75c.32-.32.57-.69.75-1.11.18-.43.28-.88.28-1.36s-.09-.93-.28-1.36c-.19-.43-.44-.8-.75-1.11-.32-.32-.69-.57-1.11-.75s-.88-.28-1.36-.28-.93.09-1.36.28c-.43.19-.8.44-1.11.75-.32.32-.57.69-.75,1.11-.18.43-.28.88-.28,1.36s.09.93.28,1.36c.19.43.44.8.75,1.11.32.32.69.57,1.11.75.43.19.88.28,1.36.28Z" fill="#fff" opacity=".7" stroke="#fff" stroke-linejoin="round" stroke-width="3"/>
        <path d="M53.86,50.25c0,.3.05.59.16.87.11.28.28.54.52.77l.8.8c-.74,1.03-1.62,1.92-2.65,2.65l-.8-.8c-.23-.24-.49-.41-.77-.52-.28-.11-.57-.16-.87-.16-.31,0-.61.05-.89.16-.28.11-.53.27-.75.48-.22.21-.4.46-.53.75s-.2.61-.2.95v1.13c-.31.05-.63.09-.94.12-.31.03-.63.05-.94.05s-.63-.01-.94-.05c-.31-.03-.63-.07-.94-.12v-1.13c0-.34-.07-.66-.2-.95-.13-.29-.31-.54-.53-.75s-.47-.37-.76-.48c-.29-.11-.58-.16-.88-.16s-.59.05-.87.16c-.28.11-.54.28-.77.52l-.8.8c-1.03-.74-1.92-1.62-2.65-2.65l.8-.8c.23-.24.41-.49.52-.77.11-.28.16-.57.16-.87s-.06-.59-.16-.88-.27-.54-.48-.76c-.21-.22-.46-.39-.75-.53-.29-.13-.61-.2-.95-.2h-1.13c-.05-.31-.09-.63-.12-.94-.03-.31-.05-.63-.05-.94s.01-.63.05-.94c.03-.31.07-.63.12-.94h1.13c.34,0,.66-.07.95-.2.29-.13.54-.31.75-.53.21-.22.37-.47.48-.75.11-.28.16-.58.16-.89s-.06-.59-.16-.87-.28-.54-.52-.77l-.8-.8c.74-1.03,1.62-1.92,2.65-2.65l.8.8c.23.24.49.41.77.52.28.11.57.16.87.16s.59-.05.88-.16c.29-.11.54-.27.76-.48s.39-.46.53-.74c.13-.28.2-.6.2-.96v-1.13c.31-.05.63-.09.94-.12.31-.03.63-.05.94-.05s.63.02.94.05c.31.03.63.07.94.12v1.13c0,.36.07.69.2.97.13.29.31.54.53.74.22.2.47.36.75.47.28.11.58.16.89.16.28,0,.57-.05.86-.15.29-.1.55-.27.79-.5l.8-.82c1.03.74,1.92,1.62,2.65,2.65l-.8.8c-.23.24-.41.49-.52.77-.11.28-.16.57-.16.87,0,.31.05.61.16.89.11.28.27.53.48.75.21.22.46.39.74.53.28.13.6.2.96.2h1.13c.05.31.09.63.12.94.03.31.05.63.05.94s-.02.63-.05.94c-.03.31-.07.63-.12.94h-1.13c-.36,0-.68.07-.96.2-.28.13-.53.31-.74.53-.21.22-.37.47-.48.76-.11.29-.16.58-.16.88ZM46,49.5c.48,0,.93-.09,1.36-.28s.8-.44,1.11-.75c.32-.32.57-.69.75-1.11.18-.43.28-.88.28-1.36s-.09-.93-.28-1.36c-.19-.43-.44-.8-.75-1.11-.32-.32-.69-.57-1.11-.75s-.88-.28-1.36-.28-.93.09-1.36.28c-.43.19-.8.44-1.11.75-.32.32-.57.69-.75,1.11-.18.43-.28.88-.28,1.36s.09.93.28,1.36c.19.43.44.8.75,1.11.32.32.69.57,1.11.75.43.19.88.28,1.36.28Z" fill="url(#linear-gradient-2)" stroke="#323232" stroke-linejoin="round"/>
      </g>
      <g opacity=".2">
        <path d="M38.44,40.7c.07.18.12.37.15.56.03-.17.05-.34.05-.51,0-.36-.07-.71-.2-1.05-.13-.34-.34-.66-.63-.95l-.02-.02c-.16.18-.32.34-.47.53l.49.49c.28.28.49.6.63.95Z" fill="#000" stroke-width="0"/>
        <path d="M53.56,39.7c-.13.34-.2.69-.2,1.05,0,.17.02.34.05.51.03-.19.08-.38.15-.56.13-.34.34-.66.63-.94l.49-.49c-.15-.19-.31-.36-.47-.53l-.03.03c-.28.29-.5.6-.63.94Z" fill="#000" stroke-width="0"/>
        <path d="M56.96,45.89c-.02.16-.04.33-.06.49h-.69c-.44,0-.83.08-1.18.25-.34.16-.63.37-.89.63-.26.27-.46.58-.59.93-.13.34-.2.7-.2,1.06,0,.17.02.33.05.5.03-.19.08-.37.15-.55.13-.35.33-.66.59-.93.25-.26.55-.47.89-.63.34-.16.74-.25,1.18-.25h.69c.02-.16.04-.33.06-.49.03-.3.04-.59.04-.89,0-.17-.02-.33-.02-.5,0,.13,0,.26-.02.39Z" fill="#000" stroke-width="0"/>
        <path d="M38.44,49.19c.07.18.12.37.15.55.03-.16.05-.33.05-.5,0-.35-.07-.71-.2-1.06-.13-.35-.33-.67-.59-.93-.25-.26-.56-.48-.9-.63-.35-.16-.74-.25-1.16-.25h-.69c-.02-.16-.04-.33-.06-.49-.01-.13-.01-.26-.02-.39,0,.17-.02.33-.02.5,0,.3.01.59.04.89.02.16.04.33.06.49h.69c.42,0,.81.08,1.16.25.35.16.65.37.9.63.26.27.46.58.59.93Z" fill="#000" stroke-width="0"/>
        <path d="M52.74,53.68l-.49-.49c-.28-.29-.6-.5-.95-.63-.69-.27-1.47-.26-2.12,0-.34.13-.65.33-.92.59-.26.26-.48.56-.64.9-.16.35-.25.74-.25,1.16v.69c-.16.02-.33.04-.49.05-.59.06-1.18.06-1.78,0-.16-.02-.32-.03-.49-.05v-.69c0-.41-.08-.8-.25-1.16-.16-.34-.37-.65-.64-.9-.27-.26-.58-.46-.93-.59-.69-.26-1.44-.26-2.11,0-.35.13-.67.35-.95.63l-.49.49c-.54-.42-1.02-.9-1.48-1.41l-.47.47c.56.73,1.22,1.38,1.95,1.95l.49-.49c.28-.28.6-.5.95-.63.67-.26,1.42-.26,2.11,0,.35.13.66.33.93.59.26.26.48.56.64.9.16.36.25.75.25,1.16v.69c.16.02.32.04.49.05.6.06,1.18.06,1.78,0,.16-.02.33-.03.49-.05v-.69c0-.42.08-.81.25-1.16.16-.34.37-.65.64-.9.27-.26.58-.46.92-.59.66-.26,1.43-.27,2.12,0,.34.13.66.34.95.63l.49.49c.73-.56,1.38-1.22,1.95-1.95l-.47-.47c-.45.51-.94.99-1.48,1.41Z" fill="#000" stroke-width="0"/>
      </g>
      <g opacity=".3">
        <path d="M53.56,42.82c-.07-.18-.12-.37-.15-.56-.03.16-.05.33-.05.49,0,.38.07.74.2,1.07.13.34.33.65.59.92.25.26.55.47.89.63.35.16.74.25,1.18.25h.69c.02.16.04.33.06.49.01.13.01.26.02.39,0-.17.02-.33.02-.5,0-.3-.01-.59-.04-.89-.02-.16-.04-.33-.06-.49h-.69c-.43,0-.83-.08-1.18-.25-.34-.16-.63-.37-.89-.63-.26-.27-.46-.58-.59-.92Z" fill="#fff" stroke-width="0"/>
        <path d="M39.26,38.32l.49.49c.28.29.6.5.95.63.68.26,1.42.26,2.11,0,.35-.13.67-.33.94-.59.26-.25.47-.55.63-.88.17-.35.25-.75.25-1.18v-.69c.16-.02.33-.04.49-.05.59-.06,1.18-.06,1.78,0,.16.01.32.03.49.05v.69c0,.43.08.83.25,1.18.16.35.38.65.64.9.27.25.57.44.91.57.64.25,1.38.27,2.1.02.36-.13.69-.33.98-.63l.49-.51c.54.42,1.02.9,1.47,1.41l.47-.47c-.56-.73-1.21-1.38-1.94-1.94l-.49.51c-.29.29-.62.5-.98.63-.71.25-1.45.23-2.1-.02-.34-.13-.64-.32-.91-.57-.26-.24-.48-.54-.64-.9-.16-.35-.25-.75-.25-1.18v-.69c-.16-.02-.32-.04-.49-.05-.6-.06-1.19-.06-1.78,0-.17.02-.33.03-.49.05v.69c0,.43-.08.83-.25,1.18-.16.33-.37.63-.63.88-.27.26-.58.46-.94.59-.68.26-1.43.26-2.11,0-.34-.13-.66-.34-.95-.63l-.49-.49c-.73.56-1.38,1.22-1.95,1.95l.47.47c.45-.51.94-.99,1.48-1.41Z" fill="#fff" stroke-width="0"/>
        <path d="M53.56,51.3c-.07-.18-.12-.36-.15-.55-.03.17-.05.33-.05.5,0,.36.07.71.2,1.05.13.34.34.66.63.95l.02.02c.16-.18.32-.34.47-.53l-.49-.49c-.29-.29-.5-.6-.63-.95Z" fill="#fff" stroke-width="0"/>
        <path d="M38.44,52.3c.13-.34.2-.69.2-1.05,0-.17-.02-.34-.05-.5-.03.19-.08.37-.15.55-.13.35-.34.66-.63.95l-.49.49c.14.19.31.36.47.53l.03-.03c.28-.28.49-.6.63-.95Z" fill="#fff" stroke-width="0"/>
        <path d="M35.04,46.11c.02-.16.04-.33.06-.49h.69c.41,0,.8-.08,1.16-.25.35-.16.65-.37.9-.63.26-.27.45-.58.59-.92.13-.34.2-.7.2-1.07,0-.17-.02-.33-.05-.49-.03.19-.08.38-.15.56-.13.34-.33.65-.59.92-.25.26-.56.48-.9.63-.36.16-.75.25-1.16.25h-.69c-.02.16-.04.33-.06.49-.03.3-.04.59-.04.89,0,.17.02.33.02.5,0-.13,0-.26.02-.39Z" fill="#fff" stroke-width="0"/>
      </g>
      <path d="M46,41c-2.76,0-5,2.24-5,5s2.24,5,5,5,5-2.24,5-5-2.24-5-5-5ZM46,50c-2.21,0-4-1.79-4-4s1.79-4,4-4,4,1.79,4,4-1.79,4-4,4Z" fill="url(#linear-gradient-3)" opacity=".3" stroke-width="0"/>
    </g>
  </g>
</svg>