<?xml version="1.0" encoding="UTF-8"?><svg xmlns="http://www.w3.org/2000/svg" xmlns:xlink="http://www.w3.org/1999/xlink" viewBox="0 0 64 64"><defs><style>.cls-1{fill:#797979;}.cls-2{fill:url(#linear-gradient-2);}.cls-3,.cls-4{fill:#fff;}.cls-4{opacity:.3;}.cls-5{isolation:isolate;}.cls-6{fill:#323232;}.cls-7{fill:#003755;}.cls-8{fill:url(#top_white);stroke:#797979;stroke-linecap:round;stroke-linejoin:round;stroke-width:.72px;}.cls-9{fill:url(#radial-gradient-2);}.cls-9,.cls-10,.cls-11{stroke:#323232;stroke-miterlimit:10;stroke-width:1.25px;}.cls-12{fill:url(#radial-gradient);}.cls-13{fill:#f1f0f0;}.cls-10{fill:url(#radial-gradient-4);}.cls-14{clip-path:url(#clippath);}.cls-15{fill:none;}.cls-16{fill:url(#white_left);}.cls-11{fill:url(#radial-gradient-3);}.cls-17{fill:url(#linear-gradient-3);}.cls-18{fill:url(#linear-gradient);}.cls-19{fill:url(#linear-gradient-4);}</style><clipPath id="clippath"><path class="cls-15" d="m29.24,9.09H12.24v24h17V9.09Z"/></clipPath><radialGradient id="radial-gradient" cx="19.65" cy="14.93" fx="19.65" fy="14.93" r="5.6" gradientUnits="userSpaceOnUse"><stop offset="0" stop-color="#8cd7f5"/><stop offset="1" stop-color="#376e8c"/></radialGradient><linearGradient id="linear-gradient" x1="16.16" y1="22.46" x2="23.59" y2="35.33" gradientUnits="userSpaceOnUse"><stop offset="0" stop-color="#8cd7f5"/><stop offset="1" stop-color="#376e8c"/></linearGradient><radialGradient id="radial-gradient-2" cx="49.45" cy="35.8" fx="49.45" fy="35.8" r="6.34" gradientUnits="userSpaceOnUse"><stop offset="0" stop-color="#d7d7d7"/><stop offset="1" stop-color="#969696"/></radialGradient><linearGradient id="linear-gradient-2" x1="45.77" y1="44.49" x2="53.86" y2="58.5" gradientUnits="userSpaceOnUse"><stop offset="0" stop-color="#d7d7d7"/><stop offset="1" stop-color="#969696"/></linearGradient><radialGradient id="radial-gradient-3" cx="31.45" cy="35.8" fx="31.45" fy="35.8" r="6.34" gradientUnits="userSpaceOnUse"><stop offset="0" stop-color="#fff"/><stop offset="1" stop-color="#d4d5d3"/></radialGradient><linearGradient id="linear-gradient-3" x1="27.77" y1="44.49" x2="35.86" y2="58.5" gradientUnits="userSpaceOnUse"><stop offset="0" stop-color="#fff"/><stop offset="1" stop-color="#d4d5d3"/></linearGradient><radialGradient id="radial-gradient-4" cx="13.45" fx="13.45" xlink:href="#radial-gradient-2"/><linearGradient id="linear-gradient-4" x1="9.77" y1="44.49" x2="17.86" y2="58.5" xlink:href="#linear-gradient-2"/><linearGradient id="white_left" x1="35.32" y1="22.62" x2="42.82" y2="22.62" gradientUnits="userSpaceOnUse"><stop offset="0" stop-color="#f5f5f5"/><stop offset="1" stop-color="#bebebe"/></linearGradient><linearGradient id="top_white" x1="35.32" y1="17.1" x2="38.57" y2="17.1" gradientUnits="userSpaceOnUse"><stop offset="0" stop-color="#fff"/><stop offset="1" stop-color="#f0f0f0"/></linearGradient></defs><g id="Layer_9"><rect id="cadre_64" class="cls-15" x="-.76" y="-.91" width="64" height="64"/></g><g id="ECRAN_copy"><path class="cls-7" d="m55.39,6.11H9.08c-1.57,0-2.83,1.27-2.83,2.83v24.32c0,1.57,1.27,2.83,2.83,2.83h46.31c1.57,0,2.83-1.27,2.83-2.83V8.94c0-1.57-1.27-2.83-2.83-2.83Z"/><path class="cls-3" d="m53.95,8.11H10.51c-1.57,0-2.27.7-2.27,2.27v21.45c0,1.57.7,2.27,2.27,2.27h43.44c1.57,0,2.27-.7,2.27-2.27V10.38c0-1.57-.7-2.27-2.27-2.27Z"/></g><g id="PROFS_Ecran"><g class="cls-14"><g id="people_ok"><path class="cls-12" d="m20.24,21.04c-2.48,0-4.5-2.02-4.5-4.5s2.02-4.5,4.5-4.5,4.5,2.02,4.5,4.5-2.02,4.5-4.5,4.5Z"/><path class="cls-7" d="m20.24,12.54c2.21,0,4,1.79,4,4s-1.79,4-4,4-4-1.79-4-4,1.79-4,4-4m0-1c-2.76,0-5,2.24-5,5s2.24,5,5,5,5-2.24,5-5-2.24-5-5-5h0Z"/><path class="cls-18" d="m20.22,34.49c-4.29,0-6.37-.71-6.48-1.08v-6.3c0-3.27,2.94-5.93,6.56-5.93s6.43,2.6,6.43,5.93v6.31c0,.21-1.16,1.07-6.5,1.07Z"/><path class="cls-7" d="m20.29,21.68c3.32,0,5.93,2.38,5.93,5.43v6.13c-.4.26-2,.75-6,.75-3.31,0-5.42-.45-5.98-.79v-6.09c0-2.99,2.72-5.43,6.05-5.43m0-1c-4,0-7.05,2.97-7.05,6.43v6.31c0,1.04,3.41,1.57,6.98,1.57,4.14,0,7-.53,7-1.57v-6.31c0-3.46-2.93-6.43-6.93-6.43h0Z"/><g id="highlight_bleue"><path id="B" class="cls-4" d="m25.01,33.65v-7.28c0-2.12-2.14-4.26-3.57-4.26,0,0,2.14,1.43,2.14,4.26v7.55c.51-.07,1-.19,1.43-.28Z"/><path id="H" class="cls-4" d="m22.24,14.12c.38.77.49,1.49.23,1.62-.26.13-.77-.39-1.16-1.16-.38-.77-.49-1.49-.23-1.62.26-.13.77.39,1.16,1.16Z"/></g></g></g></g><g id="ELEVES_copy_2"><g id="_ELEVE_03_ok_"><path class="cls-9" d="m55.92,37.42c0-3.13-2.54-5.66-5.67-5.66s-5.66,2.54-5.66,5.66,2.54,5.66,5.66,5.66,5.67-2.54,5.67-5.66Z"/><path class="cls-2" d="m50.26,57.44c-4.77,0-7.21-.81-7.4-1.22v-6.44c0-3.66,3.32-6.64,7.4-6.64s7.31,2.98,7.31,6.64v6.47c0,.19-1.27,1.18-7.31,1.18Z"/><path class="cls-6" d="m50.26,43.77c3.69,0,6.69,2.7,6.69,6.01v6.2c-.51.29-2.34.83-6.69.83-3.66,0-6.06-.49-6.77-.88v-6.15c0-3.31,3.04-6.01,6.77-6.01m0-1.25c-4.53,0-8.02,3.34-8.02,7.26v6.47c0,1.18,3.97,1.81,8.02,1.81,4.69,0,7.94-.63,7.94-1.81v-6.47c0-3.92-3.41-7.26-7.94-7.26h0Z"/><g id="highlight"><path id="B-2" class="cls-4" d="m55.77,56.37v-7.42c0-2.4-2.43-4.83-4.05-4.83,0,0,2.43,1.62,2.43,4.83v7.74c.43-.04,1.11-.14,1.62-.31Z"/><path id="H-2" class="cls-4" d="m52.68,35.11c.43.87.55,1.69.26,1.83-.29.15-.88-.44-1.31-1.31-.43-.87-.55-1.69-.26-1.83.29-.15.88.44,1.31,1.31Z"/></g></g><g id="_ELEVE_02_ok_"><path class="cls-11" d="m37.92,37.42c0-3.13-2.54-5.66-5.67-5.66s-5.66,2.54-5.66,5.66,2.54,5.66,5.66,5.66,5.67-2.54,5.67-5.66Z"/><path class="cls-17" d="m32.26,57.44c-4.77,0-7.21-.81-7.4-1.22v-6.44c0-3.66,3.32-6.64,7.4-6.64s7.31,2.98,7.31,6.64v6.47c0,.19-1.27,1.18-7.31,1.18Z"/><path class="cls-6" d="m32.26,43.77c3.69,0,6.69,2.7,6.69,6.01v6.2c-.51.29-2.34.83-6.69.83-3.66,0-6.06-.49-6.77-.88v-6.15c0-3.31,3.04-6.01,6.77-6.01m0-1.25c-4.53,0-8.02,3.34-8.02,7.26v6.47c0,1.18,3.97,1.81,8.02,1.81,4.69,0,7.94-.63,7.94-1.81v-6.47c0-3.92-3.41-7.26-7.94-7.26h0Z"/><g id="highlight-2"><path id="B-3" class="cls-4" d="m37.77,56.37v-7.42c0-2.4-2.43-4.83-4.05-4.83,0,0,2.43,1.62,2.43,4.83v7.74c.43-.04,1.11-.14,1.62-.31Z"/><path id="H-3" class="cls-4" d="m34.68,35.11c.43.87.55,1.69.26,1.83-.29.15-.88-.44-1.31-1.31-.43-.87-.55-1.69-.26-1.83.29-.15.88.44,1.31,1.31Z"/></g></g><g id="_ELEVE_01_ok_"><path class="cls-10" d="m19.92,37.42c0-3.13-2.54-5.66-5.67-5.66s-5.66,2.54-5.66,5.66,2.54,5.66,5.66,5.66,5.67-2.54,5.67-5.66Z"/><path class="cls-19" d="m14.26,57.44c-4.77,0-7.21-.81-7.4-1.22v-6.44c0-3.66,3.32-6.64,7.4-6.64s7.31,2.98,7.31,6.64v6.47c0,.19-1.27,1.18-7.31,1.18Z"/><path class="cls-6" d="m14.26,43.77c3.69,0,6.69,2.7,6.69,6.01v6.2c-.51.29-2.34.83-6.69.83-3.66,0-6.06-.49-6.77-.88v-6.15c0-3.31,3.04-6.01,6.77-6.01m0-1.25c-4.53,0-8.02,3.34-8.02,7.26v6.47c0,1.18,3.97,1.81,8.02,1.81,4.69,0,7.94-.63,7.94-1.81v-6.47c0-3.92-3.41-7.26-7.94-7.26h0Z"/><g id="highlight-3"><path id="B-4" class="cls-4" d="m19.77,56.37v-7.42c0-2.4-2.43-4.83-4.05-4.83,0,0,2.43,1.62,2.43,4.83v7.74c.43-.04,1.11-.14,1.62-.31Z"/><path id="H-4" class="cls-4" d="m16.68,35.11c.43.87.55,1.69.26,1.83-.29.15-.88-.44-1.31-1.31-.43-.87-.55-1.69-.26-1.83.29-.15.88.44,1.31,1.31Z"/></g></g></g><g id="Layer_6"><path class="cls-1" d="m42.52,12.43l3.63,1.82v4.19l4,1.62v4.48l-7.33,4.53-7.5-4.01v-8.87l7.2-3.75m0-1.08c-.17,0-.34.04-.5.12l-7.2,3.75c-.36.19-.58.56-.58.96v8.87c0,.4.22.76.57.95l7.5,4.01c.16.09.33.13.51.13.2,0,.39-.05.57-.16l7.33-4.53c.32-.2.51-.54.51-.92v-4.48c0-.44-.27-.84-.68-1l-3.32-1.34v-3.46c0-.41-.23-.78-.6-.97l-3.63-1.82c-.15-.08-.32-.11-.48-.11h0Z"/><g class="cls-5"><polygon class="cls-1" points="42.82 24.54 50.15 20.05 50.15 24.53 42.82 29.06 42.82 24.54"/><polygon class="cls-13" points="38.56 22.75 46.15 18.44 50.15 20.05 42.82 24.54 38.56 22.75"/><polygon class="cls-1" points="38.57 18.02 46.15 14.25 46.15 18.44 38.56 22.75 38.57 18.02"/><polygon class="cls-13" points="35.32 16.18 42.52 12.43 46.15 14.25 38.57 18.02 35.32 16.18"/><polygon class="cls-16" points="38.57 18.02 38.56 22.75 42.82 24.54 42.82 29.06 35.32 25.05 35.32 16.18 38.57 18.02"/></g><line class="cls-8" x1="38.57" y1="18.02" x2="35.32" y2="16.18"/><polygon class="cls-15" points="38.56 22.75 42.82 24.54 50.15 20.05 46.15 18.44 38.56 22.75"/></g></svg>