<?xml version="1.0" encoding="UTF-8"?>
<svg id="j" data-name="Calque 1" xmlns="http://www.w3.org/2000/svg" xmlns:xlink="http://www.w3.org/1999/xlink" viewBox="0 0 64 64">
  <defs>
    <linearGradient id="a" x1="29" y1="54.28" x2="34.44" y2="54.28" gradientUnits="userSpaceOnUse">
      <stop offset="0" stop-color="#464646"/>
      <stop offset="1" stop-color="#141414"/>
    </linearGradient>
    <linearGradient id="d" x1="21.85" y1="14.07" x2="39.91" y2="45.35" gradientUnits="userSpaceOnUse">
      <stop offset="0" stop-color="#d7d7d7"/>
      <stop offset="1" stop-color="#969696"/>
    </linearGradient>
    <linearGradient id="h" x1="23.46" y1="15.81" x2="41.1" y2="46.36" gradientUnits="userSpaceOnUse">
      <stop offset="0" stop-color="#fff"/>
      <stop offset="1" stop-color="#d2d2d2"/>
    </linearGradient>
    <linearGradient id="k" x1="20.63" y1="12.31" x2="43.37" y2="51.69" gradientUnits="userSpaceOnUse">
      <stop offset="0" stop-color="#3287af"/>
      <stop offset="1" stop-color="#285a78"/>
    </linearGradient>
    <linearGradient id="l" data-name="Dégradé sans nom 12" x1="35.64" y1="13.63" x2="13.92" y2="46.57" gradientUnits="userSpaceOnUse">
      <stop offset="0" stop-color="#fff" stop-opacity="0"/>
      <stop offset=".01" stop-color="#fff" stop-opacity=".05"/>
      <stop offset=".07" stop-color="#fff" stop-opacity=".27"/>
      <stop offset=".13" stop-color="#fff" stop-opacity=".47"/>
      <stop offset=".18" stop-color="#fff" stop-opacity=".63"/>
      <stop offset=".24" stop-color="#fff" stop-opacity=".76"/>
      <stop offset=".3" stop-color="#fff" stop-opacity=".87"/>
      <stop offset=".36" stop-color="#fff" stop-opacity=".94"/>
      <stop offset=".42" stop-color="#fff" stop-opacity=".99"/>
      <stop offset=".49" stop-color="#fff"/>
      <stop offset=".54" stop-color="#fff" stop-opacity=".98"/>
      <stop offset=".61" stop-color="#fff" stop-opacity=".93"/>
      <stop offset=".68" stop-color="#fff" stop-opacity=".83"/>
      <stop offset=".75" stop-color="#fff" stop-opacity=".7"/>
      <stop offset=".82" stop-color="#fff" stop-opacity=".54"/>
      <stop offset=".89" stop-color="#fff" stop-opacity=".33"/>
      <stop offset=".97" stop-color="#fff" stop-opacity=".1"/>
      <stop offset="1" stop-color="#fff" stop-opacity="0"/>
    </linearGradient>
    <linearGradient id="m" data-name="Dégradé sans nom 4" x1="49.16" y1="31.4" x2="54.36" y2="36.6" gradientUnits="userSpaceOnUse">
      <stop offset=".12" stop-color="#aaa"/>
      <stop offset=".93" stop-color="#5a5a5a"/>
    </linearGradient>
    <linearGradient id="n" data-name="Dégradé sans nom 3" x1="48.2" y1="32.23" x2="53.79" y2="37.99" gradientUnits="userSpaceOnUse">
      <stop offset=".11" stop-color="#f5f5f5"/>
      <stop offset=".83" stop-color="#bebebe"/>
    </linearGradient>
    <linearGradient id="o" data-name="Dégradé sans nom 2" x1="31.07" y1="48.7" x2="36.21" y2="54.91" gradientUnits="userSpaceOnUse">
      <stop offset=".28" stop-color="#fff"/>
      <stop offset=".8" stop-color="#d4d5d3"/>
    </linearGradient>
    <linearGradient id="p" x1="40.44" y1="39.91" x2="44.64" y2="44.44" gradientUnits="userSpaceOnUse">
      <stop offset="0" stop-color="#8cd7f5"/>
      <stop offset="1" stop-color="#376e8c"/>
    </linearGradient>
  </defs>
  <path d="M50.9,46.19l-15.95,9.01c-1.83,1.04-4.07,1.04-5.91,0l-15.95-9.01c-1.92-1.08-3.1-3.1-3.1-5.29v-17.79c0-2.19,1.18-4.21,3.1-5.29l15.95-9.01c1.83-1.04,4.07-1.04,5.91,0l15.95,9.01c1.92,1.08,3.1,3.1,3.1,5.29v17.79c0,2.19-1.18,4.21-3.1,5.29Z" fill="none" stroke="url(#k)" stroke-miterlimit="10" stroke-width="2"/>
  <path d="M32,10.02c-.68,0-1.36.17-1.97.51l-15.95,9.01c-1.29.73-2.08,2.09-2.08,3.55v17.79c0,1.46.8,2.82,2.08,3.55l15.95,9.01c1.21.69,2.72.69,3.94,0l15.95-9.01c1.29-.73,2.08-2.09,2.08-3.55v-17.79c0-1.46-.8-2.82-2.08-3.55l-15.95-9.01c-.61-.34-1.29-.51-1.97-.51Z" fill="#fff" opacity=".3"/>
  <g>
    <path d="M49.12,12.67v-.02s-2.5-1.49-2.5-1.49h-.01c-.63-.36-1.42-.5-2.29-.3l-27.73,6.43c-1.7.39-3.1,2.15-3.1,3.9v26.1c0,.97.33,1.75.86,2.28v.02s1.99,2.02,1.99,2.02h.02c.73.72,1.85.98,3.11.55l28.32-9.71c1.49-.51,2.7-2.21,2.7-3.78V15.26c0-1.18-.54-2.1-1.38-2.6Z" fill="#fff" opacity=".75" stroke="#fff" stroke-linejoin="round" stroke-width="3"/>
    <path d="M49.12,12.64l-2.5-1.49h-.01c-.63-.36-1.42-.5-2.29-.3l-27.73,6.43c-1.7.39-3.1,2.15-3.1,3.9v26.1c0,.97.33,1.75.86,2.28v.02s1.99,2.02,1.99,2.02l29.87-9.99c1.96-.66,3.27-2.5,3.24-4.57l-.33-24.39Z" fill="url(#d)" stroke="#787878" stroke-linejoin="round"/>
    <path d="M50.5,15.26v23.38c0,1.57-1.22,3.27-2.7,3.78l-28.32,9.71c-2.19.75-3.97-.53-3.97-2.84v-26.61c0-1.75,1.4-3.51,3.11-3.9l28.22-6.45c2.02-.46,3.67.85,3.67,2.92Z" fill="url(#h)" stroke="#787878" stroke-linejoin="round"/>
    <g>
      <g>
        <path d="M21,42.03v6.32l-1.96.65h-.04v-6.97c0-.41.32-.84.71-.96h0c.71-.22,1.29.21,1.29.96Z" fill="#646464" opacity=".5"/>
        <path d="M24,38.26v9.09l-2,.67v-9.76c0-.41.32-.84.72-.96h0c.71-.21,1.28.22,1.28.96Z" fill="#646464" opacity=".5"/>
        <path d="M27,34.54v11.82l-2,.66v-12.48c0-.41.32-.85.72-.96h0c.7-.2,1.28.23,1.28.96Z" fill="#646464" opacity=".5"/>
        <path d="M30,39.28v6.08l-2,.67v-6.75c0-.41.32-.84.71-.96h0c.71-.22,1.29.21,1.29.96Z" fill="#646464" opacity=".5"/>
        <path d="M33,40.5v3.87l-2,.66v-4.53c0-.4.31-.83.7-.95h0c.72-.23,1.3.2,1.3.95Z" fill="#646464" opacity=".5"/>
      </g>
      <path d="M49,28l-7.02,3.18,2.8,1.53-1.71,3.42-3.59-1.99c-.24-.13-.52-.16-.78-.08-.26.08-.48.26-.6.51l-3.11,6.21v2.94l.92-.3,3.51-7.02,3.59,1.99c.24.13.52.16.78.08.26-.08.48-.26.6-.51l2.14-4.29,2.46,1.34v-7Z" fill="#646464" opacity=".5"/>
      <g>
        <path d="M18.5,32.5c1-2,2.75-8.61,5.25-9.25s2.75,6.88,5.25,6.25,3.5-9,3.5-9" fill="none" opacity=".5" stroke="#646464" stroke-miterlimit="10"/>
        <path d="M18.5,29c1-1,2-2.22,4.5-2.86s3.5,1.63,6,1,3.5-2.13,3.5-2.13" fill="none" opacity=".5" stroke="#646464" stroke-linecap="round" stroke-miterlimit="10"/>
      </g>
      <g>
        <path d="M48,20.71v.32c0,3.22-2.53,6.55-5.64,7.42l-.25.07s-.09.02-.13.03c-.48.12-.95.19-1.42.19-2.67,0-4.6-2.06-4.6-4.9v-.33c0-3.35,2.65-6.71,5.9-7.49l.12-.02v6.27l6.02-1.56Z" fill="#646464" opacity=".5"/>
        <path d="M49,19.71l-6.02,1.56v-6.27h.03c.45-.12.9-.17,1.33-.17,2.7,0,4.66,2.05,4.66,4.88Z" fill="#646464" opacity=".5"/>
      </g>
    </g>
    <path d="M17,50.3v-26.61c0-1.51,1.25-3.08,2.72-3.41l28.22-6.45c.23-.05.46-.08.68-.08.39,0,.75.09,1.08.25-.15-.29-.34-.55-.59-.75-.41-.33-.92-.5-1.48-.5-.22,0-.45.03-.68.08l-28.22,6.45c-1.47.34-2.72,1.9-2.72,3.41v26.61c0,.95.34,1.72.96,2.16.1.07.21.12.32.17-.18-.38-.28-.83-.28-1.33Z" fill="url(#l)"/>
    <path d="M49.12,12.67v-.02s-2.5-1.49-2.5-1.49h-.01c-.63-.36-1.42-.5-2.29-.3l-27.73,6.43c-1.7.39-3.1,2.15-3.1,3.9v26.1c0,.97.33,1.75.86,2.28v.02s1.99,2.02,1.99,2.02h.02c.73.72,1.85.98,3.11.55l28.32-9.71c1.49-.51,2.7-2.21,2.7-3.78V15.26c0-1.18-.54-2.1-1.38-2.6Z" fill="none" stroke="#323232" stroke-linejoin="round"/>
  </g>
  <g>
    <g opacity=".75">
      <path d="M29.5,57.5c-.27,0-.52-.1-.71-.29-.15-.14-.25-.42-.26-.47-.01-.05-.03-.11,0-.45,0-.02.02-.11.03-.13l3.5-9.5c.05-.13.13-.26.23-.36l16.26-16.26c.99-.99,2.31-1.54,3.71-1.54s2.72.55,3.71,1.54c2.04,2.04,2.04,5.37,0,7.41l-16.26,16.26c-.09.09-.2.16-.32.21-.02,0-9.58,3.53-9.58,3.53-.15.04-.23.05-.31.05Z" fill="#fff"/>
      <path d="M52.26,29c1.27,0,2.46.49,3.35,1.39,1.85,1.85,1.85,4.86,0,6.71l-16.26,16.26s-.11.09-.17.11c0,0,0,0,0,0l-9.53,3.51s-.09.02-.14.02c-.13,0-.26-.05-.35-.15-.06-.06-.13-.22-.13-.24,0-.04.01-.29.01-.29h0s0,0,0,0l3.5-9.5c.02-.07.06-.13.12-.18l16.26-16.26c.9-.9,2.09-1.39,3.35-1.39M52.26,28c-1.53,0-2.98.6-4.06,1.68l-16.26,16.26c-.15.15-.27.34-.35.55l-3.5,9.5c-.03.08-.05.17-.06.26-.03.32-.03.46.01.61,0,.01.12.43.39.7.28.28.66.44,1.06.44.12,0,.25-.02.38-.05.03,0,.07-.02.1-.03l9.53-3.51s.06-.03.09-.04c.17-.08.32-.18.45-.31l16.26-16.26c2.24-2.24,2.24-5.88,0-8.12-1.08-1.08-2.53-1.68-4.06-1.68h0Z" fill="#fff"/>
    </g>
    <g>
      <path d="M55.26,30.74c-1.66-1.66-4.34-1.66-6,0l-3.76,3.76,6,6,3.76-3.76c1.66-1.66,1.66-4.34,0-6Z" fill="url(#m)"/>
      <path d="M46.5,33.5l2-2c3.41.93,5.07,2.59,6,6,0,0-2,2-2,2l-6-6Z" fill="url(#n)" stroke="#787878" stroke-linejoin="round"/>
      <path d="M55.26,30.74c-1.66-1.66-4.34-1.66-6,0l-3.76,3.76,6,6,3.76-3.76c1.66-1.66,1.66-4.34,0-6Z" fill="none" stroke="#323232" stroke-linejoin="round"/>
      <polygon points="33 47 29.5 56.5 39 53 41 51 35 45 33 47" fill="url(#o)" stroke="#323232" stroke-linejoin="round"/>
      <path d="M34.44,55.21l-4.77,1.76h-.03s-.09.03-.14.03c-.13,0-.26-.05-.35-.15-.13-.13-.18-.32-.13-.49v-.03s1.77-4.77,1.77-4.77c.24-.01.47,0,.7.04.7.11,1.39.44,1.93.98s.87,1.23.98,1.93c.04.23.05.46.04.7Z" fill="url(#a)"/>
      <path d="M33,47c3.41.93,5.07,2.59,6,6l13.5-13.5c-.93-3.41-2.59-5.07-6-6l-13.5,13.5Z" fill="url(#p)" stroke="#003755" stroke-linejoin="round"/>
      <path d="M49,36l-12.1,12.01c-.64-.49-1.08-.69-1.9-1.01l12.04-11.96c.95.16,1.41.5,1.96.96Z" fill="#fff" opacity=".2"/>
    </g>
  </g>
</svg>