<?xml version="1.0" encoding="UTF-8"?>
<svg id="n" data-name="it 3" xmlns="http://www.w3.org/2000/svg" xmlns:xlink="http://www.w3.org/1999/xlink" viewBox="0 0 64 64">
  <defs>
    <linearGradient id="a" x1="29" y1="54.28" x2="34.44" y2="54.28" gradientUnits="userSpaceOnUse">
      <stop offset="0" stop-color="#464646"/>
      <stop offset="1" stop-color="#141414"/>
    </linearGradient>
    <linearGradient id="c" x1="39.32" y1="23.03" x2="47.35" y2="36.93" gradientUnits="userSpaceOnUse">
      <stop offset="0" stop-color="#d7d7d7"/>
      <stop offset="1" stop-color="#969696"/>
    </linearGradient>
    <linearGradient id="f" x1="13.42" y1="20.62" x2="30.09" y2="49.5" gradientUnits="userSpaceOnUse">
      <stop offset="0" stop-color="#f5f5f5"/>
      <stop offset="1" stop-color="#bebebe"/>
    </linearGradient>
    <linearGradient id="j" x1="30.84" y1="20.71" x2="45.2" y2="45.56" gradientUnits="userSpaceOnUse">
      <stop offset="0" stop-color="#fff"/>
      <stop offset="1" stop-color="#d2d2d2"/>
    </linearGradient>
    <linearGradient id="l" x1="32.93" y1="13.94" x2="41.07" y2="28.06" gradientUnits="userSpaceOnUse">
      <stop offset="0" stop-color="#fff"/>
      <stop offset="1" stop-color="#f0f0f0"/>
    </linearGradient>
    <linearGradient id="p" x1="20.63" y1="12.31" x2="43.37" y2="51.69" gradientUnits="userSpaceOnUse">
      <stop offset="0" stop-color="#3287af"/>
      <stop offset="1" stop-color="#285a78"/>
    </linearGradient>
    <linearGradient id="q" x1="43.94" y1="12.73" x2="45.7" y2="15.78" xlink:href="#c"/>
    <linearGradient id="r" data-name="Dégradé sans nom 21" x1="48.16" y1="29.68" x2="45.97" y2="29.73" gradientUnits="userSpaceOnUse">
      <stop offset="0" stop-color="#fff" stop-opacity=".4"/>
      <stop offset=".46" stop-color="#fff"/>
      <stop offset="1" stop-color="#fff" stop-opacity="0"/>
    </linearGradient>
    <linearGradient id="s" data-name="Dégradé sans nom 11" x1="41.52" y1="23.59" x2="42.8" y2="23.6" gradientUnits="userSpaceOnUse">
      <stop offset="0" stop-color="#000"/>
      <stop offset=".94" stop-color="#000" stop-opacity="0"/>
    </linearGradient>
    <linearGradient id="t" x1="19.34" y1="17.2" x2="30.66" y2="36.8" xlink:href="#l"/>
    <linearGradient id="u" x1="23.39" y1="16.91" x2="33.82" y2="34.97" xlink:href="#f"/>
    <linearGradient id="v" x1="26.83" y1="14.92" x2="38.17" y2="34.58" xlink:href="#l"/>
    <linearGradient id="w" x1="29.87" y1="15.71" x2="37.28" y2="28.54" xlink:href="#f"/>
    <linearGradient id="x" data-name="Dégradé sans nom 4" x1="49.16" y1="31.4" x2="54.36" y2="36.6" gradientUnits="userSpaceOnUse">
      <stop offset=".12" stop-color="#aaa"/>
      <stop offset=".93" stop-color="#5a5a5a"/>
    </linearGradient>
    <linearGradient id="y" data-name="Dégradé sans nom 3" x1="48.2" y1="32.23" x2="53.79" y2="37.99" gradientUnits="userSpaceOnUse">
      <stop offset=".11" stop-color="#f5f5f5"/>
      <stop offset=".83" stop-color="#bebebe"/>
    </linearGradient>
    <linearGradient id="z" data-name="Dégradé sans nom 2" x1="31.07" y1="48.7" x2="36.21" y2="54.91" gradientUnits="userSpaceOnUse">
      <stop offset=".28" stop-color="#fff"/>
      <stop offset=".8" stop-color="#d4d5d3"/>
    </linearGradient>
    <linearGradient id="aa" x1="40.44" y1="39.91" x2="44.64" y2="44.44" gradientUnits="userSpaceOnUse">
      <stop offset="0" stop-color="#8cd7f5"/>
      <stop offset="1" stop-color="#376e8c"/>
    </linearGradient>
  </defs>
  <g id="o" data-name="BKG">
    <path d="M32,10.02c-.68,0-1.36.17-1.97.51l-15.95,9.01c-1.29.73-2.08,2.09-2.08,3.55v17.79c0,1.46.8,2.82,2.08,3.55l15.95,9.01c1.21.69,2.72.69,3.94,0l15.95-9.01c1.29-.73,2.08-2.09,2.08-3.55v-17.79c0-1.46-.8-2.82-2.08-3.55l-15.95-9.01c-.61-.34-1.29-.51-1.97-.51Z" fill="#fff" opacity=".3"/>
    <path d="M50.9,46.19l-15.95,9.01c-1.83,1.04-4.07,1.04-5.91,0l-15.95-9.01c-1.92-1.08-3.1-3.1-3.1-5.29v-17.79c0-2.19,1.18-4.21,3.1-5.29l15.95-9.01c1.83-1.04,4.07-1.04,5.91,0l15.95,9.01c1.92,1.08,3.1,3.1,3.1,5.29v17.79c0,2.19-1.18,4.21-3.1,5.29Z" fill="none" stroke="url(#p)" stroke-miterlimit="10" stroke-width="2"/>
  </g>
  <g>
    <path d="M47.9,14.16h-.02c0-.18-.13-.36-.43-.52-1.52-.82-3.08-.58-4.35-.31-.69.15-1.28.62-1.3,1.04h0s-.51,8.24-.51,8.24l-5.29-3.62-7.5-2.5v4h0l-7-2.5v4.5l-7-2.5v16.5l13,14.5,19.86-6.83.07-.02c1.1-.37,2.07-1.03,2.07-2.18v-.11l-1.6-27.7Z" fill="#fff" opacity=".75" stroke="#fff" stroke-linejoin="round" stroke-width="3"/>
    <polygon points="14.5 36.5 14.5 20 27.5 31 27.5 51 14.5 36.5" fill="url(#f)" stroke="#787878" stroke-linejoin="round"/>
    <polygon points="45.5 25.5 45.5 38 43.5 38.5 43.5 31.5 38.5 27.83 38.5 23.5 45.5 25.5" fill="url(#c)" stroke="#787878" stroke-linejoin="round"/>
    <polygon points="36 19 28.5 16.5 38.5 23.5 45.5 25.5 36 19" fill="url(#l)" stroke="#787878" stroke-linejoin="round"/>
    <g>
      <path d="M49.5,41.86v.11c0,1.15-.97,1.81-2.07,2.18l-.07.02-19.86,6.83v-20l8,3v-5l5.3,1.66,1-16.28,6.1-.22,1.6,27.7Z" fill="url(#j)" stroke="#787878" stroke-linejoin="round"/>
      <path d="M46.44,15.14c-1.27.28-2.85.55-4.35-.31-.75-.42.04-1.29,1.02-1.5,1.27-.27,2.83-.51,4.35.31.95.51.25,1.23-1.02,1.5Z" fill="url(#q)" stroke="#787878" stroke-linejoin="round"/>
      <path d="M49,41.88v.09c0,.75-.58,1.32-1.71,1.7,0,0-.08.02-.09.03l-1.21.41-.76-28.25c.46-.05.9-.14,1.32-.23.35-.08.66-.18.92-.31l1.53,26.56Z" fill="url(#r)" opacity=".6"/>
      <path d="M43.36,15.83l-.41,15.9-2.02-.6s.11-.03.15-.06c.13-.09.21-.23.22-.38l.93-15.22c.38.17.76.29,1.13.36Z" fill="url(#s)" opacity=".4"/>
      <line x1="43.5" y1="31.5" x2="40.8" y2="30.66" fill="none" stroke="#787878" stroke-linecap="round" stroke-linejoin="round"/>
    </g>
    <g>
      <polygon points="21.5 22.5 14.5 20 27.5 31 35.5 34 21.5 22.5" fill="url(#t)" stroke="#787878" stroke-linejoin="round"/>
      <polygon points="35.5 29 21.5 18 21.5 22.5 35.5 34 35.5 29" fill="url(#u)" stroke="#787878" stroke-linejoin="round"/>
      <polygon points="28.5 20.5 21.5 18 35.5 29 43.5 31.5 28.5 20.5" fill="url(#v)" stroke="#787878" stroke-linejoin="round"/>
      <polygon points="28.5 16.5 28.5 20.5 38.5 27.83 38.5 23.5 28.5 16.5" fill="url(#w)" stroke="#787878" stroke-linejoin="round"/>
      <polygon points="22 19.03 22 20.03 35 30.24 35 29.24 22 19.03" fill="#fff" opacity=".6"/>
      <polygon points="29 17.46 29 18.46 38 24.76 38 23.76 29 17.46" fill="#fff" opacity=".6"/>
    </g>
    <g>
      <line x1="14.5" y1="25.5" x2="27.5" y2="37.5" fill="none" stroke="#787878" stroke-linejoin="round"/>
      <line x1="14.5" y1="30.5" x2="27.5" y2="44.5" fill="none" stroke="#787878" stroke-linejoin="round"/>
      <polygon points="15 21.08 15 22.08 27 32.23 27 31.23 15 21.08" fill="#fff" opacity=".6"/>
      <polygon points="15 31.78 15 32.78 27 45.7 27 44.7 15 31.78" fill="#fff" opacity=".6"/>
      <polygon points="15 26.65 15 27.65 27 38.72 27 37.72 15 26.65" fill="#fff" opacity=".6"/>
      <path d="M26,32.5c0,.83-.45,1.28-1,1s-1-1.17-1-2,.45-1.28,1-1,1,1.17,1,2Z" fill="#646464"/>
      <path d="M26,38.82c0,.83-.45,1.28-1,1s-1-1.17-1-2,.45-1.28,1-1,1,1.17,1,2Z" fill="#646464"/>
      <path d="M26,45.5c0,.83-.45,1.28-1,1s-1-1.17-1-2,.45-1.28,1-1,1,1.17,1,2Z" fill="#646464"/>
    </g>
    <path d="M47.9,14.16h-.02c0-.18-.13-.36-.43-.52-1.52-.82-3.08-.58-4.35-.31-.69.15-1.28.62-1.3,1.04h0s-.51,8.24-.51,8.24l-5.29-3.62-7.5-2.5v4h0l-7-2.5v4.5l-7-2.5v16.5l13,14.5,19.86-6.83.07-.02c1.1-.37,2.07-1.03,2.07-2.18v-.11l-1.6-27.7Z" fill="none" stroke="#323232" stroke-linejoin="round"/>
  </g>
  <g>
    <g opacity=".75">
      <path d="M29.5,57.5c-.27,0-.52-.1-.71-.29-.15-.14-.25-.42-.26-.47-.01-.05-.03-.11,0-.45,0-.02.02-.11.03-.13l3.5-9.5c.05-.13.13-.26.23-.36l16.26-16.26c.99-.99,2.31-1.54,3.71-1.54s2.72.55,3.71,1.54c2.04,2.04,2.04,5.37,0,7.41l-16.26,16.26c-.09.09-.2.16-.32.21-.02,0-9.58,3.53-9.58,3.53-.15.04-.23.05-.31.05Z" fill="#fff"/>
      <path d="M52.26,29c1.27,0,2.46.49,3.35,1.39,1.85,1.85,1.85,4.86,0,6.71l-16.26,16.26s-.11.09-.17.11c0,0,0,0,0,0l-9.53,3.51s-.09.02-.14.02c-.13,0-.26-.05-.35-.15-.06-.06-.13-.22-.13-.24,0-.04.01-.29.01-.29h0s0,0,0,0l3.5-9.5c.02-.07.06-.13.12-.18l16.26-16.26c.9-.9,2.09-1.39,3.35-1.39M52.26,28c-1.53,0-2.98.6-4.06,1.68l-16.26,16.26c-.15.15-.27.34-.35.55l-3.5,9.5c-.03.08-.05.17-.06.26-.03.32-.03.46.01.61,0,.01.12.43.39.7.28.28.66.44,1.06.44.12,0,.25-.02.38-.05.03,0,.07-.02.1-.03l9.53-3.51s.06-.03.09-.04c.17-.08.32-.18.45-.31l16.26-16.26c2.24-2.24,2.24-5.88,0-8.12-1.08-1.08-2.53-1.68-4.06-1.68h0Z" fill="#fff"/>
    </g>
    <g>
      <path d="M55.26,30.74c-1.66-1.66-4.34-1.66-6,0l-3.76,3.76,6,6,3.76-3.76c1.66-1.66,1.66-4.34,0-6Z" fill="url(#x)"/>
      <path d="M46.5,33.5l2-2c3.41.93,5.07,2.59,6,6,0,0-2,2-2,2l-6-6Z" fill="url(#y)" stroke="#787878" stroke-linejoin="round"/>
      <path d="M55.26,30.74c-1.66-1.66-4.34-1.66-6,0l-3.76,3.76,6,6,3.76-3.76c1.66-1.66,1.66-4.34,0-6Z" fill="none" stroke="#323232" stroke-linejoin="round"/>
      <polygon points="33 47 29.5 56.5 39 53 41 51 35 45 33 47" fill="url(#z)" stroke="#323232" stroke-linejoin="round"/>
      <path d="M34.44,55.21l-4.77,1.76h-.03s-.09.03-.14.03c-.13,0-.26-.05-.35-.15-.13-.13-.18-.32-.13-.49v-.03s1.77-4.77,1.77-4.77c.24-.01.47,0,.7.04.7.11,1.39.44,1.93.98s.87,1.23.98,1.93c.04.23.05.46.04.7Z" fill="url(#a)"/>
      <path d="M33,47c3.41.93,5.07,2.59,6,6l13.5-13.5c-.93-3.41-2.59-5.07-6-6l-13.5,13.5Z" fill="url(#aa)" stroke="#003755" stroke-linejoin="round"/>
      <path d="M49,36l-12.1,12.01c-.64-.49-1.08-.69-1.9-1.01l12.04-11.96c.95.16,1.41.5,1.96.96Z" fill="#fff" opacity=".2"/>
    </g>
  </g>
</svg>