<?xml version="1.0" encoding="UTF-8"?><svg id="Layer_12" xmlns="http://www.w3.org/2000/svg" xmlns:xlink="http://www.w3.org/1999/xlink" viewBox="0 0 64 64"><defs><clipPath id="clippath"><path d="M34.59,49.58l-.89,5.06c-.08.47.51.96,1.33,1.1s1.54-.12,1.63-.58l.89-5.06-2.95-.52Z" fill="none" stroke-width="0"/></clipPath><linearGradient id="linear-gradient" x1="12.63" y1="52.78" x2="13.35" y2="52.78" gradientTransform="translate(18.11 -126.62) rotate(9) scale(3.5)" gradientUnits="userSpaceOnUse"><stop offset="0" stop-color="#c9c6c5"/><stop offset=".18" stop-color="#c9c6c5"/><stop offset=".32" stop-color="#fafafb"/><stop offset=".6" stop-color="#d0cecd"/><stop offset=".8" stop-color="#e5e4e5"/><stop offset=".96" stop-color="#aca5a4"/><stop offset="1" stop-color="#aca5a4"/></linearGradient><clipPath id="clippath-1"><path d="M47.59,44.58l-.89,5.06c-.08.47.51.96,1.33,1.1s1.54-.12,1.63-.58l.89-5.06-2.95-.52Z" fill="none" stroke-width="0"/></clipPath><linearGradient id="linear-gradient-2" x1="16.07" y1="50.79" x2="16.79" y2="50.79" xlink:href="#linear-gradient"/><linearGradient id="linear-gradient-3" x1="43.77" y1="38.33" x2="49.17" y2="43.73" gradientUnits="userSpaceOnUse"><stop offset="0" stop-color="#fa3c05"/><stop offset="1" stop-color="#c81400"/></linearGradient><linearGradient id="linear-gradient-4" x1="34.63" y1="-1.11" x2="58.24" y2="-1.11" gradientTransform="translate(0 34) scale(1 -1)" gradientUnits="userSpaceOnUse"><stop offset="0" stop-color="#464646"/><stop offset=".99" stop-color="#141414"/></linearGradient><linearGradient id="linear-gradient-5" x1="11.66" y1="38.95" x2="26.49" y2="38.95" xlink:href="#linear-gradient-3"/><linearGradient id="linear-gradient-6" x1="11.66" y1="8.55" x2="18.06" y2="8.55" xlink:href="#linear-gradient-4"/><linearGradient id="linear-gradient-7" x1="36.08" y1="11.14" x2="43.66" y2="-1.98" gradientTransform="translate(0 34) scale(1 -1)" gradientUnits="userSpaceOnUse"><stop offset="0" stop-color="#aaa"/><stop offset=".04" stop-color="#a2a2a2"/><stop offset=".19" stop-color="#838383"/><stop offset=".35" stop-color="#6c6c6c"/><stop offset=".49" stop-color="#5f5f5f"/><stop offset=".62" stop-color="#5a5a5a"/></linearGradient><linearGradient id="linear-gradient-8" x1="18.06" y1="8.17" x2="43.6" y2="8.17" gradientTransform="translate(0 34) scale(1 -1)" gradientUnits="userSpaceOnUse"><stop offset="0" stop-color="#f5f5f5"/><stop offset="1" stop-color="#bebebe"/></linearGradient><linearGradient id="linear-gradient-9" x1="11.66" y1="14.55" x2="39.28" y2="14.55" xlink:href="#linear-gradient-7"/><linearGradient id="linear-gradient-10" x1="28.16" y1="43.06" x2="39.44" y2="43.06" gradientUnits="userSpaceOnUse"><stop offset="0" stop-color="#ababab"/><stop offset="1" stop-color="#5b5b5b"/></linearGradient><linearGradient id="linear-gradient-11" y1="38.04" y2="38.04" xlink:href="#linear-gradient-10"/><linearGradient id="linear-gradient-12" y1="32.87" x2="39.44" y2="32.87" xlink:href="#linear-gradient-10"/><linearGradient id="linear-gradient-13" x1="22.15" y1="45.69" x2="33.42" y2="45.69" xlink:href="#linear-gradient-10"/><linearGradient id="linear-gradient-14" x1="22.56" y1="40.54" x2="33" y2="40.54" xlink:href="#linear-gradient-10"/><linearGradient id="linear-gradient-15" x1="22.15" y1="40.54" x2="33.39" y2="40.54" xlink:href="#linear-gradient-10"/><linearGradient id="linear-gradient-16" x1="22.56" y1="35.42" x2="33" y2="35.42" xlink:href="#linear-gradient-10"/><linearGradient id="linear-gradient-17" x1="22.15" y1="35.42" x2="33.38" y2="35.42" xlink:href="#linear-gradient-10"/><linearGradient id="linear-gradient-18" x1="34.56" y1="45.64" x2="45.8" y2="45.64" xlink:href="#linear-gradient-10"/><linearGradient id="linear-gradient-19" x1="34.56" y1="40.38" x2="45.8" y2="40.38" xlink:href="#linear-gradient-10"/><linearGradient id="linear-gradient-20" x1="40.49" y1="41.25" x2="45.4" y2="41.25" xlink:href="#linear-gradient-3"/><linearGradient id="linear-gradient-21" x1="34.56" y1="35.29" x2="45.8" y2="35.29" xlink:href="#linear-gradient-10"/><linearGradient id="linear-gradient-22" x1="28.9" y1="48.49" x2="40.14" y2="48.49" xlink:href="#linear-gradient-10"/><linearGradient id="linear-gradient-23" x1="28.9" y1="43.22" x2="40.14" y2="43.22" xlink:href="#linear-gradient-10"/><linearGradient id="linear-gradient-24" x1="40.51" y1="35.68" x2="39.89" y2="34.61" gradientUnits="userSpaceOnUse"><stop offset="0" stop-color="#386f8d"/><stop offset="1" stop-color="#8dd7f4"/></linearGradient><clipPath id="clippath-2"><path d="M40.53,23.34l-.64,3.64c-.06.34.46.71,1.17.83s1.32-.05,1.38-.38l.64-3.64-2.55-.45Z" fill="none" stroke-width="0"/></clipPath><linearGradient id="linear-gradient-25" x1="13.12" y1="44.04" x2="13.74" y2="44.04" gradientTransform="translate(18.13 -126.61) rotate(9) scale(3.5)" xlink:href="#linear-gradient"/><clipPath id="clippath-3"><path d="M42.46,20.48c-1.88-.33-3.59.49-3.83,1.83-.09.54,1.35,1.24,3.23,1.57s3.48.16,3.57-.37c.24-1.34-1.09-2.7-2.97-3.03Z" fill="none" stroke-width="0"/></clipPath><linearGradient id="linear-gradient-26" x1="9.47" y1="31.98" x2="10.27" y2="31.98" gradientTransform="translate(198.66 -150.64) rotate(59.13) scale(6.97)" xlink:href="#linear-gradient"/><clipPath id="clippath-4"><path d="M50.98,25.95l-.74,4.22c-.07.39.54.82,1.35.96s1.53-.05,1.6-.44l.74-4.22-2.95-.52Z" fill="none" stroke-width="0"/></clipPath><linearGradient id="linear-gradient-27" x1="16.2" y1="44.75" x2="16.92" y2="44.75" gradientTransform="translate(18.13 -126.61) rotate(9) scale(3.5)" xlink:href="#linear-gradient"/><clipPath id="clippath-5"><path d="M53.22,22.64c-2.18-.38-4.16.57-4.44,2.12-.11.62,1.57,1.44,3.74,1.82s4.03.19,4.14-.43c.27-1.55-1.27-3.12-3.44-3.51Z" fill="none" stroke-width="0"/></clipPath><linearGradient id="linear-gradient-28" x1="10.51" y1="30.84" x2="11.44" y2="30.84" gradientTransform="translate(198.66 -150.64) rotate(59.13) scale(6.97)" xlink:href="#linear-gradient"/><linearGradient id="linear-gradient-29" x1="47.63" y1="37.94" x2="52.49" y2="37.94" xlink:href="#linear-gradient-10"/><linearGradient id="linear-gradient-30" x1="29.3" y1="46.22" x2="34.91" y2="46.22" xlink:href="#linear-gradient-3"/><linearGradient id="linear-gradient-31" x1="34.91" y1="45.31" x2="39.74" y2="45.31" xlink:href="#linear-gradient-3"/><linearGradient id="linear-gradient-32" x1="48.03" y1="36.36" x2="52.61" y2="40.94" gradientTransform="translate(-5.93 9.31) rotate(-10)" xlink:href="#linear-gradient-3"/></defs><g clip-path="url(#clippath)"><polygon points="27.82 77.32 32.77 47.49 40.37 48.59 35.42 78.43 27.82 77.32" fill="url(#linear-gradient)" stroke-width="0"/></g><path d="M34.59,49.58l-.89,5.06c-.08.47.51.96,1.33,1.1s1.54-.12,1.63-.58l.89-5.06-2.95-.52Z" fill="none" stroke="#333332" stroke-linecap="round" stroke-linejoin="round"/><g clip-path="url(#clippath-1)"><polygon points="40.82 72.32 45.77 42.49 53.37 43.59 48.42 73.43 40.82 72.32" fill="url(#linear-gradient-2)" stroke-width="0"/></g><path d="M47.59,44.58l-.89,5.06c-.08.47.51.96,1.33,1.1s1.54-.12,1.63-.58l.89-5.06-2.95-.52Z" fill="none" stroke="#333332" stroke-linecap="round" stroke-linejoin="round"/><g id="Layer_11_copy_3"><g id="GEOVIA_socle_copy_8"><path d="M34.85,43l7.06-5.59,16.33-7.76v11.2l-17,8.72c-5.01,2.56-6.31,3.35-6.31,3.35l-.07-9.93Z" fill="#aadcfa" stroke-width="0"/><path d="M34.54,52.79l23.7-18.33v-5.35s-8.05,5.94-12.24,9.68c-3.65,3.07-7.48,5.93-11.46,8.56v5.44Z" fill="url(#linear-gradient-3)" stroke-width="0"/><path d="M34.49,43.09l7.43-5.63,16.33-7.81v2.35s-8.9,3.78-12.24,6.74c-4.21,3.73-11.46,10.88-11.46,10.88l-.05-6.54Z" fill="#aadcfa" stroke-width="0"/><polygon points="34.52 43 42.67 36.98 58.24 29.72 58.24 27.36 34.66 37.65 34.52 43" fill="#797979" stroke-width="0"/><polygon points="34.63 37.62 58.24 27.36 58.24 30.14 53.54 31.89 42.81 36.91 34.66 42.86 34.63 37.62" fill="url(#linear-gradient-4)" stroke-width="0"/><g id="F02_copy_9" opacity=".9"><polygon points="26.49 44.97 27.64 49.6 11.66 42.33 11.66 36.75 26.49 44.97" fill="#aadcfa" stroke-width="0"/><polygon points="26.49 44.97 25.33 40.05 11.66 32.94 11.66 36.75 26.49 44.97" fill="url(#linear-gradient-5)" stroke-width="0"/><polygon points="24.22 35.82 25.33 40.05 11.66 32.94 11.66 29.69 24.22 35.82" fill="#aadcfa" stroke-width="0"/><polygon points="24.22 35.82 22.51 33.13 18.06 29.54 11.66 26.34 11.66 29.69 24.22 35.82" fill="#797979" stroke-width="0"/><polygon points="18.06 29.54 11.66 26.34 11.66 21.36 17.55 24.68 18.06 29.54" fill="url(#linear-gradient-6)" stroke-width="0"/></g><g id="top_copy_8"><polygon points="22.29 32.84 27.61 30.03 28.09 28.63 29.25 28.12 32.14 27.65 31.13 26.5 33.44 26.82 34.44 25.73 34.67 24.36 37.04 24.84 37.87 23.76 40.35 23.76 43.74 22.55 43.74 22.55 49.09 21.49 53.1 23.52 58.34 27.46 34.69 37.38 22.29 32.84" fill="#797979" stroke-width="0"/><polygon points="22.29 32.84 27.47 29.44 27.96 28.03 29.11 27.52 32 27.05 33.3 26.22 34.3 25.13 34.53 23.76 36.9 24.25 37.73 23.17 40.22 23.17 43.6 21.95 43.6 21.95 48.95 20.9 52.98 22.92 58.33 27.51 34.69 37.68 22.29 32.84" fill="url(#linear-gradient-7)" stroke-width="0"/><polygon id="pente_2" points="22.29 32.84 27.47 29.44 27.96 28.03 29.11 27.52 32 27.05 33.3 26.22 34.3 25.13 34.53 23.76 36.9 24.25 37.73 23.17 40.22 23.17 43.6 21.95 42.76 20.33 40.22 18.81 37.65 19.91 36.55 20.13 32.31 19.56 33.52 20.77 32.54 20.98 30.32 20.42 27.47 21.1 27.02 22.93 24.71 22.61 22.78 25.73 22.12 27.93 18.06 29.54 22.29 32.84" fill="url(#linear-gradient-8)" stroke-width="0"/><polygon points="17.55 24.68 22.12 23.62 21.16 21.79 24.71 19.78 27.02 20.1 27.47 18.26 30.32 17.58 32.54 18.13 33.52 17.93 32.31 16.72 36.55 17.28 37.65 17.06 39.28 16.72 40.22 18.81 37.65 19.91 36.55 20.13 32.31 19.56 33.52 20.77 32.54 20.98 30.32 20.42 27.47 21.1 27.02 22.93 24.71 22.61 22.78 25.73 22.12 27.93 18.06 29.54 17.55 24.68" fill="#323232" stroke-width="0"/><polygon points="39.28 16.72 30.22 14.21 11.66 21.36 17.55 24.68 22.12 23.62 21.16 21.79 24.71 19.78 27.02 20.1 27.47 18.26 30.32 17.58 32.54 18.13 33.52 17.93 32.31 16.72 36.55 17.28 37.65 17.06 39.28 16.72" fill="#797979" stroke-width="0"/><polygon points="39.28 16.72 30.22 14.21 11.66 21.36 17.55 24.68 22.12 23.62 21.16 21.79 24.71 19.78 27.02 20.1 27.47 18.26 30.32 17.58 32.54 18.13 33.52 17.93 32.31 16.72 36.55 17.28 37.65 17.06 39.28 16.72" fill="url(#linear-gradient-9)" stroke-width="0"/><path d="M30.31,27.13l-8.09,3.37,1.02-1.4,3.08-1.85-3.21.15,1.39-.91.8-3.79,1.74.24-.59,1.66,3.85,2.54ZM32.96,22.36l-.34-1.29-1.22-.37.61,1.17-1.52-.87-1.12,1.49,1.19,2.23.73-2,2.89,2.43-1.21-2.77ZM40.03,19.88l-1.9,1.07-1.57-.82-1.07-.14-.34.96.93,2.69.48-2.24,4.09,1.2-.61-2.72Z" fill="#fff" stroke-width="0"/></g><polygon id="R_contour_" points="58.24 27.36 52.98 22.92 48.95 20.9 43.6 21.95 42.76 20.33 40.22 18.81 39.28 16.72 30.22 14.21 11.66 21.36 11.66 42.33 34.54 52.79 58.24 40.88 58.24 27.36" fill="none" stroke="#053755" stroke-linecap="round" stroke-linejoin="round"/><g id="les_bords_copy_8"><g id="bord_peut_etre_"><path d="M11.66,21.36c1.98,1.07,3.97,2.14,5.94,3.21.03.02.05.06.06.1l.54,4.85v-.1l4.28,3.37h-.05l12.27,4.61h-.21l11.93-5.01c3.96-1.67,7.93-3.31,11.92-4.93-3.92,1.77-7.85,3.52-11.77,5.23l-11.86,5.11c-.06.02-.12.02-.17,0l-12.28-4.72h-.05l-4.23-3.42s-.05-.06-.05-.1l-.5-4.86.06.1c-1.96-1.14-3.88-2.3-5.82-3.45Z" fill="#053755" stroke-width="0"/></g><polyline id="cesure" points="22.32 32.86 24.18 35.54 27.64 49.6" fill="none" stroke="#053755" stroke-linecap="round" stroke-miterlimit="10"/><line id="cesure_angle" x1="34.63" y1="37.62" x2="34.54" y2="52.79" fill="none" stroke="#053755" stroke-linecap="round" stroke-miterlimit="10"/></g></g><g id="_32_1X_copy"><g id="R_median_AAA"><g id="R2-1_copy_4"><g id="_4"><polygon points="39.01 41.02 33.37 39.02 28.57 40.83 28.57 45.15 34.19 47.04 38.98 44.9 38.98 41.04 39.01 41.02" fill="#323232" stroke-width="0"/><path d="M34.19,47.37c-.06.01-.11.01-.17,0l-5.62-1.93c-.13-.04-.22-.16-.24-.3v-4.28c0-.14.1-.25.24-.29l4.8-1.82c.11-.04.23-.04.34,0l5.64,2c.14.04.24.16.25.3,0,.04,0,.09,0,.13v3.75c-.01.14-.1.26-.24.3l-4.8,2.14c-.07.01-.14.01-.2,0ZM28.99,44.93l5.19,1.75,4.4-2v-3.47l-5.16-1.85-4.4,1.67-.03,3.89Z" fill="url(#linear-gradient-10)" stroke="#333332" stroke-linecap="round" stroke-linejoin="round"/></g><polygon id="_3" points="38.98 41.02 38.98 44.9 34.19 47.04 34.19 42.85 38.98 41.02" fill="#797979" stroke-width="0"/><polygon id="_2" points="28.57 40.83 28.57 45.15 34.19 47.04 34.19 42.85 28.57 40.83" fill="#e1e1e1" stroke-width="0"/><path id="_1" d="M33.42,39.02l-4.82,1.81,5.62,2.02,4.83-1.83-5.63-2Z" fill="#f1f0f0" stroke-width="0"/><g id="_4-2"><polygon points="39.01 35.95 33.37 33.95 28.57 35.75 28.57 40.05 34.19 42.07 38.98 40.27 38.98 35.96 39.01 35.95" fill="#323232" stroke-width="0"/><path d="M34.19,42.4c-.06.01-.11.01-.17,0l-5.62-2.01c-.13-.04-.22-.16-.24-.3v-4.28c0-.14.1-.26.24-.29l4.8-1.82c.11-.04.23-.04.34,0l5.64,1.9c.14.04.24.16.25.3,0,.04,0,.09,0,.13v4.19c-.01.14-.1.26-.24.3l-4.8,1.8c-.06.04-.13.07-.2.07ZM28.99,39.88l5.19,1.86,4.4-1.64v-3.96l-5.16-1.85-4.4,1.66-.03,3.93Z" fill="url(#linear-gradient-11)" stroke="#333332" stroke-linecap="round" stroke-linejoin="round"/></g><polygon id="_3-2" points="38.98 35.95 38.98 40.27 34.19 42.07 34.19 37.77 38.98 35.95" fill="#797979" stroke-width="0"/><polygon id="_2-2" points="28.57 35.75 28.57 40.05 34.19 42.07 34.19 37.77 28.57 35.75" fill="#e1e1e1" stroke-width="0"/><path id="_1-2" d="M33.42,33.93l-4.82,1.82,5.59,1.99,4.83-1.82-5.6-1.99Z" fill="#f1f0f0" stroke-width="0"/><g id="_4-3"><polygon points="39.01 30.77 33.37 28.76 28.57 30.57 28.57 34.88 34.19 36.88 38.98 35.09 38.98 30.78 39.01 30.77" fill="#323232" stroke-width="0"/><path d="M34.19,37.21c-.06.01-.11.01-.17,0l-5.62-2.01c-.13-.04-.22-.15-.24-.29v-4.28c0-.14.1-.26.24-.3l4.8-1.81c.11-.04.23-.04.34,0l5.64,2.01c.14.03.24.15.25.29.01.05.01.09,0,.14v4.19c-.01.14-.1.26-.24.3l-4.8,1.79c-.07,0-.14,0-.2-.03ZM28.99,34.66l5.19,1.86,4.4-1.64v-3.93l-5.16-1.84-4.4,1.66-.03,3.88Z" fill="url(#linear-gradient-12)" stroke="#333332" stroke-linecap="round" stroke-linejoin="round"/></g><polygon id="_3-3" points="38.98 30.77 38.98 35.09 34.19 36.88 34.19 32.59 38.98 30.77" fill="#797979" stroke-width="0"/><polygon id="_2-3" points="28.57 30.57 28.57 34.88 34.19 36.88 34.19 32.59 28.57 30.57" fill="#e1e1e1" stroke-width="0"/><path id="_1-3" d="M33.42,28.76l-4.82,1.82,5.62,2,4.83-1.81-5.63-2.01Z" fill="#f1f0f0" stroke-width="0"/></g><g id="R2-2_copy_4"><g id="_4-4"><polygon points="33 43.59 27.36 41.59 22.56 43.22 22.56 47.22 28.16 49.78 32.97 47.51 32.97 43.6 33 43.59" fill="#323232" stroke-width="0"/><path d="M28.17,50.11c-.06.01-.11.01-.17,0l-5.62-2.56c-.14-.04-.23-.16-.24-.3v-4.03c0-.13.09-.25.22-.29l4.82-1.65c.11-.04.23-.04.34,0l5.64,2c.13.04.23.16.25.3,0,.04,0,.09,0,.13v3.8c0,.14-.11.26-.25.3l-4.79,2.27c-.06.03-.13.04-.2.03ZM22.96,47.01l5.2,2.41,4.4-2.14v-3.49l-5.19-1.85-4.41,1.49v3.58Z" fill="url(#linear-gradient-13)" stroke="#333332" stroke-linecap="round" stroke-linejoin="round"/></g><polygon id="_3-4" points="32.97 43.59 32.97 47.51 28.16 49.78 28.16 45.41 32.97 43.59" fill="#797979" stroke-width="0"/><polygon id="_2-4" points="22.56 43.22 22.56 47.22 28.16 49.78 28.16 45.41 22.56 43.22" fill="#e1e1e1" stroke-width="0"/><path id="_1-4" d="M27.36,41.57l-4.8,1.65,5.62,2.14,4.83-1.82-5.64-1.97Z" fill="#f1f0f0" stroke-width="0"/><g id="_4-5"><polygon points="33 38.48 27.36 36.48 22.56 38.29 22.56 42.42 28.16 44.6 32.97 42.8 32.97 38.49 33 38.48" fill="url(#linear-gradient-14)" stroke="#333332" stroke-linecap="round" stroke-linejoin="round"/><path d="M28.17,44.92h-.17l-5.62-2.14c-.14-.04-.23-.16-.24-.3v-4.19c0-.13.1-.25.22-.29l4.82-1.82c.11-.04.23-.04.34,0l5.64,2c.15.09.24.26.21.43v4.21c-.01.14-.11.25-.25.29l-4.79,1.79c-.05.02-.11.03-.17.03ZM22.96,42.21l5.2,2.03,4.4-1.64v-3.92l-5.19-1.85-4.41,1.66v3.71Z" fill="url(#linear-gradient-15)" stroke="#333332" stroke-linecap="round" stroke-linejoin="round"/></g><polygon id="_3-5" points="32.97 38.48 32.97 42.8 28.16 44.6 28.16 40.3 32.97 38.48" fill="#797979" stroke-width="0"/><polygon id="_2-5" points="22.56 38.29 22.56 42.42 28.16 44.6 28.16 40.3 22.56 38.29" fill="#e1e1e1" stroke-width="0"/><path id="_1-5" d="M27.36,36.47l-4.8,1.82,5.62,2.01,4.83-1.82-5.64-2.01Z" fill="#f1f0f0" stroke-width="0"/><g id="_Group_nope"><g id="_4-6"><polygon points="33 33.37 27.36 31.36 22.56 33.17 22.56 37.47 28.16 39.48 32.97 37.69 32.97 33.38 33 33.37" fill="url(#linear-gradient-16)" stroke="#333332" stroke-linecap="round" stroke-linejoin="round"/><path d="M28.17,39.81c-.06.01-.11.01-.17,0l-5.62-2.07c-.14-.04-.23-.16-.24-.3v-4.28c0-.14.1-.26.22-.3l4.82-1.82c.11-.04.23-.04.34,0l5.64,2.01c.15.05.21.2.21.42v4.27c-.01.14-.11.26-.25.29l-4.79,1.74c-.05.02-.11.03-.17.03ZM22.96,37.26l5.2,1.86,4.4-1.65v-3.92l-5.19-1.85-4.41,1.67v3.88Z" fill="url(#linear-gradient-17)" stroke="#333332" stroke-linecap="round" stroke-linejoin="round"/></g><polygon id="_3-6" points="32.97 33.37 32.97 37.69 28.16 39.48 28.16 35.18 32.97 33.37" fill="#797979" stroke-width="0"/><polygon id="_2-6" points="22.56 33.17 22.56 37.47 28.16 39.48 28.16 35.18 22.56 33.17" fill="#e1e1e1" stroke-width="0"/><path id="_1-6" d="M27.36,31.32l-4.8,1.82,5.62,2.03,4.83-1.81-5.64-2.04Z" fill="#f1f0f0" stroke-width="0"/></g></g></g><g id="R_avant_copy_5"><g id="R1-1_copy_5"><g id="e1"><g id="_4-7"><polygon points="45.42 43.05 39.78 41.39 34.97 43.21 34.97 47.53 40.59 49.74 45.39 47.16 45.39 43.06 45.42 43.05" fill="#323232" stroke-width="0"/><path d="M40.49,50.17h-.17l-5.51-2.33c-.14-.04-.24-.16-.25-.3v-4.28c0-.14.1-.26.24-.29l4.8-1.82c.11-.04.23-.04.34,0l5.64,1.65c.15,0,.21.19.21.43v3.94c-.01.14-.1.26-.24.3l-4.9,2.68c-.05.02-.11.03-.17.03ZM35.39,47.37l5.2,2.07,4.39-2.43v-3.76l-5.14-1.5-4.4,1.67-.05,3.95Z" fill="url(#linear-gradient-18)" stroke="#333332" stroke-linecap="round" stroke-linejoin="round"/></g><polygon id="_3-7" points="45.4 43.05 45.4 47.16 40.49 49.84 40.49 45.23 45.4 43.05" fill="#285977" stroke-width="0"/><polygon id="_2-7" points="34.97 43.21 34.97 47.53 40.49 49.84 40.49 45.23 34.97 43.21" fill="#aadcfa" stroke-width="0"/><path id="_1-7" d="M40.49,41.4l-5.52,1.81,5.52,2.02,4.91-2.14-4.91-1.69Z" fill="#f1f0f0" stroke-width="0"/></g><g id="e2"><g id="_4-8"><polygon points="45.42 38.08 39.78 36.3 34.97 38.12 34.97 42.42 40.59 44.43 45.39 42.28 45.39 38.09 45.42 38.08" fill="#323232" stroke-width="0"/><path d="M40.59,44.75c-.06.01-.11.01-.17,0l-5.61-2.03c-.14-.04-.24-.16-.25-.3v-4.28c0-.14.1-.26.24-.29l4.8-1.82c.11-.04.23-.04.34,0l5.64,1.71c.15,0,.21.17.21.43v4.08c-.01.14-.1.26-.24.3l-4.8,2.14c-.05.03-.11.06-.17.06ZM35.39,42.21l5.2,1.86,4.39-1.99v-3.8l-5.14-1.61-4.4,1.66-.05,3.87Z" fill="url(#linear-gradient-19)" stroke="#333332" stroke-linecap="round" stroke-linejoin="round"/></g><polygon id="_3-8" points="45.4 38.08 45.4 42.28 40.49 44.43 40.49 40.13 45.4 38.08" fill="url(#linear-gradient-20)" stroke-width="0"/><polygon id="_2-8" points="34.97 38.12 34.97 42.42 40.49 44.43 40.49 40.13 34.97 38.12" fill="#aadcfa" stroke-width="0"/><path id="_1-8" d="M40.49,36.3l-5.52,1.82,5.52,2.01,4.91-2.05-4.91-1.78Z" fill="#f1f0f0" stroke-width="0"/></g><g id="e3"><g id="_4-9"><polygon points="45.42 32.98 39.78 31.21 34.97 33.02 34.97 37.33 40.59 39.33 45.39 37.3 45.39 32.99 45.42 32.98" fill="#323232" stroke-width="0"/><path d="M40.59,39.66c-.06.01-.11.01-.17,0l-5.61-2.04c-.14-.03-.24-.15-.25-.29v-4.28c0-.14.1-.26.24-.3l4.8-1.81c.11-.04.23-.04.34,0l5.64,1.78c.15.05.21.17.21.43v4.19c-.01.14-.1.26-.24.3l-4.8,2.02c-.06.01-.11.01-.17,0ZM35.39,37.11l5.2,1.86,4.39-1.87v-3.93l-5.14-1.61-4.4,1.66-.05,3.88Z" fill="url(#linear-gradient-21)" stroke="#333332" stroke-linecap="round" stroke-linejoin="round"/></g><polygon id="_3-9" points="45.4 32.98 45.4 37.3 40.49 39.33 40.49 35.03 45.4 32.98" fill="#285977" stroke-width="0"/><polygon id="_2-9" points="34.97 33.02 34.97 37.33 40.49 39.33 40.49 35.03 34.97 33.02" fill="#e1e1e1" stroke-width="0"/><path id="_1-9" d="M39.84,31.21l-4.82,1.82,5.52,2.01,4.91-2.05-5.62-1.78Z" fill="#f1f0f0" stroke-width="0"/><polygon points="40.49 35.03 34.97 37.33 40.49 39.33 40.49 35.03" fill="#aadcfa" stroke-width="0"/></g></g><g id="R1-2_copy_5"><g id="e1-2"><g id="_4-10"><polygon points="39.74 46.18 34.1 44.16 29.3 45.98 29.3 50.3 34.91 52.79 39.71 50.36 39.71 46.19 39.74 46.18" fill="#323232" stroke-width="0"/><path d="M34.91,53.11c-.06.01-.11.01-.17,0l-5.61-2.53c-.13-.04-.22-.16-.24-.3v-4.28c0-.14.1-.26.24-.3l4.8-1.81c.11-.04.23-.04.34,0l5.64,2.01c.15,0,.21.21.21.43v4.06c-.01.13-.11.25-.24.29l-4.8,2.43c-.06.01-.12.01-.18,0ZM29.71,50.09l5.19,2.33,4.4-2.28v-3.78l-5.19-1.84-4.4,1.66v3.91Z" fill="url(#linear-gradient-22)" stroke="#333332" stroke-linecap="round" stroke-linejoin="round"/></g><polygon id="_3-10" points="39.72 46.18 39.72 50.36 34.91 52.79 34.91 47.99 39.72 46.18" fill="#285977" stroke-width="0"/><polygon id="_2-10" points="29.3 45.98 29.3 50.3 34.91 52.79 34.91 47.99 29.3 45.98" fill="#aadcfa" stroke-width="0"/><path id="_1-10" d="M34.1,44.16l-4.8,1.82,5.62,2.01,4.8-1.82-5.62-2.01Z" fill="#f1f0f0" stroke-width="0"/></g><g id="e2-2"><g id="_4-11"><polygon points="39.74 41.18 34.1 39.17 29.3 40.99 29.3 45.29 34.91 47.3 39.71 45.5 39.71 41.19 39.74 41.18" fill="#323232" stroke-width="0"/><path d="M34.91,47.62h-.17l-5.61-2.04c-.13-.04-.23-.15-.24-.29v-4.33c0-.14.1-.26.24-.3l4.8-1.81c.11-.04.23-.04.34,0l5.64,2.01c.15.05.21.2.21.43v4.19c-.01.14-.1.26-.24.3l-4.82,1.81c-.05.02-.11.03-.17.03ZM29.71,45.07l5.19,1.86,4.4-1.64v-3.93l-5.19-1.84-4.4,1.66v3.88Z" fill="url(#linear-gradient-23)" stroke="#333332" stroke-linecap="round" stroke-linejoin="round"/></g><polygon id="_3-11" points="39.72 41.18 39.72 45.5 34.91 47.3 34.91 43 39.72 41.18" fill="#797979" stroke-width="0"/><polygon id="_2-11" points="29.3 40.99 29.3 45.29 34.91 47.3 34.91 43 29.3 40.99" fill="#e1e1e1" stroke-width="0"/><path id="_1-11" d="M34.1,39.17l-4.8,1.79,5.62,2.01,4.8-1.82-5.62-1.98Z" fill="#f1f0f0" stroke-width="0"/></g></g></g></g></g><polyline points="34.97 37.33 40.54 35.04 45.42 32.93" fill="url(#linear-gradient-24)" stroke="#053755" stroke-dasharray="0 0 1 1" stroke-linecap="round" stroke-linejoin="round" stroke-width=".5"/><g id="Artwork_1"><g clip-path="url(#clippath-2)"><polygon points="35.4 43.24 38.91 21.78 45.47 22.77 41.95 44.22 35.4 43.24" fill="url(#linear-gradient-25)" stroke-width="0"/></g><path d="M40.53,23.34l-.64,3.64c-.06.34.46.71,1.17.83s1.32-.05,1.38-.38l.64-3.64-2.55-.45Z" fill="none" stroke="#333332" stroke-linecap="round" stroke-linejoin="round"/><g clip-path="url(#clippath-3)"><polygon points="36.95 21.58 43.98 18.06 47.67 23.27 40.63 26.79 36.95 21.58" fill="url(#linear-gradient-26)" stroke-width="0"/></g><path d="M42.46,20.48c-1.88-.33-3.59.49-3.83,1.83-.09.54,1.35,1.24,3.23,1.57s3.48.16,3.57-.37c.24-1.34-1.09-2.7-2.97-3.03Z" fill="none" stroke="#333332" stroke-linecap="round" stroke-linejoin="round"/></g><g id="Artwork_1-2"><g clip-path="url(#clippath-4)"><polygon points="45.03 49.02 49.11 24.15 56.7 25.29 52.63 50.16 45.03 49.02" fill="url(#linear-gradient-27)" stroke-width="0"/></g><path d="M50.98,25.95l-.74,4.22c-.07.39.54.82,1.35.96s1.53-.05,1.6-.44l.74-4.22-2.95-.52Z" fill="none" stroke="#333332" stroke-linecap="round" stroke-linejoin="round"/><g clip-path="url(#clippath-5)"><polygon points="46.83 23.92 54.99 19.84 59.26 25.88 51.1 29.96 46.83 23.92" fill="url(#linear-gradient-28)" stroke-width="0"/></g><path d="M53.22,22.64c-2.18-.38-4.16.57-4.44,2.12-.11.62,1.57,1.44,3.74,1.82s4.03.19,4.14-.43c.27-1.55-1.27-3.12-3.44-3.51Z" fill="none" stroke="#333332" stroke-linecap="round" stroke-linejoin="round"/></g><polygon points="50.61 44.42 47.43 45.99 50.09 31.04 53.2 29.89 50.61 44.42" fill="url(#linear-gradient-29)" stroke="#333332" stroke-linecap="round" stroke-linejoin="round"/><polygon points="50.78 44.35 47.6 45.92 50.09 31.04 53.2 29.89 50.78 44.35" fill="none" stroke="#333332" stroke-linecap="round" stroke-linejoin="round"/><polygon points="29.3 45.29 34.91 45.13 34.91 47.3 29.3 45.29" fill="url(#linear-gradient-30)" stroke-width="0"/><polygon points="39.74 43.32 34.91 45.13 34.91 47.3 39.72 45.5 39.74 43.32" fill="url(#linear-gradient-31)" stroke-width="0"/><polyline points="29.3 45.29 34.91 45.13 39.74 43.32" fill="none" stroke="#831300" stroke-dasharray="0 0 1 1" stroke-linecap="round" stroke-linejoin="round" stroke-width=".5"/><rect x="48.73" y="35.06" width="3" height="7" transform="translate(7.46 -8.14) rotate(10)" fill="url(#linear-gradient-32)" stroke="#333332" stroke-linecap="round" stroke-linejoin="round"/></svg>