<?xml version="1.0" encoding="UTF-8"?><svg id="Layer_8" xmlns="http://www.w3.org/2000/svg" xmlns:xlink="http://www.w3.org/1999/xlink" viewBox="0 0 64 64"><defs><linearGradient id="linear-gradient" x1="25.38" y1="19.8" x2="41.6" y2="47.9" gradientUnits="userSpaceOnUse"><stop offset="0" stop-color="#fff"/><stop offset="1" stop-color="#f1f0f0"/></linearGradient><linearGradient id="linear-gradient-2" x1="38.99" y1="29.81" x2="47.9" y2="45.23" gradientUnits="userSpaceOnUse"><stop offset="0" stop-color="#ababab"/><stop offset="1" stop-color="#5b5b5b"/></linearGradient><linearGradient id="linear-gradient-3" x1="32.7" y1="29.55" x2="55.49" y2="29.55" gradientUnits="userSpaceOnUse"><stop offset="0" stop-color="#161616"/><stop offset="1" stop-color="#515151"/></linearGradient><linearGradient id="linear-gradient-4" x1="12.51" y1="23.45" x2="49.62" y2="23.45" xlink:href="#linear-gradient-2"/><linearGradient id="linear-gradient-5" x1="16.46" y1="20.85" x2="25.85" y2="37.1" xlink:href="#linear-gradient-2"/><linearGradient id="linear-gradient-6" x1="34.98" y1="52.34" x2="22.34" y2="30.46" gradientUnits="userSpaceOnUse"><stop offset="0" stop-color="#74c4e2"/><stop offset="1" stop-color="#a4def6"/></linearGradient><pattern id="Unnamed_Pattern" x="0" y="0" width="4" height="4" patternTransform="translate(-654.88 -235.51) scale(.97)" patternUnits="userSpaceOnUse" viewBox="0 0 4 4"><rect width="4" height="4" fill="none"/><circle cx="2" cy="2" r="1" fill="#053755"/></pattern><linearGradient id="linear-gradient-7" x1="34.79" y1="41.66" x2="49.74" y2="41.66" gradientUnits="userSpaceOnUse"><stop offset="0" stop-color="#d7d7d7"/><stop offset="1" stop-color="#969696"/></linearGradient><linearGradient id="linear-gradient-8" x1="11.17" y1="35.97" x2="18.51" y2="35.97" xlink:href="#linear-gradient"/><linearGradient id="linear-gradient-9" x1="15.89" y1="47.71" x2="26.58" y2="47.71" xlink:href="#linear-gradient-7"/></defs><path d="M10.97,23.39l10.38-3.93s.92.93,1.51,1.31c.68.44,1.99,1,1.99,1l1.05-.53-.02-3.5,7.93-3.02,21.27,8.1-.7,21.27-21.69,10.6-20.91-9.97-.83-21.33Z" fill="url(#linear-gradient)"/><polygon points="32.7 32.58 32.77 54.81 54.69 44.35 55.5 22.62 32.7 32.58" fill="url(#linear-gradient-2)" stroke="#333332" stroke-linecap="round" stroke-linejoin="round"/><polygon points="32.7 32.58 32.74 36.32 55.41 26.35 55.49 22.79 32.7 32.58" fill="url(#linear-gradient-3)" fill-rule="evenodd"/><polygon points="10.97 23.39 33.82 14.72 55.09 22.82 32.72 32.19 10.97 23.39" fill="url(#linear-gradient-4)"/><polygon points="10.5 23.39 32.7 32.51 32.74 36.32 10.5 26.97 10.5 23.39" fill="url(#linear-gradient-5)"/><path d="M30.34,54.19l2.33,1.02v-18.88l-15.83-6.72s1.69,9.29,5.96,11.82c6.44,3.82,7.54,12.76,7.54,12.76Z" fill="url(#linear-gradient-6)" stroke="#053755" stroke-linecap="round" stroke-linejoin="round" stroke-width=".75"/><path d="M30.34,54.19l2.33,1.09v-18.95s-15.95-6.78-15.95-6.78c0,0,1.82,9.34,6.09,11.87,6.44,3.82,7.54,12.76,7.54,12.76Z" fill="url(#Unnamed_Pattern)"/><polygon points="51.17 28.21 37.14 53.08 32.7 55.1 43.16 31.73 51.17 28.21" fill="url(#linear-gradient-7)" stroke="#333332" stroke-linecap="round" stroke-linejoin="round" stroke-width=".75"/><polygon points="47.71 29.73 32.67 55.21 32.74 36.32 47.71 29.73" fill="#285a78"/><polygon points="47.71 29.73 32.67 55.21 32.74 36.32 47.71 29.73" fill="url(#Unnamed_Pattern)" stroke="#333332" stroke-linejoin="round" stroke-width=".73"/><path d="M11.17,27.22l3.01,1.27s1.4,7.2,3.77,10.56c2.83,4-6.16,5.67-6.16,5.67" fill="url(#linear-gradient-8)" stroke="#333332" stroke-miterlimit="10" stroke-width=".75"/><path d="M14.4,46s3.31-1.39,4.71-2.47c1.22-.93,2.82-.86,4.08.62,1.64,1.92,2.7,3.66,4.41,8.36" fill="url(#linear-gradient-9)" stroke="#333332" stroke-linecap="round" stroke-linejoin="round" stroke-width=".75"/><polyline points="11.1 27.13 32.67 36.33 55.41 26.35" fill="none" stroke="#333332" stroke-linecap="round" stroke-linejoin="round" stroke-width=".75"/><polyline points="32.7 55.1 32.7 32.58 10.97 23.39" fill="none" stroke="#333332" stroke-linecap="round" stroke-linejoin="round" stroke-width=".75"/><line x1="32.7" y1="32.58" x2="55.5" y2="22.62" fill="none" stroke="#333332" stroke-linecap="round" stroke-linejoin="round" stroke-width=".75"/><path d="M33.82,14.72l21.27,8.1-.7,21.27-21.69,10.6-20.91-9.97-.83-21.33,10.38-3.93,4.54-1.73,7.93-3.02M33.82,13.72c-.12,0-.24.02-.36.07l-7.93,3.02-4.54,1.73-10.38,3.93c-.4.15-.66.54-.65.97l.83,21.33c.01.37.23.7.57.86l20.91,9.97c.14.06.28.1.43.1s.3-.03.44-.1l21.69-10.6c.33-.16.55-.5.56-.87l.7-21.27c.01-.43-.24-.82-.64-.97l-21.27-8.1c-.11-.04-.24-.07-.36-.07h0Z" fill="#333332"/></svg>