<?xml version="1.0" encoding="UTF-8"?>
<svg id="i" data-name="Calque 1" xmlns="http://www.w3.org/2000/svg" xmlns:xlink="http://www.w3.org/1999/xlink" viewBox="0 0 64 64">
  <defs>
    <linearGradient id="a" x1="51.73" y1="34.58" x2="57.47" y2="44.52" gradientUnits="userSpaceOnUse">
      <stop offset="0" stop-color="#8cd7f5"/>
      <stop offset="1" stop-color="#376e8c"/>
    </linearGradient>
    <linearGradient id="c" x1="40.63" y1="31.54" x2="46.71" y2="42.06" gradientUnits="userSpaceOnUse">
      <stop offset="0" stop-color="#a0e1fa"/>
      <stop offset="1" stop-color="#73c3e1"/>
    </linearGradient>
    <linearGradient id="g" x1="18.84" y1="37.65" x2="22.54" y2="44.06" gradientUnits="userSpaceOnUse">
      <stop offset="0" stop-color="#fff"/>
      <stop offset="1" stop-color="#d2d2d2"/>
    </linearGradient>
    <linearGradient id="j" x1="20.63" y1="12.31" x2="43.37" y2="51.69" gradientUnits="userSpaceOnUse">
      <stop offset="0" stop-color="#3287af"/>
      <stop offset="1" stop-color="#285a78"/>
    </linearGradient>
    <linearGradient id="k" data-name="Dégradé sans nom 2" x1="20.27" y1="35.73" x2="17.31" y2="43.43" gradientUnits="userSpaceOnUse">
      <stop offset=".3" stop-color="#f5f5f5"/>
      <stop offset=".35" stop-color="#e3e3e3"/>
      <stop offset=".43" stop-color="#d2d2d2"/>
      <stop offset=".52" stop-color="#c6c6c6"/>
      <stop offset=".64" stop-color="#bfbfbf"/>
      <stop offset="1" stop-color="#bebebe"/>
    </linearGradient>
    <linearGradient id="l" data-name="Dégradé sans nom 3" x1="29.08" y1="30.66" x2="24.73" y2="36.49" gradientUnits="userSpaceOnUse">
      <stop offset=".32" stop-color="#f5f5f5"/>
      <stop offset=".37" stop-color="#e3e3e3"/>
      <stop offset=".45" stop-color="#d2d2d2"/>
      <stop offset=".53" stop-color="#c6c6c6"/>
      <stop offset=".66" stop-color="#bfbfbf"/>
      <stop offset="1" stop-color="#bebebe"/>
    </linearGradient>
    <linearGradient id="m" x1="24.86" y1="31.22" x2="30.5" y2="41" xlink:href="#g"/>
    <linearGradient id="n" data-name="Dégradé sans nom 4" x1="35.84" y1="24.04" x2="31.69" y2="32.04" gradientUnits="userSpaceOnUse">
      <stop offset=".16" stop-color="#f5f5f5"/>
      <stop offset=".21" stop-color="#ececec"/>
      <stop offset=".5" stop-color="#bebebe"/>
    </linearGradient>
    <linearGradient id="o" x1="31.1" y1="25.65" x2="38.26" y2="38.06" xlink:href="#g"/>
    <linearGradient id="p" data-name="Dégradé sans nom 5" x1="42.82" y1="17.5" x2="39.37" y2="26.06" gradientUnits="userSpaceOnUse">
      <stop offset="0" stop-color="#f5f5f5"/>
      <stop offset=".2" stop-color="#e9e9e9"/>
      <stop offset="1" stop-color="#bebebe"/>
    </linearGradient>
    <linearGradient id="q" x1="37.23" y1="19.65" x2="46.13" y2="35.06" xlink:href="#g"/>
    <linearGradient id="r" x1="51.7" y1="42.07" x2="49.92" y2="55.35" xlink:href="#a"/>
    <linearGradient id="s" x1="35.63" y1="34.96" x2="41.13" y2="55.18" gradientUnits="userSpaceOnUse">
      <stop offset="0" stop-color="#82bedc"/>
      <stop offset="1" stop-color="#285a78"/>
    </linearGradient>
    <linearGradient id="t" x1="37.41" y1="39.02" x2="41.51" y2="52.29" xlink:href="#s"/>
    <linearGradient id="u" x1="46.49" y1="41.38" x2="56.79" y2="49.89" xlink:href="#a"/>
    <linearGradient id="v" x1="35.16" y1="34.66" x2="28.14" y2="50.01" xlink:href="#s"/>
    <linearGradient id="w" data-name="Dégradé sans nom 54" x1="49.82" y1="44.65" x2="50.18" y2="55.73" gradientUnits="userSpaceOnUse">
      <stop offset="0" stop-color="#fff" stop-opacity="0"/>
      <stop offset=".36" stop-color="#fff"/>
      <stop offset="1" stop-color="#fff" stop-opacity="0"/>
    </linearGradient>
    <linearGradient id="x" data-name="Dégradé sans nom 49" x1="46.63" y1="46.63" x2="34.65" y2="51.91" gradientUnits="userSpaceOnUse">
      <stop offset="0" stop-color="#fff" stop-opacity="0"/>
      <stop offset=".26" stop-color="#fff"/>
      <stop offset="1" stop-color="#fff" stop-opacity="0"/>
    </linearGradient>
    <linearGradient id="y" data-name="Dégradé sans nom 38" x1="37.26" y1="38.37" x2="41.73" y2="51.4" gradientUnits="userSpaceOnUse">
      <stop offset="0" stop-color="#fff" stop-opacity="0"/>
      <stop offset=".32" stop-color="#fff"/>
      <stop offset="1" stop-color="#fff" stop-opacity="0"/>
    </linearGradient>
    <linearGradient id="z" data-name="Dégradé sans nom 32" x1="47.59" y1="39.24" x2="51.98" y2="46.84" gradientUnits="userSpaceOnUse">
      <stop offset="0" stop-color="#fff" stop-opacity="0"/>
      <stop offset=".38" stop-color="#fff"/>
      <stop offset="1" stop-color="#fff" stop-opacity="0"/>
    </linearGradient>
    <linearGradient id="aa" data-name="Dégradé sans nom 24" x1="51.23" y1="38.9" x2="57.16" y2="40.05" gradientUnits="userSpaceOnUse">
      <stop offset="0" stop-color="#fff" stop-opacity="0"/>
      <stop offset=".57" stop-color="#fff"/>
      <stop offset="1" stop-color="#fff" stop-opacity="0"/>
    </linearGradient>
    <linearGradient id="ab" data-name="Dégradé sans nom 44" x1="34.23" y1="36.33" x2="31.98" y2="43.07" gradientUnits="userSpaceOnUse">
      <stop offset="0" stop-color="#fff" stop-opacity="0"/>
      <stop offset=".43" stop-color="#fff"/>
      <stop offset="1" stop-color="#fff" stop-opacity="0"/>
    </linearGradient>
    <linearGradient id="ac" data-name="Dégradé sans nom 19" x1="39.62" y1="34.22" x2="55.93" y2="43.76" gradientUnits="userSpaceOnUse">
      <stop offset="0" stop-color="#fff" stop-opacity="0"/>
      <stop offset=".43" stop-color="#fff"/>
      <stop offset=".62" stop-color="#fff" stop-opacity="0"/>
    </linearGradient>
    <radialGradient id="ad" data-name="Dégradé sans nom 9" cx="43.5" cy="41.5" fx="43.5" fy="41.5" r="4" gradientUnits="userSpaceOnUse">
      <stop offset="0" stop-color="#fff"/>
      <stop offset=".9" stop-color="#fff" stop-opacity="0"/>
    </radialGradient>
  </defs>
  <path d="M32,10.02c-.68,0-1.36.17-1.97.51l-15.95,9.01c-1.29.73-2.08,2.09-2.08,3.55v17.79c0,1.46.8,2.82,2.08,3.55l15.95,9.01c1.21.69,2.72.69,3.94,0l15.95-9.01c1.29-.73,2.08-2.09,2.08-3.55v-17.79c0-1.46-.8-2.82-2.08-3.55l-15.95-9.01c-.61-.34-1.29-.51-1.97-.51Z" fill="#fff" opacity=".3"/>
  <path d="M50.9,46.19l-15.95,9.01c-1.83,1.04-4.07,1.04-5.91,0l-15.95-9.01c-1.92-1.08-3.1-3.1-3.1-5.29v-17.79c0-2.19,1.18-4.21,3.1-5.29l15.95-9.01c1.83-1.04,4.07-1.04,5.91,0l15.95,9.01c1.92,1.08,3.1,3.1,3.1,5.29v17.79c0,2.19-1.18,4.21-3.1,5.29Z" fill="none" stroke="url(#j)" stroke-miterlimit="10" stroke-width="2"/>
  <g>
    <path d="M43.71,17.01h0s-2.31-.81-2.31-.81h0c-.36-.12-.77-.13-1.22,0l-.9.27c-.98.29-1.78,1.37-1.78,2.39v5.89c0-.54-.24-.94-.61-1.15h0s-2.23-1.28-2.23-1.28h0c-.4-.22-.91-.29-1.48-.12l-.9.27c-.98.29-1.78,1.37-1.78,2.39v5.89c0-.62-.32-1.07-.8-1.24h0s-2.31-.81-2.31-.81h0c-.35-.12-.77-.13-1.22,0l-.9.27c-.98.29-1.78,1.37-1.78,2.39v6.25c0-.4-.19-.74-.48-.96h0s0,0,0,0c0,0,0,0,0,0l-2-1.5h0c-.29-.22-.68-.31-1.06-.19l-1.67.5c-.98.29-1.78,1.37-1.78,2.39v6.14l2,1.5,5-2v-2l2,1.5,5-2v-2l2,1.5,5-2v-2l2,1.5,5-2v-17.75c0-.62-.32-1.07-.79-1.24Z" fill="#fff" opacity=".5" stroke="#fff" stroke-linejoin="round" stroke-width="3"/>
    <path d="M23.02,36.65l-2-1.5h0c-.29-.22-.68-.31-1.06-.19l-1.67.5c-.98.29-1.78,1.37-1.78,2.39v6.14l2,1.5,4.52-8.85Z" fill="url(#k)" stroke="#787878" stroke-linejoin="round"/>
    <path d="M18.5,45.5v-6.51c0-.82.64-1.68,1.43-1.92l2.03-.61c.77-.23,1.54.35,1.54,1.15v5.89l-5,2Z" fill="url(#g)" stroke="#787878" stroke-linejoin="round"/>
    <path d="M29.71,29.5l-2.31-.81h0c-.35-.12-.77-.13-1.22,0l-.9.27c-.98.29-1.78,1.37-1.78,2.39v10.14l2,1.5,4.21-13.5Z" fill="url(#l)" stroke="#787878" stroke-linejoin="round"/>
    <path d="M25.5,43v-11.01c0-.82.64-1.68,1.43-1.92l1.9-.57c.92-.28,1.67.28,1.67,1.25v10.25l-5,2Z" fill="url(#m)" stroke="#787878" stroke-linejoin="round"/>
    <path d="M36.9,23.59l-2.23-1.27h0c-.4-.22-.91-.29-1.48-.12l-.9.27c-.98.29-1.78,1.37-1.78,2.39v14.14l2,1.5,4.4-16.91Z" fill="url(#n)" stroke="#787878" stroke-linejoin="round"/>
    <path d="M32.5,40.5v-14.51c0-.82.64-1.68,1.43-1.92l1.9-.57c.92-.28,1.67.28,1.67,1.25v13.75l-5,2Z" fill="url(#o)" stroke="#787878" stroke-linejoin="round"/>
    <path d="M43.71,17l-2.31-.81h0c-.36-.12-.77-.13-1.22,0l-.9.27c-.98.29-1.78,1.37-1.78,2.39v17.64l2,1.5,4.21-21Z" fill="url(#p)" stroke="#787878" stroke-linejoin="round"/>
    <path d="M39.5,38v-18.51c0-.82.64-1.68,1.43-1.92l1.9-.57c.92-.28,1.67.28,1.67,1.25v17.75l-5,2Z" fill="url(#q)" stroke="#787878" stroke-linejoin="round"/>
    <path d="M43.71,17.01h0s-2.31-.81-2.31-.81h0c-.36-.12-.77-.13-1.22,0l-.9.27c-.98.29-1.78,1.37-1.78,2.39v5.89c0-.54-.24-.94-.61-1.15h0s-2.23-1.28-2.23-1.28h0c-.4-.22-.91-.29-1.48-.12l-.9.27c-.98.29-1.78,1.37-1.78,2.39v5.89c0-.62-.32-1.07-.8-1.24h0s-2.31-.81-2.31-.81h0c-.35-.12-.77-.13-1.22,0l-.9.27c-.98.29-1.78,1.37-1.78,2.39v6.25c0-.4-.19-.74-.48-.96h0s0,0,0,0c0,0,0,0,0,0l-2-1.5h0c-.29-.22-.68-.31-1.06-.19l-1.67.5c-.98.29-1.78,1.37-1.78,2.39v6.14l2,1.5,5-2v-2l2,1.5,5-2v-2l2,1.5,5-2v-2l2,1.5,5-2v-17.75c0-.62-.32-1.07-.79-1.24Z" fill="none" stroke="#323232" stroke-linejoin="round"/>
  </g>
  <g>
    <polygon points="56 38 51 35 43 33.5 35.5 34.5 31.5 37.5 31.5 43.5 43.5 57.5 57.5 44.5 56 38" fill="#fff" opacity=".75" stroke="#fff" stroke-linejoin="round" stroke-width="3"/>
    <g>
      <polygon points="57.5 44.5 45.5 47.5 43.5 57.5 57.5 44.5" fill="url(#r)" stroke="#003755" stroke-linejoin="round"/>
      <polygon points="31.5 43.5 45.5 47.5 43.5 57.5 31.5 43.5" fill="url(#s)" stroke="#003755" stroke-linejoin="round"/>
      <polygon points="36 38 31.5 43.5 45.5 47.5 45 40 36 38" fill="url(#t)" stroke="#003755" stroke-linejoin="round"/>
      <polygon points="45 40 52 39 57.5 44.5 45.5 47.5 45 40" fill="url(#u)" stroke="#003755" stroke-linejoin="round"/>
      <polygon points="51 35 56 38 57.5 44.5 52 39 51 35" fill="url(#a)" stroke="#003755" stroke-linejoin="round"/>
      <polygon points="35.5 34.5 31.5 37.5 31.5 43.5 36 38 35.5 34.5" fill="url(#v)" stroke="#003755" stroke-linejoin="round"/>
      <polygon points="43 33.5 51 35 52 39 45 40 36 38 35.5 34.5 43 33.5" fill="url(#c)" stroke="#003755" stroke-linejoin="round"/>
    </g>
    <g opacity=".5">
      <polygon points="55.73 45.45 45.94 47.9 44.31 56.06 55.73 45.45" fill="url(#w)"/>
      <polygon points="44.91 47.85 32.96 44.44 43.2 56.37 44.91 47.85" fill="url(#x)"/>
      <polygon points="32.37 43.23 44.96 46.83 44.52 40.41 36.18 38.56 32.37 43.23" fill="url(#y)"/>
      <polygon points="45.53 40.43 45.96 46.87 56.51 44.23 51.82 39.53 45.53 40.43" fill="url(#z)"/>
      <polygon points="51.78 36.06 52.46 38.76 56.61 42.89 55.57 38.33 51.78 36.06" fill="url(#aa)"/>
      <polygon points="32 37.74 32 42.08 35.48 37.85 35.12 35.39 32 37.74" fill="url(#ab)"/>
      <polygon points="42.98 34 36.06 34.93 36.44 37.58 45.04 39.49 51.37 38.58 50.58 35.43 42.98 34" fill="url(#ac)"/>
    </g>
  </g>
  <circle cx="43.5" cy="41.5" r="4" fill="url(#ad)" opacity=".6"/>
</svg>