<?xml version="1.0" encoding="UTF-8"?>
<svg id="c" data-name="Calque 1" xmlns="http://www.w3.org/2000/svg" xmlns:xlink="http://www.w3.org/1999/xlink" viewBox="0 0 64 64">
  <defs>
    <linearGradient id="a" x1="39.79" y1="35.24" x2="52.21" y2="56.76" gradientUnits="userSpaceOnUse">
      <stop offset="0" stop-color="#8cd7f5"/>
      <stop offset="1" stop-color="#376e8c"/>
    </linearGradient>
    <linearGradient id="e" x1="20.63" y1="12.31" x2="43.37" y2="51.69" gradientUnits="userSpaceOnUse">
      <stop offset="0" stop-color="#3287af"/>
      <stop offset="1" stop-color="#285a78"/>
    </linearGradient>
    <linearGradient id="f" data-name="Blanc, Noir" x1="40.06" y1="35.71" x2="51.94" y2="56.29" gradientUnits="userSpaceOnUse">
      <stop offset="0" stop-color="#fff"/>
      <stop offset="1" stop-color="#000"/>
    </linearGradient>
    <linearGradient id="g" data-name="Dégradé sans nom 17" x1="43" y1="40.8" x2="49" y2="51.2" gradientUnits="userSpaceOnUse">
      <stop offset="0" stop-color="#376e8c"/>
      <stop offset="1" stop-color="#8cd7f5"/>
    </linearGradient>
  </defs>
  <g id="d" data-name="BKG">
    <path d="M32,10.02c-.68,0-1.36.17-1.97.51l-15.95,9.01c-1.29.73-2.08,2.09-2.08,3.55v17.79c0,1.46.8,2.82,2.08,3.55l15.95,9.01c1.21.69,2.72.69,3.94,0l15.95-9.01c1.29-.73,2.08-2.09,2.08-3.55v-17.79c0-1.46-.8-2.82-2.08-3.55l-15.95-9.01c-.61-.34-1.29-.51-1.97-.51Z" fill="#fff" opacity=".3"/>
    <path d="M50.9,46.19l-15.95,9.01c-1.83,1.04-4.07,1.04-5.91,0l-15.95-9.01c-1.92-1.08-3.1-3.1-3.1-5.29v-17.79c0-2.19,1.18-4.21,3.1-5.29l15.95-9.01c1.83-1.04,4.07-1.04,5.91,0l15.95,9.01c1.92,1.08,3.1,3.1,3.1,5.29v17.79c0,2.19-1.18,4.21-3.1,5.29Z" fill="none" stroke="url(#e)" stroke-miterlimit="10" stroke-width="2"/>
  </g>
  <g>
    <g opacity=".5">
      <path d="M32,52.5c-1.38,0-2.5-1.12-2.5-2.5v-16.56l-14.34-8.28c-1.19-.69-1.6-2.22-.91-3.41.44-.77,1.27-1.25,2.16-1.25.44,0,.87.12,1.25.33l14.34,8.28,14.34-8.28c.38-.22.81-.34,1.25-.34.89,0,1.72.48,2.16,1.25.33.58.42,1.25.25,1.9-.17.65-.59,1.18-1.17,1.52l-14.34,8.28v16.56c0,1.38-1.12,2.5-2.5,2.5Z" fill="#fff"/>
      <path d="M47.59,21c.69,0,1.36.36,1.73,1,.55.96.23,2.18-.73,2.73l-14.59,8.42v16.85c0,1.1-.9,2-2,2s-2-.9-2-2v-16.85l-14.59-8.42c-.95-.55-1.28-1.77-.73-2.73.37-.64,1.04-1,1.73-1,.34,0,.69.09,1,.27l14.59,8.42,14.59-8.42c.32-.19.66-.27,1-.27M47.59,20h0c-.53,0-1.05.14-1.51.41l-14.09,8.13-14.09-8.13c-.46-.26-.98-.4-1.5-.4-1.07,0-2.06.58-2.59,1.5-.82,1.43-.33,3.27,1.1,4.09l14.09,8.13v16.27c0,1.65,1.35,3,3,3s3-1.35,3-3v-16.27l14.09-8.13c.69-.4,1.19-1.04,1.4-1.82.2-.77.1-1.58-.3-2.27-.53-.93-1.53-1.51-2.59-1.51h0Z" fill="#fff"/>
    </g>
    <path d="M48.59,24.73l-14.59,8.42v16.85c0,1.1-.9,2-2,2s-2-.9-2-2v-16.85l-14.59-8.42c-.95-.55-1.28-1.77-.73-2.73.55-.96,1.77-1.28,2.73-.73l14.59,8.42,14.59-8.42c.96-.56,2.18-.23,2.73.73.55.96.23,2.18-.73,2.73Z" fill="#77797c"/>
  </g>
  <g>
    <path d="M54.55,50.62c0,.66.24,1.29.74,1.79l.87.87c-.8,1.12-1.76,2.08-2.88,2.88l-.87-.87c-.49-.49-1.12-.74-1.79-.74-1.45,0-2.58,1.14-2.58,2.55v1.22c-.68.1-1.35.18-2.04.18s-1.36-.08-2.04-.18v-1.22c0-1.36-1.07-2.55-2.58-2.55-.67,0-1.29.25-1.79.74l-.87.87c-1.12-.8-2.08-1.76-2.88-2.88l.87-.87c.5-.5.74-1.12.74-1.79,0-1.49-1.18-2.58-2.55-2.58h-1.22c-.1-.69-.18-1.35-.18-2.04s.08-1.35.18-2.04h1.22c1.43,0,2.55-1.14,2.55-2.58,0-.66-.24-1.29-.74-1.79l-.87-.87c.8-1.12,1.76-2.08,2.88-2.88l.87.87c.49.49,1.11.74,1.79.74,1.51,0,2.58-1.2,2.58-2.55v-1.22c.68-.1,1.36-.18,2.04-.18s1.36.08,2.04.18v1.22c0,1.52,1.2,2.55,2.58,2.55.65,0,1.3-.22,1.79-.71l.87-.89c1.12.8,2.08,1.76,2.88,2.88l-.87.87c-.5.49-.74,1.12-.74,1.79,0,1.45,1.14,2.58,2.55,2.58h1.22c.1.69.18,1.35.18,2.04s-.08,1.36-.18,2.04h-1.22c-1.36,0-2.55,1.07-2.55,2.58ZM46,50.5c2.47,0,4.5-2.03,4.5-4.5s-2.03-4.5-4.5-4.5-4.5,2.03-4.5,4.5,2.02,4.5,4.5,4.5Z" fill="#fff" opacity=".75" stroke="#fff" stroke-linejoin="round" stroke-width="3"/>
    <path d="M54.55,50.62c0,.66.24,1.29.74,1.79l.87.87c-.8,1.12-1.76,2.08-2.88,2.88l-.87-.87c-.49-.49-1.12-.74-1.79-.74-1.45,0-2.58,1.14-2.58,2.55v1.22c-.68.1-1.35.18-2.04.18s-1.36-.08-2.04-.18v-1.22c0-1.36-1.07-2.55-2.58-2.55-.67,0-1.29.25-1.79.74l-.87.87c-1.12-.8-2.08-1.76-2.88-2.88l.87-.87c.5-.5.74-1.12.74-1.79,0-1.49-1.18-2.58-2.55-2.58h-1.22c-.1-.69-.18-1.35-.18-2.04s.08-1.35.18-2.04h1.22c1.43,0,2.55-1.14,2.55-2.58,0-.66-.24-1.29-.74-1.79l-.87-.87c.8-1.12,1.76-2.08,2.88-2.88l.87.87c.49.49,1.11.74,1.79.74,1.51,0,2.58-1.2,2.58-2.55v-1.22c.68-.1,1.36-.18,2.04-.18s1.36.08,2.04.18v1.22c0,1.52,1.2,2.55,2.58,2.55.65,0,1.3-.22,1.79-.71l.87-.89c1.12.8,2.08,1.76,2.88,2.88l-.87.87c-.5.49-.74,1.12-.74,1.79,0,1.45,1.14,2.58,2.55,2.58h1.22c.1.69.18,1.35.18,2.04s-.08,1.36-.18,2.04h-1.22c-1.36,0-2.55,1.07-2.55,2.58ZM46,50.5c2.47,0,4.5-2.03,4.5-4.5s-2.03-4.5-4.5-4.5-4.5,2.03-4.5,4.5,2.02,4.5,4.5,4.5Z" fill="url(#a)" stroke="#003755" stroke-linejoin="round"/>
    <g opacity=".3">
      <path d="M57.89,44.46h-.79c-1.71,0-3.05-1.35-3.05-3.08,0-.82.31-1.56.89-2.14l.56-.56c-.63-.82-1.35-1.54-2.17-2.17l-.56.58c-.56.56-1.32.87-2.14.87-1.72,0-3.08-1.34-3.08-3.05v-.79c-.93-.12-2.16-.12-3.08,0v.79c0,1.71-1.35,3.05-3.08,3.05-.82,0-1.56-.31-2.14-.89l-.56-.56c-.82.63-1.55,1.36-2.18,2.18l.56.56c.58.58.89,1.32.89,2.14,0,1.73-1.34,3.08-3.05,3.08h-.79c-.06.47-.11,1-.11,1.54s.05,1.07.11,1.54h.79c1.71,0,3.05,1.35,3.05,3.08,0,.82-.31,1.56-.89,2.14l-.56.56c.63.82,1.36,1.55,2.18,2.18l.56-.56c.58-.58,1.32-.89,2.14-.89,1.72,0,3.08,1.34,3.08,3.05v.79c.93.12,2.14.12,3.08,0v-.79c0-1.71,1.35-3.05,3.08-3.05.82,0,1.56.31,2.14.89l.56.56c.82-.63,1.55-1.36,2.18-2.18l-.56-.56c-.58-.58-.89-1.32-.89-2.14,0-1.73,1.34-3.08,3.05-3.08h.79c.06-.47.11-1,.11-1.54s-.05-1.07-.11-1.54ZM56.98,46.54c-2.22.06-3.94,1.83-3.94,4.08,0,1.05.38,2,1.1,2.76-.24.27-.5.52-.76.76-.76-.72-1.71-1.1-2.76-1.1-2.24,0-4.01,1.71-4.07,3.92-.17,0-.36.01-.54.01s-.37,0-.55-.01c-.07-2.21-1.83-3.92-4.07-3.92-1.05,0-2,.38-2.76,1.1-.27-.24-.52-.5-.76-.76.72-.76,1.1-1.71,1.1-2.76,0-2.25-1.72-4.02-3.94-4.08-.01-.19-.02-.37-.02-.54s0-.35.02-.54c2.22-.06,3.94-1.83,3.94-4.08,0-1.05-.38-2.01-1.1-2.76.24-.27.5-.52.76-.76.76.72,1.71,1.1,2.76,1.1,2.24,0,4.01-1.71,4.07-3.92.18,0,.36-.01.54-.01s.37,0,.54.01c.07,2.21,1.83,3.92,4.07,3.92,1.06,0,2.04-.38,2.78-1.09.26.24.51.49.75.75-.72.76-1.1,1.71-1.1,2.76,0,2.25,1.72,4.02,3.94,4.08.01.19.02.37.02.54s0,.35-.02.54Z" fill="url(#f)"/>
    </g>
    <path d="M46,40c-3.31,0-6,2.69-6,6s2.69,6,6,6,6-2.69,6-6-2.69-6-6-6ZM46,51c-2.76,0-5-2.24-5-5s2.24-5,5-5,5,2.24,5,5-2.24,5-5,5Z" fill="url(#g)"/>
  </g>
</svg>