<?xml version="1.0" encoding="UTF-8"?>
<svg id="DataExperience_reader_-_copie_14" data-name="DataExperience_reader - copie 14" xmlns="http://www.w3.org/2000/svg" xmlns:xlink="http://www.w3.org/1999/xlink" viewBox="0 0 64 64">
  <defs>
    <style>
      .cls-1 {
        stroke-width: 3px;
      }

      .cls-1, .cls-2 {
        opacity: .5;
        stroke: #fff;
      }

      .cls-1, .cls-2, .Style_graphique_3, .cls-3 {
        stroke-miterlimit: 10;
      }

      .cls-1, .cls-2, .cls-4 {
        fill: #fff;
      }

      .cls-1, .cls-4 {
        isolation: isolate;
      }

      .cls-5 {
        fill: #5a9ab8;
      }

      .cls-5, .cls-6, .cls-7, .cls-8, .cls-9, .cls-10, .cls-11, .cls-4, .cls-12, .cls-13, .cls-14 {
        stroke-width: 0px;
      }

      .cls-2 {
        stroke-width: 4px;
      }

      .cls-6 {
        fill: url(#Dégradé_sans_nom_12-2);
      }

      .cls-7 {
        fill: #000;
      }

      .cls-8 {
        fill: #aadcfa;
      }

      .Style_graphique_3 {
        fill: url(#Dégradé_sans_nom_5);
        stroke: #323232;
      }

      .cls-15 {
        opacity: .2;
      }

      .cls-9 {
        fill: url(#Dégradé_sans_nom_5-2);
      }

      .cls-10 {
        fill: url(#Dégradé_sans_nom_5-3);
      }

      .cls-3 {
        fill: url(#Dégradé_sans_nom_2);
        stroke: #003755;
      }

      .cls-11 {
        fill: #00304b;
      }

      .cls-4 {
        opacity: .3;
      }

      .cls-12 {
        fill: #285977;
      }

      .cls-13 {
        fill: #003755;
      }

      .cls-14 {
        fill: url(#Dégradé_sans_nom_12);
      }
    </style>
    <linearGradient id="Dégradé_sans_nom_5" data-name="Dégradé sans nom 5" x1="17.56" y1="-4.06" x2="26.18" y2="-18.99" gradientTransform="translate(58.01 18) rotate(-180)" gradientUnits="userSpaceOnUse">
      <stop offset="0" stop-color="#fff"/>
      <stop offset="1" stop-color="#d4d5d3"/>
    </linearGradient>
    <linearGradient id="Dégradé_sans_nom_2" data-name="Dégradé sans nom 2" x1="31.22" y1="-8.96" x2="40.62" y2="-25.24" gradientTransform="translate(64 18) rotate(-180)" gradientUnits="userSpaceOnUse">
      <stop offset="0" stop-color="#8cd7f5"/>
      <stop offset="1" stop-color="#376e8c"/>
    </linearGradient>
    <linearGradient id="Dégradé_sans_nom_5-2" data-name="Dégradé sans nom 5" x1="47.28" y1="-33.3" x2="54.31" y2="-21.13" gradientTransform="translate(0 18) scale(1 -1)" xlink:href="#Dégradé_sans_nom_5"/>
    <linearGradient id="Dégradé_sans_nom_5-3" data-name="Dégradé sans nom 5" x1="48.4" y1="-20.95" x2="52.95" y2="-13.08" gradientTransform="translate(0 18) scale(1 -1)" xlink:href="#Dégradé_sans_nom_5"/>
    <linearGradient id="Dégradé_sans_nom_12" data-name="Dégradé sans nom 12" x1="6.97" y1="-33.2" x2="19.66" y2="-33.2" gradientTransform="translate(0 18) scale(1 -1)" gradientUnits="userSpaceOnUse">
      <stop offset="0" stop-color="#82bedc"/>
      <stop offset="1" stop-color="#285a78"/>
    </linearGradient>
    <linearGradient id="Dégradé_sans_nom_12-2" data-name="Dégradé sans nom 12" x1="8.82" y1="-23.42" x2="18.02" y2="-23.42" xlink:href="#Dégradé_sans_nom_12"/>
  </defs>
  <g id="Calque_23_-_copie_19" data-name="Calque 23 - copie 19">
    <g id="Layer_4" data-name="Layer 4">
      <path class="cls-5" d="M31.59,25.02c.21-.25.49-.43.8-.49,0,0,2.68-.69,2.86-.73s.37.02.37.02c0,0-1.2-.27-1.48-.2l-2.75.69c-.31.07-.59.23-.8.48-.2.21-.32.49-.33.79v4.42l1,.59v-4.74c0-.31.13-.6.33-.82h0Z"/>
      <path class="cls-11" d="M35.94,23.96c-.24-.17-.53-.22-.8-.15l-.12.03-2.64.68c-.31.07-.59.24-.8.49-.2.22-.32.51-.33.82v4.74l5-1.2v-4.74c.02-.27-.11-.52-.32-.67h0Z"/>
      <path class="cls-5" d="M39.59,20.02c.21-.25.49-.43.8-.49,0,0,2.68-.69,2.86-.73s.37.02.37.02c0,0-1.2-.27-1.48-.2l-2.75.69c-.31.07-.59.23-.8.48-.2.21-.32.49-.33.79v10.42l1,.59v-10.74c0-.31.13-.6.33-.82h0Z"/>
      <path class="cls-11" d="M43.94,18.96c-.24-.17-.53-.22-.8-.15l-.12.03-2.64.68c-.31.07-.59.24-.8.49-.2.22-.32.51-.33.82v10.74l5-1.2v-10.74c.02-.27-.11-.52-.32-.67h0Z"/>
      <path class="cls-5" d="M47.59,11.02c.21-.25.49-.43.8-.49,0,0,2.68-.69,2.86-.73s.37.02.37.02c0,0-1.2-.27-1.48-.2l-2.75.69c-.31.07-.59.23-.8.48-.2.21-.32.49-.33.79v17.42l1,.59V11.84c0-.31.13-.6.33-.82Z"/>
      <path class="cls-11" d="M51.94,9.96c-.24-.17-.53-.22-.8-.15l-.12.03-2.64.68c-.31.07-.59.24-.8.49-.2.22-.32.51-.33.82v17.74l5-1.2V10.63c.02-.27-.11-.52-.32-.67h0Z"/>
      <g id="ECLAIR_" data-name="ECLAIR ">
        <polygon class="cls-12" points="17.58 29.58 16.58 29.38 16.58 25.53 17.58 25.74 17.58 29.58"/>
        <polygon class="cls-11" points="37.58 11.58 36.72 11.58 33.68 8.58 34.58 8.58 37.58 11.58"/>
        <polygon class="cls-11" points="42.58 16.84 41.7 16.73 38.91 13.72 39.58 13.58 42.58 16.84"/>
        <polygon class="cls-12" points="17.58 25.74 16.58 25.53 24.71 16.29 25.58 16.58 17.58 25.74"/>
        <polygon class="cls-12" points="30.14 19.62 29.42 19.14 36.72 11.58 37.58 11.58 30.14 19.62"/>
        <polygon class="cls-12" points="34.58 8.58 33.68 8.58 43.67 6.58 44.58 6.58 34.58 8.58"/>
        <polygon class="cls-8" points="30.11 23.48 25.58 20.3 17.58 29.58 17.58 25.74 25.58 16.58 30.14 19.62 37.58 11.58 34.58 8.58 44.58 6.58 42.58 16.84 39.58 13.58 30.11 23.48"/>
      </g>
      <g id="EQUERRE_" data-name="EQUERRE ">
        <path class="cls-12" d="M11.9,44.49c-.24-.15-.36-.42-.32-.7l-1-.21c-.02.27.11.53.33.69.08.05.16.09.25.12l1,.19c-.09-.03-.18-.03-.26-.09Z"/>
        <polygon class="cls-5" points="11.57 43.79 10.58 43.55 10.58 14.39 11.59 14.64 11.57 43.79"/>
        <polygon class="cls-8" points="14.58 41.78 13.58 41.53 53.02 32.2 54.02 32.39 14.58 41.78"/>
        <polygon class="cls-8" points="11.59 14.64 10.58 14.39 13.58 13.86 14.58 14.09 11.59 14.64"/>
        <path class="cls-12" d="M14.58,41.78l39.44-9.36v2.53l-41.44,9.63s-.48.05-.71-.11c-.22-.15-.32-.42-.29-.68V14.64l3-.55v27.69Z"/>
      </g>
      <path class="cls-5" d="M23.01,30.3c.21-.25.49-.43.8-.49,0,0,2.68-.69,2.86-.73s.37.02.37.02c0,0-1.2-.27-1.48-.2l-2.75.69c-.31.07-.59.23-.8.48-.2.21-.32.49-.33.79v4.42l1,.59v-4.74c0-.31.13-.6.33-.82h0Z"/>
      <path class="cls-11" d="M27.36,29.24c-.24-.17-.53-.22-.8-.15l-.12.03-2.64.68c-.31.07-.59.24-.8.49-.2.22-.32.51-.33.82v4.74l5-1.2v-4.74c.02-.27-.11-.52-.32-.67h0Z"/>
    </g>
  </g>
  <g id="Calque_19_-_copie_15" data-name="Calque 19 - copie 15">
    <path class="cls-2" d="M42.94,23.7h-13.6c-.72,0-1.3.58-1.3,1.3v3.59h-6.31c-.71,0-1.29.58-1.29,1.29v11.02c0,.71.58,1.29,1.29,1.29h1.93v3.22l3.17-3.22h8.43c.71,0,1.29-.58,1.29-1.29v-5.54h1.27l3.18,4.24v-3.24h1.94c.72,0,1.3-.58,1.3-1.3v-9.07c0-.72-.58-2.3-1.3-2.3Z"/>
  </g>
  <g id="Calque_19_-_copie_10" data-name="Calque 19 - copie 10">
    <g>
      <path class="cls-3" d="M21.73,28.59h13.53c.71,0,1.29.58,1.29,1.29v9.02c0,.71-.58,1.29-1.29,1.29h-8.43s-3.17,3.22-3.17,3.22v-3.22s-1.93,0-1.93,0c-.71,0-1.29-.58-1.29-1.29v-9.02c0-.71.58-1.29,1.29-1.29Z"/>
      <path class="cls-4" d="M21.73,28.91h13.53c.53,0,.97.43.97.97v.64c0-.53-.43-.97-.97-.97h-13.53c-.53,0-.97.43-.97.97v-.64c0-.53.43-.97.97-.97Z"/>
      <g class="cls-15">
        <path class="cls-7" d="M35.26,39.22c.53,0,.97-.43.97-.97v.64c0,.53-.43.97-.97.97h-8.56s-2.71,2.76-2.71,2.76v-.64s2.71-2.76,2.71-2.76h8.56Z"/>
        <path class="cls-7" d="M21.73,39.22h2.25v.64h-2.25c-.53,0-.97-.43-.97-.97v-.64c0,.53.43.97.97.97Z"/>
      </g>
    </g>
    <g>
      <path class="Style_graphique_3" d="M28.05,24.99v9.07c0,.72.58,1.3,1.3,1.3h8.47s3.18,3.24,3.18,3.24v-3.24h1.94c.72,0,1.3-.58,1.3-1.3v-9.07c0-.72-.58-1.3-1.3-1.3h-13.6c-.72,0-1.3.58-1.3,1.3Z"/>
      <path class="cls-4" d="M43.91,24.99v.65c0-.54-.43-.97-.97-.97h-13.6c-.54,0-.97.43-.97.97v-.65c0-.54.43-.97.97-.97h13.6c.54,0,.97.43.97.97Z"/>
      <g class="cls-15">
        <path class="cls-7" d="M37.95,34.38l2.72,2.77v.65s-2.72-2.77-2.72-2.77h-8.61c-.54,0-.97-.43-.97-.97v-.65c0,.54.43.97.97.97h8.61Z"/>
        <path class="cls-7" d="M43.91,33.41v.65c0,.54-.43.97-.97.97h-2.27v-.65h2.27c.54,0,.97-.43.97-.97Z"/>
      </g>
    </g>
  </g>
  <path class="cls-1" d="M19.65,49.18c0-.08,0-.16-.01-.24-.01-.09-.03-.17-.05-.26-.02-.09-.03-.18-.05-.27-.01-.04-.03-.08-.04-.12-.27-.95-.86-1.71-1.68-2.27,0,0-.02-.01-.03-.02-.13-.09-.26-.17-.4-.25-.13-.07-.26-.13-.4-.19-.02,0-.04-.02-.06-.03-.29-.13-.59-.23-.91-.33.89-.61,1.54-1.54,1.82-2.61.02-.08.06-.16.08-.24.03-.15.03-.31.05-.47.02-.15.05-.3.05-.46h0c0-2.55-2.06-4.61-4.6-4.61s-4.6,2.06-4.6,4.6c0,0,0,0,0,0s0,0,0,0c0,1.55.77,2.91,1.94,3.74-2.24.6-3.78,2.05-3.78,4.31h0v6.35c0,.92,3.17,1.73,6.35,1.73,3.65,0,6.35-.81,6.35-1.73v-6.34h0c0-.11-.01-.21-.02-.31Z"/>
  <g id="BLEU_MILIEU_copy_2" data-name="BLEU MILIEU copy 2">
    <path class="cls-1" d="M56.82,42.68c0-.08,0-.17-.01-.24,0-.08-.03-.16-.04-.24-.02-.09-.03-.18-.05-.27-.01-.04-.03-.08-.04-.12-.03-.13-.07-.25-.12-.37,0,0,0,0,0,0-.3-.77-.84-1.4-1.54-1.87,0,0-.02-.01-.03-.02-.13-.09-.26-.17-.4-.24-.13-.07-.26-.13-.39-.19-.02,0-.04-.02-.06-.03-.28-.13-.58-.23-.9-.32.88-.61,1.52-1.52,1.8-2.58.02-.08.06-.16.07-.24.03-.15.03-.31.05-.47.01-.15.05-.29.05-.45h0c0-2.52-2.03-4.56-4.54-4.56s-4.54,2.03-4.54,4.54c0,0,0,0,0,0s0,0,0,0c0,1.53.76,2.87,1.91,3.69-2.21.59-3.74,2.03-3.74,4.26h0v6.27c0,.91,3.13,1.71,6.27,1.71,3.6,0,6.27-.8,6.27-1.71v-6.26h0c0-.11-.01-.2-.02-.3Z"/>
    <g id="CORPS_copy_2" data-name="CORPS copy 2">
      <path class="cls-9" d="M50.57,38.4c-3.48,0-6.27,1.56-6.27,4.58v6.27c0,.91,3.13,1.71,6.27,1.71,3.6,0,6.27-.8,6.27-1.71v-6.27c0-3.01-2.77-4.58-6.27-4.58Z"/>
      <g id="ok_contour" data-name="ok contour">
        <path class="cls-7" d="M50.68,38.78c2.83,0,5.85,1.12,5.85,4.24v6.22c0,.48-2.01,1.39-5.86,1.39-3.43,0-6.05-.92-6.05-1.39v-6.25c0-3.13,3.27-4.24,6.06-4.24M50.68,38.43c-3.46,0-6.37,1.55-6.37,4.55v6.22c0,.9,3.27,1.7,6.36,1.7,3.58,0,6.17-.8,6.17-1.7v-6.22c0-3-2.69-4.55-6.16-4.55Z"/>
      </g>
    </g>
    <g id="tete_ok_AV_copy_4" data-name="tete ok AV copy 4">
      <path class="cls-10" d="M55.22,35.02c0-2.51-2.03-4.54-4.54-4.54s-4.54,2.03-4.54,4.54,2.03,4.54,4.54,4.54c2.51,0,4.54-2.03,4.54-4.53,0,0,0,0,0-.01Z"/>
      <g id="tete_contour_" data-name="tete contour ">
        <path class="cls-7" d="M50.67,30.82c2.34,0,4.23,1.89,4.24,4.22,0,2.34-1.89,4.23-4.22,4.24-2.34,0-4.23-1.89-4.24-4.22,0-.01,0-.02,0-.04,0-2.33,1.89-4.22,4.22-4.22M50.67,30.48c-2.51,0-4.54,2.03-4.54,4.54s2.03,4.54,4.54,4.54c2.51,0,4.54-2.03,4.54-4.54,0,0,0,0,0,0,0-2.51-2.03-4.54-4.54-4.54,0,0,0,0,0,0Z"/>
      </g>
    </g>
    <g id="highlight-2">
      <path class="cls-4" d="M55.59,49.53v-6c.18-1.83-1.88-3.69-3.13-3.69,1.04.92,1.51,2.32,1.25,3.69v6.47c.66.04,1.31-.12,1.88-.46Z"/>
      <path class="cls-4" d="M52.62,32.75c.33.66.42,1.29.2,1.4s-.67-.34-1-1.02-.42-1.29-.2-1.4.66.35,1,1.02Z"/>
    </g>
  </g>
  <g id="BLEU_MILIEU_copy_2-2" data-name="BLEU MILIEU copy 2">
    <g id="CORPS_copy_2-2" data-name="CORPS copy 2">
      <path class="cls-14" d="M13.32,44.85c-3.53,0-6.35,1.58-6.35,4.63v6.35c0,.92,3.17,1.73,6.35,1.73,3.65,0,6.35-.81,6.35-1.73v-6.35c0-3.05-2.81-4.63-6.35-4.63Z"/>
      <g id="ok_contour-2" data-name="ok contour">
        <path class="cls-13" d="M13.42,45.23c2.86,0,5.92,1.13,5.92,4.29v6.3c0,.49-2.04,1.4-5.93,1.4-3.48,0-6.13-.93-6.13-1.4v-6.33c0-3.17,3.31-4.29,6.14-4.29M13.42,44.88c-3.5,0-6.46,1.57-6.46,4.61v6.3c0,.91,3.31,1.72,6.44,1.72,3.63,0,6.25-.81,6.25-1.72v-6.3c0-3.03-2.73-4.61-6.24-4.61Z"/>
      </g>
    </g>
    <g id="tete_ok_AV_copy_4-2" data-name="tete ok AV copy 4">
      <path class="cls-6" d="M18.02,41.42c0-2.54-2.06-4.6-4.6-4.6s-4.6,2.06-4.6,4.6,2.06,4.6,4.6,4.6c2.54,0,4.6-2.05,4.6-4.59,0,0,0,0,0-.01Z"/>
      <g id="tete_contour_-2" data-name="tete contour ">
        <path class="cls-13" d="M13.42,37.17c2.37,0,4.29,1.91,4.29,4.28,0,2.37-1.91,4.29-4.28,4.29-2.37,0-4.29-1.91-4.29-4.28,0-.01,0-.03,0-.04,0-2.36,1.92-4.27,4.28-4.28M13.42,36.82c-2.54,0-4.6,2.06-4.6,4.6s2.06,4.6,4.6,4.6c2.54,0,4.6-2.06,4.6-4.6,0,0,0,0,0,0,0-2.54-2.06-4.6-4.6-4.6,0,0,0,0,0,0Z"/>
      </g>
    </g>
    <g id="highlight-2-2" data-name="highlight-2">
      <path class="cls-4" d="M18.39,56.12v-6.08c.18-1.85-1.9-3.73-3.17-3.73,1.05.93,1.53,2.35,1.27,3.73v6.55c.67.04,1.33-.12,1.9-.47Z"/>
      <path class="cls-4" d="M15.39,39.13c.34.67.43,1.31.2,1.42s-.68-.34-1.01-1.03-.43-1.31-.2-1.42.67.36,1.01,1.03Z"/>
    </g>
  </g>
</svg>