<?xml version="1.0" encoding="UTF-8"?>
<svg id="i" data-name="IT 4" xmlns="http://www.w3.org/2000/svg" xmlns:xlink="http://www.w3.org/1999/xlink" viewBox="0 0 64 64">
  <defs>
    <linearGradient id="a" x1="386.5" y1="-855.84" x2="396.75" y2="-855.84" gradientTransform="translate(363.5 914.59) rotate(-45)" gradientUnits="userSpaceOnUse">
      <stop offset="0" stop-color="#464646"/>
      <stop offset="1" stop-color="#141414"/>
    </linearGradient>
    <linearGradient id="d" x1="37.87" y1="8.58" x2="46.68" y2="23.82" gradientUnits="userSpaceOnUse">
      <stop offset="0" stop-color="#d7d7d7"/>
      <stop offset="1" stop-color="#969696"/>
    </linearGradient>
    <linearGradient id="f" x1="14.41" y1="25.05" x2="23.59" y2="40.95" gradientUnits="userSpaceOnUse">
      <stop offset="0" stop-color="#aaa"/>
      <stop offset="1" stop-color="#5a5a5a"/>
    </linearGradient>
    <linearGradient id="k" x1="20.63" y1="12.31" x2="43.37" y2="51.69" gradientUnits="userSpaceOnUse">
      <stop offset="0" stop-color="#3287af"/>
      <stop offset="1" stop-color="#285a78"/>
    </linearGradient>
    <linearGradient id="l" x1="38.74" y1="9.52" x2="49.53" y2="28.21" gradientUnits="userSpaceOnUse">
      <stop offset="0" stop-color="#fff"/>
      <stop offset="1" stop-color="#d2d2d2"/>
    </linearGradient>
    <linearGradient id="m" x1="40.56" y1="24.25" x2="42.3" y2="27.28" xlink:href="#k"/>
    <linearGradient id="n" x1="42.91" y1="25.05" x2="43.95" y2="26.85" xlink:href="#k"/>
    <linearGradient id="o" x1="37.77" y1="21.71" x2="41.09" y2="27.46" xlink:href="#k"/>
    <linearGradient id="p" x1="36.07" y1="23.54" x2="38.8" y2="28.27" xlink:href="#k"/>
    <linearGradient id="q" x1="34.36" y1="25.37" x2="36.5" y2="29.07" xlink:href="#k"/>
    <linearGradient id="r" x1="47.42" y1="11.55" x2="50.33" y2="16.6" xlink:href="#k"/>
    <linearGradient id="s" x1="38.1" y1="13.15" x2="41.21" y2="18.54" xlink:href="#k"/>
    <linearGradient id="t" x1="16.74" y1="44" x2="42.05" y2="44" xlink:href="#l"/>
    <linearGradient id="u" x1="30.9" y1="39.81" x2="52.98" y2="39.81" xlink:href="#l"/>
    <linearGradient id="v" x1="16.99" y1="43.63" x2="42.05" y2="43.63" xlink:href="#l"/>
    <linearGradient id="w" x1="30.9" y1="39.77" x2="53.4" y2="39.77" xlink:href="#l"/>
    <linearGradient id="x" x1="17.62" y1="42.93" x2="42.05" y2="42.93" xlink:href="#l"/>
    <linearGradient id="y" x1="30.9" y1="39.27" x2="53.64" y2="39.27" xlink:href="#l"/>
    <linearGradient id="z" x1="19.75" y1="19.83" x2="22.25" y2="24.17" xlink:href="#f"/>
    <linearGradient id="aa" x1="26.75" y1="24.83" x2="29.25" y2="29.17" xlink:href="#f"/>
    <linearGradient id="ab" x1="27.75" y1="32.83" x2="30.25" y2="37.17" xlink:href="#f"/>
    <linearGradient id="ac" x1="9.75" y1="40.83" x2="12.25" y2="45.17" xlink:href="#f"/>
    <linearGradient id="ad" x1="11.75" y1="23.83" x2="14.25" y2="28.17" xlink:href="#f"/>
    <linearGradient id="ae" x1="7.75" y1="31.83" x2="10.25" y2="36.17" xlink:href="#f"/>
    <linearGradient id="af" x1="17.75" y1="43.83" x2="20.25" y2="48.17" xlink:href="#f"/>
    <linearGradient id="ag" x1="24.75" y1="39.83" x2="27.25" y2="44.17" xlink:href="#f"/>
    <linearGradient id="ah" x1="16.41" y1="27.05" x2="25.59" y2="42.95" xlink:href="#f"/>
  </defs>
  <g id="j" data-name="BKG Lake">
    <path d="M50.9,46.19l-15.95,9.01c-1.83,1.04-4.07,1.04-5.91,0l-15.95-9.01c-1.92-1.08-3.1-3.1-3.1-5.29v-17.79c0-2.19,1.18-4.21,3.1-5.29l15.95-9.01c1.83-1.04,4.07-1.04,5.91,0l15.95,9.01c1.92,1.08,3.1,3.1,3.1,5.29v17.79c0,2.19-1.18,4.21-3.1,5.29Z" fill="none" stroke="url(#k)" stroke-miterlimit="10" stroke-width="2"/>
    <path d="M32,10.02c-.68,0-1.36.17-1.97.51l-15.95,9.01c-1.29.73-2.08,2.09-2.08,3.55v17.79c0,1.46.8,2.82,2.08,3.55l15.95,9.01c1.21.69,2.72.69,3.94,0l15.95-9.01c1.29-.73,2.08-2.09,2.08-3.55v-17.79c0-1.46-.8-2.82-2.08-3.55l-15.95-9.01c-.61-.34-1.29-.51-1.97-.51Z" fill="#fff" opacity=".3"/>
  </g>
  <g>
    <g>
      <path d="M54.86,7.78h0s-1.35-1-1.63-1.12c0,0-.05-.02-.05-.02-.35-.13-.73-.18-1.13-.09l-17.61,4.13c-1.14.27-1.95,1.31-1.95,2.51v15.75c0,.71.34,1.31.84,1.68l.68.52h0c.38.32.91.47,1.44.3l18.65-5.92c.83-.26,1.39-1.03,1.39-1.9v-14.62c0-.51-.26-.95-.64-1.22Z" fill="#fff" opacity=".75" stroke="#fff" stroke-linejoin="round" stroke-width="3"/>
      <path d="M33.5,30V13.7c0-.93.65-1.74,1.56-1.94l18.61-4.22c.44-.1.86,0,1.19.24h0s-1.35-1-1.63-1.12c0,0-.05-.02-.05-.02-.35-.13-.73-.18-1.13-.09l-17.61,4.13c-1.14.27-1.95,1.31-1.95,2.51v15.75c0,.71.34,1.31.84,1.68l.68.52h0c-.31-.28-.52-.67-.52-1.13Z" fill="url(#d)" stroke="#787878" stroke-linejoin="round"/>
      <path d="M35.45,31.43l18.65-5.92c.83-.26,1.39-1.03,1.39-1.9v-14.62c0-.96-.89-1.67-1.83-1.46l-18.61,4.22c-.91.21-1.56,1.01-1.56,1.94v16.31c0,1.01.99,1.73,1.95,1.43Z" fill="url(#l)" stroke="#787878" stroke-linejoin="round"/>
      <path d="M54.86,7.78h0s-1.35-1-1.63-1.12c0,0-.05-.02-.05-.02-.35-.13-.73-.18-1.13-.09l-17.61,4.13c-1.14.27-1.95,1.31-1.95,2.51v15.75c0,.71.34,1.31.84,1.68l.68.52h0c.38.32.91.47,1.44.3l18.65-5.92c.83-.26,1.39-1.03,1.39-1.9v-14.62c0-.51-.26-.95-.64-1.22Z" fill="none" stroke="#323232" stroke-linejoin="round"/>
    </g>
    <polygon points="48.31 20.3 46 24.54 46 26.08 46.36 25.97 48.69 21.7 51.21 23.21 52.65 20.32 54 21 54 17 50.5 19.2 51.75 19.88 50.79 21.79 48.31 20.3" fill="#646464" opacity=".5"/>
    <g>
      <polygon points="42 24 42 27.45 41 27.77 41 24 42 24" fill="url(#m)"/>
      <polygon points="44 25 44 26.82 43 27.14 43 25 44 25" fill="url(#n)"/>
      <polygon points="40 21 40 28.09 39 28.41 39 21 40 21" fill="url(#o)"/>
      <polygon points="38 23 38 28.73 37 29.05 37 23 38 23" fill="url(#p)"/>
      <polygon points="36 25 36 29.36 35 29.68 35 25 36 25" fill="url(#q)"/>
    </g>
    <g>
      <path d="M52.94,12.26l-2.94.74v-2.99c.7-.05,1.41.15,1.98.61.52.43.85,1.01.96,1.64Z" fill="#646464" opacity=".5"/>
      <path d="M50.24,13.97l-1.24.31v-3.27c-.83.05-1.66.45-2.25,1.16-1.1,1.31-.97,3.2.27,4.21,1.25,1.01,3.14.76,4.23-.55.57-.68.79-1.51.71-2.29l-1.72.43Z" fill="url(#r)"/>
    </g>
    <g>
      <path d="M35.5,20s1-5.5,3-6.5,1.5,5,3.5,4,2-5.5,2-5.5" fill="none" stroke="url(#s)" stroke-linecap="round" stroke-miterlimit="10"/>
      <path d="M35,18s1.5-2.5,3.5-2.5,1.5,1,3.5,1,2.5-1.5,2.5-1.5" fill="none" opacity=".5" stroke="#646464" stroke-linecap="round" stroke-miterlimit="10"/>
    </g>
  </g>
  <g>
    <g>
      <path d="M42.05,47.22s-4.59,1.06-6.43,1.79c-2.88,1.14-6.28,4.74-6.28,4.74l-12.59-12.47s4.83-5.43,7.61-6.03c2.78-.61,6.55-1,6.55-1l11.14,12.98Z" fill="url(#t)" stroke="#787878" stroke-linecap="round" stroke-linejoin="round"/>
      <path d="M52.98,44.12s-1.66.21-5.59,1.06c-2.85.62-5.34,2.22-5.34,2.22l-11.14-13.04s3.6-2.05,5.92-2.1c4.44-.09,5.4.03,5.4.03l10.75,11.82Z" fill="url(#u)" stroke="#787878" stroke-linecap="round" stroke-linejoin="round"/>
      <path d="M42.05,47.46s-3.74.15-6.67,1.15c-2.93,1-5.8,4.16-5.8,4.16l-12.59-13.08s4.59-3.6,7.37-4.21,6.55-1,6.55-1l11.14,12.98Z" fill="url(#v)" stroke="#787878" stroke-linecap="round" stroke-linejoin="round"/>
      <path d="M53.4,43.69s-3.35-.18-6.1.79-5.25,2.92-5.25,2.92l-11.14-13.04s3.6-2.05,5.92-2.1c4.44-.09,6.31-.12,6.31-.12l10.27,11.55Z" fill="url(#w)" stroke="#787878" stroke-linecap="round" stroke-linejoin="round"/>
      <path d="M42.05,47.46s-3.99-.73-6.91.27c-2.93,1-5.19,3.9-5.19,3.9l-12.32-14.05s4.02-2.5,6.79-3.11c2.78-.61,6.49,0,6.49,0l11.14,12.98Z" fill="url(#x)" stroke="#787878" stroke-linecap="round" stroke-linejoin="round"/>
      <path d="M53.64,43.27s-3.53-.55-6.28.43-5.31,3.71-5.31,3.71l-11.14-13.04s3.35-2.07,5.56-2.8c2.42-.79,7.04-.21,7.04-.21l10.15,11.91Z" fill="url(#y)" stroke="#787878" stroke-linecap="round" stroke-linejoin="round"/>
      <path d="M53.4,43.69l-.45-.5c.43.04.69.08.69.08l-10.15-11.91s-4.62-.58-7.04.21c-2.03.66-5.02,2.47-5.49,2.75l-.07-.08s-.39.04-1,.12c-1.29-.14-3.61-.28-5.49.13-2.78.61-6.79,3.11-6.79,3.11l.88,1c-.9.63-1.51,1.11-1.51,1.11l.63.65c-.53.56-.87.93-.87.93l12.59,12.47s3.4-3.6,6.28-4.74c1.17-.46,3.44-1.06,4.94-1.43.89-.09,1.49-.12,1.49-.12l-.17-.2s.03,0,.04-.01l.13.15s2.5-1.6,5.34-2.22c3.93-.85,5.59-1.06,5.59-1.06l-.4-.44c.51,0,.82.01.82.01Z" fill="none" stroke="#323232" stroke-linecap="round" stroke-linejoin="round"/>
      <path d="M28.98,47.87c.12-.28,3.04-3.04,8.36-3.04" fill="none" stroke="#787878" stroke-linecap="round" stroke-miterlimit="10"/>
      <path d="M27.46,45.59c.12-.28,3.04-3.04,8.36-3.04" fill="none" stroke="#787878" stroke-linecap="round" stroke-miterlimit="10"/>
      <path d="M25.18,43.31c.12-.28,3.04-3.04,8.36-3.04" fill="none" stroke="#787878" stroke-linecap="round" stroke-miterlimit="10"/>
      <path d="M22.9,41.03c.12-.28,3.04-3.04,8.36-3.04" fill="none" stroke="#787878" stroke-linecap="round" stroke-miterlimit="10"/>
      <g>
        <path d="M43.56,39.77c-1.99.08-4.37-.64-5.32-1.59-.94-.96-.22-1.75,1.61-1.77s4.22.7,5.32,1.59c1.1.89.37,1.69-1.61,1.77ZM40.57,37.06c-1.14.02-1.58.5-.99,1.08s2.05,1.02,3.25.97c1.2-.04,1.64-.52.99-1.08-.65-.55-2.11-.99-3.25-.97Z" fill="#646464"/>
        <path d="M39.83,35.81c.2.18.08.33-.28.33-.35,0-.8-.14-1-.33-.2-.18-.07-.33.28-.33s.8.15,1,.33Z" fill="#646464"/>
        <path d="M36.96,36.27c.38.13.6.34.48.48s-.54.14-.92.01c-.38-.13-.59-.35-.47-.48s.53-.14.91,0Z" fill="#646464"/>
        <path d="M36.68,37.87c.37,0,.82.14,1,.33s.02.35-.35.36c-.38.01-.82-.14-1-.33s-.02-.35.35-.36Z" fill="#646464"/>
        <path d="M39.3,39.62c.14-.14.58-.16.98-.04.4.12.62.33.48.48-.14.14-.59.16-.99.04-.4-.12-.61-.34-.47-.48Z" fill="#646464"/>
        <path d="M43.5,40.4c-.2-.18-.04-.34.35-.36.39-.02.87.12,1.07.29.2.18.04.34-.35.36-.4.02-.87-.11-1.07-.29Z" fill="#646464"/>
        <path d="M46.7,39.81c-.42-.11-.66-.31-.54-.45.12-.13.56-.15.98-.04s.67.31.55.44-.57.15-.99.04Z" fill="#646464"/>
        <path d="M46.8,38.29c-.38.01-.85-.12-1.07-.29-.22-.17-.09-.32.28-.33.37,0,.85.12,1.07.29s.1.32-.28.33Z" fill="#646464"/>
        <path d="M43.86,36.67c-.1.13-.52.13-.92.01-.4-.12-.64-.32-.54-.45.1-.13.51-.13.91,0,.4.12.65.32.55.44Z" fill="#646464"/>
      </g>
    </g>
    <g>
      <path d="M29.49,32.55c-.02-1.15-.21-2.25-.54-3.24.91-.37,1.55-1.27,1.55-2.31,0-1.38-1.12-2.5-2.5-2.5-.79,0-1.48.37-1.94.94-.7-1.07-1.63-1.91-2.78-2.42.14-.31.22-.66.22-1.02,0-1.38-1.12-2.5-2.5-2.5s-2.5,1.12-2.5,2.5c0,.3.06.58.16.85-1.2.38-2.39,1.05-3.46,1.98-.42-.79-1.24-1.33-2.2-1.33-1.38,0-2.5,1.12-2.5,2.5,0,1.15.78,2.11,1.84,2.4-.29.52-.56,1.07-.8,1.64-.31.76-.54,1.52-.71,2.27-.46-.5-1.11-.81-1.84-.81-1.38,0-2.5,1.12-2.5,2.5s1.12,2.5,2.5,2.5c.58,0,1.11-.21,1.53-.54.11,1.83.65,3.49,1.55,4.79-.33-.16-.69-.25-1.08-.25-1.38,0-2.5,1.12-2.5,2.5s1.12,2.5,2.5,2.5,2.5-1.12,2.5-2.5c0-.31-.06-.61-.17-.88.19.16.4.3.61.44.7,1.07,1.63,1.91,2.78,2.42-.14.31-.22.66-.22,1.02,0,1.38,1.12,2.5,2.5,2.5s2.5-1.12,2.5-2.5c0-.3-.06-.58-.16-.85.97-.3,1.93-.79,2.82-1.46.46.5,1.11.81,1.83.81,1.38,0,2.5-1.12,2.5-2.5,0-.84-.41-1.57-1.04-2.02.38-.63.71-1.3,1-2.02.07-.16.12-.33.18-.49.12.02.24.04.36.04,1.38,0,2.5-1.12,2.5-2.5,0-1.21-.86-2.22-2.01-2.45ZM16.17,33.17c1.46-3.44,4.8-5.42,7.46-4.4.09.03.18.08.26.12.8,1.6.83,3.81-.07,5.95-1.46,3.44-4.8,5.42-7.46,4.4-.09-.03-.18-.08-.26-.12-.8-1.6-.83-3.81.07-5.95Z" fill="#fff" opacity=".5" stroke="#fff" stroke-linejoin="round" stroke-width="3"/>
      <g>
        <path d="M23.07,22.93c-4.12-1.63-9.28,1.55-11.53,7.12-2.25,5.56-.73,11.4,3.39,13.03,4.12,1.63,9.28-1.55,11.53-7.12,2.25-5.56.73-11.4-3.39-13.03ZM23.83,34.83c-1.46,3.44-4.8,5.42-7.46,4.4-2.67-1.01-3.65-4.62-2.19-8.07s4.8-5.42,7.46-4.4c2.67,1.01,3.65,4.62,2.19,8.07Z" fill="url(#f)" stroke="#323232" stroke-linejoin="round"/>
        <circle cx="21" cy="22" r="2.5" fill="url(#z)" stroke="#323232" stroke-linejoin="round"/>
        <circle cx="28" cy="27" r="2.5" fill="url(#aa)" stroke="#323232" stroke-linejoin="round"/>
        <circle cx="29" cy="35" r="2.5" fill="url(#ab)" stroke="#323232" stroke-linejoin="round"/>
        <circle cx="11" cy="43" r="2.5" fill="url(#ac)" stroke="#323232" stroke-linejoin="round"/>
        <circle cx="13" cy="26" r="2.5" fill="url(#ad)" stroke="#323232" stroke-linejoin="round"/>
        <circle cx="9" cy="34" r="2.5" fill="url(#ae)" stroke="#323232" stroke-linejoin="round"/>
        <circle cx="19" cy="46" r="2.5" fill="url(#af)" stroke="#323232" stroke-linejoin="round"/>
        <circle cx="26" cy="42" r="2.5" fill="url(#ag)" stroke="#323232" stroke-linejoin="round"/>
        <path d="M25.07,24.93c-4.12-1.63-9.28,1.55-11.53,7.12-2.25,5.56-.73,11.4,3.39,13.03,4.12,1.63,9.28-1.55,11.53-7.12,2.25-5.56.73-11.4-3.39-13.03ZM25.83,36.83c-1.46,3.44-4.8,5.42-7.46,4.4-2.67-1.01-3.65-4.62-2.19-8.07s4.8-5.42,7.46-4.4c2.67,1.01,3.65,4.62,2.19,8.07Z" fill="url(#ah)" stroke="#323232" stroke-linejoin="round"/>
      </g>
    </g>
    <g>
      <g opacity=".5">
        <path d="M34,37.5c-.11,0-.22-.04-.32-.11l-8-6.5c-.12-.1-.18-.24-.18-.39s.07-.29.18-.39l8-6.5c.09-.07.2-.11.32-.11.07,0,.15.02.21.05.17.08.29.26.29.45v3.47s.06,0,.09,0c1.85,0,7.91.69,7.91,9.53,0,.23-.15.42-.37.48-.04.01-.09.02-.13.02-.17,0-.34-.09-.43-.25-.02-.04-2.29-3.86-6.3-3.86-.25,0-.51.02-.76.04v3.57c0,.19-.11.37-.29.45-.07.03-.14.05-.21.05Z" fill="#fff"/>
        <path d="M34,24v4s.22-.03.59-.03c1.85,0,7.41.69,7.41,9.03,0,0-2.38-4.11-6.74-4.11-.4,0-.83.04-1.26.11v4l-8-6.5,8-6.5M34,23c-.23,0-.45.08-.63.22l-8,6.5c-.23.19-.37.47-.37.78s.14.59.37.78l8,6.5c.18.15.41.22.63.22.15,0,.29-.03.43-.1.35-.17.57-.52.57-.9v-3.11c.09,0,.18,0,.26,0,3.74,0,5.85,3.58,5.87,3.61.18.31.52.5.87.5.09,0,.17-.01.26-.03.44-.12.74-.51.74-.97,0-7.15-4.06-9.85-8-10.02v-2.98c0-.39-.22-.74-.57-.9-.14-.07-.28-.1-.43-.1h0Z" fill="#fff"/>
      </g>
      <path d="M34,24v4s8-1,8,9c0,0-3-5-8-4v4l-8-6.5,8-6.5Z" fill="url(#a)"/>
    </g>
  </g>
</svg>