<?xml version="1.0" encoding="utf-8"?>
<!-- Generator: Adobe Illustrator 27.5.0, SVG Export Plug-In . SVG Version: 6.00 Build 0)  -->
<svg version="1.1" xmlns="http://www.w3.org/2000/svg" xmlns:xlink="http://www.w3.org/1999/xlink" x="0px" y="0px"
	 viewBox="0 0 128 128" enable-background="new 0 0 128 128" xml:space="preserve">
<filter  height="200%" id="DS_GaussianBlur_2" width="200%" x="-50%" y="-50%">
	<feGaussianBlur  stdDeviation="1"></feGaussianBlur>
</filter>
<pattern  x="44" y="-424" width="20" height="20" patternUnits="userSpaceOnUse" id="New_Pattern_Swatch_2" viewBox="22.1 -42.1 20 20" overflow="visible">
	<g>
		<rect x="22.1" y="-42.1" fill="none" width="20" height="20"/>
		
			<rect x="49.1" y="-26.3" transform="matrix(0.7071 -0.7071 0.7071 0.7071 23.837 33.3051)" fill="#844138" width="6" height="28.3"/>
		
			<rect x="29.1" y="-26.3" transform="matrix(0.7071 -0.7071 0.7071 0.7071 17.9792 19.163)" fill="#844138" width="6" height="28.3"/>
		
			<rect x="9.1" y="-26.3" transform="matrix(0.7071 -0.7071 0.7071 0.7071 12.1213 5.0208)" fill="#844138" width="6" height="28.3"/>
		
			<rect x="49.1" y="-46.3" transform="matrix(0.7071 -0.7071 0.7071 0.7071 37.9792 27.4472)" fill="#844138" width="6" height="28.3"/>
		
			<rect x="29.1" y="-46.3" transform="matrix(0.7071 -0.7071 0.7071 0.7071 32.1213 13.3051)" fill="#844138" width="6" height="28.3"/>
		
			<rect x="9.1" y="-46.3" transform="matrix(0.7071 -0.7071 0.7071 0.7071 26.2635 -0.837)" fill="#844138" width="6" height="28.3"/>
		
			<rect x="49.1" y="-66.3" transform="matrix(0.7071 -0.7071 0.7071 0.7071 52.1213 21.5894)" fill="#844138" width="6" height="28.3"/>
		
			<rect x="29.1" y="-66.3" transform="matrix(0.7071 -0.7071 0.7071 0.7071 46.2635 7.4472)" fill="#844138" width="6" height="28.3"/>
		
			<rect x="9.1" y="-66.3" transform="matrix(0.7071 -0.7071 0.7071 0.7071 40.4056 -6.6949)" fill="#844138" width="6" height="28.3"/>
	</g>
</pattern>
<g id="cadre_intouchable" display="none">
	<g display="inline">
		<text transform="matrix(1 0 0 1 -196.9071 -9.7277)"><tspan x="0" y="0" fill="#3D3D3D" font-family="'ArialMT'" font-size="10px">Canvas: 64 x 64 px</tspan><tspan x="0" y="12" fill="#EA4F37" font-family="'ArialMT'" font-size="10px">Artwork: 50 x 50 px max</tspan><tspan x="0" y="24" fill="#844138" font-family="'ArialMT'" font-size="10px">No-go zone :  7 px</tspan></text>
	</g>
	<g display="inline">
		<g id="pedestal_r2021x_00000136390688651490403570000011073179838796966061_">
			<path opacity="0.5" fill="#FFFFFF" d="M-138,129h-62c-0.6,0-1-0.4-1-1V66c0-0.6,0.4-1,1-1h62c0.6,0,1,0.4,1,1v62
				C-137,128.6-137.4,129-138,129z"/>
			<rect x="-200" y="66" fill="#F4F5F6" width="62" height="62"/>
			<rect x="-200" y="66" fill="#D1D4D4" width="2" height="62"/>
		</g>
		<g id="no-go_zone_00000108271943142571693340000012705819280044468395_" opacity="0.3">
			<pattern  id="SVGID_1_" xlink:href="#New_Pattern_Swatch_2" patternTransform="matrix(1 0 0 1 -9 285)"  opacity="0.3">
			</pattern>
			<path fill="url(#SVGID_1_)" d="M-201,65v64h64V65H-201z M-144,122h-50V72h50V122z"/>
		</g>
		<g>
			<path fill="#EA4F37" d="M-144,72v50h-50V72H-144 M-143,71h-1h-50h-1v1v50v1h1h50h1v-1V72V71L-143,71z"/>
		</g>
	</g>
	<g display="inline">
		<g>
			<line fill="none" stroke="#00FF00" stroke-miterlimit="10" x1="-168.8" y1="63.4" x2="-168.8" y2="62.4"/>
			
				<line fill="none" stroke="#00FF00" stroke-miterlimit="10" stroke-dasharray="3.2727,1.0909" x1="-168.8" y1="61.3" x2="-168.8" y2="57.5"/>
			
				<line fill="none" stroke="#00FF00" stroke-miterlimit="10" stroke-dasharray="1.0909,1.0909,3.2727,1.0909" x1="-168.8" y1="56.9" x2="-168.8" y2="50.9"/>
			<line fill="none" stroke="#00FF00" stroke-miterlimit="10" x1="-168.8" y1="50.4" x2="-168.8" y2="49.4"/>
		</g>
	</g>
	<g display="inline">
		<g>
			<line fill="none" stroke="#00FF00" stroke-miterlimit="10" x1="-168.8" y1="143.4" x2="-168.8" y2="142.4"/>
			
				<line fill="none" stroke="#00FF00" stroke-miterlimit="10" stroke-dasharray="3.2727,1.0909" x1="-168.8" y1="141.3" x2="-168.8" y2="137.5"/>
			
				<line fill="none" stroke="#00FF00" stroke-miterlimit="10" stroke-dasharray="1.0909,1.0909,3.2727,1.0909" x1="-168.8" y1="136.9" x2="-168.8" y2="130.9"/>
			<line fill="none" stroke="#00FF00" stroke-miterlimit="10" x1="-168.8" y1="130.4" x2="-168.8" y2="129.4"/>
		</g>
	</g>
	<g display="inline">
		<g>
			<line fill="none" stroke="#00FF00" stroke-miterlimit="10" x1="-135.8" y1="96.4" x2="-134.8" y2="96.4"/>
			
				<line fill="none" stroke="#00FF00" stroke-miterlimit="10" stroke-dasharray="3.2727,1.0909" x1="-133.8" y1="96.4" x2="-129.9" y2="96.4"/>
			
				<line fill="none" stroke="#00FF00" stroke-miterlimit="10" stroke-dasharray="1.0909,1.0909,3.2727,1.0909" x1="-129.4" y1="96.4" x2="-123.4" y2="96.4"/>
			<line fill="none" stroke="#00FF00" stroke-miterlimit="10" x1="-122.8" y1="96.4" x2="-121.8" y2="96.4"/>
		</g>
	</g>
	<g display="inline">
		<g>
			<line fill="none" stroke="#00FF00" stroke-miterlimit="10" x1="-215.8" y1="96.4" x2="-214.8" y2="96.4"/>
			
				<line fill="none" stroke="#00FF00" stroke-miterlimit="10" stroke-dasharray="3.2727,1.0909" x1="-213.8" y1="96.4" x2="-209.9" y2="96.4"/>
			
				<line fill="none" stroke="#00FF00" stroke-miterlimit="10" stroke-dasharray="1.0909,1.0909,3.2727,1.0909" x1="-209.4" y1="96.4" x2="-203.4" y2="96.4"/>
			<line fill="none" stroke="#00FF00" stroke-miterlimit="10" x1="-202.8" y1="96.4" x2="-201.8" y2="96.4"/>
		</g>
	</g>
	<text transform="matrix(1 0 0 1 -166.535 54.8592)" display="inline" fill="#00FF00" font-family="'ArialMT'" font-size="8px">aligned</text>
	<text transform="matrix(1 0 0 1 -127.535 104.8592)" display="inline" fill="#00FF00" font-family="'ArialMT'" font-size="8px">aligned</text>
	<g display="inline">
		<text transform="matrix(1 0 0 1 -4.5015 -65.512)" fill="#3D3D3D" font-family="'ArialMT'" font-size="20px">Canvas: 128x128 px</text>
	</g>
	<g display="inline">
		<g id="pedestal_r2021x_00000164507366155958537070000017834966048353668257_">
			<path opacity="0.5" fill="#FFFFFF" d="M127,128H1c-0.6,0-1-0.4-1-1V1c0-0.6,0.4-1,1-1h126c0.6,0,1,0.4,1,1v126
				C128,127.6,127.6,128,127,128z"/>
			<rect x="2" y="2" fill="#F4F5F6" width="124" height="124"/>
			<rect x="2" y="2" fill="#D1D4D4" width="4" height="124"/>
		</g>
		<g id="no-go_zone_00000100367291736714069940000006927412671190114460_" opacity="0.3">
			
				<pattern  id="SVGID_00000065762913636565443670000006193082528024883892_" xlink:href="#New_Pattern_Swatch_2" patternTransform="matrix(2 0 0 2 8129.8789 8106.1211)"  opacity="0.3">
			</pattern>
			<path fill="url(#SVGID_00000065762913636565443670000006193082528024883892_)" d="M0,0v128h128V0H0z M114,114H14V14h100V114z"/>
		</g>
		<g>
			<path fill="#EA4F37" d="M114,14v100H14V14H114 M115,13h-1H14h-1v1v100v1h1h100h1v-1V14V13L115,13z"/>
		</g>
	</g>
	<g display="inline">
		<g>
			<line fill="none" stroke="#00FF00" stroke-miterlimit="10" x1="63.6" y1="-1.3" x2="63.6" y2="-2.3"/>
			
				<line fill="none" stroke="#00FF00" stroke-miterlimit="10" stroke-dasharray="7.0909,2.3636" x1="63.6" y1="-4.7" x2="63.6" y2="-13"/>
			
				<line fill="none" stroke="#00FF00" stroke-miterlimit="10" stroke-dasharray="2.3636,2.3636,7.0909,2.3636" x1="63.6" y1="-14.1" x2="63.6" y2="-27.1"/>
			<line fill="none" stroke="#00FF00" stroke-miterlimit="10" x1="63.6" y1="-28.3" x2="63.6" y2="-29.3"/>
		</g>
	</g>
	<g display="inline">
		<g>
			<line fill="none" stroke="#00FF00" stroke-miterlimit="10" x1="63.6" y1="158.7" x2="63.6" y2="157.7"/>
			
				<line fill="none" stroke="#00FF00" stroke-miterlimit="10" stroke-dasharray="7.0909,2.3636" x1="63.6" y1="155.3" x2="63.6" y2="147"/>
			
				<line fill="none" stroke="#00FF00" stroke-miterlimit="10" stroke-dasharray="2.3636,2.3636,7.0909,2.3636" x1="63.6" y1="145.9" x2="63.6" y2="132.9"/>
			<line fill="none" stroke="#00FF00" stroke-miterlimit="10" x1="63.6" y1="131.7" x2="63.6" y2="130.7"/>
		</g>
	</g>
	<g display="inline">
		<g>
			<line fill="none" stroke="#00FF00" stroke-miterlimit="10" x1="129.6" y1="64.7" x2="130.6" y2="64.7"/>
			
				<line fill="none" stroke="#00FF00" stroke-miterlimit="10" stroke-dasharray="7.0909,2.3636" x1="133" y1="64.7" x2="141.3" y2="64.7"/>
			
				<line fill="none" stroke="#00FF00" stroke-miterlimit="10" stroke-dasharray="2.3636,2.3636,7.0909,2.3636" x1="142.4" y1="64.7" x2="155.4" y2="64.7"/>
			<line fill="none" stroke="#00FF00" stroke-miterlimit="10" x1="156.6" y1="64.7" x2="157.6" y2="64.7"/>
		</g>
	</g>
	<g display="inline">
		<g>
			<line fill="none" stroke="#00FF00" stroke-miterlimit="10" x1="-30.4" y1="64.7" x2="-29.4" y2="64.7"/>
			
				<line fill="none" stroke="#00FF00" stroke-miterlimit="10" stroke-dasharray="7.0909,2.3636" x1="-27" y1="64.7" x2="-18.7" y2="64.7"/>
			
				<line fill="none" stroke="#00FF00" stroke-miterlimit="10" stroke-dasharray="2.3636,2.3636,7.0909,2.3636" x1="-17.6" y1="64.7" x2="-4.6" y2="64.7"/>
			<line fill="none" stroke="#00FF00" stroke-miterlimit="10" x1="-3.4" y1="64.7" x2="-2.4" y2="64.7"/>
		</g>
	</g>
	<text transform="matrix(1 0 0 1 68.2426 -18.3382)" display="inline" fill="#00FF00" font-family="'ArialMT'" font-size="16px">aligned</text>
	<text transform="matrix(1 0 0 1 146.2426 81.6618)" display="inline" fill="#00FF00" font-family="'ArialMT'" font-size="16px">aligned</text>
</g>
<g id="analytics">
	<g>
		<g>
			
				<linearGradient id="SVGID_00000054964995659502652090000001442202618562555048_" gradientUnits="userSpaceOnUse" x1="-184.3941" y1="104.3889" x2="-181.2907" y2="109.7641">
				<stop  offset="0" style="stop-color:#AAAAAA"/>
				<stop  offset="1" style="stop-color:#5A5A5A"/>
			</linearGradient>
			<polygon fill="url(#SVGID_00000054964995659502652090000001442202618562555048_)" points="-187.4,106.1 -187.4,111.2 -178.2,108 
				-178.2,103.1 			"/>
		</g>
		<g>
			
				<linearGradient id="SVGID_00000170258159531194942450000001404059628699916172_" gradientUnits="userSpaceOnUse" x1="-185.4303" y1="94.1001" x2="-180.2775" y2="103.0251">
				<stop  offset="0" style="stop-color:#D7D7D7"/>
				<stop  offset="1" style="stop-color:#969696"/>
			</linearGradient>
			<polygon fill="url(#SVGID_00000170258159531194942450000001404059628699916172_)" points="-178.2,92.3 -187.4,95.2 -187.4,104.9 
				-178.2,101.8 			"/>
		</g>
		<g>
			
				<linearGradient id="SVGID_00000085950714226919782220000015580769338054921377_" gradientUnits="userSpaceOnUse" x1="-185.2225" y1="84.6675" x2="-180.6849" y2="92.5269">
				<stop  offset="0" style="stop-color:#AAAAAA"/>
				<stop  offset="1" style="stop-color:#5A5A5A"/>
			</linearGradient>
			<polygon fill="url(#SVGID_00000085950714226919782220000015580769338054921377_)" points="-178.2,91.1 -178.2,83.6 -187.4,85.9 
				-187.4,94 			"/>
		</g>
		<g>
			
				<linearGradient id="SVGID_00000155841746888100693410000017476391436840417968_" gradientUnits="userSpaceOnUse" x1="-175.0385" y1="80.9153" x2="-167.7294" y2="93.5752">
				<stop  offset="0" style="stop-color:#D7D7D7"/>
				<stop  offset="1" style="stop-color:#969696"/>
			</linearGradient>
			<polygon fill="url(#SVGID_00000155841746888100693410000017476391436840417968_)" points="-166.7,78.6 -175.9,81.4 -175.9,96 
				-166.7,93 			"/>
		</g>
		<g>
			
				<linearGradient id="SVGID_00000109013871756133648270000007738895638101003403_" gradientUnits="userSpaceOnUse" x1="-173.9993" y1="96.1107" x2="-168.7224" y2="105.2505">
				<stop  offset="0" style="stop-color:#AAAAAA"/>
				<stop  offset="1" style="stop-color:#5A5A5A"/>
			</linearGradient>
			<polygon fill="url(#SVGID_00000109013871756133648270000007738895638101003403_)" points="-175.9,97.2 -175.9,107.2 
				-166.7,104.1 -166.7,94.2 			"/>
		</g>
		<g>
			
				<linearGradient id="SVGID_00000000929191165563162730000010715161679551605663_" gradientUnits="userSpaceOnUse" x1="-173.261" y1="72.7811" x2="-169.6146" y2="79.097">
				<stop  offset="0" style="stop-color:#AAAAAA"/>
				<stop  offset="1" style="stop-color:#5A5A5A"/>
			</linearGradient>
			<polygon fill="url(#SVGID_00000000929191165563162730000010715161679551605663_)" points="-166.7,77.4 -166.7,72 -175.9,74.3 
				-175.9,80.2 			"/>
		</g>
		<g>
			
				<linearGradient id="SVGID_00000088124869206202778210000011454443530048682149_" gradientUnits="userSpaceOnUse" x1="-161.2068" y1="90.7796" x2="-158.5271" y2="95.4209">
				<stop  offset="0" style="stop-color:#D7D7D7"/>
				<stop  offset="1" style="stop-color:#969696"/>
			</linearGradient>
			<polygon fill="url(#SVGID_00000088124869206202778210000011454443530048682149_)" points="-155.3,89.6 -164.4,92.6 -164.4,96.6 
				-155.3,93.5 			"/>
		</g>
		<g>
			
				<linearGradient id="SVGID_00000081621592744195558060000015034648149070707377_" gradientUnits="userSpaceOnUse" x1="-161.5324" y1="96.1358" x2="-158.2181" y2="101.8764">
				<stop  offset="0" style="stop-color:#AAAAAA"/>
				<stop  offset="1" style="stop-color:#5A5A5A"/>
			</linearGradient>
			<polygon fill="url(#SVGID_00000081621592744195558060000015034648149070707377_)" points="-164.4,97.8 -164.4,103.4 
				-155.3,100.2 -155.3,94.7 			"/>
		</g>
		<g>
			
				<linearGradient id="SVGID_00000098215370005433107090000010706932035337873035_" gradientUnits="userSpaceOnUse" x1="-161.4376" y1="85.3585" x2="-158.5577" y2="90.3467">
				<stop  offset="0" style="stop-color:#AAAAAA"/>
				<stop  offset="1" style="stop-color:#5A5A5A"/>
			</linearGradient>
			<polygon fill="url(#SVGID_00000098215370005433107090000010706932035337873035_)" points="-155.3,88.4 -155.3,84.8 -164.4,87.1 
				-164.4,91.4 			"/>
		</g>
		<g>
			
				<linearGradient id="SVGID_00000145044688015999786210000013232832254006263479_" gradientUnits="userSpaceOnUse" x1="-190.358" y1="78.3071" x2="-169.5915" y2="114.2758">
				<stop  offset="0" style="stop-color:#D7D7D7"/>
				<stop  offset="1" style="stop-color:#969696"/>
			</linearGradient>
			<path fill="url(#SVGID_00000145044688015999786210000013232832254006263479_)" d="M-191.4,116.8
				C-191.4,116.8-191.5,116.8-191.4,116.8l-0.1-35.4l-1.3,0.3l1.5-2.9l1.4,2.1l-1.4,0.4v34.9l36.6-12.2v-1.2l2.3,0.7l-2.3,2.1v-1.5
				l-36.4,12.6C-191.2,116.8-191.4,116.8-191.4,116.8z"/>
			<path fill="#787878" d="M-191.3,79.9l0.5,0.8l-0.4,0.1l-0.7,0.2L-191.3,79.9 M-154.3,103.6l0.8,0.3l-0.8,0.8v-0.2v-0.7V103.6
				 M-191.4,77.9l-2.4,4.6l1.7-0.5v34.7c0,0.2,0.1,0.4,0.2,0.5c0.1,0.1,0.2,0.1,0.3,0.1c0.1,0,0.4,0,0.4,0l35.7-12.3v1.9l3.8-3.4
				l-3.8-1.2v1.5l-35.6,11.9V81.7l1.7-0.5L-191.4,77.9L-191.4,77.9z"/>
		</g>
		<g filter="url(#DS_GaussianBlur_2)">
			<path fill="#FFFFFF" d="M-188,103.5c-2.3-1.1-1.4-3.9-1.1-4.6l12.6-18.4l10.3,4.6l8-11.5c0.6-0.9,3.7-0.6,4.6,0
				c0.9,0.6,1.8,3.7,1.1,4.6L-165,95.5l-9.2-5.7l-10.3,13.8C-184.9,104.1-186,104.5-188,103.5z"/>
		</g>
		
			<linearGradient id="SVGID_00000096052625304554829110000010485968408170494619_" gradientUnits="userSpaceOnUse" x1="-188.5914" y1="88.5716" x2="-154.0813" y2="88.5716">
			<stop  offset="0" style="stop-color:#AAAAAA"/>
			<stop  offset="1" style="stop-color:#5A5A5A"/>
		</linearGradient>
		
			<polyline fill="none" stroke="url(#SVGID_00000096052625304554829110000010485968408170494619_)" stroke-width="3.5" stroke-linecap="round" stroke-miterlimit="10" points="
			-186.8,101.2 -175.4,85.1 -166.2,90.9 -155.8,75.9 		"/>
	</g>
	<g>
		<g>
			
				<linearGradient id="SVGID_00000173879543479120654050000002389525340089669551_" gradientUnits="userSpaceOnUse" x1="33.0204" y1="78.7649" x2="39.2272" y2="89.5153">
				<stop  offset="0" style="stop-color:#AAAAAA"/>
				<stop  offset="1" style="stop-color:#5A5A5A"/>
			</linearGradient>
			<polygon fill="url(#SVGID_00000173879543479120654050000002389525340089669551_)" points="27,82.3 27,92.3 45.4,86 45.4,76.1 			
				"/>
		</g>
		<g>
			
				<linearGradient id="SVGID_00000078003963786167313890000013585030528231426232_" gradientUnits="userSpaceOnUse" x1="30.948" y1="58.1874" x2="41.2536" y2="76.0372">
				<stop  offset="0" style="stop-color:#D7D7D7"/>
				<stop  offset="1" style="stop-color:#969696"/>
			</linearGradient>
			<polygon fill="url(#SVGID_00000078003963786167313890000013585030528231426232_)" points="45.4,54.6 27,60.5 27,79.8 45.4,73.7 
							"/>
		</g>
		<g>
			
				<linearGradient id="SVGID_00000171717715201878899520000016868822535016003227_" gradientUnits="userSpaceOnUse" x1="31.3636" y1="39.3221" x2="40.4388" y2="55.0408">
				<stop  offset="0" style="stop-color:#AAAAAA"/>
				<stop  offset="1" style="stop-color:#5A5A5A"/>
			</linearGradient>
			<polygon fill="url(#SVGID_00000171717715201878899520000016868822535016003227_)" points="45.4,52.2 45.4,37.2 27,41.9 27,58.1 
							"/>
		</g>
		<g>
			
				<linearGradient id="SVGID_00000163786718187431943130000013752881630265139346_" gradientUnits="userSpaceOnUse" x1="51.7315" y1="31.8177" x2="66.3498" y2="57.1374">
				<stop  offset="0" style="stop-color:#D7D7D7"/>
				<stop  offset="1" style="stop-color:#969696"/>
			</linearGradient>
			<polygon fill="url(#SVGID_00000163786718187431943130000013752881630265139346_)" points="68.3,27.3 49.9,32.8 49.9,62 68.3,56 
							"/>
		</g>
		<g>
			
				<linearGradient id="SVGID_00000151539013256254370950000015317007454219785913_" gradientUnits="userSpaceOnUse" x1="53.81" y1="62.2085" x2="64.3638" y2="80.4882">
				<stop  offset="0" style="stop-color:#AAAAAA"/>
				<stop  offset="1" style="stop-color:#5A5A5A"/>
			</linearGradient>
			<polygon fill="url(#SVGID_00000151539013256254370950000015317007454219785913_)" points="49.9,64.4 49.9,84.4 68.3,78.2 
				68.3,58.4 			"/>
		</g>
		<g>
			
				<linearGradient id="SVGID_00000170279955365787460360000011530252736466633373_" gradientUnits="userSpaceOnUse" x1="55.2864" y1="15.5493" x2="62.5793" y2="28.181">
				<stop  offset="0" style="stop-color:#AAAAAA"/>
				<stop  offset="1" style="stop-color:#5A5A5A"/>
			</linearGradient>
			<polygon fill="url(#SVGID_00000170279955365787460360000011530252736466633373_)" points="68.3,24.9 68.3,14 49.9,18.6 
				49.9,30.4 			"/>
		</g>
		<g>
			
				<linearGradient id="SVGID_00000008850242361453134150000005336955842360905657_" gradientUnits="userSpaceOnUse" x1="79.395" y1="51.5462" x2="84.7543" y2="60.8289">
				<stop  offset="0" style="stop-color:#D7D7D7"/>
				<stop  offset="1" style="stop-color:#969696"/>
			</linearGradient>
			<polygon fill="url(#SVGID_00000008850242361453134150000005336955842360905657_)" points="91.3,49.3 72.9,55.3 72.9,63.2 
				91.3,57.1 			"/>
		</g>
		<g>
			
				<linearGradient id="SVGID_00000054267924867530916450000010220082729209961124_" gradientUnits="userSpaceOnUse" x1="78.7437" y1="62.2587" x2="85.3724" y2="73.7399">
				<stop  offset="0" style="stop-color:#AAAAAA"/>
				<stop  offset="1" style="stop-color:#5A5A5A"/>
			</linearGradient>
			<polygon fill="url(#SVGID_00000054267924867530916450000010220082729209961124_)" points="72.9,65.6 72.9,76.7 91.3,70.3 
				91.3,59.5 			"/>
		</g>
		<g>
			
				<linearGradient id="SVGID_00000109018852186148632230000009964843717193967798_" gradientUnits="userSpaceOnUse" x1="78.9333" y1="40.7041" x2="84.6932" y2="50.6805">
				<stop  offset="0" style="stop-color:#AAAAAA"/>
				<stop  offset="1" style="stop-color:#5A5A5A"/>
			</linearGradient>
			<polygon fill="url(#SVGID_00000109018852186148632230000009964843717193967798_)" points="91.3,46.9 91.3,39.5 72.9,44.2 
				72.9,52.9 			"/>
		</g>
		<g>
			
				<linearGradient id="SVGID_00000167358920934781496080000016056911449859040951_" gradientUnits="userSpaceOnUse" x1="21.0866" y1="26.6052" x2="62.6194" y2="98.5421">
				<stop  offset="0" style="stop-color:#D7D7D7"/>
				<stop  offset="1" style="stop-color:#969696"/>
			</linearGradient>
			<path fill="url(#SVGID_00000167358920934781496080000016056911449859040951_)" d="M18.9,103.6C18.9,103.6,18.9,103.6,18.9,103.6
				c-0.1-0.1-0.1-0.1-0.1-0.2V32.8l-2.5,0.7l2.9-5.8l2.7,4.3l-2.9,0.8v69.8l73.2-24.4v-2.3l4.7,1.5l-4.7,4.2v-3l-72.7,25.1
				C19.4,103.5,19,103.6,18.9,103.6z"/>
			<path fill="#787878" d="M19.3,29.7l1.1,1.6l-0.8,0.2l-1.4,0.4L19.3,29.7 M93.3,77.1l1.7,0.5l-1.7,1.5v-0.4v-1.4V77.1 M19.1,25.7
				L14.3,35l3.4-0.9v69.3c0,0.4,0.2,0.7,0.5,0.9c0.2,0.1,0.4,0.2,0.7,0.2c0.1,0,0.7,0,0.9-0.1l71.5-24.7v3.9l7.6-6.9l-7.6-2.4v3
				l-71.2,23.7V33.5l3.4-0.9L19.1,25.7L19.1,25.7z"/>
		</g>
		<g filter="url(#DS_GaussianBlur_2)">
			<path fill="#FFFFFF" d="M25.8,77c-4.6-2.3-2.8-7.9-2.3-9.2l25.3-36.8l20.7,9.2l16.1-23c1.3-1.8,7.4-1.3,9.2,0
				c1.8,1.3,3.6,7.4,2.3,9.2L71.8,60.9L53.4,49.4L32.7,77C31.9,78.1,29.8,79,25.8,77z"/>
		</g>
		
			<linearGradient id="SVGID_00000014632148719692952270000007458086847432424593_" gradientUnits="userSpaceOnUse" x1="24.6257" y1="47.1303" x2="93.646" y2="47.1303">
			<stop  offset="0" style="stop-color:#AAAAAA"/>
			<stop  offset="1" style="stop-color:#5A5A5A"/>
		</linearGradient>
		
			<polyline fill="none" stroke="url(#SVGID_00000014632148719692952270000007458086847432424593_)" stroke-width="7" stroke-linecap="round" stroke-miterlimit="10" points="
			28.1,72.4 51.1,40.2 69.5,51.7 90.1,21.9 		"/>
	</g>
</g>
<g id="engrenage">
	<g>
		<g opacity="0.7">
			
				<linearGradient id="SVGID_00000068654446490804512520000000439792467761589673_" gradientUnits="userSpaceOnUse" x1="-180.3624" y1="92.865" x2="-169.7318" y2="111.2777">
				<stop  offset="0" style="stop-color:#FFFFFF"/>
				<stop  offset="1" style="stop-color:#F0F0F0"/>
			</linearGradient>
			<path fill="url(#SVGID_00000068654446490804512520000000439792467761589673_)" d="M-175,113.6c-4.1,0-7.4-5.2-7.4-11.5
				s3.3-11.5,7.4-11.5c4.1,0,7.4,5.2,7.4,11.5S-171,113.6-175,113.6z"/>
			<path fill="#787878" d="M-175,91.1c3.8,0,6.9,4.9,6.9,11c0,6.1-3.1,11-6.9,11s-6.9-4.9-6.9-11C-181.9,96-178.8,91.1-175,91.1
				 M-175,90.1c-4.3,0-7.9,5.4-7.9,12c0,6.6,3.5,12,7.9,12s7.9-5.4,7.9-12C-167.2,95.4-170.7,90.1-175,90.1L-175,90.1z"/>
		</g>
		<g>
			<g>
				<g>
					
						<linearGradient id="SVGID_00000167389518492362892670000002476836653529668237_" gradientUnits="userSpaceOnUse" x1="-199.0873" y1="108.2943" x2="-186.9919" y2="129.2442" gradientTransform="matrix(0.9847 2.936474e-02 -2.978236e-02 0.9987 16.86 -11.5883)">
						<stop  offset="0" style="stop-color:#F5F5F5"/>
						<stop  offset="1" style="stop-color:#BEBEBE"/>
					</linearGradient>
					<path fill="url(#SVGID_00000167389518492362892670000002476836653529668237_)" d="M-179.7,115.3c-1.3,0-2.4-0.3-3.5-0.8
						c-5.1-2.6-6.4-10.6-2.8-17.9c2.7-5.5,7.7-9.2,12.3-9.2c1.3,0,2.4,0.3,3.5,0.8c5.1,2.6,6.4,10.6,2.8,17.9
						C-170.2,111.6-175.1,115.3-179.7,115.3L-179.7,115.3z M-174.7,91.9c-2.7,0-5.4,2.2-7.3,6.1c-2.2,4.4-2.8,10.1,1,12
						c0.8,0.4,1.6,0.6,2.4,0.6c2.7,0,5.4-2.2,7.3-6.1c2.2-4.4,2.8-10.1-1-12C-173.1,92.1-173.9,91.9-174.7,91.9z"/>
					<path fill="#787878" d="M-173.8,87.9c1.2,0,2.3,0.3,3.3,0.8c4.9,2.5,6.1,10.2,2.6,17.2c-2.6,5.4-7.4,9-11.8,9
						c-1.2,0-2.3-0.3-3.3-0.8c-4.9-2.5-6.1-10.2-2.6-17.2C-183,91.5-178.2,87.9-173.8,87.9 M-178.6,111.1c2.9,0,5.7-2.3,7.7-6.4
						c2.8-5.7,2.3-10.9-1.2-12.7c-0.8-0.4-1.7-0.6-2.6-0.6c-2.9,0-5.7,2.3-7.7,6.4c-2.8,5.7-2.3,10.9,1.2,12.7
						C-180.4,110.9-179.5,111.1-178.6,111.1 M-173.8,86.9c-4.7,0-9.8,3.6-12.7,9.5c-3.7,7.5-2.3,15.8,3.1,18.5
						c1.2,0.6,2.4,0.9,3.8,0.9c4.7,0,9.8-3.6,12.7-9.5c3.7-7.5,2.3-15.8-3.1-18.5C-171.2,87.2-172.5,86.9-173.8,86.9L-173.8,86.9z
						 M-178.6,110.1c-0.7,0-1.4-0.2-2.2-0.5c-3.3-1.7-3-6.7-0.8-11.3c1.8-3.6,4.2-5.8,6.8-5.8c0.7,0,1.4,0.2,2.2,0.5
						c3.3,1.7,3,6.7,0.8,11.3C-173.6,107.9-176,110.1-178.6,110.1L-178.6,110.1z"/>
				</g>
				<g>
					
						<linearGradient id="SVGID_00000048483194082877036810000004503779827677540241_" gradientUnits="userSpaceOnUse" x1="-174.4692" y1="83.7735" x2="-171.7685" y2="88.4512">
						<stop  offset="0" style="stop-color:#F5F5F5"/>
						<stop  offset="1" style="stop-color:#BEBEBE"/>
					</linearGradient>
					<path fill="url(#SVGID_00000048483194082877036810000004503779827677540241_)" d="M-173.1,88.8c-1.5,0-2.7-1.2-2.7-2.7
						s1.2-2.7,2.7-2.7c1.5,0,2.7,1.2,2.7,2.7S-171.6,88.8-173.1,88.8z"/>
					<path fill="#787878" d="M-173.1,83.9c1.2,0,2.2,1,2.2,2.2s-1,2.2-2.2,2.2c-1.2,0-2.2-1-2.2-2.2S-174.3,83.9-173.1,83.9
						 M-173.1,82.9c-1.8,0-3.2,1.4-3.2,3.2c0,1.8,1.4,3.2,3.2,3.2c1.8,0,3.2-1.4,3.2-3.2C-169.9,84.3-171.4,82.9-173.1,82.9
						L-173.1,82.9z"/>
				</g>
				<g>
					
						<linearGradient id="SVGID_00000033334656690057025170000007389298680893669046_" gradientUnits="userSpaceOnUse" x1="-165.5734" y1="90.9298" x2="-162.8729" y2="95.6073">
						<stop  offset="0" style="stop-color:#F5F5F5"/>
						<stop  offset="1" style="stop-color:#BEBEBE"/>
					</linearGradient>
					<circle fill="url(#SVGID_00000033334656690057025170000007389298680893669046_)" cx="-164.2" cy="93.3" r="2.7"/>
					<path fill="#787878" d="M-164.2,91.1c1.2,0,2.2,1,2.2,2.2s-1,2.2-2.2,2.2s-2.2-1-2.2-2.2S-165.4,91.1-164.2,91.1 M-164.2,90.1
						c-1.8,0-3.2,1.4-3.2,3.2s1.4,3.2,3.2,3.2s3.2-1.4,3.2-3.2S-162.5,90.1-164.2,90.1L-164.2,90.1z"/>
				</g>
				<g>
					
						<linearGradient id="SVGID_00000008837446926434204600000018036369278525834168_" gradientUnits="userSpaceOnUse" x1="-163.5517" y1="100.0733" x2="-160.8511" y2="104.751">
						<stop  offset="0" style="stop-color:#F5F5F5"/>
						<stop  offset="1" style="stop-color:#BEBEBE"/>
					</linearGradient>
					<path fill="url(#SVGID_00000008837446926434204600000018036369278525834168_)" d="M-162.2,105.1c-1.5,0-2.7-1.2-2.7-2.7
						s1.2-2.7,2.7-2.7c1.5,0,2.7,1.2,2.7,2.7S-160.7,105.1-162.2,105.1z"/>
					<path fill="#787878" d="M-162.2,100.2c1.2,0,2.2,1,2.2,2.2s-1,2.2-2.2,2.2s-2.2-1-2.2-2.2S-163.4,100.2-162.2,100.2
						 M-162.2,99.2c-1.8,0-3.2,1.4-3.2,3.2s1.4,3.2,3.2,3.2s3.2-1.4,3.2-3.2S-160.4,99.2-162.2,99.2L-162.2,99.2z"/>
				</g>
				<g>
					
						<linearGradient id="SVGID_00000175315165171638510570000015815161317928825985_" gradientUnits="userSpaceOnUse" x1="-187.0041" y1="110.8077" x2="-184.3035" y2="115.4852">
						<stop  offset="0" style="stop-color:#F5F5F5"/>
						<stop  offset="1" style="stop-color:#BEBEBE"/>
					</linearGradient>
					<circle fill="url(#SVGID_00000175315165171638510570000015815161317928825985_)" cx="-185.7" cy="113.1" r="2.7"/>
					<path fill="#787878" d="M-185.7,110.9c1.2,0,2.2,1,2.2,2.2s-1,2.2-2.2,2.2c-1.2,0-2.2-1-2.2-2.2S-186.9,110.9-185.7,110.9
						 M-185.7,109.9c-1.8,0-3.2,1.4-3.2,3.2s1.4,3.2,3.2,3.2c1.8,0,3.2-1.4,3.2-3.2S-183.9,109.9-185.7,109.9L-185.7,109.9z"/>
				</g>
				<g>
					
						<linearGradient id="SVGID_00000166677861660208330730000005938877898739905707_" gradientUnits="userSpaceOnUse" x1="-184.1738" y1="89.3392" x2="-181.4728" y2="94.0174">
						<stop  offset="0" style="stop-color:#F5F5F5"/>
						<stop  offset="1" style="stop-color:#BEBEBE"/>
					</linearGradient>
					<path fill="url(#SVGID_00000166677861660208330730000005938877898739905707_)" d="M-182.8,94.4c-1.5,0-2.7-1.2-2.7-2.7
						c0-1.5,1.2-2.7,2.7-2.7s2.7,1.2,2.7,2.7C-180.1,93.2-181.3,94.4-182.8,94.4z"/>
					<path fill="#787878" d="M-182.8,89.5c1.2,0,2.2,1,2.2,2.2s-1,2.2-2.2,2.2s-2.2-1-2.2-2.2S-184,89.5-182.8,89.5 M-182.8,88.5
						c-1.8,0-3.2,1.4-3.2,3.2c0,1.8,1.4,3.2,3.2,3.2s3.2-1.4,3.2-3.2C-179.6,89.9-181.1,88.5-182.8,88.5L-182.8,88.5z"/>
				</g>
				<g>
					
						<linearGradient id="SVGID_00000156559861218542958620000000975750724034701218_" gradientUnits="userSpaceOnUse" x1="-189.4302" y1="99.6758" x2="-186.7295" y2="104.3535">
						<stop  offset="0" style="stop-color:#F5F5F5"/>
						<stop  offset="1" style="stop-color:#BEBEBE"/>
					</linearGradient>
					<path fill="url(#SVGID_00000156559861218542958620000000975750724034701218_)" d="M-188.1,104.7c-1.5,0-2.7-1.2-2.7-2.7
						s1.2-2.7,2.7-2.7c1.5,0,2.7,1.2,2.7,2.7S-186.6,104.7-188.1,104.7z"/>
					<path fill="#787878" d="M-188.1,99.8c1.2,0,2.2,1,2.2,2.2s-1,2.2-2.2,2.2s-2.2-1-2.2-2.2S-189.3,99.8-188.1,99.8 M-188.1,98.8
						c-1.8,0-3.2,1.4-3.2,3.2s1.4,3.2,3.2,3.2s3.2-1.4,3.2-3.2S-186.3,98.8-188.1,98.8L-188.1,98.8z"/>
				</g>
				<g>
					
						<linearGradient id="SVGID_00000161627247321672043620000005713515982892675999_" gradientUnits="userSpaceOnUse" x1="-176.4909" y1="114.3858" x2="-173.7903" y2="119.0634">
						<stop  offset="0" style="stop-color:#F5F5F5"/>
						<stop  offset="1" style="stop-color:#BEBEBE"/>
					</linearGradient>
					<circle fill="url(#SVGID_00000161627247321672043620000005713515982892675999_)" cx="-175.1" cy="116.7" r="2.7"/>
					<path fill="#787878" d="M-175.1,114.5c1.2,0,2.2,1,2.2,2.2s-1,2.2-2.2,2.2c-1.2,0-2.2-1-2.2-2.2S-176.4,114.5-175.1,114.5
						 M-175.1,113.5c-1.8,0-3.2,1.4-3.2,3.2c0,1.8,1.4,3.2,3.2,3.2c1.8,0,3.2-1.4,3.2-3.2C-171.9,115-173.4,113.5-175.1,113.5
						L-175.1,113.5z"/>
				</g>
				<g>
					
						<linearGradient id="SVGID_00000115482077953457135750000012071771251820626586_" gradientUnits="userSpaceOnUse" x1="-167.9998" y1="109.217" x2="-165.2987" y2="113.8954">
						<stop  offset="0" style="stop-color:#F5F5F5"/>
						<stop  offset="1" style="stop-color:#BEBEBE"/>
					</linearGradient>
					<path fill="url(#SVGID_00000115482077953457135750000012071771251820626586_)" d="M-166.6,114.3c-1.5,0-2.7-1.2-2.7-2.7
						c0-1.5,1.2-2.7,2.7-2.7c1.5,0,2.7,1.2,2.7,2.7C-163.9,113-165.2,114.3-166.6,114.3z"/>
					<path fill="#787878" d="M-166.6,109.4c1.2,0,2.2,1,2.2,2.2s-1,2.2-2.2,2.2s-2.2-1-2.2-2.2S-167.9,109.4-166.6,109.4
						 M-166.6,108.4c-1.8,0-3.2,1.4-3.2,3.2c0,1.8,1.4,3.2,3.2,3.2c1.8,0,3.2-1.4,3.2-3.2C-163.4,109.8-164.9,108.4-166.6,108.4
						L-166.6,108.4z"/>
				</g>
				<g>
					
						<linearGradient id="SVGID_00000145769532135355041370000015277567784168802956_" gradientUnits="userSpaceOnUse" x1="-194.5738" y1="111.1076" x2="-182.4766" y2="132.0606" gradientTransform="matrix(0.9862 2.940970e-02 -2.988468e-02 1.0022 16.1092 -13.0059)">
						<stop  offset="0" style="stop-color:#F5F5F5"/>
						<stop  offset="1" style="stop-color:#BEBEBE"/>
					</linearGradient>
					<path fill="url(#SVGID_00000145769532135355041370000015277567784168802956_)" d="M-176.4,117.3c-1.3,0-2.4-0.3-3.5-0.8
						c-5.2-2.6-6.4-10.7-2.8-17.9c2.7-5.5,7.7-9.3,12.3-9.3c1.3,0,2.4,0.3,3.5,0.8c5.2,2.6,6.4,10.7,2.8,17.9
						C-166.8,113.6-171.8,117.3-176.4,117.3C-176.4,117.3-176.4,117.3-176.4,117.3z M-171.1,94c-3.1,0-6.6,2.9-8.7,7.1
						c-2.4,4.8-1.5,9.1,2.1,10.9c0.8,0.4,1.6,0.6,2.4,0.6c2.7,0,5.4-2.2,7.3-6.1c2.2-4.4,2.8-10.1-1-12
						C-169.7,94.1-170.4,94-171.1,94z"/>
					<path fill="#787878" d="M-170.5,89.8c1.2,0,2.3,0.3,3.3,0.8c4.9,2.5,6.1,10.2,2.6,17.3c-2.6,5.4-7.4,9-11.8,9
						c-1.2,0-2.3-0.3-3.3-0.8c-4.9-2.5-6.1-10.2-2.6-17.3C-179.7,93.4-174.9,89.8-170.5,89.8 M-175.3,113.1c2.9,0,5.7-2.3,7.7-6.4
						c2.8-5.7,2.3-10.9-1.2-12.7c-0.7-0.4-1.5-0.5-2.3-0.5c-3.2,0-7,3-9.2,7.4c-2.5,5-1.5,9.7,2.3,11.6
						C-177.1,112.9-176.2,113.1-175.3,113.1 M-170.5,88.8c-4.7,0-9.8,3.7-12.7,9.5c-3.7,7.5-2.3,15.9,3.1,18.6
						c1.2,0.6,2.4,0.9,3.8,0.9c4.7,0,9.8-3.7,12.7-9.5c3.7-7.5,2.3-15.9-3.1-18.6C-167.9,89.1-169.2,88.8-170.5,88.8L-170.5,88.8z
						 M-175.3,112.1c-0.7,0-1.4-0.2-2.2-0.5c-3.3-1.7-4.1-5.7-1.9-10.3c1.9-3.8,5.3-6.8,8.3-6.8c0.6,0,1.2,0.1,1.8,0.4
						c3.3,1.7,3,6.8,0.8,11.4C-170.3,109.8-172.7,112.1-175.3,112.1L-175.3,112.1z"/>
				</g>
			</g>
			<g>
				<g>
					<path fill="#323232" d="M-173.2,83.9c1.2,0,2.2,1,2.2,2.2c0,0.4-0.1,0.7-0.3,1.1l-0.5,0.9l1,0.5c0.1,0,0.1,0,0.2,0.1
						c0,0,0,0,0.1,0c0.6,0.3,1.2,0.7,1.7,1.2l0.2,0.2l0.2,0.1c0.5,0.1,0.9,0.3,1.2,0.5c0.3,0.2,0.6,0.4,1,0.6l0.5,0.4l0.5-0.3
						c0.3-0.1,0.6-0.2,0.9-0.2c1.2,0,2.2,1,2.2,2.2c0,0.6-0.3,1.2-0.8,1.7l-0.5,0.4l0.2,0.6c0.3,1,0.5,2.2,0.5,3.3l0,0.8l0.8,0.2
						c1,0.2,1.8,1.1,1.8,2.2c0,1.2-1,2.2-2.2,2.2c0,0-0.1,0-0.1,0l-0.1,0l-0.8-0.1l-0.3,0.8c-0.3,0.9-0.6,1.8-1,2.6
						c-0.2,0.4-0.4,0.8-0.6,1.1l-0.4,0.6l0.5,0.5c0.4,0.4,0.6,0.9,0.6,1.5c0,1.2-1,2.2-2.2,2.2c-0.4,0-0.7-0.1-1.1-0.3l-0.6-0.4
						l-0.5,0.5c-1.1,1-2.2,1.7-3.5,2.3l-0.6,0.3l0,0.6c0,1.2-1,2.2-2.2,2.2c-1,0-1.8-0.6-2.1-1.6l-0.2-0.6l-0.6-0.1
						c-0.6-0.1-1.2-0.3-1.7-0.6c-0.6-0.3-1.2-0.8-1.8-1.3l-0.2-0.2l-0.2-0.1c-0.3-0.1-0.5-0.2-0.8-0.3l-0.7-0.3l-0.5,0.6
						c-0.4,0.6-1.1,0.9-1.7,0.9c-1.2,0-2.2-1-2.2-2.2c0-0.7,0.4-1.4,0.9-1.8l0.7-0.5l-0.3-0.8c-0.7-1.5-1-3.1-1-5l0-0.8l-0.8-0.1
						c-1.1-0.2-1.8-1.1-1.8-2.2c0-1.2,1-2.2,2.2-2.2c0.1,0,0.2,0,0.4,0l0.8,0.1l0.3-0.8c0.3-0.9,0.6-1.6,1-2.3
						c0.4-0.8,0.9-1.6,1.4-2.4l0.5-0.7l-0.6-0.6c-0.4-0.4-0.6-1-0.6-1.6c0-1.2,1-2.2,2.2-2.2c0.5,0,1.1,0.2,1.5,0.6l0.6,0.6l0.7-0.5
						c1.4-1,2.8-1.6,4.2-2l1.1-0.3l-0.4-1.1c-0.1-0.3-0.1-0.5-0.1-0.7C-175.4,84.9-174.4,83.9-173.2,83.9 M-178.7,111.1
						c2.9,0,5.7-2.3,7.7-6.4c2.1-4.2,2.4-8.3,0.8-10.8l-0.3-0.4l-0.5,0l-0.2,0c-3.3,0-7,3-9.1,7.4c-1.9,3.8-1.8,7.4,0.1,9.8l0.2,0.3
						l0.4,0.1C-179.3,111.1-179,111.1-178.7,111.1 M-173.2,82.9c-1.8,0-3.2,1.4-3.2,3.2c0,0.4,0.1,0.7,0.2,1.1
						c-1.5,0.4-3.1,1.1-4.5,2.1c-0.6-0.5-1.3-0.9-2.2-0.9c-1.8,0-3.2,1.4-3.2,3.2c0,0.9,0.4,1.7,0.9,2.3c-0.5,0.8-1,1.6-1.4,2.5
						c-0.4,0.8-0.7,1.6-1,2.5c-0.2,0-0.3-0.1-0.5-0.1c-1.8,0-3.2,1.4-3.2,3.2c0,1.6,1.2,2.9,2.7,3.1c0,2,0.4,3.8,1.1,5.4
						c-0.8,0.6-1.4,1.5-1.4,2.6c0,1.8,1.4,3.2,3.2,3.2c1,0,1.9-0.5,2.5-1.3c0.3,0.1,0.6,0.3,0.9,0.4c0.6,0.6,1.3,1.1,2,1.5
						c0.6,0.3,1.3,0.5,2,0.7c0.4,1.3,1.6,2.3,3.1,2.3c1.8,0,3.2-1.4,3.2-3.2c1.3-0.6,2.5-1.4,3.7-2.4c0.5,0.3,1,0.4,1.6,0.4
						c1.8,0,3.2-1.4,3.2-3.2c0-0.8-0.3-1.6-0.8-2.1c0.2-0.4,0.4-0.8,0.6-1.1c0.4-0.9,0.8-1.8,1.1-2.7c0.1,0,0.2,0,0.4,0
						c1.8,0,3.2-1.4,3.2-3.2c0-1.6-1.1-2.9-2.6-3.1c0-1.3-0.2-2.5-0.5-3.6c0.7-0.6,1.1-1.4,1.1-2.4c0-1.8-1.4-3.2-3.2-3.2
						c-0.5,0-1,0.1-1.4,0.3c-0.4-0.3-0.7-0.5-1.1-0.7c-0.5-0.2-0.9-0.4-1.4-0.5c-0.6-0.5-1.2-1-1.9-1.3c-0.1,0-0.2-0.1-0.3-0.1
						c0.3-0.5,0.4-1,0.4-1.6C-170,84.3-171.4,82.9-173.2,82.9L-173.2,82.9z M-178.7,110.1c-0.2,0-0.5,0-0.7-0.1
						c-1.7-2-1.8-5.2,0-8.8c1.9-3.8,5.3-6.8,8.3-6.8c0,0,0.1,0,0.1,0c1.5,2.3,0.9,6.2-0.8,9.8C-173.6,107.9-176.1,110.1-178.7,110.1
						L-178.7,110.1z"/>
				</g>
			</g>
		</g>
	</g>
	<g>
		<g opacity="0.7">
			
				<linearGradient id="SVGID_00000010296091781904687720000004561436043422004150_" gradientUnits="userSpaceOnUse" x1="41.0832" y1="55.7164" x2="62.3453" y2="92.5435">
				<stop  offset="0" style="stop-color:#FFFFFF"/>
				<stop  offset="1" style="stop-color:#F0F0F0"/>
			</linearGradient>
			<path fill="url(#SVGID_00000010296091781904687720000004561436043422004150_)" d="M51.7,97.2c-8.1,0-14.7-10.3-14.7-23
				s6.6-23,14.7-23s14.7,10.3,14.7,23S59.8,97.2,51.7,97.2z"/>
			<path fill="#787878" d="M51.7,52.1c7.6,0,13.7,9.9,13.7,22s-6.2,22-13.7,22S38,86.3,38,74.1S44.1,52.1,51.7,52.1 M51.7,50.1
				C43,50.1,36,60.9,36,74.1c0,13.3,7.1,24,15.7,24s15.7-10.8,15.7-24C67.5,60.9,60.4,50.1,51.7,50.1L51.7,50.1z"/>
		</g>
		<g>
			<g>
				<g>
					
						<linearGradient id="SVGID_00000165922345460964508550000007651081092121132967_" gradientUnits="userSpaceOnUse" x1="22.3291" y1="62.4423" x2="46.5204" y2="104.3428" gradientTransform="matrix(0.9847 2.936474e-02 -2.978236e-02 0.9987 16.86 -11.5883)">
						<stop  offset="0" style="stop-color:#F5F5F5"/>
						<stop  offset="1" style="stop-color:#BEBEBE"/>
					</linearGradient>
					<path fill="url(#SVGID_00000165922345460964508550000007651081092121132967_)" d="M42.4,100.6c-2.5,0-4.9-0.6-7.1-1.6
						C25,93.8,22.5,77.7,29.6,63.2c5.4-11,15.3-18.5,24.5-18.5c2.5,0,4.9,0.6,7,1.6c10.3,5.2,12.8,21.2,5.7,35.7
						C61.5,93.2,51.6,100.6,42.4,100.6C42.4,100.6,42.4,100.6,42.4,100.6z M52.3,53.9c-5.4,0-10.7,4.4-14.5,12.2
						c-4.4,8.8-5.6,20.1,2,24c1.5,0.8,3.2,1.2,4.8,1.2c5.4,0,10.7-4.4,14.5-12.2c4.4-8.8,5.6-20.1-2-24
						C55.5,54.3,53.9,53.9,52.3,53.9z"/>
					<path fill="#787878" d="M54.2,45.8c2.4,0,4.6,0.5,6.6,1.5c9.8,5,12.2,20.4,5.2,34.4c-5.3,10.7-14.8,17.9-23.7,17.9
						c-2.4,0-4.6-0.5-6.6-1.5c-9.8-5-12.2-20.4-5.2-34.4C35.8,53,45.3,45.8,54.2,45.8 M44.6,92.2c5.8,0,11.4-4.6,15.4-12.7
						c5.6-11.3,4.6-21.8-2.4-25.3c-1.7-0.9-3.4-1.3-5.2-1.3c-5.8,0-11.4,4.6-15.4,12.7c-5.6,11.3-4.6,21.8,2.4,25.3
						C41,91.8,42.8,92.2,44.6,92.2 M54.2,43.8c-9.4,0-19.7,7.3-25.4,19c-7.4,15-4.7,31.6,6.1,37.1c2.4,1.2,4.9,1.8,7.5,1.8
						c9.4,0,19.7-7.3,25.4-19c7.4-15,4.7-31.6-6.1-37.1C59.3,44.4,56.8,43.8,54.2,43.8L54.2,43.8z M44.6,90.2
						c-1.4,0-2.9-0.3-4.3-1.1c-6.6-3.3-6.1-13.5-1.6-22.7c3.5-7.2,8.5-11.6,13.6-11.6c1.4,0,2.9,0.3,4.3,1.1
						c6.6,3.3,6.1,13.5,1.6,22.7C54.7,85.8,49.7,90.2,44.6,90.2L44.6,90.2z"/>
				</g>
				<g>
					
						<linearGradient id="SVGID_00000143613411410301814340000015194199043090474651_" gradientUnits="userSpaceOnUse" x1="52.8701" y1="37.5342" x2="58.2715" y2="46.8896">
						<stop  offset="0" style="stop-color:#F5F5F5"/>
						<stop  offset="1" style="stop-color:#BEBEBE"/>
					</linearGradient>
					<circle fill="url(#SVGID_00000143613411410301814340000015194199043090474651_)" cx="55.6" cy="42.2" r="5.4"/>
					<path fill="#787878" d="M55.6,37.8c2.4,0,4.4,2,4.4,4.4s-2,4.4-4.4,4.4c-2.4,0-4.4-2-4.4-4.4S53.1,37.8,55.6,37.8 M55.6,35.8
						c-3.5,0-6.4,2.9-6.4,6.4s2.9,6.4,6.4,6.4s6.4-2.9,6.4-6.4S59.1,35.8,55.6,35.8L55.6,35.8z"/>
				</g>
				<g>
					
						<linearGradient id="SVGID_00000060023772438115692400000015482497144517169304_" gradientUnits="userSpaceOnUse" x1="70.6614" y1="51.8459" x2="76.0631" y2="61.202">
						<stop  offset="0" style="stop-color:#F5F5F5"/>
						<stop  offset="1" style="stop-color:#BEBEBE"/>
					</linearGradient>
					<path fill="url(#SVGID_00000060023772438115692400000015482497144517169304_)" d="M73.4,61.9c-3,0-5.4-2.4-5.4-5.4
						c0-3,2.4-5.4,5.4-5.4s5.4,2.4,5.4,5.4C78.8,59.5,76.3,61.9,73.4,61.9z"/>
					<path fill="#787878" d="M73.4,52.1c2.4,0,4.4,2,4.4,4.4s-2,4.4-4.4,4.4c-2.4,0-4.4-2-4.4-4.4S70.9,52.1,73.4,52.1 M73.4,50.1
						c-3.5,0-6.4,2.9-6.4,6.4s2.9,6.4,6.4,6.4c3.5,0,6.4-2.9,6.4-6.4S76.9,50.1,73.4,50.1L73.4,50.1z"/>
				</g>
				<g>
					
						<linearGradient id="SVGID_00000022557855002890808450000008759337020121164683_" gradientUnits="userSpaceOnUse" x1="74.7051" y1="70.1339" x2="80.1068" y2="79.4899">
						<stop  offset="0" style="stop-color:#F5F5F5"/>
						<stop  offset="1" style="stop-color:#BEBEBE"/>
					</linearGradient>
					<path fill="url(#SVGID_00000022557855002890808450000008759337020121164683_)" d="M77.4,80.2c-3,0-5.4-2.4-5.4-5.4
						c0-3,2.4-5.4,5.4-5.4s5.4,2.4,5.4,5.4C82.8,77.8,80.4,80.2,77.4,80.2z"/>
					<path fill="#787878" d="M77.4,70.4c2.4,0,4.4,2,4.4,4.4s-2,4.4-4.4,4.4c-2.4,0-4.4-2-4.4-4.4S75,70.4,77.4,70.4 M77.4,68.4
						c-3.5,0-6.4,2.9-6.4,6.4s2.9,6.4,6.4,6.4c3.5,0,6.4-2.9,6.4-6.4S80.9,68.4,77.4,68.4L77.4,68.4z"/>
				</g>
				<g>
					
						<linearGradient id="SVGID_00000117670493474610701760000003188087147541508028_" gradientUnits="userSpaceOnUse" x1="27.8001" y1="91.6018" x2="33.2018" y2="100.9579">
						<stop  offset="0" style="stop-color:#F5F5F5"/>
						<stop  offset="1" style="stop-color:#BEBEBE"/>
					</linearGradient>
					<path fill="url(#SVGID_00000117670493474610701760000003188087147541508028_)" d="M30.5,101.7c-3,0-5.4-2.4-5.4-5.4
						c0-3,2.4-5.4,5.4-5.4s5.4,2.4,5.4,5.4C35.9,99.3,33.5,101.7,30.5,101.7z"/>
					<path fill="#787878" d="M30.5,91.9c2.4,0,4.4,2,4.4,4.4s-2,4.4-4.4,4.4c-2.4,0-4.4-2-4.4-4.4S28.1,91.9,30.5,91.9 M30.5,89.9
						c-3.5,0-6.4,2.9-6.4,6.4s2.9,6.4,6.4,6.4s6.4-2.9,6.4-6.4S34,89.9,30.5,89.9L30.5,89.9z"/>
				</g>
				<g>
					
						<linearGradient id="SVGID_00000036239592197205658380000000973061125139005881_" gradientUnits="userSpaceOnUse" x1="33.4613" y1="48.6662" x2="38.8626" y2="58.0215">
						<stop  offset="0" style="stop-color:#F5F5F5"/>
						<stop  offset="1" style="stop-color:#BEBEBE"/>
					</linearGradient>
					<path fill="url(#SVGID_00000036239592197205658380000000973061125139005881_)" d="M36.2,58.7c-3,0-5.4-2.4-5.4-5.4
						s2.4-5.4,5.4-5.4s5.4,2.4,5.4,5.4S39.1,58.7,36.2,58.7z"/>
					<path fill="#787878" d="M36.2,48.9c2.4,0,4.4,2,4.4,4.4s-2,4.4-4.4,4.4s-4.4-2-4.4-4.4S33.7,48.9,36.2,48.9 M36.2,46.9
						c-3.5,0-6.4,2.9-6.4,6.4c0,3.5,2.9,6.4,6.4,6.4s6.4-2.9,6.4-6.4C42.6,49.8,39.7,46.9,36.2,46.9L36.2,46.9z"/>
				</g>
				<g>
					
						<linearGradient id="SVGID_00000083076273752438344370000001433637819877963452_" gradientUnits="userSpaceOnUse" x1="22.9481" y1="69.339" x2="28.3494" y2="78.6943">
						<stop  offset="0" style="stop-color:#F5F5F5"/>
						<stop  offset="1" style="stop-color:#BEBEBE"/>
					</linearGradient>
					<path fill="url(#SVGID_00000083076273752438344370000001433637819877963452_)" d="M25.6,79.4c-3,0-5.4-2.4-5.4-5.4
						s2.4-5.4,5.4-5.4s5.4,2.4,5.4,5.4S28.6,79.4,25.6,79.4z"/>
					<path fill="#787878" d="M25.6,69.6c2.4,0,4.4,2,4.4,4.4s-2,4.4-4.4,4.4s-4.4-2-4.4-4.4S23.2,69.6,25.6,69.6 M25.6,67.6
						c-3.5,0-6.4,2.9-6.4,6.4s2.9,6.4,6.4,6.4s6.4-2.9,6.4-6.4S29.2,67.6,25.6,67.6L25.6,67.6z"/>
				</g>
				<g>
					
						<linearGradient id="SVGID_00000137113101965254883700000006865622072450045618_" gradientUnits="userSpaceOnUse" x1="48.8265" y1="98.758" x2="54.2283" y2="108.114">
						<stop  offset="0" style="stop-color:#F5F5F5"/>
						<stop  offset="1" style="stop-color:#BEBEBE"/>
					</linearGradient>
					<path fill="url(#SVGID_00000137113101965254883700000006865622072450045618_)" d="M51.5,108.8c-3,0-5.4-2.4-5.4-5.4
						c0-3,2.4-5.4,5.4-5.4s5.4,2.4,5.4,5.4C56.9,106.4,54.5,108.8,51.5,108.8z"/>
					<path fill="#787878" d="M51.5,99c2.4,0,4.4,2,4.4,4.4s-2,4.4-4.4,4.4c-2.4,0-4.4-2-4.4-4.4S49.1,99,51.5,99 M51.5,97
						c-3.5,0-6.4,2.9-6.4,6.4s2.9,6.4,6.4,6.4s6.4-2.9,6.4-6.4S55.1,97,51.5,97L51.5,97z"/>
				</g>
				<g>
					
						<linearGradient id="SVGID_00000165204693064186253420000014523219715044734614_" gradientUnits="userSpaceOnUse" x1="65.8095" y1="88.422" x2="71.2107" y2="97.7773">
						<stop  offset="0" style="stop-color:#F5F5F5"/>
						<stop  offset="1" style="stop-color:#BEBEBE"/>
					</linearGradient>
					<path fill="url(#SVGID_00000165204693064186253420000014523219715044734614_)" d="M68.5,98.5c-3,0-5.4-2.4-5.4-5.4
						s2.4-5.4,5.4-5.4s5.4,2.4,5.4,5.4S71.5,98.5,68.5,98.5z"/>
					<path fill="#787878" d="M68.5,88.7c2.4,0,4.4,2,4.4,4.4s-2,4.4-4.4,4.4c-2.4,0-4.4-2-4.4-4.4S66.1,88.7,68.5,88.7 M68.5,86.7
						c-3.5,0-6.4,2.9-6.4,6.4s2.9,6.4,6.4,6.4c3.5,0,6.4-2.9,6.4-6.4S72,86.7,68.5,86.7L68.5,86.7z"/>
				</g>
				<g>
					
						<linearGradient id="SVGID_00000091731685510523880770000004426175104765279156_" gradientUnits="userSpaceOnUse" x1="29.9099" y1="67.2057" x2="54.1043" y2="109.1116" gradientTransform="matrix(0.9862 2.940970e-02 -2.988468e-02 1.0022 16.1092 -13.0059)">
						<stop  offset="0" style="stop-color:#F5F5F5"/>
						<stop  offset="1" style="stop-color:#BEBEBE"/>
					</linearGradient>
					<path fill="url(#SVGID_00000091731685510523880770000004426175104765279156_)" d="M49,104.6c-2.5,0-4.9-0.6-7.1-1.7
						c-10.3-5.2-12.9-21.3-5.7-35.9C41.7,56,51.6,48.6,60.8,48.6c2.5,0,4.9,0.6,7.1,1.7c10.3,5.2,12.9,21.3,5.7,35.9
						C68.1,97.2,58.2,104.6,49,104.6C49,104.6,49,104.6,49,104.6z M59.6,57.9c-6.1,0-13.3,5.8-17.4,14.2c-4.7,9.6-3.1,18.2,4.2,21.9
						c1.5,0.8,3.2,1.2,4.8,1.2c5.4,0,10.7-4.5,14.5-12.2c4.4-8.9,5.6-20.2-2-24.1C62.5,58.2,61.1,57.9,59.6,57.9z"/>
					<path fill="#787878" d="M60.8,49.6c2.4,0,4.6,0.5,6.6,1.5c9.8,5,12.2,20.5,5.2,34.5c-5.3,10.7-14.8,18-23.7,18
						c-2.4,0-4.6-0.5-6.6-1.5c-9.8-5-12.2-20.5-5.2-34.5C42.4,56.8,51.9,49.6,60.8,49.6 M51.2,96.1c5.8,0,11.4-4.7,15.4-12.8
						C72.2,72,71.2,61.5,64.2,58c-1.4-0.7-2.9-1.1-4.6-1.1c-6.5,0-14,6.1-18.3,14.7c-4.9,10-3.1,19.3,4.6,23.2
						C47.7,95.7,49.4,96.1,51.2,96.1 M60.8,47.6c-9.4,0-19.7,7.3-25.5,19.1c-7.4,15.1-4.7,31.7,6.1,37.2c2.4,1.2,4.9,1.8,7.5,1.8
						c9.4,0,19.7-7.3,25.5-19.1c7.4-15.1,4.7-31.7-6.1-37.2C66,48.1,63.4,47.6,60.8,47.6L60.8,47.6z M51.2,94.1
						c-1.4,0-2.9-0.3-4.3-1.1c-6.6-3.4-8.3-11.3-3.8-20.5c3.7-7.6,10.5-13.6,16.5-13.6c1.3,0,2.5,0.3,3.7,0.9
						c6.6,3.4,6.1,13.5,1.6,22.7C61.3,89.7,56.3,94.1,51.2,94.1L51.2,94.1z"/>
				</g>
			</g>
			<g>
				<g>
					<path fill="#323232" d="M55.4,37.8c2.4,0,4.4,2,4.4,4.4c0,0.7-0.2,1.4-0.6,2.1l-1.1,1.9l2,0.9c0.1,0.1,0.2,0.1,0.3,0.1
						c0,0,0.1,0,0.1,0.1c1.2,0.6,2.3,1.4,3.3,2.4l0.4,0.3l0.5,0.1c1,0.3,1.8,0.6,2.5,0.9c0.6,0.3,1.3,0.7,2,1.3l1,0.7l1.1-0.5
						c0.6-0.3,1.3-0.4,1.9-0.4c2.4,0,4.4,2,4.4,4.4c0,1.3-0.5,2.4-1.5,3.3l-1,0.8l0.3,1.2c0.6,2.1,0.9,4.3,1,6.7l0,1.6l1.6,0.3
						c2.1,0.4,3.6,2.2,3.6,4.3c0,2.4-2,4.4-4.4,4.4c0,0-0.2,0-0.3,0l-0.2,0L75.1,79l-0.5,1.5c-0.6,1.8-1.3,3.5-2.1,5.1
						c-0.4,0.8-0.8,1.5-1.2,2.2l-0.7,1.3l1,1.1c0.7,0.8,1.2,1.9,1.2,2.9c0,2.4-2,4.4-4.4,4.4c-0.7,0-1.5-0.2-2.2-0.6l-1.2-0.7
						l-1.1,1c-2.2,1.9-4.5,3.4-6.9,4.6l-1.2,0.5l0,1.3c0,2.4-2,4.4-4.4,4.4c-2,0-3.6-1.3-4.2-3.2l-0.3-1.1l-1.2-0.3
						c-1.2-0.3-2.4-0.7-3.4-1.2c-1.3-0.6-2.5-1.5-3.6-2.6l-0.3-0.3L37.9,99c-0.5-0.2-1-0.4-1.6-0.6l-1.4-0.6l-1,1.3
						c-0.8,1.1-2.1,1.7-3.5,1.7c-2.4,0-4.4-2-4.4-4.4c0-1.4,0.7-2.8,1.9-3.6l1.3-0.9l-0.7-1.5c-1.3-2.9-2-6.3-2-10l0-1.7l-1.7-0.3
						c-2.1-0.4-3.7-2.2-3.7-4.3c0-2.4,2-4.4,4.4-4.4c0.2,0,0.5,0,0.7,0.1l1.7,0.3l0.6-1.6c0.6-1.7,1.2-3.2,1.9-4.7
						c0.8-1.6,1.7-3.2,2.7-4.7l0.9-1.4l-1.2-1.2c-0.8-0.8-1.3-1.9-1.3-3.1c0-2.4,2-4.4,4.4-4.4c1.1,0,2.1,0.4,3,1.2l1.2,1.1l1.3-0.9
						c2.7-1.9,5.5-3.3,8.4-4l2.2-0.5l-0.8-2.1c-0.2-0.5-0.3-1-0.3-1.5C51,39.8,53,37.8,55.4,37.8 M44.4,92.2
						c5.8,0,11.4-4.6,15.4-12.7c4.1-8.4,4.7-16.7,1.6-21.6L60.9,57l-1.1,0c-0.1,0-0.2,0-0.3,0c-6.5,0-14,6.1-18.3,14.7
						c-3.8,7.7-3.7,14.8,0.3,19.7l0.5,0.6l0.8,0.1C43.3,92.1,43.9,92.2,44.4,92.2 M55.4,35.8c-3.5,0-6.4,2.9-6.4,6.4
						c0,0.8,0.2,1.5,0.4,2.2c-3.1,0.7-6.2,2.2-9.1,4.3c-1.1-1.1-2.7-1.7-4.3-1.7c-3.5,0-6.4,2.9-6.4,6.4c0,1.8,0.7,3.4,1.9,4.5
						c-1,1.5-2,3.2-2.9,4.9c-0.8,1.6-1.5,3.3-2,4.9c-0.3-0.1-0.7-0.1-1.1-0.1c-3.5,0-6.4,2.9-6.4,6.4c0,3.2,2.3,5.8,5.4,6.3
						c0.1,3.9,0.8,7.6,2.2,10.7C25,92.2,24,94.1,24,96.3c0,3.5,2.9,6.4,6.4,6.4c2.1,0,3.9-1,5.1-2.5c0.6,0.3,1.2,0.5,1.9,0.7
						c1.2,1.2,2.5,2.2,4.1,3c1.3,0.6,2.6,1.1,3.9,1.4c0.8,2.7,3.2,4.6,6.1,4.6c3.5,0,6.4-2.8,6.4-6.3c2.6-1.2,5.1-2.8,7.4-4.9
						c0.9,0.5,2,0.9,3.2,0.9c3.5,0,6.4-2.9,6.4-6.4c0-1.7-0.6-3.2-1.7-4.3c0.4-0.7,0.8-1.5,1.2-2.3c0.9-1.8,1.6-3.6,2.2-5.4
						c0.2,0,0.5,0.1,0.7,0.1c3.5,0,6.4-2.9,6.4-6.4c0-3.1-2.2-5.7-5.2-6.3c-0.1-2.5-0.4-5-1.1-7.2c1.3-1.2,2.2-2.9,2.2-4.8
						c0-3.5-2.9-6.4-6.4-6.4c-1,0-1.9,0.2-2.7,0.6c-0.7-0.5-1.5-1-2.3-1.4c-0.9-0.5-1.9-0.8-2.8-1.1c-1.1-1.1-2.4-2-3.8-2.7
						c-0.2-0.1-0.4-0.1-0.5-0.2c0.5-0.9,0.8-2,0.8-3.1C61.8,38.7,59,35.8,55.4,35.8L55.4,35.8z M44.4,90.2c-0.5,0-0.9,0-1.4-0.1
						c-3.3-4.1-3.5-10.5,0-17.6c3.7-7.6,10.5-13.6,16.5-13.6c0.1,0,0.2,0,0.3,0c2.9,4.6,1.9,12.4-1.7,19.7
						C54.5,85.8,49.6,90.2,44.4,90.2L44.4,90.2z"/>
				</g>
			</g>
		</g>
	</g>
</g>
<g id="pièces">
	<g>
		<path opacity="0.5" fill="#FFFFFF" stroke="#FFFFFF" stroke-width="3" stroke-linejoin="round" enable-background="new    " d="
			M-149.7,109.2c-0.3-0.3-0.6-0.6-0.8-0.9c-1.9-2-3.9-3.3-5.2-3.6v-3.1c0-1.6-3.5-2.8-7.8-2.8c-4.3,0-7.8,1.3-7.8,2.8v1.6
			c-1.5,0.5-2.4,1.2-2.4,2v3.4c0,0.8,0.9,1.5,2.4,2v2.8c0,0,0,0.1,0,0.1c0,0,0,0.1,0,0.1v3.4c0,1.6,3.5,2.8,7.8,2.8
			c4.3,0,7.8-1.3,7.8-2.8v-1.9c0,0.1,0.1,0.1,0.1,0.2c3,3.4,6.3,5.3,7.3,4.2l2.1-2.3c0,0,0,0,0.1,0
			C-145.2,116.3-146.7,112.7-149.7,109.2z"/>
		<g>
			<g>
				
					<linearGradient id="SVGID_00000106841835215711079480000010401986902845935249_" gradientUnits="userSpaceOnUse" x1="408.9698" y1="-902.4052" x2="414.1242" y2="-893.4776" gradientTransform="matrix(-1 0 0 -1 248.0197 -782)">
					<stop  offset="0" style="stop-color:#8CD7F5"/>
					<stop  offset="1" style="stop-color:#376E8C"/>
				</linearGradient>
				<path fill="url(#SVGID_00000106841835215711079480000010401986902845935249_)" d="M-163.6,119.5c-4.5,0-7.3-1.4-7.3-2.3v-2.9
					h14.6v2.9C-156.3,118.2-159.1,119.5-163.6,119.5z"/>
				<path fill="#003755" d="M-156.8,114.8v2.4c0,0.5-2.3,1.8-6.8,1.8s-6.8-1.4-6.8-1.8v-2.4H-156.8 M-155.8,113.8h-15.6v3.4
					c0,1.6,3.5,2.8,7.8,2.8c4.3,0,7.8-1.3,7.8-2.8V113.8L-155.8,113.8z"/>
			</g>
			<g>
				
					<linearGradient id="SVGID_00000023963353354645523270000016082601998014166915_" gradientUnits="userSpaceOnUse" x1="409.5677" y1="-899.3275" x2="413.6851" y2="-892.196" gradientTransform="matrix(-1 0 0 -1 248.0197 -782)">
					<stop  offset="0" style="stop-color:#A0E1FA"/>
					<stop  offset="1" style="stop-color:#73C3E1"/>
				</linearGradient>
				<path fill="url(#SVGID_00000023963353354645523270000016082601998014166915_)" d="M-163.6,116.1c-4.5,0-7.3-1.4-7.3-2.3
					s2.8-2.3,7.3-2.3c4.5,0,7.3,1.4,7.3,2.3S-159.1,116.1-163.6,116.1z"/>
				<path fill="#003755" d="M-163.6,111.9c4.5,0,6.8,1.4,6.8,1.8s-2.3,1.8-6.8,1.8s-6.8-1.4-6.8-1.8S-168.1,111.9-163.6,111.9
					 M-163.6,110.9c-4.3,0-7.8,1.3-7.8,2.8c0,1.6,3.5,2.8,7.8,2.8s7.8-1.3,7.8-2.8C-155.8,112.2-159.3,110.9-163.6,110.9
					L-163.6,110.9z"/>
			</g>
			<g>
				
					<linearGradient id="SVGID_00000170251529655707382350000001209284354361295502_" gradientUnits="userSpaceOnUse" x1="408.9696" y1="-898.7634" x2="414.1244" y2="-889.8351" gradientTransform="matrix(-1 0 0 -1 248.0197 -782)">
					<stop  offset="0" style="stop-color:#8CD7F5"/>
					<stop  offset="1" style="stop-color:#376E8C"/>
				</linearGradient>
				<path fill="url(#SVGID_00000170251529655707382350000001209284354361295502_)" d="M-163.6,115.9c-4.5,0-7.3-1.4-7.3-2.3v-2.9
					h14.6v2.9C-156.3,114.5-159.1,115.9-163.6,115.9z"/>
				<path fill="#003755" d="M-156.8,111.1v2.4c0,0.5-2.3,1.8-6.8,1.8s-6.8-1.4-6.8-1.8v-2.4H-156.8 M-155.8,110.1h-15.6v3.4
					c0,1.6,3.5,2.8,7.8,2.8c4.3,0,7.8-1.3,7.8-2.8V110.1L-155.8,110.1z"/>
			</g>
			<g>
				
					<linearGradient id="SVGID_00000160883610194685871110000007480703741620370873_" gradientUnits="userSpaceOnUse" x1="409.5677" y1="-895.6849" x2="413.6851" y2="-888.5534" gradientTransform="matrix(-1 0 0 -1 248.0197 -782)">
					<stop  offset="0" style="stop-color:#A0E1FA"/>
					<stop  offset="1" style="stop-color:#73C3E1"/>
				</linearGradient>
				<path fill="url(#SVGID_00000160883610194685871110000007480703741620370873_)" d="M-163.6,112.5c-4.5,0-7.3-1.4-7.3-2.3
					s2.8-2.3,7.3-2.3c4.5,0,7.3,1.4,7.3,2.3S-159.1,112.5-163.6,112.5z"/>
				<path fill="#003755" d="M-163.6,108.3c4.5,0,6.8,1.4,6.8,1.8s-2.3,1.8-6.8,1.8s-6.8-1.4-6.8-1.8S-168.1,108.3-163.6,108.3
					 M-163.6,107.3c-4.3,0-7.8,1.3-7.8,2.8s3.5,2.8,7.8,2.8s7.8-1.3,7.8-2.8S-159.3,107.3-163.6,107.3L-163.6,107.3z"/>
			</g>
			<g>
				
					<linearGradient id="SVGID_00000023250430421174924480000002889405832361718439_" gradientUnits="userSpaceOnUse" x1="411.3744" y1="-893.9187" x2="416.5292" y2="-884.9904" gradientTransform="matrix(-1 0 0 -1 248.0197 -782)">
					<stop  offset="0" style="stop-color:#8CD7F5"/>
					<stop  offset="1" style="stop-color:#376E8C"/>
				</linearGradient>
				<path fill="url(#SVGID_00000023250430421174924480000002889405832361718439_)" d="M-166,111c-4.5,0-7.3-1.4-7.3-2.3v-2.9h14.6
					v2.9C-158.7,109.7-161.5,111-166,111z"/>
				<path fill="#003755" d="M-159.2,106.3v2.4c0,0.5-2.3,1.8-6.8,1.8c-4.5,0-6.8-1.4-6.8-1.8v-2.4H-159.2 M-158.2,105.3h-15.6v3.4
					c0,1.6,3.5,2.8,7.8,2.8c4.3,0,7.8-1.3,7.8-2.8V105.3L-158.2,105.3z"/>
			</g>
			<g>
				
					<linearGradient id="SVGID_00000137837594547286910440000003276720161760781503_" gradientUnits="userSpaceOnUse" x1="411.9725" y1="-890.8402" x2="416.0899" y2="-883.7087" gradientTransform="matrix(-1 0 0 -1 248.0197 -782)">
					<stop  offset="0" style="stop-color:#A0E1FA"/>
					<stop  offset="1" style="stop-color:#73C3E1"/>
				</linearGradient>
				<path fill="url(#SVGID_00000137837594547286910440000003276720161760781503_)" d="M-166,107.6c-4.5,0-7.3-1.4-7.3-2.3
					s2.8-2.3,7.3-2.3c4.5,0,7.3,1.4,7.3,2.3S-161.5,107.6-166,107.6z"/>
				<path fill="#003755" d="M-166,103.4c4.5,0,6.8,1.4,6.8,1.8s-2.3,1.8-6.8,1.8c-4.5,0-6.8-1.4-6.8-1.8S-170.5,103.4-166,103.4
					 M-166,102.4c-4.3,0-7.8,1.3-7.8,2.8c0,1.6,3.5,2.8,7.8,2.8c4.3,0,7.8-1.3,7.8-2.8C-158.2,103.7-161.7,102.4-166,102.4
					L-166,102.4z"/>
			</g>
			<g>
				
					<linearGradient id="SVGID_00000142135969816839801310000002989145287310020525_" gradientUnits="userSpaceOnUse" x1="408.9696" y1="-890.2771" x2="414.1244" y2="-881.3488" gradientTransform="matrix(-1 0 0 -1 248.0197 -782)">
					<stop  offset="0" style="stop-color:#8CD7F5"/>
					<stop  offset="1" style="stop-color:#376E8C"/>
				</linearGradient>
				<path fill="url(#SVGID_00000142135969816839801310000002989145287310020525_)" d="M-163.6,107.4c-4.5,0-7.3-1.4-7.3-2.3v-2.9
					h14.6v2.9C-156.3,106-159.1,107.4-163.6,107.4z"/>
				<path fill="#003755" d="M-156.8,102.6v2.4c0,0.5-2.3,1.8-6.8,1.8s-6.8-1.4-6.8-1.8v-2.4H-156.8 M-155.8,101.6h-15.6v3.4
					c0,1.6,3.5,2.8,7.8,2.8c4.3,0,7.8-1.3,7.8-2.8V101.6L-155.8,101.6z"/>
			</g>
			<g>
				
					<linearGradient id="SVGID_00000058552537833507579030000003858717895782619278_" gradientUnits="userSpaceOnUse" x1="409.5677" y1="-887.1986" x2="413.6851" y2="-880.0671" gradientTransform="matrix(-1 0 0 -1 248.0197 -782)">
					<stop  offset="0" style="stop-color:#A0E1FA"/>
					<stop  offset="1" style="stop-color:#73C3E1"/>
				</linearGradient>
				<path fill="url(#SVGID_00000058552537833507579030000003858717895782619278_)" d="M-163.6,104c-4.5,0-7.3-1.4-7.3-2.3
					s2.8-2.3,7.3-2.3c4.5,0,7.3,1.4,7.3,2.3S-159.1,104-163.6,104z"/>
				<path fill="#003755" d="M-163.6,99.8c4.5,0,6.8,1.4,6.8,1.8s-2.3,1.8-6.8,1.8s-6.8-1.4-6.8-1.8S-168.1,99.8-163.6,99.8
					 M-163.6,98.8c-4.3,0-7.8,1.3-7.8,2.8s3.5,2.8,7.8,2.8s7.8-1.3,7.8-2.8S-159.3,98.8-163.6,98.8L-163.6,98.8z"/>
			</g>
			<g>
				
					<linearGradient id="SVGID_00000111903700316391299470000001977848855360611217_" gradientUnits="userSpaceOnUse" x1="-436.3645" y1="-1369.3519" x2="-430.5421" y2="-1359.2672" gradientTransform="matrix(-0.6788 -0.6788 0.7071 -0.7071 517.4755 -1146.3083)">
					<stop  offset="0" style="stop-color:#8CD7F5"/>
					<stop  offset="1" style="stop-color:#376E8C"/>
				</linearGradient>
				<path fill="url(#SVGID_00000111903700316391299470000001977848855360611217_)" d="M-149.2,119.5c-1.1,0-3.5-1.4-6.1-4.3
					c-3.2-3.6-4.3-6.8-3.7-7.5l1.8-2l10.3,11.6l-1.9,2.1C-148.8,119.4-148.9,119.5-149.2,119.5z"/>
				<path fill="#003755" d="M-157.2,106.4l9.7,10.8l-1.5,1.7c0,0,0,0-0.1,0c-1,0-3.3-1.5-5.7-4.2c-3.2-3.6-4-6.4-3.7-6.8
					L-157.2,106.4 M-157.2,104.9l-2.2,2.4c-1,1.1,0.7,4.8,3.7,8.2c2.4,2.7,5,4.5,6.5,4.5c0.3,0,0.6-0.1,0.8-0.3l2.2-2.4
					L-157.2,104.9L-157.2,104.9z"/>
			</g>
			<g>
				
					<linearGradient id="SVGID_00000073722534735481171400000016042805600983129272_" gradientUnits="userSpaceOnUse" x1="-435.67" y1="-1366.4271" x2="-430.8826" y2="-1358.1351" gradientTransform="matrix(-0.6788 -0.6788 0.7071 -0.7071 517.4852 -1146.3051)">
					<stop  offset="0" style="stop-color:#A0E1FA"/>
					<stop  offset="1" style="stop-color:#73C3E1"/>
				</linearGradient>
				<path fill="url(#SVGID_00000073722534735481171400000016042805600983129272_)" d="M-147,117.1c-1.2,0-3.7-1.5-6.2-4.5
					c-3.2-3.6-4.2-6.8-3.6-7.4c0.1-0.1,0.2-0.1,0.4-0.1c1,0,3,1.1,5.4,3.6c0.3,0.3,0.5,0.6,0.8,0.9c3.2,3.6,4.2,6.8,3.6,7.4
					C-146.7,117-146.8,117.1-147,117.1z"/>
				<path fill="#003755" d="M-156.4,105.6c0.9,0,2.9,1.2,5.1,3.4c0.3,0.3,0.5,0.6,0.8,0.9c3.1,3.5,3.8,6.2,3.6,6.7c0,0,0,0-0.1,0
					c-1,0-3.4-1.5-5.9-4.3C-155.9,108.8-156.7,106.1-156.4,105.6C-156.4,105.6-156.4,105.6-156.4,105.6 M-156.4,104.6
					c-0.3,0-0.6,0.1-0.8,0.3c-1.1,1,0.5,4.6,3.5,8.1c2.5,2.8,5.1,4.6,6.6,4.6c0.3,0,0.6-0.1,0.8-0.3c1.1-1-0.5-4.6-3.5-8.1
					c-0.3-0.3-0.6-0.6-0.8-0.9C-152.8,106-155,104.6-156.4,104.6L-156.4,104.6z"/>
			</g>
		</g>
		<path fill="none" stroke="#323232" stroke-linejoin="round" d="M-149.7,109.2c-0.3-0.3-0.6-0.6-0.8-0.9c-1.9-2-3.9-3.3-5.2-3.6
			v-3.1c0-1.6-3.5-2.8-7.8-2.8c-4.3,0-7.8,1.3-7.8,2.8v1.6c-1.5,0.5-2.4,1.2-2.4,2v3.4c0,0.8,0.9,1.5,2.4,2v2.8c0,0,0,0.1,0,0.1
			c0,0,0,0.1,0,0.1v3.4c0,1.6,3.5,2.8,7.8,2.8c4.3,0,7.8-1.3,7.8-2.8v-1.9c0,0.1,0.1,0.1,0.1,0.2c3,3.4,6.3,5.3,7.3,4.2l2.1-2.3
			c0,0,0,0,0.1,0C-145.2,116.3-146.7,112.7-149.7,109.2z"/>
	</g>
	<g>
		<path opacity="0.5" fill="#FFFFFF" stroke="#FFFFFF" stroke-width="6" stroke-linejoin="round" enable-background="new    " d="
			M102.3,88.4c-0.6-0.6-1.1-1.2-1.7-1.8c-3.9-4-7.7-6.6-10.4-7.3v-6.1c0-3.1-7-5.7-15.6-5.7C66,67.6,59,70.1,59,73.3v3.2
			c-3,1-4.8,2.5-4.8,4.1v6.8c0,1.6,1.8,3.1,4.8,4.1v5.6c0,0.1,0,0.1,0,0.2c0,0.1,0,0.1,0,0.2v6.8c0,3.1,7,5.7,15.6,5.7
			s15.6-2.5,15.6-5.7v-3.7c0.1,0.1,0.2,0.2,0.3,0.3c6.1,6.8,12.6,10.6,14.6,8.3l4.1-4.6c0,0,0.1,0,0.1-0.1
			C111.5,102.6,108.3,95.3,102.3,88.4z"/>
		<g>
			<g>
				
					<linearGradient id="SVGID_00000181047569266502518580000017103159885330226326_" gradientUnits="userSpaceOnUse" x1="168.1109" y1="-892.7982" x2="178.4202" y2="-874.9418" gradientTransform="matrix(-1 0 0 -1 248.0197 -782)">
					<stop  offset="0" style="stop-color:#8CD7F5"/>
					<stop  offset="1" style="stop-color:#376E8C"/>
				</linearGradient>
				<path fill="url(#SVGID_00000181047569266502518580000017103159885330226326_)" d="M74.6,109c-9.1,0-14.6-2.7-14.6-4.7v-5.8h29.3
					v5.8C89.2,106.3,83.7,109,74.6,109z"/>
				<path fill="#003755" d="M88.2,99.5v4.8c0,0.9-4.7,3.7-13.6,3.7S61,105.3,61,104.4v-4.8H88.2 M90.2,97.5H59v6.8
					c0,3.1,7,5.7,15.6,5.7s15.6-2.5,15.6-5.7V97.5L90.2,97.5z"/>
			</g>
			<g>
				
					<linearGradient id="SVGID_00000151521784457128203180000017096660833124555198_" gradientUnits="userSpaceOnUse" x1="169.3069" y1="-886.6411" x2="177.5416" y2="-872.3784" gradientTransform="matrix(-1 0 0 -1 248.0197 -782)">
					<stop  offset="0" style="stop-color:#A0E1FA"/>
					<stop  offset="1" style="stop-color:#73C3E1"/>
				</linearGradient>
				<path fill="url(#SVGID_00000151521784457128203180000017096660833124555198_)" d="M74.6,102.2c-9.1,0-14.6-2.7-14.6-4.7
					s5.6-4.7,14.6-4.7s14.6,2.7,14.6,4.7S83.7,102.2,74.6,102.2z"/>
				<path fill="#003755" d="M74.6,93.8c9,0,13.6,2.7,13.6,3.7c0,0.9-4.7,3.7-13.6,3.7S61,98.5,61,97.5C61,96.6,65.6,93.8,74.6,93.8
					 M74.6,91.8C66,91.8,59,94.4,59,97.5c0,3.1,7,5.7,15.6,5.7s15.6-2.5,15.6-5.7C90.2,94.4,83.2,91.8,74.6,91.8L74.6,91.8z"/>
			</g>
			<g>
				
					<linearGradient id="SVGID_00000016059704743702868960000016025125212343264183_" gradientUnits="userSpaceOnUse" x1="168.1109" y1="-885.514" x2="178.4202" y2="-867.6577" gradientTransform="matrix(-1 0 0 -1 248.0197 -782)">
					<stop  offset="0" style="stop-color:#8CD7F5"/>
					<stop  offset="1" style="stop-color:#376E8C"/>
				</linearGradient>
				<path fill="url(#SVGID_00000016059704743702868960000016025125212343264183_)" d="M74.6,101.8c-9.1,0-14.6-2.7-14.6-4.7v-5.8
					h29.3v5.8C89.2,99,83.7,101.8,74.6,101.8z"/>
				<path fill="#003755" d="M88.2,92.2v4.8c0,0.9-4.7,3.7-13.6,3.7S61,98,61,97.1v-4.8H88.2 M90.2,90.2H59v6.8c0,3.1,7,5.7,15.6,5.7
					s15.6-2.5,15.6-5.7V90.2L90.2,90.2z"/>
			</g>
			<g>
				
					<linearGradient id="SVGID_00000164514691686926937820000002549715604013423550_" gradientUnits="userSpaceOnUse" x1="169.3069" y1="-879.3569" x2="177.5416" y2="-865.0942" gradientTransform="matrix(-1 0 0 -1 248.0197 -782)">
					<stop  offset="0" style="stop-color:#A0E1FA"/>
					<stop  offset="1" style="stop-color:#73C3E1"/>
				</linearGradient>
				<path fill="url(#SVGID_00000164514691686926937820000002549715604013423550_)" d="M74.6,94.9c-9.1,0-14.6-2.7-14.6-4.7
					s5.6-4.7,14.6-4.7s14.6,2.7,14.6,4.7S83.7,94.9,74.6,94.9z"/>
				<path fill="#003755" d="M74.6,86.5c9,0,13.6,2.7,13.6,3.7s-4.7,3.7-13.6,3.7S61,91.2,61,90.2S65.6,86.5,74.6,86.5 M74.6,84.5
					C66,84.5,59,87.1,59,90.2c0,3.1,7,5.7,15.6,5.7s15.6-2.5,15.6-5.7C90.2,87.1,83.2,84.5,74.6,84.5L74.6,84.5z"/>
			</g>
			<g>
				
					<linearGradient id="SVGID_00000099624000400230785190000016122707146122516361_" gradientUnits="userSpaceOnUse" x1="172.9206" y1="-875.8247" x2="183.2301" y2="-857.9681" gradientTransform="matrix(-1 0 0 -1 248.0197 -782)">
					<stop  offset="0" style="stop-color:#8CD7F5"/>
					<stop  offset="1" style="stop-color:#376E8C"/>
				</linearGradient>
				<path fill="url(#SVGID_00000099624000400230785190000016122707146122516361_)" d="M69.8,92.1c-9.1,0-14.6-2.7-14.6-4.7v-5.8
					h29.3v5.8C84.4,89.3,78.9,92.1,69.8,92.1z"/>
				<path fill="#003755" d="M83.4,82.5v4.8c0,0.9-4.7,3.7-13.6,3.7s-13.6-2.7-13.6-3.7v-4.8H83.4 M85.4,80.5H54.1v6.8
					c0,3.1,7,5.7,15.6,5.7s15.6-2.5,15.6-5.7V80.5L85.4,80.5z"/>
			</g>
			<g>
				
					<linearGradient id="SVGID_00000152962652765936731770000017499985668876427172_" gradientUnits="userSpaceOnUse" x1="174.1166" y1="-869.6678" x2="182.3514" y2="-855.4047" gradientTransform="matrix(-1 0 0 -1 248.0197 -782)">
					<stop  offset="0" style="stop-color:#A0E1FA"/>
					<stop  offset="1" style="stop-color:#73C3E1"/>
				</linearGradient>
				<path fill="url(#SVGID_00000152962652765936731770000017499985668876427172_)" d="M69.8,85.2c-9.1,0-14.6-2.7-14.6-4.7
					s5.6-4.7,14.6-4.7s14.6,2.7,14.6,4.7S78.9,85.2,69.8,85.2z"/>
				<path fill="#003755" d="M69.8,76.9c9,0,13.6,2.7,13.6,3.7s-4.7,3.7-13.6,3.7s-13.6-2.7-13.6-3.7S60.8,76.9,69.8,76.9 M69.8,74.9
					c-8.6,0-15.6,2.5-15.6,5.7s7,5.7,15.6,5.7s15.6-2.5,15.6-5.7S78.4,74.9,69.8,74.9L69.8,74.9z"/>
			</g>
			<g>
				
					<linearGradient id="SVGID_00000033360428760305204720000000373899860647237764_" gradientUnits="userSpaceOnUse" x1="168.1109" y1="-868.5404" x2="178.4202" y2="-850.684" gradientTransform="matrix(-1 0 0 -1 248.0197 -782)">
					<stop  offset="0" style="stop-color:#8CD7F5"/>
					<stop  offset="1" style="stop-color:#376E8C"/>
				</linearGradient>
				<path fill="url(#SVGID_00000033360428760305204720000000373899860647237764_)" d="M74.6,84.8c-9.1,0-14.6-2.7-14.6-4.7v-5.8
					h29.3v5.8C89.2,82.1,83.7,84.8,74.6,84.8z"/>
				<path fill="#003755" d="M88.2,75.3v4.8c0,0.9-4.7,3.7-13.6,3.7S61,81,61,80.1v-4.8H88.2 M90.2,73.3H59v6.8c0,3.1,7,5.7,15.6,5.7
					s15.6-2.5,15.6-5.7V73.3L90.2,73.3z"/>
			</g>
			<g>
				
					<linearGradient id="SVGID_00000180353613102574536110000008169495645663905163_" gradientUnits="userSpaceOnUse" x1="169.3069" y1="-862.3833" x2="177.5416" y2="-848.1205" gradientTransform="matrix(-1 0 0 -1 248.0197 -782)">
					<stop  offset="0" style="stop-color:#A0E1FA"/>
					<stop  offset="1" style="stop-color:#73C3E1"/>
				</linearGradient>
				<path fill="url(#SVGID_00000180353613102574536110000008169495645663905163_)" d="M74.6,77.9c-9.1,0-14.6-2.7-14.6-4.7
					s5.6-4.7,14.6-4.7s14.6,2.7,14.6,4.7S83.7,77.9,74.6,77.9z"/>
				<path fill="#003755" d="M74.6,69.6c9,0,13.6,2.7,13.6,3.7c0,0.9-4.7,3.7-13.6,3.7S61,74.2,61,73.3C61,72.3,65.6,69.6,74.6,69.6
					 M74.6,67.6C66,67.6,59,70.1,59,73.3c0,3.1,7,5.7,15.6,5.7s15.6-2.5,15.6-5.7C90.2,70.1,83.2,67.6,74.6,67.6L74.6,67.6z"/>
			</g>
			<g>
				
					<linearGradient id="SVGID_00000119078329095865337000000017973933418005634991_" gradientUnits="userSpaceOnUse" x1="-609.7465" y1="-1186.1765" x2="-598.1021" y2="-1166.0079" gradientTransform="matrix(-0.6788 -0.6788 0.7071 -0.7071 517.4755 -1146.3083)">
					<stop  offset="0" style="stop-color:#8CD7F5"/>
					<stop  offset="1" style="stop-color:#376E8C"/>
				</linearGradient>
				<path fill="url(#SVGID_00000119078329095865337000000017973933418005634991_)" d="M103.5,109c-2.2,0-6.9-2.7-12.2-8.6
					c-6.4-7.2-8.7-13.6-7.4-15l3.6-4l20.7,23.2l-3.7,4.1C104.3,108.7,104.1,109,103.5,109z"/>
				<path fill="#003755" d="M87.4,82.8l19.3,21.7l-3.1,3.4c0,0-0.1,0-0.2,0c-2,0-6.6-2.9-11.5-8.3c-6.5-7.2-7.9-12.8-7.4-13.7
					L87.4,82.8 M87.4,79.8l-4.3,4.8c-2,2.2,1.3,9.5,7.4,16.4c4.9,5.5,10.1,9,13,9c0.7,0,1.3-0.2,1.6-0.6l4.3-4.8L87.4,79.8
					L87.4,79.8z"/>
			</g>
			<g>
				
					<linearGradient id="SVGID_00000135665091700847771620000011019098857013853334_" gradientUnits="userSpaceOnUse" x1="-608.3663" y1="-1180.3226" x2="-598.7916" y2="-1163.7388" gradientTransform="matrix(-0.6788 -0.6788 0.7071 -0.7071 517.4852 -1146.3051)">
					<stop  offset="0" style="stop-color:#A0E1FA"/>
					<stop  offset="1" style="stop-color:#73C3E1"/>
				</linearGradient>
				<path fill="url(#SVGID_00000135665091700847771620000011019098857013853334_)" d="M107.8,104.2c-2.3,0-7.3-3.1-12.5-8.9
					C89,88,86.9,81.7,88.2,80.4c0.2-0.2,0.5-0.3,0.9-0.3c1.9,0,6,2.2,10.8,7.1c0.5,0.6,1.1,1.2,1.6,1.8c6.4,7.3,8.4,13.5,7.1,14.8
					C108.5,104.1,108.2,104.2,107.8,104.2z"/>
				<path fill="#003755" d="M89.1,81.2c1.7,0,5.8,2.4,10.1,6.8c0.5,0.6,1.1,1.1,1.6,1.7c6.2,7,7.6,12.5,7.2,13.4c0,0-0.1,0-0.2,0
					c-2,0-6.8-3-11.7-8.6c-6.2-7-7.6-12.5-7.2-13.4C89,81.2,89,81.2,89.1,81.2 M89.1,79.2c-0.6,0-1.2,0.2-1.6,0.5
					c-2.1,2.1,1,9.3,7.1,16.2c4.9,5.6,10.3,9.3,13.2,9.3c0.6,0,1.2-0.2,1.6-0.5c2.1-2.1-1-9.3-7.1-16.2c-0.6-0.6-1.1-1.2-1.7-1.8
					C96.2,82,91.7,79.2,89.1,79.2L89.1,79.2z"/>
			</g>
		</g>
		<path fill="none" stroke="#323232" stroke-width="2" stroke-linejoin="round" d="M102.3,88.4c-0.6-0.6-1.1-1.2-1.7-1.8
			c-3.9-4-7.7-6.6-10.4-7.3v-6.1c0-3.1-7-5.7-15.6-5.7C66,67.6,59,70.1,59,73.3v3.2c-3,1-4.8,2.5-4.8,4.1v6.8c0,1.6,1.8,3.1,4.8,4.1
			v5.6c0,0.1,0,0.1,0,0.2c0,0.1,0,0.1,0,0.2v6.8c0,3.1,7,5.7,15.6,5.7s15.6-2.5,15.6-5.7v-3.7c0.1,0.1,0.2,0.2,0.3,0.3
			c6.1,6.8,12.6,10.6,14.6,8.3l4.1-4.6c0,0,0.1,0,0.1-0.1C111.5,102.6,108.3,95.3,102.3,88.4z"/>
	</g>
</g>
</svg>
