<?xml version="1.0" encoding="UTF-8"?>
<svg id="d" data-name="IT 3" xmlns="http://www.w3.org/2000/svg" xmlns:xlink="http://www.w3.org/1999/xlink" viewBox="0 0 64 64">
  <defs>
    <linearGradient id="e" x1="21.72" y1="3.24" x2="42.99" y2="40.09" gradientUnits="userSpaceOnUse">
      <stop offset="0" stop-color="#3287af"/>
      <stop offset="1" stop-color="#285a78"/>
    </linearGradient>
    <linearGradient id="f" x1="21.01" y1="23.91" x2="42.28" y2="60.76" xlink:href="#e"/>
    <linearGradient id="g" x1="20" y1="15.21" x2="40.54" y2="50.79" gradientUnits="userSpaceOnUse">
      <stop offset="0" stop-color="#fff"/>
      <stop offset="1" stop-color="#d2d2d2"/>
    </linearGradient>
    <linearGradient id="h" data-name="Dégradé sans nom 210" x1="37.78" y1="22.5" x2="39.98" y2="20.07" gradientUnits="userSpaceOnUse">
      <stop offset="0" stop-color="#f5f5f5"/>
      <stop offset=".29" stop-color="#e9e9e9"/>
      <stop offset=".81" stop-color="#cacaca"/>
      <stop offset="1" stop-color="#bebebe"/>
    </linearGradient>
    <linearGradient id="i" x1="31.45" y1="30.32" x2="34.55" y2="35.68" xlink:href="#e"/>
    <linearGradient id="j" x1="34.02" y1="28.57" x2="37.98" y2="35.43" xlink:href="#e"/>
    <linearGradient id="k" x1="36.58" y1="26.82" x2="41.42" y2="35.18" xlink:href="#e"/>
    <linearGradient id="l" x1="40.23" y1="29.44" x2="43.77" y2="35.56" xlink:href="#e"/>
    <linearGradient id="m" x1="23" y1="28.54" x2="27" y2="35.46" xlink:href="#e"/>
    <linearGradient id="n" x1="25" y1="28" x2="28.4" y2="33.89" gradientUnits="userSpaceOnUse">
      <stop offset="0" stop-color="#a0e1fa"/>
      <stop offset="1" stop-color="#73c3e1"/>
    </linearGradient>
    <linearGradient id="o" data-name="Dégradé sans nom 193" x1="34.5" y1="44" x2="47.5" y2="44" gradientUnits="userSpaceOnUse">
      <stop offset="0" stop-color="#376e8c"/>
      <stop offset=".31" stop-color="#8cd7f5"/>
      <stop offset=".59" stop-color="#488fac"/>
      <stop offset=".8" stop-color="#8cd7f5"/>
      <stop offset="1" stop-color="#376e8c"/>
    </linearGradient>
    <linearGradient id="p" x1="38.74" y1="38.36" x2="44.41" y2="48.18" xlink:href="#e"/>
    <radialGradient id="q" cx="41.08" cy="42" fx="41.08" fy="42" r="5.63" gradientTransform="translate(0 -20.27) scale(1 1.48)" gradientUnits="userSpaceOnUse">
      <stop offset="0" stop-color="#fff"/>
      <stop offset="1" stop-color="#fff" stop-opacity="0"/>
    </radialGradient>
    <radialGradient id="r" cx="41.06" cy="50.92" fx="41.06" fy="50.92" r="8.85" gradientTransform="translate(-11.19 92.19) rotate(-90.23) scale(1 1.03)" gradientUnits="userSpaceOnUse">
      <stop offset="0" stop-color="#000"/>
      <stop offset="1" stop-color="#000" stop-opacity="0"/>
    </radialGradient>
  </defs>
  <g>
    <g opacity=".5">
      <path d="M53,32.5c-.28,0-.5-.22-.5-.5,0-11.3-9.2-20.5-20.5-20.5-5.31,0-10.31,2-14.14,5.65l4.49,4.49c.14.14.19.36.11.54-.08.19-.26.31-.46.31h-12c-.28,0-.5-.22-.5-.5v-12c0-.2.12-.38.31-.46.06-.03.13-.04.19-.04.13,0,.26.05.35.15l3.97,3.97c4.77-4.59,11.03-7.12,17.68-7.12,14.06,0,25.5,11.44,25.5,25.5,0,.28-.22.5-.5.5h-4Z" fill="#fff"/>
      <path d="M32,7c13.81,0,25,11.19,25,25h-4c0-11.6-9.4-21-21-21-5.8,0-11.05,2.35-14.85,6.15l4.85,4.85h-12v-12l4.32,4.32c4.52-4.52,10.78-7.32,17.68-7.32M32,6c-6.61,0-12.85,2.45-17.67,6.92l-3.63-3.63c-.19-.19-.45-.29-.71-.29-.13,0-.26.02-.38.08-.37.15-.62.52-.62.92v12c0,.55.45,1,1,1h12c.4,0,.77-.24.92-.62.15-.37.07-.8-.22-1.09l-4.13-4.13c3.68-3.34,8.41-5.17,13.42-5.17,11.03,0,20,8.97,20,20,0,.55.45,1,1,1h4c.55,0,1-.45,1-1,0-14.34-11.66-26-26-26h0Z" fill="#fff"/>
    </g>
    <g opacity=".5">
      <path d="M32,57.5c-14.06,0-25.5-11.44-25.5-25.5,0-.28.22-.5.5-.5h4c.28,0,.5.22.5.5,0,11.3,9.2,20.5,20.5,20.5,5.31,0,10.31-2,14.14-5.65l-4.49-4.49c-.14-.14-.19-.36-.11-.54s.26-.31.46-.31h12c.28,0,.5.22.5.5v12c0,.2-.12.38-.31.46-.06.03-.13.04-.19.04-.13,0-.26-.05-.35-.15l-3.97-3.97c-4.77,4.59-11.03,7.12-17.68,7.12Z" fill="#fff"/>
      <path d="M11,32c0,11.6,9.4,21,21,21,5.8,0,11.05-2.35,14.85-6.15l-4.85-4.85h12v12l-4.32-4.32c-4.52,4.52-10.78,7.32-17.68,7.32-13.81,0-25-11.19-25-25h4M11,31h-4c-.55,0-1,.45-1,1,0,14.34,11.66,26,26,26,6.61,0,12.85-2.45,17.67-6.92l3.63,3.63c.19.19.45.29.71.29.13,0,.26-.02.38-.08.37-.15.62-.52.62-.92v-12c0-.55-.45-1-1-1h-12c-.4,0-.77.24-.92.62-.15.37-.07.8.22,1.09l4.13,4.13c-3.68,3.34-8.41,5.17-13.42,5.17-11.03,0-20-8.97-20-20,0-.55-.45-1-1-1h0Z" fill="#fff"/>
    </g>
    <path d="M57,32h-4c0-11.6-9.4-21-21-21-5.8,0-11.05,2.35-14.85,6.15l4.85,4.85h-12v-12l4.32,4.32c4.52-4.52,10.78-7.32,17.68-7.32,13.81,0,25,11.19,25,25Z" fill="url(#e)"/>
    <path d="M54,42v12l-4.32-4.32c-4.52,4.52-10.78,7.32-17.68,7.32-13.81,0-25-11.19-25-25h4c0,11.6,9.4,21,21,21,5.8,0,11.05-2.35,14.85-6.15l-4.85-4.85h12Z" fill="url(#f)"/>
  </g>
  <g>
    <polygon points="44.5 48.5 19.5 48.5 19.5 15.5 36.5 15.5 44.5 23.5 44.5 48.5" fill="#fff" opacity=".75" stroke="#fff" stroke-linejoin="round" stroke-width="3"/>
    <polygon points="44.5 48.5 19.5 48.5 19.5 15.5 36.5 15.5 44.5 23.5 44.5 48.5" fill="url(#g)"/>
    <polygon points="36.5 15.5 36.5 23.5 44.5 23.5 36.5 15.5" fill="url(#h)" stroke="#787878" stroke-linejoin="round"/>
    <g>
      <g>
        <rect x="22" y="41" width="20" height="1" fill="#646464" opacity=".5"/>
        <rect x="22" y="39" width="20" height="1" fill="#646464" opacity=".5"/>
        <rect x="22" y="43" width="20" height="1" fill="#646464" opacity=".5"/>
        <rect x="22" y="45" width="9" height="1" fill="#646464" opacity=".5"/>
      </g>
      <g>
        <rect x="22" y="18" width="12" height="1" fill="#646464" opacity=".5"/>
        <rect x="22" y="20" width="12" height="1" fill="#646464" opacity=".5"/>
        <rect x="22" y="22" width="7" height="1" fill="#646464" opacity=".5"/>
      </g>
      <g>
        <polygon points="31 36 31 26 30 26 30 37 31 37 43 37 43 36 31 36" fill="#646464" opacity=".5"/>
        <rect x="32" y="30" width="2" height="6" fill="url(#i)"/>
        <rect x="35" y="28" width="2" height="8" fill="url(#j)"/>
        <rect x="38" y="26" width="2" height="10" fill="url(#k)"/>
        <rect x="41" y="29" width="2" height="7" fill="url(#l)"/>
      </g>
      <g>
        <circle cx="25" cy="32" r="4" fill="url(#m)"/>
        <path d="M25,28v4l3.58,1.79c.27-.54.42-1.15.42-1.79,0-2.21-1.79-4-4-4Z" fill="url(#n)"/>
      </g>
    </g>
    <polygon points="36 24 44 27 44 24 36 23 36 24" fill="#646464" opacity=".3"/>
    <polygon points="44.5 48.5 19.5 48.5 19.5 15.5 36.5 15.5 44.5 23.5 44.5 48.5" fill="none" stroke="#323232" stroke-linejoin="round"/>
  </g>
  <g>
    <path d="M41,36.5s-1.5,2-6.5,2v2.5c0,9.5,6.5,10.5,6.5,10.5,0,0,6.5-1,6.5-10.5v-2.5c-5,0-6.5-2-6.5-2Z" fill="#fff" opacity=".75" stroke="#fff" stroke-linejoin="round" stroke-width="3"/>
    <path d="M41,36.5s-1.5,2-6.5,2v2.5c0,9.5,6.5,10.5,6.5,10.5,0,0,6.5-1,6.5-10.5v-2.5c-5,0-6.5-2-6.5-2Z" fill="url(#o)" stroke="#003755" stroke-linejoin="round"/>
    <g opacity=".6">
      <path d="M36,39.94v1.06c0,7.1,3.96,8.67,5,8.96,1.02-.28,5-1.84,5-8.96v-1.06c-2.46-.2-4.05-.89-5-1.5-.95.61-2.54,1.3-5,1.5Z" fill="url(#p)"/>
    </g>
    <path d="M41,37.2v13.79c.74-.15,6-1.51,6-9.99v-2.01c-3.52-.09-5.28-1.18-6-1.79Z" fill="url(#q)" opacity=".3"/>
    <g opacity=".3">
      <path d="M41,37.2c-.72.61-2.48,1.7-6,1.79v2.01c0,8.48,5.26,9.84,6,9.99.74-.15,6-1.51,6-9.99v-2.01c-3.52-.09-5.28-1.18-6-1.79Z" fill="url(#r)"/>
    </g>
  </g>
</svg>