<svg id="OK_v7_copy" data-name="OK v7 copy" xmlns="http://www.w3.org/2000/svg" xmlns:xlink="http://www.w3.org/1999/xlink" viewBox="0 0 64 64"><defs><style>.cls-1,.cls-19,.cls-2,.cls-20,.cls-27,.cls-3,.cls-6{fill:none;}.cls-10,.cls-11,.cls-17,.cls-2,.cls-3,.cls-31,.cls-32,.cls-6{stroke:#000;}.cls-10,.cls-11,.cls-17,.cls-19,.cls-2,.cls-20,.cls-21,.cls-23,.cls-27,.cls-3,.cls-6{stroke-linecap:round;}.cls-10,.cls-11,.cls-17,.cls-2,.cls-21,.cls-23,.cls-3{stroke-linejoin:round;}.cls-3{stroke-width:0.75px;}.cls-17,.cls-23,.cls-4{fill:#fff;}.cls-19,.cls-20,.cls-27,.cls-31,.cls-32,.cls-5,.cls-6{stroke-miterlimit:10;}.cls-5{stroke-width:0.13px;fill:url(#linear-gradient);stroke:url(#linear-gradient-2);}.cls-10,.cls-19,.cls-6{stroke-width:0.5px;}.cls-7{fill:#323232;}.cls-8{fill:url(#New_Gradient_Swatch_1);}.cls-9{fill:url(#Dark_BLUE_gradient_LEFT);}.cls-10{fill:url(#New_Gradient_Swatch_1-2);}.cls-11,.cls-33{fill:#e1e1e1;}.cls-11,.cls-17,.cls-21,.cls-27{stroke-width:0.25px;}.cls-12{fill:url(#linear-gradient-3);}.cls-13{fill:#787878;}.cls-14{fill:url(#linear-gradient-4);}.cls-15{fill:url(#linear-gradient-5);}.cls-16{fill:url(#white_left);}.cls-18{clip-path:url(#clip-path);}.cls-19,.cls-20,.cls-21,.cls-23,.cls-27{stroke:#5a9ab8;}.cls-20{stroke-width:0.5px;}.cls-21{fill:#aadcfa;}.cls-21,.cls-28{fill-opacity:0.4;}.cls-22{clip-path:url(#clip-path-2);}.cls-23{stroke-width:0.52px;}.cls-24,.cls-26{opacity:0.4;}.cls-24{fill:url(#Light_BLUE_gradient_TOP);}.cls-25{fill:#5a9ab8;}.cls-26,.cls-28{fill:#82bddb;}.cls-29{clip-path:url(#clip-path-3);}.cls-30,.cls-32{fill:#f1f0f0;}.cls-31{stroke-width:0.39px;}.cls-32{stroke-width:0.55px;}</style><linearGradient id="linear-gradient" x1="11.38" y1="44.88" x2="53.06" y2="34.48" gradientUnits="userSpaceOnUse"><stop offset="0.28" stop-color="#e1e1e1"/><stop offset="0.34" stop-color="#c9c9c9"/><stop offset="0.45" stop-color="#8b8b8b"/><stop offset="0.59" stop-color="#323232"/></linearGradient><linearGradient id="linear-gradient-2" x1="8.83" y1="39.57" x2="55.28" y2="39.57" gradientUnits="userSpaceOnUse"><stop offset="0.77" stop-color="#82bddc"/><stop offset="1" stop-color="#275a78"/></linearGradient><linearGradient id="New_Gradient_Swatch_1" x1="38.47" y1="40.38" x2="45.88" y2="40.38" gradientUnits="userSpaceOnUse"><stop offset="0" stop-color="#464646"/><stop offset="0.99" stop-color="#141414"/></linearGradient><linearGradient id="Dark_BLUE_gradient_LEFT" x1="39.44" y1="22.24" x2="49.44" y2="39.56" gradientUnits="userSpaceOnUse"><stop offset="0" stop-color="#82bddc"/><stop offset="1" stop-color="#275a78"/></linearGradient><linearGradient id="New_Gradient_Swatch_1-2" x1="30.39" y1="33.7" x2="55.09" y2="33.7" xlink:href="#New_Gradient_Swatch_1"/><linearGradient id="linear-gradient-3" x1="29.45" y1="19.44" x2="39.64" y2="37.08" gradientUnits="userSpaceOnUse"><stop offset="0" stop-color="#fff"/><stop offset="1" stop-color="#d2d2d2"/></linearGradient><linearGradient id="linear-gradient-4" x1="15.31" y1="38.34" x2="38.6" y2="38.34" gradientUnits="userSpaceOnUse"><stop offset="0.18" stop-color="#bebebe"/><stop offset="0.32" stop-color="#f5f5f5"/><stop offset="0.6" stop-color="#c6c6c6"/><stop offset="0.8" stop-color="#ddd"/><stop offset="0.96" stop-color="#a49f9f"/></linearGradient><linearGradient id="linear-gradient-5" x1="15.56" y1="38.34" x2="38.35" y2="38.34" gradientUnits="userSpaceOnUse"><stop offset="0" stop-color="#e1e1e1"/><stop offset="0.1" stop-color="#bbb"/><stop offset="0.27" stop-color="#818181"/><stop offset="0.41" stop-color="#565656"/><stop offset="0.52" stop-color="#3c3c3c"/><stop offset="0.59" stop-color="#323232"/></linearGradient><linearGradient id="white_left" x1="29.45" y1="19.44" x2="39.64" y2="37.08" gradientUnits="userSpaceOnUse"><stop offset="0" stop-color="#f5f5f5"/><stop offset="1" stop-color="#bebebe"/></linearGradient><clipPath id="clip-path"><polygon class="cls-1" points="57.7 43.1 14.28 43.1 14.28 9 39.5 9.01 37.79 17.72 36.92 18.21 36.14 20.6 36.75 22.5 36.31 29.75 37.88 32.31 44.58 30.7 44.58 26.79 45.04 26.01 46.71 20.95 57.7 20.95 57.7 43.1"/></clipPath><clipPath id="clip-path-2"><path class="cls-1" d="M47.3,24.88H14.09l0-11.08h7.82l-1,3.57s1.12,1.93,9.69,1.93c7.68,0,9.06-1.87,9.06-1.87l-1-3.59H47.3Z"/></clipPath><linearGradient id="Light_BLUE_gradient_TOP" x1="20.88" y1="15.12" x2="39.77" y2="15.12" gradientUnits="userSpaceOnUse"><stop offset="0" stop-color="#a0e1fa"/><stop offset="0.99" stop-color="#73c3e1"/></linearGradient><clipPath id="clip-path-3"><polygon class="cls-1" points="57.7 43.1 14.28 43.1 14.28 9 39.5 9.01 37.79 17.72 36.92 18.21 36.14 20.4 36.75 22.5 36.31 29.75 37.88 32.31 44.58 30.7 44.58 27.09 45.04 26.01 46.71 20.95 57.7 20.95 57.7 43.1"/></clipPath></defs><title>2511__A33AAe__R21XArtboard 1</title><g id="version_02_copy_6" data-name="version 02 copy 6"><g id="contour_ok_copy_6" data-name="contour ok **** copy 6"><path id="FORME_A_non_" data-name="FORME  A  *non*" class="cls-2" d="M55.08,28.44,39.15,23.12,28.61,25.36a44,44,0,0,0-4.93.45l-2.52-1-2.34.46h0s-.61,1.85-.65,2c-1.63.73-2.61,1.64-2.61,2.61V42.72c0,1.82,3.63,3.38,8.67,4.09v-3a43.08,43.08,0,0,0,6,.4,41,41,0,0,0,8.11-.74l7.75,3.72h0l2.39-.87-2.22-6.43,1.78-.63,1,.46s1.76-2.11,2.68-3.11A11.6,11.6,0,0,0,55.08,28.44Zm-24.69-1c3.23,0,5.86.85,5.86,1.91s-2.63,1.92-5.86,1.92-5.86-.86-5.86-1.92S27.15,27.47,30.39,27.47Z"/><path id="FORME_A_oui_" data-name="FORME  A  *oui*" class="cls-2" d="M55.08,28.85l-4.39,2.58s-24.89-5-28.09-5c-4.26,0-7,2.33-7,3.46V42.72c0,1.82,3.63,3.38,8.67,4.09v-3a43.08,43.08,0,0,0,6,.4,41,41,0,0,0,8.11-.74l7.75,3.72h0l2.39-.87-2.22-6.43,1.78-.63,1,.46s1.76-2.11,2.68-3.11C55.46,32.61,55.08,28.85,55.08,28.85ZM30.39,27.47c3.23,0,5.86.85,5.86,1.91s-2.63,1.92-5.86,1.92-5.86-.86-5.86-1.92S27.15,27.47,30.39,27.47Z"/><path id="surf_non_top" data-name="surf *non** top" class="cls-3" d="M44.19,31.2l10.89-2.76L39.15,23.12,28.61,25.36a44,44,0,0,0-4.93.45l-2.52-1-2.34.46,2.23,1c-3.4.82-5.49,2.12-5.49,3.56,0,2.48,6.62,4.5,14.68,4.5a40.54,40.54,0,0,0,8.1-.78c.67.26,3.21,1.32,3.21,1.32l2.71-.8-3-1.27A8.12,8.12,0,0,0,44.19,31.2Zm-13.8.1c-3.24,0-5.86-.86-5.86-1.92s2.62-1.91,5.86-1.91,5.86.85,5.86,1.91S33.62,31.3,30.39,31.3Z"/><polygon class="cls-3" points="38.35 43.51 46.1 47.23 41.55 34.91 38.34 33.59 38.35 43.51"/><polygon class="cls-3" points="48.49 46.36 46.1 47.23 41.55 34.91 44.26 34.11 48.49 46.36"/></g><g id="Layer_45_copy_9" data-name="Layer 45 copy 9"><path id="tranceh_blanche" data-name="tranceh blanche" class="cls-4" d="M54.09,47.56l-12.62,4.6a10.6,10.6,0,0,1-9.2-.54L9.31,38c-.46-.27-.36-.44-.36-3.31L9.59,34l16.25-4.41a3.21,3.21,0,0,1,2.05.23L54.68,42.43l.46.45,0,.38C55.17,47.32,54.93,47.26,54.09,47.56Z"/><path id="TOP" class="cls-5" d="M54.46,44.22,41.47,49a12,12,0,0,1-9.69-.9L9.23,35.37c-.6-.34-.39-1.17.64-1.44l16.06-4.32a3.28,3.28,0,0,1,2.05.22l26.7,12.6A1,1,0,0,1,54.46,44.22Z"/><g id="BASE_" data-name="BASE  ***"><path d="M26.62,29.53a3.21,3.21,0,0,1,1.36.3l26.7,12.6a.79.79,0,0,1,.49.83s0,3.58,0,3.67h0c0,.3-.39.39-1.07.63l-12.62,4.6a12.54,12.54,0,0,1-4.23.79,9.86,9.86,0,0,1-5-1.33L9.31,38a.6.6,0,0,1-.38-.57V34.76c0-.39.34-.67.94-.83l16.06-4.32a3.25,3.25,0,0,1,.69-.08m0-.5a3.57,3.57,0,0,0-.8.09L9.74,33.45c-1.14.29-1.31.95-1.31,1.31v2.69a1.11,1.11,0,0,0,.62,1l23,13.6a10.41,10.41,0,0,0,5.23,1.4,13.11,13.11,0,0,0,4.4-.82L54.26,48l.28-.1c.58-.2,1.12-.39,1.12-1,0-.08,0-3.63,0-3.67A1.29,1.29,0,0,0,54.9,42L28.19,29.38A3.71,3.71,0,0,0,26.62,29Z"/></g><path id="contour_plateau_BOTTOM" data-name="contour plateau BOTTOM" class="cls-6" d="M55.34,43.25a1.18,1.18,0,0,1-.88,1L41.47,49a11.25,11.25,0,0,1-9.69-.9l-23-13"/><polygon class="cls-7" points="18.16 27.27 19.51 26.95 21.05 26.32 18.82 25.3 18.16 27.27"/><polygon class="cls-8" points="38.47 43.43 38.47 33.78 41.45 35 45.88 46.99 38.47 43.43"/><path d="M38.59,34l2.77,1.14,4.3,11.64L38.6,43.36V34m-.25-.37v9.92l7.75,3.72L41.55,34.91l-3.21-1.32Z"/><path id="arr_" data-name="arr **" class="cls-9" d="M41.22,32.84a8,8,0,0,0,3-1.64l10.89-2.76a11.6,11.6,0,0,1-3.31,8.21c-.92,1-2.68,3.11-2.68,3.11l-1-.46-1.78.63-2-5.82ZM30.39,27.47"/><path id="arr_n_" data-name="arr *n*" class="cls-10" d="M41.22,32.84a8,8,0,0,0,3-1.64l10.89-2.76a11.6,11.6,0,0,1-3.31,8.21c-.92,1-2.46,3-2.46,3l-1-.35-2.07.65-2-5.82ZM30.39,27.47"/><polygon class="cls-11" points="48.49 46.36 46.1 47.23 41.55 34.91 44.26 34.11 48.49 46.36"/><g id="surf_top" data-name="surf *** top"><path class="cls-12" d="M41.56,34.77l-3.17-1.3a42.54,42.54,0,0,1-8.15.77c-7.89,0-14.56-2-14.56-4.37,0-1.33,2-2.62,5.4-3.44l.36-.08-2.21-1,2-.38,2.44,1a49.49,49.49,0,0,1,5-.45l10.57-2.24,15.46,5.18L44.16,31.08a8.37,8.37,0,0,1-3,1.64l-.31.11.3.12,2.72,1.14ZM30.39,27.34c-3.35,0-6,.9-6,2s2.63,2,6,2,6-.9,6-2S33.74,27.34,30.39,27.34Z"/><path class="cls-13" d="M39.13,23.38l15.06,5L44.13,31l-.07,0L44,31a8,8,0,0,1-2.88,1.57l-.62.22.6.25,2.4,1-2,.57c-.44-.18-2.54-1-3.13-1.28l-.07,0-.08,0a40.89,40.89,0,0,1-8,.77c-7.82,0-14.43-1.95-14.43-4.25,0-1.27,2-2.51,5.3-3.32l.71-.17-.66-.3-1.52-.69,1.5-.29,2.45.94.06,0h.06a48.19,48.19,0,0,1,4.95-.46l10.47-2.22m-8.74,8.17c3,0,6.11-.76,6.11-2.17s-3.15-2.16-6.11-2.16-6.11.75-6.11,2.16,3.15,2.17,6.11,2.17m8.76-8.43L28.61,25.36a44,44,0,0,0-4.93.45l-2.52-1-2.34.46,2.23,1c-3.4.82-5.49,2.12-5.49,3.56,0,2.48,6.62,4.5,14.68,4.5a40.54,40.54,0,0,0,8.1-.78c.67.26,3.21,1.32,3.21,1.32l2.71-.8-3-1.27a8.12,8.12,0,0,0,3-1.64l10.89-2.76L39.15,23.12ZM30.39,31.3c-3.24,0-5.86-.86-5.86-1.92s2.62-1.91,5.86-1.91,5.86.85,5.86,1.91-2.63,1.92-5.86,1.92Z"/></g><path class="cls-14" d="M24.19,47.06c-4.29-.61-8.88-2.06-8.88-4.34V29.87a.25.25,0,0,1,.5,0c0,2.3,6.61,4.25,14.43,4.25a40.74,40.74,0,0,0,8.05-.77h.05a.23.23,0,0,1,.16.06.23.23,0,0,1,.09.19v9.92a.27.27,0,0,1-.2.25,42,42,0,0,1-8.16.74,44.08,44.08,0,0,1-5.76-.36v2.67a.28.28,0,0,1-.09.19.25.25,0,0,1-.16.06Z"/><path d="M15.56,29.87c0,2.48,6.62,4.5,14.68,4.5a40.47,40.47,0,0,0,8.1-.78v9.92a41,41,0,0,1-8.11.74,43.08,43.08,0,0,1-6-.4v3c-5-.71-8.67-2.27-8.67-4.09V29.87m0-.5a.5.5,0,0,0-.5.5V42.72c0,2.07,3.4,3.78,9.1,4.58h.07a.49.49,0,0,0,.32-.12.53.53,0,0,0,.18-.38V44.42a44.11,44.11,0,0,0,5.51.33A41.75,41.75,0,0,0,38.45,44a.49.49,0,0,0,.4-.49V33.59a.5.5,0,0,0-.18-.39.52.52,0,0,0-.32-.11h-.1a40.15,40.15,0,0,1-8,.77c-8.36,0-14.18-2.11-14.18-4a.51.51,0,0,0-.5-.5Z"/><path class="cls-15" d="M15.56,42.72c0,1.82,3.63,3.38,8.67,4.09v-3a43.08,43.08,0,0,0,6,.4,41,41,0,0,0,8.11-.74V33.59a40.47,40.47,0,0,1-8.1.78c-8.06,0-14.68-2-14.68-4.5Z"/><g id="surf_top-2" data-name="surf *** top"><path class="cls-16" d="M41.56,34.77l-3.17-1.3a42.54,42.54,0,0,1-8.15.77c-7.89,0-14.56-2-14.56-4.37,0-1.33,2-2.62,5.4-3.44a.13.13,0,0,0,.1-.11.14.14,0,0,0-.07-.12l-1.88-.86,2-.38,2.44,1a49.49,49.49,0,0,1,5-.45l10.57-2.24,15.46,5.18L44.16,31.08a8.37,8.37,0,0,1-3,1.64.12.12,0,0,0,0,.23l2.72,1.14ZM30.39,27.34c-3.35,0-6,.9-6,2s2.63,2,6,2,6-.9,6-2S33.74,27.34,30.39,27.34Z"/><path class="cls-4" d="M39.13,23.38l15.06,5L44.13,31A.26.26,0,0,0,44,31a8,8,0,0,1-2.88,1.57.25.25,0,0,0-.17.23.27.27,0,0,0,.15.24l2.4,1-2,.57c-.44-.18-2.54-1-3.13-1.28l-.1,0h-.05a40.89,40.89,0,0,1-8,.77c-7.82,0-14.43-1.95-14.43-4.25,0-1.27,2-2.51,5.3-3.32a.23.23,0,0,0,.19-.22.25.25,0,0,0-.14-.25l-1.52-.69,1.5-.29,2.45.94a.15.15,0,0,0,.09,0h0a48.19,48.19,0,0,1,4.95-.46l10.47-2.22m-8.74,8.17c3,0,6.11-.76,6.11-2.17s-3.15-2.16-6.11-2.16-6.11.75-6.11,2.16,3.15,2.17,6.11,2.17m8.76-8.43L28.61,25.36a44,44,0,0,0-4.93.45l-2.52-1-2.34.46,2.23,1c-3.4.82-5.49,2.12-5.49,3.56,0,2.48,6.62,4.5,14.68,4.5a40.54,40.54,0,0,0,8.1-.78c.67.26,3.21,1.32,3.21,1.32l2.71-.8-3-1.27a8.12,8.12,0,0,0,3-1.64l10.89-2.76L39.15,23.12ZM30.39,31.3c-3.24,0-5.86-.86-5.86-1.92s2.62-1.91,5.86-1.91,5.86.85,5.86,1.91-2.63,1.92-5.86,1.92Z"/></g><path id="surf_top-3" data-name="surf *** top" class="cls-17" d="M44.19,31.2l10.89-2.76L39.15,23.12,28.61,25.36a44,44,0,0,0-4.93.45l-2.52-1-2.34.46,2.23,1c-3.4.82-5.49,2.12-5.49,3.56,0,2.48,6.62,4.5,14.68,4.5a40.54,40.54,0,0,0,8.1-.78c.67.26,3.21,1.32,3.21,1.32l2.71-.8-3-1.27A8.12,8.12,0,0,0,44.19,31.2Zm-13.8.1c-3.24,0-5.86-.86-5.86-1.92s2.62-1.91,5.86-1.91,5.86.85,5.86,1.91S33.62,31.3,30.39,31.3Z"/><ellipse id="trou_" data-name="trou***" class="cls-7" cx="30.39" cy="29.38" rx="5.86" ry="1.92"/></g><g class="cls-18"><g id="AAAA"><polyline class="cls-19" points="51.23 22.82 44.86 21.07 44.86 28.66"/><path class="cls-20" d="M55.08,28a5.69,5.69,0,0,0-2.85-4.81,4.66,4.66,0,0,0-1.7-.5c-2.88-.25-5.38,2.05-5.69,5.29-.08.87,0,2,0,2.69"/></g><path class="cls-21" d="M44.87,25.73l0,1.81c.09,2.75-6.43,4.62-14.71,4.71-8,0-14.58-2-14.58-4.44V25.52s-.47,4.63,14.78,4.63C45.16,30.15,44.87,25.73,44.87,25.73Z"/><path class="cls-21" d="M44.87,21.05l0,2.3c.09,2.75-6.43,4.62-14.71,4.71-8,0-14.58-2-14.58-4.44V21.48s-.47,4.67,14.78,4.67C45.16,26.15,44.87,21.05,44.87,21.05Z"/><path class="cls-21" d="M44.87,17.35l0,1.91C44.94,22,38.42,23.88,30.14,24c-8,0-14.58-2-14.58-4.44V17.71s-.47,4,14.78,4C45.16,21.73,44.87,17.35,44.87,17.35Z"/><g class="cls-22"><path id="ss" class="cls-23" d="M44.87,17.69c0,2.29-5.56,4-14.53,4-9.71,0-14.78-1.81-14.78-4.07S22,13.4,30.28,13.4,44.87,15.4,44.87,17.69Z"/></g><g id="base_top_" data-name="base top ***"><path class="cls-24" d="M30.31,19.28c-5.84,0-9.43-1.17-9.43-2L22.27,13c.27-.86,3.46-2.06,8-2.06,4.8,0,7.8,1.22,8.05,2.06l1.41,4.34C39.75,18.11,36.16,19.28,30.31,19.28Z"/><path class="cls-25" d="M30.31,11.2c4.77,0,7.61,1.22,7.81,1.89l1.37,4.23c-.18.55-3.3,1.71-9.18,1.71s-9-1.16-9.18-1.71l1.38-4.23c.2-.64,3.14-1.89,7.8-1.89m0-.5c-4.57,0-7.95,1.2-8.28,2.24l-1.4,4.33c0,1.25,4.33,2.26,9.68,2.26s9.69-1,9.69-2.26l-1.4-4.33c-.33-1.11-3.71-2.24-8.29-2.24Z"/></g><g id="crc_top_" data-name="crc top  **"><path class="cls-4" d="M30.31,15.25c-4.73,0-8-1.14-8-2.17,0-.53,2.12-2.13,8-2.16,4.73,0,7.84,1.14,8,2.21C38.35,14.11,35.05,15.25,30.31,15.25Z"/><path class="cls-25" d="M30.37,11.17c5.1,0,7.5,1.25,7.72,2C38,13.79,35.24,15,30.31,15s-7.78-1.27-7.78-1.87c.07-.43,2.12-1.94,7.79-2h.05m0-.5h-.06c-5.87,0-8.21,1.61-8.28,2.41,0,1.34,3.71,2.42,8.28,2.42s8.29-1.08,8.29-2.42c-.23-1.24-3.4-2.41-8.23-2.41Z"/></g><g id="crc_in_" data-name="crc in  ***"><ellipse class="cls-26" cx="30.31" cy="12.94" rx="5.67" ry="1.23"/><path class="cls-25" d="M30.31,11.83c3.59,0,5.55.73,5.55,1.11s-2,1.1-5.55,1.1-5.54-.73-5.54-1.1,2-1.11,5.54-1.11m0-.25c-3.2,0-5.79.61-5.79,1.36s2.59,1.35,5.79,1.35,5.8-.61,5.8-1.35-2.59-1.36-5.8-1.36Z"/></g><polyline id="ok_" data-name="ok &amp;" class="cls-27" points="44.94 30.06 54.94 27.5 54.69 26.19 44.86 28.66 44.94 27.28 54.19 25.06 53.5 24.06 45.25 26 46.16 24.63 52.23 23.21"/><polygon class="cls-28" points="55.38 28.38 44.88 30.88 45.13 30.06 55.06 27.44 55.38 28.38"/><polygon class="cls-28" points="54.69 26.19 54.31 24.94 45 27.29 45 28.63 54.69 26.19"/><polygon class="cls-28" points="53.5 24.06 45.41 25.97 46.25 24.69 52.06 23.19 53.5 24.06"/></g><g class="cls-29"><g id="AAAA-2" data-name="AAAA"><polyline class="cls-19" points="51.23 22.82 44.86 21.07 44.86 28.66"/><path class="cls-20" d="M55.08,28a5.69,5.69,0,0,0-2.85-4.81,4.66,4.66,0,0,0-1.7-.5c-2.88-.25-5.38,2.05-5.69,5.29-.08.87,0,2,0,2.69"/></g><path class="cls-21" d="M44.87,25.73l0,1.81c.09,2.75-6.43,4.62-14.71,4.71-8,0-14.58-2-14.58-4.44V25.52s-.47,4.63,14.78,4.63C45.16,30.15,44.87,25.73,44.87,25.73Z"/><path class="cls-21" d="M44.87,21.05l0,2.3c.09,2.75-6.43,4.62-14.71,4.71-8,0-14.58-2-14.58-4.44V21.48s-.47,4.67,14.78,4.67C45.16,26.15,44.87,21.05,44.87,21.05Z"/><path class="cls-21" d="M44.87,17.35l0,1.91C44.94,22,38.42,23.88,30.14,24c-8,0-14.58-2-14.58-4.44V17.71s-.47,4,14.78,4C45.16,21.73,44.87,17.35,44.87,17.35Z"/><g class="cls-22"><path id="ss-2" data-name="ss" class="cls-23" d="M44.87,17.69c0,2.29-5.56,4-14.53,4-9.71,0-14.78-1.81-14.78-4.07S22,13.4,30.28,13.4,44.87,15.4,44.87,17.69Z"/></g><g id="base_top_2" data-name="base top ***"><path class="cls-24" d="M30.31,19.28c-5.84,0-9.43-1.17-9.43-2L22.27,13c.27-.86,3.46-2.06,8-2.06,4.8,0,7.8,1.22,8.05,2.06l1.41,4.34C39.75,18.11,36.16,19.28,30.31,19.28Z"/><path class="cls-25" d="M30.31,11.2c4.77,0,7.61,1.22,7.81,1.89l1.37,4.23c-.18.55-3.3,1.71-9.18,1.71s-9-1.16-9.18-1.71l1.38-4.23c.2-.64,3.14-1.89,7.8-1.89m0-.5c-4.57,0-7.95,1.2-8.28,2.24l-1.4,4.33c0,1.25,4.33,2.26,9.68,2.26s9.69-1,9.69-2.26l-1.4-4.33c-.33-1.11-3.71-2.24-8.29-2.24Z"/></g><g id="crc_top_2" data-name="crc top  **"><path class="cls-4" d="M30.31,15.25c-4.73,0-8-1.14-8-2.17,0-.53,2.12-2.13,8-2.16,4.73,0,7.84,1.14,8,2.21C38.35,14.11,35.05,15.25,30.31,15.25Z"/><path class="cls-25" d="M30.37,11.17c5.1,0,7.5,1.25,7.72,2C38,13.79,35.24,15,30.31,15s-7.78-1.27-7.78-1.87c.07-.43,2.12-1.94,7.79-2h.05m0-.5h-.06c-5.87,0-8.21,1.61-8.28,2.41,0,1.34,3.71,2.42,8.28,2.42s8.29-1.08,8.29-2.42c-.23-1.24-3.4-2.41-8.23-2.41Z"/></g><g id="crc_in_2" data-name="crc in  ***"><ellipse class="cls-26" cx="30.31" cy="12.94" rx="5.67" ry="1.23"/><path class="cls-25" d="M30.31,11.83c3.59,0,5.55.73,5.55,1.11s-2,1.1-5.55,1.1-5.54-.73-5.54-1.1,2-1.11,5.54-1.11m0-.25c-3.2,0-5.79.61-5.79,1.36s2.59,1.35,5.79,1.35,5.8-.61,5.8-1.35-2.59-1.36-5.8-1.36Z"/></g><polyline id="ok_2" data-name="ok &amp;" class="cls-27" points="44.94 30.06 54.94 27.5 54.69 26.19 44.86 28.66 44.94 27.28 54.19 25.06 53.5 24.06 45.25 26 46.16 24.63 52.23 23.21"/><polygon class="cls-28" points="55.38 28.38 44.88 30.88 45.13 30.06 55.06 27.44 55.38 28.38"/><polygon class="cls-28" points="54.69 26.19 54.31 24.94 45 27.29 45 28.63 54.69 26.19"/><polygon class="cls-28" points="53.5 24.06 45.41 25.97 46.25 24.69 52.06 23.19 53.5 24.06"/></g><g id="Layer_86_copy_8" data-name="Layer 86 copy 8"><path class="cls-30" d="M30.15,34.79C18,34.79,15.31,31.29,15.28,30a.2.2,0,0,1,.14-.19h.05a.18.18,0,0,1,.16.09s2,3.2,14.52,3.2a6.7,6.7,0,0,0,5.26-1.94,4.92,4.92,0,0,1,1.84-1.21l3.16-11.66a1.42,1.42,0,0,1,1.37-1,1.47,1.47,0,0,1,.68.18A1.42,1.42,0,0,1,43.14,19L39.55,32.19a1.55,1.55,0,0,1-.27.49l.27.7a.16.16,0,0,1,0,.15.22.22,0,0,1-.13.1l-1,.23A29.36,29.36,0,0,1,30.15,34.79Z"/><path d="M41.78,17.38a1.16,1.16,0,0,1,.59.16A1.21,1.21,0,0,1,43,18.93L39.37,32.14a1.63,1.63,0,0,1-.3.51l.3.79a30.62,30.62,0,0,1-9.22,1.16c-11.43,0-14.65-3.22-14.68-4.66,0,0,1.82,3.3,14.68,3.3,4.9,0,5.08-2.6,7.26-3.19l3.18-11.76a1.23,1.23,0,0,1,1.19-.91m0-.37a1.61,1.61,0,0,0-1.55,1.18L37.1,29.75A5.21,5.21,0,0,0,35.28,31a6.5,6.5,0,0,1-5.13,1.9c-12.34,0-14.34-3.08-14.36-3.12a.38.38,0,0,0-.32-.18l-.11,0a.37.37,0,0,0-.27.36c0,1.4,2.8,5,15.06,5a29.79,29.79,0,0,0,8.31-.92l1-.24a.35.35,0,0,0,.25-.19.34.34,0,0,0,0-.31l-.23-.6a1.74,1.74,0,0,0,.24-.47L43.32,19a1.6,1.6,0,0,0-.76-1.82,1.65,1.65,0,0,0-.78-.2Z"/><path class="cls-30" d="M30.09,34.53C18,34.53,15.25,31,15.22,29.69a.18.18,0,0,1,.14-.18h.05a.19.19,0,0,1,.16.1s2,3.2,14.52,3.2a6.67,6.67,0,0,0,5.25-1.95,5,5,0,0,1,1.85-1.21L40.35,18a1.43,1.43,0,0,1,1.37-1,1.36,1.36,0,0,1,.68.18,1.41,1.41,0,0,1,.68,1.6L39.49,31.93a1.55,1.55,0,0,1-.27.49l.27.7a.22.22,0,0,1,0,.16.21.21,0,0,1-.13.09l-1,.24A29.55,29.55,0,0,1,30.09,34.53Z"/><path d="M41.72,17.13a1.26,1.26,0,0,1,.59.15,1.24,1.24,0,0,1,.59,1.4l-3.59,13.2a1.72,1.72,0,0,1-.3.51l.3.8a31.16,31.16,0,0,1-9.22,1.15c-11.43,0-14.65-3.21-14.68-4.65,0,0,1.82,3.3,14.68,3.3,4.9,0,5.08-2.6,7.26-3.2L40.53,18a1.22,1.22,0,0,1,1.19-.9m0-.38a1.61,1.61,0,0,0-1.55,1.18L37,29.5a5.18,5.18,0,0,0-1.82,1.21,6.52,6.52,0,0,1-5.13,1.9c-12.34,0-14.34-3.08-14.36-3.11a.36.36,0,0,0-.32-.18H15.3a.39.39,0,0,0-.27.37c0,1.39,2.8,5,15.06,5a29.66,29.66,0,0,0,8.31-.93l1-.24a.36.36,0,0,0,.25-.18.4.4,0,0,0,0-.32l-.23-.6a1.73,1.73,0,0,0,.24-.47l3.59-13.21A1.6,1.6,0,0,0,42.49,17a1.58,1.58,0,0,0-.77-.2Z"/><path class="cls-30" d="M40.71,27.47a1,1,0,0,1-.24,0l-2.34-.75a.74.74,0,0,1-.51-.79l.49-5.17a.73.73,0,0,1,.74-.68.91.91,0,0,1,.23,0l4.47,1.4a.76.76,0,0,1,.47.44.74.74,0,0,1-.05.65l-2.62,4.53A.75.75,0,0,1,40.71,27.47Z"/><path d="M38.85,20.29h0a.39.39,0,0,1,.15,0l4.47,1.4a.49.49,0,0,1,.32.29.56.56,0,0,1,0,.44L41.14,27a.52.52,0,0,1-.44.25.4.4,0,0,1-.15,0l-2.34-.75a.49.49,0,0,1-.34-.53l.48-5.17a.51.51,0,0,1,.5-.45m0-.5a1,1,0,0,0-1,.9l-.49,5.18a1,1,0,0,0,.69,1l2.34.76a1,1,0,0,0,.3,0,1,1,0,0,0,.87-.5l2.62-4.53a1,1,0,0,0-.57-1.46l-4.47-1.4a1,1,0,0,0-.3,0Z"/><polygon class="cls-31" points="43.48 21.56 38.93 20.06 39.67 17.89 44.55 19.52 43.48 21.56"/><path class="cls-32" d="M43.26,23.24,38.33,21.7a1,1,0,0,1-.66-1.24l.3-1,6.84,2.14-.29,1A1,1,0,0,1,43.26,23.24Z"/><polygon class="cls-33" points="45.1 19.98 38.85 17.97 41.16 10.43 48.96 10.44 45.1 19.98"/><polyline class="cls-33" points="45.1 20 38.85 17.97 40.34 14.47"/><path d="M48.22,10.93l-3.41,8.45-5.34-1.73,2.06-6.72h6.69m.74-.5h-7.8L38.85,18l6.25,2L49,10.43Z"/></g></g></svg>