<?xml version="1.0" encoding="UTF-8"?><svg xmlns="http://www.w3.org/2000/svg" xmlns:xlink="http://www.w3.org/1999/xlink" viewBox="0 0 64 64"><defs><linearGradient id="linear-gradient" x1="13.25" y1="8.24" x2="22.71" y2="24.62" gradientUnits="userSpaceOnUse"><stop offset="0" stop-color="#fff"/><stop offset="1" stop-color="#d4d5d3"/></linearGradient></defs><g id="Layer_1"><path d="M12,12V52H52V12H12Zm3,3h24v4H19v16h20v4H15V15ZM49,49H25v-4h20V29H25v-4h24v24Z" fill="#001871"/><polygon points="15 15 39 15 39 19 19 19 19 35 39 35 39 39 15 39 15 15" fill="#fff"/><polygon points="49 49 25 49 25 45 45 45 45 29 25 29 25 25 49 25 49 49" fill="#fff"/></g><g id="Layer_3"><path d="M25.54,11.39c-.85-3.11-3.65-4.89-7.04-4.89-4.05,0-7.36,2.75-7.36,6.78-2.56,0-4.64,2.06-4.64,4.61s2.08,4.61,4.64,4.61h13.67c3.1,0,5.69-2.42,5.69-5.5,0-2.86-2.22-5.22-4.96-5.61Z" fill="#fff" opacity=".5" stroke="#fff" stroke-linejoin="round" stroke-width="3"/><path d="M25.54,11.39c-.85-3.11-3.65-4.89-7.04-4.89-4.05,0-7.36,2.75-7.36,6.78-2.56,0-4.64,2.06-4.64,4.61s2.08,4.61,4.64,4.61h13.67c3.1,0,5.69-2.42,5.69-5.5,0-2.86-2.22-5.22-4.96-5.61Z" fill="url(#linear-gradient)" stroke="#323232" stroke-linejoin="round"/></g></svg>