<?xml version="1.0" encoding="UTF-8"?><svg xmlns="http://www.w3.org/2000/svg" xmlns:xlink="http://www.w3.org/1999/xlink" viewBox="0 0 64 64"><defs><linearGradient id="linear-gradient" x1="22.65" y1="16.96" x2="40.47" y2="47.83" gradientUnits="userSpaceOnUse"><stop offset="0" stop-color="#3287af"/><stop offset="1" stop-color="#285a78"/></linearGradient><linearGradient id="linear-gradient-2" x1="26.88" y1="29.8" x2="36.25" y2="46.03" xlink:href="#linear-gradient"/><linearGradient id="linear-gradient-3" x1="15.33" y1="3.14" x2="48.66" y2="60.86" xlink:href="#linear-gradient"/></defs><g id="IT_1"><g><path d="M30.26,30.87C22.04,20.89,15.53,12.93,10.68,7.02h-2.01l-1.66,1.74v24.28c3.38-1.86,7.73-2.66,11.54-2.27,4.07,.41,7.71,2.11,10.47,5.14,2.64,2.9,4.3,6.81,4.36,10.74,.06,4.05-1.58,7.81-4.87,10.33h5.26c1.68-1.45,2.76-4.4,3.21-6.38,.55-2.43,.61-4.73,.18-7.18-.9-5.16-3.76-8.74-6.89-12.56" fill="#f4f5f6"/><path d="M56.9,55.71s.06-.08,.1-.12v-14.18c-4.3-.53-9.02-2.76-12.6-4.93-3.91-2.37-7.43-5.14-10.76-8.27-6.73-6.32-11.97-13.46-16.8-21.21h-4.48c8.45,10.43,22.14,27.07,41.06,49.98h2.03c.57-.31,1.1-.68,1.45-1.27Z" fill="#f4f5f6"/><path d="M57,36.69v-10.37c-6.98-.04-13.75-1.56-19.93-4.91-6.1-3.29-11.23-8.2-14.36-14.4h-4.07c3.97,6.98,9.84,13.89,16,19.07,6.28,5.28,13.83,9.62,22.36,10.6Z" fill="#f4f5f6"/><path d="M55.53,7H24.27c3.05,5.73,8,9.82,13.99,12.21,6.08,2.43,12.34,2.82,18.72,2.5V8.35c-.37-.55-.9-.96-1.45-1.35Z" fill="#f4f5f6"/><path d="M7,41v14.36l1.64,1.64h4.97c-2.43-2.15-3.66-5.05-3.52-8.27,.14-3.19,1.62-6.06,4.56-7.65,2.68-1.45,6.28-1.56,9-.08,2.82,1.55,4.32,4.83,3.38,7.92-.94,3.15-4.36,4.75-7.47,3.95-1.64-.43-2.97-1.53-3.52-3.15-.47-1.39-.31-2.97,.55-4.21,.96-1.35,2.62-2,4.26-1.7,1.51,.27,2.8,1.39,2.97,2.97,.1,.92-.22,1.86-.96,2.46-.65,.53-1.58,.72-2.41,.43-.67-.23-1.19-.84-1.1-1.6,.1-.61,.7-1.29,1.37-.96-.61-.14-1.08,.41-1.08,.98,0,.53,.37,.96,.84,1.15,.96,.41,2-.14,2.43-1,.53-1.06,.18-2.27-.67-3.05-1.15-1.06-2.9-1-4.11-.12-1.84,1.35-1.84,4.21-.23,5.73,1.84,1.72,5.01,1.41,6.65-.41,1.53-1.68,1.53-4.24,.39-6.1-1.35-2.19-3.97-3.01-6.38-2.74-5.24,.61-7.69,5.77-5.44,10.35,1.06,2.13,3.01,3.6,5.3,4.23,2.29,.61,4.64,.27,6.71-.8,1.9-.98,3.27-2.46,4.11-4.42,1.04-2.41,1.08-5.05,.27-7.49-.61-1.86-1.64-3.56-3.09-4.91-2.03-1.9-4.52-2.84-7.26-2.99-2-.12-3.83,.14-5.73,.76-2.6,.94-4.83,2.48-6.46,4.71" fill="#f4f5f6"/></g><g><path d="M36.92,38.73V17.23c0-2.72-2.21-4.91-4.91-4.91s-4.91,2.19-4.91,4.91v21.5c-1.51,1.35-2.45,3.31-2.45,5.5,0,4.07,3.31,7.36,7.36,7.36s7.36-3.31,7.36-7.36c0-2.19-.94-4.15-2.45-5.5Zm-4.91,10.39c-2.72,0-4.91-2.19-4.91-4.91,0-1.82,.98-3.4,2.45-4.24V17.23c0-1.37,1.1-2.46,2.45-2.46s2.45,1.1,2.45,2.46v22.73c1.47,.84,2.45,2.43,2.45,4.24,.04,2.72-2.15,4.91-4.87,4.91Z" fill="url(#linear-gradient)"/><path d="M33.22,40.74c.02-.06,.02-.14,.02-.22v-12.27c0-.68-.55-1.23-1.23-1.23s-1.23,.57-1.23,1.23v12.27c0,.08,0,.14,.02,.22-1.45,.51-2.46,1.86-2.46,3.48,0,2.03,1.64,3.68,3.68,3.68s3.68-1.64,3.68-3.68c0-1.62-1.04-2.99-2.46-3.48Z" fill="url(#linear-gradient-2)"/></g></g><g id="IT_2"><g><path d="M56.98,54.75c0,1.23-.98,2.25-2.23,2.25H9.25c-1.23,0-2.25-1-2.25-2.25V9.25c0-1.23,1-2.25,2.25-2.25H54.73c1.23,0,2.25,1,2.25,2.25V54.75Z" fill="url(#linear-gradient-3)"/><g opacity=".2"><g><path d="M30.26,30.87C22.04,20.89,15.51,12.91,10.66,7h-1.39c-1.25-.02-2.27,.99-2.27,2.24v23.8c3.38-1.86,7.72-2.66,11.54-2.27,4.07,.41,7.71,2.11,10.47,5.14,2.64,2.9,4.3,6.81,4.36,10.74,.06,4.05-1.58,7.82-4.87,10.35h5.24c1.68-1.45,2.78-4.42,3.23-6.4,.55-2.43,.61-4.73,.18-7.18-.9-5.16-3.76-8.74-6.89-12.56" fill="#fff"/><path d="M56.98,54.75v-13.34c-4.3-.53-9-2.76-12.58-4.93-3.91-2.37-7.43-5.14-10.76-8.27-6.73-6.32-11.97-13.46-16.8-21.21h-4.48c8.45,10.43,22.16,27.09,41.08,50h1.29c1.24,0,2.25-1.01,2.25-2.25Z" fill="#fff"/><path d="M57,36.69v-10.37c-6.98-.04-13.75-1.56-19.93-4.91-6.1-3.29-11.23-8.22-14.36-14.42h-4.07c3.97,6.98,9.84,13.91,16,19.09,6.28,5.28,13.83,9.62,22.36,10.6Z" fill="#fff"/><path d="M55.53,7H24.27c3.05,5.73,8,9.82,13.99,12.21,6.08,2.43,12.34,2.82,18.72,2.5V8.35c-.37-.55-.9-.96-1.45-1.35Z" fill="#fff"/><path d="M7,41v13.75c0,1.24,1.01,2.25,2.25,2.25h4.36c-2.43-2.15-3.66-5.05-3.52-8.27,.14-3.19,1.62-6.06,4.56-7.65,2.68-1.45,6.28-1.56,9-.08,2.82,1.55,4.32,4.83,3.38,7.92-.94,3.15-4.36,4.75-7.47,3.95-1.64-.43-2.97-1.53-3.52-3.15-.47-1.39-.31-2.97,.55-4.21,.96-1.35,2.62-2,4.26-1.7,1.51,.27,2.8,1.39,2.97,2.97,.1,.92-.22,1.86-.96,2.46-.65,.53-1.58,.72-2.41,.43-.67-.23-1.19-.84-1.1-1.6,.1-.61,.7-1.29,1.37-.96-.61-.14-1.08,.41-1.08,.98,0,.53,.37,.96,.84,1.15,.96,.41,2-.14,2.43-1,.53-1.06,.18-2.27-.67-3.05-1.15-1.06-2.9-1-4.11-.12-1.84,1.35-1.84,4.21-.23,5.73,1.84,1.72,5.01,1.41,6.65-.41,1.53-1.68,1.53-4.24,.39-6.1-1.35-2.19-3.97-3.01-6.38-2.74-5.24,.61-7.69,5.77-5.44,10.35,1.06,2.13,3.01,3.6,5.3,4.23,2.29,.61,4.64,.27,6.71-.8,1.9-.98,3.27-2.46,4.11-4.42,1.04-2.41,1.08-5.05,.27-7.49-.61-1.86-1.64-3.56-3.09-4.91-2.03-1.9-4.52-2.84-7.26-2.99-2-.12-3.83,.14-5.73,.76-2.6,.94-4.83,2.48-6.46,4.71" fill="#fff"/></g></g></g><g><path d="M36.92,38.73V17.23c0-2.72-2.21-4.91-4.91-4.91s-4.91,2.19-4.91,4.91v21.5c-1.51,1.35-2.45,3.31-2.45,5.5,0,4.07,3.31,7.36,7.36,7.36s7.36-3.31,7.36-7.36c0-2.19-.94-4.15-2.45-5.5Zm-4.91,10.39c-2.72,0-4.91-2.19-4.91-4.91,0-1.82,.98-3.4,2.45-4.24V17.23c0-1.37,1.1-2.46,2.45-2.46s2.45,1.1,2.45,2.46v22.73c1.47,.84,2.45,2.43,2.45,4.24,.04,2.72-2.15,4.91-4.87,4.91Z" fill="#fff"/><path d="M33.22,40.74c.02-.06,.02-.14,.02-.22v-12.27c0-.68-.55-1.23-1.23-1.23s-1.23,.57-1.23,1.23v12.27c0,.08,0,.14,.02,.22-1.45,.51-2.46,1.86-2.46,3.48,0,2.03,1.64,3.68,3.68,3.68s3.68-1.64,3.68-3.68c0-1.62-1.04-2.99-2.46-3.48Z" fill="#fff"/></g></g></svg>