<?xml version="1.0" encoding="UTF-8"?><svg xmlns="http://www.w3.org/2000/svg" xmlns:xlink="http://www.w3.org/1999/xlink" viewBox="0 0 64 64"><defs><linearGradient id="linear-gradient" x1="9.11" y1="5.99" x2="14.89" y2="16.01" gradientUnits="userSpaceOnUse"><stop offset="0" stop-color="#8cd7f5"/><stop offset="1" stop-color="#376e8c"/></linearGradient><linearGradient id="linear-gradient-2" x1="7" y1="36" x2="25" y2="36" gradientUnits="userSpaceOnUse"><stop offset="0" stop-color="#464646"/><stop offset="1" stop-color="#141414"/></linearGradient><linearGradient id="linear-gradient-3" x1="37.26" y1="32.33" x2="50.74" y2="55.67" gradientUnits="userSpaceOnUse"><stop offset="0" stop-color="#fff"/><stop offset="1" stop-color="#d4d5d3"/></linearGradient></defs><g id="Layer_1"><g><rect x="7.5" y="6.5" width="9" height="9" rx="1" ry="1" fill="url(#linear-gradient)" stroke="#003755" stroke-linejoin="round"/><rect x="27.5" y="6.5" width="9" height="9" rx="1" ry="1" fill="url(#linear-gradient)" stroke="#003755" stroke-linejoin="round"/><rect x="27.5" y="22.5" width="9" height="9" rx="1" ry="1" fill="url(#linear-gradient)" stroke="#003755" stroke-linejoin="round"/><rect x="27.5" y="39.5" width="9" height="9" rx="1" ry="1" fill="url(#linear-gradient)" stroke="#003755" stroke-linejoin="round"/><path d="M19.75,27h5.25v-4h-5.44c-4.71,0-9.14,2.25-11.14,5.94-4.37,8.06,1.93,16.48,10.57,17.06v3l6-5-6-5v2.98c-5.72-.56-9.85-5.71-7.16-11.12,1.35-2.7,4.51-3.85,7.91-3.85Z" fill="#fff" opacity=".5" stroke="#fff" stroke-linejoin="round" stroke-width="2"/><path d="M55.57,12.94c-2-3.69-6.43-5.94-11.14-5.94h-5.44v4h5.25c3.4,0,6.57,1.15,7.91,3.85,2.69,5.41-1.44,10.57-7.16,11.12v-2.98l-6,5,6,5v-3c8.64-.57,14.95-8.99,10.57-17.06Z" fill="#fff" opacity=".5" stroke="#fff" stroke-linejoin="round" stroke-width="2"/><rect x="19" y="9" width="6" height="4" fill="#fff" opacity=".5" stroke="#fff" stroke-linejoin="round" stroke-width="2"/><path d="M19.75,27h5.25v-4h-5.44c-4.71,0-9.14,2.25-11.14,5.94-4.37,8.06,1.93,16.48,10.57,17.06v3l6-5-6-5v2.98c-5.72-.56-9.85-5.71-7.16-11.12,1.35-2.7,4.51-3.85,7.91-3.85Z" fill="url(#linear-gradient-2)"/><path d="M55.57,12.94c-2-3.69-6.43-5.94-11.14-5.94h-5.44v4h5.25c3.4,0,6.57,1.15,7.91,3.85,2.69,5.41-1.44,10.57-7.16,11.12v-2.98l-6,5,6,5v-3c8.64-.57,14.95-8.99,10.57-17.06Z" fill="url(#linear-gradient-2)"/><rect x="19" y="9" width="6" height="4" fill="url(#linear-gradient-2)"/></g></g><g id="Layer_4"><path d="M53.9,46.57h3.34c.19-.84,.26-1.61,.26-2.57s-.06-1.74-.26-2.57h-3.34c-1.09,0-1.48-1.35-1.48-1.67s.13-.64,.39-.9l2.38-2.44c-.96-1.41-2.19-2.64-3.6-3.6l-2.44,2.38c-.26,.26-.58,.39-.9,.39-.45,0-1.67-.45-1.67-1.48v-3.34c-.84-.19-1.61-.26-2.57-.26s-1.73,.06-2.57,.26v3.34c0,1.09-1.35,1.48-1.67,1.48s-.64-.13-.9-.39l-2.44-2.38c-1.74,1.22-2.38,1.86-3.6,3.6l2.38,2.44c.26,.26,.39,.58,.39,.9,0,.45-.45,1.67-1.48,1.67h-3.34c-.19,.84-.26,1.61-.26,2.57s.06,1.74,.26,2.57h3.34c1.09,0,1.48,1.35,1.48,1.67s-.13,.64-.39,.9l-2.38,2.44c1.22,1.74,1.86,2.38,3.6,3.6l2.44-2.38c.26-.26,.58-.39,.9-.39,.45,0,1.67,.45,1.67,1.48v3.34c.84,.19,1.61,.26,2.57,.26s1.74-.06,2.57-.26v-3.34c0-1.09,1.35-1.48,1.67-1.48s.64,.13,.9,.39l2.44,2.38c1.41-.96,2.64-2.19,3.6-3.6l-2.38-2.44c-.26-.26-.39-.58-.39-.9,0-.45,.45-1.67,1.48-1.67Zm-9.9,1.93c-2.47,0-4.5-2.03-4.5-4.5s2.03-4.5,4.5-4.5,4.5,2.03,4.5,4.5-2.03,4.5-4.5,4.5Z" fill="#fff" opacity=".5" stroke="#fff" stroke-linejoin="round" stroke-width="3"/><path d="M53.9,46.57h3.34c.19-.84,.26-1.61,.26-2.57s-.06-1.74-.26-2.57h-3.34c-1.09,0-1.48-1.35-1.48-1.67s.13-.64,.39-.9l2.38-2.44c-.96-1.41-2.19-2.64-3.6-3.6l-2.44,2.38c-.26,.26-.58,.39-.9,.39-.45,0-1.67-.45-1.67-1.48v-3.34c-.84-.19-1.61-.26-2.57-.26s-1.73,.06-2.57,.26v3.34c0,1.09-1.35,1.48-1.67,1.48s-.64-.13-.9-.39l-2.44-2.38c-1.74,1.22-2.38,1.86-3.6,3.6l2.38,2.44c.26,.26,.39,.58,.39,.9,0,.45-.45,1.67-1.48,1.67h-3.34c-.19,.84-.26,1.61-.26,2.57s.06,1.74,.26,2.57h3.34c1.09,0,1.48,1.35,1.48,1.67s-.13,.64-.39,.9l-2.38,2.44c1.22,1.74,1.86,2.38,3.6,3.6l2.44-2.38c.26-.26,.58-.39,.9-.39,.45,0,1.67,.45,1.67,1.48v3.34c.84,.19,1.61,.26,2.57,.26s1.74-.06,2.57-.26v-3.34c0-1.09,1.35-1.48,1.67-1.48s.64,.13,.9,.39l2.44,2.38c1.41-.96,2.64-2.19,3.6-3.6l-2.38-2.44c-.26-.26-.39-.58-.39-.9,0-.45,.45-1.67,1.48-1.67Zm-9.9,1.93c-2.47,0-4.5-2.03-4.5-4.5s2.03-4.5,4.5-4.5,4.5,2.03,4.5,4.5-2.03,4.5-4.5,4.5Z" fill="url(#linear-gradient-3)" stroke="#323232" stroke-linejoin="round"/></g></svg>