<?xml version="1.0" encoding="UTF-8"?>
<svg id="it_1" data-name="it 1" xmlns="http://www.w3.org/2000/svg" xmlns:xlink="http://www.w3.org/1999/xlink" viewBox="0 0 64 64">
  <defs>
    <style>
      .cls-1 {
        fill: url(#linear-gradient-2);
      }

      .cls-2 {
        fill: #053755;
      }

      .cls-3 {
        fill: #fff;
      }

      .cls-4 {
        stroke: #323232;
      }

      .cls-4, .cls-5 {
        fill: none;
        stroke-linejoin: round;
        stroke-width: 1.12px;
      }

      .cls-6 {
        opacity: .5;
      }

      .cls-7 {
        fill: url(#linear-gradient-14);
      }

      .cls-8 {
        fill: url(#linear-gradient-6);
      }

      .cls-9 {
        fill: #323232;
      }

      .cls-10 {
        opacity: .2;
      }

      .cls-11 {
        fill: #787979;
      }

      .cls-12 {
        fill: url(#linear-gradient-11);
      }

      .cls-13 {
        fill: url(#linear-gradient-10);
      }

      .cls-14 {
        fill: url(#radial-gradient);
      }

      .cls-14, .cls-15 {
        opacity: .3;
      }

      .cls-16 {
        opacity: .15;
      }

      .cls-17 {
        opacity: .4;
      }

      .cls-18 {
        fill: url(#linear-gradient-5);
      }

      .cls-19 {
        fill: url(#Dégradé_sans_nom_7);
      }

      .cls-5 {
        stroke: #787878;
      }

      .cls-20 {
        fill: url(#linear-gradient-7);
      }

      .cls-21 {
        fill: url(#linear-gradient-9);
      }

      .cls-22 {
        fill: url(#linear-gradient-3);
      }

      .cls-23 {
        fill: url(#linear-gradient);
      }

      .cls-24 {
        fill: url(#linear-gradient-4);
      }

      .cls-25 {
        fill: url(#linear-gradient-8);
      }

      .cls-26 {
        fill: url(#linear-gradient-12);
      }

      .cls-27 {
        fill: url(#linear-gradient-13);
      }
    </style>
    <linearGradient id="Dégradé_sans_nom_7" data-name="Dégradé sans nom 7" x1="36.34" y1="42.78" x2="18.83" y2="12.45" gradientUnits="userSpaceOnUse">
      <stop offset="0" stop-color="#559fe5"/>
      <stop offset=".25" stop-color="#4df56b"/>
      <stop offset=".5" stop-color="#fff923"/>
      <stop offset=".75" stop-color="#ff8f33"/>
      <stop offset="1" stop-color="#d01914"/>
    </linearGradient>
    <linearGradient id="linear-gradient" x1="39.18" y1="26.48" x2="53.54" y2="51.35" gradientUnits="userSpaceOnUse">
      <stop offset="0" stop-color="#f5f5f5"/>
      <stop offset="1" stop-color="#bebebe"/>
    </linearGradient>
    <linearGradient id="linear-gradient-2" x1="40.67" y1="28.07" x2="54.19" y2="51.49" gradientUnits="userSpaceOnUse">
      <stop offset="0" stop-color="#fff"/>
      <stop offset="1" stop-color="#d2d2d2"/>
    </linearGradient>
    <linearGradient id="linear-gradient-3" x1="48.81" y1="36.49" x2="50.44" y2="39.32" gradientUnits="userSpaceOnUse">
      <stop offset="0" stop-color="#d7d7d7"/>
      <stop offset="1" stop-color="#969696"/>
    </linearGradient>
    <linearGradient id="linear-gradient-4" x1="45.23" y1="47.99" x2="46.89" y2="50.86" xlink:href="#linear-gradient-3"/>
    <linearGradient id="linear-gradient-5" x1="48.81" y1="46.94" x2="50.44" y2="49.76" xlink:href="#linear-gradient-3"/>
    <linearGradient id="linear-gradient-6" x1="45.23" y1="37.38" x2="46.89" y2="40.26" xlink:href="#linear-gradient-3"/>
    <linearGradient id="linear-gradient-7" x1="48.81" y1="41.72" x2="50.44" y2="44.54" xlink:href="#linear-gradient-3"/>
    <linearGradient id="linear-gradient-8" x1="41.65" y1="38.27" x2="43.35" y2="41.2" xlink:href="#linear-gradient-3"/>
    <linearGradient id="linear-gradient-9" x1="52.39" y1="35.6" x2="53.99" y2="38.38" xlink:href="#linear-gradient-3"/>
    <linearGradient id="linear-gradient-10" x1="41.65" y1="43.65" x2="43.34" y2="46.58" xlink:href="#linear-gradient-3"/>
    <linearGradient id="linear-gradient-11" x1="45.23" y1="42.68" x2="46.89" y2="45.56" xlink:href="#linear-gradient-3"/>
    <linearGradient id="linear-gradient-12" x1="41.66" y1="49.04" x2="43.34" y2="51.95" xlink:href="#linear-gradient-3"/>
    <linearGradient id="linear-gradient-13" x1="51.16" y1="41.16" x2="55.23" y2="48.2" xlink:href="#linear-gradient-3"/>
    <linearGradient id="linear-gradient-14" x1="45.44" y1="27.52" x2="50.12" y2="35.64" gradientUnits="userSpaceOnUse">
      <stop offset="0" stop-color="#83bedc"/>
      <stop offset="1" stop-color="#285a78"/>
    </linearGradient>
    <radialGradient id="radial-gradient" cx="49.83" cy="9.47" fx="49.83" fy="9.47" r="9.07" gradientTransform="translate(82.94 19.33) rotate(156.73) scale(.71 .47)" gradientUnits="userSpaceOnUse">
      <stop offset="0" stop-color="#fff"/>
      <stop offset=".3" stop-color="#fff" stop-opacity=".66"/>
      <stop offset=".87" stop-color="#fff" stop-opacity="0"/>
    </radialGradient>
  </defs>
  <g>
    <path id="fond" class="cls-19" d="m47.08,27.43s0-.08,0-.12l-.27-2.99c-.06-.63-.55-1.18-1.08-1.27l-3.61-.99c-.98-.16-1.65-1.69-1.65-2.34,0-.22.05-.44.14-.64l1.55-3.26c.07-.17.1-.35.1-.53,0-.39-.15-.76-.42-1.01l-2.31-2.17c-.28-.26-.61-.4-.92-.4-.22,0-.43.07-.6.22l-2.99,1.9c-.23.15-.49.22-.76.22-.5,0-1.91-.43-2.35-1.48l-1.21-3.62c-.23-.63-.71-.99-1.32-.99h-2.9c-.31,0-.59.09-.79.26h0s-4.05,3.35-4.05,3.35h0c-.2.17-.34.42-.35.74l-.19,1.07-2.53-1.44c-.23-.15-.48-.22-.7-.22s-.42.09-.58.23l-.02-.02-4.05,3.35v.03c-.05.05-.13.09-.18.16l-1.91,2.17c-.21.19-.32.45-.32.73,0,.26.09.54.29.8l2.15,3.26c.1.15.17.31.22.47l-.56.16c-.18.03-.33.11-.45.21h-.03s-4.05,3.35-4.05,3.35h.03c-.26.2-.41.52-.41.91,0,.05,0,.1,0,.15l.27,2.99c.06.63.45,1.09,1.08,1.27l3.6.9c1.02.34,1.66,1.74,1.66,2.44,0,.22-.05.44-.14.64l-1.55,3.27c-.11.16-.16.35-.16.54,0,.34.17.71.48,1l2.31,2.17c.23.22.55.34.88.34.21,0,.43-.05.63-.16l2.99-1.9c.23-.15.46-.22.72-.22.63,0,2.06.53,2.3,1.48l1.3,3.62c.14.54.71,1,1.32,1h2.9c.28,0,.51-.1.69-.26h0s4.05-3.34,4.05-3.34h0c.22-.19.37-.45.44-.75l.16-1.09,2.56,1.45c.18.11.39.16.6.16.3,0,.6-.11.84-.31h0s4.05-3.35,4.05-3.35h0s.03-.02.04-.03l1.91-2.17c.16-.24.25-.53.25-.81,0-.26-.07-.51-.21-.73l-2.15-3.27c-.1-.15-.18-.31-.22-.48l.56-.15c.16-.06.29-.14.42-.25h.01s4.05-3.34,4.05-3.34h0c.26-.22.44-.52.44-.9Zm-16.88,5.59c-4.87,0-7.5-4.4-7.5-7.52,0-.96.21-1.85.58-2.65.5-.12,1.03-.2,1.59-.2,4.89,0,7.5,4.38,7.5,7.51,0,.95-.2,1.84-.56,2.64-.51.13-1.04.22-1.6.22Z"/>
    <g id="epaisseur" class="cls-15">
      <path d="m8.84,26.41l3.43-.99c.92-.16,1.25-1.52,1.25-2.07,0-.16-.02-.3-.07-.45l-.56.16c-.18.03-.33.11-.45.21h-.03s-4.05,3.35-4.05,3.35h.03c.13-.1.27-.18.45-.21Z"/>
      <path d="m18.65,28.86c0,3.11,2.63,7.52,7.5,7.52,2.59,0,4.69-1.44,5.65-3.57-.51.13-1.04.22-1.6.22-4.87,0-7.5-4.4-7.5-7.52,0-.96.21-1.85.58-2.65-2.73.67-4.63,3.06-4.63,6Z"/>
      <path d="m13.81,15.06c.23,0,.47.07.7.22l3.34,1.9c.26.15.53.22.8.22.63,0,1.93-.56,1.99-1.48l.45-2.54-2.53-1.44c-.23-.15-.48-.22-.7-.22s-.42.09-.58.23l-.02-.02-4.05,3.35v.03c.18-.14.37-.24.6-.24Z"/>
      <path d="m33.95,41.61l-.79-.45c-.26-.15-.53-.22-.8-.22-.69,0-1.87.58-2.08,1.48l-.55,3.62c-.07.3-.23.56-.45.74h0s4.05-3.34,4.05-3.34h0c.22-.19.37-.45.44-.75l.16-1.09Z"/>
      <path d="m47.08,27.43s0-.08,0-.12l-.27-2.99c-.06-.63-.55-1.18-1.08-1.27l-3.61-.99c-.98-.16-1.65-1.69-1.65-2.34,0-.22.05-.44.14-.64l1.55-3.26c.07-.17.1-.35.1-.53,0-.39-.15-.76-.42-1.01l-2.31-2.17c-.28-.26-.61-.4-.92-.4-.22,0-.43.07-.6.22l-2.99,1.9c-.23.15-.49.22-.76.22-.5,0-1.91-.43-2.35-1.48l-1.21-3.62c-.23-.63-.71-.99-1.32-.99h-2.9c-.31,0-.59.09-.79.26h0s-4.05,3.35-4.05,3.35h0c.2-.17.48-.26.79-.26h2.9c.62,0,1.09.36,1.32.99l1.21,3.62c.44,1.05,1.85,1.48,2.35,1.48.27,0,.53-.07.76-.22l2.99-1.9c.17-.15.38-.22.6-.22.31,0,.64.14.92.4l2.31,2.17c.26.25.42.62.42,1.01,0,.18-.03.36-.1.53l-1.55,3.26c-.1.2-.14.42-.14.64,0,.65.67,2.18,1.65,2.34l3.61.99c.54.09,1.03.63,1.08,1.27l.27,2.99s0,.08,0,.12c0,.38-.18.68-.44.9h.01s4.05-3.34,4.05-3.34h0c.26-.22.44-.52.44-.9Z"/>
      <path d="m41.83,32.56c-.1-.15-.18-.31-.22-.48l-2.87.76c-.89.31-1.24,1.57-1.24,2.12,0,.33.09.67.29.96l2.15,3.27c.14.21.21.47.21.73,0,.29-.09.57-.25.81l-1.91,2.17s-.03.01-.04.02h0s4.05-3.35,4.05-3.35h0s.03-.02.04-.03l1.91-2.17c.16-.24.25-.53.25-.81,0-.26-.07-.51-.21-.73l-2.15-3.27Z"/>
    </g>
    <g id="ombre_arriere" data-name="ombre arriere" class="cls-10">
      <path d="m20.47,13.67l-.12.67c-.09.08-.21.15-.38.15-.09,0-.19-.02-.27-.07l-2.54-1.44c-.07-.04-.13-.08-.19-.1l.5-.41c.16-.07.22-.2.38-.2.12,0,.26.06.42.16l2.19,1.25Z"/>
      <path d="m34.09,14.6c-.17.03-.31.11-.42.21l-.56.36c-.73-.01-2.31-.58-2.84-1.83l-1.22-3.65c-.16-.4-.42-.61-.79-.61h-2.74l.51-.42c.1-.09.26-.13.44-.13h2.9c.37,0,.64.21.79.61l1.22,3.65c.5,1.18,1.93,1.74,2.7,1.82Z"/>
      <path d="m12.49,23.99c.12-.04.29-.14.36-.33-.06.03-.09.07-.18.11l-.31.26.12-.04Z"/>
      <path d="m30.74,33.56c-.12.16-.23.31-.37.45h-.01c-.45.09-.86.13-1.27.13-5.26,0-8.06-4.69-8.06-8.07,0-.54.06-1.06.18-1.57.36-.29.75-.54,1.18-.74-.17.57-.25,1.16-.25,1.75,0,3.38,2.8,8.07,8.06,8.07.18,0,.36-.01.54-.02Z"/>
      <path d="m46.52,27.35v.08c0,.32-.22.44-.31.55l-2.66,2.2-.03-.34,1.57-1.31c.09-.11.31-.22.31-.55v-.08l-.28-2.97c-.03-.41-.35-.73-.61-.77l-3.67-1.01c-1.23-.21-2.05-2.01-2.05-2.88,0-.32.07-.61.2-.89l1.54-3.25c.03-.07.04-.17.04-.29,0-.23-.09-.46-.23-.6l-2.31-2.17c-.13-.13-.29-.2-.44-.22l.79-.5c.07-.06.15-.08.22-.08.17,0,.37.09.54.25l2.31,2.17c.15.15.23.37.23.6,0,.12-.01.22-.04.29l-1.54,3.25c-.13.28-.2.57-.2.89,0,.87.83,2.67,2.05,2.88l3.67,1.01c.27.04.58.36.61.77l.28,2.97Z"/>
      <path d="m43.64,36.55c0,.18-.06.36-.11.45l-1.84,2.1s-.08.06-.11.1l-.86.7c0-.12-.01-.25-.04-.37l1.74-1.98c.06-.09.11-.27.11-.45,0-.16-.04-.29-.12-.41l-2.14-3.27c-.08-.11-.15-.23-.2-.36l1.24-.32s.06.09.08.12l2.14,3.27c.08.12.12.26.12.41Z"/>
      <path d="m33.34,41.91l-.1.67c-.07.32-.26.41-.32.5l-2.47,2.04.07-.41,1.28-1.07c.07-.09.26-.18.32-.5l.16-1.05c.02-.13.16-.46.54-.47.02,0,.06.02.08.03l.45.26Z"/>
    </g>
    <path id="INSIDE_LINE" data-name="INSIDE LINE" class="cls-5" d="m41.67,26.41c.54.09,1.03.63,1.08,1.27l.27,2.98s0,.08,0,.12c0,.57-.38.98-.86,1.14l-3.44.9c-.89.31-1.24,1.57-1.24,2.12,0,.33.09.67.29.96l2.15,3.27c.14.21.21.47.21.73,0,.29-.09.57-.25.81l-1.91,2.17c-.25.22-.57.34-.88.34-.21,0-.41-.05-.6-.16l-3.34-1.9c-.26-.15-.53-.22-.8-.22-.69,0-1.87.58-2.08,1.48l-.55,3.62c-.13.54-.52,1-1.14,1h-2.9c-.62,0-1.19-.45-1.32-1l-1.3-3.62c-.24-.95-1.67-1.48-2.3-1.48-.26,0-.49.07-.72.22l-2.99,1.9c-.2.11-.42.16-.63.16-.33,0-.65-.12-.88-.34l-2.31-2.17c-.31-.29-.48-.66-.48-1,0-.19.05-.38.16-.54l1.55-3.27c.1-.2.14-.42.14-.64,0-.69-.63-2.1-1.66-2.44l-3.6-.9c-.63-.18-1.03-.63-1.08-1.27l-.27-2.98c0-.05,0-.1,0-.15,0-.57.3-1.03.86-1.11l3.43-1c.92-.16,1.25-1.52,1.25-2.07,0-.32-.09-.62-.29-.92l-2.15-3.26c-.19-.26-.29-.54-.29-.8,0-.28.11-.55.32-.73l1.91-2.17c.18-.26.46-.4.78-.4.23,0,.47.07.7.22l3.34,1.9c.26.15.53.22.8.22.63,0,1.93-.56,1.99-1.48l.64-3.62c.03-.63.52-1,1.14-1h2.9c.62,0,1.09.36,1.32,1l1.21,3.62c.44,1.05,1.85,1.48,2.35,1.48.27,0,.53-.07.76-.22l2.99-1.9c.17-.15.38-.22.6-.22.31,0,.64.14.92.4l2.31,2.17c.26.25.42.62.42,1.01,0,.18-.03.36-.1.53l-1.55,3.26c-.1.2-.14.42-.14.64,0,.65.67,2.18,1.65,2.34l3.61,1Zm-15.52,9.97c3.56,0,6.21-2.72,6.21-6.21,0-3.12-2.61-7.51-7.5-7.51-3.56,0-6.21,2.72-6.21,6.2,0,3.11,2.63,7.52,7.5,7.52Z"/>
    <g id="ombres" class="cls-16">
      <path d="m35.85,21.96c0,.16.04.35.09.55.03-.11.06-.22.12-.33l1.55-3.25c.02-.06.04-.17.04-.29,0-.2-.08-.39-.19-.53l-1.4,2.95c-.14.27-.2.57-.2.89Z"/>
      <path d="m24.87,20.99c-3.86,0-6.77,2.91-6.77,6.76,0,.18.01.36.03.54.28-3.56,3.08-6.18,6.74-6.18,4.98,0,7.76,4.21,8.03,7.53.01-.19.03-.38.03-.58,0-3.38-2.8-8.07-8.06-8.07Z"/>
      <path d="m13.7,22.12c.16.23.25.48.31.73.05-.23.07-.45.07-.62,0-.45-.13-.85-.38-1.22l-2.06-3.12-.1.12c-.14.13-.18.23-.18.36,0,.15.06.32.18.47l2.16,3.28Z"/>
      <path d="m39.38,39.34l-1.76,2c-.23.21-.57.26-.83.11l-3.34-1.9c-.33-.19-.7-.29-1.08-.29-.91,0-2.35.73-2.63,1.96l-.54,3.58c-.04.17-.18.56-.6.56h-2.9c-.38,0-.71-.3-.8-.62l-1.28-3.57c-.32-1.27-1.99-1.9-2.84-1.9-.37,0-.72.1-1.02.3l-2.96,1.88c-.28.15-.65.1-.87-.1l-2.31-2.17s-.03-.05-.05-.07l-.14.3c-.09.14-.11.21-.11.3,0,.19.11.42.3.59l2.31,2.17c.21.2.59.25.87.1l2.96-1.88c.31-.2.65-.3,1.02-.3.85,0,2.52.64,2.84,1.9l1.28,3.57c.09.33.42.62.8.62h2.9c.42,0,.56-.39.6-.56l.54-3.58c.28-1.23,1.72-1.96,2.63-1.96.38,0,.75.1,1.08.29l3.34,1.9c.26.15.6.09.83-.11l1.87-2.12c.06-.09.11-.26.11-.44,0-.16-.04-.3-.12-.41l-.09-.14Z"/>
      <path d="m42.03,30.27l-3.48.92c-1.21.43-1.61,2-1.61,2.65,0,.18.04.35.08.52.16-.74.62-1.73,1.54-2.05l3.48-.92c.1-.04.44-.2.44-.61l-.08-.83c-.11.19-.29.29-.37.32Z"/>
      <path d="m15.09,34.71c.05-.18.08-.36.08-.56,0-.93-.8-2.55-2.08-2.98l-3.59-.9c-.42-.12-.64-.38-.68-.78l-.21-2.29c-.06.11-.07.23-.07.32l.28,3.09c.04.4.27.66.68.78l3.59.9c1.06.35,1.77,1.5,2,2.42Z"/>
    </g>
    <g id="lumiere" class="cls-17">
      <path class="cls-3" d="m26.15,38.05c3.86,0,6.77-2.91,6.77-6.77,0-.18-.01-.36-.03-.54-.28,3.57-3.08,6.19-6.74,6.19-4.98,0-7.76-4.21-8.03-7.53-.01.19-.03.38-.03.58,0,3.38,2.8,8.07,8.06,8.07Z"/>
      <path class="cls-3" d="m35.93,23.63c-.05.18-.09.37-.09.56,0,.87.82,2.67,2.06,2.88l3.61,1s.04,0,.06.01c.27.05.58.36.62.77l.2,2.23c.04-.08.08-.17.08-.29l-.28-3.06c-.04-.4-.35-.72-.62-.77-.02,0-.04,0-.06-.01l-3.61-1c-1.01-.17-1.74-1.4-1.97-2.33Z"/>
      <path class="cls-3" d="m15.17,36.39c0-.17-.03-.36-.08-.56-.03.12-.07.23-.12.34l-1.54,3.25c-.09.14-.11.21-.11.3,0,.17.1.36.25.52l1.4-2.96c.14-.27.2-.57.2-.89Z"/>
      <path class="cls-3" d="m37.32,36.22c-.15-.22-.24-.47-.31-.74-.05.23-.08.44-.08.6,0,.46.13.9.38,1.26l2.06,3.13.1-.12c.06-.09.11-.26.11-.44,0-.16-.04-.3-.12-.41l-2.15-3.27Z"/>
      <path class="cls-3" d="m9,28.06l3.37-.98c1.29-.22,1.71-1.86,1.71-2.62,0-.17-.04-.33-.07-.49-.16.8-.64,1.82-1.64,1.99l-3.37.98c-.41.07-.46.39-.46.58l.07.79c.06-.12.17-.22.38-.25Z"/>
      <path class="cls-3" d="m11.64,19.01l1.85-2.11c.14-.21.4-.23.74-.01l3.34,1.9c.33.19.7.29,1.08.29.84,0,2.46-.69,2.54-1.94l.64-3.69c.02-.42.41-.46.58-.46h2.9c.38,0,.65.21.79.61l1.23,3.65c.53,1.28,2.15,1.83,2.87,1.83.39,0,.75-.11,1.06-.3l3.07-1.95c.17-.16.5-.08.76.17l2.31,2.17s.03.05.05.08l.14-.3c.02-.06.04-.17.04-.29,0-.24-.09-.46-.24-.6l-2.31-2.17c-.26-.25-.58-.33-.76-.17l-3.07,1.95c-.3.2-.67.3-1.06.3-.71,0-2.34-.55-2.87-1.83l-1.23-3.65c-.15-.4-.42-.61-.79-.61h-2.9c-.17,0-.56.05-.58.46l-.64,3.69c-.09,1.26-1.7,1.94-2.54,1.94-.38,0-.75-.1-1.08-.29l-3.34-1.9c-.34-.22-.6-.19-.74.01l-1.95,2.22c-.14.13-.18.23-.18.36,0,.15.06.32.18.47l.11.16Z"/>
    </g>
    <path id="OUTLINE" class="cls-4" d="m47.08,27.43s0-.08,0-.12l-.27-2.99c-.06-.63-.55-1.18-1.08-1.27l-3.61-.99c-.98-.16-1.65-1.69-1.65-2.34,0-.22.05-.44.14-.64l1.55-3.26c.07-.17.1-.35.1-.53,0-.39-.15-.76-.42-1.01l-2.31-2.17c-.28-.26-.61-.4-.92-.4-.22,0-.43.07-.6.22l-2.99,1.9c-.23.15-.49.22-.76.22-.5,0-1.91-.43-2.35-1.48l-1.21-3.62c-.23-.63-.71-.99-1.32-.99h-2.9c-.31,0-.59.09-.79.26h0s-4.05,3.35-4.05,3.35h0c-.2.17-.34.42-.35.74l-.19,1.07-2.53-1.44c-.23-.15-.48-.22-.7-.22s-.42.09-.58.23l-.02-.02-4.05,3.35v.03c-.05.05-.13.09-.18.16l-1.91,2.17c-.21.19-.32.45-.32.73,0,.26.09.54.29.8l2.15,3.26c.1.15.17.31.22.47l-.56.16c-.18.03-.33.11-.45.21h-.03s-4.05,3.35-4.05,3.35h.03c-.26.2-.41.52-.41.91,0,.05,0,.1,0,.15l.27,2.99c.06.63.45,1.09,1.08,1.27l3.6.9c1.02.34,1.66,1.74,1.66,2.44,0,.22-.05.44-.14.64l-1.55,3.27c-.11.16-.16.35-.16.54,0,.34.17.71.48,1l2.31,2.17c.23.22.55.34.88.34.21,0,.43-.05.63-.16l2.99-1.9c.23-.15.46-.22.72-.22.63,0,2.06.53,2.3,1.48l1.3,3.62c.14.54.71,1,1.32,1h2.9c.28,0,.51-.1.69-.26h0s4.05-3.34,4.05-3.34h0c.22-.19.37-.45.44-.75l.16-1.09,2.56,1.45c.18.11.39.16.6.16.3,0,.6-.11.84-.31h0s4.05-3.35,4.05-3.35h0s.03-.02.04-.03l1.91-2.17c.16-.24.25-.53.25-.81,0-.26-.07-.51-.21-.73l-2.15-3.27c-.1-.15-.18-.31-.22-.48l.56-.15c.16-.06.29-.14.42-.25h.01s4.05-3.34,4.05-3.34h0c.26-.22.44-.52.44-.9Zm-16.88,5.59c-4.87,0-7.5-4.4-7.5-7.52,0-.96.21-1.85.58-2.65.5-.12,1.03-.2,1.59-.2,4.89,0,7.5,4.38,7.5,7.51,0,.95-.2,1.84-.56,2.64-.51.13-1.04.22-1.6.22Z"/>
  </g>
  <g>
    <g>
      <g>
        <path class="cls-23" d="m39.76,55.79c-.08,0-.17-.03-.24-.09l-2.14-1.92c-.17-.21-.23-.41-.23-.63v-24.77c0-.59.46-1.15,1.06-1.28l15-3.2c.08-.02.16-.03.24-.03.15,0,.29.03.42.09,0,0,2.01,1.08,2.01,1.08.17.09.23.3.15.47-.06.13-.19.2-.32.2-.02,0-.05,0-.07,0l.06,17.77c0,.1-.04.19-.11.26-.12.41-.1,2.22.07,5.39.02.4.04.68.04.76,0,.15-.1.29-.25.34l-15.35,5.04c.06.13.03.3-.08.4-.07.07-.16.1-.25.1Z"/>
        <path class="cls-11" d="m53.45,24.25c.1,0,.19.02.27.06,0,0,0,0,0,0l1.98,1.07c-.08-.04-.17-.05-.26-.05-.05,0-.11,0-.17.02l.06,18.15c-.43.09,0,6,0,6.42l-15.68,5.15c0,.15.03.28.11.38l-2.14-1.92c-.07-.09-.12-.22-.12-.36v-24.77c0-.42.35-.84.77-.93l15-3.2c.06-.01.11-.02.16-.02m0-.71c-.1,0-.21.01-.31.03l-15,3.2c-.75.16-1.34.87-1.34,1.62v24.77c0,.3.09.57.26.8.03.03.06.07.09.09l2.14,1.92c.14.12.31.18.48.18.18,0,.36-.07.5-.2.12-.11.19-.26.21-.41l15.09-4.96c.29-.1.49-.37.49-.68,0-.08-.01-.37-.04-.78-.16-2.94-.2-4.7-.1-5.21.09-.12.14-.27.14-.42l-.06-17.45c.15-.07.28-.18.36-.35.17-.34.03-.77-.31-.95l-1.97-1.06s-.04-.02-.06-.03c-.18-.08-.37-.12-.56-.12h0Z"/>
      </g>
      <g>
        <path class="cls-1" d="m40.13,55.97c-.5,0-.84-.37-.84-.91v-25.42c0-.6.43-1.16.99-1.28l14.91-3.37c.08-.02.17-.03.25-.03.55,0,.96.42.96.97v23.47c0,.57-.44,1.17-.99,1.35l-14.93,5.15c-.12.04-.23.06-.34.06Z"/>
        <path class="cls-11" d="m55.44,25.32c.34,0,.6.25.6.61v23.47c0,.42-.34.88-.75,1.01l-14.93,5.15c-.08.03-.16.04-.23.04-.29,0-.48-.21-.48-.55v-25.42c0-.42.29-.84.71-.93l14.91-3.37c.06-.01.11-.02.17-.02m0-.71h0c-.11,0-.21.01-.32.04l-14.91,3.37c-.73.16-1.27.85-1.27,1.63v25.42c0,.73.5,1.26,1.2,1.26.15,0,.3-.03.45-.08l14.94-5.16c.7-.23,1.23-.96,1.23-1.69v-23.47c0-.75-.57-1.32-1.32-1.32h0Z"/>
      </g>
      <path class="cls-9" d="m53.45,24.25c.1,0,.19.02.27.06,0,0,0,0,0,0l1.98,1.07s-.06-.01-.09-.02c.25.07.43.28.43.58v23.47c0,.42-.34.88-.75,1.01l-14.93,5.15c-.08.03-.15.04-.22.04-.19,0-.33-.09-.41-.24,0,0,0,0,0,0,0,0,0,0,0,0,.01.02.02.05.04.07l-2.14-1.92c-.07-.09-.12-.22-.12-.36v-24.77c0-.42.35-.84.77-.93l15-3.2c.06-.01.11-.02.16-.02m1.82,1.09c.05-.01.1-.02.15-.02.04,0,.08,0,.13.01-.04,0-.08-.01-.13-.01-.05,0-.1,0-.15.02m-15.57,29.97s0,0,0,0c0,0,0,0,0,0-.03-.07-.05-.16-.05-.25,0,.1.02.18.05.25m13.75-31.78c-.1,0-.21.01-.31.03l-15,3.2c-.75.16-1.34.87-1.34,1.62v24.77c0,.3.09.57.26.8.03.03.06.07.09.09l2.14,1.92s.02.01.02.02c.22.21.51.33.83.33.15,0,.3-.03.45-.08l14.94-5.16c.7-.23,1.23-.96,1.23-1.69v-23.47c0-.47-.24-.89-.62-1.12-.03-.02-.06-.04-.09-.06l-1.97-1.06s-.04-.02-.06-.03c-.18-.08-.37-.12-.56-.12h0Z"/>
    </g>
    <g>
      <g>
        <path class="cls-22" d="m49.39,39.84c-.47,0-.83-.69-.83-1.57,0-1.17.61-2.14,1.15-2.28.05-.01.09-.02.14-.02.48,0,.85.69.85,1.56,0,1.16-.61,2.13-1.16,2.28-.05.01-.1.02-.14.02Z"/>
        <path class="cls-11" d="m49.85,36.33c.17,0,.49.41.49,1.2,0,1.04-.53,1.84-.9,1.94-.02,0-.04,0-.05,0-.16,0-.48-.43-.48-1.21,0-1.03.53-1.84.88-1.93.02,0,.04,0,.05,0m0-.71c-.07,0-.15,0-.22.03-.78.19-1.42,1.37-1.42,2.62,0,1.12.52,1.92,1.19,1.92.08,0,.15-.01.23-.03.79-.21,1.43-1.39,1.43-2.62,0-1.11-.52-1.92-1.2-1.92h0Z"/>
      </g>
      <g>
        <path class="cls-24" d="m45.8,51.4c-.45,0-.8-.68-.8-1.55,0-1.2.62-2.22,1.17-2.38.05-.01.1-.02.15-.02.46,0,.82.68.82,1.54,0,1.19-.62,2.21-1.18,2.38-.06.02-.11.03-.16.03Z"/>
        <path class="cls-11" d="m46.32,47.81c.16,0,.46.42.46,1.19,0,1.07-.55,1.92-.93,2.04-.02,0-.04.01-.06.01-.15,0-.44-.42-.44-1.19,0-1.08.54-1.93.91-2.04.02,0,.04,0,.06,0m0-.71c-.08,0-.17.01-.25.04-.78.23-1.43,1.45-1.43,2.72,0,1.12.5,1.9,1.16,1.9.09,0,.18-.01.27-.04.78-.24,1.43-1.47,1.43-2.72,0-1.11-.51-1.9-1.17-1.9h0Z"/>
      </g>
      <g>
        <path class="cls-18" d="m49.36,50.29c-.45,0-.8-.66-.8-1.51,0-1.18.62-2.18,1.17-2.35.05-.02.11-.02.16-.02.46,0,.81.66.81,1.51,0,1.17-.62,2.17-1.18,2.35-.06.02-.11.03-.17.03Z"/>
        <path class="cls-11" d="m49.89,46.77c.16,0,.45.4.45,1.15,0,1.05-.55,1.89-.93,2.01-.02,0-.04.01-.06.01-.15,0-.44-.41-.44-1.16,0-1.06.54-1.89.91-2,.02,0,.04,0,.06,0m0-.71c-.08,0-.17.01-.26.04-.78.23-1.42,1.44-1.42,2.69,0,1.1.5,1.87,1.15,1.87.09,0,.18-.01.27-.04.79-.24,1.43-1.45,1.43-2.69,0-1.09-.5-1.86-1.17-1.86h0Z"/>
      </g>
      <g>
        <path class="cls-8" d="m45.83,40.79c-.47,0-.84-.7-.84-1.6,0-1.19.61-2.18,1.15-2.31.04-.01.09-.02.13-.02.48,0,.85.7.85,1.59,0,1.18-.61,2.17-1.16,2.31-.05.01-.09.02-.14.02h0Z"/>
        <path class="cls-11" d="m46.28,37.22c.17,0,.49.44.49,1.24,0,1.06-.53,1.87-.94,1.98-.16,0-.48-.44-.48-1.24,0-1.05.53-1.88.88-1.97.02,0,.03,0,.05,0m0-.71c-.07,0-.14,0-.22.03-.78.19-1.43,1.39-1.43,2.66,0,1.14.52,1.95,1.19,1.95.08,0,.15-.01.23-.03.78-.21,1.43-1.41,1.43-2.66,0-1.13-.53-1.95-1.21-1.95h0Z"/>
      </g>
      <g>
        <path class="cls-20" d="m49.37,45.07c-.46,0-.81-.68-.81-1.54,0-1.18.61-2.16,1.16-2.31.05-.01.1-.02.15-.02.46,0,.83.67.83,1.53,0,1.16-.62,2.15-1.17,2.31-.05.02-.11.02-.16.02Z"/>
        <path class="cls-11" d="m49.87,41.55c.16,0,.47.4.47,1.18,0,1.04-.54,1.86-.91,1.97-.02,0-.04,0-.06,0-.16,0-.46-.42-.46-1.18,0-1.05.53-1.87.9-1.97.02,0,.04,0,.06,0m0-.71c-.08,0-.16.01-.24.03-.78.21-1.42,1.41-1.42,2.65,0,1.11.51,1.89,1.17,1.89.08,0,.17-.01.25-.04.79-.23,1.43-1.42,1.43-2.66,0-1.1-.51-1.89-1.19-1.89h0Z"/>
      </g>
      <g>
        <path class="cls-25" d="m42.27,41.73c-.47,0-.84-.72-.84-1.63,0-1.21.61-2.21,1.16-2.35.04-.01.09-.02.13-.02.48,0,.85.72.85,1.63,0,1.2-.61,2.2-1.16,2.35-.05.01-.09.02-.14.02h0Z"/>
        <path class="cls-11" d="m42.72,38.1c.17,0,.5.45.5,1.27,0,1.06-.54,1.91-.94,2.01-.16,0-.48-.45-.48-1.28,0-1.07.53-1.91.88-2,.02,0,.03,0,.04,0m0-.71c-.07,0-.14,0-.22.03-.78.19-1.43,1.41-1.43,2.69,0,1.16.52,1.99,1.2,1.99.07,0,.15,0,.23-.03.78-.21,1.43-1.42,1.43-2.69,0-1.15-.53-1.98-1.21-1.98h0Z"/>
      </g>
      <g>
        <path class="cls-21" d="m52.95,38.89c-.47,0-.83-.67-.83-1.53,0-1.15.61-2.11,1.16-2.24.05-.01.09-.02.14-.02.47,0,.84.67.84,1.53,0,1.14-.61,2.1-1.16,2.25-.05.01-.1.02-.15.02h0Z"/>
        <path class="cls-11" d="m53.42,35.45c.17,0,.49.4.49,1.17,0,1.01-.53,1.8-.9,1.9-.02,0-.04,0-.05,0-.17,0-.47-.4-.47-1.17,0-1.02.52-1.81.88-1.9.02,0,.04,0,.05,0m0-.71c-.07,0-.15,0-.23.03-.78.19-1.43,1.36-1.43,2.59,0,1.1.52,1.89,1.19,1.89.08,0,.16-.01.24-.03.78-.21,1.43-1.37,1.43-2.59,0-1.1-.52-1.88-1.2-1.88h0Z"/>
      </g>
      <g>
        <path class="cls-13" d="m42.25,47.12c-.46,0-.82-.71-.82-1.61,0-1.22.61-2.23,1.16-2.38.05-.01.09-.02.14-.02.47,0,.84.7.84,1.6,0,1.2-.62,2.22-1.17,2.38-.05.02-.1.02-.15.02Z"/>
        <path class="cls-11" d="m42.73,43.47c.16,0,.48.44.48,1.24,0,1.08-.54,1.93-.91,2.04,0,0-.05,0-.05,0-.13,0-.47-.38-.47-1.25,0-1.08.54-1.94.9-2.04.02,0,.03,0,.05,0m0-.71c-.08,0-.15.01-.23.03-.78.21-1.43,1.44-1.43,2.72,0,1.15.51,1.96,1.18,1.96.08,0,.16-.01.25-.04.78-.23,1.43-1.45,1.43-2.72,0-1.14-.52-1.96-1.19-1.96h0Z"/>
      </g>
      <g>
        <path class="cls-12" d="m45.82,46.09c-.46,0-.82-.69-.82-1.57,0-1.2.61-2.2,1.16-2.35.05-.01.1-.02.14-.02.47,0,.83.69.83,1.57,0,1.18-.62,2.19-1.17,2.35-.05.01-.1.02-.15.02Z"/>
        <path class="cls-11" d="m46.3,42.51c.16,0,.48.43.48,1.21,0,1.06-.54,1.9-.91,2-.02,0-.04,0-.05,0-.16,0-.46-.43-.46-1.22,0-1.06.54-1.9.9-2,.02,0,.04,0,.05,0m0-.71c-.08,0-.16.01-.24.03-.78.21-1.43,1.42-1.43,2.69,0,1.13.51,1.93,1.18,1.93.08,0,.16-.01.25-.04.78-.23,1.43-1.44,1.43-2.69,0-1.12-.52-1.93-1.19-1.93h0Z"/>
      </g>
      <g>
        <path class="cls-26" d="m42.24,52.51c-.45,0-.8-.69-.8-1.58,0-1.22.62-2.25,1.17-2.41.05-.01.1-.02.15-.02.46,0,.82.69.82,1.58,0,1.21-.62,2.24-1.18,2.42-.05.02-.11.03-.16.03h0Z"/>
        <path class="cls-11" d="m42.75,48.85c.16,0,.46.43.46,1.22,0,1.09-.55,1.96-.92,2.07-.02,0-.04,0-.05,0-.12,0-.45-.38-.45-1.22,0-1.1.54-1.96.91-2.07.02,0,.04,0,.05,0m0-.71c-.08,0-.17.01-.25.04-.78.23-1.43,1.47-1.43,2.76,0,1.14.5,1.94,1.16,1.94.09,0,.17-.01.26-.04.78-.24,1.43-1.49,1.43-2.76,0-1.13-.51-1.93-1.17-1.93h0Z"/>
      </g>
      <g>
        <path class="cls-27" d="m52.12,40.68s.06-.13.14-.15l2.05-.56-.05,8.7s-.07.14-.14.16l-1.99.62v-8.78Z"/>
        <path class="cls-11" d="m53.91,40.46v8.07l-1.43.45v-8.13l1.43-.39m.42-.84s-.07,0-.11.01l-2.05.56c-.22.06-.4.28-.4.49v8.88c0,.17.12.28.27.28.04,0,.08,0,.12-.02l2.06-.64c.22-.07.4-.3.4-.5v-8.77c0-.17-.12-.29-.29-.29h0Z"/>
      </g>
    </g>
    <g>
      <g>
        <path class="cls-7" d="m41.38,36.27c-.38,0-.66-.28-.66-.65v-4.91c0-.38.3-.73.69-.82l12.73-2.76s.14-.02.17-.02c.38,0,.67.28.67.66v4.59c0,.38-.29.73-.68.82l-12.73,3.06s-.15.02-.18.02Z"/>
        <path class="cls-2" d="m54.3,27.47c.18,0,.32.12.32.3v4.59c0,.21-.18.43-.4.48l-12.73,3.06s-.07.01-.1.01c-.18,0-.31-.12-.31-.3v-4.91c0-.21.18-.42.41-.47l12.73-2.76s.06-.01.09-.01m0-.71c-.08,0-.16,0-.24.03l-12.73,2.76c-.55.12-.97.62-.97,1.17v4.91c0,.57.45,1.01,1.02,1.01.09,0,.18-.01.26-.03l12.73-3.06c.54-.13.95-.63.95-1.17v-4.59c0-.57-.45-1.02-1.03-1.02h0Z"/>
      </g>
      <path class="cls-6" d="m54.21,27.48l-.39.09c.05.05.09.12.09.21v4.59c0,.21-.18.43-.4.48l-12.35,2.97c.07.08.19.13.33.09l12.73-3.06c.22-.05.4-.27.4-.48v-4.59c0-.21-.18-.34-.41-.29Z"/>
      <path class="cls-14" d="m48.92,28.63l-7.44,1.61c-.22.05-.41.26-.41.47v4.91c0,.08.03.14.08.19l5.95-1.43,1.82-5.75Z"/>
    </g>
  </g>
</svg>