<?xml version="1.0" encoding="UTF-8"?>
<svg id="FINAL_ART" data-name="FINAL ART" xmlns="http://www.w3.org/2000/svg" xmlns:xlink="http://www.w3.org/1999/xlink" viewBox="0 0 64 64">
  <defs>
    <style>
      .cls-1 {
        fill: #053755;
      }

      .cls-2, .cls-3 {
        fill: #fff;
      }

      .cls-4 {
        fill: url(#linear-gradient-17);
      }

      .cls-5 {
        opacity: .5;
      }

      .cls-6 {
        fill: url(#linear-gradient-15);
      }

      .cls-7 {
        fill: url(#linear-gradient-18);
      }

      .cls-8 {
        fill: url(#linear-gradient-14);
      }

      .cls-9 {
        fill: url(#linear-gradient-11);
      }

      .cls-9, .Medium_Grey, .cls-3, .Light_Grey, .SINGLE_White_Item, .cls-10, .cls-11, .cls-12, .Dark_Outline_2, .cls-13, .cls-14, .cls-15, .cls-16, .cls-17 {
        stroke-linejoin: round;
      }

      .cls-9, .Medium_Grey, .cls-3, .Light_Grey, .SINGLE_White_Item, .cls-10, .cls-11, .cls-12, .Dark_Outline_2, .cls-13, .cls-14, .cls-15, .cls-17 {
        stroke-linecap: round;
      }

      .cls-9, .Medium_Grey, .cls-3, .SINGLE_White_Item, .cls-10, .cls-12, .Dark_Outline_2, .cls-13, .cls-14 {
        stroke: #333332;
      }

      .cls-18 {
        mask: url(#mask-2);
      }

      .cls-19 {
        fill: url(#linear-gradient-6);
      }

      .cls-20 {
        clip-path: url(#clippath-2);
      }

      .cls-21 {
        fill: #323232;
      }

      .Medium_Grey {
        fill: url(#linear-gradient-2);
      }

      .cls-22 {
        mask: url(#mask-3);
      }

      .cls-23 {
        clip-path: url(#clippath-1);
      }

      .Light_Grey {
        fill: url(#linear-gradient);
      }

      .Light_Grey, .cls-11, .cls-16 {
        stroke: #797979;
      }

      .cls-24 {
        mask: url(#mask-5);
      }

      .cls-25 {
        opacity: .45;
      }

      .SINGLE_White_Item {
        fill: url(#linear-gradient-3);
      }

      .cls-26 {
        fill: url(#linear-gradient-16);
      }

      .cls-27 {
        fill: url(#White_Black-3);
      }

      .cls-10 {
        fill: url(#radial-gradient);
      }

      .cls-28 {
        fill: url(#White_Black);
      }

      .cls-11, .cls-12, .cls-29, .cls-16 {
        fill: none;
      }

      .cls-30 {
        mask: url(#mask-4);
      }

      .cls-31 {
        fill: url(#linear-gradient-5);
      }

      .cls-32 {
        clip-path: url(#clippath);
      }

      .cls-33 {
        fill: url(#linear-gradient-7);
      }

      .cls-34 {
        fill: url(#linear-gradient-24);
      }

      .cls-35 {
        fill: url(#White_Black-2);
      }

      .cls-36 {
        fill: url(#White_Black-5);
      }

      .cls-37 {
        fill: url(#linear-gradient-9);
      }

      .cls-38 {
        fill: url(#linear-gradient-22);
      }

      .cls-39 {
        mask: url(#mask-1);
      }

      .cls-40 {
        mask: url(#mask);
      }

      .cls-13 {
        fill: url(#linear-gradient-12);
      }

      .cls-41 {
        fill: #333332;
      }

      .cls-42 {
        fill: url(#linear-gradient-23);
      }

      .cls-14 {
        fill: url(#linear-gradient-10);
      }

      .cls-43 {
        fill: url(#linear-gradient-19);
      }

      .cls-44 {
        fill: url(#linear-gradient-4);
      }

      .cls-15 {
        fill: url(#linear-gradient-20);
      }

      .cls-15, .cls-17 {
        stroke: #323232;
      }

      .cls-45 {
        fill: url(#linear-gradient-8);
      }

      .cls-46 {
        fill: url(#White_Black-4);
      }

      .cls-47 {
        fill: url(#linear-gradient-13);
      }

      .cls-17 {
        fill: url(#linear-gradient-21);
      }
    </style>
    <linearGradient id="linear-gradient" x1="28.62" y1="33.15" x2="34.01" y2="42.49" gradientUnits="userSpaceOnUse">
      <stop offset="0" stop-color="#d7d7d7"/>
      <stop offset="1" stop-color="#969696"/>
    </linearGradient>
    <linearGradient id="linear-gradient-2" x1="14.87" y1="22.98" x2="25.33" y2="41.1" gradientUnits="userSpaceOnUse">
      <stop offset="0" stop-color="#ababab"/>
      <stop offset="1" stop-color="#5b5b5b"/>
    </linearGradient>
    <linearGradient id="linear-gradient-3" x1="17.63" y1="26.6" x2="25.38" y2="40.02" gradientUnits="userSpaceOnUse">
      <stop offset="0" stop-color="#f5f6f6"/>
      <stop offset=".99" stop-color="#d2d3d3"/>
    </linearGradient>
    <linearGradient id="linear-gradient-4" x1="44.17" y1="32.39" x2="41.56" y2="27.86" gradientTransform="translate(49.74 -21.82) rotate(62.43)" gradientUnits="userSpaceOnUse">
      <stop offset="0" stop-color="#161616"/>
      <stop offset="1" stop-color="#515151"/>
    </linearGradient>
    <clipPath id="clippath">
      <rect class="cls-29" x="7.83" y="38.5" width="21" height="18.5"/>
    </clipPath>
    <linearGradient id="linear-gradient-5" x1="37.55" y1="60.15" x2="37.55" y2="44.26" gradientTransform="translate(55 106.5) rotate(-180)" gradientUnits="userSpaceOnUse">
      <stop offset="0" stop-color="#fff"/>
      <stop offset="1" stop-color="#000"/>
    </linearGradient>
    <mask id="mask" x="6.37" y="44.63" width="22.15" height="20.87" maskUnits="userSpaceOnUse">
      <rect class="cls-31" x="6.37" y="44.63" width="22.15" height="19.21"/>
    </mask>
    <linearGradient id="linear-gradient-6" x1="37.17" y1="43.68" x2="37.17" y2="52.58" gradientTransform="translate(55 106.5) rotate(-180)" xlink:href="#linear-gradient"/>
    <linearGradient id="linear-gradient-7" x1="13.22" y1="56.75" x2="20.39" y2="56.75" gradientUnits="userSpaceOnUse">
      <stop offset=".13" stop-color="#bfbebe"/>
      <stop offset=".34" stop-color="#f5f6f6"/>
      <stop offset=".93" stop-color="#bfbebe"/>
    </linearGradient>
    <linearGradient id="linear-gradient-8" x1="15.68" y1="42.78" x2="20.11" y2="50.46" gradientUnits="userSpaceOnUse">
      <stop offset="0" stop-color="#fff"/>
      <stop offset="1" stop-color="#f1f0f0"/>
    </linearGradient>
    <linearGradient id="linear-gradient-9" x1="15.4" y1="43.94" x2="20.63" y2="52.99" xlink:href="#linear-gradient-8"/>
    <linearGradient id="linear-gradient-10" x1="14.24" y1="45.82" x2="14.37" y2="16.21" gradientUnits="userSpaceOnUse">
      <stop offset=".1" stop-color="#5b5b5b"/>
      <stop offset=".66" stop-color="#ababab"/>
      <stop offset="1" stop-color="#5b5b5b"/>
    </linearGradient>
    <linearGradient id="linear-gradient-11" x1="21.96" y1="25.56" x2="21.96" y2="40.65" gradientUnits="userSpaceOnUse">
      <stop offset="0" stop-color="#5b5b5b"/>
      <stop offset=".51" stop-color="#ababab"/>
      <stop offset="1" stop-color="#5b5b5b"/>
    </linearGradient>
    <linearGradient id="linear-gradient-12" x1="19.36" y1="29.86" x2="23.16" y2="36.45" xlink:href="#linear-gradient-3"/>
    <clipPath id="clippath-1">
      <path class="cls-29" d="m15.69,32.89c0-7.5,2.01-13.58,4.5-13.62-.8-.24-1.94-.49-3.27-.49-2.64,0-3.29.49-4.12.97s-5.36,4.01-5.31,13.26c.04,7.47,3.66,12.05,5.72,13.03.47.13,1.79.97,3.7.97,1.23,0,2.37-.25,3.21-.5-2.46-.13-4.44-6.17-4.44-13.62Z"/>
    </clipPath>
    <radialGradient id="radial-gradient" cx="43.02" cy="22.55" fx="43.02" fy="22.55" r="11.69" gradientTransform="translate(6.41 2.15) scale(.88 .69)" gradientUnits="userSpaceOnUse">
      <stop offset="0" stop-color="#f5f6f6"/>
      <stop offset=".37" stop-color="#f1f2f2"/>
      <stop offset=".67" stop-color="#e7e8e8"/>
      <stop offset=".94" stop-color="#d6d7d7"/>
      <stop offset="1" stop-color="#d2d3d3"/>
    </radialGradient>
    <clipPath id="clippath-2">
      <rect class="cls-29" x="37" y="13" width="19" height="14"/>
    </clipPath>
    <linearGradient id="linear-gradient-13" x1="47.76" y1="22.17" x2="45.02" y2="17.42" gradientUnits="userSpaceOnUse">
      <stop offset="0" stop-color="#2a5b79"/>
      <stop offset="1" stop-color="#3388b0"/>
    </linearGradient>
    <linearGradient id="linear-gradient-14" x1="49.85" y1="45.86" x2="44.37" y2="36.36" gradientTransform="translate(-13.21 21.62) rotate(-22.51)" xlink:href="#linear-gradient-13"/>
    <linearGradient id="linear-gradient-15" x1="40.34" y1="55.06" x2="34.85" y2="45.55" xlink:href="#linear-gradient-13"/>
    <linearGradient id="linear-gradient-16" x1="32.64" y1="46.1" x2="30.83" y2="44.36" gradientUnits="userSpaceOnUse">
      <stop offset="0" stop-color="#386f8d"/>
      <stop offset="1" stop-color="#8dd7f4"/>
    </linearGradient>
    <linearGradient id="linear-gradient-17" x1="30.65" y1="49.56" x2="27.78" y2="44.59" gradientTransform="translate(-.1 .42)" xlink:href="#linear-gradient-16"/>
    <linearGradient id="linear-gradient-18" x1="39.88" y1="38.06" x2="38.07" y2="36.33" xlink:href="#linear-gradient-16"/>
    <linearGradient id="linear-gradient-19" x1="39" y1="42.52" x2="36.13" y2="37.55" gradientTransform="translate(-1.06 -.58)" xlink:href="#linear-gradient-16"/>
    <linearGradient id="linear-gradient-20" x1="26.7" y1="22.84" x2="29.52" y2="27.72" xlink:href="#linear-gradient"/>
    <linearGradient id="linear-gradient-21" x1="26.93" y1="21.98" x2="29.13" y2="25.78" xlink:href="#linear-gradient"/>
    <linearGradient id="linear-gradient-22" x1="25.77" y1="13.73" x2="30.93" y2="22.67" xlink:href="#linear-gradient-3"/>
    <linearGradient id="White_Black" data-name="White, Black" x1="29.08" y1="20.19" x2="24.87" y2="20.19" gradientUnits="userSpaceOnUse">
      <stop offset="0" stop-color="#fff"/>
      <stop offset="1" stop-color="#000"/>
    </linearGradient>
    <mask id="mask-1" x="24.05" y="12.29" width="7.99" height="15.8" maskUnits="userSpaceOnUse">
      <rect class="cls-28" x="24.05" y="12.29" width="7.99" height="15.8"/>
    </mask>
    <linearGradient id="White_Black-2" data-name="White, Black" y1="17.23" y2="17.23" xlink:href="#White_Black"/>
    <mask id="mask-2" x="24.05" y="9.33" width="7.99" height="15.8" maskUnits="userSpaceOnUse">
      <rect class="cls-35" x="24.05" y="9.33" width="7.99" height="15.8"/>
    </mask>
    <linearGradient id="White_Black-3" data-name="White, Black" x1="29.08" y1="23.22" x2="24.87" y2="23.22" xlink:href="#White_Black"/>
    <mask id="mask-3" x="24.05" y="15.32" width="7.99" height="15.8" maskUnits="userSpaceOnUse">
      <rect class="cls-27" x="24.05" y="15.32" width="7.99" height="15.8"/>
    </mask>
    <linearGradient id="White_Black-4" data-name="White, Black" y1="26.55" y2="26.55" xlink:href="#White_Black"/>
    <mask id="mask-4" x="24.05" y="18.65" width="7.99" height="15.8" maskUnits="userSpaceOnUse">
      <rect class="cls-46" x="24.05" y="18.65" width="7.99" height="15.8"/>
    </mask>
    <linearGradient id="White_Black-5" data-name="White, Black" y1="17.93" y2="17.93" xlink:href="#White_Black"/>
    <mask id="mask-5" x="24.05" y="10.3" width="7.99" height="15.26" maskUnits="userSpaceOnUse">
      <rect class="cls-36" x="24.05" y="10.3" width="7.99" height="15.26"/>
    </mask>
    <linearGradient id="linear-gradient-23" x1="30.5" y1="15.43" x2="25.9" y2="7.46" xlink:href="#linear-gradient-16"/>
    <linearGradient id="linear-gradient-24" x1="29.24" y1="12.07" x2="27.09" y2="8.34" gradientUnits="userSpaceOnUse">
      <stop offset="0" stop-color="#74c4e2"/>
      <stop offset="1" stop-color="#a4def6"/>
    </linearGradient>
  </defs>
  <g>
    <rect class="cls-44" x="38.79" y="29.63" width="8.16" height="1" transform="translate(-3.68 54.19) rotate(-62.43)"/>
    <g class="cls-25">
      <path class="cls-2" d="m44.31,26.28l.89.46-3.78,7.24-.89-.46,3.78-7.24m0-1c-.1,0-.2.02-.3.05-.25.08-.46.26-.59.49l-3.78,7.24c-.26.49-.07,1.09.42,1.35l.89.46c.14.08.3.11.46.11.1,0,.2-.02.3-.05.25-.08.46-.26.59-.49l3.78-7.24c.26-.49.07-1.09-.42-1.35l-.89-.46c-.14-.08-.3-.11-.46-.11h0Z"/>
    </g>
  </g>
  <g class="cls-32">
    <g>
      <g class="cls-40">
        <g>
          <path class="cls-19" d="m8.83,49h18c.27,0,.5.22.5.5v15c0,.28-.22.5-.5.5H8.83c-.28,0-.5-.22-.5-.5v-15c0-.28.22-.5.5-.5Z"/>
          <path class="cls-21" d="m26.83,49.5v15H8.83v-15h18m0-1H8.83c-.55,0-1,.45-1,1v15c0,.55.45,1,1,1h18c.55,0,1-.45,1-1v-15c0-.55-.45-1-1-1h0Z"/>
        </g>
      </g>
      <rect class="cls-33" x="14.33" y="51.5" width="7" height="10.5"/>
      <ellipse class="cls-45" cx="17.83" cy="46.5" rx="9.5" ry="3"/>
      <path class="cls-37" d="m8.33,46.5v3c0,1.66,4.25,3,9.5,3s9.5-1.34,9.5-3v-3H8.33Z"/>
      <path class="cls-11" d="m8.33,49.5c0,1.66,4.25,3,9.5,3s9.5-1.34,9.5-3"/>
      <path class="cls-11" d="m27.33,46.5c0,1.66-4.25,3-9.5,3s-9.5-1.34-9.5-3"/>
      <path class="cls-12" d="m17.83,43.5c-5.25,0-9.5,1.34-9.5,3v3c0,1.27,2.49,2.35,6,2.79v9.71h7v-9.71c3.51-.44,6-1.52,6-2.79v-3c0-1.66-4.25-3-9.5-3Z"/>
    </g>
  </g>
  <g>
    <path class="cls-14" d="m20.79,47l.54-27.94s-1.96-.56-3.22-.56c-2.87,0-3.84.5-4.92,1s-5.92,4-5.86,13.5c.05,7.68,3.48,12.28,6.17,13.28,1.36.51,3.64.72,4.59.72h2.69Z"/>
    <ellipse class="Medium_Grey" cx="20.66" cy="33" rx="5.5" ry="14"/>
    <ellipse class="SINGLE_White_Item" cx="21.33" cy="33" rx="4" ry="10.5"/>
    <ellipse class="cls-9" cx="21.96" cy="33" rx="2.63" ry="8"/>
    <path class="SINGLE_White_Item" d="m19.33,33.44c0,2.42.62,4.59,1.25,6.06.58-1.47.75-3.63.75-6.06s-.37-4.59-.96-6.06c-.64,1.47-1.04,3.63-1.04,6.06Z"/>
    <path class="cls-13" d="m22.52,28.5h-2.69c-.33,1.28-.5,2.83-.5,4.5s.17,3.22.5,4.5h2.69v-9Z"/>
    <ellipse class="SINGLE_White_Item" cx="22.33" cy="33" rx="2" ry="4.5"/>
    <g class="cls-23">
      <polyline class="cls-12" points="6.7 28.72 8.58 26.84 10.37 28.63 12.42 26.58 14.35 28.52 15.82 27.05"/>
      <polyline class="cls-12" points="7.7 24.72 9.58 22.84 11.37 24.63 13.42 22.58 15.35 24.52 16.98 22.89"/>
      <polyline class="cls-12" points="9.7 20.72 11.58 18.84 13.37 20.63 15.42 18.58 17.35 20.52 19.1 18.77"/>
      <polyline class="cls-12" points="6.7 32.72 8.58 30.84 10.37 32.63 12.42 30.58 14.35 32.52 15.48 31.39"/>
      <polyline class="cls-12" points="6.7 36.72 8.58 34.84 10.37 36.63 12.42 34.58 14.35 36.52 15.48 35.39"/>
      <polyline class="cls-12" points="6.7 40.72 8.58 38.84 10.37 40.63 12.42 38.58 14.35 40.52 15.48 39.39"/>
      <polyline class="cls-12" points="8.7 44.72 10.58 42.84 12.37 44.63 14.42 42.58 16.35 44.52 17.48 43.39"/>
      <polyline class="cls-12" points="10.7 48.72 12.58 46.84 14.37 48.63 16.42 46.58 18.35 48.52 19.48 47.39"/>
    </g>
  </g>
  <g>
    <rect class="cls-10" x="36.5" y="12.5" width="20" height="15"/>
    <line class="cls-16" x1="37" y1="20.57" x2="56" y2="20.61"/>
    <line class="cls-16" x1="46.5" y1="13" x2="46.5" y2="27"/>
    <g class="cls-20">
      <g>
        <path class="cls-47" d="m37,27c-.02-.1-.15-3.62,1.94-5.81,1.48-1.55,4.18-2.41,7.54-2.28,2.52.1,5.26-1.17,6.02-1.9,1.78-1.73,1.5-3.98,1.5-4h2c0-.3.44,3.64-2.02,5.47-1.64,1.23-4.15,2.53-7.48,2.53-3,0-5,.5-6,1.5-1.75,1.75-1.5,4.48-1.5,4.5h-2Z"/>
        <g class="cls-25">
          <path class="cls-2" d="m56,12.98s.34,3.73-2.02,5.49c-1.64,1.23-4.15,2.53-7.48,2.53-3,0-5,.5-6,1.5-1.75,1.75-1.5,4.48-1.5,4.5h-2c-.02-.1-.15-3.62,1.94-5.81,1.38-1.45,3.84-2.3,6.89-2.3.21,0,.43,0,.65.01.09,0,.18,0,.27,0,2.44,0,5.01-1.2,5.74-1.91,1.78-1.73,1.5-3.98,1.5-4h2s0-.02,0-.02m0-1c-.06,0-.12,0-.18.02h-1.82c-.3,0-.59.14-.78.37-.18.21-.25.49-.22.77.01.12.17,1.82-1.21,3.15-.5.49-2.82,1.63-5.05,1.63-.08,0-.16,0-.23,0-.23,0-.46-.01-.68-.01-3.31,0-6.01.93-7.62,2.61-2.33,2.44-2.29,6.28-2.2,6.71.1.46.51.8.98.8h2c.3,0,.59-.14.78-.37.17-.21.25-.47.22-.74,0-.11-.16-2.31,1.21-3.69.55-.55,1.92-1.21,5.29-1.21,2.89,0,5.69-.94,8.08-2.73,2.78-2.07,2.48-6.27,2.38-6.6-.14-.41-.52-.69-.95-.69h0Z"/>
        </g>
      </g>
    </g>
  </g>
  <g>
    <polygon class="cls-8" points="53.3 43.11 47.1 40.54 48.15 38 44.56 39.49 44.43 39.54 42.6 40.3 43.36 42.13 43.42 42.26 44.9 45.84 45.95 43.31 52.16 45.88 53.3 43.11"/>
    <g class="cls-25">
      <path class="cls-2" d="m48.15,38h0m0,0l-1.05,2.53,6.21,2.57-1.15,2.77-6.21-2.57-1.05,2.53-1.49-3.58-.05-.13-.76-1.83,1.83-.76.13-.05,3.58-1.49m0-1s-.05,0-.07,0c-.12,0-.23.04-.33.08l-3.56,1.48-.13.05-1.83.76c-.51.21-.75.8-.54,1.31l.76,1.83.05.13,1.49,3.58c.15.37.52.62.92.62h0c.4,0,.77-.24.92-.62l.67-1.61,5.28,2.19c.12.05.25.08.38.08s.26-.03.38-.08c.25-.1.44-.3.54-.54l1.15-2.77c.1-.25.1-.52,0-.77-.1-.25-.3-.44-.54-.54l-5.28-2.19.64-1.55c.07-.13.1-.28.1-.44,0-.55-.44-1-.99-1,0,0,0,0,0,0h0Zm0,2h0,0Z"/>
    </g>
  </g>
  <g>
    <polygon class="cls-6" points="43.81 54.69 39.06 49.94 41 48 37.12 48 36.98 48 35 48 35 49.98 35 50.12 35 54 36.94 52.06 41.69 56.81 43.81 54.69"/>
    <g class="cls-25">
      <path class="cls-2" d="m41,48h0m0,0l-1.94,1.94,4.75,4.75-2.12,2.12-4.75-4.75-1.94,1.94v-6h6m0-1h-6.01c-.55,0-1,.45-1,1v6c0,.4.24.77.62.92.12.05.25.08.38.08.26,0,.52-.1.71-.29l1.23-1.23,4.04,4.04c.2.2.45.29.71.29s.51-.1.71-.29l2.12-2.12c.39-.39.39-1.02,0-1.41l-4.04-4.04,1.2-1.2c.2-.18.32-.44.32-.74,0-.55-.45-1-1-1h0Zm0,2h0,0Z"/>
    </g>
  </g>
  <path class="Light_Grey" d="m27,35l12,2.5-1.75,2.62s-2.3-.62-3.36-.93-3.41.38-2.04,2.59l1.34,2.09-3.19,2.13s-2-6.81-3-7.31-2.5-.69-2.5-.69c0,0-2-.5-2-2.5s4.5-.5,4.5-.5Z"/>
  <path class="Light_Grey" d="m25.4,32.16c2.96-.59,4.07-1.53,4.07-1.53v-4.63h-2.96v3.51c-.46.08-4.54.64-5,2.49-.5,2,.5,3.5,1,3.5s4.15-.52,4.15-.52h0c.5-1.5-1.6-1.98-1.73-1.98-1.01,0-1.24-.49.48-.84Z"/>
  <path class="cls-12" d="m26.96,35s-.11-.04-.29-.09c.32-1.51-1.53-1.91-1.71-1.91-1.01,0-1.48-.57.5-.84,2.99-.41,4-1.52,4-1.52v-4.64h-2.96v3.51c-.46.08-4.58.64-5.04,2.49-.5,2,.5,3.5,1,3.5,0,2,2,2.5,2,2.5,0,0,1.5.19,2.5.69s3,7.31,3,7.31l3.19-2.13-1.34-2.09c-1.37-2.2.99-2.89,2.04-2.59,1.05.31,3.36.93,3.36.93l1.75-2.62-12-2.5Z"/>
  <g>
    <g>
      <path class="cls-26" d="m34.51,43.8c-.16-1.24-1.15-2.14-2.21-2-.49.06-.9.33-1.19.72h0s-3.07,3.08-3.07,3.08l2.58,3.44,3.13-3.13h0c.56-.46.88-1.25.77-2.11Z"/>
      <path class="cls-1" d="m30.61,49.54s-.02,0-.04,0c-.14-.01-.28-.08-.36-.2l-2.58-3.44c-.15-.2-.13-.48.05-.65l3.07-3.09s.02-.02.02-.02c.38-.47.9-.76,1.46-.84.66-.08,1.32.13,1.84.61.51.46.84,1.11.93,1.83h0c.12.96-.21,1.9-.87,2.49-.01.01-.02.03-.04.04l-3.13,3.13c-.09.09-.22.15-.35.15Zm-1.92-3.89l1.98,2.63,2.66-2.66s.06-.07.1-.1c.45-.37.67-1,.59-1.65h0c-.06-.48-.28-.91-.61-1.21-.31-.28-.68-.41-1.05-.36-.42.05-.7.32-.86.53-.03.04-.07.08-.11.11l-2.7,2.71Z"/>
    </g>
    <g>
      <ellipse class="cls-4" cx="29.12" cy="47.5" rx="1.94" ry="2.27" transform="translate(-5.76 4.05) rotate(-7.24)"/>
      <path class="cls-1" d="m29.19,50.26c-.56,0-1.11-.22-1.56-.63-.51-.46-.84-1.11-.93-1.83-.19-1.51.74-2.88,2.07-3.05,1.34-.17,2.58.92,2.77,2.44.09.72-.07,1.43-.44,2-.39.59-.97.97-1.63,1.05-.09.01-.19.02-.28.02Zm-.14-4.52s-.1,0-.15,0c-.79.1-1.33.97-1.21,1.93.06.48.28.91.61,1.21.31.28.68.41,1.05.36.37-.05.7-.26.92-.61.24-.37.35-.84.28-1.32h0c-.11-.91-.77-1.58-1.5-1.58Z"/>
    </g>
  </g>
  <g>
    <g>
      <path class="cls-7" d="m41.75,35.76c-.16-1.24-1.15-2.14-2.21-2-.49.06-.9.33-1.19.72h0s-3.07,3.08-3.07,3.08l2.58,3.44,3.13-3.13h0c.56-.46.88-1.25.77-2.11Z"/>
      <path class="cls-1" d="m37.85,41.5s-.02,0-.04,0c-.14-.01-.28-.08-.36-.2l-2.58-3.44c-.15-.2-.13-.48.04-.65l3.07-3.09s.01-.01.02-.02c.39-.47.9-.77,1.47-.84,1.33-.17,2.58.92,2.77,2.44h0c.12.96-.21,1.9-.87,2.49-.01.01-.02.03-.04.04l-3.13,3.13c-.09.09-.22.15-.35.15Zm-1.92-3.89l1.98,2.63,2.66-2.66s.06-.07.09-.1c.45-.37.68-1,.59-1.65h0c-.12-.97-.84-1.68-1.65-1.57-.41.05-.69.32-.86.53-.03.04-.07.08-.11.11l-2.71,2.72Z"/>
    </g>
    <g>
      <ellipse class="cls-43" cx="36.52" cy="39.47" rx="1.94" ry="2.27" transform="translate(-4.68 4.92) rotate(-7.24)"/>
      <path class="cls-1" d="m36.59,42.23c-.57,0-1.11-.22-1.57-.63-.51-.46-.84-1.11-.93-1.83-.09-.72.07-1.43.44-2,.39-.59.97-.97,1.63-1.05.66-.08,1.32.13,1.84.61.51.46.84,1.11.93,1.83h0c.19,1.51-.74,2.88-2.07,3.05-.09.01-.19.02-.28.02Zm-.14-4.52s-.1,0-.15,0c-.37.05-.7.26-.92.61-.25.37-.35.84-.28,1.32.06.48.28.91.61,1.21.31.28.68.41,1.05.36.79-.1,1.33-.97,1.21-1.93h0c-.06-.48-.28-.91-.61-1.21-.27-.24-.58-.37-.9-.37Z"/>
    </g>
  </g>
  <g>
    <path class="cls-15" d="m27.98,22.55c-2.49,0-4.5,2.49-4.5,1.25v2.25h.05c.25,1.12,2.14,2,4.45,2s4.2-.88,4.45-2h.05v-2c0,1.24-2.01-1.5-4.5-1.5Z"/>
    <ellipse class="cls-17" cx="27.98" cy="23.8" rx="4.5" ry="1.75"/>
  </g>
  <g>
    <path class="cls-38" d="m31.43,21.52c-.13-.47-.38-.86-.97-1.06.87-.61,1.34-1.38,1.15-2.07-.13-.44-.52-.77-1.06-.97.82-.6,1.26-1.35,1.06-2.01-.13-.45-.53-.77-1.08-.98.83-.6,1.27-1.35,1.08-2.02-.31-1.06-2.1-1.5-4.01-.98s-3.21,1.81-2.9,2.87c.13.45.53.77,1.08.98-.83.6-1.27,1.35-1.08,2.02.13.44.52.77,1.06.97-.82.6-1.26,1.35-1.06,2.01.13.47.57.81,1.16,1-.87.61-1.34,1.38-1.15,2.07.27.93,1.77,1.15,3.33,1.16,1.62-.05,3.53-.94,3.53-2.03,0-.06-.05-.69-.13-.97Z"/>
    <path class="cls-12" d="m31.47,21.47c-.13-.47-.49-.81-1.07-1.01.85-.61,1.31-1.38,1.12-2.07-.12-.44-.51-.77-1.04-.97.8-.6,1.22-1.35,1.04-2.01-.13-.45-.52-.77-1.05-.98.81-.6,1.24-1.35,1.05-2.02-.3-1.06-2.05-1.5-3.91-.98s-3.13,1.81-2.83,2.87c.13.45.52.77,1.05.98-.81.6-1.24,1.35-1.05,2.02.12.44.51.77,1.04.97-.8.6-1.22,1.35-1.04,2.01.13.47.55.81,1.14,1-.85.61-1.31,1.38-1.12,2.07.26.93,1.54,1.23,3.23,1.19,2.01-.14,3.53-1.12,3.53-2.22,0-.25-.02-.58-.1-.86Z"/>
    <g class="cls-39">
      <g class="cls-5">
        <path class="cls-41" d="m27.14,18.12c-1.02,0-1.9-.3-2.42-.85-.21-.22.45-1.33.52-1.06.19.71,1.59,1.15,3.29.66s2.68-1.63,2.48-2.33c-.07-.27.96.96.55,1.54-.55.77-1.53,1.44-2.76,1.8-.58.17-1.14.25-1.67.25Z"/>
      </g>
    </g>
    <g class="cls-18">
      <g class="cls-5">
        <path class="cls-41" d="m27.14,15.16c-1.02,0-1.9-.3-2.42-.85-.21-.22.45-1.33.52-1.06.19.71,1.59,1.15,3.29.66s2.68-1.63,2.48-2.33c-.07-.27.96.96.55,1.54-.55.77-1.53,1.44-2.76,1.8-.58.17-1.14.25-1.67.25Z"/>
      </g>
    </g>
    <g class="cls-22">
      <g class="cls-5">
        <path class="cls-41" d="m27.14,21.15c-1.02,0-1.9-.3-2.42-.85-.21-.22.45-1.33.52-1.06.19.71,1.59,1.15,3.29.66s2.68-1.63,2.48-2.33c-.07-.27.96.96.55,1.54-.55.77-1.53,1.44-2.76,1.8-.58.17-1.14.25-1.67.25Z"/>
      </g>
    </g>
    <g class="cls-30">
      <g class="cls-5">
        <path class="cls-41" d="m27.14,24.48c-1.02,0-1.9-.3-2.42-.85-.21-.22.45-1.33.52-1.06.19.71,1.59,1.15,3.29.66s2.68-1.63,2.48-2.33c-.07-.27.96.96.55,1.54-.55.77-1.53,1.44-2.76,1.8-.58.17-1.14.25-1.67.25Z"/>
      </g>
    </g>
    <g class="cls-24">
      <g>
        <path class="cls-41" d="m27.14,21.92c-1.44,0-2.58-.58-2.86-1.57-.07-.27.08-.54.35-.62.27-.07.54.08.62.35.19.68,1.59,1.11,3.29.63.81-.23,1.54-.63,2-1.1.4-.4.57-.82.48-1.15-.07-.27.08-.54.35-.62.27-.07.54.08.62.35.19.69-.06,1.45-.73,2.12-.59.6-1.46,1.09-2.45,1.36-.58.16-1.14.24-1.67.24Z"/>
        <path class="cls-41" d="m27.14,18.93c-1.44,0-2.58-.58-2.86-1.57-.07-.27.08-.54.35-.62.27-.07.54.08.62.35.19.68,1.59,1.11,3.29.63s2.68-1.57,2.48-2.25c-.07-.27.08-.54.35-.62.27-.07.54.08.62.35.38,1.35-1.02,2.88-3.18,3.49-.58.16-1.14.24-1.67.24Z"/>
        <path class="cls-41" d="m27.14,15.93c-1.44,0-2.58-.58-2.86-1.57-.07-.27.08-.54.35-.62.27-.07.54.08.62.35.19.68,1.59,1.11,3.29.63s2.68-1.57,2.48-2.25c-.07-.27.08-.54.35-.62.27-.07.54.08.62.35.38,1.35-1.02,2.88-3.18,3.49-.58.16-1.14.24-1.67.24Z"/>
      </g>
    </g>
  </g>
  <g>
    <g>
      <path class="cls-42" d="m28.07,10.05s-4.41,1.38-4.41,0v2.28h.05c.25,1.25,2.09,2.22,4.36,2.22s4.12-.97,4.36-2.22h.05v-2.28c0,1.38-4.41,0-4.41,0Z"/>
      <path class="cls-1" d="m28.07,15.05c-2.41,0-4.38-1.01-4.81-2.44-.07-.08-.11-.18-.11-.29v-2.28c0-.28.22-.5.5-.5s.5.22.5.5c.25.28,2.09.05,3.76-.48.1-.03.2-.03.3,0,1.66.52,3.48.75,3.76.48h0c0-.24.17-.44.39-.49.29-.07.61.17.61.49h0v2.28c0,.12-.04.23-.12.32-.45,1.4-2.41,2.4-4.8,2.4Zm-3.91-2.93s.03.07.04.11c.18.89,1.67,1.82,3.87,1.82s3.7-.92,3.87-1.82c0-.04.02-.08.04-.12v-1.01c-1.16.24-3.09-.28-3.91-.53-.82.25-2.75.77-3.91.53v1.02Z"/>
    </g>
    <g>
      <ellipse class="cls-34" cx="28.07" cy="10.05" rx="4.41" ry="1.5"/>
      <path class="cls-1" d="m28.07,12.05c-2.37,0-4.91-.63-4.91-2s2.55-2,4.91-2,4.91.63,4.91,2-2.55,2-4.91,2Zm0-3c-2.57,0-3.91.74-3.91,1s1.35,1,3.91,1,3.91-.74,3.91-1-1.35-1-3.91-1Z"/>
    </g>
  </g>
  <path class="cls-3" d="m27.98,7.55c-.83,0-1.5.67-1.5,1.5v1.5h3v-1.5c0-.83-.67-1.5-1.5-1.5Z"/>
</svg>