<?xml version="1.0" encoding="UTF-8"?><svg id="FINAL_ART" xmlns="http://www.w3.org/2000/svg" xmlns:xlink="http://www.w3.org/1999/xlink" viewBox="0 0 64 64"><defs><linearGradient id="linear-gradient" x1="39.83" y1="24.27" x2="46.92" y2="36.56" gradientUnits="userSpaceOnUse"><stop offset="0" stop-color="#fae86a"/><stop offset="1" stop-color="#f1cf30"/></linearGradient></defs><path d="m13.95,11.84l16.23-4.47c1.2-.33,1.82-.04,2.35.08s15.7,4.31,15.7,4.31l.06,2.18-17.08,7.4-17.41-6.23.15-3.26Z" fill="#eb2629"/><path d="m13.51,12.54v21.2s17.49,7.26,17.49,7.26v-22.86s.12-.73-.8-1.08c0,0-15.34-4.96-15.92-5.14-.32-.07-.74.63-.77.62Z" fill="#b82025"/><path d="m48.51,12.28v21.08s-17.49,7.57-17.49,7.57v-22.74s-.09-.85.8-1.2c0,0,15.55-5.01,16.13-5.2.62-.21.56.48.56.48Z" fill="#530303"/><path d="m44.29,32.77l-2.15.83-1.73-11.08h-.03s-1.96,12.49-1.96,12.49l-2.27.87-2.43-16.36,2.34-.8,1.51,10.78h.03s1.53-11.69,1.53-11.69l2.35-.83,1.73,10.72h.03s1.1-11.69,1.1-11.69l2.42-.9-2.48,17.67Z" fill="#fff"/><path d="m19.23,28.09c0,2.21,1.43,3.24,2.96,3.69,1,.3,2.51.38,2.51-1.3,0-1.78-1.94-2.67-3.85-3.9-1.93-1.24-3.89-2.79-3.91-5.93-.01-3.42,2.51-4.28,4.86-3.55,2.71.84,5.19,3.13,5.19,6.96l-2.75-.84c-.09-2.03-1.2-2.88-2.57-3.31-.91-.28-1.97-.12-1.96,1.28,0,1.28.62,1.64,3.88,3.7.94.59,3.83,2.23,3.83,5.98,0,3.02-1.85,4.72-5.35,3.68-2.87-.85-5.57-3.46-5.55-7.55l2.7,1.07Z" fill="#fff"/><path d="m31.24,40.5c-.11,0-.21-.02-.28-.05l-16.68-6.48s-.78-.27-.78-1.07V12.94s.02-.94,1.05-1.14l15.63-4.13s.74-.2,1.55-.2c.32,0,.62.03.87.09l15.05,4.08c.06.01.79.23.84.94v18.54c0,.07.06,2.26-1.19,2.77l-15.12,6.33s-.52.27-.97.27h0Z" fill="none" stroke="#370101" stroke-linecap="round" stroke-linejoin="round"/><path d="m34,42.5c-.2,0-.38-.12-.46-.31s-.03-.4.11-.54l4.15-4.15h-1.79c-.2,0-.38-.12-.46-.31s-.03-.4.11-.54l6.15-6.15h-3.79c-.2,0-.38-.12-.46-.3-.08-.18-.04-.4.1-.54l8.5-9c.09-.1.23-.16.36-.16h7.5c.21,0,.39.13.46.32.08.19.03.41-.12.55l-6.57,6.13h3.23c.21,0,.4.13.47.33s0,.42-.15.55l-7.42,6.11h2.11c.22,0,.41.14.47.34s0,.43-.18.56l-9.5,7c-.09.06-.19.1-.3.1h-2.5Z" fill="url(#linear-gradient)"/><path d="m54,21h0m0,0l-7.5,7h4.5l-8.5,7h3.5l-9.5,7h-2.5l5-5h-3l7-7h-5l8.5-9h7.5m0-1h-7.51c-.28,0-.54.11-.73.31l-8.5,9c-.27.29-.35.72-.19,1.08s.52.6.92.6h2.59l-5.29,5.29c-.29.29-.37.72-.22,1.09.15.37.52.62.92.62h.59l-3.29,3.29c-.29.29-.37.72-.22,1.09.15.37.52.62.92.62h2.5c.21,0,.42-.07.59-.19l9.5-7c.35-.26.49-.71.36-1.12-.13-.41-.52-.69-.95-.69h-.71l6.35-5.23c.33-.27.45-.71.31-1.11-.14-.4-.52-.66-.94-.66h-1.96l5.62-5.24c.21-.18.35-.45.35-.76,0-.55-.45-1-1-1h0Zm0,2h0,0Z" fill="#361402"/><path d="m29.97,44v1.71l-3.82,3.53h.14c2.06,0,4.02,1.04,4.02,3.55,0,3.04-2.14,4.21-5.29,4.21-1.58,0-2.91-.21-4.02-.48l.22-1.92c1.07.27,2.32.48,3.55.48,1.7,0,2.53-.43,2.53-2.08,0-1.4-.76-2-2.5-2h-1.5v-1.5l3.5-3.5h-5.5s0-2,0-2h8.66Z"/><path d="m36.47,44c3.51,0,5.53,1.9,5.53,6.22,0,4.01-1.31,6.78-5.99,6.78-1.18,0-2.49-.15-3.95-.48v-12.52h4.4Zm-1.89,10.97c.49.08,1,.11,1.51.11,2.46,0,3.31-1.57,3.31-4.82s-1.06-4.36-2.93-4.36h-1.89v9.07Z"/></svg>