<?xml version="1.0" encoding="UTF-8"?><svg id="Final_Art" xmlns="http://www.w3.org/2000/svg" viewBox="0 0 64 64"><line x1="38.5" y1="14.5" x2="24.5" y2="14.5" fill="none" stroke="#82bcda" stroke-linecap="round" stroke-linejoin="round"/><line x1="50.5" y1="26.5" x2="50.5" y2="36.46" fill="none" stroke="#82bcda" stroke-linecap="round" stroke-linejoin="round"/><line x1="42.5" y1="37.46" x2="42.5" y2="22.46" fill="none" stroke="#82bcda" stroke-linecap="round" stroke-linejoin="round"/><line x1="37.5" y1="24.5" x2="37.5" y2="34.5" fill="none" stroke="#82bcda" stroke-linecap="round" stroke-linejoin="round"/><line x1="37.5" y1="27.5" x2="25" y2="27.5" fill="none" stroke="#82bcda" stroke-linecap="round" stroke-linejoin="round"/><line x1="42.5" y1="22.5" x2="24.5" y2="22.5" fill="none" stroke="#82bcda" stroke-linecap="round" stroke-linejoin="round"/><polyline points="13.5 33.76 17.5 35.54 17.5 41.86 22.5 44.45 22.5 49.5" fill="none" stroke="#787878" stroke-linecap="round" stroke-linejoin="round"/><line x1="17.56" y1="41.68" x2="24.54" y2="38.64" fill="none" stroke="#787878" stroke-linecap="round" stroke-linejoin="round"/><line x1="22.52" y1="44.48" x2="29.5" y2="41.06" fill="none" stroke="#787878" stroke-linecap="round" stroke-linejoin="round"/><line x1="24.5" y1="33" x2="17.63" y2="35.58" fill="none" stroke="#787878" stroke-linecap="round" stroke-linejoin="round"/><polyline points="13.5 33.76 20 31.46 24.5 33 24.5 38.96 29.5 41 29.5 45.71 22.5 49.5 22.49 49.5 13.5 44.56 13.5 33.76" fill="none" stroke="#333332" stroke-linecap="round" stroke-linejoin="round"/><polyline points="13.5 23.5 13.5 14.5 25.5 14.5 25.5 23.5" fill="none" stroke="#333332" stroke-linecap="round" stroke-linejoin="round"/><rect x="13.5" y="22.54" width="12" height="5" fill="none" stroke="#333332" stroke-linecap="round" stroke-linejoin="round"/><polygon points="42.5 22.5 42.5 14.5 37.5 14.5 37.5 27.5 50.5 27.5 50.5 22.5 42.5 22.5" fill="none" stroke="#333332" stroke-linecap="round" stroke-linejoin="round"/><rect x="37.5" y="32.5" width="13" height="12" fill="none" stroke="#333332" stroke-linecap="round" stroke-linejoin="round"/><line x1="42.5" y1="32.5" x2="42.5" y2="44.5" fill="none" stroke="#333332" stroke-linecap="round" stroke-linejoin="round"/><rect x="37.5" y="48.5" width="18" height="5" fill="#d2d2d2" stroke-width="0"/><rect x="8.5" y="10.5" width="47" height="43" fill="none" stroke="#323232" stroke-linecap="round" stroke-linejoin="round"/><polyline points="55.5 48.5 37.5 48.5 37.5 53.5" fill="none" stroke="#323232" stroke-linecap="round" stroke-linejoin="round"/></svg>