<?xml version="1.0" encoding="UTF-8"?>
<svg id="c" data-name="IT 1" xmlns="http://www.w3.org/2000/svg" xmlns:xlink="http://www.w3.org/1999/xlink" viewBox="0 0 64 64">
  <defs>
    <linearGradient id="a" x1="34.61" y1="25.6" x2="37.52" y2="30.64" gradientUnits="userSpaceOnUse">
      <stop offset="0" stop-color="#f5f6f6"/>
      <stop offset=".99" stop-color="#d2d3d3"/>
    </linearGradient>
    <linearGradient id="d" x1="16" y1="38.5" x2="53" y2="38.5" gradientUnits="userSpaceOnUse">
      <stop offset="0" stop-color="#464646"/>
      <stop offset="1" stop-color="#141414"/>
    </linearGradient>
    <linearGradient id="e" x1="42.57" y1="44.56" x2="32.58" y2="27.24" gradientUnits="userSpaceOnUse">
      <stop offset="0" stop-color="#2a5b79"/>
      <stop offset="1" stop-color="#3388b0"/>
    </linearGradient>
    <linearGradient id="f" data-name="Dégradé sans nom 5" x1="14.98" y1="58.07" x2="22.46" y2="45.11" gradientTransform="translate(0 66) scale(1 -1)" gradientUnits="userSpaceOnUse">
      <stop offset="0" stop-color="#fff"/>
      <stop offset="1" stop-color="#d2d2d2"/>
    </linearGradient>
    <linearGradient id="g" data-name="Dégradé sans nom 2" x1="12.49" y1="52.75" x2="24.51" y2="52.75" gradientTransform="translate(0 66) scale(1 -1)" gradientUnits="userSpaceOnUse">
      <stop offset="0" stop-color="#464646"/>
      <stop offset="1" stop-color="#141414"/>
    </linearGradient>
    <linearGradient id="h" data-name="Dégradé sans nom 3" x1="18.5" y1="54.46" x2="18.5" y2="60.5" gradientTransform="translate(0 66) scale(1 -1)" gradientUnits="userSpaceOnUse">
      <stop offset="0" stop-color="#464646" stop-opacity="0"/>
      <stop offset="1" stop-color="#141414"/>
    </linearGradient>
  </defs>
  <g>
    <path d="M52,56H18.34c-.74,0-1.34-.6-1.34-1.34V21" fill="none" opacity=".5" stroke="#fff" stroke-linecap="round" stroke-linejoin="round" stroke-width="4"/>
    <path d="M52,56H18.34c-.74,0-1.34-.6-1.34-1.34V21" fill="none" stroke="url(#d)" stroke-linecap="round" stroke-miterlimit="10" stroke-width="2"/>
  </g>
  <g>
    <polyline points="23.5 47.5 36 27 44 42 53.5 27.5" fill="none" stroke="url(#e)" stroke-linecap="round" stroke-linejoin="round" stroke-width="3"/>
    <circle cx="36" cy="28" r="3.5" fill="url(#a)" stroke="#333332" stroke-linecap="round" stroke-linejoin="round"/>
    <circle cx="44" cy="41" r="3.5" fill="url(#a)" stroke="#333332" stroke-linecap="round" stroke-linejoin="round"/>
    <circle cx="53" cy="28" r="3.5" fill="url(#a)" stroke="#333332" stroke-linecap="round" stroke-linejoin="round"/>
    <circle cx="24" cy="47" r="3.5" fill="url(#a)" stroke="#333332" stroke-linecap="round" stroke-linejoin="round"/>
  </g>
  <g>
    <path d="M18.5,21.5c-7.53,0-11-7.5-11-7.5,0,0,4.63-6.5,11-6.5s11,6.5,11,6.5c0,0-3.47,7.5-11,7.5Z" fill="#fff" opacity=".75" stroke="#fff" stroke-linejoin="round" stroke-width="3"/>
    <path d="M18.5,21.5c-7.53,0-11-7.5-11-7.5,0,0,4.63-6.5,11-6.5s11,6.5,11,6.5c0,0-3.47,7.5-11,7.5Z" fill="url(#f)" stroke="#787878" stroke-linejoin="round"/>
    <path d="M22.15,8.18c-1.13-.41-2.35-.68-3.65-.68s-2.52.27-3.65.68c-1.42,1.1-2.35,2.82-2.35,4.77,0,3.34,2.69,6.05,6.01,6.05s6.01-2.71,6.01-6.05c0-1.95-.94-3.67-2.35-4.77Z" fill="url(#g)" stroke-width="0"/>
    <path d="M21.31,9.92c-1.15-1.14-3.97-.69-3.97.49s1.41.26,2.33,1.18c.9.92,0,2.35,1.16,2.35s1.63-2.86.49-4h0Z" fill="#fff" stroke-width="0"/>
    <path d="M7.5,14s4.63-6.5,11-6.5,11,6.5,11,6.5c0,0-5.79-3-11-3s-11,3-11,3Z" fill="url(#h)" stroke-width="0"/>
    <path d="M18.5,21.5c-7.53,0-11-7.5-11-7.5,0,0,4.67-6.5,11-6.5s11,6.5,11,6.5c0,0-3.47,7.5-11,7.5Z" fill="none" stroke="#323232" stroke-linejoin="round"/>
  </g>
</svg>