<?xml version="1.0" encoding="UTF-8"?>
<svg xmlns="http://www.w3.org/2000/svg" xmlns:xlink="http://www.w3.org/1999/xlink" viewBox="0 0 64 64">
  <defs>
    <style>
      .cls-1 {
        fill: none;
        stroke: #000;
        stroke-miterlimit: 10;
        stroke-width: 1.02px;
      }

      .cls-2 {
        fill: #fff;
      }

      .cls-2, .cls-3, .cls-4 {
        stroke-width: 0px;
      }

      .cls-3 {
        fill: url(#linear-gradient-2);
        isolation: isolate;
      }

      .cls-3, .cls-5 {
        opacity: .3;
      }

      .cls-4 {
        fill: #82bcda;
      }

      .cls-6 {
        fill: url(#linear-gradient);
        stroke: #323232;
        stroke-linejoin: round;
      }
    </style>
    <linearGradient id="linear-gradient" x1="18.57" y1="56.52" x2="36.48" y2="25.53" gradientTransform="translate(0 66) scale(1 -1)" gradientUnits="userSpaceOnUse">
      <stop offset="0" stop-color="#fff"/>
      <stop offset="1" stop-color="#d4d5d3"/>
    </linearGradient>
    <linearGradient id="linear-gradient-2" x1="27.52" y1="33.19" x2="27.52" y2="47.64" gradientTransform="translate(0 66) scale(1 -1)" gradientUnits="userSpaceOnUse">
      <stop offset="0" stop-color="#fff"/>
      <stop offset="1" stop-color="#000"/>
    </linearGradient>
  </defs>
  <g id="Layer_32_copy_2" data-name="Layer 32 copy 2">
    <g>
      <path class="cls-6" d="m39.82,31.63c0,.47.08.92.25,1.36s.44.85.81,1.21l1.25,1.25c-1.16,1.61-2.53,3.01-4.15,4.15l-1.25-1.25c-.36-.38-.77-.64-1.2-.81s-.89-.25-1.36-.25-.95.08-1.39.25-.83.42-1.17.75-.63.72-.83,1.17-.31.95-.31,1.49v1.77c-.49.08-2.46.27-2.94.27s-2.46-.19-2.94-.27v-1.77c0-.53-.11-1.03-.31-1.49s-.49-.85-.83-1.17-.74-.58-1.19-.75c-.45-.17-.91-.25-1.38-.25s-.92.08-1.36.25-.84.44-1.2.81l-1.25,1.25c-1.61-1.16-3-2.54-4.15-4.15l1.25-1.25c.36-.38.64-.77.81-1.21s.25-.89.25-1.36-.09-.92-.25-1.38-.42-.85-.75-1.19c-.33-.34-.72-.61-1.17-.83-.45-.2-.95-.31-1.49-.31h-1.77c-.08-.49-.14-.99-.19-1.47-.05-.49-.06-2.46,0-2.94.05-.49.11-.99.19-1.47h1.77c.53,0,1.03-.11,1.49-.31s.84-.49,1.17-.83c.33-.34.58-.74.75-1.17s.25-.91.25-1.39-.09-.92-.25-1.36-.44-.85-.81-1.21l-1.25-1.25c1.16-1.61,2.53-3.01,4.15-4.15l1.25,1.25c.36.38.77.64,1.2.81s.89.25,1.36.25.92-.08,1.38-.25.84-.42,1.19-.75.61-.72.83-1.16c.2-.44.31-.94.31-1.5v-1.77c.49-.08.99-.14,1.47-.19.49-.05.99-.08,1.47-.08s.99.03,1.47.08c.49.05.99.11,1.47.19v1.77c0,.56.11,1.08.31,1.52.2.45.49.85.83,1.16.34.31.74.56,1.17.74s.91.25,1.39.25c.44,0,.89-.08,1.35-.23.45-.16.86-.42,1.24-.78l1.25-1.28c1.61,1.16,3,2.54,4.15,4.15l-1.25,1.25c-.36.38-.64.77-.81,1.21s-.25.89-.25,1.36.08.95.25,1.39.42.83.75,1.17.72.61,1.16.83c.44.2.94.31,1.5.31h1.77c.08.49.14.99.19,1.47.05.49.08.99.08,1.47s-.03.99-.08,1.47c-.05.49-.11.99-.19,1.47h-1.77c-.56,0-1.06.11-1.5.31s-.83.49-1.16.83c-.33.34-.58.74-.75,1.19-.17.45-.25.91-.25,1.38l-.02-.02Zm-12.3-1.17c.75,0,1.46-.14,2.13-.44s1.25-.69,1.74-1.17.89-1.08,1.17-1.74c.28-.67.44-1.38.44-2.13s-.14-1.46-.44-2.13-.69-1.25-1.17-1.74-1.08-.89-1.74-1.17-1.38-.44-2.13-.44-1.46.14-2.13.44-1.25.69-1.74,1.17-.89,1.08-1.17,1.74c-.28.67-.44,1.38-.44,2.13s.14,1.46.44,2.13.69,1.25,1.17,1.74,1.08.89,1.74,1.17c.67.3,1.38.44,2.13.44Z"/>
      <g class="cls-5">
        <path class="cls-2" d="m39.35,20c-.11-.28-.19-.58-.23-.88-.05.25-.08.52-.08.77,0,.59.11,1.16.31,1.67.2.53.52,1.02.92,1.44.39.41.86.74,1.39.99.55.25,1.16.39,1.85.39h1.08c.03.25.06.52.09.77.02.2.02.41.03.61,0-.27.03-.52.03-.78,0-.47-.02-.92-.06-1.39-.03-.25-.06-.52-.09-.77h-1.08c-.67,0-1.3-.13-1.85-.39-.53-.25-.99-.58-1.39-.99-.41-.42-.72-.91-.92-1.44Z"/>
        <path class="cls-2" d="m16.98,12.96l.77.77c.44.45.94.78,1.49.99,1.06.41,2.22.41,3.3,0,.55-.2,1.05-.52,1.47-.92.41-.39.74-.86.99-1.38.27-.55.39-1.17.39-1.85v-1.08c.25-.03.52-.06.77-.08.92-.09,1.85-.09,2.78,0,.25.02.5.05.77.08v1.08c0,.67.13,1.3.39,1.85.25.55.59,1.02,1,1.41.42.39.89.69,1.42.89,1,.39,2.16.42,3.29.03.56-.2,1.08-.52,1.53-.99l.77-.8c.84.66,1.6,1.41,2.3,2.21l.74-.74c-.88-1.14-1.89-2.16-3.04-3.04l-.77.8c-.45.45-.97.78-1.53.99-1.11.39-2.27.36-3.29-.03-.53-.2-1-.5-1.42-.89-.41-.38-.75-.85-1-1.41-.25-.55-.39-1.17-.39-1.85v-1.08c-.25-.03-.5-.06-.77-.08-.94-.09-1.86-.09-2.78,0-.27.03-.52.05-.77.08v1.08c0,.67-.13,1.3-.39,1.85-.25.52-.58.99-.99,1.38-.42.41-.91.72-1.47.92-1.06.41-2.24.41-3.3,0-.53-.2-1.03-.53-1.49-.99l-.77-.77c-1.14.88-2.16,1.91-3.05,3.05l.74.74c.7-.8,1.47-1.55,2.32-2.21v-.02Z"/>
        <path class="cls-2" d="m39.35,33.27c-.11-.28-.19-.56-.23-.86-.05.27-.08.52-.08.78,0,.56.11,1.11.31,1.64s.53,1.03.99,1.49l.03.03c.25-.28.5-.53.74-.83l-.77-.77c-.45-.45-.78-.94-.99-1.49Z"/>
        <path class="cls-2" d="m15.69,34.84c.2-.53.31-1.08.31-1.64,0-.27-.03-.53-.08-.78-.05.3-.13.58-.23.86-.2.55-.53,1.03-.99,1.49l-.77.77c.22.3.49.56.74.83l.05-.05c.44-.44.77-.94.99-1.49l-.02.02Z"/>
        <path class="cls-2" d="m10.37,25.15c.03-.25.06-.52.09-.77h1.08c.64,0,1.25-.13,1.81-.39.55-.25,1.02-.58,1.41-.99.41-.42.7-.91.92-1.44.2-.53.31-1.1.31-1.67,0-.27-.03-.52-.08-.77-.05.3-.13.59-.23.88-.2.53-.52,1.02-.92,1.44-.39.41-.88.75-1.41.99-.56.25-1.17.39-1.81.39h-1.08c-.03.25-.06.52-.09.77-.05.47-.06.92-.06,1.39,0,.27.03.52.03.78,0-.2,0-.41.03-.61Z"/>
      </g>
      <path class="cls-3" d="m27.52,17.15c-4.32,0-7.82,3.51-7.82,7.83s3.5,7.83,7.82,7.83,7.82-3.51,7.82-7.83-3.5-7.83-7.82-7.83Zm0,14.09c-3.46,0-6.26-2.8-6.26-6.26s2.8-6.26,6.26-6.26,6.26,2.8,6.26,6.26-2.8,6.26-6.26,6.26Z"/>
    </g>
    <g>
      <path class="cls-6" d="m39.82,31.63c0,.47.08.92.25,1.36s.44.85.81,1.21l1.25,1.25c-1.16,1.61-2.53,3.01-4.15,4.15l-1.25-1.25c-.36-.38-.77-.64-1.2-.81s-.89-.25-1.36-.25-.95.08-1.39.25-.83.42-1.17.75-.63.72-.83,1.17-.31.95-.31,1.49v1.77c-.49.08-2.46.27-2.94.27s-2.46-.19-2.94-.27v-1.77c0-.53-.11-1.03-.31-1.49s-.49-.85-.83-1.17-.74-.58-1.19-.75c-.45-.17-.91-.25-1.38-.25s-.92.08-1.36.25-.84.44-1.2.81l-1.25,1.25c-1.61-1.16-3-2.54-4.15-4.15l1.25-1.25c.36-.38.64-.77.81-1.21s.25-.89.25-1.36-.09-.92-.25-1.38-.42-.85-.75-1.19c-.33-.34-.72-.61-1.17-.83-.45-.2-.95-.31-1.49-.31h-1.77c-.08-.49-.14-.99-.19-1.47-.05-.49-.06-2.46,0-2.94.05-.49.11-.99.19-1.47h1.77c.53,0,1.03-.11,1.49-.31s.84-.49,1.17-.83c.33-.34.58-.74.75-1.17s.25-.91.25-1.39-.09-.92-.25-1.36-.44-.85-.81-1.21l-1.25-1.25c1.16-1.61,2.53-3.01,4.15-4.15l1.25,1.25c.36.38.77.64,1.2.81s.89.25,1.36.25.92-.08,1.38-.25.84-.42,1.19-.75.61-.72.83-1.16c.2-.44.31-.94.31-1.5v-1.77c.49-.08.99-.14,1.47-.19.49-.05.99-.08,1.47-.08s.99.03,1.47.08c.49.05.99.11,1.47.19v1.77c0,.56.11,1.08.31,1.52.2.45.49.85.83,1.16.34.31.74.56,1.17.74s.91.25,1.39.25c.44,0,.89-.08,1.35-.23.45-.16.86-.42,1.24-.78l1.25-1.28c1.61,1.16,3,2.54,4.15,4.15l-1.25,1.25c-.36.38-.64.77-.81,1.21s-.25.89-.25,1.36.08.95.25,1.39.42.83.75,1.17.72.61,1.16.83c.44.2.94.31,1.5.31h1.77c.08.49.14.99.19,1.47.05.49.08.99.08,1.47s-.03.99-.08,1.47c-.05.49-.11.99-.19,1.47h-1.77c-.56,0-1.06.11-1.5.31s-.83.49-1.16.83c-.33.34-.58.74-.75,1.19-.17.45-.25.91-.25,1.38l-.02-.02Zm-12.3-1.17c.75,0,1.46-.14,2.13-.44s1.25-.69,1.74-1.17.89-1.08,1.17-1.74c.28-.67.44-1.38.44-2.13s-.14-1.46-.44-2.13-.69-1.25-1.17-1.74-1.08-.89-1.74-1.17-1.38-.44-2.13-.44-1.46.14-2.13.44-1.25.69-1.74,1.17-.89,1.08-1.17,1.74c-.28.67-.44,1.38-.44,2.13s.14,1.46.44,2.13.69,1.25,1.17,1.74,1.08.89,1.74,1.17c.67.3,1.38.44,2.13.44Z"/>
      <g class="cls-5">
        <path class="cls-2" d="m39.35,20c-.11-.28-.19-.58-.23-.88-.05.25-.08.52-.08.77,0,.59.11,1.16.31,1.67.2.53.52,1.02.92,1.44.39.41.86.74,1.39.99.55.25,1.16.39,1.85.39h1.08c.03.25.06.52.09.77.02.2.02.41.03.61,0-.27.03-.52.03-.78,0-.47-.02-.92-.06-1.39-.03-.25-.06-.52-.09-.77h-1.08c-.67,0-1.3-.13-1.85-.39-.53-.25-.99-.58-1.39-.99-.41-.42-.72-.91-.92-1.44Z"/>
        <path class="cls-2" d="m16.98,12.96l.77.77c.44.45.94.78,1.49.99,1.06.41,2.22.41,3.3,0,.55-.2,1.05-.52,1.47-.92.41-.39.74-.86.99-1.38.27-.55.39-1.17.39-1.85v-1.08c.25-.03.52-.06.77-.08.92-.09,1.85-.09,2.78,0,.25.02.5.05.77.08v1.08c0,.67.13,1.3.39,1.85.25.55.59,1.02,1,1.41.42.39.89.69,1.42.89,1,.39,2.16.42,3.29.03.56-.2,1.08-.52,1.53-.99l.77-.8c.84.66,1.6,1.41,2.3,2.21l.74-.74c-.88-1.14-1.89-2.16-3.04-3.04l-.77.8c-.45.45-.97.78-1.53.99-1.11.39-2.27.36-3.29-.03-.53-.2-1-.5-1.42-.89-.41-.38-.75-.85-1-1.41-.25-.55-.39-1.17-.39-1.85v-1.08c-.25-.03-.5-.06-.77-.08-.94-.09-1.86-.09-2.78,0-.27.03-.52.05-.77.08v1.08c0,.67-.13,1.3-.39,1.85-.25.52-.58.99-.99,1.38-.42.41-.91.72-1.47.92-1.06.41-2.24.41-3.3,0-.53-.2-1.03-.53-1.49-.99l-.77-.77c-1.14.88-2.16,1.91-3.05,3.05l.74.74c.7-.8,1.47-1.55,2.32-2.21v-.02Z"/>
        <path class="cls-2" d="m39.35,33.27c-.11-.28-.19-.56-.23-.86-.05.27-.08.52-.08.78,0,.56.11,1.11.31,1.64s.53,1.03.99,1.49l.03.03c.25-.28.5-.53.74-.83l-.77-.77c-.45-.45-.78-.94-.99-1.49Z"/>
        <path class="cls-2" d="m15.69,34.84c.2-.53.31-1.08.31-1.64,0-.27-.03-.53-.08-.78-.05.3-.13.58-.23.86-.2.55-.53,1.03-.99,1.49l-.77.77c.22.3.49.56.74.83l.05-.05c.44-.44.77-.94.99-1.49l-.02.02Z"/>
        <path class="cls-2" d="m10.37,25.15c.03-.25.06-.52.09-.77h1.08c.64,0,1.25-.13,1.81-.39.55-.25,1.02-.58,1.41-.99.41-.42.7-.91.92-1.44.2-.53.31-1.1.31-1.67,0-.27-.03-.52-.08-.77-.05.3-.13.59-.23.88-.2.53-.52,1.02-.92,1.44-.39.41-.88.75-1.41.99-.56.25-1.17.39-1.81.39h-1.08c-.03.25-.06.52-.09.77-.05.47-.06.92-.06,1.39,0,.27.03.52.03.78,0-.2,0-.41.03-.61Z"/>
      </g>
      <path class="cls-3" d="m27.52,17.15c-4.32,0-7.82,3.51-7.82,7.83s3.5,7.83,7.82,7.83,7.82-3.51,7.82-7.83-3.5-7.83-7.82-7.83Zm0,14.09c-3.46,0-6.26-2.8-6.26-6.26s2.8-6.26,6.26-6.26,6.26,2.8,6.26,6.26-2.8,6.26-6.26,6.26Z"/>
    </g>
  </g>
  <g id="Layer_42" data-name="Layer 42">
    <polyline id="Activate" class="cls-1" points="35.5 48.5 44.03 56.97 57.5 43.5"/>
    <polygon id="DeActivate" class="cls-4" points="44 48 39 43 36 46 44 54 57 41 54 38 44 48"/>
  </g>
  <g id="Layer_42_copy" data-name="Layer 42 copy">
    <polyline id="Activate-2" data-name="Activate" class="cls-1" points="35.5 48.5 44.03 56.97 57.5 43.5"/>
    <polygon id="DeActivate-2" data-name="DeActivate" class="cls-4" points="44 48 39 43 36 46 44 54 57 41 54 38 44 48"/>
  </g>
</svg>