<?xml version="1.0" encoding="UTF-8"?>
<svg id="CreativePortfolio" xmlns="http://www.w3.org/2000/svg" xmlns:xlink="http://www.w3.org/1999/xlink" viewBox="0 0 64 64">
  <defs>
    <linearGradient id="linear-gradient" x1="29.77" y1="18.64" x2="40.71" y2="37.58" gradientUnits="userSpaceOnUse">
      <stop offset="0" stop-color="#aaa"/>
      <stop offset="1" stop-color="#5a5a5a"/>
    </linearGradient>
    <linearGradient id="linear-gradient-2" x1="12.77" y1="2.83" x2="28.18" y2="29.51" gradientTransform="translate(-2.71 42.39) rotate(-57.05)" gradientUnits="userSpaceOnUse">
      <stop offset="0" stop-color="#fff"/>
      <stop offset="1" stop-color="#f0f0f0"/>
    </linearGradient>
    <linearGradient id="linear-gradient-3" x1="19.82" y1="20.56" x2="37.31" y2="50.85" xlink:href="#linear-gradient"/>
    <linearGradient id="Dégradé_sans_nom_2" data-name="Dégradé sans nom 2" x1="18.92" y1="18.47" x2="36.92" y2="49.65" gradientUnits="userSpaceOnUse">
      <stop offset=".31" stop-color="#d7d7d7"/>
      <stop offset=".51" stop-color="#d3d3d3"/>
      <stop offset=".67" stop-color="#c9c9c9"/>
      <stop offset=".81" stop-color="#b8b8b8"/>
      <stop offset=".95" stop-color="#a1a1a1"/>
      <stop offset="1" stop-color="#969696"/>
    </linearGradient>
    <linearGradient id="linear-gradient-4" x1="21.29" y1="20.36" x2="35.8" y2="45.51" gradientUnits="userSpaceOnUse">
      <stop offset="0" stop-color="#fff"/>
      <stop offset="1" stop-color="#d2d2d2"/>
    </linearGradient>
    <linearGradient id="linear-gradient-5" x1="33.25" y1="16.29" x2="19.26" y2="37.02" gradientUnits="userSpaceOnUse">
      <stop offset="0" stop-color="#fff"/>
      <stop offset="1" stop-color="#fff" stop-opacity="0"/>
    </linearGradient>
    <linearGradient id="linear-gradient-6" x1="28.37" y1="5.69" x2="46.63" y2="37.31" gradientUnits="userSpaceOnUse">
      <stop offset="0" stop-color="#fff"/>
      <stop offset="1" stop-color="#d4d5d3"/>
    </linearGradient>
    <linearGradient id="linear-gradient-7" x1="43.75" y1="12.83" x2="46.25" y2="17.17" gradientUnits="userSpaceOnUse">
      <stop offset="0" stop-color="#d7d7d7"/>
      <stop offset="1" stop-color="#969696"/>
    </linearGradient>
    <linearGradient id="linear-gradient-8" x1="38.09" y1="25.01" x2="49.5" y2="25.01" gradientTransform="matrix(1,0,0,1,0,0)" xlink:href="#linear-gradient-2"/>
    <linearGradient id="linear-gradient-9" x1="28.71" y1="19.25" x2="34.02" y2="28.45" gradientTransform="matrix(1,0,0,1,0,0)" xlink:href="#linear-gradient-2"/>
    <linearGradient id="Dégradé_sans_nom_11" data-name="Dégradé sans nom 11" x1="35.11" y1="32.27" x2="54.81" y2="23.96" gradientUnits="userSpaceOnUse">
      <stop offset="0" stop-color="#000"/>
      <stop offset="1" stop-color="#000" stop-opacity="0"/>
    </linearGradient>
    <linearGradient id="linear-gradient-10" x1="42.39" y1="19.72" x2="45.93" y2="23.37" gradientUnits="userSpaceOnUse">
      <stop offset="0" stop-color="#d2d2d2"/>
      <stop offset=".35" stop-color="#fff"/>
      <stop offset="1" stop-color="#d2d2d2"/>
    </linearGradient>
  </defs>
  <g>
    <path d="M13.74,55.5c-1.64,0-2.8-.73-2.98-2.44l-2.69-24.45c-.01-.09-.02-.18-.02-.27,0-.71.42-1.34,1.05-1.57l33.57-11.97c.16-.06.32-.08.48-.08.55,0,1.06.32,1.33.83,3.04,9.26,9.41,15.09,12.71,21.02.2.48.29.91.29,1.29,0,1.17-.86,1.88-1.84,2.4l-40.97,15.06c-.34.13-.65.19-.96.19Z" fill="url(#linear-gradient-3)" stroke-width="0"/>
    <path d="M12.35,54.45c-.79,0-1.45-.58-1.58-1.38l-4.24-26.17c-.02-.09-.02-.18-.02-.27,0-.71.44-1.34,1.1-1.57l35-11.97c.16-.06.33-.08.5-.08.57,0,1.1.32,1.39.83l12.5,22.32c.14.25.22.54.22.82,0,.7-.43,1.33-1.07,1.56l-43.26,15.83c-.17.06-.35.1-.54.1Z" fill="url(#Dégradé_sans_nom_2)" stroke="#787878" stroke-linejoin="round"/>
    <polygon points="10.12 26.81 42.2 15.65 52.55 35.84 14.35 49.3 10.12 26.81" fill="url(#linear-gradient-4)" stroke-width="0"/>
    <path d="M34.06,38.23c3.47-6.99,4.52-14.44,3.44-20.95l-27.38,9.53,4.23,22.49,16.56-5.83c1.16-1.61,2.22-3.36,3.15-5.23Z" fill="url(#linear-gradient-5)" opacity=".6" stroke-width="0"/>
  </g>
  <g>
    <rect x="23.5" y="8.5" width="28" height="26" fill="url(#linear-gradient-6)" stroke="#323232" stroke-miterlimit="10"/>
    <circle cx="45" cy="15" r="2.5" fill="url(#linear-gradient-7)" stroke="#323232" stroke-miterlimit="10"/>
    <rect x="25.5" y="10.5" width="24" height="22" fill="none" stroke="#323232" stroke-miterlimit="10"/>
    <path d="M49.5,32.5h-17s8.23-7.37,10-8.91,4.69-1.33,6,0c.85.93,1,.99,1,.99v7.92Z" fill="#323232" stroke="#323232" stroke-linejoin="round"/>
    <path d="M49.5,27.5v-2.92s-.15-.06-1-.99c-1.31-1.33-4.23-1.54-6,0-.72.63-2.53,2.23-4.41,3.91h5.41c1,0,1.5-1.5,1.5-1.5,0,0,.5,1.5,1.5,1.5h3Z" fill="url(#linear-gradient-8)" stroke="#323232" stroke-linejoin="round"/>
    <path d="M44,30.58s-8.92-9.27-10.5-11.07c-1.21-1.37-3.76-1.31-5,0l-3,2.89v10.11h24v-.96c-4.81,0-5.5-.96-5.5-.96Z" fill="url(#linear-gradient)" stroke="#323232" stroke-linejoin="round"/>
    <path d="M39.14,25.5c-2.37-2.48-4.87-5.12-5.64-5.99-1.21-1.37-3.76-1.31-5,0l-3,2.89v3.11h1c1,0,1.5-1.5,1.5-1.5,0,0,.5,1.5,1.5,1.5s1.5-1.5,1.5-1.5c0,0,.5,1.5,1.5,1.5s1.5-1.5,1.5-1.5c0,0,.5,1.5,1.5,1.5h3.64Z" fill="url(#linear-gradient-9)" stroke="#323232" stroke-linejoin="round"/>
  </g>
  <g>
    <path d="M36.94,38.4l-4.76,7.23c-.59.89-1.81,1.13-2.74.54l-21.77-13.9c-.93-.59-1.2-1.79-.61-2.68l4.76-7.23c.59-.89,1.81-1.13,2.74-.54l21.77,13.9c.93.59,1.2,1.79.61,2.68Z" fill="url(#linear-gradient-2)" stroke="#787878" stroke-linejoin="round"/>
    <path d="M18.74,24.5l-6.89,10.46-4.18-2.67c-.93-.59-1.2-1.79-.61-2.68l4.76-7.23c.59-.89,1.81-1.13,2.74-.54l4.19,2.67Z" fill="#3d3d3d" stroke="#787878" stroke-linejoin="round"/>
    <polygon points="26.28 29.31 19.39 39.76 13.53 36.02 20.42 25.56 26.28 29.31" fill="#77797c" stroke="#787878" stroke-linejoin="round"/>
    <polygon points="33.82 34.12 26.93 44.57 21.07 40.83 27.96 30.37 33.82 34.12" fill="#b4b6ba" stroke="#787878" stroke-linejoin="round"/>
  </g>
  <g>
    <path d="M39.41,38.98l-7.23,4.93c-.89.61-2.1.38-2.71-.5l-14.37-20.7c-.61-.88-.39-2.08.5-2.69l7.23-4.93c.89-.61,2.1-.38,2.71.5l14.37,20.7c.61.88.39,2.08-.5,2.69Z" fill="url(#linear-gradient-2)" stroke="#787878" stroke-linejoin="round"/>
    <path d="M28.3,19.57l-10.44,7.13-2.76-3.98c-.61-.88-.39-2.08.5-2.69l7.23-4.93c.89-.61,2.1-.38,2.71.5l2.76,3.98Z" fill="#005686" stroke="#787878" stroke-linejoin="round"/>
    <polygon points="33.27 26.73 22.83 33.86 18.96 28.29 29.4 21.16 33.27 26.73" fill="#42a2da" stroke="#787878" stroke-linejoin="round"/>
    <polygon points="38.25 33.9 27.81 41.03 23.94 35.45 34.38 28.33 38.25 33.9" fill="#d5e8f2" stroke="#787878" stroke-linejoin="round"/>
  </g>
  <g>
    <path d="M38.35,28.29l-3.66,2.78c-.16.12-.27.27-.34.43-.23.52.02,1.17.53,1.4.15.07.33.1.53.08l4.52-.48,12.24-4.81-2.22-3.98-11.6,4.59Z" fill="url(#Dégradé_sans_nom_11)" opacity=".3" stroke-width="0"/>
    <g>
      <path d="M36.19,27.15l-2.26,4.06c-.52.94.5,1.99,1.41,1.45l3.95-2.32,15.59-16.02c.64-.65.82-1.67.38-2.48-.13-.24-.28-.47-.45-.64s-.39-.32-.62-.46c-.79-.45-1.78-.27-2.41.39l-15.59,16.02Z" fill="url(#linear-gradient-10)" stroke="#787979" stroke-linejoin="round"/>
      <path d="M53.67,14.86s.03-.67-.86-1.59-1.58-.87-1.58-.87l-1,1.03s.65-.02,1.54.91.87,1.6.87,1.6l1.03-1.07Z" fill="#646565" opacity=".5" stroke-width="0"/>
      <path d="M38.8,26.06c.4.42,1.31.16,2.93-1.5,1.62-1.66,2.6-3.34,2.2-3.76-.15-.16-.49-.1-.79.2s-4.24,4.34-4.35,4.47-.13.43.02.59Z" fill="#646565" opacity=".5" stroke-width="0"/>
    </g>
  </g>
  <path d="M57.21,36.56c-.05-.08-.1-.16-.14-.25-.02-.06-.04-.12-.07-.18l-5.49-9.8v-8.53l3.38-3.48c.64-.65.82-1.67.38-2.48-.13-.24-.28-.47-.45-.64-.17-.17-.39-.32-.62-.46-.79-.45-1.78-.27-2.41.39l-.28.29v-2.92h-28v6.3c-.24.05-.47.15-.68.29l-7.23,4.93c-.65.45-.94,1.22-.81,1.94l-.23-.15c-.93-.59-2.15-.35-2.74.54l-1.05,1.6-3.17,1.08c-.66.22-1.1.85-1.1,1.57,0,.09,0,.18.02.27l.46,2.85c-.41.76-.25,1.69.37,2.29l3.41,21.03c.17,1.71,1.34,2.44,2.98,2.44.31,0,.62-.06.96-.19l40.97-15.06c.97-.52,1.84-1.23,1.84-2.4,0-.38-.09-.8-.29-1.29Z" fill="none" stroke="#323232" stroke-linejoin="round"/>
</svg>