<?xml version="1.0" encoding="UTF-8"?>
<svg id="d" data-name="_x36_4" xmlns="http://www.w3.org/2000/svg" viewBox="0 0 64 64">
  <path d="M29.36,40.26l3.64-2.91s-4.42-5.69-4.79-6.13c-2.1-2.47-3.62-5.57-6.25-7.49-3.83-2.8-8.66-2.02-12.07,1.06-1.73,1.57-2.83,3.53-2.89,6.02s.86,4.85,2.3,6.77c3.69,4.92,10.18,6,14.79,1.91l-3-3.59c.26.32-2.83,1.49-3.04,1.51-2.05.2-4.17-1.32-5.42-2.97-1.02-1.35-1.5-3.28-.81-4.85.49-1.1,1.48-1.87,2.54-2.33,1.25-.54,2.68-.69,3.95-.19,1.51.59,2.55,1.96,3.52,3.26s2.08,2.68,3.11,4.04c.28.37,4.41,5.91,4.43,5.9Z" fill="#358dc4"/>
  <path d="M34.64,23.74s-3.64,2.91-3.64,2.91c.02-.02,4.42,5.69,4.79,6.13,2.1,2.47,3.62,5.57,6.25,7.49,3.83,2.8,8.66,2.02,12.07-1.06,1.73-1.57,2.83-3.53,2.89-6.02s-.86-4.85-2.3-6.77c-3.69-4.92-10.18-6-14.79-1.91l3,3.59c-.26-.32,2.83-1.49,3.04-1.51,2.05-.2,4.17,1.32,5.42,2.97,1.02,1.35,1.5,3.28.81,4.85-.49,1.1-1.48,1.87-2.54,2.33-1.25.54-2.68.69-3.95.19-1.51-.59-2.55-1.96-3.52-3.26s-2.08-2.68-3.11-4.04c-.28-.37-4.41-5.91-4.43-5.9Z" fill="#105686"/>
</svg>