<?xml version="1.0" encoding="UTF-8"?>
<svg xmlns="http://www.w3.org/2000/svg" xmlns:xlink="http://www.w3.org/1999/xlink" viewBox="0 0 64 64">
  <defs>
    <linearGradient id="linear-gradient" x1="23" y1="32" x2="41" y2="32" gradientUnits="userSpaceOnUse">
      <stop offset="0" stop-color="#464646"/>
      <stop offset="1" stop-color="#141414"/>
    </linearGradient>
    <linearGradient id="linear-gradient-2" x1="22.8" y1="16.07" x2="41.2" y2="47.93" gradientUnits="userSpaceOnUse">
      <stop offset="0" stop-color="#fff"/>
      <stop offset="1" stop-color="#d4d5d3"/>
    </linearGradient>
    <linearGradient id="linear-gradient-3" x1="32" y1="42" x2="32" y2="23.54" gradientUnits="userSpaceOnUse">
      <stop offset="0" stop-color="#fff"/>
      <stop offset="1" stop-color="#000"/>
    </linearGradient>
    <linearGradient id="linear-gradient-4" x1="40.38" y1="13.77" x2="60.73" y2="49.02" gradientUnits="userSpaceOnUse">
      <stop offset="0" stop-color="#8cd7f5"/>
      <stop offset="1" stop-color="#376e8c"/>
    </linearGradient>
    <linearGradient id="linear-gradient-5" x1="3.27" y1="14.98" x2="23.62" y2="50.23" xlink:href="#linear-gradient-4"/>
  </defs>
  <g id="Layer_6" data-name="Layer 6">
    <rect x="8.5" y="17" width="47" height="30" fill="#fff" opacity=".5" stroke="#fff" stroke-linejoin="round" stroke-width="3"/>
    <rect x="6" y="17" width="52" height="30" fill="#646464" opacity=".5" stroke-width="0"/>
  </g>
  <g id="Layer_5" data-name="Layer 5">
    <g>
      <g>
        <path d="M44.65,38.84c0,.48.09.94.26,1.4.17.45.45.87.83,1.25l1.28,1.28c-1.18,1.66-2.6,3.08-4.27,4.27l-1.28-1.28c-.38-.38-.79-.66-1.25-.83-.45-.18-.92-.26-1.4-.26-.5,0-.98.09-1.43.26-.45.17-.86.43-1.21.77-.35.34-.64.74-.85,1.21s-.32.98-.32,1.53v1.81c-.5.08-1.01.14-1.51.19-.5.05-1.01.08-1.51.08s-1.01-.02-1.51-.08c-.5-.05-1.01-.11-1.51-.19v-1.81c0-.55-.11-1.06-.32-1.53-.22-.47-.5-.87-.85-1.21s-.76-.6-1.23-.77c-.47-.18-.94-.26-1.42-.26s-.94.09-1.4.26c-.45.17-.87.45-1.25.83l-1.28,1.28c-1.66-1.18-3.08-2.6-4.27-4.27l1.28-1.28c.38-.38.65-.79.83-1.25.18-.45.26-.92.26-1.4s-.09-.95-.26-1.42-.43-.88-.77-1.23c-.34-.35-.74-.64-1.21-.85-.47-.21-.98-.32-1.53-.32h-1.81c-.08-.51-.14-1.01-.19-1.51-.05-.5-.08-1.01-.08-1.51s.02-1.01.08-1.51c.05-.5.11-1.01.19-1.51h1.81c.55,0,1.06-.11,1.53-.32.47-.21.87-.5,1.21-.85.34-.35.6-.76.77-1.21.18-.45.26-.93.26-1.43s-.09-.95-.26-1.4-.45-.87-.83-1.25l-1.28-1.28c1.18-1.66,2.6-3.08,4.27-4.27l1.28,1.28c.38.38.79.66,1.25.83.45.18.92.26,1.4.26s.95-.09,1.42-.26c.47-.17.87-.43,1.23-.77s.64-.73.85-1.19c.21-.45.32-.97.32-1.55v-1.81c.5-.08,1.01-.14,1.51-.19.5-.05,1.01-.08,1.51-.08s1.01.03,1.51.08c.5.05,1.01.11,1.51.19v1.81c0,.58.11,1.1.32,1.57.21.47.5.86.85,1.19.35.33.75.58,1.21.76.45.18.93.26,1.43.26.45,0,.91-.08,1.38-.25.47-.16.89-.43,1.26-.81l1.28-1.32c1.66,1.18,3.08,2.6,4.27,4.27l-1.28,1.28c-.38.38-.65.79-.83,1.25-.18.45-.26.92-.26,1.4,0,.5.09.98.26,1.43.17.45.43.86.77,1.21.34.35.74.64,1.19.85.45.21.97.32,1.55.32h1.81c.08.51.14,1.01.19,1.51.05.5.08,1.01.08,1.51s-.03,1.01-.08,1.51c-.05.5-.11,1.01-.19,1.51h-1.81c-.58,0-1.1.11-1.55.32-.45.21-.85.5-1.19.85-.34.35-.6.76-.77,1.23-.18.47-.26.94-.26,1.42ZM32,39.5c1.03,0,2-.2,2.91-.59.91-.4,1.71-.94,2.38-1.61.68-.68,1.21-1.47,1.61-2.38.4-.91.59-1.88.59-2.91s-.2-2-.59-2.91c-.4-.91-.93-1.71-1.61-2.38-.68-.68-1.47-1.21-2.38-1.61s-1.88-.59-2.91-.59-2,.2-2.91.59c-.91.4-1.71.94-2.38,1.61-.68.68-1.21,1.47-1.61,2.38-.4.91-.59,1.88-.59,2.91s.2,2,.59,2.91c.4.91.93,1.71,1.61,2.38.68.68,1.47,1.21,2.38,1.61.91.4,1.88.59,2.91.59Z" fill="#fff" opacity=".7" stroke="#fff" stroke-linejoin="round" stroke-width="3"/>
        <path d="M44.65,38.84c0,.48.09.94.26,1.4.17.45.45.87.83,1.25l1.28,1.28c-1.18,1.66-2.6,3.08-4.27,4.27l-1.28-1.28c-.38-.38-.79-.66-1.25-.83-.45-.18-.92-.26-1.4-.26-.5,0-.98.09-1.43.26-.45.17-.86.43-1.21.77-.35.34-.64.74-.85,1.21s-.32.98-.32,1.53v1.81c-.5.08-1.01.14-1.51.19-.5.05-1.01.08-1.51.08s-1.01-.02-1.51-.08c-.5-.05-1.01-.11-1.51-.19v-1.81c0-.55-.11-1.06-.32-1.53-.22-.47-.5-.87-.85-1.21s-.76-.6-1.23-.77c-.47-.18-.94-.26-1.42-.26s-.94.09-1.4.26c-.45.17-.87.45-1.25.83l-1.28,1.28c-1.66-1.18-3.08-2.6-4.27-4.27l1.28-1.28c.38-.38.65-.79.83-1.25.18-.45.26-.92.26-1.4s-.09-.95-.26-1.42-.43-.88-.77-1.23c-.34-.35-.74-.64-1.21-.85-.47-.21-.98-.32-1.53-.32h-1.81c-.08-.51-.14-1.01-.19-1.51-.05-.5-.08-1.01-.08-1.51s.02-1.01.08-1.51c.05-.5.11-1.01.19-1.51h1.81c.55,0,1.06-.11,1.53-.32.47-.21.87-.5,1.21-.85.34-.35.6-.76.77-1.21.18-.45.26-.93.26-1.43s-.09-.95-.26-1.4-.45-.87-.83-1.25l-1.28-1.28c1.18-1.66,2.6-3.08,4.27-4.27l1.28,1.28c.38.38.79.66,1.25.83.45.18.92.26,1.4.26s.95-.09,1.42-.26c.47-.17.87-.43,1.23-.77s.64-.73.85-1.19c.21-.45.32-.97.32-1.55v-1.81c.5-.08,1.01-.14,1.51-.19.5-.05,1.01-.08,1.51-.08s1.01.03,1.51.08c.5.05,1.01.11,1.51.19v1.81c0,.58.11,1.1.32,1.57.21.47.5.86.85,1.19.35.33.75.58,1.21.76.45.18.93.26,1.43.26.45,0,.91-.08,1.38-.25.47-.16.89-.43,1.26-.81l1.28-1.32c1.66,1.18,3.08,2.6,4.27,4.27l-1.28,1.28c-.38.38-.65.79-.83,1.25-.18.45-.26.92-.26,1.4,0,.5.09.98.26,1.43.17.45.43.86.77,1.21.34.35.74.64,1.19.85.45.21.97.32,1.55.32h1.81c.08.51.14,1.01.19,1.51.05.5.08,1.01.08,1.51s-.03,1.01-.08,1.51c-.05.5-.11,1.01-.19,1.51h-1.81c-.58,0-1.1.11-1.55.32-.45.21-.85.5-1.19.85-.34.35-.6.76-.77,1.23-.18.47-.26.94-.26,1.42ZM32,39.5c1.03,0,2-.2,2.91-.59s1.71-.94,2.38-1.61c.68-.68,1.21-1.47,1.61-2.38.4-.91.59-1.88.59-2.91s-.2-2-.59-2.91c-.4-.91-.93-1.71-1.61-2.38-.68-.68-1.47-1.21-2.38-1.61s-1.88-.59-2.91-.59-2,.2-2.91.59c-.91.4-1.71.94-2.38,1.61-.68.68-1.21,1.47-1.61,2.38-.4.91-.59,1.88-.59,2.91s.2,2,.59,2.91c.4.91.93,1.71,1.61,2.38.68.68,1.47,1.21,2.38,1.61.91.4,1.88.59,2.91.59Z" fill="url(#linear-gradient-2)" stroke="#323232" stroke-linejoin="round"/>
      </g>
      <g opacity=".2">
        <path d="M19.84,23.48c.11.29.19.59.25.9.05-.27.07-.54.07-.82,0-.57-.11-1.14-.32-1.69-.22-.55-.55-1.07-1.01-1.52l-.04-.04c-.25.29-.52.55-.75.86l.79.79c.46.46.79.97,1.01,1.52Z" stroke-width="0"/>
        <path d="M44.17,21.87c-.21.54-.32,1.11-.32,1.69,0,.28.03.55.07.82.05-.31.13-.61.25-.9.21-.55.55-1.06,1.01-1.52l.79-.79c-.23-.3-.5-.57-.75-.86l-.04.04c-.46.46-.8.97-1.01,1.52Z" stroke-width="0"/>
        <path d="M49.62,31.82c-.03.26-.06.52-.09.79h-1.11c-.7,0-1.34.13-1.89.4-.54.26-1.02.6-1.42,1.02-.42.43-.74.94-.95,1.5-.21.55-.32,1.13-.32,1.7,0,.27.03.54.08.8.05-.3.13-.6.24-.89.21-.56.53-1.07.95-1.5.41-.42.88-.76,1.42-1.02.55-.26,1.19-.4,1.89-.4h1.11c.03-.26.06-.52.09-.79.05-.48.07-.95.07-1.43,0-.27-.02-.54-.04-.8-.01.21-.01.42-.03.63Z" stroke-width="0"/>
        <path d="M19.84,37.14c.11.29.19.59.24.89.05-.26.08-.53.08-.8,0-.57-.11-1.14-.32-1.7-.21-.57-.53-1.07-.95-1.5-.41-.42-.9-.77-1.45-1.02-.57-.26-1.19-.39-1.86-.39h-1.11c-.03-.26-.06-.53-.09-.79-.02-.21-.02-.42-.03-.62-.01.27-.04.54-.04.8,0,.48.02.95.07,1.43.03.26.06.53.09.79h1.11c.67,0,1.3.13,1.86.39.56.25,1.04.6,1.45,1.02.41.43.73.93.95,1.5Z" stroke-width="0"/>
        <path d="M42.84,44.36l-.79-.79c-.46-.46-.97-.8-1.52-1.01-1.11-.43-2.36-.41-3.41,0-.55.21-1.05.53-1.48.94-.43.41-.77.9-1.02,1.45-.26.57-.4,1.2-.4,1.86v1.11c-.26.03-.52.06-.79.09-.96.1-1.9.1-2.86,0-.26-.03-.52-.05-.78-.09v-1.11c0-.66-.13-1.29-.4-1.86-.25-.55-.6-1.04-1.02-1.45-.43-.42-.94-.74-1.5-.94-1.11-.42-2.31-.42-3.39,0-.56.22-1.07.56-1.53,1.01l-.79.79c-.87-.67-1.65-1.45-2.38-2.27l-.75.75c.91,1.17,1.96,2.22,3.13,3.13l.79-.79c.45-.46.97-.8,1.53-1.01,1.08-.42,2.28-.42,3.39,0,.56.21,1.07.53,1.5.94.42.41.77.9,1.02,1.45.26.57.4,1.2.4,1.86v1.11c.26.03.52.06.78.09.96.1,1.91.1,2.86,0,.26-.03.52-.05.79-.09v-1.11c0-.67.13-1.3.4-1.86.25-.55.6-1.04,1.02-1.45.43-.41.93-.73,1.48-.94,1.06-.41,2.3-.43,3.41,0,.55.21,1.07.55,1.52,1.01l.79.79c1.17-.91,2.22-1.96,3.13-3.13l-.75-.75c-.73.82-1.5,1.6-2.38,2.27Z" stroke-width="0"/>
      </g>
      <g opacity=".3">
        <path d="M44.16,26.89c-.11-.29-.19-.59-.24-.9-.05.26-.07.52-.07.79,0,.6.11,1.19.32,1.72.21.55.53,1.05.94,1.48.41.42.88.76,1.42,1.02.56.26,1.2.4,1.89.4h1.11c.03.26.06.52.09.79.02.21.02.42.03.62.01-.27.04-.54.04-.81,0-.48-.02-.95-.07-1.43-.03-.26-.06-.52-.09-.79h-1.11c-.7,0-1.33-.13-1.89-.4-.54-.26-1.02-.6-1.42-1.02-.41-.43-.73-.93-.94-1.48Z" fill="#fff" stroke-width="0"/>
        <path d="M21.16,19.64l.79.79c.46.46.97.8,1.52,1.01,1.09.42,2.29.42,3.39,0,.57-.21,1.07-.53,1.51-.95.42-.41.76-.89,1.02-1.42.27-.56.4-1.2.4-1.89v-1.11c.26-.03.52-.06.79-.09.95-.1,1.89-.1,2.86,0,.26.02.52.05.78.09v1.11c0,.7.13,1.34.39,1.9.26.57.61,1.05,1.03,1.44.43.4.92.71,1.46.92,1.04.4,2.22.44,3.37.03.58-.2,1.11-.54,1.58-1.01l.79-.82c.87.67,1.64,1.45,2.37,2.27l.75-.75c-.9-1.17-1.95-2.22-3.12-3.12l-.79.82c-.47.47-1,.81-1.58,1.01-1.15.41-2.34.38-3.37-.03-.54-.21-1.04-.52-1.46-.92-.43-.39-.77-.88-1.03-1.44-.26-.56-.39-1.2-.39-1.9v-1.11c-.26-.03-.52-.06-.78-.09-.97-.1-1.91-.1-2.86,0-.27.03-.53.05-.79.09v1.11c0,.69-.13,1.33-.4,1.89-.25.54-.6,1.01-1.02,1.42-.43.42-.94.74-1.51.95-1.1.42-2.3.42-3.39,0-.55-.21-1.07-.55-1.52-1.01l-.79-.79c-1.17.91-2.22,1.96-3.13,3.13l.75.75c.73-.82,1.5-1.6,2.38-2.27Z" fill="#fff" stroke-width="0"/>
        <path d="M44.16,40.52c-.11-.29-.19-.59-.24-.89-.05.27-.08.54-.08.81,0,.58.11,1.15.32,1.69.21.55.55,1.07,1.01,1.53l.04.04c.25-.29.52-.55.75-.86l-.79-.79c-.46-.46-.8-.97-1.01-1.53Z" fill="#fff" stroke-width="0"/>
        <path d="M19.84,42.13c.21-.55.32-1.12.32-1.69,0-.27-.03-.54-.08-.81-.05.3-.13.6-.24.89-.22.56-.55,1.07-1.01,1.52l-.79.79c.23.3.5.57.75.86l.04-.04c.45-.46.79-.97,1.01-1.52Z" fill="#fff" stroke-width="0"/>
        <path d="M14.38,32.18c.03-.26.06-.52.09-.79h1.11c.67,0,1.29-.13,1.86-.39.56-.25,1.04-.6,1.45-1.02.41-.43.73-.93.94-1.48.21-.55.32-1.12.32-1.72,0-.27-.03-.53-.07-.79-.05.31-.13.61-.25.91-.21.55-.53,1.05-.94,1.48-.41.42-.9.77-1.45,1.02-.57.26-1.2.39-1.86.39h-1.11c-.03.26-.06.52-.09.79-.05.48-.07.95-.07,1.43,0,.27.03.54.04.8.01-.21,0-.42.03-.62Z" fill="#fff" stroke-width="0"/>
      </g>
      <path d="M32,22c-5.52,0-10,4.48-10,10s4.48,10,10,10,10-4.48,10-10-4.48-10-10-10ZM32,40c-4.42,0-8-3.58-8-8s3.58-8,8-8,8,3.58,8,8-3.58,8-8,8Z" fill="url(#linear-gradient-3)" opacity=".3" stroke-width="0"/>
    </g>
  </g>
  <g id="Layer_4" data-name="Layer 4">
    <rect x="23" y="27" width="18" height="10" fill="url(#linear-gradient)" stroke-width="0"/>
    <g>
      <path d="M26,35l2-6h1l1.99,6h-.99l-.7-2h-1.6l-.7,2h-1ZM28,32h1l-.5-2-.5,2Z" fill="#fff" stroke-width="0"/>
      <path d="M32,35v-6h1.98c.35,0,.61.02.8.06.26.05.47.14.65.28s.31.33.42.58.16.52.16.82c0,.51-.05,1.37-.33,1.72s-.69.57-1.44.57l-1.23-.03v2h-1ZM33,32h1.05c.35,0,.59-.09.74-.27s.22-.43.22-.75c0-.23-.04-.43-.13-.6s-.2-.28-.34-.33c-.09-.03-.26-.05-.5-.05h-1.03v2Z" fill="#fff" stroke-width="0"/>
      <path d="M37,35v-6h1v6h-1Z" fill="#fff" stroke-width="0"/>
    </g>
  </g>
  <g id="Layer_3" data-name="Layer 3">
    <polygon points="49.5 55.5 57.5 46.5 57.5 17.5 49.5 8.5 49.5 55.5" fill="url(#linear-gradient-4)" stroke="#003755" stroke-linejoin="round"/>
    <polygon points="6.5 17.5 6.5 46.5 14.5 55.5 14.5 8.5 6.5 17.5" fill="url(#linear-gradient-5)" stroke="#003755" stroke-linejoin="round"/>
  </g>
</svg>