<?xml version="1.0" standalone="no"?>
<!DOCTYPE svg PUBLIC "-//W3C//DTD SVG 20010904//EN"
 "http://www.w3.org/TR/2001/REC-SVG-20010904/DTD/svg10.dtd">
<svg version="1.0" xmlns="http://www.w3.org/2000/svg"
 width="128.000000pt" height="128.000000pt" viewBox="0 0 128.000000 128.000000"
 preserveAspectRatio="xMidYMid meet">

<g transform="translate(0.000000,128.000000) scale(0.100000,-0.100000)"
fill="#000000" stroke="none">
<path d="M235 1017 c-95 -46 -152 -136 -180 -282 -19 -96 -19 -153 -1 -248 45
-235 214 -355 371 -262 71 42 84 60 278 385 136 228 162 255 244 255 43 0 57
-5 82 -29 56 -54 74 -108 74 -231 1 -96 -2 -116 -22 -158 -36 -73 -95 -107
-154 -88 -38 13 -96 69 -124 120 -10 19 -23 36 -28 38 -6 1 -23 -16 -39 -38
-36 -51 -31 -82 27 -164 59 -83 121 -120 201 -120 36 1 73 7 91 17 78 42 150
153 174 266 15 73 14 226 -3 289 -19 70 -57 151 -90 190 -34 41 -123 83 -174
83 -129 0 -200 -69 -350 -340 -78 -142 -160 -270 -194 -302 -33 -33 -45 -38
-84 -38 -61 0 -100 29 -130 97 -20 46 -24 69 -23 156 1 140 31 212 105 247 38
19 44 19 84 5 53 -19 72 -35 108 -92 15 -23 32 -43 38 -43 12 0 36 32 60 79
16 31 -6 77 -68 141 -83 86 -182 111 -273 67z"/>
</g>
</svg>
