<?xml version="1.0" encoding="UTF-8"?><svg xmlns="http://www.w3.org/2000/svg" xmlns:xlink="http://www.w3.org/1999/xlink" viewBox="0 0 64 64"><defs><linearGradient id="linear-gradient" x1="40.28" y1="36.1" x2="51.72" y2="55.9" gradientUnits="userSpaceOnUse"><stop offset="0" stop-color="#fff"/><stop offset="1" stop-color="#d4d5d3"/></linearGradient><linearGradient id="linear-gradient-2" x1="33" y1="39" x2="33" y2="59" gradientTransform="translate(0 66) scale(1 -1)" gradientUnits="userSpaceOnUse"><stop offset="0" stop-color="#94d1ff"/><stop offset="1" stop-color="#94d1ff" stop-opacity=".5"/></linearGradient><linearGradient id="linear-gradient-3" x1="10.65" y1="35.1" x2="19.48" y2="50.4" xlink:href="#linear-gradient"/><linearGradient id="linear-gradient-4" x1="9.71" y1="24.68" x2="12.31" y2="20.18" gradientTransform="translate(0 66) scale(1 -1)" gradientUnits="userSpaceOnUse"><stop offset="0" stop-color="#3387af"/><stop offset="1" stop-color="#285a78"/></linearGradient><linearGradient id="linear-gradient-5" x1="13.4" y1="25.77" x2="16.59" y2="20.24" xlink:href="#linear-gradient-4"/><linearGradient id="linear-gradient-6" x1="17.69" y1="25.82" x2="20.29" y2="21.32" xlink:href="#linear-gradient-4"/><linearGradient id="linear-gradient-7" x1="12.25" y1="31.6" x2="17.62" y2="40.9" gradientUnits="userSpaceOnUse"><stop offset="0" stop-color="#8cd7f5"/><stop offset="1" stop-color="#376e8c"/></linearGradient><linearGradient id="linear-gradient-8" x1="46" y1="51" x2="46" y2="41.77" gradientUnits="userSpaceOnUse"><stop offset="0" stop-color="#fff"/><stop offset="1" stop-color="#000"/></linearGradient></defs><g id="Layer_1"><circle cx="33" cy="26" r="20" fill="#003c5a"/><path d="M52,26.89c-.35,10.16-8.72,18.19-18.89,18.11-11.25,0-19.11-9.15-19.11-17.99s7.75-14.01,19-14.01,19,5.05,19,13.89Z" fill="#003c5a"/><path d="M51.81,26.85c0,8.67-7.5,17.75-18.69,17.75S14.25,35.65,14.25,26.97s7.66-13.75,18.75-13.75,18.81,4.95,18.81,13.63Z" fill="#003d5b"/><path d="M51.64,26.8c0,8.51-7.5,17.41-18.5,17.41S14.39,35.46,14.39,26.92s7.64-13.56,18.61-13.56,18.64,4.93,18.64,13.44Z" fill="#003e5d"/><path d="M51.45,26.76c0,8.35-7.42,17.05-18.3,17.05S14.64,35.24,14.64,26.88s7.53-13.38,18.36-13.38,18.45,4.9,18.45,13.26Z" fill="#003e5e"/><path d="M51.27,26.73c0,8.19-7.38,16.7-18.11,16.7S14.85,35.03,14.85,26.84s7.5-13.11,18.21-13.11,18.21,4.78,18.21,13Z" fill="#003f5f"/><path d="M51.09,26.68c0,8.04-7.3,16.35-17.91,16.35S15.06,34.83,15.06,26.78s7.4-12.87,18.01-12.87,18.01,4.74,18.01,12.77Z" fill="#004061"/><path d="M50.91,26.64c0,7.87-7.25,16-17.73,16s-17.91-8.01-17.91-15.9,7.34-12.65,17.81-12.65,17.83,4.66,17.83,12.55Z" fill="#004162"/><path d="M50.73,26.59c0,7.73-7.19,15.65-17.5,15.65s-17.73-7.83-17.73-15.54,7.27-12.42,17.61-12.42,17.61,4.6,17.61,12.31Z" fill="#004263"/><path d="M50.5,26.55c0,7.56-7.13,15.3-17.34,15.3s-17.5-7.64-17.5-15.2,7.21-12.2,17.42-12.2,17.41,4.54,17.41,12.1Z" fill="#004265"/><path d="M50.36,26.51c0,7.4-7.06,15-17.15,15s-17.3-7.5-17.3-14.85,7.09-12.02,17.23-12.02,17.22,4.47,17.22,11.88Z" fill="#004366"/><path d="M50.19,26.46c0,7.25-7.01,14.6-16.96,14.6s-17.1-7.26-17.1-14.5,7.07-11.75,17.02-11.75,17.04,4.41,17.04,11.65Z" fill="#004467"/><path d="M50,26.43c0,7.09-6.94,14.24-16.76,14.24s-16.9-7.06-16.9-14.15,7.01-11.51,16.83-11.51,16.84,4.34,16.84,11.42Z" fill="#004569"/><path d="M49.81,26.39c0,6.93-6.88,13.89-16.56,13.89s-16.7-6.89-16.7-13.81,6.95-11.25,16.64-11.25,16.62,4.25,16.62,11.18Z" fill="#00456a"/><path d="M49.64,26.34c0,6.78-6.82,13.54-16.38,13.54s-16.51-6.69-16.51-13.45,6.89-11.06,16.44-11.06,16.45,4.21,16.45,10.98Z" fill="#00466b"/><path d="M49.45,26.3c0,6.61-6.75,13.19-16.17,13.19s-16.25-6.5-16.25-13.11,6.81-10.82,16.25-10.82,16.17,4.2,16.17,10.75Z" fill="#00476d"/><path d="M49.25,26.26c0,6.45-6.7,12.83-15.99,12.83s-16.1-6.25-16.1-12.76,6.75-10.6,16.04-10.6,16.05,4.09,16.05,10.54Z" fill="#00486e"/><path d="M49.09,26.21c0,6.25-6.64,12.5-15.79,12.5s-15.9-6.13-15.9-12.42,6.69-10.36,15.84-10.36,15.85,4,15.85,10.29Z" fill="#00496f"/><path d="M48.91,26.17c0,6.13-6.57,12.13-15.6,12.13s-15.71-5.94-15.71-12.06,6.65-10.15,15.66-10.15,15.65,3.95,15.65,10.09Z" fill="#004971"/><path d="M48.73,26.12c0,5.97-6.51,11.79-15.4,11.79s-15.51-5.75-15.51-11.73,6.58-9.91,15.46-9.91,15.45,3.89,15.45,9.85Z" fill="#004a72"/><path d="M48.55,26.09c0,5.81-6.46,11.42-15.21,11.42s-15.34-5.55-15.34-11.37,6.5-9.69,15.26-9.69,15.29,3.82,15.29,9.64Z" fill="#004b73"/><path d="M48.36,26c0,5.65-6.39,11.08-15,11.08s-15.11-5.37-15.11-11.02,6.44-9.46,15.06-9.46,15.05,3.8,15.05,9.41Z" fill="#004c75"/><path d="M48.19,26c0,5.5-6.34,10.73-14.83,10.73s-14.91-5.18-14.91-10.73,6.38-9.24,14.86-9.24,14.88,3.75,14.88,9.24Z" fill="#004d76"/><path d="M48,26c0,5.34-6.25,10.37-14.63,10.37s-14.71-5-14.71-10.34,6.25-9,14.67-9,14.66,3.59,14.66,8.96Z" fill="#004d77"/><path d="M47.81,25.92c0,5.17-6.25,10-14.43,10s-14.51-4.79-14.51-9.92,6.25-8.75,14.47-8.75,14.46,3.49,14.46,8.67Z" fill="#004e79"/><path d="M47.64,25.88c0,5-6.15,9.67-14.24,9.67s-14.31-4.55-14.31-9.64,6.18-8.55,14.28-8.55,14.27,3.5,14.27,8.51Z" fill="#004f7a"/><path d="M47.45,25.84c0,4.86-6.08,9.31-14.05,9.31s-14.15-4.43-14.15-9.29,6.11-8.31,14.08-8.31,14.12,3.45,14.12,8.29Z" fill="#00507b"/><path d="M47.27,25.8c0,4.7-6.02,8.95-13.86,8.95s-13.9-4.24-13.9-8.94,6.05-8.1,13.89-8.1,13.87,3.38,13.87,8.09Z" fill="#00507d"/><path d="M47.09,25.75c0,4.55-5.96,8.61-13.66,8.61s-13.75-4.04-13.75-8.59,5.99-7.86,13.75-7.86,13.66,3.3,13.66,7.84Z" fill="#00517e"/><path d="M46.91,25.71c0,4.39-5.9,8.26-13.47,8.26s-13.5-3.86-13.5-8.25,5.92-7.64,13.49-7.64,13.49,3.24,13.49,7.62Z" fill="#00527f"/><path d="M46.75,25.66c0,4.23-5.84,7.91-13.27,7.91s-13.3-3.66-13.3-7.89,5.85-7.41,13.29-7.41,13.29,3.16,13.29,7.39Z" fill="#005381"/><path d="M46.55,25.63c0,4.06-5.79,7.5-13.09,7.5s-13.1-3.49-13.1-7.5,5.79-7.13,13.09-7.13,13.1,3.06,13.1,7.13Z" fill="#005482"/><path d="M46.36,25.59c0,3.9-5.71,7.2-12.89,7.2s-12.9-3.29-12.9-7.2,5.72-6.95,12.9-6.95,12.89,3.04,12.89,6.95Z" fill="#005483"/><path d="M46.19,25.54c0,3.75-5.66,6.86-12.7,6.86s-12.7-3.1-12.7-6.85,5.66-6.74,12.7-6.74,12.7,2.97,12.7,6.72Z" fill="#005585"/><ellipse cx="33.5" cy="25.5" rx="12.5" ry="6.5" fill="#005686"/><ellipse cx="33" cy="17" rx="14.5" ry="10" fill="url(#linear-gradient-2)" isolation="isolate" opacity=".52"/><path d="M25.15,18.5c-.8,0-4.65-4.43-4.65-4.73h0c-.01-.14,.08-.26,.22-.27,.02,0,.04,0,.05,0,.3,0,4.74,3.91,4.74,4.71-.01,.2-.16,.29-.36,.29Z" fill="#28b7f6"/><path d="M25.5,33.85c0,.8-4.44,4.7-4.74,4.7h0c-.14,.01-.26-.08-.27-.22,0-.02,0-.04,0-.05,0-.3,3.91-4.74,4.71-4.74,.21-.04,.3,.11,.3,.31Z" fill="#28b7f6"/><path d="M40.85,33.5c.8,0,4.7,4.44,4.7,4.74h0c.01,.14-.08,.26-.22,.28-.02,0-.04,0-.05,0-.3-.01-4.77-3.93-4.77-4.73,0-.2,.15-.29,.35-.29Z" fill="#28b7f6"/><path d="M40.5,18.15c0-.8,4.44-4.7,4.74-4.7h0c.14-.01,.26,.08,.28,.22,0,.02,0,.04,0,.05,0,.3-3.91,4.74-4.71,4.74-.21,.04-.3-.11-.3-.31Z" fill="#28b7f6"/><path d="M33,35c-4.97,0-9-4.03-9-9s4.03-9,9-9,9,4.03,9,9c0,4.97-4.03,8.99-9,9Zm0-17c-4.42,0-8,3.58-8,8s3.58,8,8,8,8-3.58,8-8c0-4.42-3.58-7.99-8-8Z" fill="#28b7f6"/><path d="M15,27.36c0-.32,.13-.6,.45-.6s.47,.23,.5,.56,.15,.68,.55,.68,.54-.46,.54-.91c0-1.25-.71-.79-1.02-1.04-.11-.14-.11-.34,0-.48,.31-.28,.92,.14,.92-.95,0-.35-.11-.62-.46-.62s-.43,.2-.47,.5-.2,.45-.47,.45c-.23,0-.42-.17-.43-.4,0-.02,0-.03,0-.05,0-.7,.44-1.25,1.36-1.25,.68-.13,1.33,.32,1.46,.99,.02,.13,.03,.25,.01,.38,.07,.46-.19,.91-.61,1.09,.59,.23,.71,.66,.71,1.33,0,1.06-.47,1.64-1.54,1.64-.73,.1-1.39-.41-1.49-1.14,0-.06-.01-.12-.01-.17Zm3.75-3.54c-.04-.26,.14-.5,.4-.54,.04,0,.08,0,.12,0h1.25c1.25,0,1.44,1.1,1.44,2.34v.68c0,1.19-.3,2.31-1.49,2.31h-1.22c-.37,0-.53-.16-.53-.52l.03-4.26Zm.99,4h.46c.74,0,.78-.86,.78-1.7v-.43c0-.79,0-1.62-.75-1.62h-.49v3.75Z" fill="#fff"/><path d="M47.23,24.06c.05,.31-.17,.61-.48,.65-.31,.05-.61-.17-.65-.48,0-.06,0-.11,0-.17,.05-.31,.34-.53,.65-.48,.25,.04,.45,.23,.48,.48Zm-.08,5.19c0,.41-.2,.59-.5,.59s-.49-.24-.49-.59v-3.41c0-.41,.2-.59,.49-.59s.5,.17,.5,.59v3.41Zm1.69-5.36c.08-.2,.19-.3,.34-.3,.06-.01,.12-.01,.17,0,.15,0,.23,.14,.23,.25s-.69,1.9-.69,2.18c0,.06,0,.1,.09,.1s.39-.3,.49-.4,0,0,0,0h0c.11,.11,.09,.1,.09,.1h0c-.28,.42-.75,.68-1.25,.7-.15,0-.26-.06-.26-.21s.76-2.31,.8-2.41Zm1.25-1.25c0,.29-.24,.52-.52,.52s-.52-.24-.52-.52c0-.28,.23-.51,.51-.51,0,0,0,0,.01,0,.28,0,.52,.22,.53,.5,0,.02,0,.03,0,.05v-.04Z" fill="#fff"/><path d="M28.07,38.16c-.04-.12-.06-.25-.07-.37,0-.27,.23-.48,.5-.48,0,0,0,0,.01,0,.3,0,.43,.1,.5,.43l.78,3.92,.71-3.84c.07-.44,.24-.51,.49-.51s.49,.19,.49,.44c.02,.13,.02,.27,0,.4l-.97,4.1c-.1,.4-.24,.52-.78,.52s-.62-.11-.72-.55l-.92-4.06Zm4.34,3.2c0-.17,.09-.34,.25-.34s.25,.11,.25,.32v.76h.76c.16,0,.34,.1,.34,.25s-.17,.25-.34,.25h-.76v.75c0,.17-.09,.32-.25,.32s-.25-.15-.25-.32v-.75h-.75c-.16,0-.34-.09-.34-.25s.11-.25,.34-.25h.75v-.75Zm2.39-3.51c0-.36,.17-.54,.55-.54h1.4c.85,0,1.25,.52,1.25,1.37,0,.59-.11,1.01-.65,1.25,.22,.06,.4,.21,.5,.41,.11,.43,.15,.88,.11,1.33,0,.39,.08,.49,.08,.84,0,.15-.14,.32-.49,.32s-.6-.14-.61-.51v-1.39c.02-.29-.19-.54-.48-.57-.04,0-.08,0-.12,0h-.44v1.95c.04,.28-.15,.54-.43,.59-.28,.04-.54-.15-.59-.43,0-.05,0-.11,0-.16l-.09-4.47Zm1.01,1.75h.39c.55,0,.7-.31,.7-.76s-.15-.77-.65-.77h-.44v1.54Z" fill="#fff"/><path d="M32.14,10.84c.05,.15,.2,.25,.36,.25,.21,0,.24-.06,.51-.24l2.5-2.1c.22-.19,.49-.32,.77-.37h.48c.14,0,.24,0,.24,.17,0,.07-.03,.13-.08,.17l-3.29,2.75c-.46,.37-.88,.79-1.25,1.25l-1.25,2.7c-.07,.17-.24,.29-.43,.29h-.46c-.15,0-.25,0-.25-.24,0-.05,0-.11,0-.16,.15-.31,1.31-2.85,1.38-3,.02-.1,.02-.2,0-.3,0-.25-.07-.5-.19-.72l-1.09-2.66s0-.08,0-.13c0-.12,.1-.21,.21-.21h.35c.24,.01,.44,.17,.53,.39l.95,2.16Zm1.85-1.78c0,.43-.35,.79-.79,.79s-.79-.35-.79-.79,.35-.79,.79-.79,.79,.35,.79,.79Zm1.25,3.92s0,.17,.17,.17c.09,0,.18-.03,.25-.07l1.36-1.14c.14-.11,.3-.18,.48-.2h.32c.08,0,.17,0,.17,.14s0,.1-.1,.16l-1.64,1.45c-.24,.2-.46,.42-.65,.66l-.68,1.39c-.09,.15-.24,.24-.41,.24h-.43c-.11,0-.17-.06-.17-.17-.01-.06-.01-.13,0-.19l.68-1.48c.01-.06,.01-.12,0-.17-.01-.14-.05-.27-.1-.4l-.56-1.36s0-.09,0-.14c0-.11,.09-.14,.19-.14h.24c.16-.01,.32,.07,.4,.21l.48,1.04Zm1.11-1.04c0,.29-.24,.53-.53,.53s-.52-.24-.52-.53,.24-.53,.53-.53h0c.29,0,.52,.24,.52,.53Z" fill="#fff"/><path d="M31.01,21.96c.17,0,.34,.05,.49,.14l5.99,3.07c.31,.17,.5,.47,.51,.81,0,.34-.21,.65-.54,.81l-5.96,3.07c-.15,.09-.31,.14-.49,.14-.58-.01-1.04-.46-1.04-1v-6.05c0-.54,.46-.98,1.04-1Zm.2,1c-.12,.01-.21,.1-.21,.21v5.53c0,.11,.09,.2,.21,.21h0l5.66-2.82s.12-.06,.12-.12,0-.1-.12-.12c-3.66-1.91-5.57-2.9-5.66-2.9Z" fill="#fff"/></g><g id="Layer_3"><rect x="6.5" y="34.5" width="17" height="14" rx="1" ry="1" fill="#fff" opacity=".5" stroke="#fff" stroke-linejoin="round" stroke-width="3"/><path d="M6.5,37.5H23.5v10c0,.55-.45,1-1,1H7.5c-.55,0-1-.45-1-1v-10h0Z" fill="url(#linear-gradient-3)" stroke="#323232" stroke-linejoin="round"/><g><path d="M12,46l-4-2.35v-1.3l4-2.34v1.54l-2.55,1.44,2.55,1.5v1.52Z" fill="url(#linear-gradient-4)"/><path d="M13,47l2.53-8h1.47l-2.56,8h-1.44Z" fill="url(#linear-gradient-5)"/><path d="M18,46v-1.53l2.55-1.49-2.55-1.47v-1.51l4,2.34v1.29l-4,2.36Z" fill="url(#linear-gradient-6)"/></g><path d="M7.5,34.5h15c.55,0,1,.45,1,1v2H6.5v-2c0-.55,.45-1,1-1Z" fill="url(#linear-gradient-7)" stroke="#003755" stroke-linejoin="round"/></g><g id="Layer_4"><g><g><path d="M53.86,50.25c0,.3,.05,.59,.16,.87,.11,.28,.28,.54,.52,.77l.8,.8c-.74,1.03-1.62,1.92-2.65,2.65l-.8-.8c-.23-.24-.49-.41-.77-.52-.28-.11-.57-.16-.87-.16-.31,0-.61,.05-.89,.16-.28,.11-.53,.27-.75,.48-.22,.21-.4,.46-.53,.75s-.2,.61-.2,.95v1.13c-.31,.05-.63,.09-.94,.12-.31,.03-.63,.05-.94,.05s-.63-.01-.94-.05c-.31-.03-.63-.07-.94-.12v-1.13c0-.34-.07-.66-.2-.95-.13-.29-.31-.54-.53-.75s-.47-.37-.76-.48c-.29-.11-.58-.16-.88-.16s-.59,.05-.87,.16c-.28,.11-.54,.28-.77,.52l-.8,.8c-1.03-.74-1.92-1.62-2.65-2.65l.8-.8c.23-.24,.41-.49,.52-.77,.11-.28,.16-.57,.16-.87s-.06-.59-.16-.88-.27-.54-.48-.76c-.21-.22-.46-.39-.75-.53-.29-.13-.61-.2-.95-.2h-1.13c-.05-.31-.09-.63-.12-.94-.03-.31-.05-.63-.05-.94s.01-.63,.05-.94c.03-.31,.07-.63,.12-.94h1.13c.34,0,.66-.07,.95-.2,.29-.13,.54-.31,.75-.53,.21-.22,.37-.47,.48-.75,.11-.28,.16-.58,.16-.89s-.06-.59-.16-.87-.28-.54-.52-.77l-.8-.8c.74-1.03,1.62-1.92,2.65-2.65l.8,.8c.23,.24,.49,.41,.77,.52,.28,.11,.57,.16,.87,.16s.59-.05,.88-.16c.29-.11,.54-.27,.76-.48s.39-.46,.53-.74c.13-.28,.2-.6,.2-.96v-1.13c.31-.05,.63-.09,.94-.12,.31-.03,.63-.05,.94-.05s.63,.02,.94,.05c.31,.03,.63,.07,.94,.12v1.13c0,.36,.07,.69,.2,.97,.13,.29,.31,.54,.53,.74,.22,.2,.47,.36,.75,.47,.28,.11,.58,.16,.89,.16,.28,0,.57-.05,.86-.15,.29-.1,.55-.27,.79-.5l.8-.82c1.03,.74,1.92,1.62,2.65,2.65l-.8,.8c-.23,.24-.41,.49-.52,.77-.11,.28-.16,.57-.16,.87,0,.31,.05,.61,.16,.89,.11,.28,.27,.53,.48,.75,.21,.22,.46,.39,.74,.53,.28,.13,.6,.2,.96,.2h1.13c.05,.31,.09,.63,.12,.94,.03,.31,.05,.63,.05,.94s-.02,.63-.05,.94c-.03,.31-.07,.63-.12,.94h-1.13c-.36,0-.68,.07-.96,.2-.28,.13-.53,.31-.74,.53-.21,.22-.37,.47-.48,.76-.11,.29-.16,.58-.16,.88Zm-7.86-.75c.48,0,.93-.09,1.36-.28s.8-.44,1.11-.75c.32-.32,.57-.69,.75-1.11,.18-.43,.28-.88,.28-1.36s-.09-.93-.28-1.36c-.19-.43-.44-.8-.75-1.11-.32-.32-.69-.57-1.11-.75s-.88-.28-1.36-.28-.93,.09-1.36,.28c-.43,.19-.8,.44-1.11,.75-.32,.32-.57,.69-.75,1.11-.18,.43-.28,.88-.28,1.36s.09,.93,.28,1.36c.19,.43,.44,.8,.75,1.11,.32,.32,.69,.57,1.11,.75,.43,.19,.88,.28,1.36,.28Z" fill="#fff" opacity=".7" stroke="#fff" stroke-linejoin="round" stroke-width="3"/><path d="M53.86,50.25c0,.3,.05,.59,.16,.87,.11,.28,.28,.54,.52,.77l.8,.8c-.74,1.03-1.62,1.92-2.65,2.65l-.8-.8c-.23-.24-.49-.41-.77-.52-.28-.11-.57-.16-.87-.16-.31,0-.61,.05-.89,.16-.28,.11-.53,.27-.75,.48-.22,.21-.4,.46-.53,.75s-.2,.61-.2,.95v1.13c-.31,.05-.63,.09-.94,.12-.31,.03-.63,.05-.94,.05s-.63-.01-.94-.05c-.31-.03-.63-.07-.94-.12v-1.13c0-.34-.07-.66-.2-.95-.13-.29-.31-.54-.53-.75s-.47-.37-.76-.48c-.29-.11-.58-.16-.88-.16s-.59,.05-.87,.16c-.28,.11-.54,.28-.77,.52l-.8,.8c-1.03-.74-1.92-1.62-2.65-2.65l.8-.8c.23-.24,.41-.49,.52-.77,.11-.28,.16-.57,.16-.87s-.06-.59-.16-.88-.27-.54-.48-.76c-.21-.22-.46-.39-.75-.53-.29-.13-.61-.2-.95-.2h-1.13c-.05-.31-.09-.63-.12-.94-.03-.31-.05-.63-.05-.94s.01-.63,.05-.94c.03-.31,.07-.63,.12-.94h1.13c.34,0,.66-.07,.95-.2,.29-.13,.54-.31,.75-.53,.21-.22,.37-.47,.48-.75,.11-.28,.16-.58,.16-.89s-.06-.59-.16-.87-.28-.54-.52-.77l-.8-.8c.74-1.03,1.62-1.92,2.65-2.65l.8,.8c.23,.24,.49,.41,.77,.52,.28,.11,.57,.16,.87,.16s.59-.05,.88-.16c.29-.11,.54-.27,.76-.48s.39-.46,.53-.74c.13-.28,.2-.6,.2-.96v-1.13c.31-.05,.63-.09,.94-.12,.31-.03,.63-.05,.94-.05s.63,.02,.94,.05c.31,.03,.63,.07,.94,.12v1.13c0,.36,.07,.69,.2,.97,.13,.29,.31,.54,.53,.74,.22,.2,.47,.36,.75,.47,.28,.11,.58,.16,.89,.16,.28,0,.57-.05,.86-.15,.29-.1,.55-.27,.79-.5l.8-.82c1.03,.74,1.92,1.62,2.65,2.65l-.8,.8c-.23,.24-.41,.49-.52,.77-.11,.28-.16,.57-.16,.87,0,.31,.05,.61,.16,.89,.11,.28,.27,.53,.48,.75,.21,.22,.46,.39,.74,.53,.28,.13,.6,.2,.96,.2h1.13c.05,.31,.09,.63,.12,.94,.03,.31,.05,.63,.05,.94s-.02,.63-.05,.94c-.03,.31-.07,.63-.12,.94h-1.13c-.36,0-.68,.07-.96,.2-.28,.13-.53,.31-.74,.53-.21,.22-.37,.47-.48,.76-.11,.29-.16,.58-.16,.88Zm-7.86-.75c.48,0,.93-.09,1.36-.28s.8-.44,1.11-.75c.32-.32,.57-.69,.75-1.11,.18-.43,.28-.88,.28-1.36s-.09-.93-.28-1.36c-.19-.43-.44-.8-.75-1.11-.32-.32-.69-.57-1.11-.75s-.88-.28-1.36-.28-.93,.09-1.36,.28c-.43,.19-.8,.44-1.11,.75-.32,.32-.57,.69-.75,1.11-.18,.43-.28,.88-.28,1.36s.09,.93,.28,1.36c.19,.43,.44,.8,.75,1.11,.32,.32,.69,.57,1.11,.75,.43,.19,.88,.28,1.36,.28Z" fill="url(#linear-gradient)" stroke="#323232" stroke-linejoin="round"/></g><g opacity=".2"><path d="M38.44,40.7c.07,.18,.12,.37,.15,.56,.03-.17,.05-.34,.05-.51,0-.36-.07-.71-.2-1.05-.13-.34-.34-.66-.63-.95l-.02-.02c-.16,.18-.32,.34-.47,.53l.49,.49c.28,.28,.49,.6,.63,.95Z"/><path d="M53.56,39.7c-.13,.34-.2,.69-.2,1.05,0,.17,.02,.34,.05,.51,.03-.19,.08-.38,.15-.56,.13-.34,.34-.66,.63-.94l.49-.49c-.15-.19-.31-.36-.47-.53l-.03,.03c-.28,.29-.5,.6-.63,.94Z"/><path d="M56.96,45.89c-.02,.16-.04,.33-.06,.49h-.69c-.44,0-.83,.08-1.18,.25-.34,.16-.63,.37-.89,.63-.26,.27-.46,.58-.59,.93-.13,.34-.2,.7-.2,1.06,0,.17,.02,.33,.05,.5,.03-.19,.08-.37,.15-.55,.13-.35,.33-.66,.59-.93,.25-.26,.55-.47,.89-.63,.34-.16,.74-.25,1.18-.25h.69c.02-.16,.04-.33,.06-.49,.03-.3,.04-.59,.04-.89,0-.17-.02-.33-.02-.5,0,.13,0,.26-.02,.39Z"/><path d="M38.44,49.19c.07,.18,.12,.37,.15,.55,.03-.16,.05-.33,.05-.5,0-.35-.07-.71-.2-1.06-.13-.35-.33-.67-.59-.93-.25-.26-.56-.48-.9-.63-.35-.16-.74-.25-1.16-.25h-.69c-.02-.16-.04-.33-.06-.49-.01-.13-.01-.26-.02-.39,0,.17-.02,.33-.02,.5,0,.3,.01,.59,.04,.89,.02,.16,.04,.33,.06,.49h.69c.42,0,.81,.08,1.16,.25,.35,.16,.65,.37,.9,.63,.26,.27,.46,.58,.59,.93Z"/><path d="M52.74,53.68l-.49-.49c-.28-.29-.6-.5-.95-.63-.69-.27-1.47-.26-2.12,0-.34,.13-.65,.33-.92,.59-.26,.26-.48,.56-.64,.9-.16,.35-.25,.74-.25,1.16v.69c-.16,.02-.33,.04-.49,.05-.59,.06-1.18,.06-1.78,0-.16-.02-.32-.03-.49-.05v-.69c0-.41-.08-.8-.25-1.16-.16-.34-.37-.65-.64-.9-.27-.26-.58-.46-.93-.59-.69-.26-1.44-.26-2.11,0-.35,.13-.67,.35-.95,.63l-.49,.49c-.54-.42-1.02-.9-1.48-1.41l-.47,.47c.56,.73,1.22,1.38,1.95,1.95l.49-.49c.28-.28,.6-.5,.95-.63,.67-.26,1.42-.26,2.11,0,.35,.13,.66,.33,.93,.59,.26,.26,.48,.56,.64,.9,.16,.36,.25,.75,.25,1.16v.69c.16,.02,.32,.04,.49,.05,.6,.06,1.18,.06,1.78,0,.16-.02,.33-.03,.49-.05v-.69c0-.42,.08-.81,.25-1.16,.16-.34,.37-.65,.64-.9,.27-.26,.58-.46,.92-.59,.66-.26,1.43-.27,2.12,0,.34,.13,.66,.34,.95,.63l.49,.49c.73-.56,1.38-1.22,1.95-1.95l-.47-.47c-.45,.51-.94,.99-1.48,1.41Z"/></g><g opacity=".3"><path d="M53.56,42.82c-.07-.18-.12-.37-.15-.56-.03,.16-.05,.33-.05,.49,0,.38,.07,.74,.2,1.07,.13,.34,.33,.65,.59,.92,.25,.26,.55,.47,.89,.63,.35,.16,.74,.25,1.18,.25h.69c.02,.16,.04,.33,.06,.49,.01,.13,.01,.26,.02,.39,0-.17,.02-.33,.02-.5,0-.3-.01-.59-.04-.89-.02-.16-.04-.33-.06-.49h-.69c-.43,0-.83-.08-1.18-.25-.34-.16-.63-.37-.89-.63-.26-.27-.46-.58-.59-.92Z" fill="#fff"/><path d="M39.26,38.32l.49,.49c.28,.29,.6,.5,.95,.63,.68,.26,1.42,.26,2.11,0,.35-.13,.67-.33,.94-.59,.26-.25,.47-.55,.63-.88,.17-.35,.25-.75,.25-1.18v-.69c.16-.02,.33-.04,.49-.05,.59-.06,1.18-.06,1.78,0,.16,.01,.32,.03,.49,.05v.69c0,.43,.08,.83,.25,1.18,.16,.35,.38,.65,.64,.9,.27,.25,.57,.44,.91,.57,.64,.25,1.38,.27,2.1,.02,.36-.13,.69-.33,.98-.63l.49-.51c.54,.42,1.02,.9,1.47,1.41l.47-.47c-.56-.73-1.21-1.38-1.94-1.94l-.49,.51c-.29,.29-.62,.5-.98,.63-.71,.25-1.45,.23-2.1-.02-.34-.13-.64-.32-.91-.57-.26-.24-.48-.54-.64-.9-.16-.35-.25-.75-.25-1.18v-.69c-.16-.02-.32-.04-.49-.05-.6-.06-1.19-.06-1.78,0-.17,.02-.33,.03-.49,.05v.69c0,.43-.08,.83-.25,1.18-.16,.33-.37,.63-.63,.88-.27,.26-.58,.46-.94,.59-.68,.26-1.43,.26-2.11,0-.34-.13-.66-.34-.95-.63l-.49-.49c-.73,.56-1.38,1.22-1.95,1.95l.47,.47c.45-.51,.94-.99,1.48-1.41Z" fill="#fff"/><path d="M53.56,51.3c-.07-.18-.12-.36-.15-.55-.03,.17-.05,.33-.05,.5,0,.36,.07,.71,.2,1.05,.13,.34,.34,.66,.63,.95l.02,.02c.16-.18,.32-.34,.47-.53l-.49-.49c-.29-.29-.5-.6-.63-.95Z" fill="#fff"/><path d="M38.44,52.3c.13-.34,.2-.69,.2-1.05,0-.17-.02-.34-.05-.5-.03,.19-.08,.37-.15,.55-.13,.35-.34,.66-.63,.95l-.49,.49c.14,.19,.31,.36,.47,.53l.03-.03c.28-.28,.49-.6,.63-.95Z" fill="#fff"/><path d="M35.04,46.11c.02-.16,.04-.33,.06-.49h.69c.41,0,.8-.08,1.16-.25,.35-.16,.65-.37,.9-.63,.26-.27,.45-.58,.59-.92,.13-.34,.2-.7,.2-1.07,0-.17-.02-.33-.05-.49-.03,.19-.08,.38-.15,.56-.13,.34-.33,.65-.59,.92-.25,.26-.56,.48-.9,.63-.36,.16-.75,.25-1.16,.25h-.69c-.02,.16-.04,.33-.06,.49-.03,.3-.04,.59-.04,.89,0,.17,.02,.33,.02,.5,0-.13,0-.26,.02-.39Z" fill="#fff"/></g><path d="M46,41c-2.76,0-5,2.24-5,5s2.24,5,5,5,5-2.24,5-5-2.24-5-5-5Zm0,9c-2.21,0-4-1.79-4-4s1.79-4,4-4,4,1.79,4,4-1.79,4-4,4Z" fill="url(#linear-gradient-8)" opacity=".3"/></g></g></svg>