<?xml version="1.0" encoding="UTF-8"?>
<svg xmlns="http://www.w3.org/2000/svg" xmlns:xlink="http://www.w3.org/1999/xlink" viewBox="0 0 64 64">
  <defs>
    <linearGradient id="d" x1="15.29" y1="10.87" x2="29.67" y2="35.77" gradientUnits="userSpaceOnUse">
      <stop offset="0" stop-color="#fff"/>
      <stop offset="1" stop-color="#d2d2d2"/>
    </linearGradient>
    <linearGradient id="g" data-name="Dégradé sans nom 2" x1="27.51" y1="27.29" x2="40.88" y2="50.46" gradientUnits="userSpaceOnUse">
      <stop offset=".31" stop-color="#d7d7d7"/>
      <stop offset=".51" stop-color="#d3d3d3"/>
      <stop offset=".67" stop-color="#c9c9c9"/>
      <stop offset=".81" stop-color="#b8b8b8"/>
      <stop offset=".95" stop-color="#a1a1a1"/>
      <stop offset="1" stop-color="#969696"/>
    </linearGradient>
    <linearGradient id="h" x1="27.95" y1="27.04" x2="40.46" y2="48.71" xlink:href="#d"/>
    <linearGradient id="i" data-name="Dégradé sans nom 2" x1="4.17" y1="18.86" x2="13.65" y2="35.29" xlink:href="#g"/>
    <linearGradient id="j" x1="15.59" y1="11.27" x2="29.4" y2="35.19" xlink:href="#d"/>
    <linearGradient id="k" x1="15.59" y1="11.27" x2="29.4" y2="35.19" xlink:href="#d"/>
    <linearGradient id="l" data-name="Dégradé sans nom 2" x1="15.59" y1="11.27" x2="29.4" y2="35.19" xlink:href="#g"/>
    <linearGradient id="m" x1="17.64" y1="16.97" x2="25.3" y2="30.22" gradientUnits="userSpaceOnUse">
      <stop offset="0" stop-color="#3287af"/>
      <stop offset="1" stop-color="#285a78"/>
    </linearGradient>
    <linearGradient id="n" x1="13.63" y1="25.21" x2="17.72" y2="32.28" xlink:href="#m"/>
    <linearGradient id="o" x1="25.26" y1="19.03" x2="30.98" y2="28.94" xlink:href="#m"/>
    <linearGradient id="p" x1="33.58" y1="24.71" x2="35.52" y2="28.07" xlink:href="#m"/>
    <linearGradient id="q" x1="14.5" y1="23.42" x2="35.5" y2="23.42" gradientUnits="userSpaceOnUse">
      <stop offset="0" stop-color="#464646"/>
      <stop offset="1" stop-color="#141414"/>
    </linearGradient>
    <linearGradient id="r" x1="14.65" y1="13.55" x2="24.74" y2="31.02" gradientUnits="userSpaceOnUse">
      <stop offset="0" stop-color="#fff"/>
      <stop offset="1" stop-color="#fff" stop-opacity="0"/>
    </linearGradient>
    <linearGradient id="t" x1="32.85" y1="20.76" x2="48.3" y2="47.52" gradientUnits="userSpaceOnUse">
      <stop offset="0" stop-color="#8dd7f4"/>
      <stop offset="1" stop-color="#386e8c"/>
    </linearGradient>
    <radialGradient id="u" cx="40.19" cy="22.52" fx="56.6" fy="22.52" r="20.6" gradientTransform="translate(83.27 -7.61) rotate(104.88) scale(1 1.51)" gradientUnits="userSpaceOnUse">
      <stop offset="0" stop-color="#000" stop-opacity="0"/>
      <stop offset=".97" stop-color="#000" stop-opacity=".93"/>
      <stop offset="1" stop-color="#000"/>
    </radialGradient>
    <linearGradient id="w" x1="50.76" y1="31.26" x2="37.96" y2="32.66" gradientUnits="userSpaceOnUse">
      <stop offset="0" stop-color="#333"/>
      <stop offset=".31" stop-color="#fff"/>
      <stop offset=".47" stop-color="#fcfcfc"/>
      <stop offset=".57" stop-color="#f4f4f4"/>
      <stop offset=".64" stop-color="#e5e5e5"/>
      <stop offset=".71" stop-color="#d1d1d1"/>
      <stop offset=".77" stop-color="#b7b7b7"/>
      <stop offset=".83" stop-color="#979797"/>
      <stop offset=".88" stop-color="#717171"/>
      <stop offset=".93" stop-color="#444"/>
      <stop offset=".98" stop-color="#141414"/>
      <stop offset="1" stop-color="#000"/>
    </linearGradient>
    <mask id="v" data-name="mask" x="36" y="27" width="18" height="10" maskUnits="userSpaceOnUse">
      <polygon points="54 28 54 33 39 37 36 30 49 27 54 28" fill="url(#w)"/>
    </mask>
    <linearGradient id="x" x1="44.97" y1="28.9" x2="46.45" y2="34.35" gradientUnits="userSpaceOnUse">
      <stop offset=".02" stop-color="#fff" stop-opacity="0"/>
      <stop offset=".03" stop-color="#fff" stop-opacity=".15"/>
      <stop offset=".05" stop-color="#fff" stop-opacity=".35"/>
      <stop offset=".07" stop-color="#fff" stop-opacity=".52"/>
      <stop offset=".1" stop-color="#fff" stop-opacity=".67"/>
      <stop offset=".12" stop-color="#fff" stop-opacity=".79"/>
      <stop offset=".14" stop-color="#fff" stop-opacity=".88"/>
      <stop offset=".17" stop-color="#fff" stop-opacity=".95"/>
      <stop offset=".2" stop-color="#fff" stop-opacity=".99"/>
      <stop offset=".23" stop-color="#fff"/>
      <stop offset=".4" stop-color="#fff" stop-opacity=".76"/>
      <stop offset=".7" stop-color="#fff" stop-opacity=".36"/>
      <stop offset=".9" stop-color="#fff" stop-opacity=".1"/>
      <stop offset="1" stop-color="#fff" stop-opacity="0"/>
    </linearGradient>
  </defs>
  <g id="f" data-name="Laptop">
    <path d="M40.51,29.51l-28.98,7.01-5-19.02c-.23-1.16.58-2.26,1.75-2.38l25.15-2.6c.99-.1,1.9.54,2.14,1.51l4.93,15.49Z" fill="url(#d)" stroke="#787878" stroke-linejoin="round"/>
    <path d="M56.49,38.88c0,.38-.22.76-.63.92l-23.83,9.43c-1.27.5-2.7.32-3.8-.48l-16.7-12.23v1.49c0,.32.15.62.41.81l16.29,11.93c1.1.8,2.54.98,3.8.48l23.81-9.42c.42-.16.63-.54.63-.93l.02-2.03s0,.01,0,.03Z" fill="url(#g)" stroke="#787878" stroke-linejoin="round"/>
    <path d="M40.51,29.51l-28.98,7.01,16.7,12.23c1.1.8,2.54.98,3.8.48l23.83-9.43c.79-.31.86-1.42.1-1.82l-15.45-8.47Z" fill="url(#h)" stroke="#787878" stroke-linejoin="round"/>
    <path d="M6.54,17.49v2.16c0,.9.12,1.79.36,2.66l3.5,12.7c.09.33.27.64.51.88l.63.63-5-19.02Z" fill="url(#i)" stroke="#787878" stroke-linejoin="round"/>
    <path d="M39.87,29.15l-27.98,6.77-4.87-18.52c-.08-.41.01-.84.26-1.18.26-.34.63-.56,1.06-.6l25.14-2.6c.05,0,.11-.01.16-.01.67,0,1.29.47,1.46,1.17l4.77,14.98Z" fill="url(#j)"/>
    <path d="M39.87,29.15l-27.98,6.77-4.87-18.52c-.08-.41.01-.84.26-1.18.26-.34.63-.56,1.06-.6l25.14-2.6c.05,0,.11-.01.16-.01.67,0,1.29.47,1.46,1.17l4.77,14.98Z" fill="url(#k)"/>
    <path d="M35.11,14.17c-.17-.7-.79-1.17-1.46-1.17-.05,0-.11.01-.16.01l-25.14,2.6c-.43.04-.8.26-1.06.6-.25.34-.34.77-.26,1.18l4.87,18.52,27.98-6.77-4.77-14.98ZM8.5,17.1l25.15-2.59,4.31,13.56-24.98,6.04-4.48-17.01Z" fill="url(#l)"/>
    <path d="M56.49,38.88c0-.35-.16-.71-.53-.9l-15.45-8.47-4.93-15.49c-.24-.97-1.16-1.61-2.14-1.51l-25.15,2.6c-1.17.12-1.99,1.23-1.75,2.38v2.16c0,.9.12,1.79.36,2.66l3.5,12.7c.09.33.27.64.51.88l.63.63v1.49c0,.32.15.62.41.81l16.29,11.93c1.1.8,2.54.98,3.8.48l23.81-9.42c.42-.16.63-.54.63-.93l.02-2.03s0,.01,0,.03Z" fill="none" stroke="#323232" stroke-linejoin="round"/>
    <polygon points="40.5 31 15 37 23 43 48 35 40.5 31" fill="#646464" opacity=".5"/>
    <polygon points="42 38 32 41.2 37.5 45 48 41.3 42 38" fill="#646464" opacity=".5"/>
    <polygon points="25.96 29.84 21.37 30.86 17.08 17.29 21.84 16.82 21.85 16.82 25.96 29.84" fill="url(#m)"/>
    <polygon points="12.21 26.03 14 32.5 19.42 31.3 17.53 25.31 12.21 26.03" fill="url(#n)"/>
    <polygon points="24.73 19.33 27.91 29.41 31.56 28.6 28.48 18.83 24.73 19.33" fill="url(#o)"/>
    <polygon points="32.61 25.27 33.52 28.16 36.5 27.5 35.71 24.85 32.61 25.27" fill="url(#p)"/>
    <polyline points="15.5 27.5 20.5 19.5 27.5 21.5 34.5 26.5" fill="none" stroke="url(#q)" stroke-linecap="round" stroke-miterlimit="10" stroke-width="2"/>
    <path d="M24.03,31.43l-11.05,2.68-4.48-17.01,20.52-2.11s4.29,10.71-5,16.45Z" fill="url(#r)" opacity=".6"/>
  </g>
  <g id="s" data-name="Hand">
    <g>
      <path d="M56.5,40.17c0,1.6-.89,3.17-2.44,4.02l-5.26,2.79c-.65.35-1.37.52-2.08.52-.92,0-1.74-.27-2.6-.62l-13.05-4.93c-1-.31-1.57-1.19-1.57-2.17,0-1.25.99-2.27,2.24-2.27.13,0,.51.09,1.14.28,1.35.39,2.49.74,4.76,1.48l-7.47-14.43c-.17-.35-.26-.7-.26-1.07,0-1.25.98-2.27,2.24-2.27.78,0,1.54.42,1.99,1.23l4.07,7.88c.27-.08,10.49-2.94,10.55-2.95.2-.05.62-.13.83-.13,1.25,0,2.45.72,2.98,2.01l3.56,8.92c.23.58.35,1.16.35,1.72Z" fill="#fff" opacity=".5" stroke="#fff" stroke-linejoin="round" stroke-width="3"/>
      <path d="M56.5,40.17c0,1.6-.89,3.17-2.44,4.02l-5.26,2.79c-.65.35-1.37.52-2.08.52-.92,0-1.74-.27-2.6-.62l-13.05-4.93c-1-.31-1.57-1.19-1.57-2.17,0-1.25.99-2.27,2.24-2.27.13,0,.51.09,1.14.28,1.35.39,2.49.74,4.76,1.48l-7.47-14.43c-.17-.35-.26-.7-.26-1.07,0-1.25.98-2.27,2.24-2.27.78,0,1.54.42,1.99,1.23l4.07,7.88c.27-.08,10.49-2.94,10.55-2.95.2-.05.62-.13.83-.13,1.25,0,2.45.72,2.98,2.01l3.56,8.92c.23.58.35,1.16.35,1.72Z" fill="url(#t)"/>
      <path d="M56.5,40.17c0,1.6-.89,3.17-2.44,4.02l-5.26,2.79c-.65.35-1.37.52-2.08.52-.92,0-1.74-.27-2.6-.62l-13.05-4.93c-1-.31-1.57-1.19-1.57-2.17,0-1.25.99-2.27,2.24-2.27.13,0,.51.09,1.14.28,1.35.39,2.49.74,4.76,1.48l-7.47-14.43c-.17-.35-.26-.7-.26-1.07,0-1.25.98-2.27,2.24-2.27.78,0,1.54.42,1.99,1.23l4.07,7.88c.27-.08,10.49-2.94,10.55-2.95.2-.05.62-.13.83-.13,1.25,0,2.45.72,2.98,2.01l3.56,8.92c.23.58.35,1.16.35,1.72Z" fill="url(#u)" opacity=".3"/>
      <g opacity=".3">
        <path d="M32.16,23c.64,0,1.21.36,1.54.96l4.07,7.88c.11.21.35.32.58.25.35-.1,10.4-2.91,10.53-2.95.23-.05.58-.12.72-.12,1.11,0,2.1.67,2.52,1.7l3.56,8.92c.15.38.23.74.27,1.11.03-.19.04-.38.04-.58,0-.49-.11-1.01-.32-1.53l-3.56-8.92c-.42-1.03-1.41-1.7-2.52-1.7-.13,0-.49.06-.72.12-.13.04-10.18,2.85-10.53,2.95-.23.06-.47-.04-.58-.25l-4.07-7.88c-.33-.6-.91-.96-1.54-.96-.98,0-1.74.78-1.74,1.77,0,.17.03.34.08.5.21-.74.86-1.27,1.67-1.27Z" fill="#fff"/>
        <path d="M31.74,39.01s.23.03,1.01.26c1.27.37,2.4.71,4.75,1.47.19.06.4,0,.54-.15s.16-.37.06-.55l-.19-.37c-.12.08-.27.12-.41.07-2.35-.76-3.48-1.1-4.75-1.47-.78-.23-.97-.25-1.01-.26-.97,0-1.74.78-1.74,1.77,0,.18.03.35.07.51.21-.74.86-1.28,1.66-1.28Z" fill="#fff"/>
      </g>
      <g mask="url(#v)">
        <polygon points="54 28 54 33 39 37 36 30 49 27 54 28" fill="url(#x)" opacity=".4"/>
      </g>
      <path d="M56.5,40.17c0,1.6-.89,3.17-2.44,4.02l-5.26,2.79c-.65.35-1.37.52-2.08.52-.92,0-1.74-.27-2.6-.62l-13.05-4.93c-1-.31-1.57-1.19-1.57-2.17,0-1.25.99-2.27,2.24-2.27.13,0,.51.09,1.14.28,1.35.39,2.49.74,4.76,1.48l-7.47-14.43c-.17-.35-.26-.7-.26-1.07,0-1.25.98-2.27,2.24-2.27.78,0,1.54.42,1.99,1.23l4.07,7.88c.27-.08,10.49-2.94,10.55-2.95.2-.05.62-.13.83-.13,1.25,0,2.45.72,2.98,2.01l3.56,8.92c.23.58.35,1.16.35,1.72Z" fill="none" stroke="#053755" stroke-linejoin="round"/>
    </g>
  </g>
</svg>