<?xml version="1.0" encoding="UTF-8"?>
<svg xmlns="http://www.w3.org/2000/svg" xmlns:xlink="http://www.w3.org/1999/xlink" viewBox="0 0 64 64">
  <defs>
    <linearGradient id="a" x1="30" y1="55.28" x2="35.44" y2="55.28" gradientUnits="userSpaceOnUse">
      <stop offset="0" stop-color="#464646"/>
      <stop offset="1" stop-color="#141414"/>
    </linearGradient>
    <linearGradient id="g" x1="20.63" y1="12.31" x2="43.37" y2="51.69" gradientUnits="userSpaceOnUse">
      <stop offset="0" stop-color="#3287af"/>
      <stop offset="1" stop-color="#285a78"/>
    </linearGradient>
    <linearGradient id="i" data-name="Dégradé sans nom 4" x1="50.16" y1="32.4" x2="55.36" y2="37.6" gradientUnits="userSpaceOnUse">
      <stop offset=".12" stop-color="#aaa"/>
      <stop offset=".93" stop-color="#5a5a5a"/>
    </linearGradient>
    <linearGradient id="j" data-name="Dégradé sans nom 3" x1="49.2" y1="33.23" x2="54.79" y2="38.99" gradientUnits="userSpaceOnUse">
      <stop offset=".11" stop-color="#f5f5f5"/>
      <stop offset=".83" stop-color="#bebebe"/>
    </linearGradient>
    <linearGradient id="k" data-name="Dégradé sans nom 2" x1="32.07" y1="49.7" x2="37.21" y2="55.91" gradientUnits="userSpaceOnUse">
      <stop offset=".28" stop-color="#fff"/>
      <stop offset=".8" stop-color="#d4d5d3"/>
    </linearGradient>
    <linearGradient id="l" x1="41.44" y1="40.91" x2="45.64" y2="45.44" gradientUnits="userSpaceOnUse">
      <stop offset="0" stop-color="#8cd7f5"/>
      <stop offset="1" stop-color="#376e8c"/>
    </linearGradient>
  </defs>
  <g id="e" data-name="Ontology">
    <g id="f" data-name="BKG">
      <path d="M32,10.02c-.68,0-1.36.17-1.97.51l-15.95,9.01c-1.29.73-2.08,2.09-2.08,3.55v17.79c0,1.46.8,2.82,2.08,3.55l15.95,9.01c1.21.69,2.72.69,3.94,0l15.95-9.01c1.29-.73,2.08-2.09,2.08-3.55v-17.79c0-1.46-.8-2.82-2.08-3.55l-15.95-9.01c-.61-.34-1.29-.51-1.97-.51Z" fill="#fff" opacity=".3"/>
      <path d="M50.9,46.19l-15.95,9.01c-1.83,1.04-4.07,1.04-5.91,0l-15.95-9.01c-1.92-1.08-3.1-3.1-3.1-5.29v-17.79c0-2.19,1.18-4.21,3.1-5.29l15.95-9.01c1.83-1.04,4.07-1.04,5.91,0l15.95,9.01c1.92,1.08,3.1,3.1,3.1,5.29v17.79c0,2.19-1.18,4.21-3.1,5.29Z" fill="none" stroke="url(#g)" stroke-miterlimit="10" stroke-width="2"/>
    </g>
    <g>
      <path d="M41.51,36.7s-1.39-.66-1.39-5.25c0-3.76,1.18-4.39,1.22-4.42s.8-.64.77-.61c0,0,0,0,0,0,1.76-1.41,2.15-3.47,2.15-4.56,0-3.12-2.46-5.85-5.72-5.85s-5.76,2.7-5.72,5.9c.03,1.22.02.8.02.89,0,1.91-4.44,5-7.01,5-.83,0-1.22-.27-1.22-.27-.56-.18-1.44-.72-2.88-.72-3.06,0-5.73,2.52-5.73,5.84s2.6,5.85,5.72,5.85c1.07,0,2.11-.3,3.02-.88.68-.49,1.04-.62,1.7-.62,2.34,0,7.14,2.58,7.14,5.15,0,3.12,2.45,5.85,5.71,5.85,2.48,0,5.73-1.99,5.73-5.84s-3.35-5.29-3.49-5.45ZM36.9,36.84c-.5.23-.97.54-1.39.92-2,.72-7.74-2.42-8.09-4.62.07-.78-.05-1.33-.05-1.53,0-1.71,4.82-5.03,7.29-5.03.98,0,.73.41,2.26.87.83.81,1.29,2.72,1.29,5.06,0,2.81-.84,3.92-1.3,4.33Z" fill="#fff" opacity=".5" stroke="#fff" stroke-linejoin="round" stroke-width="2"/>
      <path d="M41.51,36.7s-1.39-.66-1.39-5.25c0-3.76,1.18-4.39,1.22-4.42s.8-.64.77-.61c0,0,0,0,0,0,1.76-1.41,2.15-3.47,2.15-4.56,0-3.12-2.46-5.85-5.72-5.85s-5.76,2.7-5.72,5.9c.03,1.22.02.8.02.89,0,1.91-4.44,5-7.01,5-.83,0-1.22-.27-1.22-.27-.56-.18-1.44-.72-2.88-.72-3.06,0-5.73,2.52-5.73,5.84s2.6,5.85,5.72,5.85c1.07,0,2.11-.3,3.02-.88.68-.49,1.04-.62,1.7-.62,2.34,0,7.14,2.58,7.14,5.15,0,3.12,2.45,5.85,5.71,5.85,2.48,0,5.73-1.99,5.73-5.84s-3.35-5.29-3.49-5.45ZM36.9,36.84c-.5.23-.97.54-1.39.92-2,.72-7.74-2.42-8.09-4.62.07-.78-.05-1.33-.05-1.53,0-1.71,4.82-5.03,7.29-5.03.98,0,.73.41,2.26.87.83.81,1.29,2.72,1.29,5.06,0,2.81-.84,3.92-1.3,4.33Z" fill="#646464" opacity=".5"/>
      <path d="M38.58,16.93c-2.53,0-4.72,2.27-4.72,4.87,0,1.09.39,2.13,1.18,2.89-.39-.38-.59-.97-.59-1.66s.2-1.51.61-2.3c.21-.28.4-.35.59-.35s.39.08.6.08c.66,0,1.19-.56,1.19-1.22,0-.32-.12-.61-.33-.84.9-.6,1.88-.89,2.69-.89.56,0,1.05.14,1.35.42-.72-.67-1.62-1-2.57-1Z" fill="#fff"/>
      <path d="M39.56,37.25c-2.53,0-4.72,2.27-4.72,4.87,0,1.09.39,2.13,1.18,2.89-.39-.38-.59-.97-.59-1.66s.2-1.51.61-2.3c.21-.28.4-.35.59-.35s.39.08.6.08c.66,0,1.19-.56,1.19-1.22,0-.32-.12-.61-.33-.84.9-.6,1.88-.89,2.69-.89.56,0,1.05.14,1.35.42-.72-.67-1.62-1-2.57-1Z" fill="#fff"/>
      <path d="M21.85,27.94c-2.53,0-4.72,2.27-4.72,4.87,0,1.09.39,2.13,1.18,2.89-.39-.38-.59-.97-.59-1.66s.2-1.51.61-2.3c.21-.28.4-.35.59-.35s.39.08.6.08c.66,0,1.19-.56,1.19-1.22,0-.32-.12-.61-.33-.84.9-.6,1.88-.89,2.69-.89.56,0,1.05.14,1.35.42-.72-.67-1.62-1-2.57-1Z" fill="#fff"/>
    </g>
  </g>
  <g id="h" data-name="Edit">
    <g>
      <g opacity=".75">
        <path d="M30.5,58.5c-.27,0-.52-.1-.71-.29-.15-.15-.25-.42-.26-.46-.02-.08-.03-.15,0-.46,0-.04.01-.08.02-.12,0,0,3.51-9.52,3.51-9.52.05-.13.13-.26.23-.36l16.26-16.26c.99-.99,2.31-1.54,3.71-1.54s2.72.54,3.71,1.54c2.04,2.04,2.04,5.37,0,7.41l-16.26,16.26c-.09.09-.2.16-.32.21-.02,0-9.58,3.53-9.58,3.53-.15.04-.23.05-.31.05Z" fill="#fff"/>
        <path d="M53.26,30c1.27,0,2.46.49,3.35,1.39,1.85,1.85,1.85,4.86,0,6.71l-16.26,16.26s-.11.09-.17.11c0,0,0,0,0,0l-9.53,3.51s-.09.02-.14.02c-.13,0-.26-.05-.35-.15-.06-.06-.13-.22-.13-.24,0-.04.01-.29.01-.29h0s0,0,0,0l3.5-9.5c.02-.07.06-.13.12-.18l16.26-16.26c.9-.9,2.09-1.39,3.35-1.39M53.26,29c-1.53,0-2.98.6-4.06,1.68l-16.26,16.26c-.15.15-.27.34-.35.55l-3.5,9.5c-.03.08-.05.17-.06.26-.03.32-.03.46.01.61,0,.01.12.43.39.7.28.28.66.44,1.06.44.12,0,.25-.02.38-.05.03,0,.07-.02.1-.03l9.53-3.51s.06-.03.09-.04c.17-.08.32-.18.45-.31l16.26-16.26c2.24-2.24,2.24-5.88,0-8.12-1.08-1.08-2.53-1.68-4.06-1.68h0Z" fill="#fff"/>
      </g>
      <g>
        <path d="M56.26,31.74c-1.66-1.66-4.34-1.66-6,0l-3.76,3.76,6,6,3.76-3.76c1.66-1.66,1.66-4.34,0-6Z" fill="url(#i)"/>
        <path d="M47.5,34.5l2-2c3.41.93,5.07,2.59,6,6,0,0-2,2-2,2l-6-6Z" fill="url(#j)" stroke="#787878" stroke-linejoin="round"/>
        <path d="M56.26,31.74c-1.66-1.66-4.34-1.66-6,0l-3.76,3.76,6,6,3.76-3.76c1.66-1.66,1.66-4.34,0-6Z" fill="none" stroke="#323232" stroke-linejoin="round"/>
        <polygon points="34 48 30.5 57.5 40 54 42 52 36 46 34 48" fill="url(#k)" stroke="#323232" stroke-linejoin="round"/>
        <path d="M35.44,56.21l-4.77,1.76h-.03s-.09.03-.14.03c-.13,0-.26-.05-.35-.15-.13-.13-.18-.32-.13-.49v-.03s1.77-4.77,1.77-4.77c.24-.01.47,0,.7.04.7.11,1.39.44,1.93.98s.87,1.23.98,1.93c.04.23.05.46.04.7Z" fill="url(#a)"/>
        <path d="M34,48c3.41.93,5.07,2.59,6,6l13.5-13.5c-.93-3.41-2.59-5.07-6-6l-13.5,13.5Z" fill="url(#l)" stroke="#003755" stroke-linejoin="round"/>
        <path d="M50,37l-12.1,12.01c-.64-.49-1.08-.69-1.9-1.01l12.04-11.96c.95.16,1.41.5,1.96.96Z" fill="#fff" opacity=".2"/>
      </g>
    </g>
  </g>
</svg>