<?xml version="1.0" encoding="UTF-8"?>
<svg xmlns="http://www.w3.org/2000/svg" xmlns:xlink="http://www.w3.org/1999/xlink" viewBox="0 0 64 64">
  <defs>
    <linearGradient id="a" x1="38.79" y1="34.24" x2="51.21" y2="55.76" gradientUnits="userSpaceOnUse">
      <stop offset="0" stop-color="#8cd7f5"/>
      <stop offset="1" stop-color="#376e8c"/>
    </linearGradient>
    <linearGradient id="f" x1="20.63" y1="12.31" x2="43.37" y2="51.69" gradientUnits="userSpaceOnUse">
      <stop offset="0" stop-color="#3287af"/>
      <stop offset="1" stop-color="#285a78"/>
    </linearGradient>
    <linearGradient id="h" data-name="Blanc, Noir" x1="39.06" y1="34.71" x2="50.94" y2="55.29" gradientUnits="userSpaceOnUse">
      <stop offset="0" stop-color="#fff"/>
      <stop offset="1" stop-color="#000"/>
    </linearGradient>
    <linearGradient id="i" data-name="Dégradé sans nom 17" x1="42" y1="39.8" x2="48" y2="50.2" gradientUnits="userSpaceOnUse">
      <stop offset="0" stop-color="#376e8c"/>
      <stop offset="1" stop-color="#8cd7f5"/>
    </linearGradient>
  </defs>
  <g id="d" data-name="Ontology">
    <g id="e" data-name="BKG">
      <path d="M32,10.02c-.68,0-1.36.17-1.97.51l-15.95,9.01c-1.29.73-2.08,2.09-2.08,3.55v17.79c0,1.46.8,2.82,2.08,3.55l15.95,9.01c1.21.69,2.72.69,3.94,0l15.95-9.01c1.29-.73,2.08-2.09,2.08-3.55v-17.79c0-1.46-.8-2.82-2.08-3.55l-15.95-9.01c-.61-.34-1.29-.51-1.97-.51Z" fill="#fff" opacity=".3"/>
      <path d="M50.9,46.19l-15.95,9.01c-1.83,1.04-4.07,1.04-5.91,0l-15.95-9.01c-1.92-1.08-3.1-3.1-3.1-5.29v-17.79c0-2.19,1.18-4.21,3.1-5.29l15.95-9.01c1.83-1.04,4.07-1.04,5.91,0l15.95,9.01c1.92,1.08,3.1,3.1,3.1,5.29v17.79c0,2.19-1.18,4.21-3.1,5.29Z" fill="none" stroke="url(#f)" stroke-miterlimit="10" stroke-width="2"/>
    </g>
    <g>
      <path d="M41.51,36.7s-1.39-.66-1.39-5.25c0-3.76,1.18-4.39,1.22-4.42s.8-.64.77-.61c0,0,0,0,0,0,1.76-1.41,2.15-3.47,2.15-4.56,0-3.12-2.46-5.85-5.72-5.85s-5.76,2.7-5.72,5.9c.03,1.22.02.8.02.89,0,1.91-4.44,5-7.01,5-.83,0-1.22-.27-1.22-.27-.56-.18-1.44-.72-2.88-.72-3.06,0-5.73,2.52-5.73,5.84s2.6,5.85,5.72,5.85c1.07,0,2.11-.3,3.02-.88.68-.49,1.04-.62,1.7-.62,2.34,0,7.14,2.58,7.14,5.15,0,3.12,2.45,5.85,5.71,5.85,2.48,0,5.73-1.99,5.73-5.84s-3.35-5.29-3.49-5.45ZM36.9,36.84c-.5.23-.97.54-1.39.92-2,.72-7.74-2.42-8.09-4.62.07-.78-.05-1.33-.05-1.53,0-1.71,4.82-5.03,7.29-5.03.98,0,.73.41,2.26.87.83.81,1.29,2.72,1.29,5.06,0,2.81-.84,3.92-1.3,4.33Z" fill="#fff" opacity=".5" stroke="#fff" stroke-linejoin="round" stroke-width="2"/>
      <path d="M41.51,36.7s-1.39-.66-1.39-5.25c0-3.76,1.18-4.39,1.22-4.42s.8-.64.77-.61c0,0,0,0,0,0,1.76-1.41,2.15-3.47,2.15-4.56,0-3.12-2.46-5.85-5.72-5.85s-5.76,2.7-5.72,5.9c.03,1.22.02.8.02.89,0,1.91-4.44,5-7.01,5-.83,0-1.22-.27-1.22-.27-.56-.18-1.44-.72-2.88-.72-3.06,0-5.73,2.52-5.73,5.84s2.6,5.85,5.72,5.85c1.07,0,2.11-.3,3.02-.88.68-.49,1.04-.62,1.7-.62,2.34,0,7.14,2.58,7.14,5.15,0,3.12,2.45,5.85,5.71,5.85,2.48,0,5.73-1.99,5.73-5.84s-3.35-5.29-3.49-5.45ZM36.9,36.84c-.5.23-.97.54-1.39.92-2,.72-7.74-2.42-8.09-4.62.07-.78-.05-1.33-.05-1.53,0-1.71,4.82-5.03,7.29-5.03.98,0,.73.41,2.26.87.83.81,1.29,2.72,1.29,5.06,0,2.81-.84,3.92-1.3,4.33Z" fill="#646464" opacity=".5"/>
      <path d="M38.58,16.93c-2.53,0-4.72,2.27-4.72,4.87,0,1.09.39,2.13,1.18,2.89-.39-.38-.59-.97-.59-1.66s.2-1.51.61-2.3c.21-.28.4-.35.59-.35s.39.08.6.08c.66,0,1.19-.56,1.19-1.22,0-.32-.12-.61-.33-.84.9-.6,1.88-.89,2.69-.89.56,0,1.05.14,1.35.42-.72-.67-1.62-1-2.57-1Z" fill="#fff"/>
      <path d="M39.56,37.25c-2.53,0-4.72,2.27-4.72,4.87,0,1.09.39,2.13,1.18,2.89-.39-.38-.59-.97-.59-1.66s.2-1.51.61-2.3c.21-.28.4-.35.59-.35s.39.08.6.08c.66,0,1.19-.56,1.19-1.22,0-.32-.12-.61-.33-.84.9-.6,1.88-.89,2.69-.89.56,0,1.05.14,1.35.42-.72-.67-1.62-1-2.57-1Z" fill="#fff"/>
      <path d="M21.85,27.94c-2.53,0-4.72,2.27-4.72,4.87,0,1.09.39,2.13,1.18,2.89-.39-.38-.59-.97-.59-1.66s.2-1.51.61-2.3c.21-.28.4-.35.59-.35s.39.08.6.08c.66,0,1.19-.56,1.19-1.22,0-.32-.12-.61-.33-.84.9-.6,1.88-.89,2.69-.89.56,0,1.05.14,1.35.42-.72-.67-1.62-1-2.57-1Z" fill="#fff"/>
    </g>
  </g>
  <g id="g" data-name="Cog">
    <g>
      <path d="M53.55,49.62c0,.66.24,1.29.74,1.79l.87.87c-.8,1.12-1.76,2.08-2.88,2.88l-.87-.87c-.49-.49-1.12-.74-1.79-.74-1.45,0-2.58,1.14-2.58,2.55v1.22c-.68.1-1.35.18-2.04.18s-1.36-.08-2.04-.18v-1.22c0-1.36-1.07-2.55-2.58-2.55-.67,0-1.29.25-1.79.74l-.87.87c-1.12-.8-2.08-1.76-2.88-2.88l.87-.87c.5-.5.74-1.12.74-1.79,0-1.49-1.18-2.58-2.55-2.58h-1.22c-.1-.69-.18-1.35-.18-2.04s.08-1.35.18-2.04h1.22c1.43,0,2.55-1.14,2.55-2.58,0-.66-.24-1.29-.74-1.79l-.87-.87c.8-1.12,1.76-2.08,2.88-2.88l.87.87c.49.49,1.11.74,1.79.74,1.51,0,2.58-1.2,2.58-2.55v-1.22c.68-.1,1.36-.18,2.04-.18s1.36.08,2.04.18v1.22c0,1.52,1.2,2.55,2.58,2.55.65,0,1.3-.22,1.79-.71l.87-.89c1.12.8,2.08,1.76,2.88,2.88l-.87.87c-.5.49-.74,1.12-.74,1.79,0,1.45,1.14,2.58,2.55,2.58h1.22c.1.69.18,1.35.18,2.04s-.08,1.36-.18,2.04h-1.22c-1.36,0-2.55,1.07-2.55,2.58ZM45,49.5c2.47,0,4.5-2.03,4.5-4.5s-2.03-4.5-4.5-4.5-4.5,2.03-4.5,4.5,2.02,4.5,4.5,4.5Z" fill="#fff" opacity=".75" stroke="#fff" stroke-linejoin="round" stroke-width="3"/>
      <path d="M53.55,49.62c0,.66.24,1.29.74,1.79l.87.87c-.8,1.12-1.76,2.08-2.88,2.88l-.87-.87c-.49-.49-1.12-.74-1.79-.74-1.45,0-2.58,1.14-2.58,2.55v1.22c-.68.1-1.35.18-2.04.18s-1.36-.08-2.04-.18v-1.22c0-1.36-1.07-2.55-2.58-2.55-.67,0-1.29.25-1.79.74l-.87.87c-1.12-.8-2.08-1.76-2.88-2.88l.87-.87c.5-.5.74-1.12.74-1.79,0-1.49-1.18-2.58-2.55-2.58h-1.22c-.1-.69-.18-1.35-.18-2.04s.08-1.35.18-2.04h1.22c1.43,0,2.55-1.14,2.55-2.58,0-.66-.24-1.29-.74-1.79l-.87-.87c.8-1.12,1.76-2.08,2.88-2.88l.87.87c.49.49,1.11.74,1.79.74,1.51,0,2.58-1.2,2.58-2.55v-1.22c.68-.1,1.36-.18,2.04-.18s1.36.08,2.04.18v1.22c0,1.52,1.2,2.55,2.58,2.55.65,0,1.3-.22,1.79-.71l.87-.89c1.12.8,2.08,1.76,2.88,2.88l-.87.87c-.5.49-.74,1.12-.74,1.79,0,1.45,1.14,2.58,2.55,2.58h1.22c.1.69.18,1.35.18,2.04s-.08,1.36-.18,2.04h-1.22c-1.36,0-2.55,1.07-2.55,2.58ZM45,49.5c2.47,0,4.5-2.03,4.5-4.5s-2.03-4.5-4.5-4.5-4.5,2.03-4.5,4.5,2.02,4.5,4.5,4.5Z" fill="url(#a)" stroke="#003755" stroke-linejoin="round"/>
      <g opacity=".3">
        <path d="M56.89,43.46h-.79c-1.71,0-3.05-1.35-3.05-3.08,0-.82.31-1.56.89-2.14l.56-.56c-.63-.82-1.35-1.54-2.17-2.17l-.56.58c-.56.56-1.32.87-2.14.87-1.72,0-3.08-1.34-3.08-3.05v-.79c-.93-.12-2.16-.12-3.08,0v.79c0,1.71-1.35,3.05-3.08,3.05-.82,0-1.56-.31-2.14-.89l-.56-.56c-.82.63-1.55,1.36-2.18,2.18l.56.56c.58.58.89,1.32.89,2.14,0,1.73-1.34,3.08-3.05,3.08h-.79c-.06.47-.11,1-.11,1.54s.05,1.07.11,1.54h.79c1.71,0,3.05,1.35,3.05,3.08,0,.82-.31,1.56-.89,2.14l-.56.56c.63.82,1.36,1.55,2.18,2.18l.56-.56c.58-.58,1.32-.89,2.14-.89,1.72,0,3.08,1.34,3.08,3.05v.79c.93.12,2.14.12,3.08,0v-.79c0-1.71,1.35-3.05,3.08-3.05.82,0,1.56.31,2.14.89l.56.56c.82-.63,1.55-1.36,2.18-2.18l-.56-.56c-.58-.58-.89-1.32-.89-2.14,0-1.73,1.34-3.08,3.05-3.08h.79c.06-.47.11-1,.11-1.54s-.05-1.07-.11-1.54ZM55.98,45.54c-2.22.06-3.94,1.83-3.94,4.08,0,1.05.38,2,1.1,2.76-.24.27-.5.52-.76.76-.76-.72-1.71-1.1-2.76-1.1-2.24,0-4.01,1.71-4.07,3.92-.17,0-.36.01-.54.01s-.37,0-.55-.01c-.07-2.21-1.83-3.92-4.07-3.92-1.05,0-2,.38-2.76,1.1-.27-.24-.52-.5-.76-.76.72-.76,1.1-1.71,1.1-2.76,0-2.25-1.72-4.02-3.94-4.08-.01-.19-.02-.37-.02-.54s0-.35.02-.54c2.22-.06,3.94-1.83,3.94-4.08,0-1.05-.38-2.01-1.1-2.76.24-.27.5-.52.76-.76.76.72,1.71,1.1,2.76,1.1,2.24,0,4.01-1.71,4.07-3.92.18,0,.36-.01.54-.01s.37,0,.54.01c.07,2.21,1.83,3.92,4.07,3.92,1.06,0,2.04-.38,2.78-1.09.26.24.51.49.75.75-.72.76-1.1,1.71-1.1,2.76,0,2.25,1.72,4.02,3.94,4.08.01.19.02.37.02.54s0,.35-.02.54Z" fill="url(#h)"/>
      </g>
      <path d="M45,39c-3.31,0-6,2.69-6,6s2.69,6,6,6,6-2.69,6-6-2.69-6-6-6ZM45,50c-2.76,0-5-2.24-5-5s2.24-5,5-5,5,2.24,5,5-2.24,5-5,5Z" fill="url(#i)"/>
    </g>
  </g>
</svg>