<?xml version="1.0" encoding="UTF-8"?>
<svg xmlns="http://www.w3.org/2000/svg" xmlns:xlink="http://www.w3.org/1999/xlink" viewBox="0 0 80 60">
  <defs>
    <linearGradient id="a" x1="56.27" y1="32.07" x2="67.73" y2="51.93" gradientUnits="userSpaceOnUse">
      <stop offset="0" stop-color="#fff"/>
      <stop offset="1" stop-color="#d4d5d3"/>
    </linearGradient>
    <linearGradient id="c" x1="27.76" y1="11.57" x2="52.5" y2="54.43" xlink:href="#a"/>
    <linearGradient id="f" x1="27.76" y1="11.57" x2="52.5" y2="54.43" xlink:href="#a"/>
    <linearGradient id="g" x1="32.91" y1="2.45" x2="46.82" y2="26.55" gradientUnits="userSpaceOnUse">
      <stop offset="0" stop-color="#8cd7f5"/>
      <stop offset="1" stop-color="#376e8c"/>
    </linearGradient>
    <linearGradient id="h" x1="35.13" y1="6.11" x2="46.56" y2="25.91" gradientUnits="userSpaceOnUse">
      <stop offset="0" stop-color="#3287af"/>
      <stop offset="1" stop-color="#285a78"/>
    </linearGradient>
    <linearGradient id="i" x1="22" y1="24.5" x2="58" y2="24.5" gradientUnits="userSpaceOnUse">
      <stop offset="0" stop-color="#464646"/>
      <stop offset="1" stop-color="#141414"/>
    </linearGradient>
    <linearGradient id="j" y1="33.5" y2="33.5" xlink:href="#i"/>
    <linearGradient id="k" y1="42.5" y2="42.5" xlink:href="#i"/>
    <radialGradient id="l" cx="32.46" cy="23.06" fx="32.46" fy="23.06" r="4" gradientUnits="userSpaceOnUse">
      <stop offset="0" stop-color="#8cd7f5"/>
      <stop offset="1" stop-color="#376e8c"/>
    </radialGradient>
    <radialGradient id="m" cx="45.65" cy="32.13" fx="45.65" fy="32.13" r="4" gradientUnits="userSpaceOnUse">
      <stop offset="0" stop-color="#8cd7f5"/>
      <stop offset="1" stop-color="#376e8c"/>
    </radialGradient>
    <radialGradient id="n" cx="35.46" cy="40.94" fx="35.46" fy="40.94" r="4" gradientUnits="userSpaceOnUse">
      <stop offset="0" stop-color="#8cd7f5"/>
      <stop offset="1" stop-color="#376e8c"/>
    </radialGradient>
    <linearGradient id="p" data-name="Dégradé sans nom 4" x1="62" y1="46.58" x2="62" y2="36.13" gradientUnits="userSpaceOnUse">
      <stop offset="0" stop-color="#000" stop-opacity="0"/>
      <stop offset="1" stop-color="#000"/>
    </linearGradient>
    <linearGradient id="q" data-name="Dégradé sans nom 11" x1="62" y1="46.58" x2="62" y2="36.13" gradientUnits="userSpaceOnUse">
      <stop offset="0" stop-color="#fff"/>
      <stop offset=".29" stop-color="#fff" stop-opacity=".59"/>
      <stop offset=".54" stop-color="#fff" stop-opacity=".27"/>
      <stop offset=".72" stop-color="#fff" stop-opacity=".08"/>
      <stop offset=".8" stop-color="#fff" stop-opacity="0"/>
    </linearGradient>
  </defs>
  <g id="e" data-name="Parameters">
    <path d="M17.5,17.5h45v30c0,1.1-.9,2-2,2H19.5c-1.1,0-2-.9-2-2v-30h0Z" fill="url(#f)" stroke="#323232" stroke-linejoin="round"/>
    <path d="M62,18v29.5c0,.83-.67,1.5-1.5,1.5H19.5c-.68,0-1.25-.45-1.43-1.07.14.05.28.07.43.07h41c.83,0,1.5-.67,1.5-1.5v-28.5h1Z" fill="#646464" opacity=".2"/>
    <path d="M19.5,10.5h41c1.1,0,2,.9,2,2v5H17.5v-5c0-1.1.9-2,2-2Z" fill="url(#g)" stroke="#003755" stroke-linejoin="round"/>
    <g opacity=".5">
      <path d="M62,12.5v4.5H18v-1h43v-4.5c0-.15-.02-.29-.07-.43.62.18,1.07.75,1.07,1.43Z" fill="url(#h)"/>
    </g>
    <rect x="22" y="23" width="36" height="3" rx="1.5" ry="1.5" fill="url(#i)"/>
    <rect x="22" y="32" width="36" height="3" rx="1.5" ry="1.5" fill="url(#j)"/>
    <rect x="22" y="41" width="36" height="3" rx="1.5" ry="1.5" fill="url(#k)"/>
    <path d="M61.93,12.07c-.14-.05-.28-.07-.43-.07H20.5c-.83,0-1.5.67-1.5,1.5v3.5h-1v-4.5c0-.83.67-1.5,1.5-1.5h41c.68,0,1.25.45,1.43,1.07Z" fill="#fff" opacity=".5"/>
    <path d="M19,19v29.5c0,.15.02.29.07.43-.62-.18-1.07-.75-1.07-1.43v-29.5h44v1H19Z" fill="#fff" opacity=".5"/>
    <circle cx="33.5" cy="24.5" r="4" fill="url(#l)" stroke="#003755" stroke-linejoin="round"/>
    <circle cx="46.5" cy="33.5" r="4" fill="url(#m)" stroke="#003755" stroke-linejoin="round"/>
    <circle cx="36.5" cy="42.5" r="4" fill="url(#n)" stroke="#003755" stroke-linejoin="round"/>
  </g>
  <g id="o" data-name="Cog">
    <path d="M69.79,45.39c.24-.54.77-.89,1.37-.89h2.07c.18-.8.27-1.64.27-2.5s-.09-1.7-.27-2.5h-2.07c-.59,0-1.13-.35-1.37-.89,0,0,0-.01,0-.02-.25-.57-.14-1.24.3-1.68l1.4-1.4c-.8-1.18-1.82-2.2-3-3l-1.4,1.4c-.44.44-1.11.56-1.68.3,0,0-.01,0-.02,0-.54-.24-.89-.77-.89-1.37v-2.07c-.8-.18-1.64-.27-2.5-.27s-1.7.09-2.5.27v2.07c0,.59-.35,1.13-.89,1.37,0,0-.01,0-.02,0-.57.25-1.24.14-1.68-.3l-1.4-1.4c-1.18.8-2.2,1.82-3,3l1.4,1.4c.44.44.56,1.11.3,1.68,0,0,0,.01,0,.02-.24.54-.77.89-1.37.89h-2.07c-.18.8-.27,1.64-.27,2.5s.09,1.7.27,2.5h2.07c.59,0,1.13.35,1.37.89,0,0,0,.01,0,.02.25.57.14,1.24-.3,1.68l-1.4,1.4c.8,1.18,1.82,2.2,3,3l1.4-1.4c.44-.44,1.11-.56,1.68-.3,0,0,.01,0,.02,0,.54.24.89.77.89,1.37v2.07c.8.18,1.64.27,2.5.27s1.7-.09,2.5-.27v-2.07c0-.59.35-1.13.89-1.37,0,0,.01,0,.02,0,.57-.25,1.24-.14,1.68.3l1.4,1.4c1.18-.8,2.2-1.82,3-3l-1.4-1.4c-.44-.44-.56-1.11-.3-1.68,0,0,0-.01,0-.02Z" fill="#fff" opacity=".75" stroke="#fff" stroke-linejoin="round" stroke-width="3"/>
    <path d="M69.79,45.39c.24-.54.77-.89,1.37-.89h2.07c.18-.8.27-1.64.27-2.5s-.09-1.7-.27-2.5h-2.07c-.59,0-1.13-.35-1.37-.89,0,0,0-.01,0-.02-.25-.57-.14-1.24.3-1.68l1.4-1.4c-.8-1.18-1.82-2.2-3-3l-1.4,1.4c-.44.44-1.11.56-1.68.3,0,0-.01,0-.02,0-.54-.24-.89-.77-.89-1.37v-2.07c-.8-.18-1.64-.27-2.5-.27s-1.7.09-2.5.27v2.07c0,.59-.35,1.13-.89,1.37,0,0-.01,0-.02,0-.57.25-1.24.14-1.68-.3l-1.4-1.4c-1.18.8-2.2,1.82-3,3l1.4,1.4c.44.44.56,1.11.3,1.68,0,0,0,.01,0,.02-.24.54-.77.89-1.37.89h-2.07c-.18.8-.27,1.64-.27,2.5s.09,1.7.27,2.5h2.07c.59,0,1.13.35,1.37.89,0,0,0,.01,0,.02.25.57.14,1.24-.3,1.68l-1.4,1.4c.8,1.18,1.82,2.2,3,3l1.4-1.4c.44-.44,1.11-.56,1.68-.3,0,0,.01,0,.02,0,.54.24.89.77.89,1.37v2.07c.8.18,1.64.27,2.5.27s1.7-.09,2.5-.27v-2.07c0-.59.35-1.13.89-1.37,0,0,.01,0,.02,0,.57-.25,1.24-.14,1.68.3l1.4,1.4c1.18-.8,2.2-1.82,3-3l-1.4-1.4c-.44-.44-.56-1.11-.3-1.68,0,0,0-.01,0-.02ZM62,46.5c-2.49,0-4.5-2.01-4.5-4.5s2.01-4.5,4.5-4.5,4.5,2.01,4.5,4.5-2.01,4.5-4.5,4.5Z" fill="url(#a)" stroke="#323232" stroke-linejoin="round"/>
    <g>
      <path d="M62,36c-3.31,0-6,2.69-6,6s2.69,6,6,6,6-2.69,6-6-2.69-6-6-6ZM62,47c-2.76,0-5-2.24-5-5s2.24-5,5-5,5,2.24,5,5-2.24,5-5,5Z" fill="url(#p)" opacity=".3"/>
      <path d="M62,36c-3.31,0-6,2.69-6,6s2.69,6,6,6,6-2.69,6-6-2.69-6-6-6ZM62,47c-2.76,0-5-2.24-5-5s2.24-5,5-5,5,2.24,5,5-2.24,5-5,5Z" fill="url(#q)" opacity=".75"/>
    </g>
  </g>
</svg>