<?xml version="1.0" encoding="UTF-8"?>
<svg id="c" data-name="Parameters" xmlns="http://www.w3.org/2000/svg" xmlns:xlink="http://www.w3.org/1999/xlink" viewBox="0 0 80 60">
  <defs>
    <linearGradient id="a" x1="27.76" y1="11.57" x2="52.5" y2="54.43" gradientUnits="userSpaceOnUse">
      <stop offset="0" stop-color="#fff"/>
      <stop offset="1" stop-color="#d4d5d3"/>
    </linearGradient>
    <linearGradient id="d" x1="32.91" y1="2.45" x2="46.82" y2="26.55" gradientUnits="userSpaceOnUse">
      <stop offset="0" stop-color="#8cd7f5"/>
      <stop offset="1" stop-color="#376e8c"/>
    </linearGradient>
    <linearGradient id="e" x1="35.13" y1="6.11" x2="46.56" y2="25.91" gradientUnits="userSpaceOnUse">
      <stop offset="0" stop-color="#3287af"/>
      <stop offset="1" stop-color="#285a78"/>
    </linearGradient>
    <linearGradient id="f" x1="22" y1="24.5" x2="58" y2="24.5" gradientUnits="userSpaceOnUse">
      <stop offset="0" stop-color="#464646"/>
      <stop offset="1" stop-color="#141414"/>
    </linearGradient>
    <linearGradient id="g" y1="33.5" y2="33.5" xlink:href="#f"/>
    <linearGradient id="h" y1="42.5" y2="42.5" xlink:href="#f"/>
    <radialGradient id="i" cx="32.46" cy="23.06" fx="32.46" fy="23.06" r="4" gradientUnits="userSpaceOnUse">
      <stop offset="0" stop-color="#8cd7f5"/>
      <stop offset="1" stop-color="#376e8c"/>
    </radialGradient>
    <radialGradient id="j" cx="45.65" cy="32.13" fx="45.65" fy="32.13" r="4" gradientUnits="userSpaceOnUse">
      <stop offset="0" stop-color="#8cd7f5"/>
      <stop offset="1" stop-color="#376e8c"/>
    </radialGradient>
    <radialGradient id="k" cx="35.46" cy="40.94" fx="35.46" fy="40.94" r="4" gradientUnits="userSpaceOnUse">
      <stop offset="0" stop-color="#8cd7f5"/>
      <stop offset="1" stop-color="#376e8c"/>
    </radialGradient>
  </defs>
  <path d="M17.5,17.5h45v30c0,1.1-.9,2-2,2H19.5c-1.1,0-2-.9-2-2v-30h0Z" fill="url(#a)" stroke="#323232" stroke-linejoin="round"/>
  <path d="M62,18v29.5c0,.83-.67,1.5-1.5,1.5H19.5c-.68,0-1.25-.45-1.43-1.07.14.05.28.07.43.07h41c.83,0,1.5-.67,1.5-1.5v-28.5h1Z" fill="#646464" opacity=".2"/>
  <path d="M19.5,10.5h41c1.1,0,2,.9,2,2v5H17.5v-5c0-1.1.9-2,2-2Z" fill="url(#d)" stroke="#003755" stroke-linejoin="round"/>
  <g opacity=".5">
    <path d="M62,12.5v4.5H18v-1h43v-4.5c0-.15-.02-.29-.07-.43.62.18,1.07.75,1.07,1.43Z" fill="url(#e)"/>
  </g>
  <rect x="22" y="23" width="36" height="3" rx="1.5" ry="1.5" fill="url(#f)"/>
  <rect x="22" y="32" width="36" height="3" rx="1.5" ry="1.5" fill="url(#g)"/>
  <rect x="22" y="41" width="36" height="3" rx="1.5" ry="1.5" fill="url(#h)"/>
  <path d="M61.93,12.07c-.14-.05-.28-.07-.43-.07H20.5c-.83,0-1.5.67-1.5,1.5v3.5h-1v-4.5c0-.83.67-1.5,1.5-1.5h41c.68,0,1.25.45,1.43,1.07Z" fill="#fff" opacity=".5"/>
  <path d="M19,19v29.5c0,.15.02.29.07.43-.62-.18-1.07-.75-1.07-1.43v-29.5h44v1H19Z" fill="#fff" opacity=".5"/>
  <circle cx="33.5" cy="24.5" r="4" fill="url(#i)" stroke="#003755" stroke-linejoin="round"/>
  <circle cx="46.5" cy="33.5" r="4" fill="url(#j)" stroke="#003755" stroke-linejoin="round"/>
  <circle cx="36.5" cy="42.5" r="4" fill="url(#k)" stroke="#003755" stroke-linejoin="round"/>
</svg>