<?xml version="1.0" encoding="UTF-8"?>
<svg xmlns="http://www.w3.org/2000/svg" xmlns:xlink="http://www.w3.org/1999/xlink" viewBox="0 0 64 64">
  <defs>
    <linearGradient id="c" x1="20.63" y1="12.31" x2="43.37" y2="51.69" gradientUnits="userSpaceOnUse">
      <stop offset="0" stop-color="#3287af"/>
      <stop offset="1" stop-color="#285a78"/>
    </linearGradient>
  </defs>
  <g id="a" data-name="Hexa">
    <g id="b" data-name="BKG">
      <path d="M32,10.02c-.68,0-1.36.17-1.97.51l-15.95,9.01c-1.29.73-2.08,2.09-2.08,3.55v17.79c0,1.46.8,2.82,2.08,3.55l15.95,9.01c1.21.69,2.72.69,3.94,0l15.95-9.01c1.29-.73,2.08-2.09,2.08-3.55v-17.79c0-1.46-.8-2.82-2.08-3.55l-15.95-9.01c-.61-.34-1.29-.51-1.97-.51Z" fill="#fff" opacity=".3"/>
      <path d="M50.9,46.19l-15.95,9.01c-1.83,1.04-4.07,1.04-5.91,0l-15.95-9.01c-1.92-1.08-3.1-3.1-3.1-5.29v-17.79c0-2.19,1.18-4.21,3.1-5.29l15.95-9.01c1.83-1.04,4.07-1.04,5.91,0l15.95,9.01c1.92,1.08,3.1,3.1,3.1,5.29v17.79c0,2.19-1.18,4.21-3.1,5.29Z" fill="none" stroke="url(#c)" stroke-miterlimit="10" stroke-width="2"/>
    </g>
  </g>
  <g id="d" data-name="Ontology">
    <g>
      <path d="M41.51,36.7s-1.39-.66-1.39-5.25c0-3.76,1.18-4.39,1.22-4.42s.8-.64.77-.61c0,0,0,0,0,0,1.76-1.41,2.15-3.47,2.15-4.56,0-3.12-2.46-5.85-5.72-5.85s-5.76,2.7-5.72,5.9c.03,1.22.02.8.02.89,0,1.91-4.44,5-7.01,5-.83,0-1.22-.27-1.22-.27-.56-.18-1.44-.72-2.88-.72-3.06,0-5.73,2.52-5.73,5.84s2.6,5.85,5.72,5.85c1.07,0,2.11-.3,3.02-.88.68-.49,1.04-.62,1.7-.62,2.34,0,7.14,2.58,7.14,5.15,0,3.12,2.45,5.85,5.71,5.85,2.48,0,5.73-1.99,5.73-5.84s-3.35-5.29-3.49-5.45ZM36.9,36.84c-.5.23-.97.54-1.39.92-2,.72-7.74-2.42-8.09-4.62.07-.78-.05-1.33-.05-1.53,0-1.71,4.82-5.03,7.29-5.03.98,0,.73.41,2.26.87.83.81,1.29,2.72,1.29,5.06,0,2.81-.84,3.92-1.3,4.33Z" fill="#0c479c"/>
      <path d="M38.58,16.93c-2.53,0-4.72,2.27-4.72,4.87,0,1.09.39,2.13,1.18,2.89-.39-.38-.59-.97-.59-1.66s.2-1.51.61-2.3c.21-.28.4-.35.59-.35s.39.08.6.08c.66,0,1.19-.56,1.19-1.22,0-.32-.12-.61-.33-.84.9-.6,1.88-.89,2.69-.89.56,0,1.05.14,1.35.42-.72-.67-1.62-1-2.57-1Z" fill="#fff"/>
      <path d="M39.56,37.25c-2.53,0-4.72,2.27-4.72,4.87,0,1.09.39,2.13,1.18,2.89-.39-.38-.59-.97-.59-1.66s.2-1.51.61-2.3c.21-.28.4-.35.59-.35s.39.08.6.08c.66,0,1.19-.56,1.19-1.22,0-.32-.12-.61-.33-.84.9-.6,1.88-.89,2.69-.89.56,0,1.05.14,1.35.42-.72-.67-1.62-1-2.57-1Z" fill="#fff"/>
      <path d="M21.85,27.94c-2.53,0-4.72,2.27-4.72,4.87,0,1.09.39,2.13,1.18,2.89-.39-.38-.59-.97-.59-1.66s.2-1.51.61-2.3c.21-.28.4-.35.59-.35s.39.08.6.08c.66,0,1.19-.56,1.19-1.22,0-.32-.12-.61-.33-.84.9-.6,1.88-.89,2.69-.89.56,0,1.05.14,1.35.42-.72-.67-1.62-1-2.57-1Z" fill="#fff"/>
    </g>
  </g>
</svg>