<?xml version="1.0" encoding="UTF-8"?><svg id="final_hand_copy_2" xmlns="http://www.w3.org/2000/svg" xmlns:xlink="http://www.w3.org/1999/xlink" viewBox="0 0 140 140"><defs><linearGradient id="linear-gradient" x1="-7.57" y1="123.21" x2="146.23" y2="123.21" gradientUnits="userSpaceOnUse"><stop offset=".21" stop-color="#fff"/><stop offset=".24" stop-color="#f1f1f1"/><stop offset=".29" stop-color="#cdcdcd"/><stop offset=".36" stop-color="#939393"/><stop offset=".45" stop-color="#434343"/><stop offset=".52" stop-color="#000"/><stop offset=".58" stop-color="#3d3d3d"/><stop offset=".67" stop-color="#8f8f8f"/><stop offset=".73" stop-color="#cbcbcb"/><stop offset=".79" stop-color="#f0f0f0"/><stop offset=".81" stop-color="#fff"/></linearGradient><mask id="mask" x="-7.57" y="92.38" width="153.79" height="61.67" maskUnits="userSpaceOnUse"><rect x="-7.57" y="92.38" width="153.79" height="61.67" fill="url(#linear-gradient)"/></mask></defs><g mask="url(#mask)"><g opacity=".9"><polygon points="15.84 138.25 3.85 126.25 15.84 114.26 15.84 138.25" fill="#fff"/><polygon points="124 114.5 136 126.5 124 138.5 124 114.5" fill="#fff"/><rect x="12.5" y="123" width="113.86" height="7" fill="#fff"/></g></g><g opacity=".9"><polygon points="47.57 2.27 85.51 8.75 86.27 10.33 72.64 89.58 33.6 82.58 47.57 2.27" fill="#fff" opacity=".45"/><path d="M106.64,101.67l-8.53-16.48c.14-1.38.83-8.45.87-12.5.02-1.6.5-3.49.96-5.32.81-3.19,1.65-6.48.27-8.87-1.96-3.39-2.74-6.44-2.65-7,.02-.1,1.13-10.45-.25-12.42-1.08-1.55-2.43-3.48-3.53-5.49-1.06-1.94-2.85-8.92-2.87-8.99-.08-.3-.33-.52-.63-.56l-.43-.06c-.43-.12-2.73-.63-4.76.95-.12.09-.22.21-.34.32l2.53-14.27c.15-.85-.04-1.71-.53-2.42-.5-.71-1.24-1.18-2.09-1.33L49.39.97c-.85-.15-1.71.04-2.42.53s-1.18,1.24-1.33,2.09l-4.06,22.96c-1.77-.86-4.33-1.42-6.17-.6-1.36.6-2.38,1.62-2.81,2.79-.37,1.02-.29,2.11.23,3.17.34.69.84,1.16,1.29,1.54.73.61,1.72,1.37,2.69,2.1-1.17-.03-2.4.41-3.29,1.19-2.24,1.76-2.99,5.06-1.71,7.49.3.62.74,1.2,1.28,1.67-2.21.97-3.89,3.71-2.94,6.94.55,1.43,1.24,2.42,1.99,3.09-.92.04-1.67.47-2.25,1.31-1.14,2.16-.93,5.21.49,7.06.84,1.22,2.34,2.03,3.75,2.03.02,0,.04,0,.05,0,.13,0,.24-.03.36-.05l-3.11,17.57c-.31,1.76.87,3.44,2.62,3.75l22.33,3.95c1.69,2.14,3.58,4.42,5,5.77,1.5,1.43,3.02,2.51,4.36,3.47,1.43,1.02,2.68,1.9,3.41,2.89.23.98,1.53,6.25,3.05,8.85.14.24.4.38.66.38.13,0,.26-.03.38-.1.36-.21.48-.68.27-1.04-1.53-2.62-2.91-8.52-2.92-8.58-.02-.09-.06-.18-.12-.26-.87-1.24-2.26-2.23-3.86-3.37-1.3-.92-2.77-1.97-4.19-3.33-1.06-1.02-2.43-2.61-3.78-4.27l10.67,1.89h0c.19.03.38.05.56.05,1.54,0,2.91-1.11,3.19-2.67l6.7-37.85c2.21,1.33,3.04,2.88,3.09,2.97.16.31.5.48.85.4.34-.08.58-.38.59-.73.01-1.06.88-2.92,1.22-3.55.11-.2.12-.44.03-.65-2.54-6.03-.64-8.74-.63-8.76.19-.25.21-.59.05-.86-1.01-1.67-1.3-5.46-1.34-6.8-.23-4.67.59-7.88,2.38-9.29,1.57-1.23,3.39-.71,3.46-.69.03,0,.06.02.1.02.44,1.67,1.89,7.04,2.88,8.85,1.14,2.09,2.51,4.05,3.62,5.63.81,1.16.22,10.04,0,11.28-.2,1.15.88,4.65,2.83,8.02,1.07,1.86.31,4.85-.43,7.74-.49,1.92-.99,3.9-1.01,5.68-.04,4.34-.87,12.51-.88,12.59-.01.15.01.29.08.43l8.63,16.69c.19.37.65.52,1.02.33.37-.19.52-.65.33-1.02ZM35.1,32.3c-.47-.4-.73-.71-.91-1.06-.34-.68-.39-1.35-.17-1.98.28-.78,1.01-1.48,2-1.92.44-.2.96-.28,1.5-.28,1.43,0,3.06.57,4.06,1.21-.17,1.27-.5,3.04-.81,4.76-.22,1.2-.44,2.36-.56,3.15,0,0,0,0,0,0-1.36-.99-3.72-2.74-5.11-3.9ZM34.49,37.92c.61-.54,1.42-.84,2.2-.84.15,0,.3.01.45.04.49.08,1.17.34,1.63,1.11,0,0,0,0,0,.01l.04.07c.69,1.24.83,3.11.36,4.66-.25.82-.78,1.91-1.86,2.46-1.56.74-3.43-.38-4.15-1.86-.96-1.83-.39-4.3,1.32-5.64ZM38,46.78l-.06.32c-.06-.08-.12-.16-.19-.23.08-.03.15-.04.23-.08,0,0,0,0,.01,0ZM31.59,52.37c-.74-2.53.71-4.67,2.47-5.2.27-.08.52-.12.77-.12,1.25,0,2.26.97,2.8,2.71l.03.11c.67,2.92-.55,5.16-2.13,5.64-1.52.47-3.03-.76-3.94-3.14ZM36.21,56.88l-.17.94c-.23-.25-.49-.49-.78-.72.25-.02.49-.06.71-.13.08-.02.16-.06.24-.09ZM34.16,64.84c-.91,0-1.97-.55-2.56-1.41-1.06-1.39-1.23-3.85-.42-5.38.28-.41.64-.6,1.12-.6,0,0,0,0,.01,0,1.08,0,2.39.96,2.98,1.84l.06.09c.79,1.21,1.11,3.34.26,4.65-.34.53-.83.8-1.46.81ZM84.01,52.09c-.22.44-.6,1.25-.87,2.11-.66-.73-1.66-1.61-3.08-2.38l2.33-13.17c.19,1.34.51,2.84,1.06,3.94-.55,1.08-1.59,4.15.57,9.5ZM71.73,87.21l-37.66-6.67,2.77-15.64s.03-.03.04-.05c.74-1.13.87-2.55.65-3.86l1.14-6.46c.51-1,.78-2.26.66-3.71l1.37-7.76c.1-.38.17-.77.21-1.17L47.64,3.94c.03-.2.13-.37.25-.52l12.55,2.22c.15,1.52,1.28,2.81,2.85,3.09l5.34.94c1.57.28,3.08-.55,3.74-1.92l12.87,2.28c.06.19.09.38.05.58l-13.56,76.6Z" fill="#fff"/></g></svg>
