{
  "asset": {
    "version": "2.0",
    "generator": "babylon.js glTF exporter for 3dsmax 2024 v20240312.5"
  },
  "scene": 0,
  "scenes": [
    {
      "nodes": [
        0,
        4,
        5,
        6,
        7,
        8,
        9,
        26
      ]
    }
  ],
  "nodes": [
    {
      "children": [
        1
      ],
      "mesh": 0,
      "translation": [
        0.00523669459,
        -0.0016523496,
        0.05862207
      ],
      "rotation": [
        -1.67276255E-08,
        -0.923879564,
        -0.382683456,
        4.038406E-08
      ],
      "scale": [
        1.0,
        0.99999994,
        0.99999994
      ],
      "name": "xr4_right_gray"
    },
    {
      "children": [
        2
      ],
      "translation": [
        0.008968174,
        -0.0117348032,
        -0.00733067375
      ],
      "rotation": [
        1.78951666E-07,
        -0.9942517,
        -0.107068129,
        -7.457595E-07
      ],
      "scale": [
        1.00000036,
        1.00000024,
        1.00000072
      ],
      "name": "thumbstick_helper_y004"
    },
    {
      "children": [
        3
      ],
      "translation": [
        9.536744E-10,
        5.722046E-09,
        7.629395E-09
      ],
      "rotation": [
        3.75743561E-08,
        2.11025508E-07,
        -0.130526185,
        0.9914449
      ],
      "scale": [
        0.999999642,
        0.999999762,
        0.99999994
      ],
      "name": "thumbstick_helper_x004"
    },
    {
      "mesh": 1,
      "translation": [
        1.90734872E-09,
        0.0138453292,
        -0.0007705307
      ],
      "rotation": [
        -7.452664E-09,
        -0.999720931,
        0.0236239266,
        5.794445E-07
      ],
      "scale": [
        1.0,
        0.9999999,
        0.9999995
      ],
      "name": "xr4_right_stick"
    },
    {
      "mesh": 2,
      "translation": [
        0.00523669459,
        -0.0016523496,
        0.05862207
      ],
      "rotation": [
        -2.889179E-08,
        -0.923879564,
        -0.382683337,
        6.975097E-08
      ],
      "name": "xr4_right_white"
    },
    {
      "mesh": 3,
      "translation": [
        0.01154123,
        0.00266377022,
        0.05289065
      ],
      "rotation": [
        -2.889179E-08,
        -0.923879564,
        -0.382683337,
        6.975097E-08
      ],
      "name": "xr4_right_lower"
    },
    {
      "mesh": 4,
      "translation": [
        0.0186458137,
        -0.006464527,
        0.06201895
      ],
      "rotation": [
        -2.889179E-08,
        -0.923879564,
        -0.382683337,
        6.975097E-08
      ],
      "name": "xr4_right_upper"
    },
    {
      "mesh": 5,
      "translation": [
        0.0103081213,
        -0.008185728,
        0.0119169848
      ],
      "rotation": [
        -2.889179E-08,
        -0.923879564,
        -0.382683337,
        6.975097E-08
      ],
      "name": "xr4_right_squeeze"
    },
    {
      "mesh": 6,
      "translation": [
        -0.004154066,
        -0.0305976458,
        0.06391428
      ],
      "rotation": [
        -2.77284968E-08,
        -0.930112362,
        -0.3672751,
        7.022154E-08
      ],
      "scale": [
        1.0,
        0.99999994,
        0.99999994
      ],
      "name": "xr4_right_trigger"
    },
    {
      "children": [
        10,
        11,
        12,
        13,
        14,
        15,
        16,
        17,
        18,
        19,
        20,
        21,
        22,
        23,
        24,
        25
      ],
      "translation": [
        0.00197637756,
        -0.009933215,
        0.0478462167
      ],
      "rotation": [
        -0.9601942,
        0.0,
        0.0,
        -0.279333323
      ],
      "name": "RootNode"
    },
    {
      "translation": [
        0.009442343,
        -0.008394478,
        -0.0144471554
      ],
      "rotation": [
        0.0007954439,
        -0.781623662,
        -0.6237394,
        0.003615613
      ],
      "scale": [
        0.99999994,
        1.00000012,
        1.0
      ],
      "name": "icon_pose/lower_button/center"
    },
    {
      "translation": [
        0.0150542613,
        -0.0296051558,
        0.02515795
      ],
      "rotation": [
        -0.0005232419,
        -0.781614661,
        -0.623734534,
        0.005786853
      ],
      "scale": [
        0.99999994,
        0.99999994,
        1.0
      ],
      "name": "icon_pose/squeeze/center"
    },
    {
      "translation": [
        -0.005704902,
        0.00362570584,
        -0.0241792575
      ],
      "rotation": [
        0.000795524043,
        -0.781623542,
        -0.6237395,
        0.003615579
      ],
      "scale": [
        0.9999995,
        1.00000012,
        1.00000012
      ],
      "name": "icon_pose/thumbstick/center"
    },
    {
      "translation": [
        -0.0178562272,
        0.00362570584,
        -0.0241792575
      ],
      "rotation": [
        0.000795524043,
        -0.781623542,
        -0.6237395,
        0.003615579
      ],
      "scale": [
        0.9999995,
        1.00000012,
        1.00000012
      ],
      "name": "icon_pose/thumbstick/east"
    },
    {
      "translation": [
        -0.00582979061,
        0.01494484,
        -0.0268042535
      ],
      "rotation": [
        0.0007955227,
        -0.7816235,
        -0.623739541,
        0.0036155812
      ],
      "scale": [
        0.999999344,
        0.99999994,
        1.0
      ],
      "name": "icon_pose/thumbstick/north"
    },
    {
      "translation": [
        -0.0056853136,
        -0.00761044,
        -0.0216717962
      ],
      "rotation": [
        0.0007955311,
        -0.7816235,
        -0.623739541,
        0.00361558213
      ],
      "scale": [
        0.999999642,
        1.0,
        1.0
      ],
      "name": "icon_pose/thumbstick/south"
    },
    {
      "translation": [
        0.00566404359,
        0.0037482453,
        -0.0243030172
      ],
      "rotation": [
        0.0007955244,
        -0.781623542,
        -0.6237395,
        0.003615581
      ],
      "scale": [
        0.999999642,
        0.999999762,
        0.9999997
      ],
      "name": "icon_pose/thumbstick/west"
    },
    {
      "translation": [
        -0.005484552,
        0.0295144971,
        -0.0140533987
      ],
      "rotation": [
        0.008411111,
        -0.637738466,
        0.7701334,
        0.0106527507
      ],
      "scale": [
        0.99999994,
        1.00000012,
        1.0
      ],
      "name": "indicator_pose/tip"
    },
    {
      "translation": [
        0.01667402,
        0.00391172431,
        -0.0171666685
      ],
      "rotation": [
        0.0007954439,
        -0.781623662,
        -0.6237394,
        0.003615613
      ],
      "scale": [
        0.99999994,
        1.00000012,
        1.0
      ],
      "name": "icon_pose/upper_button/center"
    },
    {
      "translation": [
        -0.007856103,
        -0.0555039942,
        -0.0128750047
      ],
      "rotation": [
        0.0007954428,
        -0.7816235,
        -0.6237396,
        0.003615613
      ],
      "scale": [
        0.99999994,
        1.0,
        0.99999994
      ],
      "name": "label_pose/controller"
    },
    {
      "translation": [
        -0.0776393339,
        -0.0194537155,
        -0.02812269
      ],
      "rotation": [
        0.000795443251,
        -0.781623542,
        -0.6237395,
        0.00361561286
      ],
      "scale": [
        0.99999994,
        0.99999994,
        1.0
      ],
      "name": "label_pose/lower_button/center"
    },
    {
      "translation": [
        0.07412671,
        -0.0563861765,
        0.0188661646
      ],
      "rotation": [
        0.0007955398,
        -0.7816236,
        -0.6237394,
        0.00361548085
      ],
      "scale": [
        0.99999994,
        1.00000012,
        1.0
      ],
      "name": "label_pose/squeeze/center"
    },
    {
      "translation": [
        -0.06655882,
        0.04320865,
        -0.039055
      ],
      "rotation": [
        0.0007954445,
        -0.7816238,
        -0.6237393,
        0.00361561286
      ],
      "scale": [
        0.99999994,
        1.0,
        1.0
      ],
      "name": "label_pose/thumbstick/center"
    },
    {
      "translation": [
        0.06451571,
        0.0488358326,
        -0.04211278
      ],
      "rotation": [
        0.000795368745,
        -0.7816235,
        -0.623739541,
        0.003615706
      ],
      "scale": [
        0.99999994,
        1.0,
        1.0
      ],
      "name": "label_pose/trigger/center"
    },
    {
      "translation": [
        0.0121742124,
        -0.02055307,
        0.0292632878
      ],
      "rotation": [
        0.0007955398,
        -0.7816236,
        -0.6237394,
        0.00361548085
      ],
      "scale": [
        0.99999994,
        1.00000012,
        1.0
      ],
      "name": "indicator_pose/squeeze"
    },
    {
      "translation": [
        -0.005920632,
        0.0218196847,
        0.0142018916
      ],
      "rotation": [
        3.47621665E-09,
        -0.781628,
        -0.623744845,
        3.07802253E-07
      ],
      "scale": [
        1.0,
        0.99999994,
        0.99999994
      ],
      "name": "icon_pose/trigger/center"
    },
    {
      "children": [
        27
      ],
      "translation": [
        0.00197637756,
        -0.009933215,
        0.0478462167
      ],
      "rotation": [
        -0.9601942,
        0.0,
        0.0,
        -0.279333442
      ],
      "name": "RootNode (1)"
    },
    {
      "translation": [
        0.08296971,
        0.006004082,
        -0.0193879325
      ],
      "rotation": [
        0.000795368338,
        -0.7816234,
        -0.62373966,
        0.00361570623
      ],
      "scale": [
        0.99999994,
        1.00000012,
        1.00000012
      ],
      "name": "label_pose/upper_button/center"
    }
  ],
  "meshes": [
    {
      "primitives": [
        {
          "attributes": {
            "POSITION": 1,
            "NORMAL": 2,
            "TEXCOORD_0": 3
          },
          "indices": 0,
          "material": 0
        }
      ],
      "name": "xr4_right_gray"
    },
    {
      "primitives": [
        {
          "attributes": {
            "POSITION": 5,
            "NORMAL": 6,
            "TEXCOORD_0": 7
          },
          "indices": 4,
          "material": 0
        }
      ],
      "name": "xr4_right_stick"
    },
    {
      "primitives": [
        {
          "attributes": {
            "POSITION": 9,
            "NORMAL": 10,
            "TEXCOORD_0": 11
          },
          "indices": 8,
          "material": 1
        }
      ],
      "name": "xr4_right_white"
    },
    {
      "primitives": [
        {
          "attributes": {
            "POSITION": 13,
            "NORMAL": 14,
            "TEXCOORD_0": 15
          },
          "indices": 12,
          "material": 0
        }
      ],
      "name": "xr4_right_lower"
    },
    {
      "primitives": [
        {
          "attributes": {
            "POSITION": 17,
            "NORMAL": 18,
            "TEXCOORD_0": 19
          },
          "indices": 16,
          "material": 0
        }
      ],
      "name": "xr4_right_upper"
    },
    {
      "primitives": [
        {
          "attributes": {
            "POSITION": 21,
            "NORMAL": 22,
            "TEXCOORD_0": 23
          },
          "indices": 20,
          "material": 0
        }
      ],
      "name": "xr4_right_squeeze"
    },
    {
      "primitives": [
        {
          "attributes": {
            "POSITION": 25,
            "NORMAL": 26,
            "TEXCOORD_0": 27
          },
          "indices": 24,
          "material": 0
        }
      ],
      "name": "xr4_right_trigger"
    }
  ],
  "accessors": [
    {
      "bufferView": 0,
      "componentType": 5123,
      "count": 26322,
      "type": "SCALAR",
      "name": "accessorIndices"
    },
    {
      "bufferView": 1,
      "componentType": 5126,
      "count": 8133,
      "max": [
        0.0278391428,
        0.0012189066,
        0.09332712
      ],
      "min": [
        -0.0281656813,
        -0.08435259,
        -0.02796243
      ],
      "type": "VEC3",
      "name": "accessorPositions"
    },
    {
      "bufferView": 1,
      "byteOffset": 97596,
      "componentType": 5126,
      "count": 8133,
      "type": "VEC3",
      "name": "accessorNormals"
    },
    {
      "bufferView": 2,
      "componentType": 5126,
      "count": 8133,
      "type": "VEC2",
      "name": "accessorUVs"
    },
    {
      "bufferView": 0,
      "byteOffset": 52644,
      "componentType": 5123,
      "count": 21012,
      "type": "SCALAR",
      "name": "accessorIndices"
    },
    {
      "bufferView": 1,
      "byteOffset": 195192,
      "componentType": 5126,
      "count": 4879,
      "max": [
        0.011598221,
        0.00711181,
        0.01159821
      ],
      "min": [
        -0.0115982061,
        -0.00711180829,
        -0.0115982108
      ],
      "type": "VEC3",
      "name": "accessorPositions"
    },
    {
      "bufferView": 1,
      "byteOffset": 253740,
      "componentType": 5126,
      "count": 4879,
      "type": "VEC3",
      "name": "accessorNormals"
    },
    {
      "bufferView": 2,
      "byteOffset": 65064,
      "componentType": 5126,
      "count": 4879,
      "type": "VEC2",
      "name": "accessorUVs"
    },
    {
      "bufferView": 0,
      "byteOffset": 94668,
      "componentType": 5123,
      "count": 20154,
      "type": "SCALAR",
      "name": "accessorIndices"
    },
    {
      "bufferView": 1,
      "byteOffset": 312288,
      "componentType": 5126,
      "count": 5538,
      "max": [
        0.0280310679,
        0.00110408594,
        0.09558992
      ],
      "min": [
        -0.0279747937,
        -0.07752085,
        -0.02794492
      ],
      "type": "VEC3",
      "name": "accessorPositions"
    },
    {
      "bufferView": 1,
      "byteOffset": 378744,
      "componentType": 5126,
      "count": 5538,
      "type": "VEC3",
      "name": "accessorNormals"
    },
    {
      "bufferView": 2,
      "byteOffset": 104096,
      "componentType": 5126,
      "count": 5538,
      "type": "VEC2",
      "name": "accessorUVs"
    },
    {
      "bufferView": 0,
      "byteOffset": 134976,
      "componentType": 5123,
      "count": 3837,
      "type": "SCALAR",
      "name": "accessorIndices"
    },
    {
      "bufferView": 1,
      "byteOffset": 445200,
      "componentType": 5126,
      "count": 859,
      "max": [
        0.00499577355,
        0.00339750038,
        0.004997893
      ],
      "min": [
        -0.004995789,
        -0.0033975,
        -0.00499789324
      ],
      "type": "VEC3",
      "name": "accessorPositions"
    },
    {
      "bufferView": 1,
      "byteOffset": 455508,
      "componentType": 5126,
      "count": 859,
      "type": "VEC3",
      "name": "accessorNormals"
    },
    {
      "bufferView": 2,
      "byteOffset": 148400,
      "componentType": 5126,
      "count": 859,
      "type": "VEC2",
      "name": "accessorUVs"
    },
    {
      "bufferView": 0,
      "byteOffset": 142652,
      "componentType": 5123,
      "count": 3831,
      "type": "SCALAR",
      "name": "accessorIndices"
    },
    {
      "bufferView": 1,
      "byteOffset": 465816,
      "componentType": 5126,
      "count": 857,
      "max": [
        0.004995789,
        0.00339749921,
        0.004997893
      ],
      "min": [
        -0.00499577355,
        -0.003397501,
        -0.004997893
      ],
      "type": "VEC3",
      "name": "accessorPositions"
    },
    {
      "bufferView": 1,
      "byteOffset": 476100,
      "componentType": 5126,
      "count": 857,
      "type": "VEC3",
      "name": "accessorNormals"
    },
    {
      "bufferView": 2,
      "byteOffset": 155272,
      "componentType": 5126,
      "count": 857,
      "type": "VEC2",
      "name": "accessorUVs"
    },
    {
      "bufferView": 0,
      "byteOffset": 150316,
      "componentType": 5123,
      "count": 2508,
      "type": "SCALAR",
      "name": "accessorIndices"
    },
    {
      "bufferView": 1,
      "byteOffset": 486384,
      "componentType": 5126,
      "count": 598,
      "max": [
        0.00497773755,
        0.007920989,
        0.008926245
      ],
      "min": [
        -0.00497773755,
        -0.007920991,
        -0.008926247
      ],
      "type": "VEC3",
      "name": "accessorPositions"
    },
    {
      "bufferView": 1,
      "byteOffset": 493560,
      "componentType": 5126,
      "count": 598,
      "type": "VEC3",
      "name": "accessorNormals"
    },
    {
      "bufferView": 2,
      "byteOffset": 162128,
      "componentType": 5126,
      "count": 598,
      "type": "VEC2",
      "name": "accessorUVs"
    },
    {
      "bufferView": 0,
      "byteOffset": 155332,
      "componentType": 5123,
      "count": 3276,
      "type": "SCALAR",
      "name": "accessorIndices"
    },
    {
      "bufferView": 1,
      "byteOffset": 500736,
      "componentType": 5126,
      "count": 871,
      "max": [
        0.0144917453,
        0.0004521313,
        0.0198495723
      ],
      "min": [
        -0.0144917453,
        -0.0302529112,
        -0.0004284306
      ],
      "type": "VEC3",
      "name": "accessorPositions"
    },
    {
      "bufferView": 1,
      "byteOffset": 511188,
      "componentType": 5126,
      "count": 871,
      "type": "VEC3",
      "name": "accessorNormals"
    },
    {
      "bufferView": 2,
      "byteOffset": 166912,
      "componentType": 5126,
      "count": 871,
      "type": "VEC2",
      "name": "accessorUVs"
    },
    {
      "bufferView": 3,
      "componentType": 5126,
      "count": 2,
      "max": [
        0.0333333351
      ],
      "min": [
        0.0
      ],
      "type": "SCALAR",
      "name": "accessorAnimationInput"
    },
    {
      "bufferView": 4,
      "componentType": 5126,
      "count": 2,
      "type": "VEC4",
      "name": "accessorAnimationRotations"
    },
    {
      "bufferView": 3,
      "byteOffset": 8,
      "componentType": 5126,
      "count": 2,
      "max": [
        0.0333333351
      ],
      "min": [
        0.0
      ],
      "type": "SCALAR",
      "name": "accessorAnimationInput"
    },
    {
      "bufferView": 5,
      "componentType": 5126,
      "count": 2,
      "type": "VEC3",
      "name": "accessorAnimationPositions"
    },
    {
      "bufferView": 3,
      "byteOffset": 16,
      "componentType": 5126,
      "count": 2,
      "max": [
        0.0333333351
      ],
      "min": [
        0.0
      ],
      "type": "SCALAR",
      "name": "accessorAnimationInput"
    },
    {
      "bufferView": 5,
      "byteOffset": 24,
      "componentType": 5126,
      "count": 2,
      "type": "VEC3",
      "name": "accessorAnimationPositions"
    },
    {
      "bufferView": 3,
      "byteOffset": 24,
      "componentType": 5126,
      "count": 2,
      "max": [
        0.0333333351
      ],
      "min": [
        0.0
      ],
      "type": "SCALAR",
      "name": "accessorAnimationInput"
    },
    {
      "bufferView": 4,
      "byteOffset": 32,
      "componentType": 5126,
      "count": 2,
      "type": "VEC4",
      "name": "accessorAnimationRotations"
    },
    {
      "bufferView": 3,
      "byteOffset": 32,
      "componentType": 5126,
      "count": 2,
      "max": [
        0.0333333351
      ],
      "min": [
        0.0
      ],
      "type": "SCALAR",
      "name": "accessorAnimationInput"
    },
    {
      "bufferView": 5,
      "byteOffset": 48,
      "componentType": 5126,
      "count": 2,
      "type": "VEC3",
      "name": "accessorAnimationPositions"
    },
    {
      "bufferView": 3,
      "byteOffset": 40,
      "componentType": 5126,
      "count": 2,
      "max": [
        0.0333333351
      ],
      "min": [
        0.0
      ],
      "type": "SCALAR",
      "name": "accessorAnimationInput"
    },
    {
      "bufferView": 4,
      "byteOffset": 64,
      "componentType": 5126,
      "count": 2,
      "type": "VEC4",
      "name": "accessorAnimationRotations"
    },
    {
      "bufferView": 3,
      "byteOffset": 48,
      "componentType": 5126,
      "count": 2,
      "max": [
        0.0333333351
      ],
      "min": [
        0.0
      ],
      "type": "SCALAR",
      "name": "accessorAnimationInput"
    },
    {
      "bufferView": 5,
      "byteOffset": 72,
      "componentType": 5126,
      "count": 2,
      "type": "VEC3",
      "name": "accessorAnimationPositions"
    }
  ],
  "bufferViews": [
    {
      "buffer": 0,
      "byteLength": 161884,
      "name": "bufferViewScalar"
    },
    {
      "buffer": 0,
      "byteOffset": 161884,
      "byteLength": 521640,
      "byteStride": 12,
      "name": "bufferViewFloatVec3"
    },
    {
      "buffer": 0,
      "byteOffset": 683524,
      "byteLength": 173880,
      "byteStride": 8,
      "name": "bufferViewFloatVec2"
    },
    {
      "buffer": 0,
      "byteOffset": 857404,
      "byteLength": 56,
      "name": "bufferViewAnimationFloatScalar"
    },
    {
      "buffer": 0,
      "byteOffset": 857460,
      "byteLength": 96,
      "name": "bufferViewAnimationFloatVec4"
    },
    {
      "buffer": 0,
      "byteOffset": 857556,
      "byteLength": 96,
      "name": "bufferViewAnimationFloatVec3"
    }
  ],
  "buffers": [
    {
      "uri": "controller_VarjoXR4_Right.bin",
      "byteLength": 857652
    }
  ],
  "materials": [
    {
      "pbrMetallicRoughness": {
        "baseColorFactor": [
          0.03137255,
          0.03137255,
          0.03137255,
          1.0
        ],
        "metallicFactor": 0.0,
        "roughnessFactor": 0.590000033
      },
      "name": "VarjoXR4_black"
    },
    {
      "pbrMetallicRoughness": {
        "baseColorFactor": [
          0.5827338,
          0.5609337,
          0.5408105,
          1.0
        ],
        "metallicFactor": 0.0,
        "roughnessFactor": 0.590000033,
        "metallicRoughnessTexture": {
          "index": 0
        }
      },
      "name": "VarjoXR4_beige"
    }
  ],
  "textures": [
    {
      "sampler": 0,
      "source": 0,
      "name": "controller_VarjoXR4_Roughness0.png"
    }
  ],
  "images": [
    {
      "uri": "controller_VarjoXR4_Roughness0.png"
    }
  ],
  "samplers": [
    {
      "magFilter": 9729,
      "minFilter": 9987
    }
  ],
  "animations": [
    {
      "channels": [
        {
          "sampler": 0,
          "target": {
            "node": 2,
            "path": "rotation"
          }
        }
      ],
      "samplers": [
        {
          "input": 28,
          "output": 29
        }
      ],
      "name": "input/thumbstick/x"
    },
    {
      "channels": [
        {
          "sampler": 0,
          "target": {
            "node": 7,
            "path": "translation"
          }
        }
      ],
      "samplers": [
        {
          "input": 30,
          "output": 31
        }
      ],
      "name": "input/squeeze/value"
    },
    {
      "channels": [
        {
          "sampler": 0,
          "target": {
            "node": 8,
            "path": "translation"
          }
        },
        {
          "sampler": 1,
          "target": {
            "node": 8,
            "path": "rotation"
          }
        }
      ],
      "samplers": [
        {
          "input": 32,
          "output": 33
        },
        {
          "input": 34,
          "output": 35
        }
      ],
      "name": "input/trigger/value"
    },
    {
      "channels": [
        {
          "sampler": 0,
          "target": {
            "node": 6,
            "path": "translation"
          }
        }
      ],
      "samplers": [
        {
          "input": 36,
          "output": 37
        }
      ],
      "name": "input/upper_button/click"
    },
    {
      "channels": [
        {
          "sampler": 0,
          "target": {
            "node": 1,
            "path": "rotation"
          }
        }
      ],
      "samplers": [
        {
          "input": 38,
          "output": 39
        }
      ],
      "name": "input/thumbstick/y"
    },
    {
      "channels": [
        {
          "sampler": 0,
          "target": {
            "node": 5,
            "path": "translation"
          }
        }
      ],
      "samplers": [
        {
          "input": 40,
          "output": 41
        }
      ],
      "name": "input/lower_button/click"
    }
  ]
}




