{
  "asset": {
    "version": "2.0",
    "generator": "babylon.js glTF exporter for 3dsmax 2024 v20240312.5"
  },
  "scene": 0,
  "scenes": [
    {
      "nodes": [
        0,
        4,
        5,
        6,
        7,
        8,
        9,
        10,
        11,
        12,
        13,
        14,
        15,
        16,
        17,
        18,
        19,
        20,
        21,
        22,
        23,
        24,
        25,
        26
      ]
    }
  ],
  "nodes": [
    {
      "children": [
        1
      ],
      "mesh": 0,
      "translation": [
        0.005930954,
        -0.0016523496,
        0.05862207
      ],
      "rotation": [
        -1.67276255E-08,
        -0.923879564,
        -0.382683456,
        4.038406E-08
      ],
      "scale": [
        1.0,
        0.99999994,
        0.99999994
      ],
      "name": "Xr4_left_gray"
    },
    {
      "children": [
        2
      ],
      "translation": [
        0.0012048221,
        -0.0117348069,
        -0.007330685
      ],
      "rotation": [
        1.66981764E-07,
        -0.9942517,
        -0.107068174,
        -6.228677E-07
      ],
      "scale": [
        1.00000036,
        1.00000036,
        1.00000072
      ],
      "name": "thumbstick_helper_y003"
    },
    {
      "children": [
        3
      ],
      "translation": [
        9.536744E-10,
        5.722046E-09,
        7.629395E-09
      ],
      "rotation": [
        9.01784745E-08,
        2.14898563E-07,
        -0.130526185,
        0.9914449
      ],
      "scale": [
        0.999999642,
        0.999999762,
        0.9999999
      ],
      "name": "thumbstick_helper_x003"
    },
    {
      "mesh": 1,
      "translation": [
        -2.32458119E-09,
        0.0137634343,
        -0.000749122642
      ],
      "rotation": [
        4.84423E-08,
        -0.999720931,
        0.0236238856,
        1.93769225E-07
      ],
      "scale": [
        0.9999999,
        0.9999999,
        0.9999993
      ],
      "name": "XR4_left_stick"
    },
    {
      "mesh": 2,
      "translation": [
        0.005930954,
        -0.0016523496,
        0.05862207
      ],
      "rotation": [
        -2.889179E-08,
        -0.923879564,
        -0.382683337,
        6.975097E-08
      ],
      "name": "xr4_left_white"
    },
    {
      "mesh": 3,
      "translation": [
        -0.0105465855,
        0.00259580044,
        0.052841492
      ],
      "rotation": [
        -2.889179E-08,
        -0.923879564,
        -0.382683337,
        6.975097E-08
      ],
      "name": "XR4_left_lower"
    },
    {
      "mesh": 4,
      "translation": [
        -0.0176511519,
        -0.00653845724,
        0.06197575
      ],
      "rotation": [
        -2.889179E-08,
        -0.923879564,
        -0.382683337,
        6.975097E-08
      ],
      "name": "XR4_left_upper"
    },
    {
      "mesh": 5,
      "translation": [
        -0.0136464853,
        8.97588761E-05,
        0.009634387
      ],
      "rotation": [
        -4.596021E-08,
        -0.7933534,
        -0.60876137,
        5.98965144E-08
      ],
      "name": "XR4_left_grip"
    },
    {
      "mesh": 6,
      "translation": [
        0.005148722,
        -0.030027993,
        0.05972157
      ],
      "rotation": [
        -2.889179E-08,
        -0.923879564,
        -0.382683337,
        6.975097E-08
      ],
      "name": "XR4_left_trigger"
    },
    {
      "mesh": 7,
      "translation": [
        0.005930954,
        -0.0016523496,
        0.05862207
      ],
      "rotation": [
        -2.889179E-08,
        -0.923879564,
        -0.382683337,
        6.975097E-08
      ],
      "name": "Object005"
    },
    {
      "translation": [
        -0.0104948962,
        0.0049011386,
        0.0555358
      ],
      "rotation": [
        -1.91692038E-07,
        -0.380879968,
        0.9246245,
        -1.60616068E-07
      ],
      "name": "icon_pose/lower_button/center"
    },
    {
      "translation": [
        -0.01706201,
        0.000950426154,
        0.01031271
      ],
      "rotation": [
        -0.005810317,
        -0.008574985,
        0.999946356,
        4.98383961E-05
      ],
      "scale": [
        1.0,
        0.99999994,
        0.9999998
      ],
      "name": "icon_pose/squeeze/center"
    },
    {
      "translation": [
        0.00474032247,
        -4.262829E-05,
        0.07025658
      ],
      "rotation": [
        -0.00369390543,
        -0.3805775,
        0.9247416,
        -0.000246073556
      ],
      "scale": [
        0.999999642,
        1.0,
        1.00000012
      ],
      "name": "icon_pose/thumbstick/center"
    },
    {
      "translation": [
        -0.00741100172,
        -4.262829E-05,
        0.07025658
      ],
      "rotation": [
        -0.00369390543,
        -0.3805775,
        0.9247416,
        -0.000246073556
      ],
      "scale": [
        0.999999642,
        1.0,
        1.00000012
      ],
      "name": "icon_pose/thumbstick/east"
    },
    {
      "translation": [
        0.004615433,
        -0.008187242,
        0.07854384
      ],
      "rotation": [
        -0.00369390566,
        -0.380578548,
        0.9247412,
        -0.000246077951
      ],
      "scale": [
        0.9999994,
        0.99999994,
        1.0
      ],
      "name": "icon_pose/thumbstick/north"
    },
    {
      "translation": [
        0.004759911,
        0.008095,
        0.06211303
      ],
      "rotation": [
        -0.00369390775,
        -0.380578071,
        0.9247414,
        -0.000246073265
      ],
      "scale": [
        0.9999997,
        1.00000024,
        1.0
      ],
      "name": "icon_pose/thumbstick/south"
    },
    {
      "translation": [
        0.01610927,
        -7.965565E-05,
        0.07042675
      ],
      "rotation": [
        -0.00369390519,
        -0.380578429,
        0.924741268,
        -0.000246076874
      ],
      "scale": [
        0.9999997,
        0.9999997,
        0.999999762
      ],
      "name": "icon_pose/thumbstick/west"
    },
    {
      "translation": [
        0.004949057,
        -0.03905153,
        0.0526956581
      ],
      "rotation": [
        9.638438E-08,
        -0.830792665,
        -0.556582034,
        -2.224054E-07
      ],
      "name": "icon_pose/trigger/center"
    },
    {
      "translation": [
        -0.0176483225,
        -0.0040237,
        0.06443019
      ],
      "rotation": [
        -1.91692038E-07,
        -0.380879968,
        0.9246245,
        -1.60616068E-07
      ],
      "name": "icon_pose/upper_button/center"
    },
    {
      "translation": [
        -0.0132997287,
        -0.00842361152,
        0.012073067
      ],
      "rotation": [
        -0.997825,
        6.053491E-12,
        9.163362E-11,
        0.06591822
      ],
      "name": "indicator_pose/squeeze"
    },
    {
      "translation": [
        0.00485878158,
        -0.0272695,
        0.0754389
      ],
      "rotation": [
        0.0125782341,
        -0.9176192,
        -0.3972289,
        -0.00510046259
      ],
      "scale": [
        0.9999999,
        1.0,
        1.0
      ],
      "name": "indicator_pose/tip"
    },
    {
      "translation": [
        0.005733488,
        0.04381567,
        0.0289381035
      ],
      "rotation": [
        -0.00900851,
        -0.06795014,
        0.9975964,
        -0.0101525113
      ],
      "scale": [
        1.0,
        0.99999994,
        1.0
      ],
      "name": "label_pose/controller"
    },
    {
      "translation": [
        0.084361054,
        0.0215704814,
        0.06276056
      ],
      "rotation": [
        -0.00369402766,
        -0.38057825,
        0.9247413,
        -0.000246207957
      ],
      "name": "label_pose/lower_button/center"
    },
    {
      "translation": [
        -0.07287143,
        0.0275333151,
        0.00167704781
      ],
      "rotation": [
        -0.997825,
        6.053491E-12,
        9.163362E-11,
        0.06591822
      ],
      "name": "label_pose/squeeze/center"
    },
    {
      "translation": [
        0.06871019,
        -0.0203744788,
        0.107323229
      ],
      "rotation": [
        -0.00369402813,
        -0.380577356,
        0.9247417,
        -0.000246204174
      ],
      "scale": [
        1.0,
        0.99999994,
        0.99999994
      ],
      "name": "label_pose/thumbstick/center"
    },
    {
      "translation": [
        -0.0723428652,
        -0.0285575148,
        0.109584048
      ],
      "rotation": [
        -0.003686602,
        -0.4036314,
        0.9149142,
        -0.0003389156
      ],
      "scale": [
        1.0,
        1.0,
        0.9999999
      ],
      "name": "label_pose/trigger/center"
    },
    {
      "translation": [
        -0.08168598,
        0.0007207127,
        0.07031603
      ],
      "rotation": [
        -0.00368660176,
        -0.403631359,
        0.91491425,
        -0.000338915415
      ],
      "scale": [
        1.0,
        1.0,
        0.99999994
      ],
      "name": "label_pose/upper_button/center"
    }
  ],
  "meshes": [
    {
      "primitives": [
        {
          "attributes": {
            "POSITION": 1,
            "NORMAL": 2,
            "TEXCOORD_0": 3
          },
          "indices": 0,
          "material": 0
        }
      ],
      "name": "Xr4_left_gray"
    },
    {
      "primitives": [
        {
          "attributes": {
            "POSITION": 5,
            "NORMAL": 6,
            "TEXCOORD_0": 7
          },
          "indices": 4,
          "material": 0
        }
      ],
      "name": "XR4_left_stick"
    },
    {
      "primitives": [
        {
          "attributes": {
            "POSITION": 9,
            "NORMAL": 10,
            "TEXCOORD_0": 11
          },
          "indices": 8,
          "material": 1
        }
      ],
      "name": "xr4_left_white"
    },
    {
      "primitives": [
        {
          "attributes": {
            "POSITION": 13,
            "NORMAL": 14,
            "TEXCOORD_0": 15
          },
          "indices": 12,
          "material": 0
        }
      ],
      "name": "XR4_left_lower"
    },
    {
      "primitives": [
        {
          "attributes": {
            "POSITION": 17,
            "NORMAL": 18,
            "TEXCOORD_0": 19
          },
          "indices": 16,
          "material": 0
        }
      ],
      "name": "XR4_left_upper"
    },
    {
      "primitives": [
        {
          "attributes": {
            "POSITION": 21,
            "NORMAL": 22,
            "TEXCOORD_0": 23
          },
          "indices": 20,
          "material": 0
        }
      ],
      "name": "XR4_left_grip"
    },
    {
      "primitives": [
        {
          "attributes": {
            "POSITION": 25,
            "NORMAL": 26,
            "TEXCOORD_0": 27
          },
          "indices": 24,
          "material": 0
        }
      ],
      "name": "XR4_left_trigger"
    },
    {
      "primitives": [
        {
          "attributes": {
            "POSITION": 29,
            "NORMAL": 30,
            "TEXCOORD_0": 31
          },
          "indices": 28,
          "material": 0
        }
      ],
      "name": "Object005"
    }
  ],
  "accessors": [
    {
      "bufferView": 0,
      "componentType": 5123,
      "count": 26322,
      "type": "SCALAR",
      "name": "accessorIndices"
    },
    {
      "bufferView": 1,
      "componentType": 5126,
      "count": 8133,
      "max": [
        0.03814676,
        0.00121890858,
        0.0933271348
      ],
      "min": [
        -0.0178580731,
        -0.08435259,
        -0.0279624369
      ],
      "type": "VEC3",
      "name": "accessorPositions"
    },
    {
      "bufferView": 1,
      "byteOffset": 97596,
      "componentType": 5126,
      "count": 8133,
      "type": "VEC3",
      "name": "accessorNormals"
    },
    {
      "bufferView": 2,
      "componentType": 5126,
      "count": 8133,
      "type": "VEC2",
      "name": "accessorUVs"
    },
    {
      "bufferView": 0,
      "byteOffset": 52644,
      "componentType": 5123,
      "count": 19251,
      "type": "SCALAR",
      "name": "accessorIndices"
    },
    {
      "bufferView": 1,
      "byteOffset": 195192,
      "componentType": 5126,
      "count": 4501,
      "max": [
        0.01159821,
        0.00711180549,
        0.01159821
      ],
      "min": [
        -0.01159821,
        -0.00711180549,
        -0.01159821
      ],
      "type": "VEC3",
      "name": "accessorPositions"
    },
    {
      "bufferView": 1,
      "byteOffset": 249204,
      "componentType": 5126,
      "count": 4501,
      "type": "VEC3",
      "name": "accessorNormals"
    },
    {
      "bufferView": 2,
      "byteOffset": 65064,
      "componentType": 5126,
      "count": 4501,
      "type": "VEC2",
      "name": "accessorUVs"
    },
    {
      "bufferView": 0,
      "byteOffset": 91148,
      "componentType": 5123,
      "count": 17505,
      "type": "SCALAR",
      "name": "accessorIndices"
    },
    {
      "bufferView": 1,
      "byteOffset": 303216,
      "componentType": 5126,
      "count": 4647,
      "max": [
        0.03814779,
        0.00102126028,
        0.09557242
      ],
      "min": [
        -0.017858075,
        -0.07760369,
        -0.0279624332
      ],
      "type": "VEC3",
      "name": "accessorPositions"
    },
    {
      "bufferView": 1,
      "byteOffset": 358980,
      "componentType": 5126,
      "count": 4647,
      "type": "VEC3",
      "name": "accessorNormals"
    },
    {
      "bufferView": 2,
      "byteOffset": 101072,
      "componentType": 5126,
      "count": 4647,
      "type": "VEC2",
      "name": "accessorUVs"
    },
    {
      "bufferView": 0,
      "byteOffset": 126160,
      "componentType": 5123,
      "count": 3843,
      "type": "SCALAR",
      "name": "accessorIndices"
    },
    {
      "bufferView": 1,
      "byteOffset": 414744,
      "componentType": 5126,
      "count": 861,
      "max": [
        0.004995785,
        0.00339750038,
        0.004997893
      ],
      "min": [
        -0.004995786,
        -0.0033975,
        -0.004997893
      ],
      "type": "VEC3",
      "name": "accessorPositions"
    },
    {
      "bufferView": 1,
      "byteOffset": 425076,
      "componentType": 5126,
      "count": 861,
      "type": "VEC3",
      "name": "accessorNormals"
    },
    {
      "bufferView": 2,
      "byteOffset": 138248,
      "componentType": 5126,
      "count": 861,
      "type": "VEC2",
      "name": "accessorUVs"
    },
    {
      "bufferView": 0,
      "byteOffset": 133848,
      "componentType": 5123,
      "count": 3843,
      "type": "SCALAR",
      "name": "accessorIndices"
    },
    {
      "bufferView": 1,
      "byteOffset": 435408,
      "componentType": 5126,
      "count": 861,
      "max": [
        0.004995785,
        0.00339749968,
        0.004997893
      ],
      "min": [
        -0.004995785,
        -0.00339750061,
        -0.004997893
      ],
      "type": "VEC3",
      "name": "accessorPositions"
    },
    {
      "bufferView": 1,
      "byteOffset": 445740,
      "componentType": 5126,
      "count": 861,
      "type": "VEC3",
      "name": "accessorNormals"
    },
    {
      "bufferView": 2,
      "byteOffset": 145136,
      "componentType": 5126,
      "count": 861,
      "type": "VEC2",
      "name": "accessorUVs"
    },
    {
      "bufferView": 0,
      "byteOffset": 141536,
      "componentType": 5123,
      "count": 2508,
      "type": "SCALAR",
      "name": "accessorIndices"
    },
    {
      "bufferView": 1,
      "byteOffset": 456072,
      "componentType": 5126,
      "count": 598,
      "max": [
        0.000644731568,
        0.007316124,
        0.0004515038
      ],
      "min": [
        -0.009310747,
        -0.007314236,
        -0.01770997
      ],
      "type": "VEC3",
      "name": "accessorPositions"
    },
    {
      "bufferView": 1,
      "byteOffset": 463248,
      "componentType": 5126,
      "count": 598,
      "type": "VEC3",
      "name": "accessorNormals"
    },
    {
      "bufferView": 2,
      "byteOffset": 152024,
      "componentType": 5126,
      "count": 598,
      "type": "VEC2",
      "name": "accessorUVs"
    },
    {
      "bufferView": 0,
      "byteOffset": 146552,
      "componentType": 5123,
      "count": 3264,
      "type": "SCALAR",
      "name": "accessorIndices"
    },
    {
      "bufferView": 1,
      "byteOffset": 470424,
      "componentType": 5126,
      "count": 868,
      "max": [
        0.0144917462,
        0.00333887967,
        0.0163837522
      ],
      "min": [
        -0.0144917462,
        -0.0273661669,
        -0.003894251
      ],
      "type": "VEC3",
      "name": "accessorPositions"
    },
    {
      "bufferView": 1,
      "byteOffset": 480840,
      "componentType": 5126,
      "count": 868,
      "type": "VEC3",
      "name": "accessorNormals"
    },
    {
      "bufferView": 2,
      "byteOffset": 156808,
      "componentType": 5126,
      "count": 868,
      "type": "VEC2",
      "name": "accessorUVs"
    },
    {
      "bufferView": 0,
      "byteOffset": 153080,
      "componentType": 5123,
      "count": 114,
      "type": "SCALAR",
      "name": "accessorIndices"
    },
    {
      "bufferView": 1,
      "byteOffset": 491256,
      "componentType": 5126,
      "count": 92,
      "max": [
        0.037964832,
        -0.0105859619,
        -0.00123025523
      ],
      "min": [
        -0.0175378248,
        -0.0114097642,
        -0.0278024841
      ],
      "type": "VEC3",
      "name": "accessorPositions"
    },
    {
      "bufferView": 1,
      "byteOffset": 492360,
      "componentType": 5126,
      "count": 92,
      "type": "VEC3",
      "name": "accessorNormals"
    },
    {
      "bufferView": 2,
      "byteOffset": 163752,
      "componentType": 5126,
      "count": 92,
      "type": "VEC2",
      "name": "accessorUVs"
    },
    {
      "bufferView": 3,
      "componentType": 5126,
      "count": 2,
      "max": [
        0.0333333351
      ],
      "min": [
        0.0
      ],
      "type": "SCALAR",
      "name": "accessorAnimationInput"
    },
    {
      "bufferView": 4,
      "componentType": 5126,
      "count": 2,
      "type": "VEC4",
      "name": "accessorAnimationRotations"
    },
    {
      "bufferView": 3,
      "byteOffset": 8,
      "componentType": 5126,
      "count": 2,
      "max": [
        0.0333333351
      ],
      "min": [
        0.0
      ],
      "type": "SCALAR",
      "name": "accessorAnimationInput"
    },
    {
      "bufferView": 5,
      "componentType": 5126,
      "count": 2,
      "type": "VEC3",
      "name": "accessorAnimationPositions"
    },
    {
      "bufferView": 3,
      "byteOffset": 16,
      "componentType": 5126,
      "count": 2,
      "max": [
        0.0333333351
      ],
      "min": [
        0.0
      ],
      "type": "SCALAR",
      "name": "accessorAnimationInput"
    },
    {
      "bufferView": 5,
      "byteOffset": 24,
      "componentType": 5126,
      "count": 2,
      "type": "VEC3",
      "name": "accessorAnimationPositions"
    },
    {
      "bufferView": 3,
      "byteOffset": 24,
      "componentType": 5126,
      "count": 2,
      "max": [
        0.0333333351
      ],
      "min": [
        0.0
      ],
      "type": "SCALAR",
      "name": "accessorAnimationInput"
    },
    {
      "bufferView": 4,
      "byteOffset": 32,
      "componentType": 5126,
      "count": 2,
      "type": "VEC4",
      "name": "accessorAnimationRotations"
    },
    {
      "bufferView": 3,
      "byteOffset": 32,
      "componentType": 5126,
      "count": 2,
      "max": [
        0.0333333351
      ],
      "min": [
        0.0
      ],
      "type": "SCALAR",
      "name": "accessorAnimationInput"
    },
    {
      "bufferView": 4,
      "byteOffset": 64,
      "componentType": 5126,
      "count": 2,
      "type": "VEC4",
      "name": "accessorAnimationRotations"
    },
    {
      "bufferView": 3,
      "byteOffset": 40,
      "componentType": 5126,
      "count": 2,
      "max": [
        0.0333333351
      ],
      "min": [
        0.0
      ],
      "type": "SCALAR",
      "name": "accessorAnimationInput"
    },
    {
      "bufferView": 5,
      "byteOffset": 48,
      "componentType": 5126,
      "count": 2,
      "type": "VEC3",
      "name": "accessorAnimationPositions"
    }
  ],
  "bufferViews": [
    {
      "buffer": 0,
      "byteLength": 153308,
      "name": "bufferViewScalar"
    },
    {
      "buffer": 0,
      "byteOffset": 153308,
      "byteLength": 493464,
      "byteStride": 12,
      "name": "bufferViewFloatVec3"
    },
    {
      "buffer": 0,
      "byteOffset": 646772,
      "byteLength": 164488,
      "byteStride": 8,
      "name": "bufferViewFloatVec2"
    },
    {
      "buffer": 0,
      "byteOffset": 811260,
      "byteLength": 48,
      "name": "bufferViewAnimationFloatScalar"
    },
    {
      "buffer": 0,
      "byteOffset": 811308,
      "byteLength": 96,
      "name": "bufferViewAnimationFloatVec4"
    },
    {
      "buffer": 0,
      "byteOffset": 811404,
      "byteLength": 72,
      "name": "bufferViewAnimationFloatVec3"
    }
  ],
  "buffers": [
    {
      "uri": "controller_VarjoXR4_Left.bin",
      "byteLength": 811476
    }
  ],
  "materials": [
    {
      "pbrMetallicRoughness": {
        "baseColorFactor": [
          0.03137255,
          0.03137255,
          0.03137255,
          1.0
        ],
        "metallicFactor": 0.0,
        "roughnessFactor": 0.590000033
      },
      "name": "VarjoXR4_black"
    },
    {
      "pbrMetallicRoughness": {
        "baseColorFactor": [
          0.5827338,
          0.5609337,
          0.5408105,
          1.0
        ],
        "metallicFactor": 0.0,
        "roughnessFactor": 0.590000033,
        "metallicRoughnessTexture": {
          "index": 0
        }
      },
      "name": "VarjoXR4_beige"
    }
  ],
  "textures": [
    {
      "sampler": 0,
      "source": 0,
      "name": "controller_VarjoXR4_Roughness0.png"
    }
  ],
  "images": [
    {
      "uri": "controller_VarjoXR4_Roughness0.png"
    }
  ],
  "samplers": [
    {
      "magFilter": 9729,
      "minFilter": 9987
    }
  ],
  "animations": [
    {
      "channels": [
        {
          "sampler": 0,
          "target": {
            "node": 2,
            "path": "rotation"
          }
        }
      ],
      "samplers": [
        {
          "input": 32,
          "output": 33
        }
      ],
      "name": "input/thumbstick/x"
    },
    {
      "channels": [
        {
          "sampler": 0,
          "target": {
            "node": 7,
            "path": "translation"
          }
        }
      ],
      "samplers": [
        {
          "input": 34,
          "output": 35
        }
      ],
      "name": "input/squeeze/value"
    },
    {
      "channels": [
        {
          "sampler": 0,
          "target": {
            "node": 8,
            "path": "translation"
          }
        },
        {
          "sampler": 1,
          "target": {
            "node": 8,
            "path": "rotation"
          }
        }
      ],
      "samplers": [
        {
          "input": 36,
          "output": 37
        },
        {
          "input": 38,
          "output": 39
        }
      ],
      "name": "input/trigger/value"
    },
    {
      "channels": [
        {
          "sampler": 0,
          "target": {
            "node": 1,
            "path": "rotation"
          }
        }
      ],
      "samplers": [
        {
          "input": 40,
          "output": 41
        }
      ],
      "name": "input/thumbstick/y"
    },
    {
      "channels": [
        {
          "sampler": 0,
          "target": {
            "node": 5,
            "path": "translation"
          }
        }
      ],
      "samplers": [
        {
          "input": 42,
          "output": 43
        }
      ],
      "name": "input/lower_button/click"
    }
  ]
}




