{
  "asset": {
    "version": "2.0",
    "generator": "babylon.js glTF exporter for 3dsmax 2024 v20240312.5"
  },
  "scene": 0,
  "scenes": [
    {
      "nodes": [
        0,
        9,
        10,
        11,
        12,
        13,
        14,
        15,
        16,
        17,
        18,
        19,
        20,
        21,
        22,
        23,
        24,
        25
      ]
    }
  ],
  "nodes": [
    {
      "children": [
        1
      ],
      "translation": [
        0.00197637756,
        -0.009933215,
        0.0478462167
      ],
      "rotation": [
        -0.9601942,
        0.0,
        0.0,
        -0.279333442
      ],
      "name": "RootNode"
    },
    {
      "children": [
        2,
        3,
        4,
        5,
        6
      ],
      "mesh": 0,
      "translation": [
        1.90734872E-09,
        0.0,
        0.0
      ],
      "rotation": [
        0.7071066,
        0.0,
        0.0,
        0.707106948
      ],
      "name": "ControllerBody_right"
    },
    {
      "mesh": 1,
      "translation": [
        0.00494513335,
        -0.00213040179,
        0.009150594
      ],
      "rotation": [
        -0.08715552,
        0.0,
        0.0,
        0.9961947
      ],
      "name": "lower_button"
    },
    {
      "mesh": 2,
      "translation": [
        0.0155939646,
        -0.00423255563,
        -0.00327888131
      ],
      "rotation": [
        -0.087155804,
        0.0,
        0.0,
        0.9961947
      ],
      "scale": [
        1.0,
        1.00000036,
        1.00000036
      ],
      "name": "upper_button"
    },
    {
      "mesh": 3,
      "translation": [
        0.009157981,
        0.028410472,
        0.0252567772
      ],
      "rotation": [
        -0.876478434,
        0.0,
        0.0,
        -0.48144114
      ],
      "name": "squeeze"
    },
    {
      "mesh": 4,
      "translation": [
        0.0148580633,
        0.00176162727,
        -0.02604221
      ],
      "rotation": [
        3.729712E-08,
        -0.0486806072,
        -3.72971165E-09,
        0.998814464
      ],
      "scale": [
        1.00000012,
        1.0,
        1.0
      ],
      "name": "trigger"
    },
    {
      "children": [
        7
      ],
      "translation": [
        -0.0063872803,
        0.00278128055,
        -0.009212914
      ],
      "rotation": [
        -0.9092681,
        -0.00447036,
        -0.103938796,
        -0.402999133
      ],
      "scale": [
        0.99999994,
        1.00000036,
        1.000001
      ],
      "name": "thumbstick_helper_y"
    },
    {
      "children": [
        8
      ],
      "translation": [
        3.81469745E-09,
        -6.67572042E-09,
        3.81469745E-09
      ],
      "rotation": [
        -0.952646732,
        0.0670058653,
        0.00895539951,
        0.296469629
      ],
      "scale": [
        0.999999762,
        0.999999464,
        0.9999994
      ],
      "name": "thumbstick_helper_x"
    },
    {
      "mesh": 5,
      "translation": [
        0.0,
        0.0,
        2.28881838E-08
      ],
      "rotation": [
        2.28421886E-05,
        -0.9995242,
        0.0307739638,
        0.00209786231
      ],
      "scale": [
        1.00000048,
        -1.00000143,
        1.00000131
      ],
      "name": "thumbstick"
    },
    {
      "translation": [
        0.00681121368,
        0.0007153674,
        0.0465902351
      ],
      "rotation": [
        0.09730577,
        -0.400933444,
        0.9099152,
        -0.04287534
      ],
      "scale": [
        0.99999994,
        1.00000036,
        1.00000012
      ],
      "name": "icon_pose/lower_button/center"
    },
    {
      "translation": [
        0.0123505918,
        0.0120655484,
        0.009034592
      ],
      "rotation": [
        0.04938613,
        -0.204026222,
        0.975319743,
        -0.06845326
      ],
      "scale": [
        1.0,
        1.00000024,
        1.00000012
      ],
      "name": "icon_pose/squeeze/center"
    },
    {
      "translation": [
        -0.00471224869,
        -0.0100339847,
        0.06207737
      ],
      "rotation": [
        0.09730589,
        -0.4009333,
        0.9099153,
        -0.04287529
      ],
      "scale": [
        0.9999995,
        1.00000024,
        1.00000048
      ],
      "name": "icon_pose/thumbstick/center"
    },
    {
      "translation": [
        0.08002788,
        -0.0491249,
        0.08847118
      ],
      "rotation": [
        0.0973056257,
        -0.4009331,
        0.9099154,
        -0.0428755134
      ],
      "scale": [
        1.00000024,
        1.00000024,
        1.00000012
      ],
      "name": "label_pose/trigger/center"
    },
    {
      "translation": [
        -0.0506246649,
        -0.0278225113,
        0.1002202
      ],
      "rotation": [
        0.0973056257,
        -0.4009331,
        0.9099154,
        -0.0428755134
      ],
      "scale": [
        1.00000024,
        1.00000024,
        1.00000012
      ],
      "name": "label_pose/thumbstick/center"
    },
    {
      "translation": [
        0.06908026,
        0.0275333151,
        -0.0067217527
      ],
      "rotation": [
        0.09730578,
        -0.400933355,
        0.909915268,
        -0.04287531
      ],
      "scale": [
        0.9999998,
        1.00000012,
        0.99999994
      ],
      "name": "label_pose/squeeze/center"
    },
    {
      "translation": [
        -0.06437294,
        0.006411976,
        0.0587247945
      ],
      "rotation": [
        0.0973056257,
        -0.4009331,
        0.9099154,
        -0.0428755134
      ],
      "scale": [
        1.00000024,
        1.00000024,
        1.00000012
      ],
      "name": "label_pose/lower_button/center"
    },
    {
      "translation": [
        0.0171932168,
        -0.0407954343,
        0.04775366
      ],
      "rotation": [
        0.0973056257,
        -0.4009331,
        0.9099154,
        -0.0428755134
      ],
      "scale": [
        1.00000024,
        1.00000024,
        1.00000012
      ],
      "name": "icon_pose/trigger/center"
    },
    {
      "translation": [
        0.0173955541,
        -0.008688441,
        0.0550815873
      ],
      "rotation": [
        0.09730577,
        -0.400933444,
        0.9099152,
        -0.04287534
      ],
      "scale": [
        0.99999994,
        1.00000036,
        1.00000012
      ],
      "name": "icon_pose/upper_button/center"
    },
    {
      "translation": [
        0.0168873444,
        -0.00147785957,
        0.009182873
      ],
      "rotation": [
        0.09730609,
        -0.400933355,
        0.9099152,
        -0.04287546
      ],
      "scale": [
        0.9999998,
        1.00000012,
        0.99999994
      ],
      "name": "indicator_pose/squeeze"
    },
    {
      "translation": [
        0.0181888361,
        -0.0374734737,
        0.06707987
      ],
      "rotation": [
        0.0428754948,
        -0.9099154,
        -0.4009331,
        0.09730563
      ],
      "scale": [
        1.00000024,
        1.00000024,
        1.00000012
      ],
      "name": "indicator_pose/tip"
    },
    {
      "translation": [
        -0.005879725,
        0.04381567,
        0.0242836215
      ],
      "rotation": [
        0.0973056257,
        -0.4009331,
        0.9099154,
        -0.0428755134
      ],
      "scale": [
        1.00000024,
        1.00000024,
        1.00000012
      ],
      "name": "label_pose/controller"
    },
    {
      "translation": [
        0.0872053057,
        -0.00457377452,
        0.06877051
      ],
      "rotation": [
        0.0973056555,
        -0.4009335,
        0.9099152,
        -0.0428754576
      ],
      "scale": [
        0.9999999,
        1.00000012,
        1.00000024
      ],
      "name": "label_pose/upper_button/center"
    },
    {
      "translation": [
        -0.0023060448,
        -0.0183908213,
        0.0697846338
      ],
      "rotation": [
        0.09730582,
        -0.4009326,
        0.909915566,
        -0.04287526
      ],
      "scale": [
        0.999999344,
        0.999999762,
        1.00000012
      ],
      "name": "icon_pose/thumbstick/north"
    },
    {
      "translation": [
        -0.0165724214,
        -0.0119522875,
        0.06389703
      ],
      "rotation": [
        0.09730582,
        -0.4009326,
        0.909915566,
        -0.0428752974
      ],
      "scale": [
        0.999999464,
        1.0,
        1.00000036
      ],
      "name": "icon_pose/thumbstick/east"
    },
    {
      "translation": [
        -0.007197588,
        -0.001705863,
        0.0545272678
      ],
      "rotation": [
        0.09730581,
        -0.40093258,
        0.9099156,
        -0.0428752638
      ],
      "scale": [
        0.9999997,
        0.99999994,
        1.0
      ],
      "name": "icon_pose/thumbstick/south"
    },
    {
      "translation": [
        0.00641661976,
        -0.008281873,
        0.06054058
      ],
      "rotation": [
        0.09730581,
        -0.400932521,
        0.9099156,
        -0.0428752974
      ],
      "scale": [
        0.999999642,
        0.999999344,
        0.9999998
      ],
      "name": "icon_pose/thumbstick/west"
    }
  ],
  "meshes": [
    {
      "primitives": [
        {
          "attributes": {
            "POSITION": 1,
            "NORMAL": 2,
            "TEXCOORD_0": 3
          },
          "indices": 0,
          "material": 0
        }
      ],
      "name": "ControllerBody_right"
    },
    {
      "primitives": [
        {
          "attributes": {
            "POSITION": 5,
            "NORMAL": 6,
            "TEXCOORD_0": 7
          },
          "indices": 4,
          "material": 1
        }
      ],
      "name": "lower_button"
    },
    {
      "primitives": [
        {
          "attributes": {
            "POSITION": 9,
            "NORMAL": 10,
            "TEXCOORD_0": 11
          },
          "indices": 8,
          "material": 1
        }
      ],
      "name": "upper_button"
    },
    {
      "primitives": [
        {
          "attributes": {
            "POSITION": 13,
            "NORMAL": 14,
            "TEXCOORD_0": 15
          },
          "indices": 12,
          "material": 1
        }
      ],
      "name": "squeeze"
    },
    {
      "primitives": [
        {
          "attributes": {
            "POSITION": 17,
            "NORMAL": 18,
            "TEXCOORD_0": 19
          },
          "indices": 16,
          "material": 1
        }
      ],
      "name": "trigger"
    },
    {
      "primitives": [
        {
          "attributes": {
            "POSITION": 21,
            "NORMAL": 22,
            "TEXCOORD_0": 23
          },
          "indices": 20,
          "material": 1
        }
      ],
      "name": "thumbstick"
    }
  ],
  "accessors": [
    {
      "bufferView": 0,
      "componentType": 5123,
      "count": 12534,
      "type": "SCALAR",
      "name": "accessorIndices"
    },
    {
      "bufferView": 1,
      "componentType": 5126,
      "count": 3356,
      "max": [
        0.0404627845,
        0.07331418,
        0.0724338144
      ],
      "min": [
        -0.0269050039,
        -0.008058521,
        -0.0326143
      ],
      "type": "VEC3",
      "name": "accessorPositions"
    },
    {
      "bufferView": 1,
      "byteOffset": 40272,
      "componentType": 5126,
      "count": 3356,
      "type": "VEC3",
      "name": "accessorNormals"
    },
    {
      "bufferView": 2,
      "componentType": 5126,
      "count": 3356,
      "type": "VEC2",
      "name": "accessorUVs"
    },
    {
      "bufferView": 0,
      "byteOffset": 25068,
      "componentType": 5123,
      "count": 480,
      "type": "SCALAR",
      "name": "accessorIndices"
    },
    {
      "bufferView": 1,
      "byteOffset": 80544,
      "componentType": 5126,
      "count": 89,
      "max": [
        0.005072828,
        0.00200889,
        0.00526304031
      ],
      "min": [
        -0.005072828,
        -0.00252582552,
        -0.004904065
      ],
      "type": "VEC3",
      "name": "accessorPositions"
    },
    {
      "bufferView": 1,
      "byteOffset": 81612,
      "componentType": 5126,
      "count": 89,
      "type": "VEC3",
      "name": "accessorNormals"
    },
    {
      "bufferView": 2,
      "byteOffset": 26848,
      "componentType": 5126,
      "count": 89,
      "type": "VEC2",
      "name": "accessorUVs"
    },
    {
      "bufferView": 0,
      "byteOffset": 26028,
      "componentType": 5123,
      "count": 480,
      "type": "SCALAR",
      "name": "accessorIndices"
    },
    {
      "bufferView": 1,
      "byteOffset": 82680,
      "componentType": 5126,
      "count": 89,
      "max": [
        0.00507544167,
        0.00202776887,
        0.005260481
      ],
      "min": [
        -0.00507544167,
        -0.00251733162,
        -0.00490521453
      ],
      "type": "VEC3",
      "name": "accessorPositions"
    },
    {
      "bufferView": 1,
      "byteOffset": 83748,
      "componentType": 5126,
      "count": 89,
      "type": "VEC3",
      "name": "accessorNormals"
    },
    {
      "bufferView": 2,
      "byteOffset": 27560,
      "componentType": 5126,
      "count": 89,
      "type": "VEC2",
      "name": "accessorUVs"
    },
    {
      "bufferView": 0,
      "byteOffset": 26988,
      "componentType": 5123,
      "count": 756,
      "type": "SCALAR",
      "name": "accessorIndices"
    },
    {
      "bufferView": 1,
      "byteOffset": 84816,
      "componentType": 5126,
      "count": 141,
      "max": [
        0.005824531,
        0.0141170491,
        0.00912665948
      ],
      "min": [
        -0.0058245305,
        -0.0106694167,
        -0.008463291
      ],
      "type": "VEC3",
      "name": "accessorPositions"
    },
    {
      "bufferView": 1,
      "byteOffset": 86508,
      "componentType": 5126,
      "count": 141,
      "type": "VEC3",
      "name": "accessorNormals"
    },
    {
      "bufferView": 2,
      "byteOffset": 28272,
      "componentType": 5126,
      "count": 141,
      "type": "VEC2",
      "name": "accessorUVs"
    },
    {
      "bufferView": 0,
      "byteOffset": 28500,
      "componentType": 5123,
      "count": 1272,
      "type": "SCALAR",
      "name": "accessorIndices"
    },
    {
      "bufferView": 1,
      "byteOffset": 88200,
      "componentType": 5126,
      "count": 258,
      "max": [
        0.014434495,
        0.0288839415,
        0.0164111741
      ],
      "min": [
        -0.0174938366,
        -0.00266169058,
        -0.0034478053
      ],
      "type": "VEC3",
      "name": "accessorPositions"
    },
    {
      "bufferView": 1,
      "byteOffset": 91296,
      "componentType": 5126,
      "count": 258,
      "type": "VEC3",
      "name": "accessorNormals"
    },
    {
      "bufferView": 2,
      "byteOffset": 29400,
      "componentType": 5126,
      "count": 258,
      "type": "VEC2",
      "name": "accessorUVs"
    },
    {
      "bufferView": 0,
      "byteOffset": 31044,
      "componentType": 5123,
      "count": 1473,
      "type": "SCALAR",
      "name": "accessorIndices"
    },
    {
      "bufferView": 1,
      "byteOffset": 94392,
      "componentType": 5126,
      "count": 325,
      "max": [
        0.008578737,
        0.0148425968,
        0.008364365
      ],
      "min": [
        -0.008913148,
        0.00330949854,
        -0.008310397
      ],
      "type": "VEC3",
      "name": "accessorPositions"
    },
    {
      "bufferView": 1,
      "byteOffset": 98292,
      "componentType": 5126,
      "count": 325,
      "type": "VEC3",
      "name": "accessorNormals"
    },
    {
      "bufferView": 2,
      "byteOffset": 31464,
      "componentType": 5126,
      "count": 325,
      "type": "VEC2",
      "name": "accessorUVs"
    },
    {
      "bufferView": 3,
      "componentType": 5126,
      "count": 2,
      "max": [
        0.0333333351
      ],
      "min": [
        0.0
      ],
      "type": "SCALAR",
      "name": "accessorAnimationInput"
    },
    {
      "bufferView": 4,
      "componentType": 5126,
      "count": 2,
      "type": "VEC4",
      "name": "accessorAnimationRotations"
    },
    {
      "bufferView": 3,
      "byteOffset": 8,
      "componentType": 5126,
      "count": 2,
      "max": [
        0.0333333351
      ],
      "min": [
        0.0
      ],
      "type": "SCALAR",
      "name": "accessorAnimationInput"
    },
    {
      "bufferView": 5,
      "componentType": 5126,
      "count": 2,
      "type": "VEC3",
      "name": "accessorAnimationPositions"
    },
    {
      "bufferView": 3,
      "byteOffset": 16,
      "componentType": 5126,
      "count": 2,
      "max": [
        0.0333333351
      ],
      "min": [
        0.0
      ],
      "type": "SCALAR",
      "name": "accessorAnimationInput"
    },
    {
      "bufferView": 4,
      "byteOffset": 32,
      "componentType": 5126,
      "count": 2,
      "type": "VEC4",
      "name": "accessorAnimationRotations"
    },
    {
      "bufferView": 3,
      "byteOffset": 24,
      "componentType": 5126,
      "count": 2,
      "max": [
        0.0333333351
      ],
      "min": [
        0.0
      ],
      "type": "SCALAR",
      "name": "accessorAnimationInput"
    },
    {
      "bufferView": 5,
      "byteOffset": 24,
      "componentType": 5126,
      "count": 2,
      "type": "VEC3",
      "name": "accessorAnimationPositions"
    },
    {
      "bufferView": 3,
      "byteOffset": 32,
      "componentType": 5126,
      "count": 2,
      "max": [
        0.0333333351
      ],
      "min": [
        0.0
      ],
      "type": "SCALAR",
      "name": "accessorAnimationInput"
    },
    {
      "bufferView": 4,
      "byteOffset": 64,
      "componentType": 5126,
      "count": 2,
      "type": "VEC4",
      "name": "accessorAnimationRotations"
    },
    {
      "bufferView": 3,
      "byteOffset": 40,
      "componentType": 5126,
      "count": 2,
      "max": [
        0.0333333351
      ],
      "min": [
        0.0
      ],
      "type": "SCALAR",
      "name": "accessorAnimationInput"
    },
    {
      "bufferView": 5,
      "byteOffset": 48,
      "componentType": 5126,
      "count": 2,
      "type": "VEC3",
      "name": "accessorAnimationPositions"
    },
    {
      "bufferView": 3,
      "byteOffset": 48,
      "componentType": 5126,
      "count": 2,
      "max": [
        0.0333333351
      ],
      "min": [
        0.0
      ],
      "type": "SCALAR",
      "name": "accessorAnimationInput"
    },
    {
      "bufferView": 4,
      "byteOffset": 96,
      "componentType": 5126,
      "count": 2,
      "type": "VEC4",
      "name": "accessorAnimationRotations"
    },
    {
      "bufferView": 3,
      "byteOffset": 56,
      "componentType": 5126,
      "count": 2,
      "max": [
        0.0333333351
      ],
      "min": [
        0.0
      ],
      "type": "SCALAR",
      "name": "accessorAnimationInput"
    },
    {
      "bufferView": 5,
      "byteOffset": 72,
      "componentType": 5126,
      "count": 2,
      "type": "VEC3",
      "name": "accessorAnimationPositions"
    }
  ],
  "bufferViews": [
    {
      "buffer": 0,
      "byteLength": 33992,
      "name": "bufferViewScalar"
    },
    {
      "buffer": 0,
      "byteOffset": 33992,
      "byteLength": 102192,
      "byteStride": 12,
      "name": "bufferViewFloatVec3"
    },
    {
      "buffer": 0,
      "byteOffset": 136184,
      "byteLength": 34064,
      "byteStride": 8,
      "name": "bufferViewFloatVec2"
    },
    {
      "buffer": 0,
      "byteOffset": 170248,
      "byteLength": 64,
      "name": "bufferViewAnimationFloatScalar"
    },
    {
      "buffer": 0,
      "byteOffset": 170312,
      "byteLength": 128,
      "name": "bufferViewAnimationFloatVec4"
    },
    {
      "buffer": 0,
      "byteOffset": 170440,
      "byteLength": 96,
      "name": "bufferViewAnimationFloatVec3"
    }
  ],
  "buffers": [
    {
      "uri": "controller_MetaQuestTouchPlus_Right.bin",
      "byteLength": 170536
    }
  ],
  "materials": [
    {
      "pbrMetallicRoughness": {
        "baseColorTexture": {
          "index": 2
        },
        "metallicRoughnessTexture": {
          "index": 1
        }
      },
      "normalTexture": {
        "index": 0
      },
      "occlusionTexture": {
        "index": 1
      },
      "name": "controller_MetaQuestTouchPlus_left_"
    },
    {
      "pbrMetallicRoughness": {
        "baseColorTexture": {
          "index": 3
        },
        "metallicRoughnessTexture": {
          "index": 1
        }
      },
      "normalTexture": {
        "index": 0
      },
      "occlusionTexture": {
        "index": 1
      },
      "name": "controller_MetaQuestTouchPlus_right_"
    }
  ],
  "textures": [
    {
      "sampler": 0,
      "source": 0,
      "name": "controller_MetaQuestTouchPlus_Normals.png"
    },
    {
      "sampler": 0,
      "source": 1,
      "name": "controller_MetaQuestTouchPlus_AO__Roughness_Metallic.png"
    },
    {
      "sampler": 0,
      "source": 2,
      "name": "controller_MetaQuestTouchPlus_Left_BaseColor.png"
    },
    {
      "sampler": 0,
      "source": 3,
      "name": "controller_MetaQuestTouchPlus_right_BaseColor_wo_btn.png"
    }
  ],
  "images": [
    {
      "uri": "controller_MetaQuestTouchPlus_Normals.png"
    },
    {
      "uri": "controller_MetaQuestTouchPlus_AO__Roughness_Metallic.png"
    },
    {
      "uri": "controller_MetaQuestTouchPlus_Left_BaseColor.png"
    },
    {
      "uri": "controller_MetaQuestTouchPlus_right_BaseColor_wo_btn.png"
    }
  ],
  "samplers": [
    {
      "magFilter": 9729,
      "minFilter": 9987
    }
  ],
  "animations": [
    {
      "channels": [
        {
          "sampler": 0,
          "target": {
            "node": 7,
            "path": "rotation"
          }
        }
      ],
      "samplers": [
        {
          "input": 24,
          "output": 25
        }
      ],
      "name": "input/thumbstick/x"
    },
    {
      "channels": [
        {
          "sampler": 0,
          "target": {
            "node": 4,
            "path": "translation"
          }
        },
        {
          "sampler": 1,
          "target": {
            "node": 4,
            "path": "rotation"
          }
        }
      ],
      "samplers": [
        {
          "input": 26,
          "output": 27
        },
        {
          "input": 28,
          "output": 29
        }
      ],
      "name": "input/squeeze/value"
    },
    {
      "channels": [
        {
          "sampler": 0,
          "target": {
            "node": 5,
            "path": "translation"
          }
        },
        {
          "sampler": 1,
          "target": {
            "node": 5,
            "path": "rotation"
          }
        }
      ],
      "samplers": [
        {
          "input": 30,
          "output": 31
        },
        {
          "input": 32,
          "output": 33
        }
      ],
      "name": "input/trigger/value"
    },
    {
      "channels": [
        {
          "sampler": 0,
          "target": {
            "node": 3,
            "path": "translation"
          }
        }
      ],
      "samplers": [
        {
          "input": 34,
          "output": 35
        }
      ],
      "name": "input/upper_button/click"
    },
    {
      "channels": [
        {
          "sampler": 0,
          "target": {
            "node": 6,
            "path": "rotation"
          }
        }
      ],
      "samplers": [
        {
          "input": 36,
          "output": 37
        }
      ],
      "name": "input/thumbstick/y"
    },
    {
      "channels": [
        {
          "sampler": 0,
          "target": {
            "node": 2,
            "path": "translation"
          }
        }
      ],
      "samplers": [
        {
          "input": 38,
          "output": 39
        }
      ],
      "name": "input/lower_button/click"
    }
  ]
}

