{
  "asset": {
    "version": "2.0",
    "generator": "babylon.js glTF exporter for 3dsmax 2024 v20240312.5"
  },
  "scene": 0,
  "scenes": [
    {
      "nodes": [
        0,
        9,
        10,
        11,
        12,
        13,
        14,
        15,
        16,
        17,
        18,
        19,
        20,
        21,
        22,
        23,
        24,
        25
      ]
    }
  ],
  "nodes": [
    {
      "children": [
        1
      ],
      "translation": [
        0.00197637756,
        -0.009933215,
        0.0478462167
      ],
      "rotation": [
        -0.9601942,
        0.0,
        0.0,
        -0.279333323
      ],
      "name": "RootNode"
    },
    {
      "children": [
        2,
        3,
        4,
        5,
        6
      ],
      "mesh": 0,
      "rotation": [
        -0.7071068,
        0.0,
        0.0,
        0.7071067
      ],
      "name": "ControllerBody_left_old"
    },
    {
      "mesh": 1,
      "translation": [
        -0.0148580745,
        -0.00176163111,
        0.026042195
      ],
      "rotation": [
        -7.459428E-09,
        -0.04868037,
        -7.575978E-10,
        0.998814464
      ],
      "scale": [
        1.0000006,
        0.99999994,
        1.00000012
      ],
      "name": "trigger"
    },
    {
      "mesh": 2,
      "translation": [
        -0.0155939627,
        0.004232552,
        0.00327887735
      ],
      "rotation": [
        -0.0871558,
        0.0,
        0.0,
        0.9961947
      ],
      "scale": [
        1.0,
        0.9999997,
        0.9999997
      ],
      "name": "upper_button"
    },
    {
      "mesh": 3,
      "translation": [
        -0.004945135,
        0.002130394,
        -0.009150592
      ],
      "rotation": [
        -0.08715573,
        0.0,
        0.0,
        0.9961947
      ],
      "name": "lower_button"
    },
    {
      "mesh": 4,
      "translation": [
        -0.009157983,
        -0.0284104664,
        -0.0252567958
      ],
      "rotation": [
        0.21326533,
        0.0,
        0.0,
        0.976994336
      ],
      "scale": [
        1.0,
        1.00000012,
        1.00000012
      ],
      "name": "squeeze"
    },
    {
      "children": [
        7
      ],
      "translation": [
        0.006387276,
        -0.00278128055,
        0.009212895
      ],
      "rotation": [
        -0.195122048,
        -0.0778719038,
        -0.160343841,
        0.9644445
      ],
      "scale": [
        1.00000024,
        1.00000012,
        1.00000012
      ],
      "name": "thumbstick_helper_y"
    },
    {
      "children": [
        8
      ],
      "translation": [
        0.0,
        3.81469745E-09,
        3.81469745E-09
      ],
      "rotation": [
        0.14521955,
        -0.002546295,
        0.011765386,
        0.989326239
      ],
      "scale": [
        0.999999642,
        0.99999994,
        0.99999994
      ],
      "name": "thumbstick_helper_x"
    },
    {
      "mesh": 5,
      "translation": [
        1.90734872E-09,
        -7.629395E-09,
        1.14440919E-08
      ],
      "rotation": [
        -0.147955,
        0.0042936285,
        -0.0150342453,
        0.9888705
      ],
      "scale": [
        1.00000012,
        1.0,
        1.00000036
      ],
      "name": "thumbstick"
    },
    {
      "translation": [
        -0.00296875788,
        0.0006679154,
        0.04663364
      ],
      "rotation": [
        -0.123908117,
        -0.399505675,
        0.9066759,
        0.0545973144
      ],
      "scale": [
        0.99999994,
        0.9999999,
        0.99999994
      ],
      "name": "icon_pose/lower_button/center"
    },
    {
      "translation": [
        -0.00750385225,
        0.009830342,
        0.011297632
      ],
      "rotation": [
        -0.135746256,
        -0.213283762,
        0.9670887,
        -0.0286792126
      ],
      "scale": [
        0.99999994,
        1.0,
        0.99999994
      ],
      "name": "icon_pose/squeeze/center"
    },
    {
      "translation": [
        0.008651597,
        -0.009625761,
        0.06181575
      ],
      "rotation": [
        -0.123908237,
        -0.3995057,
        0.9066759,
        0.0545973629
      ],
      "scale": [
        0.9999996,
        1.00000012,
        1.00000012
      ],
      "name": "icon_pose/thumbstick/center"
    },
    {
      "translation": [
        -0.05425252,
        -0.0491249,
        0.08847118
      ],
      "rotation": [
        -0.123353668,
        -0.395536065,
        0.9093045,
        0.0387355834
      ],
      "name": "label_pose/trigger/center"
    },
    {
      "translation": [
        0.0561102033,
        -0.0278225113,
        0.1002202
      ],
      "rotation": [
        -0.123908117,
        -0.399505675,
        0.9066759,
        0.0545973144
      ],
      "scale": [
        0.99999994,
        0.9999999,
        0.99999994
      ],
      "name": "label_pose/thumbstick/center"
    },
    {
      "translation": [
        -0.0535296053,
        0.0275333151,
        -0.0067217527
      ],
      "rotation": [
        -0.123908222,
        -0.399505854,
        0.906675756,
        0.0545973442
      ],
      "name": "label_pose/squeeze/center"
    },
    {
      "translation": [
        0.0634782,
        0.006411978,
        0.058724802
      ],
      "rotation": [
        -0.123908117,
        -0.399505675,
        0.9066759,
        0.0545973144
      ],
      "scale": [
        0.99999994,
        0.9999999,
        0.99999994
      ],
      "name": "label_pose/lower_button/center"
    },
    {
      "translation": [
        -0.0123321749,
        -0.03642727,
        0.0458894037
      ],
      "rotation": [
        -0.123353668,
        -0.395536065,
        0.9093045,
        0.0387355834
      ],
      "name": "icon_pose/trigger/center"
    },
    {
      "translation": [
        -0.013617591,
        -0.008688442,
        0.0550815836
      ],
      "rotation": [
        -0.123908117,
        -0.399505675,
        0.9066759,
        0.0545973144
      ],
      "scale": [
        0.99999994,
        0.9999999,
        0.99999994
      ],
      "name": "icon_pose/upper_button/center"
    },
    {
      "translation": [
        -0.0131598972,
        -0.00147785957,
        0.009182873
      ],
      "rotation": [
        -0.123908222,
        -0.399505854,
        0.906675756,
        0.0545973442
      ],
      "name": "indicator_pose/squeeze"
    },
    {
      "translation": [
        -0.0135758752,
        -0.037025284,
        0.06770964
      ],
      "rotation": [
        -0.0545973144,
        -0.9066759,
        -0.3995057,
        -0.12390814
      ],
      "scale": [
        0.9999999,
        0.99999994,
        0.99999994
      ],
      "name": "indicator_pose/tip"
    },
    {
      "translation": [
        0.0101008993,
        0.04381567,
        0.0242836215
      ],
      "rotation": [
        -0.123908117,
        -0.399505675,
        0.9066759,
        0.0545973144
      ],
      "scale": [
        0.99999994,
        0.9999999,
        0.99999994
      ],
      "name": "label_pose/controller"
    },
    {
      "translation": [
        -0.0784866139,
        -0.0003752346,
        0.06493122
      ],
      "rotation": [
        -0.086472325,
        -0.40141508,
        0.911008656,
        0.0381016545
      ],
      "scale": [
        1.0,
        1.0,
        0.99999994
      ],
      "name": "label_pose/upper_button/center"
    },
    {
      "translation": [
        0.00534834526,
        -0.0182019547,
        0.06972361
      ],
      "rotation": [
        -0.123908393,
        -0.399506152,
        0.906675637,
        0.0545972325
      ],
      "scale": [
        0.999999464,
        0.99999994,
        1.0
      ],
      "name": "icon_pose/thumbstick/north"
    },
    {
      "translation": [
        -0.00320944516,
        -0.007599437,
        0.0600283
      ],
      "rotation": [
        -0.123908378,
        -0.3995057,
        0.9066758,
        0.0545972921
      ],
      "scale": [
        0.999999762,
        1.00000012,
        1.00000012
      ],
      "name": "icon_pose/thumbstick/east"
    },
    {
      "translation": [
        0.011555058,
        -0.0017569242,
        0.0546856262
      ],
      "rotation": [
        -0.123908378,
        -0.3995057,
        0.9066758,
        0.0545972772
      ],
      "scale": [
        0.9999998,
        1.00000012,
        1.00000012
      ],
      "name": "icon_pose/thumbstick/south"
    },
    {
      "translation": [
        0.0194489956,
        -0.0122568468,
        0.0642870963
      ],
      "rotation": [
        -0.123907946,
        -0.3995061,
        0.9066757,
        0.054597415
      ],
      "scale": [
        0.99999994,
        0.999999642,
        0.9999999
      ],
      "name": "icon_pose/thumbstick/west"
    }
  ],
  "meshes": [
    {
      "primitives": [
        {
          "attributes": {
            "POSITION": 1,
            "NORMAL": 2,
            "TEXCOORD_0": 3
          },
          "indices": 0,
          "material": 0
        }
      ],
      "name": "ControllerBody_left_old"
    },
    {
      "primitives": [
        {
          "attributes": {
            "POSITION": 5,
            "NORMAL": 6,
            "TEXCOORD_0": 7
          },
          "indices": 4,
          "material": 0
        }
      ],
      "name": "trigger"
    },
    {
      "primitives": [
        {
          "attributes": {
            "POSITION": 9,
            "NORMAL": 10,
            "TEXCOORD_0": 11
          },
          "indices": 8,
          "material": 0
        }
      ],
      "name": "upper_button"
    },
    {
      "primitives": [
        {
          "attributes": {
            "POSITION": 13,
            "NORMAL": 14,
            "TEXCOORD_0": 15
          },
          "indices": 12,
          "material": 0
        }
      ],
      "name": "lower_button"
    },
    {
      "primitives": [
        {
          "attributes": {
            "POSITION": 17,
            "NORMAL": 18,
            "TEXCOORD_0": 19
          },
          "indices": 16,
          "material": 0
        }
      ],
      "name": "squeeze"
    },
    {
      "primitives": [
        {
          "attributes": {
            "POSITION": 21,
            "NORMAL": 22,
            "TEXCOORD_0": 23
          },
          "indices": 20,
          "material": 0
        }
      ],
      "name": "thumbstick"
    }
  ],
  "accessors": [
    {
      "bufferView": 0,
      "componentType": 5123,
      "count": 12636,
      "type": "SCALAR",
      "name": "accessorIndices"
    },
    {
      "bufferView": 1,
      "componentType": 5126,
      "count": 3389,
      "max": [
        0.0269050021,
        0.008058517,
        0.0326143
      ],
      "min": [
        -0.040462777,
        -0.0733142,
        -0.0724338
      ],
      "type": "VEC3",
      "name": "accessorPositions"
    },
    {
      "bufferView": 1,
      "byteOffset": 40668,
      "componentType": 5126,
      "count": 3389,
      "type": "VEC3",
      "name": "accessorNormals"
    },
    {
      "bufferView": 2,
      "componentType": 5126,
      "count": 3389,
      "type": "VEC2",
      "name": "accessorUVs"
    },
    {
      "bufferView": 0,
      "byteOffset": 25272,
      "componentType": 5123,
      "count": 1272,
      "type": "SCALAR",
      "name": "accessorIndices"
    },
    {
      "bufferView": 1,
      "byteOffset": 81336,
      "componentType": 5126,
      "count": 258,
      "max": [
        0.0174938384,
        0.00266168825,
        0.00344780367
      ],
      "min": [
        -0.0144344894,
        -0.028883934,
        -0.01641117
      ],
      "type": "VEC3",
      "name": "accessorPositions"
    },
    {
      "bufferView": 1,
      "byteOffset": 84432,
      "componentType": 5126,
      "count": 258,
      "type": "VEC3",
      "name": "accessorNormals"
    },
    {
      "bufferView": 2,
      "byteOffset": 27112,
      "componentType": 5126,
      "count": 258,
      "type": "VEC2",
      "name": "accessorUVs"
    },
    {
      "bufferView": 0,
      "byteOffset": 27816,
      "componentType": 5123,
      "count": 480,
      "type": "SCALAR",
      "name": "accessorIndices"
    },
    {
      "bufferView": 1,
      "byteOffset": 87528,
      "componentType": 5126,
      "count": 89,
      "max": [
        0.00507544167,
        0.002517329,
        0.00490521546
      ],
      "min": [
        -0.00507544167,
        -0.002027769,
        -0.00526047731
      ],
      "type": "VEC3",
      "name": "accessorPositions"
    },
    {
      "bufferView": 1,
      "byteOffset": 88596,
      "componentType": 5126,
      "count": 89,
      "type": "VEC3",
      "name": "accessorNormals"
    },
    {
      "bufferView": 2,
      "byteOffset": 29176,
      "componentType": 5126,
      "count": 89,
      "type": "VEC2",
      "name": "accessorUVs"
    },
    {
      "bufferView": 0,
      "byteOffset": 28776,
      "componentType": 5123,
      "count": 480,
      "type": "SCALAR",
      "name": "accessorIndices"
    },
    {
      "bufferView": 1,
      "byteOffset": 89664,
      "componentType": 5126,
      "count": 89,
      "max": [
        0.005072828,
        0.0025258204,
        0.00490406249
      ],
      "min": [
        -0.005072828,
        -0.00200889329,
        -0.005263041
      ],
      "type": "VEC3",
      "name": "accessorPositions"
    },
    {
      "bufferView": 1,
      "byteOffset": 90732,
      "componentType": 5126,
      "count": 89,
      "type": "VEC3",
      "name": "accessorNormals"
    },
    {
      "bufferView": 2,
      "byteOffset": 29888,
      "componentType": 5126,
      "count": 89,
      "type": "VEC2",
      "name": "accessorUVs"
    },
    {
      "bufferView": 0,
      "byteOffset": 29736,
      "componentType": 5123,
      "count": 756,
      "type": "SCALAR",
      "name": "accessorIndices"
    },
    {
      "bufferView": 1,
      "byteOffset": 91800,
      "componentType": 5126,
      "count": 141,
      "max": [
        0.0058245305,
        0.00768217864,
        0.0116946632
      ],
      "min": [
        -0.005824531,
        -0.007867955,
        -0.0142322425
      ],
      "type": "VEC3",
      "name": "accessorPositions"
    },
    {
      "bufferView": 1,
      "byteOffset": 93492,
      "componentType": 5126,
      "count": 141,
      "type": "VEC3",
      "name": "accessorNormals"
    },
    {
      "bufferView": 2,
      "byteOffset": 30600,
      "componentType": 5126,
      "count": 141,
      "type": "VEC2",
      "name": "accessorUVs"
    },
    {
      "bufferView": 0,
      "byteOffset": 31248,
      "componentType": 5123,
      "count": 1473,
      "type": "SCALAR",
      "name": "accessorIndices"
    },
    {
      "bufferView": 1,
      "byteOffset": 95184,
      "componentType": 5126,
      "count": 325,
      "max": [
        0.008578737,
        0.0148425968,
        0.008364365
      ],
      "min": [
        -0.008913148,
        0.00330949854,
        -0.008310397
      ],
      "type": "VEC3",
      "name": "accessorPositions"
    },
    {
      "bufferView": 1,
      "byteOffset": 99084,
      "componentType": 5126,
      "count": 325,
      "type": "VEC3",
      "name": "accessorNormals"
    },
    {
      "bufferView": 2,
      "byteOffset": 31728,
      "componentType": 5126,
      "count": 325,
      "type": "VEC2",
      "name": "accessorUVs"
    },
    {
      "bufferView": 3,
      "componentType": 5126,
      "count": 2,
      "max": [
        0.0333333351
      ],
      "min": [
        0.0
      ],
      "type": "SCALAR",
      "name": "accessorAnimationInput"
    },
    {
      "bufferView": 4,
      "componentType": 5126,
      "count": 2,
      "type": "VEC4",
      "name": "accessorAnimationRotations"
    },
    {
      "bufferView": 3,
      "byteOffset": 8,
      "componentType": 5126,
      "count": 2,
      "max": [
        0.0333333351
      ],
      "min": [
        0.0
      ],
      "type": "SCALAR",
      "name": "accessorAnimationInput"
    },
    {
      "bufferView": 5,
      "componentType": 5126,
      "count": 2,
      "type": "VEC3",
      "name": "accessorAnimationPositions"
    },
    {
      "bufferView": 3,
      "byteOffset": 16,
      "componentType": 5126,
      "count": 2,
      "max": [
        0.0333333351
      ],
      "min": [
        0.0
      ],
      "type": "SCALAR",
      "name": "accessorAnimationInput"
    },
    {
      "bufferView": 4,
      "byteOffset": 32,
      "componentType": 5126,
      "count": 2,
      "type": "VEC4",
      "name": "accessorAnimationRotations"
    },
    {
      "bufferView": 3,
      "byteOffset": 24,
      "componentType": 5126,
      "count": 2,
      "max": [
        0.0333333351
      ],
      "min": [
        0.0
      ],
      "type": "SCALAR",
      "name": "accessorAnimationInput"
    },
    {
      "bufferView": 5,
      "byteOffset": 24,
      "componentType": 5126,
      "count": 2,
      "type": "VEC3",
      "name": "accessorAnimationPositions"
    },
    {
      "bufferView": 3,
      "byteOffset": 32,
      "componentType": 5126,
      "count": 2,
      "max": [
        0.0333333351
      ],
      "min": [
        0.0
      ],
      "type": "SCALAR",
      "name": "accessorAnimationInput"
    },
    {
      "bufferView": 4,
      "byteOffset": 64,
      "componentType": 5126,
      "count": 2,
      "type": "VEC4",
      "name": "accessorAnimationRotations"
    },
    {
      "bufferView": 3,
      "byteOffset": 40,
      "componentType": 5126,
      "count": 2,
      "max": [
        0.0333333351
      ],
      "min": [
        0.0
      ],
      "type": "SCALAR",
      "name": "accessorAnimationInput"
    },
    {
      "bufferView": 5,
      "byteOffset": 48,
      "componentType": 5126,
      "count": 2,
      "type": "VEC3",
      "name": "accessorAnimationPositions"
    },
    {
      "bufferView": 3,
      "byteOffset": 48,
      "componentType": 5126,
      "count": 2,
      "max": [
        0.0333333351
      ],
      "min": [
        0.0
      ],
      "type": "SCALAR",
      "name": "accessorAnimationInput"
    },
    {
      "bufferView": 4,
      "byteOffset": 96,
      "componentType": 5126,
      "count": 2,
      "type": "VEC4",
      "name": "accessorAnimationRotations"
    },
    {
      "bufferView": 3,
      "byteOffset": 56,
      "componentType": 5126,
      "count": 2,
      "max": [
        0.0333333351
      ],
      "min": [
        0.0
      ],
      "type": "SCALAR",
      "name": "accessorAnimationInput"
    },
    {
      "bufferView": 5,
      "byteOffset": 72,
      "componentType": 5126,
      "count": 2,
      "type": "VEC3",
      "name": "accessorAnimationPositions"
    }
  ],
  "bufferViews": [
    {
      "buffer": 0,
      "byteLength": 34196,
      "name": "bufferViewScalar"
    },
    {
      "buffer": 0,
      "byteOffset": 34196,
      "byteLength": 102984,
      "byteStride": 12,
      "name": "bufferViewFloatVec3"
    },
    {
      "buffer": 0,
      "byteOffset": 137180,
      "byteLength": 34328,
      "byteStride": 8,
      "name": "bufferViewFloatVec2"
    },
    {
      "buffer": 0,
      "byteOffset": 171508,
      "byteLength": 64,
      "name": "bufferViewAnimationFloatScalar"
    },
    {
      "buffer": 0,
      "byteOffset": 171572,
      "byteLength": 128,
      "name": "bufferViewAnimationFloatVec4"
    },
    {
      "buffer": 0,
      "byteOffset": 171700,
      "byteLength": 96,
      "name": "bufferViewAnimationFloatVec3"
    }
  ],
  "buffers": [
    {
      "uri": "controller_MetaQuestTouchPlus_Left.bin",
      "byteLength": 171796
    }
  ],
  "materials": [
    {
      "pbrMetallicRoughness": {
        "baseColorTexture": {
          "index": 2
        },
        "metallicRoughnessTexture": {
          "index": 1
        }
      },
      "normalTexture": {
        "index": 0
      },
      "occlusionTexture": {
        "index": 1
      },
      "name": "controller_MetaQuestTouchPlus_left_"
    }
  ],
  "textures": [
    {
      "sampler": 0,
      "source": 0,
      "name": "controller_MetaQuestTouchPlus_Normals.png"
    },
    {
      "sampler": 0,
      "source": 1,
      "name": "controller_MetaQuestTouchPlus_AO__Roughness_Metallic.png"
    },
    {
      "sampler": 0,
      "source": 2,
      "name": "controller_MetaQuestTouchPlus_Left_BaseColor.png"
    }
  ],
  "images": [
    {
      "uri": "controller_MetaQuestTouchPlus_Normals.png"
    },
    {
      "uri": "controller_MetaQuestTouchPlus_AO__Roughness_Metallic.png"
    },
    {
      "uri": "controller_MetaQuestTouchPlus_Left_BaseColor.png"
    }
  ],
  "samplers": [
    {
      "magFilter": 9729,
      "minFilter": 9987
    }
  ],
  "animations": [
    {
      "channels": [
        {
          "sampler": 0,
          "target": {
            "node": 7,
            "path": "rotation"
          }
        }
      ],
      "samplers": [
        {
          "input": 24,
          "output": 25
        }
      ],
      "name": "input/thumbstick/x"
    },
    {
      "channels": [
        {
          "sampler": 0,
          "target": {
            "node": 5,
            "path": "translation"
          }
        },
        {
          "sampler": 1,
          "target": {
            "node": 5,
            "path": "rotation"
          }
        }
      ],
      "samplers": [
        {
          "input": 26,
          "output": 27
        },
        {
          "input": 28,
          "output": 29
        }
      ],
      "name": "input/squeeze/value"
    },
    {
      "channels": [
        {
          "sampler": 0,
          "target": {
            "node": 2,
            "path": "translation"
          }
        },
        {
          "sampler": 1,
          "target": {
            "node": 2,
            "path": "rotation"
          }
        }
      ],
      "samplers": [
        {
          "input": 30,
          "output": 31
        },
        {
          "input": 32,
          "output": 33
        }
      ],
      "name": "input/trigger/value"
    },
    {
      "channels": [
        {
          "sampler": 0,
          "target": {
            "node": 3,
            "path": "translation"
          }
        }
      ],
      "samplers": [
        {
          "input": 34,
          "output": 35
        }
      ],
      "name": "input/upper_button/click"
    },
    {
      "channels": [
        {
          "sampler": 0,
          "target": {
            "node": 6,
            "path": "rotation"
          }
        }
      ],
      "samplers": [
        {
          "input": 36,
          "output": 37
        }
      ],
      "name": "input/thumbstick/y"
    },
    {
      "channels": [
        {
          "sampler": 0,
          "target": {
            "node": 4,
            "path": "translation"
          }
        }
      ],
      "samplers": [
        {
          "input": 38,
          "output": 39
        }
      ],
      "name": "input/lower_button/click"
    }
  ]
}

