{
  "asset": {
    "version": "2.0",
    "generator": "babylon.js glTF exporter for 3dsmax 2024 v20240312.5"
  },
  "scene": 0,
  "scenes": [
    {
      "nodes": [
        0,
        8,
        9,
        10,
        11,
        12,
        13,
        14,
        15,
        16,
        17,
        18,
        19,
        20,
        21,
        22,
        23,
        24
      ]
    }
  ],
  "nodes": [
    {
      "children": [
        1,
        4,
        5,
        6,
        7
      ],
      "mesh": 0,
      "translation": [
        -0.0006012607,
        -0.009088828,
        0.0134814763
      ],
      "rotation": [
        -1.93621084E-08,
        -0.896544635,
        -0.442953378,
        3.91892137E-08
      ],
      "name": "MetaQuest_Controller_left"
    },
    {
      "children": [
        2
      ],
      "translation": [
        -0.0182649828,
        0.0207984671,
        -0.0241127629
      ],
      "rotation": [
        -0.003209466,
        -0.991431653,
        -0.128217876,
        -0.0247630011
      ],
      "scale": [
        1.00000024,
        1.00000036,
        1.0000006
      ],
      "name": "thumbstick_helper_y002"
    },
    {
      "children": [
        3
      ],
      "translation": [
        -1.90734872E-09,
        9.536744E-10,
        -7.629395E-09
      ],
      "rotation": [
        0.004363326,
        0.147596762,
        -0.09351526,
        0.9846071
      ],
      "scale": [
        0.999999642,
        0.9999998,
        0.99999994
      ],
      "name": "thumbstick_helper_x002"
    },
    {
      "mesh": 1,
      "translation": [
        0.00012241317,
        0.007986205,
        2.9140474E-05
      ],
      "rotation": [
        -0.007579877,
        -0.9995831,
        -0.000969651,
        0.02784156
      ],
      "scale": [
        1.00000024,
        0.999999464,
        0.9999992
      ],
      "name": "MetaQuest_Controller_left_stick"
    },
    {
      "mesh": 2,
      "translation": [
        0.00377358473,
        0.029419031,
        -0.0264818855
      ],
      "name": "MetaQuest_Controller_left_Y"
    },
    {
      "mesh": 3,
      "translation": [
        -0.0006811296,
        0.0294186063,
        -0.0116290059
      ],
      "name": "MetaQuest_Controller_left_X"
    },
    {
      "mesh": 4,
      "translation": [
        -0.002001441,
        0.001311533,
        1.87101377E-05
      ],
      "rotation": [
        -0.300705969,
        -1.39692144E-15,
        0.0,
        0.953716934
      ],
      "name": "MetaQuest_Controller_left_squeeze"
    },
    {
      "mesh": 5,
      "translation": [
        -0.00320902164,
        0.0170262046,
        -0.0510812365
      ],
      "name": "MetaQuest_Controller_left_trigger"
    },
    {
      "translation": [
        0.0173883326,
        -0.00720676,
        0.05559945
      ],
      "rotation": [
        -5.45689751E-08,
        -0.896544635,
        -0.4429535,
        1.5529929E-07
      ],
      "scale": [
        0.999999762,
        1.00000036,
        1.00000036
      ],
      "name": "icon_pose/thumbstick/center"
    },
    {
      "translation": [
        -0.00193374068,
        0.00724132173,
        0.0122641493
      ],
      "rotation": [
        2.820582E-07,
        -0.0225556288,
        0.9997456,
        6.36361852E-09
      ],
      "scale": [
        1.0,
        1.00000024,
        1.00000024
      ],
      "name": "icon_pose/squeeze/center"
    },
    {
      "translation": [
        7.987154E-05,
        0.000442277931,
        0.04508059
      ],
      "rotation": [
        1.46065716E-07,
        -0.442953169,
        0.8965448,
        7.216624E-08
      ],
      "scale": [
        1.0,
        1.00000024,
        1.00000024
      ],
      "name": "icon_pose/lower_button/center"
    },
    {
      "translation": [
        0.00523733441,
        -0.00717584928,
        0.05551496
      ],
      "rotation": [
        2.93385369E-07,
        -0.4429529,
        0.8965449,
        3.531888E-08
      ],
      "scale": [
        1.0,
        1.00000012,
        1.00000012
      ],
      "name": "icon_pose/thumbstick/east"
    },
    {
      "translation": [
        0.0173361935,
        0.00199306686,
        0.04850096
      ],
      "rotation": [
        4.778439E-07,
        -0.442953169,
        0.896544755,
        -8.109064E-08
      ],
      "scale": [
        0.999999762,
        0.99999994,
        0.9999999
      ],
      "name": "icon_pose/thumbstick/south"
    },
    {
      "translation": [
        0.0173362214,
        -0.01637981,
        0.0625558347
      ],
      "rotation": [
        4.82907865E-07,
        -0.442953169,
        0.896544755,
        -7.42522559E-08
      ],
      "scale": [
        1.00000012,
        1.00000024,
        1.00000024
      ],
      "name": "icon_pose/thumbstick/north"
    },
    {
      "translation": [
        0.02875826,
        -0.007175772,
        0.0555149838
      ],
      "rotation": [
        4.841741E-07,
        -0.4429532,
        0.896544755,
        -7.219595E-08
      ],
      "scale": [
        0.9999998,
        0.999999464,
        0.999999642
      ],
      "name": "icon_pose/thumbstick/west"
    },
    {
      "translation": [
        0.002042852,
        -0.0427512154,
        0.046839226
      ],
      "rotation": [
        -2.33115031E-07,
        -0.44295305,
        0.8965448,
        -6.641903E-08
      ],
      "name": "icon_pose/trigger/center"
    },
    {
      "translation": [
        -0.00437484169,
        -0.0113805449,
        0.05407117
      ],
      "rotation": [
        1.46065716E-07,
        -0.442953169,
        0.8965448,
        7.216624E-08
      ],
      "scale": [
        1.0,
        1.00000024,
        1.00000024
      ],
      "name": "icon_pose/upper_button/center"
    },
    {
      "translation": [
        -0.005911484,
        -0.00615682546,
        0.0128101278
      ],
      "rotation": [
        2.820582E-07,
        -0.0225556288,
        0.9997456,
        6.36361852E-09
      ],
      "scale": [
        1.0,
        0.99999994,
        0.99999994
      ],
      "name": "indicator_pose/squeeze"
    },
    {
      "translation": [
        0.00434638746,
        -0.0448686332,
        0.07073813
      ],
      "rotation": [
        6.641905E-08,
        -0.896544755,
        -0.442953169,
        -2.33115017E-07
      ],
      "name": "indicator_pose/tip"
    },
    {
      "translation": [
        0.014759806,
        0.04381567,
        0.0242836215
      ],
      "rotation": [
        1.9439085E-07,
        -0.44295305,
        0.8965448,
        1.44797454E-07
      ],
      "name": "label_pose/controller"
    },
    {
      "translation": [
        0.07162883,
        0.0481229238,
        0.0477397069
      ],
      "rotation": [
        1.9439085E-07,
        -0.44295305,
        0.8965448,
        1.44797454E-07
      ],
      "name": "label_pose/lower_button/center"
    },
    {
      "translation": [
        -0.0607140362,
        0.0275333151,
        0.00167704781
      ],
      "rotation": [
        2.529422E-07,
        -0.442953169,
        0.8965448,
        1.2497037E-07
      ],
      "scale": [
        1.0,
        0.99999994,
        0.99999994
      ],
      "name": "label_pose/squeeze/center"
    },
    {
      "translation": [
        0.0695553944,
        -0.0278225113,
        0.10163267
      ],
      "rotation": [
        1.9439085E-07,
        -0.44295305,
        0.8965448,
        1.44797454E-07
      ],
      "name": "label_pose/thumbstick/center"
    },
    {
      "translation": [
        -0.028091114,
        -0.06261678,
        0.0874218
      ],
      "rotation": [
        5.13752E-07,
        -0.44295305,
        0.8965448,
        3.665277E-08
      ],
      "name": "label_pose/trigger/center"
    },
    {
      "translation": [
        -0.05722198,
        -0.0383479446,
        0.0936228
      ],
      "rotation": [
        5.13752E-07,
        -0.4429531,
        0.8965448,
        3.665279E-08
      ],
      "scale": [
        1.0,
        1.00000012,
        1.00000012
      ],
      "name": "label_pose/upper_button/center"
    }
  ],
  "meshes": [
    {
      "primitives": [
        {
          "attributes": {
            "POSITION": 1,
            "NORMAL": 2,
            "TEXCOORD_0": 3
          },
          "indices": 0,
          "material": 0
        }
      ],
      "name": "MetaQuest_Controller_left"
    },
    {
      "primitives": [
        {
          "attributes": {
            "POSITION": 5,
            "NORMAL": 6,
            "TEXCOORD_0": 7
          },
          "indices": 4,
          "material": 0
        }
      ],
      "name": "MetaQuest_Controller_left_stick"
    },
    {
      "primitives": [
        {
          "attributes": {
            "POSITION": 9,
            "NORMAL": 10,
            "TEXCOORD_0": 11
          },
          "indices": 8,
          "material": 0
        }
      ],
      "name": "MetaQuest_Controller_left_Y"
    },
    {
      "primitives": [
        {
          "attributes": {
            "POSITION": 13,
            "NORMAL": 14,
            "TEXCOORD_0": 15
          },
          "indices": 12,
          "material": 0
        }
      ],
      "name": "MetaQuest_Controller_left_X"
    },
    {
      "primitives": [
        {
          "attributes": {
            "POSITION": 17,
            "NORMAL": 18,
            "TEXCOORD_0": 19
          },
          "indices": 16,
          "material": 0
        }
      ],
      "name": "MetaQuest_Controller_left_squeeze"
    },
    {
      "primitives": [
        {
          "attributes": {
            "POSITION": 21,
            "NORMAL": 22,
            "TEXCOORD_0": 23
          },
          "indices": 20,
          "material": 0
        }
      ],
      "name": "MetaQuest_Controller_left_trigger"
    }
  ],
  "accessors": [
    {
      "bufferView": 0,
      "componentType": 5123,
      "count": 5112,
      "type": "SCALAR",
      "name": "accessorIndices"
    },
    {
      "bufferView": 1,
      "componentType": 5126,
      "count": 1808,
      "max": [
        0.0333021656,
        0.0287477449,
        0.056807328
      ],
      "min": [
        -0.04000158,
        -0.03935741,
        -0.06208881
      ],
      "type": "VEC3",
      "name": "accessorPositions"
    },
    {
      "bufferView": 1,
      "byteOffset": 21696,
      "componentType": 5126,
      "count": 1808,
      "type": "VEC3",
      "name": "accessorNormals"
    },
    {
      "bufferView": 2,
      "componentType": 5126,
      "count": 1808,
      "type": "VEC2",
      "name": "accessorUVs"
    },
    {
      "bufferView": 0,
      "byteOffset": 10224,
      "componentType": 5123,
      "count": 993,
      "type": "SCALAR",
      "name": "accessorIndices"
    },
    {
      "bufferView": 1,
      "byteOffset": 43392,
      "componentType": 5126,
      "count": 238,
      "max": [
        0.008375319,
        0.006200388,
        0.008497384
      ],
      "min": [
        -0.008375319,
        -0.00620038249,
        -0.008497383
      ],
      "type": "VEC3",
      "name": "accessorPositions"
    },
    {
      "bufferView": 1,
      "byteOffset": 46248,
      "componentType": 5126,
      "count": 238,
      "type": "VEC3",
      "name": "accessorNormals"
    },
    {
      "bufferView": 2,
      "byteOffset": 14464,
      "componentType": 5126,
      "count": 238,
      "type": "VEC2",
      "name": "accessorUVs"
    },
    {
      "bufferView": 0,
      "byteOffset": 12212,
      "componentType": 5123,
      "count": 150,
      "type": "SCALAR",
      "name": "accessorIndices"
    },
    {
      "bufferView": 1,
      "byteOffset": 49104,
      "componentType": 5126,
      "count": 41,
      "max": [
        0.00501810946,
        0.00222632429,
        0.00509250071
      ],
      "min": [
        -0.00501810946,
        -0.00222632429,
        -0.005092503
      ],
      "type": "VEC3",
      "name": "accessorPositions"
    },
    {
      "bufferView": 1,
      "byteOffset": 49596,
      "componentType": 5126,
      "count": 41,
      "type": "VEC3",
      "name": "accessorNormals"
    },
    {
      "bufferView": 2,
      "byteOffset": 16368,
      "componentType": 5126,
      "count": 41,
      "type": "VEC2",
      "name": "accessorUVs"
    },
    {
      "bufferView": 0,
      "byteOffset": 12512,
      "componentType": 5123,
      "count": 150,
      "type": "SCALAR",
      "name": "accessorIndices"
    },
    {
      "bufferView": 1,
      "byteOffset": 50088,
      "componentType": 5126,
      "count": 41,
      "max": [
        0.00509185251,
        0.00222632615,
        0.00501686754
      ],
      "min": [
        -0.00509185251,
        -0.00222632429,
        -0.005016869
      ],
      "type": "VEC3",
      "name": "accessorPositions"
    },
    {
      "bufferView": 1,
      "byteOffset": 50580,
      "componentType": 5126,
      "count": 41,
      "type": "VEC3",
      "name": "accessorNormals"
    },
    {
      "bufferView": 2,
      "byteOffset": 16696,
      "componentType": 5126,
      "count": 41,
      "type": "VEC2",
      "name": "accessorUVs"
    },
    {
      "bufferView": 0,
      "byteOffset": 12812,
      "componentType": 5123,
      "count": 534,
      "type": "SCALAR",
      "name": "accessorIndices"
    },
    {
      "bufferView": 1,
      "byteOffset": 51072,
      "componentType": 5126,
      "count": 155,
      "max": [
        0.00742633548,
        0.008454562,
        0.0155983474
      ],
      "min": [
        -0.00742633455,
        -0.008326698,
        -0.0116233258
      ],
      "type": "VEC3",
      "name": "accessorPositions"
    },
    {
      "bufferView": 1,
      "byteOffset": 52932,
      "componentType": 5126,
      "count": 155,
      "type": "VEC3",
      "name": "accessorNormals"
    },
    {
      "bufferView": 2,
      "byteOffset": 17024,
      "componentType": 5126,
      "count": 155,
      "type": "VEC2",
      "name": "accessorUVs"
    },
    {
      "bufferView": 0,
      "byteOffset": 13880,
      "componentType": 5123,
      "count": 384,
      "type": "SCALAR",
      "name": "accessorIndices"
    },
    {
      "bufferView": 1,
      "byteOffset": 54792,
      "componentType": 5126,
      "count": 73,
      "max": [
        0.0148907444,
        0.00185064133,
        0.0186197869
      ],
      "min": [
        -0.0148907444,
        -0.0238856748,
        -0.00346614467
      ],
      "type": "VEC3",
      "name": "accessorPositions"
    },
    {
      "bufferView": 1,
      "byteOffset": 55668,
      "componentType": 5126,
      "count": 73,
      "type": "VEC3",
      "name": "accessorNormals"
    },
    {
      "bufferView": 2,
      "byteOffset": 18264,
      "componentType": 5126,
      "count": 73,
      "type": "VEC2",
      "name": "accessorUVs"
    },
    {
      "bufferView": 3,
      "componentType": 5126,
      "count": 2,
      "max": [
        0.0333333351
      ],
      "min": [
        0.0
      ],
      "type": "SCALAR",
      "name": "accessorAnimationInput"
    },
    {
      "bufferView": 4,
      "componentType": 5126,
      "count": 2,
      "type": "VEC4",
      "name": "accessorAnimationRotations"
    },
    {
      "bufferView": 3,
      "byteOffset": 8,
      "componentType": 5126,
      "count": 2,
      "max": [
        0.0333333351
      ],
      "min": [
        0.0
      ],
      "type": "SCALAR",
      "name": "accessorAnimationInput"
    },
    {
      "bufferView": 5,
      "componentType": 5126,
      "count": 2,
      "type": "VEC3",
      "name": "accessorAnimationPositions"
    },
    {
      "bufferView": 3,
      "byteOffset": 16,
      "componentType": 5126,
      "count": 2,
      "max": [
        0.0333333351
      ],
      "min": [
        0.0
      ],
      "type": "SCALAR",
      "name": "accessorAnimationInput"
    },
    {
      "bufferView": 4,
      "byteOffset": 32,
      "componentType": 5126,
      "count": 2,
      "type": "VEC4",
      "name": "accessorAnimationRotations"
    },
    {
      "bufferView": 3,
      "byteOffset": 24,
      "componentType": 5126,
      "count": 2,
      "max": [
        0.0333333351
      ],
      "min": [
        0.0
      ],
      "type": "SCALAR",
      "name": "accessorAnimationInput"
    },
    {
      "bufferView": 5,
      "byteOffset": 24,
      "componentType": 5126,
      "count": 2,
      "type": "VEC3",
      "name": "accessorAnimationPositions"
    },
    {
      "bufferView": 3,
      "byteOffset": 32,
      "componentType": 5126,
      "count": 2,
      "max": [
        0.0333333351
      ],
      "min": [
        0.0
      ],
      "type": "SCALAR",
      "name": "accessorAnimationInput"
    },
    {
      "bufferView": 4,
      "byteOffset": 64,
      "componentType": 5126,
      "count": 2,
      "type": "VEC4",
      "name": "accessorAnimationRotations"
    },
    {
      "bufferView": 3,
      "byteOffset": 40,
      "componentType": 5126,
      "count": 2,
      "max": [
        0.0333333351
      ],
      "min": [
        0.0
      ],
      "type": "SCALAR",
      "name": "accessorAnimationInput"
    },
    {
      "bufferView": 5,
      "byteOffset": 48,
      "componentType": 5126,
      "count": 2,
      "type": "VEC3",
      "name": "accessorAnimationPositions"
    },
    {
      "bufferView": 3,
      "byteOffset": 48,
      "componentType": 5126,
      "count": 2,
      "max": [
        0.0333333351
      ],
      "min": [
        0.0
      ],
      "type": "SCALAR",
      "name": "accessorAnimationInput"
    },
    {
      "bufferView": 4,
      "byteOffset": 96,
      "componentType": 5126,
      "count": 2,
      "type": "VEC4",
      "name": "accessorAnimationRotations"
    },
    {
      "bufferView": 3,
      "byteOffset": 56,
      "componentType": 5126,
      "count": 2,
      "max": [
        0.0333333351
      ],
      "min": [
        0.0
      ],
      "type": "SCALAR",
      "name": "accessorAnimationInput"
    },
    {
      "bufferView": 5,
      "byteOffset": 72,
      "componentType": 5126,
      "count": 2,
      "type": "VEC3",
      "name": "accessorAnimationPositions"
    }
  ],
  "bufferViews": [
    {
      "buffer": 0,
      "byteLength": 14648,
      "name": "bufferViewScalar"
    },
    {
      "buffer": 0,
      "byteOffset": 14648,
      "byteLength": 56544,
      "byteStride": 12,
      "name": "bufferViewFloatVec3"
    },
    {
      "buffer": 0,
      "byteOffset": 71192,
      "byteLength": 18848,
      "byteStride": 8,
      "name": "bufferViewFloatVec2"
    },
    {
      "buffer": 0,
      "byteOffset": 90040,
      "byteLength": 64,
      "name": "bufferViewAnimationFloatScalar"
    },
    {
      "buffer": 0,
      "byteOffset": 90104,
      "byteLength": 128,
      "name": "bufferViewAnimationFloatVec4"
    },
    {
      "buffer": 0,
      "byteOffset": 90232,
      "byteLength": 96,
      "name": "bufferViewAnimationFloatVec3"
    }
  ],
  "buffers": [
    {
      "uri": "controller_MetaQuest2_left.bin",
      "byteLength": 90328
    }
  ],
  "materials": [
    {
      "pbrMetallicRoughness": {
        "baseColorTexture": {
          "index": 1
        },
        "metallicFactor": 0.0,
        "metallicRoughnessTexture": {
          "index": 2
        }
      },
      "normalTexture": {
        "index": 0
      },
      "name": "Quest"
    }
  ],
  "textures": [
    {
      "sampler": 0,
      "source": 0,
      "name": "controller_MetaQuest2_Normal.png"
    },
    {
      "sampler": 0,
      "source": 1,
      "name": "controller_MetaQuest2_BaseColor.png"
    },
    {
      "sampler": 0,
      "source": 2,
      "name": "controller_MetaQuest2_Roughness0.png"
    }
  ],
  "images": [
    {
      "uri": "controller_MetaQuest2_Normal.png"
    },
    {
      "uri": "controller_MetaQuest2_BaseColor.png"
    },
    {
      "uri": "controller_MetaQuest2_Roughness0.png"
    }
  ],
  "samplers": [
    {
      "magFilter": 9729,
      "minFilter": 9987
    }
  ],
  "animations": [
    {
      "channels": [
        {
          "sampler": 0,
          "target": {
            "node": 2,
            "path": "rotation"
          }
        }
      ],
      "samplers": [
        {
          "input": 24,
          "output": 25
        }
      ],
      "name": "input/thumbstick/x"
    },
    {
      "channels": [
        {
          "sampler": 0,
          "target": {
            "node": 6,
            "path": "translation"
          }
        },
        {
          "sampler": 1,
          "target": {
            "node": 6,
            "path": "rotation"
          }
        }
      ],
      "samplers": [
        {
          "input": 26,
          "output": 27
        },
        {
          "input": 28,
          "output": 29
        }
      ],
      "name": "input/squeeze/value"
    },
    {
      "channels": [
        {
          "sampler": 0,
          "target": {
            "node": 7,
            "path": "translation"
          }
        },
        {
          "sampler": 1,
          "target": {
            "node": 7,
            "path": "rotation"
          }
        }
      ],
      "samplers": [
        {
          "input": 30,
          "output": 31
        },
        {
          "input": 32,
          "output": 33
        }
      ],
      "name": "input/trigger/value"
    },
    {
      "channels": [
        {
          "sampler": 0,
          "target": {
            "node": 4,
            "path": "translation"
          }
        }
      ],
      "samplers": [
        {
          "input": 34,
          "output": 35
        }
      ],
      "name": "input/upper_button/click"
    },
    {
      "channels": [
        {
          "sampler": 0,
          "target": {
            "node": 1,
            "path": "rotation"
          }
        }
      ],
      "samplers": [
        {
          "input": 36,
          "output": 37
        }
      ],
      "name": "input/thumbstick/y"
    },
    {
      "channels": [
        {
          "sampler": 0,
          "target": {
            "node": 5,
            "path": "translation"
          }
        }
      ],
      "samplers": [
        {
          "input": 38,
          "output": 39
        }
      ],
      "name": "input/lower_button/click"
    }
  ]
}
