{
	"asset":{
		"generator":"Khronos glTF Blender I/O v4.2.69",
		"version":"2.0"
	},
	"extensionsUsed":[
		"KHR_materials_sheen",
		"KHR_materials_ior",
		"KHR_materials_specular"
	],
	"scene":0,
	"scenes":[
		{
			"name":"Scene",
			"nodes":[
				26
			]
		}
	],
	"nodes":[
		{
			"name":"ThumbMetacarpal",
			"rotation":[
				-0.09866373986005783,
				-0.361927330493927,
				-0.30932605266571045,
				0.8738372325897217
			],
			"scale":[
				0.9999999403953552,
				1,
				1
			],
			"translation":[
				0.019999973475933075,
				0.027172856032848358,
				0.010000002570450306
			]
		},
		{
			"name":"ThumbProximal",
			"rotation":[
				-0.00745535409078002,
				-0.36522796750068665,
				-0.29777318239212036,
				0.881977379322052
			],
			"scale":[
				1,
				1,
				0.9999999403953552
			],
			"translation":[
				0.047489747405052185,
				0.06261942535638809,
				0.012312078848481178
			]
		},
		{
			"name":"ThumbDistal",
			"rotation":[
				-0.005297815892845392,
				-0.37381234765052795,
				-0.32515379786491394,
				0.8686261177062988
			],
			"scale":[
				1,
				0.9999997615814209,
				0.9999999403953552
			],
			"translation":[
				0.06985781341791153,
				0.09728823602199554,
				0.020925398916006088
			]
		},
		{
			"name":"ThumbTip",
			"rotation":[
				-0.010887651704251766,
				-0.3559500575065613,
				-0.3010922074317932,
				0.8846041560173035
			],
			"scale":[
				0.9999999403953552,
				1,
				1
			],
			"translation":[
				0.08734916895627975,
				0.12153402715921402,
				0.028117375448346138
			]
		},
		{
			"name":"IndexMetacarpal",
			"rotation":[
				-0.02521965652704239,
				-2.183236210839823e-05,
				0.0005888318992219865,
				0.9996817708015442
			],
			"scale":[
				0.9999999403953552,
				0.9999999403953552,
				0.9999999403953552
			],
			"translation":[
				0.022405151277780533,
				0.02717723324894905,
				-0.010000000707805157
			]
		},
		{
			"name":"IndexProximal",
			"rotation":[
				-0.09938365966081619,
				-0.00494576059281826,
				-0.11056853085756302,
				0.9888746738433838
			],
			"scale":[
				1,
				0.9999999403953552,
				1
			],
			"translation":[
				0.022310618311166763,
				0.10744253545999527,
				-0.014052399434149265
			]
		},
		{
			"name":"IndexIntermediate",
			"rotation":[
				0.08906219154596329,
				0.0008444192353636026,
				-0.0999261736869812,
				0.9910005331039429
			],
			"scale":[
				0.9999998807907104,
				0.9999998807907104,
				1
			],
			"translation":[
				0.030683254823088646,
				0.14387394487857819,
				-0.021502703428268433
			]
		},
		{
			"name":"IndexDistal",
			"rotation":[
				0.09669245034456253,
				0.015240942128002644,
				-0.10995994508266449,
				0.9891042113304138
			],
			"scale":[
				1,
				1,
				0.9999999403953552
			],
			"translation":[
				0.03665055334568024,
				0.1729019433259964,
				-0.01619328372180462
			]
		},
		{
			"name":"IndexTip",
			"rotation":[
				0.20065464079380035,
				-0.0020291386172175407,
				-0.057334985584020615,
				0.9779807329177856
			],
			"scale":[
				0.9999999403953552,
				0.9999998807907104,
				1
			],
			"translation":[
				0.042630113661289215,
				0.19886063039302826,
				-0.011096407659351826
			]
		},
		{
			"name":"MiddleMetacarpal",
			"rotation":[
				-0.04997764900326729,
				-3.924766497220844e-05,
				0.03585448116064072,
				0.9981065392494202
			],
			"translation":[
				0.003527589375153184,
				0.02714575082063675,
				-0.009999999776482582
			]
		},
		{
			"name":"MiddleProximal",
			"rotation":[
				0.004116901196539402,
				0.002053135307505727,
				0.04777873679995537,
				0.9988473653793335
			],
			"scale":[
				0.9999999403953552,
				1,
				1
			],
			"translation":[
				-0.0022311087232083082,
				0.1070001944899559,
				-0.018027732148766518
			]
		},
		{
			"name":"MiddleIntermediate",
			"rotation":[
				0.08213482797145844,
				-6.182479410199448e-05,
				0.00829318631440401,
				0.9965867400169373
			],
			"scale":[
				0.9999998807907104,
				1,
				0.9999999403953552
			],
			"translation":[
				-0.006525800097733736,
				0.1517966091632843,
				-0.017648780718445778
			]
		},
		{
			"name":"MiddleDistal",
			"rotation":[
				0.051488395780324936,
				-0.003963342867791653,
				0.019341381266713142,
				0.9984784126281738
			],
			"scale":[
				0.9999998807907104,
				1,
				1
			],
			"translation":[
				-0.007050777319818735,
				0.18310405313968658,
				-0.012452686205506325
			]
		},
		{
			"name":"MiddleTip",
			"rotation":[
				0.2043638378381729,
				0.0009663313394412398,
				0.00834223348647356,
				0.978859007358551
			],
			"scale":[
				0.9999999403953552,
				0.9999999403953552,
				0.9999999403953552
			],
			"translation":[
				-0.008153332397341728,
				0.21118058264255524,
				-0.009552597999572754
			]
		},
		{
			"name":"RingMetacarpal",
			"rotation":[
				-0.018085602670907974,
				-1.6189083908102475e-05,
				0.07119494676589966,
				0.9972984790802002
			],
			"scale":[
				0.9999998211860657,
				0.9999999403953552,
				0.9999999403953552
			],
			"translation":[
				-0.013099992647767067,
				0.027118019759655,
				-0.010000006295740604
			]
		},
		{
			"name":"RingProximal",
			"rotation":[
				-0.016610438004136086,
				0.005267076659947634,
				0.12180737406015396,
				0.9924008250236511
			],
			"scale":[
				1,
				0.9999999403953552,
				1
			],
			"translation":[
				-0.023600364103913307,
				0.10026389360427856,
				-0.012667588889598846
			]
		},
		{
			"name":"RingIntermediate",
			"rotation":[
				0.08399143815040588,
				-0.00199259165674448,
				0.10635063052177429,
				0.9907729625701904
			],
			"translation":[
				-0.033309634774923325,
				0.13918210566043854,
				-0.01393915992230177
			]
		},
		{
			"name":"RingDistal",
			"rotation":[
				0.07409556955099106,
				-0.016920657828450203,
				0.1070706844329834,
				0.9913422465324402
			],
			"scale":[
				1,
				0.9999999403953552,
				0.9999999403953552
			],
			"translation":[
				-0.03901708871126175,
				0.16522902250289917,
				-0.009450258687138557
			]
		},
		{
			"name":"RingTip",
			"rotation":[
				0.2069942206144333,
				0.008097727783024311,
				0.08289477974176407,
				0.9747903943061829
			],
			"translation":[
				-0.046084072440862656,
				0.19701449573040009,
				-0.004736034199595451
			]
		},
		{
			"name":"LittleMetacarpal",
			"rotation":[
				-0.028447626158595085,
				-2.5818821086431853e-05,
				0.09176954627037048,
				0.9953738451004028
			],
			"scale":[
				0.9999998807907104,
				0.9999999403953552,
				1
			],
			"translation":[
				-0.02999996393918991,
				0.027089649811387062,
				-3.0768376735323955e-09
			]
		},
		{
			"name":"LittleProximal",
			"rotation":[
				0.021577391773462296,
				0.007847892120480537,
				0.18019288778305054,
				0.9833633303642273
			],
			"scale":[
				0.9999999403953552,
				1,
				0.9999999403953552
			],
			"translation":[
				-0.04200465604662895,
				0.09158770740032196,
				-0.003721674671396613
			]
		},
		{
			"name":"LittleIntermediate",
			"rotation":[
				0.13211679458618164,
				-0.0051481518894433975,
				0.1376984715461731,
				0.9816098213195801
			],
			"scale":[
				1,
				0.9999999403953552,
				0.9999999403953552
			],
			"translation":[
				-0.053732093423604965,
				0.12252940982580185,
				-0.0022223396226763725
			]
		},
		{
			"name":"LittleDistal",
			"rotation":[
				0.1510811746120453,
				-0.01854819990694523,
				0.14838668704032898,
				0.977144718170166
			],
			"translation":[
				-0.05843280255794525,
				0.1385708898305893,
				0.002240712521597743
			]
		},
		{
			"name":"LittleTip",
			"rotation":[
				0.18330015242099762,
				0.008693312294781208,
				0.1389225274324417,
				0.9731526374816895
			],
			"scale":[
				1,
				0.9999999403953552,
				1
			],
			"translation":[
				-0.064223513007164,
				0.15640389919281006,
				0.007916952483355999
			]
		},
		{
			"children":[
				0,
				1,
				2,
				3,
				4,
				5,
				6,
				7,
				8,
				9,
				10,
				11,
				12,
				13,
				14,
				15,
				16,
				17,
				18,
				19,
				20,
				21,
				22,
				23
			],
			"name":"RightHand",
			"rotation":[
				0.707099974155426,
				0.000589744362514466,
				-0.0005895058857277036,
				0.7071130871772766
			],
			"scale":[
				0.9999999403953552,
				0.9999997615814209,
				1
			],
			"translation":[
				-1.869984953373205e-05,
				-3.8646671640663044e-08,
				-0.027175573632121086
			]
		},
		{
			"mesh":0,
			"name":"RightHandMesh",
			"skin":0
		},
		{
			"children":[
				25,
				24
			],
			"name":"RightHand"
		}
	],
	"materials":[
		{
			"doubleSided":true,
			"extensions":{
				"KHR_materials_ior": {
					"ior": 1.2
				},
				"KHR_materials_specular": {
					"specularFactor": 0.2,
					"specularColorFactor": [1.0, 1.0, 1.0]
				}
			},
			"name":"HandMaterial",
			"emissiveFactor": [0.2, 0.2, 0.2],
			"pbrMetallicRoughness":{
				"baseColorFactor":[
					0.15,
					0.15,
					0.15,
					1
				],
				"metallicFactor":0,
				"roughnessFactor":0.65
			}
		}
	],
	"meshes":[
		{
			"name":"Hand",
			"primitives":[
				{
					"attributes":{
						"POSITION":0,
						"NORMAL":1,
						"TEXCOORD_0":2,
						"JOINTS_0":3,
						"WEIGHTS_0":4
					},
					"indices":5,
					"material":0
				}
			]
		}
	],
	"skins":[
		{
			"inverseBindMatrices":6,
			"joints":[
				24,
				0,
				1,
				2,
				3,
				4,
				5,
				6,
				7,
				8,
				9,
				10,
				11,
				12,
				13,
				14,
				15,
				16,
				17,
				18,
				19,
				20,
				21,
				22,
				23
			],
			"name":"RightHand"
		}
	],
	"accessors":[
		{
			"bufferView":0,
			"componentType":5126,
			"count":603,
			"max":[
				0.09001174569129944,
				0.029357274994254112,
				0.18542329967021942
			],
			"min":[
				-0.06838370114564896,
				-0.03573954477906227,
				-0.02580641396343708
			],
			"type":"VEC3"
		},
		{
			"bufferView":1,
			"componentType":5126,
			"count":603,
			"type":"VEC3"
		},
		{
			"bufferView":2,
			"componentType":5126,
			"count":603,
			"type":"VEC2"
		},
		{
			"bufferView":3,
			"componentType":5121,
			"count":603,
			"type":"VEC4"
		},
		{
			"bufferView":4,
			"componentType":5126,
			"count":603,
			"type":"VEC4"
		},
		{
			"bufferView":5,
			"componentType":5123,
			"count":2814,
			"type":"SCALAR"
		},
		{
			"bufferView":6,
			"componentType":5126,
			"count":25,
			"type":"MAT4"
		}
	],
	"bufferViews":[
		{
			"buffer":0,
			"byteLength":7236,
			"byteOffset":0,
			"target":34962
		},
		{
			"buffer":0,
			"byteLength":7236,
			"byteOffset":7236,
			"target":34962
		},
		{
			"buffer":0,
			"byteLength":4824,
			"byteOffset":14472,
			"target":34962
		},
		{
			"buffer":0,
			"byteLength":2412,
			"byteOffset":19296,
			"target":34962
		},
		{
			"buffer":0,
			"byteLength":9648,
			"byteOffset":21708,
			"target":34962
		},
		{
			"buffer":0,
			"byteLength":5628,
			"byteOffset":31356,
			"target":34963
		},
		{
			"buffer":0,
			"byteLength":1600,
			"byteOffset":36984
		}
	],
	"buffers":[
		{
			"byteLength":38584,
			"uri":"SimpleHand_Right.bin"
		}
	]
}
