{
	"asset":{
		"generator":"Khronos glTF Blender I/O v4.2.69",
		"version":"2.0"
	},
	"extensionsUsed":[
		"KHR_materials_sheen",
		"KHR_materials_ior",
		"KHR_materials_specular"
	],
	"scene":0,
	"scenes":[
		{
			"name":"Scene",
			"nodes":[
				26
			]
		}
	],
	"nodes":[
		{
			"name":"ThumbMetacarpal",
			"rotation":[
				0.07189563661813736,
				-0.131399467587471,
				0.3166199326515198,
				0.9366520643234253
			],
			"scale":[
				0.9999999403953552,
				0.9999999403953552,
				1
			],
			"translation":[
				-0.019999973475933075,
				0.027172856032848358,
				0.010000002570450306
			]
		},
		{
			"name":"ThumbProximal",
			"rotation":[
				0.17682777345180511,
				-0.2527950406074524,
				0.23970064520835876,
				0.9205271601676941
			],
			"scale":[
				1,
				0.9999999403953552,
				1
			],
			"translation":[
				-0.047489747405052185,
				0.06261942535638809,
				0.012312078848481178
			]
		},
		{
			"name":"ThumbDistal",
			"rotation":[
				0.19573372602462769,
				-0.23923814296722412,
				0.25969475507736206,
				0.9148836731910706
			],
			"scale":[
				0.9999999403953552,
				0.9999997615814209,
				0.9999999403953552
			],
			"translation":[
				-0.06985781341791153,
				0.09728823602199554,
				0.020925398916006088
			]
		},
		{
			"name":"ThumbTip",
			"rotation":[
				0.16907960176467896,
				-0.23535814881324768,
				0.24937349557876587,
				0.9240300059318542
			],
			"translation":[
				-0.08734916895627975,
				0.12153402715921402,
				0.028117375448346138
			]
		},
		{
			"name":"IndexMetacarpal",
			"rotation":[
				-0.02521969936788082,
				-5.013597183278762e-05,
				-0.0005870162858627737,
				0.9996817708015442
			],
			"scale":[
				0.9999999403953552,
				0.9999999403953552,
				0.9999999403953552
			],
			"translation":[
				-0.022405151277780533,
				0.02717723324894905,
				-0.010000000707805157
			]
		},
		{
			"name":"IndexProximal",
			"rotation":[
				-0.10069228708744049,
				0.016711974516510963,
				0.1093781515955925,
				0.9887458086013794
			],
			"scale":[
				1,
				0.9999999403953552,
				0.9999999403953552
			],
			"translation":[
				-0.022310618311166763,
				0.10744253545999527,
				-0.014052399434149265
			]
		},
		{
			"name":"IndexIntermediate",
			"rotation":[
				0.09063044935464859,
				-0.01650780811905861,
				0.09850599616765976,
				0.9908633828163147
			],
			"scale":[
				0.9999999403953552,
				0.9999999403953552,
				1
			],
			"translation":[
				-0.030683254823088646,
				0.14387394487857819,
				-0.021502703428268433
			]
		},
		{
			"name":"IndexDistal",
			"rotation":[
				0.09573586285114288,
				-0.006668326444923878,
				0.11079379171133041,
				0.989199161529541
			],
			"scale":[
				1,
				0.9999999403953552,
				1
			],
			"translation":[
				-0.03665055334568024,
				0.1729019433259964,
				-0.01619328372180462
			]
		},
		{
			"name":"IndexTip",
			"rotation":[
				0.20211969316005707,
				-0.024191798642277718,
				0.051934704184532166,
				0.9776836037635803
			],
			"scale":[
				0.9999998807907104,
				0.9999998807907104,
				0.9999999403953552
			],
			"translation":[
				-0.042630113661289215,
				0.19886063039302826,
				-0.011096407659351826
			]
		},
		{
			"name":"MiddleMetacarpal",
			"rotation":[
				-0.05010847747325897,
				-0.0036119960714131594,
				-0.035671416670084,
				0.9981000423431396
			],
			"scale":[
				0.9999999403953552,
				0.9999999403953552,
				0.9999999403953552
			],
			"translation":[
				-0.003527589375153184,
				0.02714575082063675,
				-0.009999999776482582
			]
		},
		{
			"name":"MiddleProximal",
			"rotation":[
				0.004330585245043039,
				0.0024149520322680473,
				-0.04775984585285187,
				0.9988465309143066
			],
			"scale":[
				0.9999998807907104,
				1,
				1
			],
			"translation":[
				0.0022311087232083082,
				0.1070001944899559,
				-0.018027732148766518
			]
		},
		{
			"name":"MiddleIntermediate",
			"rotation":[
				0.08214503526687622,
				0.0012962145265191793,
				-0.008191446773707867,
				0.9965859055519104
			],
			"scale":[
				0.9999998807907104,
				0.9999999403953552,
				1
			],
			"translation":[
				0.006525800097733736,
				0.1517966091632843,
				-0.017648780718445778
			]
		},
		{
			"name":"MiddleDistal",
			"rotation":[
				0.05137280002236366,
				-0.0019574931357055902,
				-0.019646357744932175,
				0.9984843730926514
			],
			"scale":[
				0.9999998807907104,
				0.9999999403953552,
				1
			],
			"translation":[
				0.007050777319818735,
				0.18310405313968658,
				-0.012452686205506325
			]
		},
		{
			"name":"MiddleTip",
			"rotation":[
				0.20440514385700226,
				0.004222339950501919,
				-0.007258840370923281,
				0.9788503646850586
			],
			"scale":[
				0.9999999403953552,
				0.9999999403953552,
				1
			],
			"translation":[
				0.008153332397341728,
				0.21118058264255524,
				-0.009552597999572754
			]
		},
		{
			"name":"RingMetacarpal",
			"rotation":[
				-0.018269235268235207,
				-0.002556981984525919,
				-0.07114804536104202,
				0.9972952008247375
			],
			"scale":[
				0.9999998211860657,
				0.9999999403953552,
				0.9999999403953552
			],
			"translation":[
				0.013099992647767067,
				0.027118019759655,
				-0.010000006295740604
			]
		},
		{
			"name":"RingProximal",
			"rotation":[
				-0.01585283875465393,
				0.0009027803898788989,
				-0.1219082772731781,
				0.9924143552780151
			],
			"scale":[
				1,
				0.9999998807907104,
				1
			],
			"translation":[
				0.023600364103913307,
				0.10026389360427856,
				-0.012667588889598846
			]
		},
		{
			"name":"RingIntermediate",
			"rotation":[
				0.08543042838573456,
				0.015470574609935284,
				-0.10519818961620331,
				0.9906541705131531
			],
			"scale":[
				1,
				1.0000001192092896,
				1
			],
			"translation":[
				0.033309634774923325,
				0.13918210566043854,
				-0.01393915992230177
			]
		},
		{
			"name":"RingDistal",
			"rotation":[
				0.07223579287528992,
				-0.00019882972992490977,
				-0.10833408683538437,
				0.9914866089820862
			],
			"scale":[
				1,
				1,
				0.9999999403953552
			],
			"translation":[
				0.03901708871126175,
				0.16522902250289917,
				-0.009450258687138557
			]
		},
		{
			"name":"RingTip",
			"rotation":[
				0.2108420431613922,
				0.04014156013727188,
				-0.07255187630653381,
				0.9739972352981567
			],
			"scale":[
				0.9999999403953552,
				1,
				1
			],
			"translation":[
				0.046084072440862656,
				0.19701449573040009,
				-0.004736034199595451
			]
		},
		{
			"name":"LittleMetacarpal",
			"rotation":[
				-0.0289227943867445,
				-0.005132204852998257,
				-0.09162089973688126,
				0.9953606128692627
			],
			"scale":[
				1,
				0.9999999403953552,
				1
			],
			"translation":[
				0.02999996393918991,
				0.027089649811387062,
				-3.0768376735323955e-09
			]
		},
		{
			"name":"LittleProximal",
			"rotation":[
				0.025484049692749977,
				0.013501462526619434,
				-0.17968197166919708,
				0.9833019375801086
			],
			"translation":[
				0.04200465604662895,
				0.09158770740032196,
				-0.003721674671396613
			]
		},
		{
			"name":"LittleIntermediate",
			"rotation":[
				0.13555702567100525,
				0.02997223287820816,
				-0.13431306183338165,
				0.9811656475067139
			],
			"scale":[
				1,
				0.9999999403953552,
				1
			],
			"translation":[
				0.053732093423604965,
				0.12252940982580185,
				-0.0022223396226763725
			]
		},
		{
			"name":"LittleDistal",
			"rotation":[
				0.15229377150535583,
				0.026566172018647194,
				-0.14714188873767853,
				0.9769596457481384
			],
			"translation":[
				0.05843280255794525,
				0.1385708898305893,
				0.002240712521597743
			]
		},
		{
			"name":"LittleTip",
			"rotation":[
				0.19199344515800476,
				0.05497090891003609,
				-0.12663701176643372,
				0.9716377258300781
			],
			"scale":[
				0.9999999403953552,
				0.9999998807907104,
				0.9999999403953552
			],
			"translation":[
				0.064223513007164,
				0.15640389919281006,
				0.007916952483355999
			]
		},
		{
			"children":[
				0,
				1,
				2,
				3,
				4,
				5,
				6,
				7,
				8,
				9,
				10,
				11,
				12,
				13,
				14,
				15,
				16,
				17,
				18,
				19,
				20,
				21,
				22,
				23
			],
			"name":"LeftHand",
			"rotation":[
				0.707099974155426,
				-0.000589744362514466,
				0.0005895058857277036,
				0.7071130871772766
			],
			"scale":[
				0.9999999403953552,
				0.9999997615814209,
				1
			],
			"translation":[
				1.869984953373205e-05,
				-3.8646671640663044e-08,
				-0.027175573632121086
			]
		},
		{
			"mesh":0,
			"name":"LeftHandMesh",
			"skin":0
		},
		{
			"children":[
				25,
				24
			],
			"name":"LeftHand"
		}
	],
	"materials":[
		{
			"doubleSided":true,
			"extensions":{
				"KHR_materials_ior": {
					"ior": 1.2
				},
				"KHR_materials_specular": {
					"specularFactor": 0.2,
					"specularColorFactor": [1.0, 1.0, 1.0]
				}
			},
			"name":"HandMaterial",
			"emissiveFactor": [0.2, 0.2, 0.2],
			"pbrMetallicRoughness":{
				"baseColorFactor":[
					0.15,
					0.15,
					0.15,
					1
				],
				"metallicFactor":0,
				"roughnessFactor":0.65
			}
		}
	],
	"meshes":[
		{
			"name":"LeftHand",
			"primitives":[
				{
					"attributes":{
						"POSITION":0,
						"NORMAL":1,
						"TEXCOORD_0":2,
						"JOINTS_0":3,
						"WEIGHTS_0":4
					},
					"indices":5,
					"material":0
				}
			]
		}
	],
	"skins":[
		{
			"inverseBindMatrices":6,
			"joints":[
				24,
				0,
				1,
				2,
				3,
				4,
				5,
				6,
				7,
				8,
				9,
				10,
				11,
				12,
				13,
				14,
				15,
				16,
				17,
				18,
				19,
				20,
				21,
				22,
				23
			],
			"name":"LeftHand"
		}
	],
	"accessors":[
		{
			"bufferView":0,
			"componentType":5126,
			"count":603,
			"max":[
				0.06838370114564896,
				0.029357274994254112,
				0.18542329967021942
			],
			"min":[
				-0.09001174569129944,
				-0.03573954477906227,
				-0.02580641396343708
			],
			"type":"VEC3"
		},
		{
			"bufferView":1,
			"componentType":5126,
			"count":603,
			"type":"VEC3"
		},
		{
			"bufferView":2,
			"componentType":5126,
			"count":603,
			"type":"VEC2"
		},
		{
			"bufferView":3,
			"componentType":5121,
			"count":603,
			"type":"VEC4"
		},
		{
			"bufferView":4,
			"componentType":5126,
			"count":603,
			"type":"VEC4"
		},
		{
			"bufferView":5,
			"componentType":5123,
			"count":2814,
			"type":"SCALAR"
		},
		{
			"bufferView":6,
			"componentType":5126,
			"count":25,
			"type":"MAT4"
		}
	],
	"bufferViews":[
		{
			"buffer":0,
			"byteLength":7236,
			"byteOffset":0,
			"target":34962
		},
		{
			"buffer":0,
			"byteLength":7236,
			"byteOffset":7236,
			"target":34962
		},
		{
			"buffer":0,
			"byteLength":4824,
			"byteOffset":14472,
			"target":34962
		},
		{
			"buffer":0,
			"byteLength":2412,
			"byteOffset":19296,
			"target":34962
		},
		{
			"buffer":0,
			"byteLength":9648,
			"byteOffset":21708,
			"target":34962
		},
		{
			"buffer":0,
			"byteLength":5628,
			"byteOffset":31356,
			"target":34963
		},
		{
			"buffer":0,
			"byteLength":1600,
			"byteOffset":36984
		}
	],
	"buffers":[
		{
			"byteLength":38584,
			"uri":"SimpleHand_Left.bin"
		}
	]
}
